<svg version="1.1" xmlns="http://www.w3.org/2000/svg" viewBox="0 0 434.92513884243385 147.04250874264426" width="434.92513884243385" height="147.04250874264426" filter="invert(93%) hue-rotate(180deg)" class="excalidraw-svg"><!-- svg-source:excalidraw --><metadata></metadata><defs><style class="style-fonts">
      </style></defs><rect x="0" y="0" width="434.92513884243385" height="147.04250874264426" fill="#ffffff"></rect><g transform="translate(14.779253355444837 48.59776782579871) rotate(0.9094015075210009 28.463558970251455 39.98668192477325)" stroke="none"><path fill="#1e1e1e" d="M 3.99,-0.26 Q 3.99,-0.26 4.20,5.72 4.42,11.71 5.05,21.13 5.68,30.55 6.70,40.04 7.72,49.52 8.72,57.46 9.72,65.40 10.14,70.46 10.55,75.52 10.92,78.59 11.30,81.66 11.59,84.89 11.87,88.13 11.92,87.84 11.96,87.55 11.92,88.03 11.88,88.52 11.72,88.99 11.57,89.45 11.30,89.86 11.04,90.27 10.68,90.61 10.33,90.95 9.91,91.19 9.48,91.44 9.01,91.57 8.54,91.70 8.05,91.72 7.56,91.74 7.08,91.64 6.60,91.54 6.16,91.33 5.72,91.12 5.34,90.80 4.96,90.49 4.67,90.10 4.38,89.71 4.19,89.26 4.00,88.81 3.92,88.32 3.85,87.84 2.20,84.49 0.56,81.14 -0.33,78.08 -1.22,75.02 -1.93,70.65 -2.64,66.27 -3.44,61.68 -4.24,57.09 -4.84,53.22 -5.44,49.35 -5.99,46.11 -6.53,42.87 -6.73,39.04 -6.93,35.20 -7.05,31.75 -7.17,28.30 -7.35,25.69 -7.52,23.08 -7.46,18.36 -7.40,13.65 -7.23,10.91 -7.06,8.18 -6.35,5.26 -5.63,2.35 -4.13,-1.00 -2.63,-4.36 -0.21,-6.68 2.19,-9.01 5.39,-10.51 8.59,-12.01 11.43,-12.85 14.28,-13.69 17.71,-14.21 21.15,-14.73 24.44,-13.92 27.74,-13.11 29.47,-11.36 31.19,-9.60 32.06,-6.57 32.93,-3.53 32.44,0.68 31.94,4.90 31.58,7.47 31.22,10.04 30.07,13.11 28.93,16.17 26.68,19.19 24.43,22.20 22.43,23.97 20.42,25.74 14.17,29.70 7.91,33.65 5.73,35.19 3.55,36.73 2.84,34.54 2.13,32.36 13.92,39.32 25.72,46.29 32.50,50.97 39.27,55.65 43.59,59.14 47.90,62.64 50.96,65.28 54.02,67.92 56.60,70.13 59.17,72.34 61.25,73.86 63.33,75.38 63.76,75.85 64.18,76.33 64.43,76.91 64.68,77.49 64.73,78.13 64.78,78.76 64.62,79.37 64.47,79.99 64.12,80.52 63.78,81.06 63.28,81.45 62.79,81.85 62.19,82.07 61.60,82.28 60.96,82.30 60.33,82.32 59.72,82.13 59.11,81.94 58.60,81.57 58.09,81.20 57.72,80.68 57.35,80.16 57.16,79.55 56.98,78.95 57.00,78.31 57.02,77.68 57.24,77.08 57.46,76.49 57.86,75.99 58.26,75.50 58.79,75.16 59.33,74.82 59.94,74.67 60.56,74.52 61.19,74.57 61.83,74.63 62.41,74.88 62.99,75.13 63.46,75.56 63.93,75.98 64.24,76.53 64.55,77.09 64.67,77.71 64.79,78.34 64.70,78.96 64.61,79.59 64.33,80.16 64.05,80.73 63.60,81.18 63.15,81.62 62.58,81.90 62.01,82.18 61.38,82.27 60.75,82.35 60.13,82.23 59.50,82.11 58.95,81.79 58.40,81.48 58.40,81.48 58.40,81.48 56.33,79.65 54.27,77.81 51.88,75.57 49.49,73.33 46.49,70.89 43.49,68.46 39.19,65.43 34.89,62.41 27.97,58.23 21.06,54.05 6.98,44.78 -7.09,35.51 -4.57,32.09 -2.04,28.68 0.55,26.86 3.15,25.04 6.46,22.97 9.76,20.90 12.67,18.19 15.57,15.47 17.63,11.95 19.69,8.43 19.97,6.20 20.25,3.96 21.07,0.69 21.90,-2.56 19.68,-2.43 17.46,-2.29 13.75,-1.42 10.04,-0.55 8.08,0.33 6.12,1.22 4.85,3.09 3.57,4.96 2.89,7.00 2.21,9.04 1.91,11.47 1.62,13.90 1.15,18.44 0.68,22.97 0.58,25.54 0.48,28.11 0.52,31.46 0.57,34.80 0.77,38.29 0.97,41.79 1.35,44.97 1.73,48.16 2.38,51.83 3.03,55.49 4.22,59.98 5.41,64.47 6.57,68.49 7.74,72.50 8.44,75.11 9.14,77.72 10.07,80.34 11.00,82.95 11.48,85.25 11.96,87.55 11.92,88.03 11.88,88.52 11.72,88.99 11.57,89.45 11.30,89.86 11.04,90.27 10.68,90.61 10.33,90.95 9.91,91.19 9.48,91.44 9.01,91.57 8.54,91.70 8.05,91.72 7.56,91.74 7.08,91.64 6.60,91.54 6.16,91.33 5.72,91.12 5.34,90.80 4.96,90.49 4.67,90.10 4.38,89.71 4.19,89.26 4.00,88.81 3.92,88.32 3.85,87.84 4.26,87.18 4.68,86.52 4.73,84.30 4.77,82.08 4.76,79.07 4.75,76.05 4.25,71.13 3.74,66.21 2.59,58.23 1.44,50.26 0.21,40.68 -1.01,31.10 -1.92,21.65 -2.82,12.19 -3.41,6.23 -3.99,0.26 -3.96,-0.21 -3.94,-0.69 -3.79,-1.15 -3.65,-1.61 -3.41,-2.03 -3.16,-2.44 -2.82,-2.79 -2.48,-3.13 -2.07,-3.38 -1.66,-3.63 -1.20,-3.78 -0.74,-3.93 -0.26,-3.96 0.21,-3.99 0.69,-3.91 1.16,-3.82 1.60,-3.63 2.04,-3.43 2.43,-3.14 2.81,-2.84 3.11,-2.46 3.41,-2.09 3.61,-1.65 3.81,-1.21 3.90,-0.74 3.99,-0.26 3.99,-0.26 L 3.99,-0.26 Z"></path></g><g transform="translate(80.70051424731645 90.87238073664844) rotate(0.9094015075210009 5.900967850372183 -0.000007626852806197348)" stroke="none"><path fill="#1e1e1e" d="M -1.03,-5.07 Q -1.03,-5.07 2.38,-5.63 5.80,-6.20 8.20,-6.76 10.61,-7.33 12.86,-8.23 15.11,-9.14 13.03,-11.81 10.94,-14.49 7.96,-15.94 4.99,-17.39 2.81,-17.55 0.63,-17.70 -2.29,-17.55 -5.23,-17.39 -3.99,-14.00 -2.76,-10.61 -2.42,-7.67 -2.07,-4.73 -1.68,-2.28 -1.30,0.17 -0.50,2.18 0.29,4.19 2.39,7.21 4.48,10.23 6.70,12.04 8.91,13.85 11.30,15.74 13.68,17.62 15.87,17.37 18.06,17.11 19.67,17.11 21.28,17.11 22.38,17.29 23.47,17.47 24.46,18.00 25.44,18.52 26.20,19.33 26.97,20.14 27.43,21.15 27.90,22.16 28.01,23.27 28.13,24.37 27.89,25.46 27.65,26.54 27.07,27.50 26.50,28.45 25.65,29.17 24.80,29.89 23.77,30.30 22.73,30.71 21.62,30.76 20.51,30.82 19.44,30.52 18.37,30.22 17.45,29.60 16.53,28.97 15.86,28.08 15.18,27.20 14.83,26.14 14.48,25.09 14.48,23.97 14.48,22.86 14.84,21.81 15.20,20.75 15.87,19.87 16.55,18.98 17.47,18.36 18.39,17.74 19.46,17.44 20.54,17.15 21.65,17.21 22.76,17.27 23.79,17.69 24.82,18.10 25.67,18.82 26.52,19.55 27.09,20.50 27.66,21.45 27.90,22.54 28.13,23.63 28.01,24.73 27.89,25.84 27.42,26.85 26.95,27.86 26.18,28.66 25.42,29.47 24.43,29.99 23.45,30.51 22.35,30.69 21.25,30.86 21.25,30.86 21.25,30.86 18.07,30.77 14.89,30.68 12.37,30.33 9.85,29.98 7.87,29.16 5.89,28.34 3.79,26.49 1.69,24.63 -0.38,23.19 -2.46,21.74 -4.06,20.13 -5.65,18.53 -8.26,15.01 -10.87,11.48 -12.03,8.62 -13.19,5.76 -13.77,2.74 -14.36,-0.28 -14.67,-3.11 -14.97,-5.94 -15.31,-10.09 -15.66,-14.24 -15.49,-18.68 -15.33,-23.13 -12.66,-25.91 -9.99,-28.69 -6.44,-29.34 -2.89,-29.99 1.09,-29.70 5.07,-29.41 7.45,-28.85 9.82,-28.28 11.84,-27.32 13.86,-26.36 16.67,-24.63 19.48,-22.90 21.06,-21.22 22.64,-19.55 24.49,-16.84 26.33,-14.13 26.35,-9.87 26.38,-5.60 24.56,-3.61 22.74,-1.62 20.93,-0.41 19.13,0.79 15.92,1.63 12.71,2.48 10.24,2.96 7.76,3.44 4.39,4.25 1.03,5.07 0.40,5.12 -0.21,5.17 -0.82,5.07 -1.44,4.97 -2.01,4.72 -2.59,4.48 -3.09,4.10 -3.59,3.73 -3.98,3.24 -4.37,2.76 -4.64,2.19 -4.91,1.63 -5.03,1.02 -5.16,0.41 -5.13,-0.21 -5.11,-0.83 -4.93,-1.43 -4.76,-2.03 -4.44,-2.57 -4.13,-3.11 -3.70,-3.56 -3.27,-4.01 -2.74,-4.34 -2.21,-4.67 -1.62,-4.87 -1.03,-5.07 -1.03,-5.07 L -1.03,-5.07 Z"></path></g><g transform="translate(145.15239608366673 15.0832727330573) rotate(0.9094015075210009 3.818248389885028 39.586813656423516)" stroke="none"><path fill="#1e1e1e" d="M 4.08,1.33 Q 4.08,1.33 2.77,4.97 1.46,8.61 -0.63,14.26 -2.72,19.92 -4.20,27.13 -5.69,34.35 -6.25,37.95 -6.82,41.56 -7.24,45.11 -7.65,48.67 -7.81,52.15 -7.96,55.63 -7.39,58.22 -6.82,60.80 -5.03,63.67 -3.24,66.53 -0.36,68.81 2.51,71.09 5.33,72.41 8.14,73.73 11.27,73.45 14.40,73.17 16.63,73.17 18.86,73.16 19.81,73.32 20.77,73.48 21.63,73.94 22.48,74.41 23.15,75.12 23.81,75.83 24.21,76.71 24.62,77.60 24.72,78.56 24.81,79.53 24.60,80.48 24.38,81.43 23.88,82.25 23.37,83.08 22.63,83.71 21.88,84.33 20.98,84.69 20.07,85.04 19.10,85.09 18.13,85.13 17.19,84.87 16.26,84.60 15.46,84.05 14.66,83.50 14.07,82.72 13.49,81.94 13.19,81.02 12.88,80.10 12.89,79.13 12.89,78.15 13.21,77.23 13.53,76.31 14.12,75.54 14.71,74.78 15.52,74.23 16.33,73.69 17.27,73.44 18.21,73.19 19.18,73.25 20.15,73.31 21.05,73.67 21.95,74.04 22.69,74.67 23.42,75.31 23.92,76.14 24.41,76.98 24.62,77.93 24.82,78.88 24.71,79.85 24.60,80.81 24.18,81.69 23.77,82.57 23.09,83.27 22.42,83.97 21.56,84.42 20.70,84.87 19.74,85.02 18.78,85.17 18.78,85.17 18.78,85.17 16.41,85.12 14.04,85.06 10.75,84.82 7.46,84.58 4.47,83.55 1.48,82.52 -1.38,80.71 -4.25,78.90 -6.37,77.04 -8.48,75.18 -10.53,72.24 -12.58,69.29 -13.83,66.09 -15.07,62.89 -15.07,59.07 -15.06,55.25 -14.83,51.52 -14.60,47.80 -14.11,44.12 -13.62,40.44 -12.98,36.77 -12.35,33.09 -11.02,25.34 -9.69,17.60 -7.97,11.85 -6.25,6.10 -5.16,2.38 -4.08,-1.33 -3.86,-1.80 -3.64,-2.26 -3.32,-2.67 -3.00,-3.07 -2.58,-3.39 -2.17,-3.70 -1.70,-3.91 -1.22,-4.11 -0.71,-4.20 -0.20,-4.29 0.31,-4.25 0.82,-4.21 1.32,-4.05 1.81,-3.89 2.25,-3.62 2.69,-3.34 3.05,-2.97 3.41,-2.60 3.67,-2.16 3.94,-1.71 4.08,-1.21 4.23,-0.72 4.26,-0.20 4.28,0.31 4.18,0.82 4.08,1.33 4.08,1.33 L 4.08,1.33 Z"></path></g><g transform="translate(191.58592109796388 31.567658484515334) rotate(0.9094015075210009 -11.801962183622393 28.39054790374692)" stroke="none"><path fill="#1e1e1e" d="M 0,4.61 Q 0,4.61 -4.39,4.35 -8.78,4.09 -12.31,4.26 -15.85,4.43 -18.35,5.15 -20.85,5.88 -19.80,8.75 -18.75,11.62 -18.72,14.26 -18.69,16.89 -18.59,20.17 -18.48,23.45 -18.08,26.55 -17.67,29.65 -16.57,33.43 -15.47,37.22 -14.40,39.09 -13.33,40.96 -11.79,42.84 -10.25,44.73 -8.54,48.11 -6.82,51.49 -6.05,53.54 -5.28,55.58 -5.28,56.54 -5.29,57.51 -5.60,58.41 -5.91,59.32 -6.49,60.09 -7.08,60.85 -7.88,61.38 -8.68,61.92 -9.60,62.17 -10.53,62.42 -11.49,62.37 -12.45,62.31 -13.34,61.95 -14.23,61.59 -14.96,60.96 -15.69,60.34 -16.18,59.51 -16.67,58.69 -16.88,57.75 -17.08,56.81 -16.97,55.85 -16.86,54.90 -16.45,54.03 -16.04,53.16 -15.38,52.46 -14.72,51.77 -13.86,51.32 -13.01,50.87 -12.06,50.72 -11.11,50.57 -10.17,50.73 -9.22,50.89 -8.37,51.35 -7.52,51.80 -6.87,52.51 -6.21,53.21 -5.81,54.08 -5.41,54.96 -5.31,55.91 -5.21,56.87 -5.43,57.80 -5.64,58.74 -6.14,59.56 -6.64,60.38 -7.37,61.00 -8.11,61.62 -9.00,61.97 -9.90,62.32 -10.86,62.37 -11.82,62.42 -12.74,62.16 -13.67,61.89 -14.46,61.35 -15.25,60.81 -15.83,60.04 -16.41,59.27 -16.71,58.36 -17.01,57.44 -17.01,57.45 -17.01,57.45 -17.47,56.45 -17.93,55.45 -18.84,53.27 -19.74,51.09 -21.26,48.53 -22.77,45.97 -23.93,42.94 -25.08,39.92 -25.62,37.66 -26.15,35.41 -26.47,33.20 -26.79,30.98 -27.35,27.49 -27.90,24.00 -28.20,20.43 -28.49,16.86 -28.44,14.21 -28.39,11.56 -28.49,7.89 -28.60,4.22 -27.72,1.64 -26.83,-0.93 -24.50,-2.01 -22.17,-3.09 -19.26,-3.30 -16.36,-3.51 -12.57,-3.80 -8.78,-4.09 -4.39,-4.35 0,-4.61 0.55,-4.54 1.10,-4.47 1.62,-4.28 2.14,-4.08 2.60,-3.76 3.05,-3.45 3.42,-3.03 3.79,-2.61 4.05,-2.12 4.31,-1.63 4.44,-1.09 4.57,-0.55 4.57,0.00 4.57,0.55 4.44,1.09 4.31,1.63 4.05,2.12 3.79,2.62 3.42,3.03 3.05,3.45 2.60,3.76 2.14,4.08 1.62,4.28 1.10,4.47 0.55,4.54 -0.00,4.61 -0.00,4.61 L 0,4.61 Z"></path></g><g transform="translate(156.84946585108005 69.08331738620126) rotate(0.9094015075210009 18.39717868178296 -7.5974665912343085)" stroke="none"><path fill="#1e1e1e" d="M -1.82,-4.44 Q -1.82,-4.44 3.86,-6.48 9.56,-8.51 13.92,-9.79 18.27,-11.07 20.51,-11.87 22.74,-12.67 25.49,-14.07 28.25,-15.48 31.57,-17.62 34.89,-19.76 35.68,-19.89 36.46,-20.03 37.25,-19.90 38.04,-19.78 38.75,-19.41 39.46,-19.04 40.01,-18.47 40.57,-17.89 40.91,-17.17 41.25,-16.45 41.34,-15.65 41.43,-14.86 41.27,-14.08 41.10,-13.29 40.69,-12.61 40.29,-11.92 39.68,-11.40 39.07,-10.88 38.33,-10.58 37.59,-10.27 36.80,-10.23 36.00,-10.18 35.23,-10.38 34.46,-10.59 33.79,-11.04 33.13,-11.48 32.64,-12.11 32.15,-12.75 31.89,-13.50 31.63,-14.26 31.63,-15.05 31.62,-15.85 31.87,-16.61 32.12,-17.37 32.60,-18.01 33.08,-18.65 33.74,-19.10 34.39,-19.56 35.16,-19.78 35.93,-20.00 36.73,-19.96 37.53,-19.92 38.27,-19.63 39.01,-19.34 39.63,-18.83 40.24,-18.31 40.66,-17.63 41.07,-16.95 41.25,-16.17 41.43,-15.39 41.35,-14.60 41.27,-13.80 40.94,-13.07 40.61,-12.35 40.06,-11.76 39.51,-11.18 38.81,-10.80 38.11,-10.42 38.11,-10.42 38.11,-10.42 36.15,-9.10 34.18,-7.77 31.72,-6.88 29.25,-5.99 27.11,-5.35 24.98,-4.71 22.87,-4.29 20.76,-3.86 16.77,-2.27 12.78,-0.67 7.30,1.88 1.82,4.44 1.27,4.59 0.71,4.75 0.13,4.76 -0.44,4.78 -1.01,4.66 -1.57,4.53 -2.09,4.28 -2.61,4.03 -3.06,3.65 -3.50,3.28 -3.85,2.81 -4.19,2.35 -4.41,1.81 -4.63,1.27 -4.71,0.70 -4.80,0.13 -4.75,-0.44 -4.69,-1.02 -4.50,-1.56 -4.31,-2.11 -4.00,-2.60 -3.68,-3.08 -3.26,-3.48 -2.83,-3.87 -2.33,-4.16 -1.82,-4.44 -1.82,-4.44 L -1.82,-4.44 Z"></path></g><g transform="translate(204.94915756067542 10.593306379297985) rotate(0.9094015075210009 13.884655161231521 38.7870694928711)" stroke="none"><path fill="#1e1e1e" d="M 2.90,-3.78 Q 2.90,-3.78 5.80,-1.36 8.71,1.06 11.21,3.65 13.72,6.24 16.44,10.08 19.16,13.93 20.71,15.90 22.26,17.86 23.63,19.91 25.00,21.96 26.41,24.73 27.82,27.50 29.41,31.60 30.99,35.70 31.30,40.17 31.60,44.63 31.88,47.37 32.17,50.10 32.14,52.68 32.12,55.25 31.77,59.24 31.42,63.22 30.68,65.49 29.94,67.76 29.48,70.22 29.02,72.68 28.64,75.12 28.26,77.57 28.06,78.52 27.85,79.48 27.35,80.32 26.85,81.16 26.11,81.80 25.37,82.43 24.46,82.80 23.55,83.17 22.58,83.22 21.60,83.28 20.66,83.02 19.71,82.77 18.90,82.22 18.09,81.68 17.49,80.90 16.90,80.13 16.58,79.20 16.26,78.27 16.26,77.30 16.25,76.32 16.56,75.39 16.87,74.46 17.46,73.68 18.05,72.90 18.85,72.35 19.66,71.79 20.60,71.53 21.54,71.26 22.52,71.31 23.50,71.36 24.41,71.72 25.32,72.07 26.07,72.70 26.81,73.33 27.32,74.17 27.83,75.00 28.05,75.96 28.26,76.91 28.16,77.88 28.06,78.86 27.65,79.75 27.24,80.64 26.58,81.35 25.91,82.06 25.04,82.53 24.18,82.99 23.22,83.15 22.25,83.31 21.29,83.16 20.32,83.01 19.46,82.55 18.59,82.10 17.91,81.39 17.24,80.68 16.82,79.80 16.41,78.91 16.30,77.94 16.19,76.97 16.19,76.97 16.19,76.97 17.13,72.62 18.07,68.27 19.15,65.26 20.22,62.25 21.13,60.21 22.04,58.17 22.39,54.51 22.73,50.85 22.59,48.31 22.45,45.76 21.75,42.14 21.05,38.51 19.77,34.59 18.49,30.67 17.90,28.61 17.31,26.55 16.32,24.63 15.32,22.72 14.13,20.76 12.93,18.80 10.13,15.59 7.33,12.38 5.29,10.25 3.26,8.13 0.17,5.95 -2.90,3.78 -3.31,3.38 -3.72,2.97 -4.02,2.48 -4.33,2.00 -4.50,1.45 -4.68,0.90 -4.72,0.33 -4.76,-0.24 -4.66,-0.80 -4.56,-1.37 -4.33,-1.90 -4.10,-2.42 -3.75,-2.88 -3.40,-3.34 -2.95,-3.70 -2.50,-4.05 -1.98,-4.30 -1.46,-4.54 -0.89,-4.65 -0.33,-4.75 0.24,-4.73 0.81,-4.70 1.36,-4.53 1.91,-4.36 2.41,-4.07 2.90,-3.78 2.90,-3.78 L 2.90,-3.78 Z"></path></g><g transform="translate(266.01934040437476 20.59678005945466) rotate(0.9094015075210009 28.810670052706605 30.789749886992723)" stroke="none"><path fill="#1e1e1e" d="M 1.10,-4.04 Q 1.10,-4.04 5.24,-2.69 9.38,-1.33 14.53,0.98 19.67,3.30 25.38,5.16 31.09,7.02 36.86,9.28 42.63,11.54 45.71,12.55 48.78,13.56 51.18,14.06 53.59,14.56 56.20,15.32 58.81,16.07 59.07,19.21 59.33,22.36 56.47,24.46 53.60,26.56 48.75,28.61 43.89,30.65 40.33,32.39 36.78,34.13 35.02,35.49 33.25,36.86 28.89,40.52 24.52,44.18 22.15,46.83 19.78,49.48 17.22,51.99 14.67,54.50 12.76,56.65 10.84,58.80 8.47,61.52 6.10,64.25 5.53,64.62 4.96,65.00 4.30,65.17 3.64,65.35 2.96,65.30 2.28,65.26 1.65,65.00 1.02,64.74 0.50,64.29 -0.01,63.84 -0.35,63.25 -0.70,62.66 -0.84,61.99 -0.97,61.32 -0.89,60.65 -0.81,59.97 -0.52,59.35 -0.22,58.73 0.24,58.24 0.72,57.75 1.33,57.44 1.93,57.13 2.61,57.03 3.29,56.92 3.96,57.04 4.63,57.16 5.23,57.49 5.83,57.81 6.30,58.32 6.76,58.82 7.04,59.44 7.32,60.06 7.38,60.74 7.45,61.43 7.29,62.09 7.14,62.76 6.78,63.34 6.42,63.92 5.90,64.35 5.37,64.79 4.73,65.04 4.09,65.28 3.41,65.31 2.73,65.34 2.07,65.15 1.42,64.96 0.86,64.57 0.29,64.18 -0.10,63.63 -0.51,63.08 -0.72,62.43 -0.93,61.78 -0.92,61.10 -0.91,60.41 -0.69,59.77 -0.46,59.12 -0.04,58.58 0.37,58.04 0.37,58.05 0.37,58.05 2.63,55.61 4.90,53.18 7.07,51.02 9.23,48.86 11.58,46.64 13.93,44.41 16.53,41.34 19.13,38.26 23.63,33.86 28.13,29.46 30.32,28.09 32.51,26.72 36.39,24.18 40.27,21.64 44.99,19.68 49.70,17.72 51.94,17.25 54.18,16.78 52.85,19.24 51.53,21.70 48.97,20.77 46.41,19.83 43.44,18.56 40.46,17.29 34.83,15.25 29.19,13.21 23.09,11.45 16.98,9.68 12.18,7.81 7.38,5.93 3.13,4.98 -1.10,4.04 -1.57,3.84 -2.04,3.65 -2.45,3.36 -2.85,3.06 -3.18,2.67 -3.50,2.28 -3.73,1.83 -3.95,1.38 -4.06,0.88 -4.17,0.39 -4.15,-0.10 -4.14,-0.61 -4.01,-1.10 -3.87,-1.58 -3.63,-2.02 -3.38,-2.46 -3.04,-2.83 -2.69,-3.20 -2.27,-3.48 -1.84,-3.76 -1.37,-3.92 -0.89,-4.09 -0.39,-4.14 0.10,-4.18 0.60,-4.11 1.10,-4.04 1.10,-4.04 L 1.10,-4.04 Z"></path></g><g transform="translate(327.3098200737746 59.934062738383034) rotate(0.9094015075210009 -23.256786801911524 22.792399773702925)" stroke="none"><path fill="#1e1e1e" d="M 3.15,3.34 Q 3.15,3.34 0.96,5.42 -1.22,7.50 -4.11,9.78 -6.99,12.07 -10.43,16.01 -13.86,19.96 -15.97,22.56 -18.07,25.15 -20.65,28.05 -23.22,30.96 -24.66,32.65 -26.10,34.35 -27.97,36.10 -29.83,37.84 -31.73,40.25 -33.63,42.65 -35.33,44.42 -37.03,46.20 -41.41,48.70 -45.78,51.21 -46.70,51.14 -47.61,51.08 -48.46,50.72 -49.30,50.36 -49.99,49.76 -50.68,49.15 -51.14,48.35 -51.60,47.56 -51.78,46.66 -51.96,45.76 -51.84,44.85 -51.72,43.94 -51.32,43.11 -50.92,42.29 -50.28,41.63 -49.63,40.98 -48.82,40.57 -48.00,40.15 -47.09,40.02 -46.18,39.89 -45.28,40.05 -44.37,40.22 -43.57,40.67 -42.77,41.11 -42.15,41.79 -41.53,42.47 -41.16,43.31 -40.79,44.15 -40.71,45.06 -40.63,45.98 -40.85,46.87 -41.06,47.76 -41.55,48.54 -42.04,49.31 -42.75,49.89 -43.46,50.48 -44.32,50.80 -45.17,51.12 -46.09,51.15 -47.01,51.19 -47.89,50.92 -48.77,50.66 -49.52,50.13 -50.27,49.60 -50.81,48.86 -51.35,48.12 -51.63,47.25 -51.90,46.37 -51.88,45.45 -51.87,44.54 -51.56,43.67 -51.25,42.81 -50.68,42.09 -50.11,41.37 -49.34,40.87 -48.57,40.37 -47.68,40.14 -46.79,39.91 -46.79,39.91 -46.79,39.91 -45.12,38.70 -43.44,37.49 -40.94,35.95 -38.43,34.41 -37.01,32.78 -35.60,31.15 -32.35,28.55 -29.10,25.95 -26.69,23.00 -24.28,20.04 -22.16,17.51 -20.05,14.98 -16.37,10.11 -12.70,5.24 -10.13,3.00 -7.56,0.77 -5.35,-1.28 -3.15,-3.34 -2.70,-3.67 -2.26,-4.00 -1.75,-4.21 -1.23,-4.43 -0.68,-4.51 -0.14,-4.59 0.41,-4.54 0.96,-4.49 1.48,-4.31 2.01,-4.13 2.47,-3.83 2.94,-3.53 3.32,-3.13 3.70,-2.72 3.97,-2.24 4.24,-1.76 4.39,-1.22 4.54,-0.69 4.56,-0.14 4.58,0.41 4.46,0.95 4.34,1.49 4.10,1.99 3.86,2.49 3.50,2.92 3.15,3.34 3.15,3.34 L 3.15,3.34 Z"></path></g><g transform="translate(382.05788687318346 13.387285291430317) rotate(0.9094015075210009 12.84329543098793 32.38919245298044)" stroke="none"><path fill="#1e1e1e" d="M 4.03,1.48 Q 4.03,1.48 1.63,7.38 -0.76,13.28 -2.85,18.52 -4.93,23.76 -7.29,29.24 -9.64,34.72 -10.81,38.68 -11.97,42.64 -12.53,45.94 -13.09,49.24 -13.18,51.70 -13.27,54.16 -12.05,56.71 -10.84,59.26 -8.27,60.75 -5.69,62.23 -2.37,61.64 0.95,61.05 3.63,60.65 6.31,60.24 9.11,59.68 11.91,59.11 16.19,58.06 20.47,57.00 24.04,55.39 27.60,53.78 31.01,51.88 34.42,49.97 35.62,48.20 36.81,46.43 36.38,43.51 35.95,40.60 35.23,37.27 34.52,33.93 33.61,31.18 32.70,28.42 31.71,26.21 30.73,24.01 29.69,21.62 28.64,19.23 27.51,17.33 26.38,15.43 25.34,13.49 24.30,11.55 22.51,9.56 20.73,7.56 18.64,5.76 16.55,3.95 14.14,3.54 11.73,3.13 9.39,3.26 7.05,3.38 3.98,3.46 0.91,3.54 -0.16,3.36 -1.24,3.19 -2.20,2.68 -3.16,2.17 -3.91,1.37 -4.66,0.58 -5.12,-0.40 -5.58,-1.39 -5.70,-2.47 -5.82,-3.56 -5.58,-4.63 -5.35,-5.69 -4.79,-6.63 -4.22,-7.56 -3.39,-8.27 -2.56,-8.97 -1.55,-9.38 -0.53,-9.78 0.55,-9.84 1.64,-9.90 2.69,-9.61 3.74,-9.31 4.64,-8.70 5.55,-8.09 6.21,-7.22 6.87,-6.35 7.21,-5.32 7.56,-4.28 7.56,-3.19 7.56,-2.10 7.21,-1.07 6.87,-0.03 6.21,0.82 5.54,1.69 4.64,2.31 3.74,2.92 2.69,3.21 1.64,3.50 0.55,3.44 -0.53,3.38 -1.55,2.98 -2.56,2.57 -3.39,1.87 -4.22,1.16 -4.79,0.23 -5.35,-0.70 -5.58,-1.76 -5.82,-2.83 -5.70,-3.92 -5.58,-5.00 -5.12,-5.99 -4.66,-6.98 -3.91,-7.77 -3.16,-8.56 -2.20,-9.07 -1.23,-9.59 -0.16,-9.76 0.91,-9.94 0.91,-9.94 0.91,-9.94 3.16,-9.90 5.42,-9.86 7.86,-9.73 10.30,-9.61 12.57,-9.44 14.83,-9.27 17.23,-8.68 19.64,-8.09 21.84,-6.53 24.05,-4.97 26.54,-2.53 29.03,-0.09 30.63,1.76 32.23,3.62 33.91,6.89 35.59,10.16 36.94,12.59 38.29,15.02 39.33,17.41 40.36,19.81 41.45,22.35 42.55,24.90 43.70,27.93 44.85,30.97 46.19,34.75 47.52,38.54 48.20,42.32 48.87,46.10 48.03,49.44 47.19,52.78 44.65,55.75 42.11,58.72 39.23,60.17 36.34,61.63 34.13,62.73 31.92,63.83 29.90,64.65 27.87,65.47 25.16,66.47 22.46,67.46 18.27,68.29 14.08,69.12 10.99,69.83 7.90,70.54 5.17,70.97 2.44,71.40 -1.06,71.95 -4.57,72.50 -8.90,71.25 -13.23,70.01 -15.35,68.24 -17.48,66.47 -18.81,63.68 -20.13,60.88 -20.35,57.11 -20.57,53.34 -20.08,50.63 -19.58,47.92 -18.77,44.46 -17.96,41.00 -16.85,36.63 -15.73,32.26 -13.65,26.80 -11.56,21.34 -9.78,15.98 -8.01,10.62 -6.02,4.57 -4.03,-1.48 -3.80,-1.94 -3.56,-2.40 -3.22,-2.79 -2.88,-3.18 -2.46,-3.48 -2.03,-3.78 -1.55,-3.97 -1.07,-4.16 -0.55,-4.23 -0.04,-4.30 0.47,-4.24 0.98,-4.18 1.47,-4.00 1.95,-3.82 2.38,-3.53 2.81,-3.24 3.16,-2.86 3.51,-2.48 3.76,-2.02 4.00,-1.56 4.13,-1.06 4.26,-0.56 4.27,-0.04 4.27,0.47 4.15,0.97 4.03,1.48 4.03,1.48 L 4.03,1.48 Z"></path></g></svg>