<svg version="1.1" xmlns="http://www.w3.org/2000/svg" viewBox="0 0 452.8000030517578 385.59999084472656" width="452.8000030517578" height="385.59999084472656" class="excalidraw-svg"><!-- svg-source:excalidraw --><metadata></metadata><defs><style class="style-fonts">
      </style></defs><rect x="0" y="0" width="452.8000030517578" height="385.59999084472656" fill="#ffffff"></rect><g stroke-linecap="round" transform="translate(59.60002136230469 137.1999969482422) rotate(0 107.19999694824219 113.60000610351562)"><path d="M82.45 3.51 C94 -1.13, 109.46 -0.25, 122.43 1.53 C135.4 3.3, 149.18 7.47, 160.28 14.16 C171.38 20.84, 180.77 31.17, 189.04 41.64 C197.3 52.11, 205.67 64.11, 209.85 76.96 C214.03 89.81, 214.84 104.85, 214.11 118.72 C213.39 132.59, 210.57 147.56, 205.49 160.16 C200.4 172.76, 192.92 184.82, 183.58 194.3 C174.24 203.79, 161.24 211.74, 149.43 217.07 C137.62 222.39, 125.49 225.7, 112.72 226.26 C99.94 226.81, 85.31 224.56, 72.79 220.39 C60.26 216.22, 47.62 209.95, 37.58 201.23 C27.54 192.5, 18.53 179.97, 12.55 168.03 C6.56 156.09, 3.32 142.93, 1.65 129.59 C-0.02 116.25, -0.52 101.55, 2.52 88 C5.56 74.45, 12.43 59.61, 19.87 48.29 C27.3 36.97, 35.95 27.76, 47.14 20.09 C58.32 12.41, 79.39 4.93, 86.99 2.24 C94.59 -0.45, 92.3 2.29, 92.72 3.95 M157.32 13.8 C168.62 18.11, 179.08 28.61, 187.56 38.8 C196.04 48.99, 203.77 61.74, 208.2 74.94 C212.63 88.14, 214.55 104.09, 214.15 118.01 C213.75 131.93, 210.88 145.87, 205.81 158.47 C200.74 171.07, 192.69 184.06, 183.73 193.6 C174.76 203.15, 163.89 210.12, 152.02 215.73 C140.15 221.34, 125.57 226.11, 112.53 227.25 C99.49 228.38, 86.06 226.65, 73.79 222.53 C61.52 218.41, 48.81 211.09, 38.91 202.52 C29.01 193.96, 20.69 183.01, 14.39 171.12 C8.09 159.23, 2.95 144.8, 1.1 131.2 C-0.74 117.6, 0.67 103.15, 3.35 89.51 C6.02 75.87, 10.07 60.72, 17.18 49.36 C24.3 38, 35.48 28.89, 46.04 21.33 C56.6 13.77, 68.11 7.41, 80.54 3.99 C92.96 0.56, 107.57 -0.75, 120.57 0.77 C133.56 2.3, 152.29 10.67, 158.5 13.15 C164.72 15.63, 158.55 13.75, 157.86 15.66" stroke="#1e1e1e" stroke-width="2" fill="none"></path></g><g transform="translate(66.00001525878906 214.8000030517578) rotate(0 63.19999694824219 -44.400001525878906)" stroke="none"><path fill="#1e1e1e" d="M 0,-1.60 Q 0,-1.60 1.83,-1.63 3.67,-1.65 6.07,-1.61 8.46,-1.56 11.32,-1.52 14.17,-1.49 17.46,-1.47 20.74,-1.44 23.22,-1.65 25.70,-1.86 27.65,-2.19 29.60,-2.52 31.52,-3.09 33.43,-3.67 36.09,-4.59 38.76,-5.51 41.49,-6.58 44.22,-7.65 47.28,-8.59 50.35,-9.52 52.81,-10.15 55.27,-10.77 57.09,-11.68 58.92,-12.58 61.08,-13.88 63.24,-15.17 65.51,-16.85 67.78,-18.53 71.13,-20.45 74.48,-22.37 77.68,-24.52 80.87,-26.67 84.05,-29.18 87.23,-31.68 90.19,-34.13 93.16,-36.58 96.28,-39.01 99.40,-41.45 102.06,-43.83 104.73,-46.21 107.24,-48.60 109.75,-50.99 111.72,-53.13 113.68,-55.27 115.17,-57.29 116.66,-59.31 117.47,-61.21 118.28,-63.12 119.08,-64.75 119.87,-66.39 120.35,-67.90 120.83,-69.41 121.23,-70.79 121.62,-72.17 121.98,-73.45 122.34,-74.74 123.00,-76.46 123.66,-78.17 123.86,-79.63 124.06,-81.10 124.10,-82.20 124.13,-83.30 124.11,-85.92 124.09,-88.54 124.16,-88.90 124.22,-89.27 124.40,-89.60 124.58,-89.92 124.85,-90.18 125.12,-90.43 125.46,-90.58 125.80,-90.74 126.17,-90.77 126.54,-90.81 126.90,-90.73 127.26,-90.64 127.58,-90.45 127.90,-90.26 128.13,-89.97 128.37,-89.68 128.51,-89.34 128.64,-88.99 128.66,-88.62 128.67,-88.25 128.57,-87.89 128.47,-87.53 128.26,-87.23 128.05,-86.92 127.75,-86.70 127.45,-86.48 127.10,-86.36 126.74,-86.25 126.37,-86.25 126.00,-86.25 125.65,-86.37 125.30,-86.50 125.00,-86.72 124.71,-86.95 124.50,-87.26 124.30,-87.57 124.20,-87.93 124.11,-88.29 124.13,-88.66 124.15,-89.03 124.29,-89.37 124.43,-89.72 124.68,-90.00 124.92,-90.28 125.24,-90.47 125.56,-90.66 125.92,-90.74 126.29,-90.81 126.66,-90.77 127.03,-90.73 127.36,-90.57 127.70,-90.41 127.97,-90.15 128.23,-89.89 128.41,-89.56 128.58,-89.23 128.63,-88.86 128.69,-88.50 128.69,-88.50 128.69,-88.50 128.50,-85.69 128.31,-82.88 128.11,-81.66 127.92,-80.45 127.57,-78.64 127.23,-76.83 126.60,-75.16 125.97,-73.50 125.46,-72.25 124.95,-71.00 124.39,-69.65 123.83,-68.30 123.14,-66.66 122.45,-65.01 121.57,-63.54 120.69,-62.07 119.74,-59.91 118.78,-57.75 117.20,-55.63 115.62,-53.50 113.59,-51.29 111.57,-49.09 109.02,-46.67 106.48,-44.25 103.75,-41.81 101.01,-39.37 97.92,-36.96 94.83,-34.55 91.85,-32.08 88.86,-29.61 85.60,-27.05 82.35,-24.48 79.07,-22.28 75.79,-20.07 72.57,-18.23 69.35,-16.40 66.98,-14.65 64.61,-12.90 62.35,-11.54 60.10,-10.19 58.02,-9.18 55.94,-8.18 53.54,-7.56 51.14,-6.94 48.19,-6.02 45.23,-5.11 42.45,-4.00 39.68,-2.89 36.96,-1.92 34.24,-0.95 32.16,-0.33 30.07,0.29 28.01,0.61 25.96,0.94 23.35,1.19 20.74,1.44 17.46,1.47 14.17,1.49 11.32,1.52 8.46,1.56 6.07,1.61 3.67,1.65 1.83,1.63 0,1.60 -0.19,1.58 -0.38,1.56 -0.56,1.49 -0.74,1.42 -0.90,1.31 -1.06,1.20 -1.19,1.05 -1.32,0.91 -1.41,0.74 -1.50,0.57 -1.55,0.38 -1.59,0.19 -1.59,-0.00 -1.59,-0.19 -1.55,-0.38 -1.50,-0.57 -1.41,-0.74 -1.32,-0.91 -1.19,-1.05 -1.06,-1.20 -0.90,-1.31 -0.74,-1.42 -0.56,-1.49 -0.38,-1.56 -0.19,-1.58 0.00,-1.60 0.00,-1.60 L 0,-1.60 Z"></path></g><g transform="translate(126.80003356933594 205.1999969482422) rotate(0 -17.20001220703125 66)" stroke="none"><path fill="#1e1e1e" d="M 1.36,-0.75 Q 1.36,-0.75 2.48,1.33 3.60,3.41 4.59,6.51 5.57,9.60 5.98,12.82 6.40,16.04 6.78,19.20 7.17,22.36 7.34,26.29 7.51,30.21 7.34,34.22 7.18,38.22 6.87,42.44 6.57,46.67 5.97,50.36 5.38,54.04 4.66,57.68 3.95,61.31 2.93,64.53 1.92,67.74 0.80,70.72 -0.32,73.71 -1.49,76.37 -2.67,79.03 -3.37,81.45 -4.06,83.87 -5.33,86.42 -6.60,88.98 -7.29,90.69 -7.98,92.41 -9.01,94.16 -10.04,95.92 -11.18,97.42 -12.31,98.92 -13.46,100.43 -14.60,101.94 -15.78,103.66 -16.97,105.39 -17.89,106.87 -18.81,108.35 -19.63,109.69 -20.44,111.04 -21.51,112.55 -22.58,114.05 -23.75,115.45 -24.93,116.84 -25.78,118.23 -26.64,119.61 -27.82,120.89 -29.00,122.16 -29.82,123.26 -30.64,124.37 -31.75,125.61 -32.87,126.85 -33.71,127.99 -34.55,129.14 -35.41,130.19 -36.28,131.25 -37.53,132.16 -38.78,133.07 -39.03,133.34 -39.28,133.61 -39.61,133.78 -39.93,133.96 -40.30,134.02 -40.66,134.08 -41.02,134.02 -41.38,133.96 -41.71,133.79 -42.04,133.62 -42.29,133.35 -42.54,133.09 -42.70,132.75 -42.86,132.42 -42.90,132.05 -42.94,131.69 -42.86,131.33 -42.78,130.97 -42.59,130.65 -42.41,130.34 -42.13,130.10 -41.85,129.86 -41.50,129.72 -41.16,129.58 -40.80,129.56 -40.43,129.54 -40.07,129.64 -39.72,129.74 -39.41,129.94 -39.11,130.15 -38.88,130.44 -38.66,130.73 -38.54,131.08 -38.42,131.43 -38.42,131.80 -38.42,132.16 -38.54,132.51 -38.65,132.86 -38.87,133.16 -39.10,133.45 -39.40,133.66 -39.70,133.86 -40.06,133.96 -40.41,134.06 -40.78,134.05 -41.15,134.03 -41.49,133.89 -41.83,133.76 -42.11,133.52 -42.39,133.28 -42.59,132.97 -42.78,132.65 -42.86,132.29 -42.94,131.93 -42.90,131.57 -42.86,131.20 -42.71,130.87 -42.55,130.53 -42.55,130.53 -42.55,130.53 -41.08,129.41 -39.60,128.28 -38.76,127.41 -37.92,126.53 -36.92,125.29 -35.92,124.05 -34.87,122.93 -33.82,121.82 -32.79,120.61 -31.76,119.41 -30.76,118.50 -29.76,117.60 -28.73,116.03 -27.69,114.45 -26.58,113.21 -25.48,111.97 -24.43,110.53 -23.38,109.09 -22.45,107.82 -21.53,106.55 -20.52,105.13 -19.52,103.70 -18.33,101.84 -17.14,99.98 -15.96,98.46 -14.77,96.95 -13.67,95.66 -12.56,94.38 -11.57,92.83 -10.59,91.27 -9.77,89.53 -8.96,87.79 -7.77,85.46 -6.59,83.13 -5.84,80.55 -5.08,77.97 -3.94,75.37 -2.79,72.77 -1.69,69.86 -0.59,66.95 0.37,63.87 1.34,60.80 2.04,57.21 2.75,53.62 3.32,50.05 3.90,46.48 4.19,42.30 4.48,38.11 4.63,34.22 4.78,30.33 4.61,26.52 4.43,22.71 4.02,19.55 3.60,16.40 3.21,13.44 2.82,10.47 1.90,7.66 0.99,4.86 -0.18,2.80 -1.36,0.75 -1.43,0.58 -1.50,0.40 -1.53,0.22 -1.56,0.03 -1.54,-0.15 -1.52,-0.33 -1.46,-0.51 -1.40,-0.69 -1.29,-0.85 -1.19,-1.00 -1.05,-1.13 -0.91,-1.26 -0.75,-1.35 -0.58,-1.44 -0.40,-1.49 -0.22,-1.54 -0.03,-1.55 0.15,-1.55 0.33,-1.51 0.51,-1.47 0.68,-1.38 0.85,-1.30 1.00,-1.18 1.14,-1.06 1.25,-0.91 1.36,-0.75 1.36,-0.75 L 1.36,-0.75 Z"></path></g><g transform="translate(134.00001525878906 254.8000030517578) rotate(0 24 -52.00000762939453)" stroke="none"><path fill="#1e1e1e" d="M -0.83,-1.39 Q -0.83,-1.39 0.26,-2.15 1.37,-2.92 2.96,-4.05 4.55,-5.18 7.16,-6.83 9.76,-8.48 12.46,-10.29 15.15,-12.10 17.63,-14.20 20.11,-16.30 22.53,-18.77 24.95,-21.24 26.90,-23.43 28.85,-25.62 30.30,-28.07 31.76,-30.52 33.09,-32.96 34.43,-35.40 35.67,-38.02 36.92,-40.64 37.91,-42.90 38.90,-45.16 39.53,-47.21 40.16,-49.25 40.90,-51.54 41.64,-53.83 42.18,-55.91 42.71,-57.99 43.16,-60.02 43.62,-62.06 44.03,-64.07 44.44,-66.09 44.85,-68.31 45.27,-70.53 45.68,-72.63 46.09,-74.74 46.25,-76.94 46.42,-79.13 46.49,-81.45 46.56,-83.77 46.60,-86.13 46.63,-88.50 46.64,-90.65 46.66,-92.81 46.65,-94.88 46.64,-96.94 46.53,-98.28 46.41,-99.62 46.36,-101.60 46.31,-103.58 46.35,-103.85 46.39,-104.12 46.52,-104.36 46.65,-104.60 46.85,-104.79 47.05,-104.97 47.30,-105.09 47.54,-105.20 47.82,-105.23 48.09,-105.26 48.35,-105.20 48.62,-105.14 48.85,-105.00 49.09,-104.86 49.27,-104.65 49.44,-104.45 49.54,-104.19 49.64,-103.94 49.66,-103.66 49.67,-103.39 49.60,-103.13 49.53,-102.87 49.37,-102.64 49.22,-102.41 49.00,-102.25 48.78,-102.08 48.53,-102.00 48.27,-101.91 47.99,-101.91 47.72,-101.91 47.46,-102.00 47.20,-102.08 46.99,-102.25 46.77,-102.42 46.61,-102.64 46.46,-102.87 46.39,-103.13 46.32,-103.39 46.33,-103.67 46.35,-103.94 46.45,-104.19 46.55,-104.45 46.73,-104.66 46.90,-104.86 47.14,-105.00 47.37,-105.14 47.64,-105.20 47.90,-105.26 48.18,-105.23 48.45,-105.20 48.70,-105.09 48.94,-104.97 49.14,-104.78 49.34,-104.60 49.47,-104.35 49.60,-104.11 49.64,-103.84 49.68,-103.57 49.68,-103.57 49.68,-103.57 49.63,-101.59 49.57,-99.61 49.45,-98.27 49.33,-96.93 49.31,-94.86 49.29,-92.79 49.28,-90.63 49.27,-88.46 49.24,-86.07 49.21,-83.69 49.14,-81.31 49.07,-78.93 48.89,-76.59 48.71,-74.24 48.31,-72.14 47.91,-70.04 47.50,-67.78 47.09,-65.53 46.65,-63.50 46.21,-61.47 45.74,-59.40 45.27,-57.33 44.72,-55.18 44.17,-53.02 43.43,-50.74 42.70,-48.47 42.02,-46.28 41.35,-44.09 40.35,-41.79 39.35,-39.49 38.08,-36.80 36.81,-34.10 35.47,-31.61 34.12,-29.11 32.53,-26.45 30.94,-23.79 28.97,-21.52 26.99,-19.26 24.51,-16.67 22.02,-14.07 19.46,-11.83 16.89,-9.59 14.21,-7.69 11.53,-5.79 9.06,-4.11 6.59,-2.42 4.91,-1.13 3.22,0.16 2.03,0.77 0.83,1.39 0.65,1.47 0.47,1.55 0.28,1.58 0.09,1.61 -0.10,1.60 -0.29,1.59 -0.48,1.53 -0.67,1.47 -0.83,1.37 -1.00,1.27 -1.14,1.13 -1.28,0.99 -1.38,0.82 -1.48,0.66 -1.53,0.47 -1.59,0.28 -1.60,0.09 -1.61,-0.10 -1.58,-0.29 -1.54,-0.48 -1.46,-0.66 -1.38,-0.84 -1.26,-0.99 -1.14,-1.15 -0.98,-1.27 -0.83,-1.39 -0.83,-1.39 L -0.83,-1.39 Z"></path></g><g transform="translate(177.2000274658203 229.99998474121094) rotate(0 51.19999694824219 4.8000030517578125)" stroke="none"><path fill="#1e1e1e" d="M 0.76,-1.52 Q 0.76,-1.52 1.72,-1.15 2.69,-0.78 5.28,-0.04 7.88,0.70 10.63,1.67 13.38,2.64 16.31,3.51 19.23,4.39 22.48,5.00 25.73,5.60 28.69,5.88 31.64,6.15 34.78,6.51 37.93,6.87 41.55,7.26 45.17,7.65 49.43,7.81 53.69,7.98 57.80,8.06 61.91,8.13 65.96,8.17 70.01,8.20 73.30,7.99 76.58,7.78 78.70,7.69 80.82,7.59 82.31,7.24 83.80,6.89 85.08,6.47 86.36,6.04 87.81,5.65 89.27,5.26 90.68,4.35 92.09,3.45 93.60,2.51 95.11,1.56 95.93,0.82 96.74,0.07 99.20,-1.34 101.66,-2.76 102.12,-2.77 102.59,-2.78 103.03,-2.64 103.47,-2.50 103.84,-2.22 104.21,-1.95 104.47,-1.57 104.74,-1.19 104.87,-0.75 105.00,-0.31 104.98,0.14 104.96,0.60 104.80,1.04 104.64,1.47 104.34,1.82 104.05,2.18 103.66,2.42 103.27,2.67 102.82,2.78 102.37,2.88 101.91,2.84 101.45,2.80 101.03,2.61 100.61,2.42 100.27,2.11 99.93,1.80 99.70,1.39 99.48,0.99 99.40,0.54 99.32,0.08 99.38,-0.37 99.45,-0.82 99.66,-1.23 99.87,-1.64 100.20,-1.97 100.53,-2.29 100.95,-2.49 101.36,-2.69 101.82,-2.75 102.28,-2.81 102.73,-2.71 103.18,-2.62 103.58,-2.39 103.98,-2.16 104.29,-1.81 104.59,-1.46 104.77,-1.04 104.95,-0.61 104.98,-0.15 105.01,0.30 104.89,0.75 104.78,1.19 104.52,1.58 104.27,1.97 103.91,2.25 103.54,2.54 103.11,2.69 102.67,2.84 102.68,2.84 102.68,2.84 100.86,4.03 99.05,5.21 97.41,6.09 95.76,6.97 94.23,7.46 92.70,7.96 91.26,8.64 89.82,9.32 88.51,9.34 87.20,9.37 85.75,9.63 84.31,9.90 82.62,10.08 80.94,10.27 78.85,10.36 76.75,10.45 73.37,10.68 69.99,10.90 65.93,10.88 61.87,10.86 57.73,10.80 53.58,10.74 49.24,10.59 44.89,10.44 41.25,10.09 37.62,9.73 34.51,9.42 31.40,9.11 28.30,8.89 25.20,8.67 21.78,8.11 18.35,7.56 15.32,6.78 12.29,6.00 9.69,5.24 7.09,4.48 4.03,3.55 0.98,2.62 0.11,2.07 -0.76,1.52 -0.93,1.41 -1.10,1.29 -1.24,1.14 -1.38,0.99 -1.48,0.81 -1.58,0.63 -1.63,0.43 -1.68,0.23 -1.69,0.03 -1.69,-0.17 -1.65,-0.37 -1.60,-0.57 -1.51,-0.75 -1.42,-0.94 -1.28,-1.09 -1.15,-1.25 -0.98,-1.37 -0.82,-1.49 -0.63,-1.57 -0.44,-1.64 -0.23,-1.67 -0.03,-1.70 0.17,-1.68 0.37,-1.66 0.56,-1.59 0.76,-1.52 0.76,-1.52 L 0.76,-1.52 Z"></path></g><g transform="translate(154.00001525878906 243.59999084472656) rotate(0 8.400009155273438 66)" stroke="none"><path fill="#1e1e1e" d="M 1.38,-0.86 Q 1.38,-0.86 2.49,0.99 3.61,2.85 4.58,3.99 5.54,5.13 6.49,6.93 7.44,8.73 8.46,11.12 9.49,13.50 10.60,16.12 11.71,18.75 12.65,22.02 13.60,25.29 14.23,28.78 14.86,32.28 15.35,35.84 15.84,39.39 16.27,43.21 16.70,47.02 17.11,50.24 17.52,53.46 17.70,56.72 17.87,59.98 17.95,62.74 18.02,65.50 18.05,68.06 18.08,70.61 18.09,72.85 18.10,75.09 18.11,77.19 18.12,79.29 18.14,81.33 18.16,83.38 17.94,85.47 17.72,87.57 17.62,89.76 17.51,91.95 17.23,94.11 16.95,96.26 16.60,98.33 16.26,100.40 16.14,102.36 16.01,104.31 15.97,106.29 15.92,108.27 16.01,109.35 16.11,110.43 16.27,111.88 16.43,113.32 16.24,114.39 16.04,115.47 15.72,116.95 15.41,118.44 15.43,120.19 15.45,121.94 15.22,124.39 14.99,126.84 14.94,127.94 14.89,129.03 14.49,130.83 14.08,132.63 12.21,133.38 10.33,134.13 8.05,132.51 5.76,130.89 5.54,130.45 5.31,130.02 5.24,129.53 5.17,129.04 5.26,128.56 5.35,128.07 5.59,127.64 5.83,127.21 6.19,126.88 6.56,126.55 7.01,126.35 7.46,126.15 7.95,126.11 8.44,126.06 8.92,126.18 9.40,126.29 9.81,126.55 10.23,126.82 10.54,127.20 10.85,127.58 11.03,128.04 11.20,128.50 11.22,128.99 11.24,129.49 11.10,129.96 10.95,130.43 10.67,130.83 10.39,131.23 9.99,131.52 9.59,131.81 9.12,131.96 8.65,132.11 8.16,132.10 7.67,132.09 7.20,131.93 6.74,131.76 6.35,131.45 5.97,131.15 5.70,130.74 5.43,130.32 5.31,129.85 5.19,129.37 5.22,128.88 5.26,128.39 5.45,127.93 5.64,127.48 5.97,127.11 6.29,126.74 6.72,126.50 7.14,126.25 7.63,126.15 8.11,126.06 8.60,126.12 9.09,126.18 9.53,126.40 9.97,126.61 10.32,126.96 10.68,127.30 10.67,127.30 10.67,127.30 11.06,128.25 11.44,129.20 10.29,129.61 9.14,130.01 9.27,128.68 9.39,127.35 9.77,125.66 10.14,123.98 10.25,121.95 10.36,119.93 10.75,117.74 11.13,115.55 11.75,114.40 12.37,113.25 12.57,111.80 12.76,110.35 12.91,109.27 13.05,108.18 13.13,106.15 13.21,104.11 13.38,102.03 13.55,99.95 13.90,97.93 14.25,95.91 14.51,93.87 14.77,91.83 14.85,89.54 14.94,87.25 15.18,85.32 15.42,83.38 15.44,81.34 15.45,79.30 15.45,77.20 15.45,75.10 15.43,72.88 15.42,70.65 15.38,68.11 15.35,65.57 15.27,62.85 15.19,60.12 15.01,56.96 14.83,53.80 14.41,50.57 13.98,47.34 13.53,43.56 13.08,39.78 12.57,36.29 12.06,32.80 11.43,29.46 10.79,26.12 9.86,23.04 8.92,19.97 7.75,17.39 6.58,14.82 5.49,12.56 4.40,10.30 3.62,8.74 2.84,7.19 1.91,5.84 0.98,4.50 -0.19,2.68 -1.38,0.86 -1.46,0.68 -1.55,0.50 -1.59,0.31 -1.62,0.12 -1.62,-0.07 -1.61,-0.27 -1.55,-0.45 -1.49,-0.64 -1.40,-0.81 -1.30,-0.98 -1.16,-1.12 -1.02,-1.27 -0.85,-1.37 -0.69,-1.47 -0.50,-1.54 -0.31,-1.60 -0.12,-1.61 0.07,-1.63 0.26,-1.59 0.46,-1.56 0.64,-1.48 0.82,-1.41 0.98,-1.29 1.13,-1.17 1.26,-1.01 1.38,-0.86 1.38,-0.86 L 1.38,-0.86 Z"></path></g><g transform="translate(175.6000213623047 283.59999084472656) rotate(0 46 7.1999969482421875)" stroke="none"><path fill="#1e1e1e" d="M 0,-1.82 Q 0,-1.82 1.61,-1.86 3.22,-1.90 4.59,-1.96 5.96,-2.02 7.24,-2.08 8.51,-2.14 10.20,-2.13 11.89,-2.12 13.76,-2.08 15.63,-2.04 17.81,-1.94 19.98,-1.84 22.05,-1.78 24.13,-1.73 26.39,-1.67 28.65,-1.61 30.99,-1.57 33.34,-1.53 35.13,-1.35 36.93,-1.17 38.50,-1.13 40.08,-1.09 42.00,-0.82 43.92,-0.54 45.88,-0.17 47.84,0.19 50.17,0.38 52.50,0.57 54.52,0.88 56.54,1.18 58.76,1.57 60.97,1.97 63.07,2.38 65.17,2.79 66.81,3.12 68.45,3.44 69.87,3.77 71.28,4.09 73.18,4.45 75.08,4.80 76.60,5.12 78.12,5.43 79.83,6.32 81.55,7.21 83.72,8.05 85.88,8.90 87.49,9.41 89.10,9.93 91.06,10.88 93.02,11.83 93.36,12.12 93.70,12.40 93.93,12.78 94.16,13.16 94.25,13.59 94.35,14.02 94.30,14.46 94.25,14.90 94.07,15.30 93.89,15.70 93.58,16.02 93.28,16.34 92.89,16.55 92.50,16.76 92.07,16.83 91.63,16.90 91.19,16.83 90.76,16.76 90.37,16.56 89.98,16.35 89.67,16.03 89.37,15.71 89.18,15.31 89.00,14.91 88.95,14.47 88.90,14.03 88.99,13.60 89.09,13.17 89.31,12.79 89.54,12.41 89.87,12.12 90.21,11.84 90.62,11.67 91.03,11.51 91.47,11.48 91.91,11.46 92.34,11.58 92.76,11.69 93.13,11.94 93.50,12.19 93.76,12.54 94.03,12.89 94.17,13.31 94.32,13.72 94.32,14.17 94.32,14.61 94.18,15.03 94.04,15.45 93.77,15.80 93.51,16.15 93.14,16.40 92.78,16.65 92.35,16.77 91.93,16.89 91.48,16.86 91.04,16.84 90.63,16.68 90.22,16.51 90.22,16.51 90.22,16.51 88.07,15.31 85.92,14.11 83.82,13.19 81.73,12.27 80.49,11.81 79.26,11.35 78.28,10.73 77.30,10.11 76.02,9.82 74.74,9.52 73.63,8.81 72.53,8.09 71.41,7.81 70.28,7.53 68.98,7.06 67.67,6.59 66.16,6.13 64.64,5.68 62.56,5.33 60.49,4.98 58.28,4.66 56.07,4.35 54.19,4.07 52.30,3.78 49.77,3.68 47.23,3.58 45.32,3.26 43.41,2.94 41.64,2.67 39.87,2.41 38.18,2.25 36.48,2.09 34.91,1.81 33.33,1.53 30.99,1.57 28.65,1.61 26.39,1.67 24.13,1.73 22.05,1.78 19.98,1.84 17.81,1.94 15.63,2.04 13.76,2.08 11.89,2.12 10.20,2.13 8.51,2.14 7.24,2.08 5.96,2.02 4.59,1.96 3.22,1.90 1.61,1.86 0,1.82 -0.21,1.80 -0.43,1.77 -0.64,1.69 -0.85,1.62 -1.03,1.49 -1.21,1.36 -1.35,1.20 -1.50,1.03 -1.60,0.84 -1.71,0.64 -1.76,0.43 -1.81,0.22 -1.81,-0.00 -1.81,-0.22 -1.76,-0.43 -1.71,-0.64 -1.60,-0.84 -1.50,-1.03 -1.35,-1.20 -1.21,-1.36 -1.03,-1.49 -0.85,-1.62 -0.64,-1.69 -0.43,-1.77 -0.21,-1.80 0.00,-1.82 0.00,-1.82 L 0,-1.82 Z"></path></g><g stroke-linecap="round"><g transform="translate(127.60002136230469 167.59999084472656) rotate(0 73.60000610351562 -48.400001525878906)"><path d="M-0.01 -1 C6.96 -13.6, 16.73 -58.58, 41.13 -74.67 C65.54 -90.76, 128.76 -94.02, 146.43 -97.54 M-1.47 1.08 C5.43 -11.4, 15.29 -56.99, 40.36 -73.28 C65.42 -89.56, 131.09 -92.53, 148.92 -96.61" stroke="#1e1e1e" stroke-width="1" fill="none"></path></g><g transform="translate(127.60002136230469 167.59999084472656) rotate(0 73.60000610351562 -48.400001525878906)"><path d="M126.86 -84.85 C130.49 -87.17, 137.1 -91.89, 148.92 -96.61 M126.86 -84.85 C132.11 -88.34, 137.73 -91.24, 148.92 -96.61" stroke="#1e1e1e" stroke-width="1" fill="none"></path></g><g transform="translate(127.60002136230469 167.59999084472656) rotate(0 73.60000610351562 -48.400001525878906)"><path d="M124.46 -101.78 C128.8 -99.96, 136 -100.54, 148.92 -96.61 M124.46 -101.78 C130.27 -101.25, 136.47 -100.11, 148.92 -96.61" stroke="#1e1e1e" stroke-width="1" fill="none"></path></g></g><mask></mask><g transform="translate(293.99998474121094 56.399993896484375) rotate(0 8.800003051757812 22)" stroke="none"><path fill="#1e1e1e" d="M 2.02,-1.44 Q 2.02,-1.44 3.08,0.22 4.13,1.89 4.97,2.63 5.81,3.36 7.49,4.58 9.18,5.81 10.58,5.90 11.98,6.00 13.15,5.84 14.33,5.69 15.50,4.25 16.67,2.81 17.24,1.42 17.81,0.04 17.87,-0.47 17.94,-0.98 18.09,-1.29 18.24,-1.60 18.46,-1.87 18.68,-2.14 18.96,-2.34 19.23,-2.55 19.55,-2.69 19.87,-2.82 20.22,-2.87 20.56,-2.93 20.90,-2.90 21.25,-2.87 21.58,-2.76 21.90,-2.65 22.20,-2.46 22.49,-2.27 22.73,-2.02 22.97,-1.77 23.14,-1.47 23.31,-1.17 23.40,-0.84 23.50,-0.50 23.51,-0.16 23.52,0.18 23.45,0.52 23.38,0.86 23.95,4.17 24.52,7.48 24.47,10.63 24.41,13.78 24.34,17.18 24.27,20.58 24.20,24.09 24.13,27.60 24.08,30.25 24.03,32.89 24.05,34.70 24.08,36.51 24.27,38.17 24.45,39.83 24.21,41.31 23.97,42.79 22.74,44.13 21.50,45.47 19.95,46.29 18.40,47.11 16.60,47.34 14.80,47.58 13.44,47.35 12.08,47.12 11.01,46.76 9.93,46.40 8.45,46.32 6.96,46.23 5.74,45.94 4.52,45.64 3.41,45.29 2.30,44.93 0.55,44.45 -1.18,43.98 -2.15,43.44 -3.11,42.90 -3.95,42.12 -4.78,41.33 -5.74,39.68 -6.70,38.03 -7.22,35.91 -7.74,33.79 -7.87,31.87 -8.00,29.95 -7.92,29.43 -7.85,28.92 -7.62,28.46 -7.39,27.99 -7.02,27.62 -6.65,27.26 -6.19,27.03 -5.72,26.80 -5.21,26.73 -4.69,26.66 -4.18,26.76 -3.67,26.86 -3.22,27.12 -2.77,27.37 -2.43,27.76 -2.08,28.15 -1.88,28.63 -1.67,29.10 -1.63,29.62 -1.59,30.14 -1.72,30.64 -1.84,31.15 -2.13,31.58 -2.41,32.02 -2.81,32.34 -3.22,32.67 -3.70,32.84 -4.19,33.02 -4.71,33.03 -5.23,33.05 -5.73,32.89 -6.22,32.74 -6.64,32.44 -7.06,32.13 -7.36,31.71 -7.67,31.29 -7.82,30.79 -7.97,30.29 -7.95,29.77 -7.94,29.26 -7.76,28.77 -7.58,28.28 -7.25,27.88 -6.92,27.48 -6.49,27.20 -6.05,26.92 -5.54,26.79 -5.04,26.67 -4.52,26.71 -4.00,26.76 -3.53,26.96 -3.05,27.17 -2.67,27.52 -2.28,27.87 -2.03,28.32 -1.77,28.77 -1.68,29.28 -1.58,29.79 -1.58,29.79 -1.58,29.79 -1.43,31.93 -1.29,34.07 -0.83,35.80 -0.38,37.54 0.73,38.20 1.85,38.85 2.96,39.06 4.07,39.26 5.70,39.79 7.32,40.33 8.51,40.41 9.71,40.49 11.50,41.00 13.29,41.52 14.61,41.72 15.92,41.93 17.29,41.62 18.67,41.31 19.50,40.57 20.34,39.83 20.52,38.17 20.70,36.52 20.72,34.71 20.75,32.90 20.68,30.26 20.61,27.62 20.51,24.12 20.42,20.62 20.27,17.26 20.12,13.90 19.89,10.90 19.67,7.89 19.36,5.90 19.05,3.91 18.50,1.46 17.94,-0.98 18.09,-1.29 18.24,-1.60 18.46,-1.87 18.68,-2.14 18.96,-2.34 19.23,-2.55 19.55,-2.69 19.87,-2.82 20.21,-2.87 20.56,-2.93 20.90,-2.90 21.25,-2.87 21.58,-2.76 21.90,-2.65 22.20,-2.46 22.49,-2.27 22.73,-2.02 22.97,-1.77 23.14,-1.47 23.31,-1.17 23.40,-0.84 23.50,-0.50 23.51,-0.16 23.52,0.18 23.45,0.52 23.38,0.86 22.92,2.17 22.46,3.49 21.92,4.47 21.38,5.44 20.62,6.79 19.86,8.13 18.82,9.07 17.78,10.00 16.37,10.41 14.95,10.82 13.21,11.01 11.47,11.21 9.88,10.99 8.30,10.78 6.40,9.52 4.50,8.26 3.54,7.49 2.58,6.73 1.52,5.63 0.46,4.54 -0.78,2.99 -2.02,1.44 -2.16,1.18 -2.31,0.91 -2.38,0.62 -2.46,0.33 -2.46,0.03 -2.47,-0.26 -2.40,-0.55 -2.33,-0.84 -2.20,-1.11 -2.06,-1.37 -1.87,-1.60 -1.67,-1.83 -1.43,-2.00 -1.19,-2.18 -0.91,-2.29 -0.63,-2.40 -0.33,-2.44 -0.03,-2.48 0.25,-2.45 0.55,-2.42 0.83,-2.32 1.12,-2.22 1.37,-2.05 1.61,-1.88 1.82,-1.66 2.02,-1.44 2.02,-1.44 L 2.02,-1.44 Z"></path></g><g transform="translate(129.1999969482422 306.8000030517578) rotate(0 36.80000305175781 -63.59999084472656)" stroke="none"><path fill="#e03131" d="M -0.43,1.53 Q -0.43,1.53 -2.06,1.13 -3.69,0.72 -5.83,-0.24 -7.98,-1.21 -9.85,-2.35 -11.72,-3.49 -13.68,-4.93 -15.63,-6.36 -17.64,-8.16 -19.64,-9.96 -21.66,-12.13 -23.68,-14.31 -25.70,-16.87 -27.73,-19.43 -29.73,-22.13 -31.73,-24.83 -33.09,-27.44 -34.46,-30.05 -35.70,-32.51 -36.94,-34.97 -37.95,-37.19 -38.95,-39.41 -39.46,-41.38 -39.96,-43.34 -40.46,-44.49 -40.96,-45.64 -41.24,-47.24 -41.53,-48.84 -41.66,-50.43 -41.79,-52.03 -41.88,-53.44 -41.97,-54.84 -41.51,-56.29 -41.04,-57.75 -40.32,-58.88 -39.60,-60.02 -38.48,-61.08 -37.36,-62.14 -36.07,-62.90 -34.77,-63.66 -32.85,-64.82 -30.93,-65.98 -29.48,-66.62 -28.02,-67.26 -26.28,-68.02 -24.54,-68.79 -23.58,-69.55 -22.61,-70.32 -21.26,-71.03 -19.91,-71.75 -19.09,-72.80 -18.27,-73.86 -17.89,-75.25 -17.51,-76.65 -17.47,-78.70 -17.42,-80.76 -17.37,-82.15 -17.33,-83.54 -17.27,-85.05 -17.22,-86.56 -17.16,-88.12 -17.11,-89.68 -17.06,-91.27 -17.01,-92.85 -16.97,-94.44 -16.93,-96.04 -17.12,-97.46 -17.30,-98.88 -17.38,-100.58 -17.46,-102.28 -17.52,-103.69 -17.57,-105.10 -17.59,-106.62 -17.60,-108.15 -17.25,-110.30 -16.90,-112.45 -16.87,-113.52 -16.83,-114.59 -16.82,-115.91 -16.80,-117.23 -16.57,-118.52 -16.34,-119.81 -16.02,-121.02 -15.69,-122.23 -14.71,-124.04 -13.72,-125.85 -12.84,-127.59 -11.96,-129.33 -11.41,-130.78 -10.85,-132.22 -9.80,-133.76 -8.74,-135.30 -7.61,-136.78 -6.48,-138.25 -4.68,-139.86 -2.88,-141.46 -0.91,-142.83 1.06,-144.19 2.53,-145.25 4.01,-146.31 5.55,-147.42 7.08,-148.54 9.02,-149.51 10.95,-150.49 13.45,-151.35 15.95,-152.21 18.67,-152.79 21.39,-153.38 24.15,-153.85 26.92,-154.31 29.76,-154.51 32.60,-154.70 35.42,-154.78 38.23,-154.85 41.10,-154.65 43.96,-154.44 47.33,-153.65 50.69,-152.85 54.18,-151.82 57.67,-150.79 60.83,-149.40 63.98,-148.02 66.68,-146.74 69.39,-145.47 71.92,-144.23 74.45,-143.00 76.64,-142.03 78.84,-141.05 80.73,-140.18 82.61,-139.31 84.41,-138.23 86.20,-137.15 88.06,-136.00 89.93,-134.85 91.87,-133.67 93.81,-132.49 95.38,-131.58 96.94,-130.67 98.55,-129.57 100.16,-128.47 101.30,-127.89 102.45,-127.30 103.76,-126.28 105.06,-125.27 106.10,-124.42 107.14,-123.57 108.29,-122.48 109.45,-121.39 110.19,-119.96 110.92,-118.52 112.01,-116.36 113.10,-114.20 113.43,-112.54 113.76,-110.87 114.14,-109.57 114.52,-108.26 114.90,-106.73 115.29,-105.21 115.51,-103.73 115.73,-102.26 115.80,-100.68 115.88,-99.10 115.86,-97.29 115.84,-95.47 115.72,-93.32 115.61,-91.17 115.59,-89.33 115.57,-87.50 115.61,-86.02 115.66,-84.54 115.17,-82.71 114.68,-80.88 114.27,-79.33 113.86,-77.78 113.46,-76.20 113.05,-74.62 112.61,-72.83 112.17,-71.05 111.50,-69.40 110.83,-67.74 110.39,-66.46 109.95,-65.17 109.54,-64.08 109.14,-62.99 107.90,-61.05 106.67,-59.10 105.58,-57.85 104.49,-56.61 103.39,-56.25 102.29,-55.89 100.65,-55.72 99.01,-55.56 96.85,-55.54 94.70,-55.52 93.46,-55.53 92.22,-55.53 91.01,-55.54 89.79,-55.54 88.36,-55.58 86.92,-55.61 84.93,-55.76 82.94,-55.90 80.82,-55.83 78.71,-55.76 76.65,-55.55 74.60,-55.34 72.57,-55.05 70.54,-54.76 69.04,-54.34 67.55,-53.93 66.39,-53.68 65.23,-53.43 63.63,-52.02 62.03,-50.61 61.21,-49.52 60.38,-48.43 60.08,-46.81 59.79,-45.19 59.64,-43.74 59.48,-42.28 59.65,-41.13 59.82,-39.97 60.11,-38.83 60.40,-37.69 60.90,-36.70 61.41,-35.71 62.08,-34.26 62.75,-32.82 63.61,-31.05 64.46,-29.29 65.46,-27.64 66.46,-26.00 67.39,-24.29 68.33,-22.58 69.19,-21.24 70.04,-19.90 70.88,-18.66 71.73,-17.41 72.72,-15.97 73.72,-14.54 74.79,-13.30 75.86,-12.06 76.86,-10.77 77.86,-9.49 79.27,-8.07 80.68,-6.65 81.26,-5.26 81.83,-3.88 82.57,-3.07 83.30,-2.25 83.87,-1.28 84.43,-0.30 85.15,1.18 85.86,2.67 86.33,3.79 86.79,4.92 86.93,6.06 87.06,7.20 87.11,8.64 87.16,10.09 86.87,11.85 86.58,13.61 85.63,15.10 84.68,16.60 82.82,18.22 80.96,19.84 78.98,21.37 76.99,22.90 75.60,23.58 74.22,24.26 72.79,24.90 71.35,25.53 69.64,26.07 67.94,26.61 66.59,27.04 65.23,27.48 64.03,27.75 62.82,28.01 60.65,28.19 58.47,28.37 57.06,28.37 55.66,28.36 54.38,28.36 53.09,28.36 51.86,28.36 50.62,28.36 49.41,28.37 48.20,28.37 45.90,28.70 43.60,29.02 42.33,29.07 41.07,29.12 38.96,29.18 36.84,29.23 35.45,29.21 34.05,29.18 32.52,28.92 31.00,28.66 29.65,28.31 28.31,27.95 27.05,27.56 25.79,27.18 24.70,26.77 23.61,26.36 22.13,25.92 20.65,25.47 19.61,25.13 18.57,24.79 17.08,24.00 15.60,23.22 14.28,22.81 12.96,22.40 11.17,21.21 9.37,20.03 7.80,18.99 6.22,17.94 5.06,17.26 3.90,16.58 2.88,15.87 1.86,15.16 0.47,13.58 -0.90,12.01 -1.72,11.15 -2.54,10.29 -3.56,9.32 -4.58,8.34 -5.52,6.67 -6.46,5.00 -7.41,3.57 -8.36,2.15 -9.24,1.36 -10.12,0.57 -11.10,-0.48 -12.08,-1.53 -13.15,-1.40 -14.22,-1.26 -16.54,-1.68 -18.86,-2.10 -19.37,-2.28 -19.89,-2.47 -20.32,-2.81 -20.74,-3.15 -21.04,-3.61 -21.34,-4.07 -21.47,-4.60 -21.61,-5.13 -21.57,-5.67 -21.52,-6.21 -21.31,-6.72 -21.10,-7.22 -20.74,-7.63 -20.37,-8.04 -19.90,-8.31 -19.42,-8.58 -18.89,-8.69 -18.35,-8.79 -17.81,-8.72 -17.27,-8.65 -16.78,-8.41 -16.29,-8.17 -15.90,-7.79 -15.51,-7.40 -15.27,-6.91 -15.02,-6.43 -14.94,-5.89 -14.87,-5.34 -14.97,-4.81 -15.07,-4.27 -15.33,-3.79 -15.60,-3.32 -16.00,-2.95 -16.41,-2.58 -16.91,-2.36 -17.41,-2.15 -17.95,-2.10 -18.50,-2.05 -19.03,-2.18 -19.56,-2.31 -20.02,-2.60 -20.48,-2.89 -20.83,-3.32 -21.17,-3.74 -21.36,-4.25 -21.56,-4.76 -21.57,-5.31 -21.59,-5.86 -21.43,-6.38 -21.28,-6.90 -20.96,-7.35 -20.64,-7.79 -20.20,-8.11 -19.76,-8.43 -19.24,-8.60 -18.72,-8.76 -18.17,-8.75 -17.62,-8.74 -17.62,-8.74 -17.63,-8.74 -15.63,-8.35 -13.63,-7.97 -11.65,-7.76 -9.66,-7.56 -8.40,-6.65 -7.15,-5.75 -5.77,-4.42 -4.39,-3.09 -3.01,-1.84 -1.64,-0.59 -1.05,0.54 -0.47,1.69 0.04,3.11 0.56,4.53 1.81,5.80 3.06,7.07 3.79,8.15 4.53,9.24 5.68,10.00 6.82,10.77 7.59,11.61 8.35,12.45 9.44,13.09 10.52,13.73 11.97,14.51 13.42,15.30 14.79,16.13 16.17,16.97 17.32,17.43 18.48,17.90 20.14,18.86 21.80,19.81 22.92,20.10 24.04,20.39 25.72,21.14 27.39,21.90 28.56,22.26 29.73,22.61 31.89,23.10 34.05,23.60 35.43,23.57 36.81,23.54 38.84,23.54 40.87,23.55 43.07,23.44 45.26,23.33 46.72,23.07 48.18,22.82 49.39,22.82 50.61,22.82 51.84,22.82 53.07,22.81 54.33,22.80 55.60,22.79 57.93,22.73 60.26,22.68 61.88,22.52 63.50,22.37 64.82,21.89 66.14,21.42 67.46,20.90 68.79,20.39 71.06,19.17 73.33,17.96 74.25,17.23 75.17,16.50 76.85,15.04 78.54,13.58 79.67,12.36 80.80,11.15 80.82,9.91 80.84,8.68 80.96,7.20 81.08,5.73 80.74,4.62 80.40,3.50 79.35,1.44 78.31,-0.62 77.73,-2.14 77.15,-3.66 75.85,-5.32 74.55,-6.99 73.67,-8.20 72.79,-9.41 71.59,-10.79 70.40,-12.18 69.31,-13.67 68.23,-15.16 67.42,-16.47 66.62,-17.78 65.76,-19.20 64.90,-20.62 63.98,-22.18 63.05,-23.73 61.82,-25.42 60.59,-27.11 59.47,-28.88 58.34,-30.65 57.59,-32.09 56.84,-33.54 56.17,-35.02 55.50,-36.51 55.18,-37.94 54.86,-39.36 54.69,-41.02 54.51,-42.67 54.63,-44.57 54.75,-46.47 55.08,-47.74 55.42,-49.01 55.86,-50.12 56.29,-51.23 57.74,-52.66 59.18,-54.09 60.26,-54.90 61.35,-55.72 62.91,-56.58 64.48,-57.44 65.56,-57.53 66.64,-57.61 68.26,-57.97 69.89,-58.33 71.94,-58.77 73.99,-59.22 76.13,-59.66 78.26,-60.11 80.60,-60.50 82.94,-60.89 84.93,-61.03 86.92,-61.18 88.35,-61.22 89.79,-61.25 91.00,-61.26 92.21,-61.26 93.45,-61.27 94.68,-61.28 96.77,-61.29 98.86,-61.30 100.36,-61.14 101.85,-60.98 102.97,-62.08 104.08,-63.18 105.00,-64.94 105.92,-66.70 106.47,-68.04 107.03,-69.38 107.62,-70.66 108.21,-71.94 108.58,-73.81 108.95,-75.67 109.37,-77.27 109.79,-78.87 110.23,-80.47 110.66,-82.07 111.10,-83.33 111.53,-84.59 111.56,-86.04 111.60,-87.49 111.57,-89.32 111.55,-91.14 111.41,-93.27 111.26,-95.39 111.18,-97.13 111.10,-98.88 111.04,-100.27 110.97,-101.66 110.86,-102.85 110.74,-104.03 110.35,-105.52 109.96,-107.00 109.58,-108.44 109.20,-109.89 108.76,-112.21 108.32,-114.53 107.41,-116.54 106.50,-118.54 105.46,-119.58 104.43,-120.62 103.55,-121.53 102.67,-122.43 101.64,-123.39 100.62,-124.35 99.51,-125.16 98.40,-125.96 96.88,-127.06 95.36,-128.16 93.89,-129.17 92.42,-130.17 90.46,-131.34 88.51,-132.51 86.62,-133.65 84.73,-134.78 83.10,-135.83 81.46,-136.87 79.62,-137.75 77.78,-138.64 75.53,-139.63 73.29,-140.62 70.77,-141.84 68.26,-143.06 65.58,-144.32 62.91,-145.57 59.91,-146.89 56.91,-148.21 53.49,-149.22 50.07,-150.22 46.92,-150.97 43.77,-151.72 41.04,-151.90 38.32,-152.08 35.56,-151.98 32.81,-151.88 30.11,-151.67 27.42,-151.45 24.74,-150.95 22.05,-150.45 19.53,-149.84 17.01,-149.24 14.75,-148.38 12.50,-147.52 10.82,-146.62 9.14,-145.71 7.59,-144.57 6.04,-143.42 4.57,-142.42 3.11,-141.41 1.41,-140.08 -0.28,-138.75 -1.70,-137.26 -3.12,-135.77 -4.17,-134.28 -5.21,-132.79 -6.02,-131.70 -6.84,-130.62 -7.44,-129.11 -8.04,-127.60 -8.78,-125.66 -9.53,-123.71 -10.21,-122.26 -10.89,-120.80 -11.50,-118.94 -12.10,-117.07 -12.17,-115.63 -12.23,-114.19 -12.39,-113.08 -12.55,-111.97 -12.64,-110.09 -12.74,-108.20 -12.72,-106.72 -12.69,-105.24 -12.67,-103.91 -12.64,-102.58 -12.53,-101.08 -12.41,-99.58 -12.14,-97.81 -11.86,-96.04 -11.82,-94.45 -11.78,-92.85 -11.73,-91.27 -11.69,-89.68 -11.63,-88.12 -11.58,-86.55 -11.53,-85.03 -11.48,-83.51 -11.44,-82.10 -11.41,-80.69 -11.41,-79.53 -11.42,-78.37 -11.57,-76.25 -11.73,-74.14 -12.27,-72.65 -12.82,-71.17 -14.07,-70.24 -15.31,-69.31 -16.25,-68.24 -17.18,-67.18 -18.20,-66.64 -19.22,-66.10 -20.58,-64.98 -21.93,-63.87 -23.30,-63.18 -24.66,-62.49 -26.10,-62.22 -27.53,-61.96 -28.91,-61.45 -30.28,-60.95 -31.38,-60.17 -32.47,-59.39 -34.19,-58.35 -35.91,-57.31 -36.92,-56.05 -37.93,-54.78 -37.95,-53.50 -37.98,-52.22 -37.96,-50.74 -37.95,-49.27 -37.88,-47.96 -37.82,-46.66 -37.50,-45.32 -37.18,-43.97 -36.85,-42.24 -36.52,-40.50 -35.54,-38.34 -34.56,-36.18 -33.31,-33.74 -32.07,-31.29 -30.81,-28.87 -29.55,-26.45 -27.56,-23.80 -25.57,-21.14 -23.60,-18.68 -21.64,-16.22 -19.69,-14.17 -17.74,-12.11 -15.82,-10.44 -13.90,-8.77 -12.03,-7.46 -10.15,-6.14 -8.43,-5.15 -6.71,-4.16 -4.73,-3.36 -2.74,-2.56 -1.15,-2.05 0.43,-1.53 0.61,-1.46 0.79,-1.38 0.95,-1.27 1.10,-1.15 1.22,-1.00 1.34,-0.86 1.43,-0.68 1.51,-0.51 1.55,-0.32 1.59,-0.13 1.58,0.05 1.58,0.25 1.52,0.43 1.47,0.62 1.37,0.78 1.28,0.95 1.15,1.09 1.01,1.23 0.85,1.34 0.69,1.44 0.50,1.50 0.32,1.56 0.13,1.58 -0.05,1.59 -0.24,1.56 -0.43,1.53 -0.43,1.53 L -0.43,1.53 Z"></path></g><g transform="translate(327.59999084472656 96.40000915527344) rotate(0 0.399993896484375 10.399993896484375)" stroke="none"><path fill="#1e1e1e" d="M 2.45,0 Q 2.45,0 2.32,2.06 2.19,4.13 2.15,5.93 2.12,7.73 2.15,9.19 2.18,10.64 2.24,11.72 2.30,12.80 2.40,14.80 2.50,16.80 2.78,18.16 3.06,19.51 3.13,19.92 3.21,20.33 3.16,20.74 3.10,21.15 2.92,21.52 2.74,21.90 2.45,22.19 2.15,22.48 1.78,22.67 1.41,22.85 1.00,22.91 0.59,22.97 0.18,22.89 -0.22,22.81 -0.58,22.61 -0.94,22.41 -1.22,22.10 -1.50,21.79 -1.66,21.41 -1.83,21.03 -1.86,20.62 -1.90,20.20 -1.80,19.80 -1.70,19.40 -1.48,19.05 -1.25,18.70 -0.93,18.44 -0.61,18.18 -0.22,18.03 0.16,17.89 0.58,17.88 0.99,17.86 1.39,17.98 1.78,18.10 2.12,18.35 2.46,18.59 2.70,18.92 2.95,19.26 3.07,19.66 3.19,20.05 3.18,20.47 3.17,20.88 3.03,21.27 2.89,21.66 2.63,21.99 2.37,22.31 2.02,22.53 1.67,22.76 1.27,22.86 0.87,22.96 0.45,22.93 0.04,22.90 -0.33,22.73 -0.72,22.57 -1.02,22.29 -1.33,22.02 -1.54,21.66 -1.74,21.30 -1.74,21.30 -1.74,21.30 -2.12,19.05 -2.50,16.80 -2.40,14.80 -2.30,12.80 -2.24,11.72 -2.18,10.64 -2.15,9.19 -2.12,7.73 -2.15,5.93 -2.19,4.13 -2.32,2.06 -2.45,0 -2.42,-0.29 -2.38,-0.58 -2.28,-0.86 -2.17,-1.14 -2.00,-1.38 -1.83,-1.62 -1.61,-1.82 -1.39,-2.02 -1.13,-2.15 -0.87,-2.29 -0.58,-2.36 -0.29,-2.43 0.00,-2.43 0.29,-2.43 0.58,-2.36 0.87,-2.29 1.13,-2.15 1.39,-2.02 1.61,-1.82 1.83,-1.62 2.00,-1.38 2.17,-1.14 2.28,-0.86 2.38,-0.58 2.42,-0.29 2.45,0.00 2.45,0.00 L 2.45,0 Z"></path></g><g transform="translate(148.40000915527344 213.1999969482422) rotate(0 95.59999084472656 -13.199996948242188)" stroke="none"><path fill="#1e1e1e" d="M -2.11,-1.41 Q -2.11,-1.41 -1.15,-2.76 -0.20,-4.12 0.42,-5.02 1.06,-5.93 1.83,-6.84 2.61,-7.76 3.69,-8.67 4.77,-9.58 6.11,-10.62 7.45,-11.67 8.90,-12.50 10.35,-13.33 11.20,-14.01 12.06,-14.68 13.28,-15.23 14.50,-15.77 16.65,-16.82 18.80,-17.87 19.84,-18.45 20.89,-19.03 22.37,-19.75 23.86,-20.46 25.57,-21.04 27.28,-21.61 29.09,-22.19 30.90,-22.77 33.72,-23.22 36.53,-23.66 39.54,-24.02 42.55,-24.38 45.61,-24.95 48.67,-25.52 51.63,-25.98 54.60,-26.44 57.47,-26.84 60.34,-27.25 62.76,-27.42 65.19,-27.58 66.90,-27.73 68.61,-27.88 70.27,-27.97 71.93,-28.07 73.56,-28.13 75.19,-28.19 77.26,-28.15 79.33,-28.10 81.59,-28.05 83.85,-28.00 86.42,-27.96 89.00,-27.92 91.70,-27.89 94.40,-27.86 96.77,-27.61 99.14,-27.35 101.74,-27.01 104.35,-26.66 107.06,-26.28 109.78,-25.90 112.10,-25.50 114.42,-25.10 116.56,-24.70 118.70,-24.30 121.52,-23.42 124.34,-22.54 127.54,-21.72 130.74,-20.90 133.99,-19.85 137.25,-18.79 139.79,-17.88 142.32,-16.97 144.29,-16.38 146.25,-15.78 148.08,-15.08 149.92,-14.39 151.46,-14.19 153.01,-13.99 155.08,-13.60 157.16,-13.21 159.13,-13.06 161.09,-12.91 162.85,-12.89 164.61,-12.88 166.05,-12.93 167.49,-12.99 169.24,-13.00 171.00,-13.01 172.66,-13.04 174.33,-13.07 175.73,-13.13 177.13,-13.19 179.10,-13.53 181.07,-13.87 182.47,-14.43 183.88,-15.00 185.53,-15.96 187.18,-16.93 188.05,-17.61 188.92,-18.28 189.26,-18.57 189.59,-18.85 189.99,-19.01 190.40,-19.17 190.83,-19.20 191.27,-19.22 191.69,-19.11 192.11,-18.99 192.47,-18.74 192.83,-18.50 193.10,-18.15 193.36,-17.81 193.50,-17.39 193.64,-16.98 193.64,-16.54 193.64,-16.11 193.50,-15.69 193.36,-15.28 193.10,-14.93 192.84,-14.59 192.47,-14.34 192.11,-14.10 191.69,-13.98 191.27,-13.86 190.84,-13.89 190.40,-13.91 190.00,-14.07 189.59,-14.23 189.26,-14.51 188.93,-14.80 188.70,-15.17 188.48,-15.54 188.38,-15.97 188.29,-16.39 188.34,-16.83 188.38,-17.26 188.57,-17.66 188.75,-18.05 189.05,-18.37 189.35,-18.69 189.73,-18.89 190.12,-19.10 190.55,-19.17 190.98,-19.24 191.41,-19.17 191.84,-19.10 192.22,-18.89 192.61,-18.69 192.91,-18.37 193.21,-18.06 193.39,-17.66 193.58,-17.26 193.62,-16.83 193.67,-16.40 193.58,-15.97 193.48,-15.55 193.26,-15.17 193.04,-14.80 193.04,-14.80 193.04,-14.80 191.32,-13.51 189.61,-12.22 187.99,-11.47 186.37,-10.71 184.16,-10.08 181.96,-9.44 180.60,-9.25 179.24,-9.06 178.18,-9.13 177.12,-9.21 175.72,-9.27 174.32,-9.34 172.65,-9.38 170.97,-9.41 169.20,-9.45 167.42,-9.48 165.96,-9.59 164.50,-9.71 162.68,-9.82 160.87,-9.94 158.76,-10.09 156.65,-10.25 154.55,-10.58 152.44,-10.90 150.65,-11.32 148.85,-11.74 147.15,-12.48 145.46,-13.22 143.44,-13.85 141.43,-14.48 138.93,-15.38 136.43,-16.27 133.26,-17.30 130.08,-18.33 126.81,-19.16 123.54,-19.99 120.87,-20.82 118.20,-21.66 116.09,-22.04 113.97,-22.43 111.69,-22.81 109.40,-23.18 106.70,-23.54 104.00,-23.90 101.43,-24.21 98.86,-24.52 96.63,-24.72 94.40,-24.93 91.70,-24.90 89.00,-24.87 86.43,-24.83 83.86,-24.79 81.60,-24.73 79.34,-24.67 77.28,-24.61 75.22,-24.55 73.61,-24.59 72.01,-24.62 70.39,-24.65 68.77,-24.67 67.09,-24.66 65.42,-24.65 63.12,-24.43 60.81,-24.22 57.98,-23.74 55.15,-23.25 52.26,-22.70 49.38,-22.14 46.25,-21.40 43.12,-20.67 40.24,-20.12 37.36,-19.58 34.97,-18.97 32.58,-18.37 30.79,-17.57 29.01,-16.77 27.67,-16.25 26.33,-15.73 24.98,-14.96 23.63,-14.19 22.32,-13.44 21.01,-12.68 20.01,-12.26 19.01,-11.84 17.22,-11.04 15.42,-10.24 14.31,-9.37 13.19,-8.51 12.17,-7.89 11.15,-7.27 10.22,-6.53 9.28,-5.79 7.86,-5.02 6.44,-4.25 5.16,-2.82 3.88,-1.39 2.99,0.00 2.11,1.41 1.91,1.64 1.71,1.87 1.46,2.05 1.21,2.23 0.93,2.34 0.64,2.46 0.34,2.50 0.04,2.54 -0.26,2.51 -0.56,2.47 -0.85,2.37 -1.14,2.27 -1.40,2.10 -1.65,1.93 -1.86,1.70 -2.07,1.47 -2.21,1.20 -2.36,0.94 -2.44,0.64 -2.52,0.34 -2.52,0.04 -2.53,-0.26 -2.46,-0.56 -2.39,-0.86 -2.25,-1.13 -2.11,-1.41 -2.11,-1.41 L -2.11,-1.41 Z"></path></g><g transform="translate(328.3999786376953 189.99998474121094) rotate(0 12.800018310546875 10.000015258789062)" stroke="none"><path fill="#1e1e1e" d="M -0.47,-2.11 Q -0.47,-2.11 1.62,-2.46 3.72,-2.81 6.11,-2.95 8.50,-3.08 10.89,-3.10 13.28,-3.12 15.44,-3.11 17.60,-3.10 19.33,-2.95 21.05,-2.79 22.16,-2.80 23.26,-2.81 25.14,-1.92 27.01,-1.02 27.47,1.14 27.93,3.32 27.44,4.90 26.96,6.49 26.25,7.80 25.55,9.11 25.12,10.18 24.68,11.26 23.90,12.46 23.12,13.66 22.31,14.65 21.50,15.63 20.69,17.10 19.88,18.56 19.19,19.65 18.50,20.75 16.94,22.26 15.39,23.78 14.97,23.96 14.55,24.14 14.10,24.18 13.65,24.21 13.20,24.10 12.76,23.99 12.38,23.75 12.00,23.50 11.71,23.15 11.43,22.80 11.27,22.37 11.12,21.94 11.11,21.49 11.09,21.03 11.23,20.60 11.36,20.17 11.63,19.80 11.89,19.43 12.26,19.16 12.63,18.90 13.06,18.77 13.50,18.63 13.95,18.65 14.41,18.66 14.83,18.82 15.26,18.97 15.61,19.26 15.97,19.54 16.21,19.93 16.46,20.31 16.57,20.75 16.67,21.19 16.64,21.64 16.60,22.10 16.42,22.51 16.24,22.93 15.94,23.27 15.63,23.61 15.24,23.83 14.84,24.05 14.39,24.14 13.95,24.22 13.50,24.16 13.05,24.10 12.64,23.90 12.23,23.69 11.91,23.37 11.59,23.05 11.39,22.64 11.19,22.24 11.13,21.79 11.07,21.34 11.15,20.89 11.24,20.44 11.47,20.05 11.69,19.65 12.03,19.35 12.37,19.05 12.37,19.05 12.37,19.05 13.10,18.42 13.83,17.78 14.99,15.93 16.15,14.08 16.82,13.14 17.49,12.19 18.75,10.71 20.00,9.24 20.57,7.95 21.15,6.66 22.13,5.03 23.10,3.40 23.03,2.17 22.96,0.94 21.78,0.75 20.60,0.56 19.13,0.28 17.65,0.01 15.52,0.09 13.39,0.17 11.10,0.31 8.81,0.45 6.68,0.71 4.55,0.97 2.51,1.54 0.47,2.11 0.21,2.14 -0.04,2.16 -0.30,2.13 -0.56,2.09 -0.80,1.99 -1.05,1.89 -1.26,1.74 -1.47,1.59 -1.64,1.39 -1.81,1.19 -1.92,0.95 -2.04,0.72 -2.10,0.46 -2.15,0.21 -2.15,-0.04 -2.14,-0.31 -2.07,-0.56 -2.01,-0.81 -1.88,-1.04 -1.75,-1.27 -1.57,-1.46 -1.40,-1.65 -1.18,-1.80 -0.96,-1.94 -0.71,-2.03 -0.47,-2.11 -0.47,-2.11 L -0.47,-2.11 Z"></path></g><g transform="translate(366.00001525878906 165.99998474121094) rotate(0 17.199981689453125 24.800003051757812)" stroke="none"><path fill="#1e1e1e" d="M 1.41,-0.89 Q 1.41,-0.89 2.98,1.65 4.55,4.21 5.64,5.96 6.73,7.72 7.75,8.18 8.76,8.64 10.24,9.07 11.71,9.50 13.60,9.75 15.49,10.00 17.77,9.69 20.05,9.39 22.26,8.20 24.47,7.01 26.27,5.22 28.08,3.43 29.29,1.58 30.50,-0.25 31.32,-1.68 32.13,-3.10 32.28,-3.12 32.42,-3.15 32.55,-3.31 32.68,-3.48 32.84,-3.61 33.01,-3.74 33.20,-3.82 33.39,-3.91 33.59,-3.95 33.80,-3.98 34.00,-3.97 34.21,-3.96 34.41,-3.90 34.61,-3.84 34.79,-3.73 34.97,-3.62 35.11,-3.48 35.26,-3.33 35.37,-3.15 35.48,-2.97 35.54,-2.78 35.60,-2.58 35.62,-2.37 35.63,-2.16 35.59,-1.96 35.56,-1.75 35.47,-1.56 35.39,-1.37 35.69,2.04 35.98,5.46 35.73,9.00 35.47,12.55 35.35,16.75 35.23,20.96 34.70,25.13 34.17,29.31 33.24,33.42 32.31,37.53 31.45,41.09 30.59,44.66 29.49,47.20 28.40,49.75 27.48,51.21 26.57,52.66 25.01,53.48 23.46,54.29 21.94,53.65 20.43,53.00 19.10,51.05 17.76,49.10 16.81,47.11 15.86,45.12 15.21,43.05 14.56,40.97 14.07,38.94 13.58,36.90 13.16,34.31 12.74,31.72 12.75,31.42 12.76,31.13 12.87,30.86 12.97,30.59 13.16,30.36 13.34,30.14 13.59,29.99 13.84,29.83 14.13,29.77 14.41,29.70 14.70,29.73 14.99,29.76 15.26,29.88 15.52,30.00 15.74,30.19 15.95,30.39 16.09,30.65 16.23,30.91 16.28,31.19 16.33,31.48 16.29,31.77 16.24,32.06 16.11,32.32 15.98,32.58 15.77,32.78 15.56,32.98 15.29,33.11 15.03,33.23 14.74,33.27 14.45,33.30 14.16,33.24 13.88,33.18 13.63,33.04 13.38,32.89 13.18,32.67 12.99,32.45 12.88,32.18 12.77,31.91 12.75,31.62 12.73,31.33 12.81,31.04 12.88,30.76 13.04,30.52 13.20,30.27 13.43,30.10 13.67,29.92 13.94,29.82 14.22,29.72 14.51,29.72 14.80,29.72 15.08,29.81 15.36,29.90 15.59,30.07 15.82,30.25 15.99,30.49 16.16,30.72 16.24,31.01 16.32,31.29 16.32,31.29 16.32,31.28 16.50,33.70 16.68,36.12 17.19,38.04 17.69,39.96 18.30,41.77 18.92,43.58 19.85,45.31 20.79,47.04 22.44,48.92 24.10,50.79 24.99,49.72 25.89,48.65 26.89,46.33 27.89,44.01 28.72,40.46 29.55,36.91 30.42,32.93 31.29,28.96 31.75,24.93 32.22,20.90 32.27,16.63 32.32,12.36 32.47,8.95 32.63,5.53 32.51,2.86 32.39,0.18 32.41,-1.48 32.42,-3.15 32.55,-3.31 32.68,-3.48 32.84,-3.61 33.01,-3.74 33.20,-3.82 33.39,-3.91 33.59,-3.95 33.80,-3.98 34.00,-3.97 34.21,-3.96 34.41,-3.90 34.61,-3.84 34.79,-3.73 34.97,-3.62 35.11,-3.48 35.26,-3.33 35.37,-3.15 35.48,-2.97 35.54,-2.78 35.60,-2.58 35.62,-2.37 35.63,-2.16 35.59,-1.96 35.56,-1.75 35.47,-1.56 35.39,-1.37 34.87,-1.21 34.36,-1.05 33.61,0.11 32.87,1.28 31.50,3.38 30.12,5.48 28.02,7.56 25.91,9.63 23.24,11.05 20.56,12.47 17.85,12.89 15.15,13.30 12.88,13.09 10.60,12.87 8.78,12.20 6.95,11.53 5.61,10.49 4.27,9.45 3.08,7.68 1.88,5.90 0.23,3.40 -1.41,0.89 -1.50,0.71 -1.58,0.53 -1.62,0.33 -1.66,0.13 -1.66,-0.06 -1.65,-0.26 -1.59,-0.45 -1.54,-0.65 -1.44,-0.82 -1.34,-1.00 -1.20,-1.14 -1.06,-1.29 -0.89,-1.40 -0.72,-1.51 -0.53,-1.57 -0.33,-1.64 -0.13,-1.65 0.06,-1.67 0.26,-1.64 0.46,-1.61 0.64,-1.53 0.83,-1.45 0.99,-1.33 1.15,-1.21 1.28,-1.05 1.41,-0.89 1.41,-0.89 L 1.41,-0.89 Z"></path></g><g transform="translate(402.8000030517578 199.59999084472656) rotate(0 18.79998779296875 12.399993896484375)" stroke="none"><path fill="#1e1e1e" d="M -0.56,-1.96 Q -0.56,-1.96 1.04,-2.43 2.65,-2.89 4.16,-3.16 5.66,-3.43 7.20,-3.67 8.74,-3.91 10.29,-3.34 11.84,-2.77 13.12,-0.99 14.41,0.77 14.79,3.40 15.17,6.03 15.00,8.56 14.82,11.08 13.98,13.26 13.15,15.45 11.52,17.58 9.89,19.71 8.20,21.12 6.52,22.54 5.71,23.38 4.91,24.23 3.24,25.00 1.57,25.77 0.26,25.32 -1.05,24.88 -2.15,23.48 -3.25,22.09 -3.76,20.58 -4.27,19.08 -4.08,17.42 -3.90,15.75 -2.36,14.30 -0.82,12.85 0.21,12.17 1.24,11.49 2.45,11.06 3.65,10.63 5.24,10.70 6.84,10.77 8.88,12.01 10.92,13.24 12.74,14.75 14.57,16.26 16.83,17.80 19.09,19.34 21.81,20.68 24.52,22.03 26.97,22.83 29.41,23.64 31.62,23.53 33.83,23.42 35.12,22.88 36.41,22.34 37.41,21.51 38.42,20.67 38.65,20.49 38.87,20.31 39.14,20.21 39.41,20.11 39.70,20.10 39.99,20.09 40.27,20.17 40.54,20.25 40.78,20.42 41.02,20.58 41.19,20.82 41.36,21.05 41.44,21.33 41.53,21.60 41.53,21.89 41.52,22.18 41.42,22.46 41.33,22.73 41.15,22.95 40.97,23.18 40.72,23.34 40.48,23.50 40.20,23.57 39.92,23.64 39.63,23.62 39.34,23.60 39.08,23.49 38.81,23.37 38.59,23.18 38.38,22.99 38.23,22.74 38.09,22.49 38.03,22.20 37.97,21.92 38.01,21.63 38.05,21.35 38.17,21.09 38.30,20.83 38.50,20.62 38.71,20.41 38.97,20.28 39.22,20.15 39.51,20.11 39.80,20.07 40.08,20.12 40.37,20.18 40.62,20.32 40.87,20.46 41.07,20.67 41.26,20.88 41.38,21.15 41.49,21.41 41.52,21.70 41.55,21.99 41.48,22.27 41.41,22.55 41.26,22.80 41.10,23.04 41.10,23.04 41.10,23.04 39.30,24.30 37.50,25.56 35.76,26.05 34.02,26.53 31.27,26.67 28.51,26.81 25.77,26.03 23.03,25.26 20.03,23.96 17.04,22.65 14.52,21.22 12.01,19.79 10.17,18.63 8.34,17.48 6.65,16.60 4.97,15.71 3.53,16.30 2.10,16.89 1.37,18.21 0.65,19.52 1.57,20.49 2.50,21.46 3.46,20.75 4.42,20.03 5.82,18.86 7.21,17.69 8.50,15.91 9.78,14.13 10.38,12.51 10.99,10.89 10.96,8.80 10.94,6.72 10.59,4.99 10.25,3.26 9.49,2.04 8.74,0.81 7.50,0.81 6.27,0.81 5.02,0.93 3.78,1.05 2.17,1.51 0.56,1.96 0.31,2.00 0.07,2.04 -0.17,2.02 -0.41,2.00 -0.65,1.92 -0.88,1.84 -1.09,1.71 -1.30,1.58 -1.47,1.40 -1.64,1.22 -1.76,1.00 -1.88,0.79 -1.95,0.55 -2.02,0.32 -2.03,0.07 -2.03,-0.17 -1.98,-0.41 -1.93,-0.65 -1.83,-0.87 -1.72,-1.10 -1.56,-1.29 -1.41,-1.48 -1.21,-1.62 -1.01,-1.77 -0.78,-1.87 -0.56,-1.96 -0.56,-1.96 L -0.56,-1.96 Z"></path></g><g transform="translate(194.8000030517578 34.79998779296875) rotate(0 -9.199996948242188 12.800003051757812)" stroke="none"><path fill="#1e1e1e" d="M 0.19,1.95 Q 0.19,1.95 -2.09,2.09 -4.39,2.23 -6.97,3.35 -9.56,4.47 -11.19,5.24 -12.82,6.01 -13.75,6.94 -14.67,7.87 -15.49,8.93 -16.30,9.99 -16.76,11.01 -17.23,12.02 -17.39,13.34 -17.55,14.66 -17.27,16.13 -16.98,17.61 -15.94,18.98 -14.89,20.36 -13.43,21.39 -11.97,22.43 -10.35,22.82 -8.74,23.22 -7.01,23.18 -5.29,23.14 -4.00,23.05 -2.72,22.95 -1.48,22.42 -0.25,21.90 -0.00,21.87 0.24,21.84 0.49,21.88 0.74,21.91 0.97,22.00 1.20,22.09 1.41,22.24 1.61,22.39 1.78,22.58 1.94,22.77 2.05,22.99 2.17,23.21 2.22,23.46 2.28,23.70 2.27,23.95 2.27,24.20 2.21,24.45 2.14,24.69 2.02,24.91 1.90,25.13 1.74,25.32 1.57,25.50 1.36,25.64 1.15,25.78 0.91,25.87 0.68,25.95 0.44,25.98 0.21,26.00 -0.12,25.95 -0.45,25.89 -0.75,25.74 -1.04,25.58 -1.27,25.33 -1.50,25.09 -1.65,24.78 -1.79,24.48 -1.82,24.14 -1.86,23.81 -1.79,23.48 -1.71,23.15 -1.54,22.86 -1.36,22.57 -1.11,22.36 -0.85,22.14 -0.54,22.01 -0.22,21.89 0.10,21.87 0.44,21.85 0.76,21.95 1.09,22.04 1.36,22.23 1.64,22.41 1.85,22.68 2.05,22.95 2.16,23.27 2.26,23.59 2.26,23.93 2.26,24.26 2.15,24.58 2.05,24.90 1.84,25.17 1.64,25.44 1.36,25.62 1.08,25.81 0.76,25.90 0.43,25.99 0.09,25.97 -0.23,25.95 -0.54,25.83 -0.86,25.70 -1.11,25.49 -1.37,25.27 -1.54,24.98 -1.72,24.69 -1.79,24.36 -1.86,24.03 -1.82,23.70 -1.78,23.36 -1.64,23.06 -1.50,22.75 -1.27,22.51 -1.04,22.26 -0.74,22.11 -0.44,21.95 -0.35,21.92 -0.25,21.90 -0.00,21.87 0.24,21.84 0.49,21.88 0.74,21.91 0.97,22.00 1.20,22.09 1.41,22.24 1.61,22.39 1.78,22.58 1.94,22.77 2.05,22.99 2.17,23.21 2.22,23.46 2.28,23.70 2.27,23.95 2.27,24.20 2.21,24.45 2.14,24.69 2.02,24.91 1.90,25.13 1.74,25.32 1.57,25.50 1.36,25.64 1.15,25.78 0.91,25.87 0.68,25.95 0.22,26.13 -0.23,26.32 -1.45,26.49 -2.68,26.66 -3.97,26.58 -5.26,26.49 -7.42,26.49 -9.59,26.48 -11.72,25.87 -13.85,25.26 -15.79,23.92 -17.73,22.59 -19.28,20.55 -20.83,18.52 -21.23,16.29 -21.64,14.07 -21.26,12.09 -20.88,10.12 -20.07,8.80 -19.27,7.49 -18.17,6.30 -17.07,5.12 -15.67,4.03 -14.27,2.93 -12.59,2.18 -10.90,1.43 -7.85,0.06 -4.80,-1.31 -2.50,-1.63 -0.19,-1.95 0.04,-1.94 0.27,-1.94 0.50,-1.88 0.73,-1.81 0.94,-1.70 1.14,-1.59 1.32,-1.42 1.49,-1.26 1.62,-1.07 1.75,-0.87 1.83,-0.65 1.91,-0.42 1.93,-0.19 1.96,0.04 1.92,0.27 1.89,0.50 1.80,0.72 1.71,0.94 1.57,1.13 1.44,1.33 1.26,1.48 1.07,1.63 0.86,1.74 0.65,1.84 0.42,1.90 0.19,1.95 0.19,1.95 L 0.19,1.95 Z"></path></g><g transform="translate(181.1999969482422 49.19999694824219) rotate(0 9.199996948242188 -2.4000015258789062)" stroke="none"><path fill="#1e1e1e" d="M -1.01,-2.27 Q -1.01,-2.27 1.12,-3.06 3.25,-3.84 4.72,-4.31 6.19,-4.78 7.61,-5.02 9.03,-5.26 10.30,-5.37 11.57,-5.47 14.70,-6.40 17.83,-7.32 18.24,-7.28 18.65,-7.23 19.03,-7.06 19.40,-6.89 19.70,-6.60 20.00,-6.32 20.19,-5.95 20.39,-5.59 20.46,-5.18 20.52,-4.78 20.46,-4.37 20.39,-3.96 20.20,-3.59 20.01,-3.23 19.71,-2.95 19.41,-2.66 19.03,-2.49 18.66,-2.31 18.25,-2.27 17.84,-2.22 17.43,-2.31 17.03,-2.40 16.68,-2.61 16.32,-2.82 16.05,-3.14 15.79,-3.45 15.63,-3.84 15.48,-4.22 15.46,-4.63 15.43,-5.04 15.54,-5.44 15.65,-5.84 15.88,-6.18 16.12,-6.52 16.44,-6.77 16.77,-7.02 17.16,-7.16 17.55,-7.29 17.97,-7.29 18.38,-7.29 18.77,-7.16 19.16,-7.03 19.49,-6.78 19.82,-6.53 20.05,-6.19 20.29,-5.85 20.40,-5.45 20.51,-5.05 20.49,-4.64 20.46,-4.23 20.31,-3.84 20.16,-3.46 19.89,-3.14 19.63,-2.83 19.27,-2.61 18.92,-2.40 18.52,-2.31 18.11,-2.22 18.11,-2.22 18.11,-2.22 16.48,-2.03 14.85,-1.84 13.43,-1.28 12.00,-0.71 10.82,-0.67 9.64,-0.64 8.54,-0.55 7.44,-0.45 6.23,-0.14 5.02,0.16 3.01,1.22 1.01,2.27 0.72,2.36 0.43,2.45 0.13,2.47 -0.16,2.48 -0.45,2.43 -0.75,2.37 -1.02,2.25 -1.30,2.12 -1.53,1.94 -1.77,1.75 -1.95,1.51 -2.14,1.28 -2.26,1.00 -2.38,0.73 -2.43,0.43 -2.49,0.13 -2.47,-0.16 -2.45,-0.46 -2.36,-0.74 -2.26,-1.03 -2.11,-1.29 -1.95,-1.54 -1.74,-1.75 -1.52,-1.97 -1.27,-2.12 -1.01,-2.27 -1.01,-2.27 L -1.01,-2.27 Z"></path></g><g transform="translate(192.40000915527344 22) rotate(0 -7.20001220703125 24.399993896484375)" stroke="none"><path fill="#1e1e1e" d="M 1.32,1.02 Q 1.32,1.02 -0.32,3.06 -1.96,5.10 -3.05,7.42 -4.14,9.74 -5.32,12.60 -6.51,15.46 -7.46,18.68 -8.42,21.91 -9.06,24.65 -9.70,27.39 -10.20,30.15 -10.71,32.91 -11.16,35.91 -11.60,38.92 -11.79,41.31 -11.98,43.70 -12.33,45.93 -12.67,48.17 -12.76,48.41 -12.85,48.64 -13.02,48.84 -13.18,49.03 -13.39,49.16 -13.61,49.30 -13.85,49.35 -14.10,49.41 -14.35,49.39 -14.60,49.36 -14.83,49.26 -15.06,49.16 -15.24,48.98 -15.43,48.81 -15.55,48.59 -15.67,48.37 -15.72,48.12 -15.76,47.87 -15.72,47.63 -15.68,47.38 -15.57,47.15 -15.45,46.93 -15.27,46.75 -15.09,46.58 -14.86,46.47 -14.64,46.36 -14.39,46.33 -14.13,46.30 -13.89,46.35 -13.64,46.40 -13.42,46.53 -13.21,46.66 -13.04,46.85 -12.87,47.04 -12.78,47.27 -12.68,47.50 -12.67,47.75 -12.65,48.01 -12.71,48.25 -12.78,48.49 -12.92,48.70 -13.06,48.91 -13.25,49.07 -13.45,49.22 -13.69,49.31 -13.93,49.39 -14.18,49.39 -14.43,49.40 -14.67,49.32 -14.91,49.24 -15.12,49.09 -15.32,48.94 -15.46,48.73 -15.61,48.53 -15.68,48.28 -15.75,48.04 -15.74,47.79 -15.73,47.54 -15.73,47.54 -15.73,47.54 -15.19,45.51 -14.65,43.49 -14.47,41.01 -14.28,38.52 -13.84,35.47 -13.40,32.43 -12.90,29.60 -12.40,26.77 -11.77,23.95 -11.13,21.12 -10.17,17.74 -9.20,14.37 -8.04,11.43 -6.87,8.49 -5.67,5.83 -4.47,3.17 -2.89,1.07 -1.32,-1.02 -1.18,-1.17 -1.03,-1.31 -0.86,-1.42 -0.69,-1.52 -0.50,-1.58 -0.30,-1.64 -0.10,-1.66 0.09,-1.67 0.29,-1.63 0.49,-1.60 0.67,-1.51 0.86,-1.43 1.02,-1.31 1.18,-1.18 1.30,-1.03 1.43,-0.87 1.51,-0.68 1.59,-0.50 1.63,-0.30 1.67,-0.10 1.66,0.09 1.64,0.29 1.59,0.48 1.53,0.68 1.42,0.85 1.32,1.02 1.32,1.02 L 1.32,1.02 Z"></path></g><g transform="translate(235.59999084472656 18.79998779296875) rotate(0 -3.1999969482421875 14.400009155273438)" stroke="none"><path fill="#1e1e1e" d="M -2.47,0 Q -2.47,0 -2.33,-2.06 -2.20,-4.13 -2.26,-5.24 -2.31,-6.35 -2.30,-4.94 -2.29,-3.52 -2.86,-1.55 -3.42,0.41 -3.72,3.25 -4.03,6.08 -4.21,9.16 -4.39,12.24 -4.50,14.70 -4.61,17.16 -4.68,19.36 -4.75,21.55 -4.80,23.86 -4.85,26.18 -4.88,28.31 -4.92,30.44 -4.84,32.04 -4.76,33.64 -4.68,35.26 -4.60,36.88 -4.65,37.17 -4.70,37.45 -4.83,37.71 -4.97,37.96 -5.18,38.16 -5.39,38.36 -5.65,38.48 -5.92,38.61 -6.20,38.64 -6.49,38.67 -6.78,38.61 -7.06,38.54 -7.31,38.39 -7.56,38.24 -7.74,38.02 -7.93,37.80 -8.04,37.53 -8.14,37.26 -8.16,36.97 -8.18,36.68 -8.10,36.41 -8.02,36.13 -7.86,35.89 -7.69,35.65 -7.46,35.47 -7.23,35.30 -6.96,35.20 -6.68,35.11 -6.39,35.11 -6.10,35.11 -5.83,35.20 -5.55,35.30 -5.32,35.47 -5.09,35.65 -4.93,35.89 -4.77,36.13 -4.69,36.41 -4.61,36.69 -4.63,36.98 -4.65,37.27 -4.75,37.53 -4.86,37.80 -5.05,38.02 -5.24,38.25 -5.48,38.39 -5.73,38.54 -6.02,38.61 -6.30,38.67 -6.59,38.64 -6.88,38.61 -7.14,38.48 -7.40,38.36 -7.61,38.16 -7.82,37.96 -7.96,37.71 -8.09,37.45 -8.14,37.16 -8.19,36.88 -8.19,36.88 -8.19,36.88 -8.11,35.26 -8.03,33.63 -7.95,32.04 -7.87,30.44 -7.89,28.30 -7.92,26.17 -7.96,23.85 -7.99,21.53 -8.04,19.32 -8.08,17.11 -8.12,14.63 -8.16,12.14 -8.19,8.98 -8.21,5.82 -8.14,2.65 -8.07,-0.51 -7.75,-2.93 -7.43,-5.36 -6.62,-7.26 -5.82,-9.16 -4.87,-9.93 -3.93,-10.70 -2.86,-11.00 -1.79,-11.29 -0.20,-10.65 1.37,-10.01 1.84,-8.18 2.31,-6.35 2.26,-5.24 2.20,-4.13 2.33,-2.06 2.47,0 2.43,0.29 2.40,0.59 2.29,0.87 2.19,1.14 2.02,1.39 1.85,1.64 1.62,1.83 1.40,2.03 1.14,2.17 0.87,2.31 0.58,2.38 0.29,2.45 -0.00,2.45 -0.29,2.45 -0.58,2.38 -0.87,2.31 -1.14,2.17 -1.40,2.03 -1.62,1.83 -1.85,1.64 -2.02,1.39 -2.19,1.14 -2.29,0.87 -2.40,0.59 -2.43,0.29 -2.47,-0.00 -2.47,-0.00 L -2.47,0 Z"></path></g><g transform="translate(223.59999084472656 47.59999084472656) rotate(0 10 -2.7999954223632812)" stroke="none"><path fill="#1e1e1e" d="M -1.26,-2.10 Q -1.26,-2.10 -0.11,-2.81 1.03,-3.51 2.23,-3.96 3.43,-4.41 5.09,-4.76 6.74,-5.11 8.31,-5.45 9.89,-5.79 11.34,-6.33 12.79,-6.86 14.08,-7.21 15.37,-7.57 17.39,-7.81 19.41,-8.05 19.81,-8.01 20.21,-7.98 20.58,-7.82 20.95,-7.66 21.25,-7.39 21.55,-7.11 21.75,-6.76 21.94,-6.41 22.02,-6.01 22.09,-5.62 22.03,-5.22 21.98,-4.82 21.79,-4.46 21.61,-4.10 21.33,-3.82 21.04,-3.53 20.68,-3.36 20.32,-3.18 19.92,-3.13 19.52,-3.08 19.12,-3.15 18.73,-3.23 18.38,-3.43 18.03,-3.63 17.76,-3.93 17.49,-4.24 17.33,-4.61 17.18,-4.98 17.15,-5.38 17.12,-5.78 17.22,-6.17 17.32,-6.56 17.54,-6.90 17.75,-7.24 18.07,-7.49 18.39,-7.74 18.76,-7.88 19.14,-8.01 19.55,-8.02 19.95,-8.03 20.33,-7.91 20.72,-7.79 21.04,-7.55 21.37,-7.32 21.60,-6.99 21.84,-6.66 21.95,-6.27 22.07,-5.89 22.06,-5.48 22.04,-5.08 21.90,-4.70 21.76,-4.33 21.51,-4.01 21.25,-3.70 20.91,-3.49 20.57,-3.27 20.18,-3.18 19.79,-3.08 19.79,-3.08 19.79,-3.08 17.14,-2.79 14.49,-2.49 12.76,-1.78 11.03,-1.07 9.44,-0.65 7.85,-0.24 5.71,0.25 3.56,0.75 2.41,1.43 1.26,2.10 0.99,2.22 0.72,2.34 0.43,2.39 0.14,2.45 -0.15,2.43 -0.45,2.41 -0.73,2.32 -1.01,2.23 -1.26,2.08 -1.52,1.92 -1.72,1.71 -1.93,1.50 -2.09,1.25 -2.24,1.00 -2.32,0.71 -2.41,0.43 -2.43,0.13 -2.45,-0.15 -2.39,-0.44 -2.34,-0.73 -2.21,-1.00 -2.09,-1.27 -1.91,-1.50 -1.73,-1.74 -1.49,-1.92 -1.26,-2.10 -1.26,-2.10 L -1.26,-2.10 Z"></path></g><g transform="translate(256.40000915527344 42.79998779296875) rotate(0 -7.600006103515625 13.600006103515625)" stroke="none"><path fill="#1e1e1e" d="M 1.84,0.61 Q 1.84,0.61 1.07,2.66 0.29,4.70 -1.04,6.87 -2.39,9.04 -3.63,11.03 -4.88,13.02 -6.09,15.21 -7.30,17.40 -8.27,19.08 -9.23,20.76 -10.36,22.59 -11.49,24.42 -12.88,26.05 -14.26,27.68 -14.50,27.75 -14.75,27.82 -15.00,27.81 -15.25,27.80 -15.49,27.71 -15.72,27.61 -15.92,27.45 -16.11,27.29 -16.24,27.07 -16.38,26.86 -16.43,26.61 -16.49,26.36 -16.46,26.11 -16.43,25.86 -16.33,25.63 -16.22,25.40 -16.05,25.21 -15.88,25.03 -15.66,24.91 -15.43,24.79 -15.18,24.75 -14.93,24.70 -14.68,24.74 -14.43,24.78 -14.21,24.90 -13.99,25.02 -13.81,25.20 -13.64,25.38 -13.53,25.61 -13.42,25.84 -13.39,26.09 -13.36,26.35 -13.42,26.59 -13.47,26.84 -13.60,27.06 -13.73,27.28 -13.92,27.44 -14.11,27.60 -14.35,27.70 -14.58,27.79 -14.83,27.81 -15.09,27.82 -15.33,27.76 -15.57,27.69 -15.79,27.55 -16.00,27.41 -16.15,27.21 -16.30,27.01 -16.39,26.77 -16.47,26.53 -16.47,26.28 -16.47,26.02 -16.39,25.78 -16.31,25.54 -16.16,25.34 -16.01,25.14 -15.80,25.00 -15.59,24.85 -15.59,24.85 -15.59,24.85 -14.81,23.88 -14.04,22.91 -12.96,21.05 -11.89,19.18 -10.91,17.58 -9.93,15.98 -8.74,13.70 -7.55,11.42 -6.38,9.38 -5.22,7.35 -4.14,5.46 -3.05,3.57 -2.45,1.47 -1.84,-0.61 -1.74,-0.82 -1.64,-1.03 -1.49,-1.21 -1.34,-1.40 -1.15,-1.54 -0.97,-1.68 -0.75,-1.77 -0.54,-1.86 -0.31,-1.90 -0.07,-1.94 0.15,-1.92 0.38,-1.90 0.61,-1.83 0.83,-1.75 1.03,-1.63 1.22,-1.50 1.39,-1.33 1.55,-1.16 1.67,-0.96 1.78,-0.76 1.85,-0.53 1.91,-0.31 1.92,-0.07 1.93,0.15 1.89,0.38 1.84,0.61 1.84,0.61 L 1.84,0.61 Z"></path></g><g transform="translate(243.59999084472656 48.399993896484375) rotate(0 9.600006103515625 10)" stroke="none"><path fill="#1e1e1e" d="M 1.54,-1.29 Q 1.54,-1.29 2.68,0.09 3.82,1.48 4.99,3.34 6.16,5.21 7.50,7.10 8.84,8.99 10.51,10.92 12.18,12.85 13.96,14.31 15.74,15.77 16.80,16.26 17.86,16.74 18.05,16.58 18.24,16.41 18.48,16.32 18.72,16.23 18.97,16.21 19.23,16.20 19.47,16.27 19.72,16.34 19.93,16.48 20.14,16.62 20.29,16.83 20.44,17.03 20.52,17.27 20.60,17.51 20.60,17.77 20.60,18.02 20.52,18.26 20.44,18.50 20.28,18.71 20.13,18.91 19.92,19.05 19.71,19.19 19.46,19.26 19.22,19.33 18.96,19.31 18.71,19.30 18.47,19.20 18.24,19.11 18.04,18.94 17.85,18.78 17.72,18.56 17.59,18.34 17.53,18.09 17.48,17.84 17.51,17.59 17.54,17.34 17.64,17.11 17.75,16.88 17.93,16.69 18.10,16.51 18.33,16.39 18.55,16.27 18.81,16.23 19.06,16.19 19.31,16.23 19.56,16.27 19.78,16.39 20.01,16.51 20.18,16.70 20.36,16.88 20.46,17.12 20.57,17.35 20.60,17.60 20.62,17.85 20.57,18.10 20.51,18.35 20.38,18.57 20.25,18.79 20.25,18.79 20.25,18.79 17.05,18.46 13.85,18.13 11.84,16.55 9.83,14.97 7.99,12.99 6.15,11.02 4.65,9.13 3.15,7.25 1.96,5.64 0.77,4.03 -0.38,2.66 -1.54,1.29 -1.68,1.08 -1.81,0.88 -1.89,0.65 -1.97,0.42 -1.99,0.18 -2.01,-0.06 -1.97,-0.30 -1.94,-0.54 -1.84,-0.76 -1.75,-0.99 -1.61,-1.18 -1.46,-1.38 -1.28,-1.53 -1.09,-1.69 -0.87,-1.79 -0.65,-1.90 -0.41,-1.95 -0.18,-2.00 0.06,-2.00 0.30,-1.99 0.53,-1.92 0.77,-1.86 0.98,-1.74 1.19,-1.62 1.37,-1.45 1.54,-1.29 1.54,-1.29 L 1.54,-1.29 Z"></path></g><g transform="translate(253.99998474121094 43.59999084472656) rotate(0 -0.79998779296875 12)" stroke="none"><path fill="#1e1e1e" d="M 2.02,0.18 Q 2.02,0.18 1.69,2.70 1.37,5.22 1.20,8.08 1.04,10.94 0.71,13.84 0.38,16.73 0.28,20.08 0.17,23.43 0.11,23.70 0.05,23.98 -0.08,24.22 -0.23,24.46 -0.44,24.65 -0.65,24.83 -0.92,24.94 -1.18,25.04 -1.46,25.06 -1.74,25.08 -2.01,25.00 -2.29,24.93 -2.52,24.77 -2.75,24.62 -2.93,24.39 -3.10,24.17 -3.19,23.90 -3.28,23.64 -3.29,23.35 -3.29,23.07 -3.20,22.80 -3.11,22.54 -2.94,22.31 -2.77,22.08 -2.54,21.92 -2.31,21.77 -2.04,21.69 -1.76,21.61 -1.48,21.62 -1.20,21.64 -0.94,21.74 -0.68,21.84 -0.46,22.02 -0.24,22.20 -0.10,22.45 0.04,22.69 0.10,22.96 0.17,23.24 0.14,23.52 0.11,23.80 -0.00,24.06 -0.11,24.31 -0.31,24.52 -0.50,24.72 -0.75,24.86 -1.00,24.99 -1.27,25.04 -1.55,25.09 -1.83,25.04 -2.11,25.00 -2.36,24.87 -2.61,24.74 -2.81,24.53 -3.00,24.33 -3.12,24.08 -3.24,23.82 -3.27,23.54 -3.31,23.26 -3.31,23.26 -3.31,23.26 -3.04,19.85 -2.78,16.43 -2.56,13.63 -2.35,10.83 -2.32,7.86 -2.29,4.89 -2.15,2.35 -2.02,-0.18 -1.97,-0.42 -1.91,-0.66 -1.81,-0.88 -1.70,-1.10 -1.54,-1.29 -1.39,-1.47 -1.19,-1.62 -0.99,-1.76 -0.77,-1.86 -0.54,-1.95 -0.30,-1.99 -0.06,-2.02 0.18,-2.00 0.42,-1.98 0.65,-1.90 0.88,-1.82 1.09,-1.69 1.29,-1.55 1.46,-1.38 1.63,-1.20 1.75,-0.98 1.87,-0.77 1.94,-0.54 2.00,-0.30 2.01,-0.06 2.02,0.18 2.02,0.18 L 2.02,0.18 Z"></path></g><g transform="translate(237.99998474121094 55.59999084472656) rotate(0 19.20001220703125 -2.7999954223632812)" stroke="none"><path fill="#1e1e1e" d="M -0.40,-1.82 Q -0.40,-1.82 1.68,-2.20 3.77,-2.59 6.85,-2.75 9.93,-2.91 13.29,-2.96 16.64,-3.00 19.68,-3.01 22.71,-3.01 25.50,-3.46 28.28,-3.90 30.59,-4.53 32.90,-5.16 34.77,-5.96 36.63,-6.75 36.86,-6.83 37.09,-6.91 37.32,-6.92 37.56,-6.92 37.79,-6.85 38.02,-6.78 38.21,-6.63 38.40,-6.49 38.54,-6.30 38.68,-6.10 38.75,-5.87 38.81,-5.64 38.80,-5.40 38.80,-5.16 38.71,-4.94 38.62,-4.72 38.47,-4.53 38.32,-4.35 38.12,-4.22 37.91,-4.09 37.68,-4.04 37.45,-3.98 37.21,-4.01 36.97,-4.03 36.75,-4.13 36.53,-4.22 36.36,-4.38 36.18,-4.55 36.07,-4.76 35.95,-4.97 35.91,-5.20 35.87,-5.44 35.90,-5.67 35.94,-5.91 36.05,-6.12 36.16,-6.34 36.33,-6.50 36.50,-6.67 36.71,-6.77 36.93,-6.88 37.17,-6.91 37.40,-6.94 37.64,-6.89 37.87,-6.84 38.08,-6.72 38.29,-6.60 38.44,-6.42 38.60,-6.24 38.69,-6.02 38.79,-5.80 38.80,-5.56 38.82,-5.32 38.76,-5.09 38.70,-4.86 38.57,-4.66 38.44,-4.46 38.25,-4.31 38.06,-4.16 38.06,-4.16 38.06,-4.16 35.85,-3.32 33.65,-2.47 31.20,-1.78 28.75,-1.08 25.75,-0.58 22.75,-0.07 19.73,-0.01 16.72,0.05 13.43,0.17 10.14,0.29 7.32,0.52 4.50,0.75 2.45,1.28 0.40,1.82 0.18,1.84 -0.04,1.86 -0.26,1.83 -0.48,1.80 -0.69,1.71 -0.90,1.63 -1.08,1.49 -1.26,1.36 -1.41,1.19 -1.55,1.02 -1.65,0.82 -1.75,0.62 -1.80,0.40 -1.85,0.18 -1.85,-0.04 -1.84,-0.26 -1.78,-0.48 -1.72,-0.70 -1.61,-0.89 -1.50,-1.09 -1.35,-1.25 -1.20,-1.42 -1.01,-1.54 -0.82,-1.67 -0.61,-1.74 -0.40,-1.82 -0.40,-1.82 L -0.40,-1.82 Z"></path></g><g transform="translate(295.59999084472656 149.1999969482422) rotate(0 -6.8000030517578125 9.600006103515625)" stroke="none"><path fill="#1e1e1e" d="M 0,2.10 Q 0,2.10 -2.29,2.00 -4.59,1.89 -6.78,2.26 -8.98,2.62 -11.05,3.20 -13.13,3.77 -14.54,4.67 -15.96,5.57 -16.91,6.60 -17.85,7.62 -18.36,8.81 -18.86,9.99 -19.02,11.06 -19.18,12.14 -18.33,13.64 -17.48,15.13 -15.70,15.69 -13.92,16.24 -11.33,16.60 -8.74,16.96 -6.13,16.70 -3.52,16.44 -1.37,16.34 0.77,16.24 1.91,16.07 3.04,15.90 5.27,15.81 7.51,15.71 7.81,15.76 8.11,15.80 8.39,15.94 8.66,16.08 8.87,16.30 9.08,16.52 9.22,16.80 9.35,17.07 9.39,17.37 9.42,17.68 9.36,17.98 9.30,18.27 9.15,18.54 8.99,18.80 8.76,19.00 8.53,19.20 8.25,19.32 7.97,19.44 7.67,19.46 7.36,19.48 7.07,19.40 6.77,19.33 6.52,19.16 6.26,18.99 6.07,18.75 5.88,18.51 5.78,18.22 5.68,17.93 5.68,17.63 5.67,17.32 5.77,17.03 5.86,16.74 6.04,16.50 6.22,16.25 6.47,16.08 6.72,15.90 7.01,15.81 7.31,15.73 7.61,15.74 7.92,15.75 8.20,15.86 8.49,15.97 8.72,16.17 8.96,16.36 9.12,16.62 9.28,16.88 9.35,17.18 9.42,17.47 9.39,17.78 9.36,18.08 9.24,18.36 9.12,18.64 8.91,18.86 8.70,19.09 8.43,19.23 8.17,19.38 7.87,19.43 7.57,19.49 7.57,19.49 7.57,19.49 5.39,19.47 3.22,19.46 2.10,19.41 0.98,19.36 -1.08,19.54 -3.14,19.72 -6.13,20.10 -9.12,20.49 -12.12,20.22 -15.12,19.94 -17.84,19.00 -20.56,18.07 -21.78,16.30 -23.00,14.54 -23.06,12.90 -23.11,11.27 -22.66,9.78 -22.21,8.29 -21.29,6.70 -20.36,5.11 -19.02,3.93 -17.69,2.75 -15.89,1.71 -14.10,0.68 -11.87,-0.05 -9.64,-0.78 -7.12,-1.34 -4.60,-1.89 -2.30,-2.00 0,-2.10 0.25,-2.07 0.50,-2.04 0.74,-1.95 0.97,-1.86 1.18,-1.72 1.39,-1.57 1.56,-1.38 1.73,-1.19 1.85,-0.97 1.96,-0.74 2.03,-0.50 2.09,-0.25 2.09,0.00 2.09,0.25 2.03,0.50 1.96,0.74 1.85,0.97 1.73,1.19 1.56,1.38 1.39,1.57 1.18,1.72 0.97,1.86 0.74,1.95 0.50,2.04 0.25,2.07 -0.00,2.10 -0.00,2.10 L 0,2.10 Z"></path></g><g transform="translate(275.59999084472656 161.1999969482422) rotate(0 13.199996948242188 -2)" stroke="none"><path fill="#1e1e1e" d="M -0.31,-2.23 Q -0.31,-2.23 2.91,-2.57 6.15,-2.91 8.74,-3.02 11.33,-3.13 13.59,-3.14 15.85,-3.16 17.37,-3.46 18.89,-3.76 19.91,-4.16 20.93,-4.56 23.40,-5.34 25.86,-6.12 26.21,-6.10 26.56,-6.09 26.89,-5.96 27.22,-5.84 27.49,-5.62 27.76,-5.39 27.95,-5.09 28.13,-4.80 28.21,-4.45 28.29,-4.11 28.26,-3.76 28.23,-3.41 28.09,-3.09 27.94,-2.77 27.71,-2.51 27.47,-2.25 27.16,-2.08 26.85,-1.91 26.51,-1.85 26.16,-1.79 25.81,-1.84 25.47,-1.89 25.15,-2.05 24.84,-2.21 24.59,-2.46 24.35,-2.72 24.20,-3.03 24.04,-3.35 24.00,-3.70 23.96,-4.05 24.03,-4.39 24.10,-4.74 24.28,-5.04 24.45,-5.34 24.72,-5.57 24.98,-5.81 25.31,-5.94 25.63,-6.08 25.98,-6.10 26.33,-6.12 26.67,-6.04 27.01,-5.95 27.30,-5.75 27.60,-5.56 27.81,-5.28 28.03,-5.01 28.15,-4.68 28.27,-4.35 28.27,-3.99 28.28,-3.64 28.17,-3.31 28.06,-2.97 27.85,-2.69 27.65,-2.41 27.36,-2.21 27.07,-2.00 26.73,-1.91 26.40,-1.81 26.40,-1.81 26.40,-1.81 24.22,-1.31 22.04,-0.81 20.76,-0.53 19.47,-0.24 17.72,-0.02 15.98,0.20 13.80,0.35 11.61,0.50 9.17,0.78 6.72,1.07 3.52,1.65 0.31,2.23 0.04,2.24 -0.22,2.24 -0.49,2.18 -0.75,2.13 -1.00,2.00 -1.24,1.88 -1.45,1.71 -1.66,1.53 -1.81,1.31 -1.97,1.09 -2.08,0.83 -2.18,0.58 -2.22,0.31 -2.26,0.04 -2.23,-0.22 -2.20,-0.49 -2.11,-0.75 -2.02,-1.00 -1.87,-1.23 -1.72,-1.46 -1.52,-1.64 -1.32,-1.83 -1.08,-1.96 -0.84,-2.09 -0.58,-2.16 -0.31,-2.23 -0.31,-2.23 L -0.31,-2.23 Z"></path></g><g transform="translate(331.59999084472656 127.59999084472656) rotate(0 -4 18.000015258789062)" stroke="none"><path fill="#1e1e1e" d="M -0.28,1.73 Q -0.28,1.73 -1.59,1.56 -2.89,1.39 -3.72,4.08 -4.56,6.76 -4.83,9.17 -5.10,11.58 -5.48,14.52 -5.87,17.46 -6.05,20.25 -6.22,23.05 -6.32,25.40 -6.41,27.74 -6.46,29.88 -6.51,32.03 -6.43,33.99 -6.34,35.94 -6.39,36.21 -6.43,36.47 -6.56,36.70 -6.69,36.94 -6.88,37.12 -7.08,37.30 -7.32,37.41 -7.56,37.52 -7.83,37.55 -8.09,37.57 -8.35,37.51 -8.61,37.45 -8.84,37.32 -9.06,37.18 -9.23,36.97 -9.40,36.77 -9.50,36.52 -9.60,36.27 -9.61,36.01 -9.62,35.74 -9.55,35.48 -9.48,35.23 -9.33,35.01 -9.17,34.79 -8.96,34.63 -8.75,34.47 -8.50,34.39 -8.24,34.31 -7.98,34.31 -7.71,34.31 -7.46,34.40 -7.21,34.48 -7.00,34.65 -6.79,34.81 -6.64,35.03 -6.49,35.25 -6.42,35.51 -6.35,35.77 -6.37,36.03 -6.38,36.30 -6.49,36.54 -6.59,36.79 -6.76,36.99 -6.93,37.19 -7.16,37.33 -7.39,37.46 -7.65,37.52 -7.91,37.57 -8.18,37.54 -8.44,37.51 -8.68,37.40 -8.92,37.29 -9.11,37.10 -9.31,36.92 -9.43,36.68 -9.55,36.44 -9.59,36.18 -9.63,35.92 -9.63,35.92 -9.63,35.92 -9.52,33.96 -9.41,31.99 -9.41,29.83 -9.41,27.67 -9.39,25.29 -9.37,22.91 -9.28,20.00 -9.19,17.10 -8.94,14.19 -8.69,11.29 -8.56,8.61 -8.43,5.93 -7.91,3.34 -7.40,0.75 -6.38,-0.38 -5.36,-1.52 -3.99,-1.92 -2.62,-2.31 -1.16,-2.02 0.28,-1.73 0.49,-1.67 0.69,-1.61 0.88,-1.51 1.06,-1.40 1.21,-1.25 1.37,-1.10 1.48,-0.92 1.59,-0.74 1.66,-0.54 1.72,-0.34 1.74,-0.13 1.76,0.07 1.72,0.28 1.69,0.49 1.60,0.69 1.52,0.88 1.39,1.05 1.26,1.22 1.10,1.36 0.93,1.49 0.74,1.58 0.55,1.67 0.34,1.71 0.13,1.75 -0.07,1.74 -0.29,1.73 -0.28,1.73 L -0.28,1.73 Z"></path></g><g transform="translate(316.3999786376953 157.1999969482422) rotate(0 8.000030517578125 -2)" stroke="none"><path fill="#1e1e1e" d="M -0.99,1.98 Q -0.99,1.98 -1.94,1.58 -2.88,1.17 -4.52,0.34 -6.16,-0.48 -6.82,-0.74 -7.48,-0.99 -7.77,-1.14 -8.06,-1.29 -8.31,-1.50 -8.56,-1.71 -8.75,-1.98 -8.94,-2.25 -9.06,-2.55 -9.18,-2.86 -9.23,-3.18 -9.27,-3.51 -9.24,-3.83 -9.20,-4.16 -9.09,-4.47 -8.98,-4.77 -8.80,-5.05 -8.61,-5.32 -8.37,-5.54 -8.13,-5.76 -7.84,-5.92 -7.55,-6.07 -7.24,-6.16 -6.92,-6.24 -6.59,-6.24 -6.26,-6.25 -5.94,-6.17 -5.63,-6.10 -4.39,-5.74 -3.16,-5.38 -0.70,-5.12 1.76,-4.86 5.15,-4.68 8.55,-4.51 12.13,-4.16 15.71,-3.81 18.92,-3.41 22.13,-3.01 22.44,-2.91 22.75,-2.80 23.01,-2.61 23.28,-2.41 23.46,-2.14 23.65,-1.87 23.74,-1.56 23.83,-1.25 23.81,-0.92 23.80,-0.59 23.68,-0.29 23.56,0.01 23.35,0.26 23.14,0.51 22.87,0.68 22.59,0.86 22.27,0.93 21.95,1.00 21.62,0.97 21.30,0.94 21.00,0.80 20.70,0.67 20.46,0.45 20.22,0.22 20.06,-0.05 19.91,-0.34 19.85,-0.66 19.80,-0.99 19.84,-1.31 19.89,-1.63 20.05,-1.92 20.20,-2.22 20.43,-2.44 20.67,-2.67 20.96,-2.81 21.26,-2.95 21.58,-2.99 21.91,-3.03 22.23,-2.96 22.55,-2.89 22.83,-2.73 23.11,-2.56 23.33,-2.31 23.54,-2.07 23.67,-1.76 23.79,-1.46 23.81,-1.13 23.83,-0.81 23.75,-0.49 23.66,-0.17 23.48,0.09 23.30,0.36 23.04,0.56 22.78,0.76 22.48,0.87 22.17,0.98 21.84,0.98 21.51,0.98 21.51,0.98 21.51,0.98 18.48,0.42 15.45,-0.13 11.97,-0.28 8.49,-0.43 5.02,-0.35 1.56,-0.27 -1.30,-0.24 -4.16,-0.21 -5.82,-0.60 -7.48,-0.99 -7.77,-1.14 -8.06,-1.29 -8.31,-1.50 -8.56,-1.71 -8.75,-1.98 -8.94,-2.25 -9.06,-2.55 -9.18,-2.86 -9.23,-3.18 -9.27,-3.51 -9.24,-3.83 -9.20,-4.16 -9.09,-4.47 -8.98,-4.77 -8.80,-5.05 -8.61,-5.32 -8.37,-5.54 -8.13,-5.76 -7.84,-5.92 -7.55,-6.07 -7.24,-6.16 -6.92,-6.24 -6.59,-6.24 -6.26,-6.25 -5.94,-6.17 -5.63,-6.10 -4.45,-5.40 -3.28,-4.69 -2.04,-3.85 -0.79,-3.01 0.10,-2.50 0.99,-1.98 1.21,-1.83 1.44,-1.69 1.62,-1.49 1.80,-1.29 1.93,-1.06 2.06,-0.82 2.13,-0.56 2.19,-0.31 2.20,-0.04 2.21,0.22 2.15,0.48 2.09,0.74 1.97,0.98 1.85,1.22 1.67,1.42 1.50,1.63 1.28,1.78 1.07,1.94 0.82,2.04 0.57,2.14 0.30,2.18 0.04,2.22 -0.22,2.19 -0.48,2.16 -0.74,2.07 -0.99,1.98 -0.99,1.98 L -0.99,1.98 Z"></path></g><g transform="translate(346.00001525878906 165.1999969482422) rotate(0 -8.399993896484375 6.399993896484375)" stroke="none"><path fill="#1e1e1e" d="M 0.96,1.92 Q 0.96,1.92 -0.91,2.76 -2.80,3.59 -4.80,4.39 -6.81,5.18 -8.17,6.15 -9.53,7.11 -10.74,8.36 -11.95,9.61 -13.47,11.60 -14.99,13.60 -15.22,13.80 -15.46,14.00 -15.74,14.11 -16.03,14.22 -16.33,14.24 -16.64,14.26 -16.93,14.18 -17.23,14.10 -17.49,13.92 -17.74,13.75 -17.93,13.51 -18.11,13.27 -18.21,12.97 -18.31,12.68 -18.31,12.38 -18.31,12.07 -18.21,11.78 -18.12,11.49 -17.93,11.24 -17.75,11.00 -17.49,10.83 -17.24,10.65 -16.94,10.57 -16.65,10.49 -16.34,10.50 -16.03,10.52 -15.75,10.63 -15.46,10.74 -15.23,10.94 -14.99,11.14 -14.84,11.40 -14.68,11.67 -14.61,11.97 -14.54,12.27 -14.58,12.57 -14.61,12.88 -14.74,13.16 -14.86,13.43 -15.08,13.66 -15.29,13.88 -15.56,14.03 -15.83,14.17 -16.13,14.22 -16.43,14.27 -16.74,14.22 -17.04,14.17 -17.31,14.03 -17.58,13.89 -17.79,13.66 -18.01,13.44 -18.14,13.16 -18.27,12.88 -18.30,12.58 -18.33,12.27 -18.27,11.97 -18.20,11.67 -18.04,11.41 -17.89,11.15 -17.89,11.15 -17.89,11.15 -16.19,9.14 -14.50,7.14 -13.05,5.65 -11.59,4.17 -9.93,3.03 -8.27,1.89 -6.41,0.99 -4.55,0.08 -2.76,-0.92 -0.96,-1.92 -0.71,-2.00 -0.47,-2.09 -0.21,-2.12 0.04,-2.14 0.29,-2.11 0.55,-2.07 0.79,-1.98 1.03,-1.88 1.24,-1.73 1.45,-1.58 1.62,-1.38 1.79,-1.18 1.90,-0.95 2.02,-0.72 2.08,-0.46 2.13,-0.21 2.13,0.04 2.12,0.30 2.06,0.55 1.99,0.80 1.86,1.02 1.74,1.25 1.56,1.44 1.39,1.63 1.17,1.77 0.96,1.92 0.96,1.92 L 0.96,1.92 Z"></path></g><g transform="translate(327.59999084472656 167.59999084472656) rotate(0 9.20001220703125 5.600006103515625)" stroke="none"><path fill="#1e1e1e" d="M 1.11,-2.22 Q 1.11,-2.22 2.89,-1.18 4.67,-0.14 5.79,0.47 6.92,1.10 8.19,2.15 9.46,3.20 10.45,4.08 11.44,4.95 12.96,5.80 14.48,6.65 16.55,7.57 18.62,8.49 19.01,8.68 19.39,8.87 19.69,9.18 19.99,9.48 20.18,9.87 20.37,10.25 20.43,10.68 20.48,11.11 20.40,11.53 20.31,11.95 20.10,12.32 19.89,12.69 19.57,12.98 19.24,13.26 18.85,13.43 18.45,13.60 18.02,13.63 17.60,13.66 17.18,13.55 16.76,13.45 16.40,13.22 16.04,12.98 15.78,12.65 15.51,12.31 15.36,11.91 15.22,11.50 15.21,11.07 15.20,10.64 15.33,10.23 15.46,9.82 15.71,9.48 15.96,9.13 16.31,8.88 16.66,8.63 17.07,8.51 17.49,8.39 17.92,8.40 18.34,8.41 18.75,8.56 19.15,8.72 19.48,8.99 19.81,9.26 20.04,9.62 20.27,9.98 20.37,10.40 20.47,10.82 20.44,11.25 20.40,11.67 20.23,12.07 20.06,12.46 19.77,12.78 19.48,13.10 19.10,13.31 18.73,13.51 18.31,13.59 17.88,13.67 17.46,13.61 17.03,13.55 17.03,13.55 17.03,13.55 13.57,11.75 10.10,9.96 9.14,9.22 8.18,8.48 7.30,7.62 6.42,6.77 5.45,5.91 4.48,5.05 3.58,4.44 2.68,3.82 0.78,3.02 -1.11,2.22 -1.36,2.05 -1.61,1.89 -1.81,1.67 -2.01,1.45 -2.16,1.19 -2.30,0.92 -2.38,0.63 -2.46,0.34 -2.46,0.04 -2.47,-0.25 -2.40,-0.54 -2.34,-0.83 -2.20,-1.10 -2.07,-1.37 -1.87,-1.60 -1.68,-1.82 -1.44,-2.00 -1.19,-2.17 -0.92,-2.29 -0.64,-2.40 -0.34,-2.44 -0.04,-2.48 0.24,-2.45 0.54,-2.42 0.83,-2.32 1.11,-2.22 1.11,-2.22 L 1.11,-2.22 Z"></path></g><g transform="translate(336.3999786376953 157.99998474121094) rotate(0 1.20001220703125 10.400009155273438)" stroke="none"><path fill="#1e1e1e" d="M 2.35,0 Q 2.35,0 2.21,2.29 2.07,4.58 2.49,5.98 2.90,7.39 3.10,9.41 3.29,11.44 3.62,12.81 3.95,14.18 4.17,15.35 4.38,16.52 4.51,18.49 4.65,20.46 4.59,20.82 4.54,21.18 4.38,21.51 4.22,21.84 3.96,22.09 3.70,22.35 3.37,22.51 3.04,22.67 2.68,22.72 2.32,22.77 1.96,22.70 1.60,22.63 1.28,22.44 0.97,22.26 0.72,21.99 0.48,21.72 0.34,21.38 0.20,21.05 0.17,20.68 0.14,20.32 0.23,19.96 0.32,19.61 0.52,19.30 0.72,19.00 1.00,18.77 1.29,18.54 1.63,18.42 1.97,18.29 2.34,18.28 2.70,18.28 3.05,18.38 3.40,18.49 3.70,18.71 3.99,18.92 4.20,19.22 4.42,19.52 4.52,19.87 4.63,20.22 4.61,20.58 4.60,20.95 4.48,21.29 4.35,21.63 4.12,21.91 3.89,22.20 3.58,22.39 3.27,22.59 2.92,22.67 2.56,22.76 2.20,22.73 1.83,22.70 1.50,22.55 1.16,22.41 0.89,22.16 0.62,21.92 0.44,21.60 0.27,21.28 0.20,20.92 0.13,20.56 0.13,20.56 0.13,20.56 0.02,17.80 -0.08,15.03 -0.37,13.45 -0.66,11.86 -0.86,10.17 -1.06,8.47 -1.57,6.54 -2.07,4.61 -2.21,2.30 -2.35,0 -2.31,-0.28 -2.28,-0.56 -2.18,-0.82 -2.08,-1.09 -1.92,-1.32 -1.76,-1.56 -1.54,-1.74 -1.33,-1.93 -1.08,-2.06 -0.83,-2.20 -0.55,-2.26 -0.28,-2.33 0.00,-2.33 0.28,-2.33 0.55,-2.26 0.83,-2.20 1.08,-2.06 1.33,-1.93 1.54,-1.74 1.76,-1.56 1.92,-1.32 2.08,-1.09 2.18,-0.82 2.28,-0.56 2.31,-0.28 2.35,0.00 2.35,0.00 L 2.35,0 Z"></path></g><g transform="translate(329.2000274658203 171.59999084472656) rotate(0 11.5999755859375 -1.5999908447265625)" stroke="none"><path fill="#1e1e1e" d="M -0.56,-2.07 Q -0.56,-2.07 1.99,-2.66 4.55,-3.24 7.63,-3.48 10.71,-3.72 13.14,-3.79 15.58,-3.85 17.06,-3.98 18.55,-4.11 20.34,-4.48 22.14,-4.84 22.44,-4.89 22.74,-4.95 23.05,-4.90 23.35,-4.85 23.63,-4.71 23.90,-4.57 24.11,-4.35 24.32,-4.12 24.46,-3.85 24.59,-3.57 24.62,-3.26 24.66,-2.96 24.60,-2.66 24.53,-2.36 24.38,-2.09 24.22,-1.83 23.99,-1.62 23.75,-1.42 23.47,-1.31 23.18,-1.19 22.88,-1.17 22.57,-1.15 22.27,-1.23 21.98,-1.31 21.72,-1.48 21.46,-1.65 21.28,-1.90 21.09,-2.14 20.99,-2.43 20.89,-2.72 20.88,-3.03 20.88,-3.34 20.98,-3.63 21.07,-3.92 21.26,-4.17 21.44,-4.41 21.69,-4.59 21.95,-4.76 22.24,-4.85 22.54,-4.93 22.85,-4.92 23.15,-4.90 23.44,-4.79 23.73,-4.68 23.96,-4.48 24.20,-4.29 24.36,-4.02 24.52,-3.76 24.59,-3.46 24.66,-3.16 24.63,-2.86 24.60,-2.55 24.47,-2.27 24.34,-1.99 24.13,-1.77 23.92,-1.54 23.65,-1.39 23.38,-1.25 23.38,-1.25 23.38,-1.25 21.03,-0.89 18.68,-0.52 17.21,-0.55 15.75,-0.57 13.41,-0.39 11.06,-0.20 8.31,0.13 5.56,0.48 3.06,1.28 0.56,2.07 0.30,2.11 0.05,2.15 -0.20,2.12 -0.46,2.10 -0.70,2.01 -0.95,1.93 -1.17,1.78 -1.38,1.64 -1.56,1.45 -1.74,1.26 -1.86,1.04 -1.99,0.81 -2.06,0.56 -2.13,0.31 -2.13,0.05 -2.14,-0.20 -2.08,-0.46 -2.03,-0.71 -1.91,-0.94 -1.80,-1.18 -1.63,-1.37 -1.46,-1.57 -1.25,-1.73 -1.04,-1.88 -0.80,-1.98 -0.56,-2.07 -0.56,-2.07 L -0.56,-2.07 Z"></path></g><g transform="translate(38.79998779296875 159.59999084472656) rotate(0 -14.399993896484375 20)" stroke="none"><path fill="#1e1e1e" d="M 1.75,0.52 Q 1.75,0.52 1.00,2.80 0.24,5.09 -1.07,7.56 -2.39,10.04 -4.34,13.14 -6.30,16.25 -8.52,19.62 -10.74,23.00 -13.33,26.31 -15.92,29.62 -18.19,32.19 -20.45,34.76 -22.14,36.33 -23.83,37.91 -25.93,39.59 -28.03,41.27 -28.26,41.31 -28.49,41.35 -28.72,41.32 -28.96,41.28 -29.17,41.18 -29.38,41.07 -29.54,40.90 -29.71,40.73 -29.81,40.52 -29.91,40.30 -29.94,40.07 -29.97,39.84 -29.92,39.60 -29.87,39.37 -29.75,39.17 -29.63,38.97 -29.46,38.81 -29.28,38.66 -29.06,38.57 -28.84,38.47 -28.61,38.46 -28.37,38.44 -28.14,38.50 -27.92,38.56 -27.72,38.69 -27.52,38.82 -27.38,39.01 -27.23,39.19 -27.15,39.42 -27.07,39.64 -27.07,39.87 -27.07,40.11 -27.14,40.34 -27.21,40.56 -27.35,40.75 -27.49,40.94 -27.69,41.07 -27.88,41.21 -28.11,41.28 -28.33,41.34 -28.57,41.33 -28.80,41.32 -29.02,41.24 -29.24,41.15 -29.43,41.00 -29.61,40.85 -29.73,40.65 -29.86,40.45 -29.91,40.22 -29.97,39.99 -29.94,39.76 -29.92,39.52 -29.82,39.31 -29.73,39.09 -29.57,38.92 -29.41,38.75 -29.20,38.63 -28.99,38.52 -28.99,38.52 -28.99,38.52 -27.35,37.22 -25.71,35.92 -24.13,34.42 -22.55,32.92 -20.35,30.40 -18.16,27.88 -15.68,24.65 -13.19,21.41 -11.04,18.03 -8.88,14.66 -7.05,11.62 -5.22,8.58 -4.11,6.34 -3.00,4.10 -2.38,1.79 -1.75,-0.52 -1.67,-0.73 -1.58,-0.93 -1.44,-1.10 -1.31,-1.28 -1.13,-1.42 -0.96,-1.56 -0.76,-1.65 -0.56,-1.74 -0.34,-1.78 -0.13,-1.83 0.09,-1.82 0.31,-1.80 0.52,-1.74 0.73,-1.68 0.92,-1.57 1.11,-1.45 1.27,-1.30 1.43,-1.14 1.55,-0.95 1.66,-0.77 1.73,-0.56 1.80,-0.35 1.81,-0.12 1.83,0.09 1.79,0.30 1.75,0.52 1.75,0.52 L 1.75,0.52 Z"></path></g><g transform="translate(13.199996948242188 161.1999969482422) rotate(0 18.79999542236328 18.800003051757812)" stroke="none"><path fill="#1e1e1e" d="M 0.47,-1.75 Q 0.47,-1.75 2.99,-1.00 5.50,-0.24 8.55,1.30 11.60,2.85 14.82,5.67 18.04,8.49 21.01,12.03 23.99,15.57 26.86,19.62 29.73,23.67 32.07,26.74 34.41,29.80 35.65,31.60 36.89,33.40 37.76,34.83 38.63,36.25 38.71,36.49 38.79,36.72 38.79,36.97 38.79,37.22 38.71,37.46 38.63,37.70 38.48,37.90 38.33,38.10 38.12,38.24 37.92,38.38 37.68,38.45 37.44,38.51 37.19,38.50 36.94,38.49 36.71,38.40 36.47,38.30 36.28,38.14 36.09,37.98 35.96,37.77 35.83,37.55 35.78,37.31 35.72,37.07 35.75,36.82 35.78,36.57 35.88,36.34 35.99,36.12 36.16,35.93 36.33,35.75 36.55,35.63 36.77,35.52 37.01,35.48 37.26,35.43 37.51,35.47 37.75,35.51 37.98,35.63 38.20,35.75 38.37,35.93 38.54,36.11 38.65,36.33 38.75,36.56 38.78,36.81 38.81,37.06 38.75,37.30 38.70,37.55 38.57,37.76 38.45,37.97 38.26,38.14 38.07,38.30 37.83,38.39 37.60,38.49 37.35,38.50 37.10,38.51 36.86,38.45 36.62,38.38 36.41,38.24 36.21,38.10 36.06,37.90 35.90,37.71 35.90,37.71 35.90,37.71 35.28,36.34 34.65,34.96 33.43,33.23 32.20,31.49 29.82,28.40 27.43,25.32 24.60,21.38 21.77,17.45 18.91,14.11 16.05,10.77 13.11,8.22 10.17,5.67 7.39,4.34 4.61,3.00 2.06,2.38 -0.47,1.75 -0.68,1.67 -0.88,1.59 -1.06,1.46 -1.24,1.33 -1.38,1.16 -1.52,0.99 -1.62,0.80 -1.71,0.60 -1.76,0.38 -1.81,0.17 -1.80,-0.04 -1.80,-0.26 -1.74,-0.47 -1.68,-0.68 -1.58,-0.87 -1.47,-1.07 -1.32,-1.23 -1.17,-1.39 -0.99,-1.51 -0.80,-1.63 -0.59,-1.70 -0.39,-1.77 -0.17,-1.80 0.04,-1.82 0.26,-1.79 0.47,-1.75 0.47,-1.75 L 0.47,-1.75 Z"></path></g></svg>