<svg version="1.1" xmlns="http://www.w3.org/2000/svg" viewBox="0 0 769.5979610589146 394.40000915527344" width="769.5979610589146" height="394.40000915527344" filter="invert(93%) hue-rotate(180deg)" class="excalidraw-svg"><!-- svg-source:excalidraw --><metadata></metadata><defs><style class="style-fonts">
      </style></defs><rect x="0" y="0" width="769.5979610589146" height="394.40000915527344" fill="#ffffff"></rect><g stroke-linecap="round" transform="translate(25.19793664485212 24.399993896484375) rotate(0 92.80001831054688 30.79999542236328)"><path d="M87.68 0.25 C100.36 -0.5, 115.8 1.11, 128.24 2.81 C140.68 4.5, 153.48 6.98, 162.33 10.41 C171.18 13.83, 177.75 19.01, 181.35 23.38 C184.96 27.75, 186.31 32.34, 183.99 36.61 C181.67 40.88, 175.27 45.43, 167.43 49.01 C159.59 52.6, 148.56 56.03, 136.95 58.13 C125.33 60.23, 111.03 61.37, 97.72 61.63 C84.42 61.9, 69.48 61.61, 57.11 59.73 C44.75 57.84, 32.33 53.78, 23.55 50.32 C14.76 46.86, 8.13 43.09, 4.41 38.97 C0.68 34.84, -1.11 30.08, 1.18 25.58 C3.48 21.09, 10.22 15.52, 18.16 12.01 C26.09 8.49, 35.73 6.62, 48.79 4.49 C61.85 2.37, 87.1 -0.28, 96.53 -0.76 C105.96 -1.25, 105.49 1.12, 105.39 1.6 M100.85 -0.2 C113.35 -0.14, 128.62 3.61, 140.42 5.9 C152.23 8.2, 164.16 10.17, 171.69 13.59 C179.22 17, 184.13 21.67, 185.61 26.38 C187.08 31.09, 185.08 37.7, 180.54 41.85 C176.01 46, 167.74 48.44, 158.39 51.29 C149.03 54.14, 137.15 57.38, 124.43 58.97 C111.7 60.55, 95.55 61.07, 82.05 60.79 C68.56 60.5, 54.7 59.6, 43.45 57.28 C32.19 54.96, 21.85 50.51, 14.51 46.88 C7.17 43.24, 1.16 39.91, -0.62 35.44 C-2.39 30.98, -0.56 24.27, 3.84 20.1 C8.24 15.93, 16.42 13.25, 25.76 10.41 C35.1 7.58, 47.23 4.79, 59.87 3.09 C72.51 1.39, 94.63 0.49, 101.61 0.2 C108.58 -0.1, 101.84 0.83, 101.73 1.31" stroke="#1e1e1e" stroke-width="2" fill="none"></path></g><g stroke-linecap="round" transform="translate(11.59790002375837 354.80003356933594) rotate(0 100 14.79998779296875)"><path d="M91.47 -0.34 C104.98 -0.76, 120.35 0.22, 133.9 1.13 C147.46 2.04, 162.77 3.64, 172.81 5.11 C182.86 6.58, 189.87 7.86, 194.17 9.95 C198.46 12.04, 200.23 15.56, 198.57 17.66 C196.91 19.76, 191.96 21, 184.2 22.57 C176.44 24.13, 164.52 25.77, 152.01 27.07 C139.49 28.37, 123.68 30.19, 109.11 30.35 C94.55 30.5, 78.14 28.95, 64.6 27.98 C51.07 27.01, 37.99 26.03, 27.9 24.53 C17.8 23.03, 8.64 20.9, 4.04 18.97 C-0.56 17.05, -1.75 15.11, 0.28 13 C2.3 10.88, 8.31 8, 16.2 6.28 C24.08 4.56, 32.48 3.81, 47.59 2.68 C62.7 1.54, 94.26 -0.34, 106.85 -0.53 C119.45 -0.73, 123.33 1, 123.17 1.48 M83.18 -0.03 C96.42 -0.57, 113.05 -0.37, 126.96 0.5 C140.88 1.37, 155.99 4.02, 166.66 5.19 C177.34 6.37, 185.53 5.96, 191.02 7.57 C196.51 9.17, 200.34 12.32, 199.59 14.83 C198.83 17.33, 193.43 20.53, 186.47 22.61 C179.52 24.68, 169.4 25.92, 157.84 27.27 C146.28 28.62, 131.41 30.48, 117.12 30.7 C102.83 30.91, 85.95 29.19, 72.09 28.55 C58.22 27.92, 44.49 28.12, 33.93 26.91 C23.38 25.69, 14.46 23.58, 8.74 21.27 C3.03 18.96, -0.73 15.53, -0.35 13.04 C0.03 10.54, 3.81 7.95, 11.02 6.3 C18.22 4.65, 31.11 4.12, 42.86 3.16 C54.61 2.2, 74.59 0.98, 81.5 0.52 C88.41 0.05, 84.02 0.13, 84.33 0.38" stroke="#1e1e1e" stroke-width="2" fill="none"></path></g><g stroke-linecap="round"><g transform="translate(212.39794885188337 59.600006103515625) rotate(0 -101.20001220703125 153.19998931884766)"><path d="M0.41 -0.5 C-33.2 50.73, -167.88 255.31, -201.78 306.29 M-0.83 -1.81 C-34.54 49.71, -168.53 256.44, -202.4 307.77" stroke="#1e1e1e" stroke-width="2" fill="none"></path></g></g><mask></mask><g stroke-linecap="round"><g transform="translate(23.59790002375837 53.19999694824219) rotate(0 93.20001220703125 156.80001831054688)"><path d="M0.43 -0.34 C31.52 52.1, 154.54 262.28, 185.37 314.59 M-0.8 -1.56 C30.75 50.56, 156.1 260.26, 187.54 312.99" stroke="#1e1e1e" stroke-width="2" fill="none"></path></g></g><mask></mask><g stroke-linecap="round"><g transform="translate(392.3978878167271 71.60000610351562) rotate(0 2.4000244140625 156.00000762939453)"><path d="M-1.09 0.62 C-0.3 52.85, 3.99 260.62, 4.91 312.57 M0.55 -0.1 C1.17 51.84, 3.53 258.43, 4.02 310.75" stroke="#1e1e1e" stroke-width="2" fill="none"></path></g></g><mask></mask><g stroke-linecap="round"><g transform="translate(294.7979122307896 225.1999969482422) rotate(0 109.60003662109375 1.1999969482421875)"><path d="M-1.05 -0.83 C35.52 -0.13, 183.57 3.13, 220.2 3.48 M0.6 1.35 C37.03 1.8, 183.59 1.81, 219.78 1.93" stroke="#1e1e1e" stroke-width="2" fill="none"></path></g></g><mask></mask><g stroke-linecap="round" transform="translate(597.9979854729771 10) rotate(0 80.39996337890625 80.4000015258789)"><path d="M52.76 5.35 C62.23 0.7, 75.54 0.11, 86.57 0.72 C97.6 1.34, 109.51 3.82, 118.96 9.04 C128.41 14.26, 136.8 23.24, 143.28 32.05 C149.77 40.86, 155.11 51.36, 157.87 61.9 C160.62 72.44, 161.55 84.8, 159.81 95.26 C158.08 105.73, 153.53 115.72, 147.47 124.69 C141.41 133.65, 132.98 143, 123.48 149.06 C113.97 155.12, 101.48 159.69, 90.44 161.03 C79.4 162.38, 67.62 160.2, 57.22 157.13 C46.83 154.07, 36.17 149.67, 28.05 142.63 C19.94 135.58, 13.07 124.75, 8.53 114.87 C3.99 104.99, 1.24 94.1, 0.82 83.32 C0.41 72.55, 2.17 60.43, 6.03 50.23 C9.9 40.02, 15.56 30, 24.03 22.11 C32.5 14.21, 50.53 5.9, 56.85 2.86 C63.18 -0.17, 61.64 2.55, 61.99 3.89 M49.66 5.94 C58.89 0.71, 71.33 -1.71, 82.29 -1.16 C93.25 -0.62, 105.38 4.15, 115.4 9.2 C125.42 14.26, 135.49 20.97, 142.4 29.19 C149.31 37.4, 153.93 48.1, 156.87 58.47 C159.81 68.85, 161.45 80.51, 160.07 91.46 C158.69 102.41, 154.58 114.77, 148.61 124.16 C142.64 133.55, 133.06 142.02, 124.24 147.77 C115.41 153.52, 106.27 157.02, 95.67 158.65 C85.07 160.29, 71.39 159.99, 60.63 157.59 C49.87 155.18, 39.7 150.72, 31.11 144.2 C22.51 137.69, 14.3 128.13, 9.08 118.5 C3.86 108.87, 0.33 97.57, -0.21 86.44 C-0.75 75.32, 1.95 62.16, 5.84 51.76 C9.72 41.35, 15.64 31.44, 23.08 24.01 C30.53 16.57, 45.75 10.14, 50.5 7.15 C55.24 4.16, 51.31 4.91, 51.57 6.08" stroke="#1e1e1e" stroke-width="2" fill="none"></path></g><g stroke-linecap="round" transform="translate(596.3978878167271 171.59999084472656) rotate(0 81.60003662109375 82.80001831054688)"><path d="M59.94 2.26 C69.79 -1.92, 82.78 -1.64, 93.55 0.14 C104.32 1.93, 115.25 6.81, 124.54 12.98 C133.83 19.14, 143.13 27.92, 149.3 37.15 C155.46 46.38, 159.67 57.16, 161.53 68.35 C163.4 79.54, 163.12 93.23, 160.49 104.29 C157.86 115.35, 152.72 126.02, 145.76 134.72 C138.8 143.42, 128.59 151.35, 118.73 156.47 C108.87 161.59, 97.54 164.64, 86.58 165.42 C75.63 166.2, 63.49 165.01, 52.99 161.17 C42.49 157.32, 31.34 150.46, 23.59 142.35 C15.84 134.24, 10.45 123.14, 6.48 112.52 C2.52 101.89, -0.56 89.67, -0.19 78.6 C0.17 67.53, 3.73 56.01, 8.68 46.09 C13.62 36.17, 20.32 26.39, 29.46 19.08 C38.61 11.76, 57 5.07, 63.56 2.22 C70.13 -0.63, 68.45 0.75, 68.85 1.99 M88.32 -0.73 C98.83 -1.23, 113.19 4.3, 122.8 9.8 C132.4 15.3, 139.63 23.13, 145.98 32.28 C152.32 41.43, 158.22 53.47, 160.87 64.69 C163.53 75.91, 163.91 88.66, 161.91 99.6 C159.92 110.55, 155.21 121.49, 148.9 130.36 C142.6 139.23, 133.85 146.97, 124.08 152.81 C114.31 158.65, 101.59 163.93, 90.27 165.41 C78.94 166.89, 66.55 165.14, 56.15 161.69 C45.75 158.24, 35.88 152.38, 27.87 144.71 C19.86 137.05, 12.79 126.21, 8.07 115.72 C3.35 105.24, -0.39 92.8, -0.45 81.82 C-0.51 70.84, 3.15 59.88, 7.7 49.83 C12.25 39.78, 18.89 28.95, 26.87 21.53 C34.84 14.1, 45.1 8.96, 55.56 5.29 C66.03 1.62, 83.78 0.07, 89.64 -0.49 C95.49 -1.04, 90.69 0.25, 90.68 1.96" stroke="#1e1e1e" stroke-width="2" fill="none"></path></g></svg>