<svg version="1.1" xmlns="http://www.w3.org/2000/svg" viewBox="0 0 208.79998779296875 179.2000274658203" width="208.79998779296875" height="179.2000274658203" class="excalidraw-svg"><!-- svg-source:excalidraw --><metadata></metadata><defs><style class="style-fonts">
      </style></defs><rect x="0" y="0" width="208.79998779296875" height="179.2000274658203" fill="#ffffff"></rect><g transform="translate(11.641734849128454 64.896568055216) rotate(0 -0.8208674245642271 11.528279186888483)" stroke="none"><path fill="#1e1e1e" d="M 5.17,0.32 Q 5.17,0.32 5.03,2.84 4.90,5.37 4.76,9.40 4.62,13.42 4.42,16.28 4.23,19.14 4.18,21.03 4.13,22.92 3.96,23.84 3.79,24.76 3.34,25.57 2.88,26.39 2.19,27.02 1.50,27.65 0.65,28.02 -0.20,28.40 -1.13,28.48 -2.06,28.56 -2.97,28.34 -3.87,28.13 -4.66,27.63 -5.46,27.13 -6.05,26.41 -6.64,25.68 -6.97,24.81 -7.29,23.93 -7.33,23.00 -7.36,22.07 -7.09,21.17 -6.82,20.28 -6.28,19.52 -5.74,18.75 -4.99,18.20 -4.23,17.65 -3.34,17.37 -2.45,17.09 -1.52,17.11 -0.59,17.13 0.28,17.44 1.16,17.76 1.90,18.34 2.63,18.92 3.14,19.70 3.64,20.49 3.88,21.39 4.11,22.30 4.04,23.23 3.97,24.16 3.61,25.02 3.24,25.88 2.63,26.58 2.01,27.28 1.20,27.74 0.39,28.21 -0.52,28.39 -1.43,28.58 -2.36,28.46 -3.29,28.34 -4.13,27.93 -4.97,27.52 -5.63,26.86 -6.30,26.21 -6.72,25.37 -7.14,24.54 -7.27,23.61 -7.40,22.69 -7.40,22.69 -7.40,22.69 -7.12,18.85 -6.83,15.01 -6.30,12.12 -5.77,9.24 -5.65,6.98 -5.53,4.72 -5.35,2.20 -5.17,-0.32 -5.06,-0.93 -4.94,-1.55 -4.68,-2.12 -4.43,-2.68 -4.04,-3.18 -3.65,-3.67 -3.16,-4.05 -2.67,-4.44 -2.10,-4.69 -1.53,-4.95 -0.91,-5.06 -0.30,-5.17 0.32,-5.13 0.94,-5.09 1.54,-4.91 2.13,-4.72 2.67,-4.39 3.20,-4.07 3.64,-3.63 4.08,-3.18 4.40,-2.65 4.73,-2.11 4.91,-1.52 5.10,-0.92 5.13,-0.30 5.17,0.32 5.17,0.32 L 5.17,0.32 Z"></path></g><g transform="translate(29.700870379019335 68.73933127440796) rotate(0 48.431298085088514 -14.27311230145861)" stroke="none"><path fill="#1e1e1e" d="M -4.15,-2.19 Q -4.15,-2.19 -2.73,-4.88 -1.31,-7.57 0.81,-10.23 2.93,-12.89 5.69,-15.03 8.46,-17.16 10.88,-18.69 13.29,-20.22 16.03,-21.57 18.77,-22.91 22.03,-23.98 25.28,-25.05 27.95,-25.96 30.62,-26.88 33.57,-27.74 36.52,-28.61 39.43,-29.33 42.33,-30.05 45.28,-30.56 48.22,-31.06 50.87,-31.45 53.52,-31.85 56.24,-32.18 58.96,-32.51 61.33,-32.72 63.70,-32.93 65.99,-33.04 68.29,-33.16 71.86,-33.55 75.43,-33.94 79.26,-34.09 83.08,-34.24 85.81,-34.35 88.53,-34.47 90.85,-34.09 93.16,-33.71 95.66,-33.05 98.16,-32.38 99.07,-31.98 99.98,-31.57 100.72,-30.90 101.45,-30.22 101.93,-29.35 102.41,-28.48 102.59,-27.49 102.77,-26.51 102.62,-25.52 102.48,-24.54 102.02,-23.65 101.57,-22.76 100.86,-22.06 100.14,-21.36 99.25,-20.93 98.35,-20.50 97.36,-20.37 96.37,-20.25 95.39,-20.45 94.41,-20.65 93.55,-21.15 92.69,-21.65 92.03,-22.40 91.37,-23.15 90.99,-24.07 90.60,-24.99 90.53,-25.98 90.46,-26.98 90.71,-27.95 90.96,-28.91 91.51,-29.75 92.06,-30.58 92.84,-31.20 93.63,-31.81 94.57,-32.15 95.51,-32.48 96.50,-32.50 97.50,-32.51 98.45,-32.21 99.40,-31.91 100.21,-31.31 101.01,-30.72 101.58,-29.91 102.16,-29.09 102.44,-28.13 102.72,-27.18 102.68,-26.18 102.65,-25.18 102.29,-24.25 101.94,-23.32 101.30,-22.55 100.67,-21.78 99.82,-21.25 98.98,-20.72 98.00,-20.49 97.03,-20.26 96.04,-20.35 95.05,-20.44 95.05,-20.44 95.05,-20.44 91.72,-21.52 88.39,-22.61 85.78,-22.70 83.17,-22.80 79.54,-22.86 75.92,-22.91 72.23,-22.79 68.55,-22.66 64.32,-22.62 60.09,-22.57 57.46,-22.29 54.84,-22.01 52.31,-21.71 49.78,-21.41 47.20,-21.02 44.62,-20.63 41.95,-19.99 39.27,-19.36 36.48,-18.52 33.69,-17.68 31.01,-16.81 28.33,-15.93 25.65,-15.02 22.98,-14.11 20.64,-13.03 18.31,-11.94 16.20,-10.73 14.09,-9.51 12.13,-8.16 10.16,-6.81 8.57,-4.98 6.97,-3.15 5.56,-0.48 4.15,2.19 3.83,2.65 3.51,3.12 3.08,3.49 2.66,3.87 2.15,4.13 1.65,4.39 1.10,4.53 0.55,4.66 -0.01,4.66 -0.57,4.66 -1.12,4.52 -1.67,4.38 -2.17,4.12 -2.67,3.86 -3.10,3.48 -3.52,3.10 -3.84,2.64 -4.16,2.17 -4.36,1.64 -4.56,1.11 -4.63,0.55 -4.69,-0.01 -4.62,-0.57 -4.56,-1.13 -4.35,-1.66 -4.15,-2.19 -4.15,-2.19 L -4.15,-2.19 Z"></path></g><g transform="translate(123.8272348420519 44.035869890682676) rotate(0 6.019711843296967 4.940688088470097)" stroke="none"><path fill="#1e1e1e" d="M 0.56,-5.07 Q 0.56,-5.07 1.99,-5.01 3.43,-4.94 6.03,-4.01 8.63,-3.08 11.04,-0.64 13.45,1.79 13.96,3.02 14.47,4.26 15.29,4.82 16.11,5.37 16.71,6.15 17.31,6.94 17.63,7.88 17.95,8.81 17.95,9.80 17.95,10.79 17.64,11.73 17.32,12.67 16.73,13.46 16.13,14.25 15.31,14.81 14.50,15.36 13.54,15.63 12.59,15.90 11.60,15.85 10.61,15.80 9.69,15.43 8.77,15.07 8.02,14.43 7.26,13.79 6.75,12.95 6.24,12.10 6.02,11.13 5.81,10.17 5.91,9.18 6.02,8.20 6.43,7.30 6.84,6.40 7.52,5.68 8.20,4.96 9.07,4.50 9.94,4.03 10.92,3.87 11.90,3.70 12.87,3.86 13.85,4.02 14.73,4.48 15.60,4.94 16.28,5.66 16.97,6.38 17.38,7.27 17.80,8.17 17.91,9.15 18.02,10.14 17.81,11.10 17.60,12.07 17.09,12.92 16.58,13.77 15.83,14.41 15.08,15.05 14.16,15.42 13.24,15.79 12.25,15.85 11.27,15.90 10.31,15.64 9.36,15.38 9.36,15.38 9.36,15.38 7.28,12.86 5.19,10.33 3.71,7.95 2.23,5.57 0.83,5.32 -0.56,5.07 -1.16,4.93 -1.76,4.79 -2.31,4.51 -2.86,4.23 -3.32,3.83 -3.79,3.42 -4.14,2.92 -4.50,2.41 -4.72,1.84 -4.95,1.27 -5.03,0.66 -5.11,0.04 -5.04,-0.56 -4.97,-1.17 -4.76,-1.75 -4.54,-2.33 -4.20,-2.84 -3.85,-3.35 -3.40,-3.76 -2.94,-4.17 -2.40,-4.46 -1.85,-4.76 -1.26,-4.91 -0.66,-5.06 -0.04,-5.07 0.56,-5.07 0.56,-5.07 L 0.56,-5.07 Z"></path></g><g transform="translate(118.90203029466657 53.91724606762287) rotate(0 10.944926828577898 -5.215171923461483)" stroke="none"><path fill="#1e1e1e" d="M 1.77,-4.65 Q 1.77,-4.65 5.03,-3.27 8.29,-1.89 10.63,-1.11 12.96,-0.34 15.41,0.10 17.86,0.55 16.83,-1.34 15.81,-3.23 15.43,-6.51 15.04,-9.80 14.62,-12.47 14.19,-15.15 14.22,-16.15 14.26,-17.15 14.60,-18.08 14.95,-19.02 15.58,-19.79 16.21,-20.57 17.06,-21.10 17.90,-21.63 18.87,-21.87 19.84,-22.11 20.83,-22.02 21.83,-21.93 22.74,-21.54 23.66,-21.14 24.40,-20.47 25.14,-19.80 25.63,-18.92 26.11,-18.05 26.30,-17.07 26.48,-16.09 26.34,-15.10 26.20,-14.11 25.75,-13.22 25.30,-12.33 24.59,-11.63 23.89,-10.92 22.99,-10.48 22.09,-10.05 21.10,-9.92 20.11,-9.79 19.13,-9.98 18.15,-10.17 17.29,-10.67 16.42,-11.16 15.76,-11.91 15.09,-12.66 14.70,-13.57 14.31,-14.49 14.24,-15.49 14.16,-16.48 14.41,-17.45 14.65,-18.42 15.20,-19.26 15.74,-20.10 16.52,-20.72 17.30,-21.34 18.24,-21.68 19.18,-22.02 20.18,-22.04 21.17,-22.06 22.13,-21.77 23.08,-21.47 23.89,-20.88 24.70,-20.29 25.27,-19.48 25.85,-18.67 26.14,-17.71 26.43,-16.76 26.43,-16.76 26.43,-16.76 27.02,-12.12 27.62,-7.49 27.70,-3.67 27.79,0.15 27.30,3.53 26.81,6.91 24.10,9.14 21.38,11.37 18.64,11.12 15.90,10.87 12.77,9.83 9.64,8.80 7.28,7.87 4.91,6.94 1.56,5.80 -1.77,4.65 -2.30,4.37 -2.84,4.09 -3.28,3.69 -3.73,3.29 -4.07,2.79 -4.41,2.30 -4.62,1.74 -4.83,1.17 -4.91,0.58 -4.98,-0.01 -4.90,-0.60 -4.83,-1.20 -4.61,-1.76 -4.40,-2.32 -4.06,-2.81 -3.72,-3.31 -3.26,-3.71 -2.81,-4.10 -2.28,-4.38 -1.75,-4.66 -1.17,-4.80 -0.58,-4.94 0.01,-4.94 0.61,-4.94 1.19,-4.79 1.77,-4.65 1.77,-4.65 L 1.77,-4.65 Z"></path></g><g transform="translate(152.2840487715127 65.44552525451135) rotate(0 23.257969510728035 10.430354317610366)" stroke="none"><path fill="#1e1e1e" d="M 3.72,-3.70 Q 3.72,-3.70 5.46,-1.99 7.21,-0.27 10.22,1.12 13.24,2.53 16.62,2.62 19.99,2.70 22.25,0.88 24.52,-0.92 25.21,-3.01 25.90,-5.10 27.32,-3.39 28.75,-1.67 26.54,0.91 24.33,3.51 21.27,5.80 18.22,8.09 17.36,10.13 16.50,12.16 18.68,13.58 20.86,15.00 22.80,16.20 24.74,17.41 26.77,18.19 28.81,18.98 31.60,19.95 34.40,20.93 38.02,21.35 41.64,21.78 43.91,21.85 46.19,21.92 47.15,22.11 48.11,22.30 48.96,22.79 49.81,23.28 50.46,24.01 51.11,24.75 51.49,25.65 51.87,26.55 51.95,27.53 52.02,28.51 51.78,29.46 51.53,30.41 51.00,31.23 50.47,32.05 49.70,32.66 48.93,33.27 48.01,33.60 47.08,33.93 46.10,33.95 45.12,33.97 44.19,33.68 43.25,33.38 42.46,32.81 41.67,32.23 41.10,31.43 40.54,30.63 40.25,29.69 39.97,28.75 40.01,27.77 40.04,26.79 40.38,25.87 40.73,24.96 41.35,24.20 41.97,23.44 42.80,22.91 43.63,22.39 44.58,22.16 45.53,21.93 46.51,22.02 47.49,22.10 48.38,22.50 49.28,22.89 50.01,23.55 50.73,24.21 51.21,25.07 51.68,25.92 51.86,26.89 52.04,27.85 51.90,28.82 51.76,29.79 51.32,30.67 50.88,31.54 50.18,32.23 49.48,32.92 48.60,33.35 47.72,33.78 46.75,33.90 45.78,34.03 45.78,34.03 45.78,34.03 41.19,33.68 36.60,33.32 33.84,32.90 31.08,32.48 27.84,31.71 24.60,30.95 19.60,28.88 14.59,26.82 12.50,25.54 10.40,24.27 8.63,22.06 6.86,19.85 5.42,17.36 3.98,14.88 4.04,11.24 4.11,7.60 5.84,4.46 7.57,1.32 10.64,-1.49 13.71,-4.32 15.82,-5.92 17.94,-7.53 21.45,-9.54 24.96,-11.54 27.14,-12.24 29.32,-12.94 31.88,-12.39 34.44,-11.84 36.20,-7.82 37.95,-3.80 36.88,-0.71 35.81,2.36 34.49,4.66 33.17,6.97 31.31,8.75 29.45,10.53 27.33,11.64 25.20,12.75 22.71,13.29 20.22,13.83 17.86,13.78 15.51,13.74 12.66,13.29 9.81,12.84 6.90,11.70 3.99,10.55 1.85,8.89 -0.28,7.22 -2.00,5.46 -3.72,3.70 -4.11,3.20 -4.49,2.71 -4.75,2.13 -5.01,1.55 -5.13,0.93 -5.24,0.30 -5.20,-0.32 -5.16,-0.95 -4.97,-1.55 -4.78,-2.16 -4.45,-2.70 -4.13,-3.24 -3.68,-3.69 -3.23,-4.14 -2.69,-4.46 -2.14,-4.79 -1.54,-4.98 -0.93,-5.16 -0.30,-5.20 0.32,-5.24 0.94,-5.12 1.57,-5.01 2.14,-4.75 2.72,-4.49 3.22,-4.09 3.72,-3.70 3.72,-3.70 L 3.72,-3.70 Z"></path></g><g transform="translate(32.437102086163804 98.9324379458987) rotate(0 54.45100992838548 14.273096595427504)" stroke="none"><path fill="#1e1e1e" d="M 3.10,-3.09 Q 3.10,-3.09 5.18,-1.08 7.26,0.93 10.79,4.51 14.31,8.09 16.48,9.60 18.66,11.12 21.71,12.78 24.77,14.45 28.18,16.23 31.59,18.00 34.60,19.30 37.61,20.61 40.16,21.35 42.72,22.08 45.45,22.68 48.19,23.27 51.95,23.41 55.72,23.55 58.07,23.28 60.43,23.01 62.72,21.72 65.01,20.44 67.15,19.52 69.30,18.60 73.31,16.70 77.32,14.79 79.61,13.81 81.89,12.82 84.65,11.88 87.41,10.93 89.67,10.19 91.92,9.45 93.86,8.35 95.80,7.25 97.85,5.88 99.91,4.50 102.17,1.04 104.42,-2.42 105.30,-2.98 106.17,-3.54 107.18,-3.79 108.19,-4.05 109.22,-3.97 110.26,-3.88 111.22,-3.47 112.17,-3.07 112.95,-2.37 113.72,-1.68 114.24,-0.78 114.75,0.12 114.95,1.14 115.15,2.16 115.01,3.19 114.87,4.22 114.41,5.15 113.95,6.09 113.22,6.82 112.48,7.56 111.55,8.02 110.62,8.49 109.59,8.63 108.56,8.77 107.54,8.58 106.52,8.39 105.61,7.88 104.71,7.37 104.01,6.59 103.31,5.82 102.90,4.87 102.49,3.91 102.40,2.88 102.32,1.84 102.56,0.83 102.81,-0.17 103.37,-1.05 103.93,-1.93 104.74,-2.58 105.55,-3.23 106.52,-3.59 107.50,-3.95 108.54,-3.98 109.58,-4.01 110.57,-3.71 111.57,-3.41 112.41,-2.80 113.26,-2.20 113.87,-1.35 114.48,-0.51 114.78,0.47 115.09,1.47 115.06,2.51 115.04,3.55 114.68,4.52 114.32,5.50 113.67,6.31 113.02,7.12 113.02,7.12 113.03,7.12 110.99,9.88 108.95,12.64 107.10,14.10 105.25,15.57 103.29,16.54 101.33,17.50 98.33,18.78 95.33,20.06 93.21,20.72 91.10,21.37 88.75,22.24 86.40,23.10 82.13,24.94 77.86,26.78 73.77,28.59 69.68,30.39 67.69,31.27 65.69,32.14 61.99,32.82 58.29,33.49 54.77,33.07 51.25,32.65 48.70,32.20 46.16,31.76 43.12,30.97 40.08,30.18 37.20,29.15 34.32,28.11 31.20,26.73 28.08,25.34 24.49,23.77 20.90,22.19 17.09,20.42 13.27,18.66 10.40,16.55 7.53,14.45 4.22,10.86 0.91,7.27 -1.09,5.18 -3.10,3.09 -3.43,2.68 -3.75,2.26 -3.97,1.78 -4.19,1.29 -4.28,0.77 -4.38,0.25 -4.34,-0.26 -4.31,-0.79 -4.15,-1.30 -3.99,-1.80 -3.72,-2.25 -3.45,-2.71 -3.07,-3.08 -2.70,-3.45 -2.24,-3.73 -1.79,-4.00 -1.28,-4.16 -0.78,-4.31 -0.25,-4.34 0.27,-4.38 0.79,-4.28 1.31,-4.18 1.79,-3.97 2.27,-3.75 2.69,-3.42 3.10,-3.09 3.10,-3.09 L 3.10,-3.09 Z"></path></g><g transform="translate(127.6579634072124 97.28552446526297) rotate(0 12.586661677706338 4.940698559157497)" stroke="none"><path fill="#1e1e1e" d="M -0.84,-5.03 Q -0.84,-5.03 1.99,-5.49 4.82,-5.95 8.10,-6.84 11.38,-7.73 13.48,-8.28 15.57,-8.82 17.94,-8.13 20.31,-7.43 22.41,-4.61 24.52,-1.79 25.56,1.41 26.60,4.62 25.28,5.52 23.95,6.41 24.97,6.41 26.00,6.40 26.97,6.73 27.94,7.06 28.76,7.67 29.57,8.29 30.15,9.14 30.72,9.99 31.00,10.97 31.28,11.96 31.22,12.98 31.17,14.00 30.79,14.96 30.41,15.91 29.75,16.69 29.09,17.47 28.21,18.00 27.33,18.53 26.34,18.75 25.34,18.97 24.32,18.86 23.30,18.75 22.37,18.32 21.44,17.90 20.69,17.19 19.95,16.49 19.47,15.58 18.99,14.68 18.82,13.67 18.65,12.66 18.82,11.65 18.98,10.64 19.46,9.73 19.94,8.83 20.68,8.12 21.43,7.42 22.35,6.99 23.28,6.56 24.30,6.44 25.32,6.33 26.32,6.55 27.32,6.77 28.20,7.30 29.08,7.82 29.74,8.60 30.40,9.38 30.78,10.33 31.16,11.28 31.22,12.31 31.28,13.33 31.00,14.32 30.73,15.30 30.16,16.15 29.58,17.00 28.77,17.62 27.96,18.24 26.99,18.57 26.02,18.90 26.02,18.90 26.02,18.90 21.56,16.41 17.11,13.92 15.90,10.89 14.70,7.86 15.12,5.12 15.55,2.39 13.25,2.73 10.95,3.07 8.72,3.56 6.50,4.05 3.67,4.54 0.84,5.03 0.22,5.06 -0.38,5.09 -0.99,4.96 -1.59,4.84 -2.15,4.58 -2.70,4.32 -3.18,3.94 -3.66,3.55 -4.03,3.06 -4.40,2.57 -4.65,2.00 -4.89,1.44 -4.99,0.83 -5.09,0.22 -5.05,-0.38 -5.00,-0.99 -4.81,-1.58 -4.62,-2.16 -4.29,-2.68 -3.96,-3.21 -3.52,-3.63 -3.08,-4.06 -2.55,-4.37 -2.02,-4.68 -1.43,-4.86 -0.84,-5.03 -0.84,-5.03 L -0.84,-5.03 Z"></path></g><g transform="translate(75.66956097146738 62.15174017598957) rotate(0 1.0944968580160293 8.783451307662062)" stroke="none"><path fill="#1e1e1e" d="M 5.02,-0.26 Q 5.02,-0.26 5.15,2.73 5.28,5.73 5.77,8.62 6.27,11.50 6.88,13.76 7.49,16.02 7.55,16.91 7.62,17.80 7.39,18.67 7.17,19.53 6.68,20.28 6.19,21.03 5.49,21.58 4.79,22.13 3.95,22.43 3.11,22.73 2.22,22.74 1.32,22.76 0.47,22.49 -0.37,22.22 -1.09,21.69 -1.81,21.16 -2.32,20.43 -2.83,19.70 -3.09,18.85 -3.34,17.99 -3.31,17.10 -3.27,16.21 -2.96,15.37 -2.64,14.54 -2.08,13.85 -1.51,13.16 -0.75,12.69 -0.00,12.21 0.86,12.01 1.73,11.80 2.62,11.88 3.51,11.96 4.32,12.32 5.14,12.68 5.80,13.29 6.46,13.89 6.89,14.67 7.32,15.45 7.48,16.33 7.64,17.21 7.51,18.09 7.38,18.97 6.97,19.77 6.57,20.57 5.93,21.19 5.29,21.81 4.49,22.20 3.69,22.59 2.80,22.70 1.92,22.81 1.04,22.64 0.17,22.46 -0.59,22.01 -1.37,21.57 -1.96,20.90 -2.55,20.23 -2.89,19.40 -3.23,18.58 -3.23,18.58 -3.23,18.58 -3.80,15.46 -4.36,12.34 -4.51,9.30 -4.65,6.25 -4.83,3.26 -5.02,0.26 -4.98,-0.34 -4.94,-0.94 -4.75,-1.52 -4.57,-2.10 -4.25,-2.61 -3.93,-3.13 -3.50,-3.56 -3.07,-3.98 -2.54,-4.29 -2.02,-4.60 -1.44,-4.78 -0.86,-4.95 -0.26,-4.98 0.34,-5.01 0.93,-4.90 1.53,-4.79 2.08,-4.53 2.63,-4.28 3.11,-3.90 3.58,-3.52 3.95,-3.04 4.32,-2.56 4.57,-2.01 4.81,-1.45 4.92,-0.86 5.02,-0.26 5.02,-0.26 L 5.02,-0.26 Z"></path></g><g transform="translate(89.35071950718975 60.50484763672867) rotate(0 0.8208674245642271 13.998617995779824)" stroke="none"><path fill="#1e1e1e" d="M 5.20,0 Q 5.20,0 5.13,3.15 5.06,6.31 5.25,8.59 5.44,10.87 5.70,14.22 5.96,17.57 6.26,19.81 6.55,22.05 6.96,24.62 7.36,27.18 7.30,28.11 7.23,29.05 6.88,29.91 6.52,30.77 5.90,31.48 5.28,32.18 4.47,32.65 3.67,33.12 2.75,33.30 1.83,33.49 0.91,33.37 -0.01,33.26 -0.85,32.85 -1.70,32.45 -2.36,31.79 -3.03,31.14 -3.46,30.31 -3.88,29.48 -4.02,28.55 -4.16,27.63 -3.99,26.71 -3.83,25.79 -3.37,24.97 -2.92,24.15 -2.24,23.51 -1.55,22.88 -0.69,22.50 0.15,22.12 1.08,22.04 2.01,21.95 2.92,22.17 3.83,22.38 4.63,22.88 5.42,23.37 6.01,24.09 6.61,24.82 6.94,25.69 7.27,26.56 7.31,27.50 7.35,28.43 7.08,29.33 6.82,30.23 6.28,30.99 5.74,31.76 4.99,32.31 4.24,32.86 3.35,33.15 2.46,33.43 1.52,33.42 0.59,33.40 -0.29,33.09 -1.17,32.78 -1.90,32.20 -2.64,31.62 -3.15,30.84 -3.66,30.06 -3.90,29.15 -4.13,28.25 -4.13,28.25 -4.13,28.25 -4.49,25.86 -4.84,23.47 -4.90,20.63 -4.95,17.79 -4.88,14.66 -4.81,11.53 -4.94,8.92 -5.06,6.31 -5.13,3.15 -5.20,0 -5.12,-0.62 -5.05,-1.24 -4.83,-1.83 -4.60,-2.41 -4.25,-2.93 -3.89,-3.45 -3.42,-3.86 -2.95,-4.28 -2.40,-4.57 -1.84,-4.86 -1.23,-5.01 -0.62,-5.16 0.00,-5.16 0.62,-5.16 1.23,-5.01 1.84,-4.86 2.40,-4.57 2.95,-4.28 3.42,-3.86 3.89,-3.45 4.25,-2.93 4.60,-2.41 4.83,-1.83 5.05,-1.24 5.12,-0.62 5.20,0.00 5.20,0.00 L 5.20,0 Z"></path></g><g transform="translate(63.630137284873456 78.07172931067797) rotate(0 24.626085364300273 6.0386338991230275)" stroke="none"><path fill="#1e1e1e" d="M 2.80,-4.09 Q 2.80,-4.09 5.71,-1.92 8.62,0.24 11.03,1.89 13.43,3.55 15.26,4.92 17.10,6.29 19.64,8.24 22.19,10.19 23.85,7.73 25.51,5.26 27.91,4.04 30.32,2.81 33.00,1.52 35.69,0.23 37.47,-0.95 39.26,-2.15 42.71,-4.61 46.16,-7.08 47.04,-7.38 47.92,-7.69 48.85,-7.70 49.78,-7.72 50.67,-7.43 51.56,-7.14 52.31,-6.58 53.06,-6.03 53.59,-5.26 54.13,-4.50 54.39,-3.60 54.65,-2.70 54.61,-1.77 54.57,-0.84 54.23,0.02 53.90,0.89 53.30,1.61 52.71,2.33 51.91,2.82 51.12,3.31 50.21,3.52 49.30,3.74 48.37,3.65 47.44,3.56 46.59,3.17 45.74,2.79 45.05,2.16 44.37,1.52 43.92,0.70 43.47,-0.11 43.31,-1.02 43.15,-1.94 43.29,-2.87 43.43,-3.79 43.86,-4.62 44.28,-5.45 44.95,-6.10 45.63,-6.75 46.47,-7.15 47.31,-7.55 48.24,-7.66 49.16,-7.78 50.08,-7.59 50.99,-7.40 51.80,-6.92 52.60,-6.45 53.21,-5.75 53.83,-5.04 54.18,-4.18 54.54,-3.32 54.60,-2.39 54.66,-1.45 54.42,-0.55 54.18,0.34 53.67,1.12 53.15,1.90 52.42,2.47 51.68,3.04 51.68,3.04 51.68,3.04 50.38,3.90 49.08,4.76 47.30,6.01 45.53,7.27 43.22,8.79 40.92,10.32 38.42,11.71 35.92,13.11 33.53,14.48 31.15,15.85 28.45,17.09 25.75,18.33 23.00,19.08 20.26,19.83 18.18,19.31 16.10,18.80 14.37,17.26 12.64,15.72 10.33,13.50 8.01,11.29 5.66,9.63 3.32,7.96 0.25,6.02 -2.80,4.09 -3.25,3.69 -3.70,3.30 -4.04,2.81 -4.39,2.31 -4.60,1.75 -4.81,1.20 -4.89,0.60 -4.96,0.01 -4.89,-0.58 -4.82,-1.17 -4.61,-1.73 -4.40,-2.29 -4.06,-2.78 -3.72,-3.28 -3.27,-3.68 -2.83,-4.07 -2.30,-4.35 -1.77,-4.63 -1.19,-4.78 -0.61,-4.92 -0.01,-4.92 0.58,-4.93 1.16,-4.78 1.74,-4.64 2.27,-4.37 2.81,-4.09 2.80,-4.09 L 2.80,-4.09 Z"></path></g><g transform="translate(48.30724390002263 80.26759999060903) rotate(0 -5.746087628792949 4.6662094888224175)" stroke="none"><path fill="#1e1e1e" d="M 4.08,3.20 Q 4.08,3.20 2.34,5.40 0.59,7.61 -2.48,10.15 -5.55,12.69 -7.82,13.46 -10.08,14.23 -12.84,13.94 -15.60,13.65 -17.31,12.28 -19.02,10.91 -20.25,8.48 -21.47,6.05 -21.80,3.58 -22.13,1.10 -21.55,-2.14 -20.96,-5.40 -19.04,-7.00 -17.12,-8.60 -13.20,-8.16 -9.28,-7.71 -7.46,-6.12 -5.64,-4.54 -3.44,-2.57 -1.24,-0.61 0.64,1.11 2.52,2.83 4.43,4.89 6.34,6.95 5.48,6.05 4.63,5.16 5.72,5.41 6.81,5.66 7.76,6.24 8.72,6.83 9.43,7.69 10.15,8.55 10.56,9.59 10.96,10.63 11.01,11.75 11.06,12.87 10.75,13.95 10.44,15.02 9.81,15.94 9.17,16.86 8.27,17.53 7.38,18.20 6.31,18.55 5.25,18.90 4.13,18.89 3.01,18.88 1.95,18.51 0.90,18.14 0.01,17.46 -0.86,16.77 -1.48,15.84 -2.10,14.91 -2.39,13.83 -2.68,12.75 -2.61,11.63 -2.54,10.51 -2.12,9.48 -1.70,8.44 -0.96,7.59 -0.23,6.75 0.72,6.18 1.69,5.61 2.78,5.38 3.88,5.15 4.99,5.28 6.10,5.41 7.11,5.89 8.13,6.37 8.93,7.15 9.74,7.92 10.25,8.92 10.77,9.91 10.94,11.02 11.11,12.12 10.92,13.23 10.73,14.33 10.19,15.31 9.66,16.30 8.84,17.06 8.02,17.82 7.00,18.28 5.98,18.74 4.87,18.85 3.75,18.97 3.75,18.97 3.76,18.97 -0.42,16.98 -4.61,14.99 -6.42,13.14 -8.23,11.29 -10.45,9.32 -12.67,7.34 -14.70,5.43 -16.74,3.52 -14.40,3.48 -12.07,3.44 -10.83,1.30 -9.59,-0.83 -10.58,1.06 -11.57,2.96 -9.54,2.09 -7.51,1.22 -5.80,-0.98 -4.08,-3.20 -3.64,-3.64 -3.20,-4.08 -2.66,-4.41 -2.13,-4.73 -1.53,-4.92 -0.93,-5.10 -0.31,-5.14 0.31,-5.18 0.92,-5.06 1.54,-4.95 2.11,-4.70 2.68,-4.44 3.17,-4.05 3.67,-3.67 4.05,-3.17 4.44,-2.68 4.70,-2.11 4.95,-1.54 5.06,-0.92 5.18,-0.31 5.14,0.31 5.10,0.93 4.92,1.53 4.73,2.13 4.41,2.66 4.08,3.20 4.08,3.20 L 4.08,3.20 Z"></path></g><g transform="translate(74.57506411345136 140.65381333359048) rotate(0 10.397678399569884 5.489655758452855)" stroke="none"><path fill="#1e1e1e" d="M 2.34,-4.12 Q 2.34,-4.12 5.83,-1.85 9.33,0.41 11.81,1.67 14.29,2.93 18.05,4.65 21.80,6.37 22.49,6.70 23.18,7.02 23.73,7.55 24.28,8.08 24.63,8.75 24.98,9.43 25.10,10.18 25.22,10.93 25.09,11.68 24.96,12.43 24.60,13.10 24.24,13.77 23.68,14.29 23.13,14.81 22.43,15.12 21.74,15.44 20.98,15.51 20.23,15.59 19.48,15.42 18.74,15.25 18.09,14.86 17.44,14.46 16.96,13.88 16.47,13.29 16.19,12.58 15.91,11.87 15.88,11.11 15.84,10.35 16.05,9.62 16.26,8.89 16.69,8.26 17.12,7.64 17.73,7.18 18.34,6.72 19.06,6.49 19.79,6.25 20.55,6.25 21.31,6.26 22.03,6.51 22.75,6.76 23.35,7.22 23.95,7.69 24.38,8.32 24.80,8.95 25.00,9.69 25.19,10.42 25.15,11.18 25.10,11.94 24.81,12.65 24.53,13.35 24.03,13.93 23.53,14.50 22.88,14.89 22.22,15.28 21.48,15.44 20.73,15.59 19.98,15.51 19.22,15.42 19.22,15.42 19.22,15.42 14.66,13.03 10.10,10.65 7.62,9.22 5.14,7.79 1.40,5.96 -2.34,4.12 -2.80,3.78 -3.25,3.44 -3.62,3.00 -3.99,2.56 -4.23,2.05 -4.48,1.53 -4.60,0.97 -4.72,0.41 -4.70,-0.15 -4.68,-0.72 -4.53,-1.27 -4.37,-1.82 -4.09,-2.32 -3.81,-2.82 -3.42,-3.23 -3.02,-3.65 -2.54,-3.96 -2.06,-4.27 -1.52,-4.45 -0.98,-4.64 -0.41,-4.69 0.15,-4.74 0.71,-4.65 1.28,-4.56 1.81,-4.34 2.34,-4.12 2.34,-4.12 L 2.34,-4.12 Z"></path></g><g transform="translate(106.31534774116902 141.20277053288584) rotate(0 -4.925214985280931 4.117241818839645)" stroke="none"><path fill="#1e1e1e" d="M 2.46,4.29 Q 2.46,4.29 0.28,5.59 -1.89,6.89 -3.17,7.81 -4.45,8.73 -4.70,9.57 -4.95,10.41 -5.45,11.13 -5.96,11.84 -6.66,12.36 -7.37,12.88 -8.20,13.14 -9.04,13.41 -9.91,13.40 -10.79,13.38 -11.61,13.09 -12.44,12.80 -13.13,12.25 -13.81,11.71 -14.29,10.98 -14.77,10.25 -14.99,9.40 -15.21,8.55 -15.15,7.68 -15.09,6.81 -14.75,6.00 -14.41,5.19 -13.84,4.53 -13.26,3.87 -12.50,3.44 -11.74,3.00 -10.89,2.82 -10.03,2.65 -9.16,2.76 -8.29,2.87 -7.50,3.25 -6.71,3.63 -6.09,4.24 -5.46,4.85 -5.06,5.63 -4.67,6.41 -4.54,7.28 -4.41,8.15 -4.57,9.01 -4.72,9.87 -5.15,10.64 -5.57,11.40 -6.22,11.99 -6.86,12.59 -7.66,12.94 -8.46,13.29 -9.33,13.37 -10.21,13.45 -11.06,13.25 -11.91,13.05 -12.65,12.59 -13.40,12.12 -13.95,11.45 -14.51,10.77 -14.82,9.95 -15.13,9.13 -15.16,8.26 -15.19,7.38 -15.19,7.38 -15.19,7.38 -13.62,4.56 -12.04,1.73 -9.47,-0.05 -6.91,-1.84 -4.68,-3.07 -2.46,-4.29 -1.91,-4.53 -1.36,-4.76 -0.77,-4.85 -0.18,-4.95 0.41,-4.90 1.00,-4.85 1.57,-4.66 2.13,-4.47 2.64,-4.14 3.14,-3.82 3.55,-3.39 3.97,-2.96 4.26,-2.44 4.56,-1.92 4.72,-1.35 4.89,-0.77 4.91,-0.18 4.93,0.41 4.81,0.99 4.69,1.58 4.43,2.12 4.17,2.66 3.80,3.12 3.42,3.58 2.94,3.94 2.46,4.29 2.46,4.29 L 2.46,4.29 Z"></path></g><g transform="translate(95.91767977949475 151.08416765120083) rotate(0 0.2736189955562054 9.057929907309735)" stroke="none"><path fill="#1e1e1e" d="M 4.58,0 Q 4.58,0 4.41,3.94 4.23,7.89 4.33,10.51 4.42,13.13 4.50,15.17 4.59,17.21 4.47,17.94 4.35,18.68 4.00,19.33 3.65,19.99 3.11,20.50 2.57,21.01 1.90,21.32 1.22,21.64 0.48,21.72 -0.24,21.80 -0.97,21.64 -1.69,21.48 -2.33,21.09 -2.97,20.71 -3.45,20.14 -3.93,19.58 -4.20,18.89 -4.48,18.20 -4.52,17.46 -4.56,16.72 -4.36,16.00 -4.16,15.28 -3.74,14.67 -3.33,14.05 -2.74,13.60 -2.15,13.16 -1.44,12.92 -0.74,12.68 0.00,12.68 0.74,12.68 1.44,12.92 2.15,13.16 2.74,13.61 3.33,14.06 3.75,14.67 4.16,15.28 4.36,16.00 4.56,16.72 4.52,17.46 4.48,18.20 4.20,18.89 3.93,19.58 3.45,20.15 2.97,20.71 2.33,21.09 1.69,21.48 0.97,21.64 0.24,21.80 -0.49,21.72 -1.22,21.64 -1.90,21.32 -2.57,21.01 -3.11,20.50 -3.65,19.99 -4.00,19.33 -4.35,18.68 -4.47,17.94 -4.59,17.21 -4.59,17.21 -4.59,17.21 -4.50,15.17 -4.42,13.13 -4.33,10.51 -4.23,7.89 -4.41,3.94 -4.58,0 -4.52,-0.54 -4.45,-1.09 -4.25,-1.61 -4.06,-2.13 -3.74,-2.58 -3.43,-3.04 -3.02,-3.40 -2.60,-3.77 -2.11,-4.03 -1.62,-4.29 -1.08,-4.42 -0.55,-4.55 0.00,-4.55 0.55,-4.55 1.09,-4.42 1.62,-4.29 2.11,-4.03 2.60,-3.77 3.02,-3.40 3.43,-3.04 3.74,-2.58 4.06,-2.13 4.25,-1.61 4.45,-1.09 4.52,-0.54 4.58,0.00 4.58,0.00 L 4.58,0 Z"></path></g><g transform="translate(78.40579267861187 12.74482787922642) rotate(0 -8.208695121433422 8.508967472670676)" stroke="none"><path fill="#1e1e1e" d="M 3.79,3.07 Q 3.79,3.07 1.70,5.56 -0.38,8.05 -2.30,10.11 -4.22,12.17 -5.98,13.89 -7.75,15.61 -10.09,18.09 -12.44,20.57 -13.17,21.02 -13.90,21.47 -14.73,21.66 -15.57,21.85 -16.42,21.76 -17.27,21.67 -18.05,21.32 -18.83,20.97 -19.46,20.38 -20.08,19.80 -20.49,19.05 -20.89,18.29 -21.04,17.45 -21.18,16.61 -21.05,15.76 -20.92,14.91 -20.53,14.16 -20.13,13.40 -19.51,12.80 -18.90,12.21 -18.12,11.84 -17.35,11.48 -16.50,11.38 -15.65,11.28 -14.81,11.46 -13.97,11.64 -13.24,12.07 -12.50,12.51 -11.94,13.16 -11.38,13.80 -11.06,14.60 -10.74,15.39 -10.68,16.24 -10.63,17.10 -10.85,17.93 -11.08,18.75 -11.55,19.46 -12.03,20.18 -12.70,20.70 -13.38,21.22 -14.19,21.50 -15.00,21.78 -15.86,21.79 -16.71,21.79 -17.52,21.53 -18.34,21.26 -19.02,20.75 -19.71,20.23 -20.19,19.53 -20.68,18.82 -20.91,18.00 -21.15,17.18 -21.11,16.32 -21.07,15.47 -20.76,14.67 -20.45,13.87 -19.90,13.22 -19.35,12.56 -19.35,12.56 -19.35,12.56 -16.94,10.40 -14.54,8.25 -12.87,6.81 -11.20,5.37 -9.50,3.70 -7.80,2.04 -5.80,-0.51 -3.79,-3.07 -3.37,-3.48 -2.95,-3.89 -2.44,-4.19 -1.93,-4.49 -1.36,-4.65 -0.80,-4.82 -0.21,-4.84 0.37,-4.87 0.95,-4.75 1.53,-4.64 2.06,-4.39 2.59,-4.14 3.05,-3.77 3.51,-3.40 3.86,-2.93 4.22,-2.46 4.45,-1.91 4.69,-1.37 4.78,-0.79 4.88,-0.21 4.83,0.37 4.79,0.95 4.60,1.51 4.42,2.07 4.11,2.57 3.79,3.07 3.79,3.07 L 3.79,3.07 Z"></path></g><g transform="translate(62.53564042685741 10) rotate(0 7.935076125877217 8.23448363767929)" stroke="none"><path fill="#1e1e1e" d="M 3.88,-3.14 Q 3.88,-3.14 5.87,-0.57 7.86,1.98 10.96,5.11 14.06,8.24 16.46,10.13 18.86,12.01 19.46,12.64 20.06,13.27 20.42,14.05 20.79,14.83 20.89,15.69 20.99,16.56 20.81,17.40 20.63,18.25 20.18,18.99 19.74,19.74 19.08,20.30 18.43,20.87 17.62,21.19 16.82,21.52 15.96,21.57 15.09,21.62 14.26,21.39 13.42,21.17 12.70,20.69 11.98,20.20 11.45,19.52 10.92,18.83 10.64,18.01 10.36,17.19 10.36,16.32 10.35,15.46 10.62,14.64 10.90,13.81 11.42,13.12 11.94,12.43 12.65,11.94 13.37,11.45 14.20,11.21 15.03,10.98 15.90,11.02 16.76,11.06 17.57,11.38 18.38,11.69 19.04,12.25 19.70,12.81 20.15,13.55 20.60,14.29 20.80,15.13 20.99,15.98 20.90,16.84 20.81,17.70 20.45,18.49 20.09,19.28 19.50,19.91 18.90,20.54 18.14,20.95 17.38,21.36 16.52,21.51 15.67,21.65 14.81,21.51 13.96,21.38 13.19,20.98 12.42,20.58 12.42,20.58 12.42,20.58 9.43,17.83 6.43,15.09 4.95,13.36 3.47,11.64 1.89,9.87 0.31,8.11 -1.78,5.62 -3.88,3.14 -4.20,2.63 -4.52,2.12 -4.71,1.55 -4.90,0.98 -4.94,0.37 -4.99,-0.22 -4.89,-0.81 -4.79,-1.40 -4.55,-1.96 -4.31,-2.51 -3.95,-2.99 -3.59,-3.47 -3.12,-3.85 -2.65,-4.23 -2.10,-4.49 -1.56,-4.74 -0.97,-4.86 -0.38,-4.98 0.21,-4.95 0.82,-4.92 1.39,-4.75 1.97,-4.58 2.49,-4.28 3.01,-3.98 3.45,-3.56 3.88,-3.14 3.88,-3.14 L 3.88,-3.14 Z"></path></g></svg>