<svg version="1.1" xmlns="http://www.w3.org/2000/svg" viewBox="0 0 646.5530873958021 680.9999847412109" width="646.5530873958021" height="680.9999847412109" class="excalidraw-svg"><!-- svg-source:excalidraw --><metadata></metadata><defs><style class="style-fonts">
      </style></defs><rect x="0" y="0" width="646.5530873958021" height="680.9999847412109" fill="#ffffff"></rect><g transform="translate(232.40000915527344 78) rotate(0 -7.20001220703125 49.20000457763672)" stroke="none"><path fill="#1e1e1e" d="M 2.63,2.63 Q 2.63,2.63 -1.37,6.44 -5.39,10.24 -16.50,22.35 -27.62,34.46 -36.72,45.30 -45.82,56.15 -52.47,64.21 -59.13,72.27 -63.58,77.75 -68.03,83.23 -69.72,85.83 -71.41,88.42 -71.62,89.65 -71.83,90.87 -72.12,91.18 -72.41,91.50 -72.77,91.73 -73.13,91.96 -73.53,92.10 -73.94,92.25 -74.36,92.29 -74.79,92.33 -75.21,92.26 -75.64,92.20 -76.03,92.04 -76.43,91.88 -76.77,91.62 -77.12,91.37 -77.39,91.04 -77.67,90.72 -77.86,90.33 -78.05,89.95 -78.14,89.53 -78.23,89.11 -78.22,88.68 -78.20,88.26 -78.09,87.84 -77.98,87.43 -77.77,87.06 -77.56,86.68 -74.91,86.30 -72.27,85.91 -68.45,85.38 -64.63,84.85 -59.57,84.00 -54.52,83.16 -49.08,82.36 -43.65,81.55 -34.71,78.31 -25.77,75.07 -17.01,70.09 -8.25,65.12 -1.46,58.79 5.33,52.45 10.28,46.59 15.23,40.73 17.19,36.45 19.16,32.16 19.28,27.71 19.40,23.26 18.16,19.76 16.92,16.27 15.38,13.45 13.84,10.63 12.25,8.73 10.66,6.84 8.44,5.28 6.22,3.72 5.92,3.32 5.63,2.93 5.43,2.47 5.24,2.02 5.16,1.53 5.08,1.04 5.12,0.55 5.16,0.05 5.32,-0.41 5.48,-0.87 5.74,-1.29 6.00,-1.71 6.36,-2.05 6.72,-2.40 7.15,-2.64 7.58,-2.89 8.05,-3.03 8.53,-3.16 9.02,-3.18 9.51,-3.20 10.00,-3.10 10.48,-3.00 10.93,-2.79 11.38,-2.58 11.76,-2.27 12.14,-1.95 13.05,0.87 13.97,3.71 16.77,8.58 19.58,13.46 25.69,26.99 31.79,40.51 34.99,48.31 38.19,56.10 40.83,61.37 43.48,66.64 46.20,71.93 48.92,77.21 52.07,82.12 55.21,87.02 57.16,89.46 59.10,91.89 58.57,92.44 58.04,92.99 58.16,92.29 58.28,91.60 58.62,90.98 58.96,90.36 59.48,89.89 59.99,89.41 60.64,89.12 61.28,88.83 61.98,88.77 62.68,88.70 63.37,88.86 64.06,89.02 64.66,89.39 65.25,89.76 65.70,90.30 66.15,90.85 66.41,91.51 66.66,92.16 66.69,92.87 66.72,93.57 66.52,94.25 66.32,94.93 65.92,95.50 65.52,96.08 64.95,96.50 64.38,96.92 63.71,97.14 63.04,97.35 62.34,97.34 61.63,97.33 60.97,97.10 60.30,96.87 59.75,96.43 59.19,96.00 58.80,95.41 58.41,94.82 58.23,94.14 58.05,93.46 58.10,92.76 58.15,92.05 58.42,91.40 58.69,90.75 59.15,90.22 59.61,89.69 60.22,89.33 60.83,88.98 61.52,88.83 62.21,88.69 62.91,88.78 63.61,88.86 64.25,89.17 64.88,89.47 65.39,89.96 65.89,90.45 66.22,91.08 66.54,91.71 66.64,92.40 66.75,93.10 66.75,93.10 66.75,93.10 65.52,96.76 64.30,100.41 61.41,100.64 58.52,100.86 56.18,98.26 53.84,95.66 52.09,92.93 50.35,90.20 46.98,85.12 43.61,80.03 40.75,74.80 37.88,69.56 34.96,64.15 32.04,58.74 28.63,51.15 25.23,43.56 19.04,30.63 12.84,17.69 9.91,13.42 6.98,9.16 6.60,6.44 6.22,3.72 5.92,3.32 5.63,2.93 5.43,2.47 5.24,2.02 5.16,1.53 5.08,1.04 5.12,0.55 5.16,0.05 5.32,-0.41 5.48,-0.87 5.74,-1.29 6.00,-1.71 6.36,-2.05 6.72,-2.39 7.15,-2.64 7.58,-2.89 8.05,-3.03 8.53,-3.16 9.02,-3.18 9.51,-3.20 10.00,-3.10 10.48,-3.00 10.93,-2.79 11.38,-2.58 11.76,-2.27 12.14,-1.95 12.84,-1.26 13.54,-0.58 14.91,1.16 16.29,2.91 17.79,5.46 19.29,8.00 20.68,11.29 22.07,14.58 23.40,18.98 24.73,23.38 24.40,28.83 24.08,34.28 21.74,39.24 19.41,44.19 14.24,50.34 9.08,56.48 1.81,63.22 -5.45,69.97 -14.62,75.20 -23.80,80.44 -33.25,83.91 -42.70,87.38 -48.05,88.30 -53.41,89.21 -58.59,90.25 -63.78,91.29 -67.80,91.08 -71.83,90.87 -72.12,91.18 -72.41,91.50 -72.77,91.73 -73.13,91.96 -73.53,92.10 -73.94,92.25 -74.36,92.29 -74.79,92.33 -75.21,92.26 -75.63,92.20 -76.03,92.04 -76.43,91.88 -76.77,91.62 -77.12,91.37 -77.39,91.04 -77.67,90.72 -77.86,90.33 -78.05,89.95 -78.14,89.53 -78.23,89.11 -78.22,88.68 -78.20,88.26 -78.09,87.84 -77.98,87.43 -77.77,87.06 -77.56,86.68 -77.09,85.72 -76.62,84.76 -74.55,82.21 -72.48,79.66 -68.08,74.11 -63.68,68.56 -57.10,60.41 -50.52,52.25 -41.45,41.20 -32.38,30.14 -21.31,17.76 -10.24,5.39 -6.44,1.37 -2.63,-2.63 -2.28,-2.91 -1.92,-3.19 -1.51,-3.37 -1.10,-3.55 -0.66,-3.64 -0.22,-3.72 0.22,-3.69 0.67,-3.66 1.10,-3.53 1.53,-3.39 1.91,-3.16 2.29,-2.93 2.61,-2.61 2.93,-2.29 3.16,-1.91 3.39,-1.52 3.53,-1.10 3.66,-0.67 3.69,-0.22 3.72,0.22 3.64,0.66 3.55,1.10 3.37,1.51 3.19,1.92 2.91,2.28 2.63,2.63 2.63,2.63 L 2.63,2.63 Z"></path></g><g transform="translate(401.1999969482422 10) rotate(0 62 69.5999984741211)" stroke="none"><path fill="#1e1e1e" d="M 3.79,-0.79 Q 3.79,-0.79 5.70,9.13 7.60,19.05 10.89,35.47 14.18,51.89 17.38,66.68 20.57,81.46 22.83,93.08 25.09,104.70 26.72,112.84 28.34,120.98 29.09,124.93 29.83,128.88 29.35,125.90 28.86,122.92 31.71,117.81 34.56,112.70 41.94,103.95 49.33,95.20 55.97,88.78 62.61,82.35 67.77,77.80 72.93,73.24 78.20,70.67 83.47,68.10 87.44,66.93 91.40,65.76 94.50,65.78 97.59,65.80 101.58,67.98 105.56,70.16 108.82,73.06 112.09,75.96 114.75,77.89 117.40,79.81 119.82,82.80 122.25,85.79 123.76,87.58 125.26,89.37 126.22,91.27 127.18,93.17 126.69,96.99 126.20,100.81 123.73,103.45 121.27,106.09 119.28,108.01 117.29,109.92 113.95,112.29 110.60,114.67 108.40,116.56 106.20,118.45 101.82,121.30 97.45,124.15 94.26,126.25 91.07,128.35 87.94,130.08 84.81,131.81 81.26,133.23 77.71,134.66 74.41,135.92 71.11,137.18 67.58,138.38 64.05,139.58 61.35,140.47 58.64,141.36 56.04,142.04 53.43,142.73 50.99,143.11 48.55,143.49 46.33,143.70 44.11,143.91 41.54,144.01 38.97,144.11 36.04,144.12 33.11,144.13 29.91,144.32 26.70,144.51 25.12,144.53 23.55,144.56 22.69,144.42 21.84,144.28 21.07,143.88 20.30,143.47 19.70,142.84 19.11,142.21 18.74,141.42 18.37,140.64 18.28,139.77 18.18,138.91 18.37,138.06 18.56,137.21 19.00,136.47 19.45,135.72 20.11,135.16 20.77,134.60 21.58,134.27 22.39,133.95 23.25,133.90 24.12,133.86 24.96,134.09 25.80,134.32 26.51,134.81 27.23,135.29 27.76,135.98 28.29,136.68 28.56,137.50 28.84,138.32 28.84,139.19 28.84,140.06 28.57,140.88 28.29,141.71 27.77,142.40 27.24,143.09 26.52,143.58 25.80,144.07 24.97,144.30 24.13,144.53 23.26,144.48 22.40,144.44 21.59,144.12 20.78,143.80 20.12,143.24 19.46,142.67 19.01,141.93 18.56,141.19 18.37,140.34 18.19,139.49 18.28,138.63 18.37,137.76 18.74,136.97 19.10,136.19 19.70,135.55 20.29,134.92 21.06,134.52 21.83,134.11 22.68,133.97 23.54,133.83 23.54,133.83 23.54,133.83 25.10,133.85 26.67,133.88 29.86,134.04 33.05,134.21 35.93,134.18 38.80,134.16 41.23,134.17 43.65,134.18 47.59,134.11 51.52,134.04 53.90,133.62 56.29,133.20 58.81,132.58 61.34,131.97 64.70,130.70 68.07,129.44 71.27,128.15 74.46,126.86 77.53,125.53 80.59,124.20 83.29,122.70 85.99,121.20 88.93,118.94 91.87,116.68 95.42,113.61 98.98,110.54 101.37,108.23 103.77,105.93 106.25,103.98 108.73,102.02 111.44,100.32 114.16,98.62 116.47,96.30 118.79,93.97 117.63,92.07 116.47,90.18 114.78,87.74 113.09,85.31 110.41,83.12 107.72,80.94 104.91,78.50 102.10,76.06 97.48,73.85 92.87,71.64 89.45,72.50 86.03,73.37 81.49,75.59 76.96,77.80 72.04,82.35 67.11,86.91 60.85,93.24 54.59,99.57 47.86,107.86 41.13,116.15 38.89,120.81 36.66,125.48 35.62,128.82 34.57,132.16 31.65,134.80 28.74,137.44 26.39,133.68 24.05,129.93 23.37,126.04 22.69,122.14 20.97,114.01 19.25,105.87 16.87,94.34 14.49,82.81 11.11,68.02 7.73,53.23 4.20,36.87 0.67,20.50 -1.56,10.64 -3.79,0.79 -3.83,0.32 -3.87,-0.13 -3.80,-0.59 -3.72,-1.06 -3.54,-1.49 -3.36,-1.92 -3.08,-2.29 -2.80,-2.67 -2.44,-2.96 -2.08,-3.26 -1.66,-3.46 -1.24,-3.67 -0.78,-3.76 -0.33,-3.86 0.13,-3.84 0.60,-3.82 1.05,-3.70 1.50,-3.57 1.90,-3.34 2.31,-3.11 2.65,-2.78 2.99,-2.46 3.24,-2.07 3.49,-1.67 3.64,-1.23 3.79,-0.79 3.79,-0.79 L 3.79,-0.79 Z"></path></g><g transform="translate(286.00001525878906 233.99998474121094) rotate(0 -70.39999389648438 76.40000915527344)" stroke="none"><path fill="#1e1e1e" d="M -27.34,2.50 Q -27.34,2.50 -42.42,17.40 -57.49,32.30 -75.52,52.90 -93.54,73.49 -108.24,91.79 -122.95,110.09 -130.69,120.14 -138.44,130.19 -141.92,134.86 -145.40,139.53 -142.31,141.12 -139.21,142.71 -132.24,143.92 -125.27,145.13 -115.91,146.29 -106.54,147.45 -93.92,148.17 -81.31,148.89 -71.13,149.21 -60.95,149.54 -51.77,148.86 -42.59,148.18 -32.64,144.84 -22.70,141.51 -16.30,138.27 -9.89,135.03 -6.34,132.48 -2.79,129.93 -0.95,128.37 0.87,126.80 3.10,124.35 5.33,121.89 7.95,120.86 10.57,119.83 11.25,119.77 11.93,119.71 12.60,119.87 13.26,120.03 13.84,120.39 14.42,120.76 14.85,121.29 15.29,121.82 15.53,122.46 15.77,123.10 15.79,123.78 15.81,124.47 15.62,125.12 15.42,125.78 15.02,126.34 14.63,126.90 14.08,127.30 13.52,127.70 12.87,127.91 12.22,128.11 11.53,128.10 10.85,128.09 10.20,127.85 9.56,127.62 9.02,127.20 8.49,126.77 8.11,126.20 7.74,125.62 7.57,124.96 7.40,124.30 7.45,123.61 7.50,122.93 7.77,122.30 8.04,121.67 8.49,121.16 8.94,120.64 9.54,120.30 10.13,119.96 10.80,119.83 11.47,119.70 12.15,119.78 12.83,119.87 13.45,120.17 14.06,120.47 14.55,120.95 15.04,121.43 15.35,122.04 15.65,122.66 15.75,123.33 15.85,124.01 15.72,124.68 15.60,125.36 15.27,125.96 14.93,126.55 14.43,127.01 13.92,127.48 13.29,127.75 12.67,128.02 12.67,128.02 12.67,128.02 10.56,128.85 8.45,129.68 6.46,130.87 4.47,132.06 2.40,133.18 0.33,134.29 -3.55,137.07 -7.44,139.85 -14.20,143.27 -20.96,146.69 -31.54,150.20 -42.12,153.72 -51.62,154.46 -61.11,155.21 -71.36,154.96 -81.62,154.71 -94.42,154.08 -107.23,153.45 -116.75,152.42 -126.27,151.39 -133.25,150.39 -140.23,149.38 -146.52,146.97 -152.80,144.55 -151.37,140.38 -149.93,136.20 -146.48,131.44 -143.02,126.69 -135.31,116.53 -127.60,106.37 -112.92,87.89 -98.23,69.41 -80.19,48.53 -62.15,27.65 -47.24,12.57 -32.34,-2.50 -32.00,-2.76 -31.67,-3.02 -31.28,-3.20 -30.89,-3.37 -30.47,-3.45 -30.05,-3.53 -29.63,-3.50 -29.20,-3.47 -28.79,-3.35 -28.39,-3.22 -28.02,-3.00 -27.66,-2.78 -27.36,-2.48 -27.05,-2.18 -26.83,-1.81 -26.61,-1.45 -26.49,-1.04 -26.36,-0.63 -26.33,-0.21 -26.31,0.21 -26.39,0.63 -26.46,1.05 -26.64,1.44 -26.81,1.83 -27.08,2.16 -27.34,2.50 -27.34,2.50 L -27.34,2.50 Z"></path></g><g transform="translate(458.80003356933594 250.8000030517578) rotate(0 3.199981689453125 15.199996948242188)" stroke="none"><path fill="#1e1e1e" d="M 1.26,4.01 Q 1.26,4.01 -3.16,5.19 -7.59,6.37 -13.71,8.82 -19.82,11.27 -25.99,13.68 -32.15,16.09 -37.27,18.22 -42.40,20.34 -44.84,21.84 -47.28,23.33 -49.14,26.00 -51.01,28.67 -52.04,33.59 -53.07,38.52 -53.59,41.63 -54.12,44.74 -54.49,47.31 -54.87,49.88 -55.00,52.54 -55.13,55.20 -55.15,57.74 -55.16,60.28 -55.11,62.48 -55.06,64.68 -54.37,67.55 -53.67,70.42 -52.06,73.24 -50.45,76.07 -48.58,78.73 -46.70,81.39 -44.33,83.71 -41.95,86.04 -39.66,87.58 -37.36,89.11 -34.77,89.82 -32.18,90.52 -29.07,91.38 -25.96,92.23 -23.14,92.75 -20.31,93.27 -17.30,93.72 -14.30,94.17 -11.77,94.28 -9.24,94.39 -7.70,92.15 -6.16,89.91 -4.63,82.42 -3.10,74.93 -2.09,68.26 -1.09,61.60 -0.35,55.55 0.38,49.50 0.74,41.95 1.10,34.41 1.30,27.96 1.50,21.52 1.16,15.67 0.81,9.83 0.00,2.29 -0.80,-5.23 -1.36,-12.19 -1.93,-19.14 -2.83,-24.73 -3.73,-30.32 -5.02,-35.88 -6.30,-41.43 -7.13,-45.48 -7.95,-49.53 -8.90,-52.49 -9.86,-55.45 -10.81,-58.03 -11.76,-60.60 -13.13,-62.49 -14.50,-64.39 -15.00,-65.02 -15.51,-65.66 -15.74,-66.14 -15.98,-66.62 -16.10,-67.15 -16.21,-67.68 -16.20,-68.22 -16.18,-68.75 -16.04,-69.27 -15.89,-69.79 -15.63,-70.26 -15.37,-70.73 -15.00,-71.13 -14.63,-71.52 -14.18,-71.81 -13.73,-72.11 -13.22,-72.28 -12.71,-72.46 -12.17,-72.51 -11.64,-72.56 -11.10,-72.48 -10.57,-72.40 -10.07,-72.20 -9.57,-71.99 -9.14,-71.67 -8.70,-71.36 -8.36,-70.94 -8.01,-70.53 -8.51,-67.82 -9.00,-65.10 -8.39,-62.89 -7.79,-60.68 -7.87,-57.51 -7.95,-54.34 -7.33,-46.55 -6.72,-38.76 -5.86,-31.00 -5.01,-23.23 -3.80,-15.84 -2.59,-8.45 -0.32,-0.12 1.94,8.20 3.37,14.40 4.79,20.61 5.83,25.31 6.86,30.01 7.85,33.56 8.84,37.10 9.85,39.36 10.85,41.62 12.47,45.07 14.09,48.52 15.20,50.51 16.30,52.51 18.17,55.09 20.03,57.68 21.83,60.42 23.63,63.16 25.54,64.66 27.45,66.16 29.56,67.52 31.67,68.87 36.80,70.18 41.94,71.48 44.29,71.93 46.64,72.39 49.27,72.60 51.90,72.82 54.23,72.87 56.57,72.93 58.74,71.38 60.90,69.82 61.43,69.03 61.96,68.23 62.72,67.65 63.47,67.07 64.38,66.76 65.28,66.45 66.23,66.44 67.19,66.43 68.10,66.73 69.00,67.03 69.77,67.60 70.53,68.18 71.07,68.97 71.61,69.75 71.87,70.67 72.14,71.59 72.09,72.54 72.05,73.50 71.70,74.39 71.35,75.28 70.74,76.01 70.12,76.74 69.31,77.24 68.49,77.74 67.56,77.95 66.63,78.16 65.68,78.06 64.73,77.96 63.86,77.57 62.99,77.17 62.29,76.52 61.60,75.87 61.14,75.03 60.69,74.19 60.53,73.25 60.37,72.30 60.52,71.36 60.67,70.42 61.11,69.57 61.55,68.72 62.24,68.06 62.93,67.40 63.79,66.99 64.66,66.59 65.61,66.48 66.55,66.37 67.49,66.57 68.42,66.77 69.24,67.25 70.07,67.74 70.69,68.47 71.31,69.19 71.67,70.08 72.03,70.96 72.09,71.91 72.14,72.87 71.89,73.79 71.65,74.71 71.65,74.71 71.65,74.71 69.84,77.13 68.02,79.55 64.74,81.44 61.46,83.32 58.85,83.47 56.24,83.61 53.72,83.50 51.20,83.39 45.75,82.73 40.30,82.08 36.28,81.65 32.27,81.22 29.38,80.33 26.50,79.44 24.42,78.24 22.35,77.04 19.89,74.72 17.43,72.39 15.97,70.69 14.51,68.99 12.80,65.88 11.09,62.77 9.51,59.85 7.94,56.93 7.07,54.21 6.19,51.50 5.20,47.72 4.22,43.93 3.52,41.29 2.82,38.65 1.95,35.01 1.09,31.36 -0.05,26.72 -1.20,22.07 -2.76,16.03 -4.32,9.99 -6.89,1.41 -9.47,-7.17 -11.02,-14.68 -12.57,-22.19 -13.86,-30.00 -15.16,-37.81 -16.37,-46.10 -17.58,-54.40 -17.44,-59.44 -17.30,-64.48 -16.50,-67.27 -15.71,-70.05 -15.61,-67.85 -15.51,-65.66 -15.74,-66.14 -15.98,-66.62 -16.10,-67.15 -16.21,-67.68 -16.20,-68.22 -16.18,-68.75 -16.04,-69.27 -15.89,-69.79 -15.63,-70.26 -15.37,-70.73 -15.00,-71.13 -14.63,-71.52 -14.18,-71.81 -13.73,-72.11 -13.22,-72.28 -12.71,-72.46 -12.17,-72.51 -11.64,-72.56 -11.10,-72.48 -10.57,-72.40 -10.07,-72.20 -9.57,-71.99 -9.14,-71.67 -8.70,-71.36 -8.36,-70.94 -8.01,-70.53 -7.45,-69.06 -6.89,-67.59 -5.98,-65.12 -5.07,-62.64 -4.42,-59.83 -3.78,-57.02 -3.14,-53.82 -2.50,-50.61 -1.74,-46.64 -0.98,-42.68 0.37,-36.95 1.72,-31.23 2.71,-25.43 3.69,-19.63 4.33,-12.76 4.96,-5.89 5.88,1.76 6.81,9.41 7.30,15.51 7.79,21.61 7.78,28.12 7.78,34.62 7.66,42.39 7.55,50.16 7.16,56.33 6.77,62.50 6.21,69.44 5.65,76.37 4.57,84.65 3.50,92.93 1.89,96.85 0.28,100.77 -1.81,102.09 -3.91,103.42 -6.92,103.40 -9.93,103.39 -12.79,103.08 -15.65,102.78 -18.84,102.26 -22.03,101.73 -25.12,101.05 -28.21,100.36 -31.46,99.46 -34.70,98.55 -38.39,97.28 -42.08,96.01 -44.84,93.99 -47.59,91.96 -50.59,89.15 -53.59,86.35 -55.71,83.42 -57.83,80.50 -60.21,76.67 -62.59,72.84 -63.71,68.73 -64.82,64.62 -64.70,62.30 -64.58,59.98 -64.43,57.28 -64.28,54.58 -64.02,51.42 -63.76,48.26 -63.21,45.78 -62.67,43.30 -62.10,39.96 -61.54,36.61 -60.79,33.21 -60.05,29.82 -59.04,27.06 -58.03,24.30 -56.51,22.39 -54.99,20.49 -52.75,18.90 -50.52,17.31 -47.68,16.00 -44.85,14.69 -39.73,12.39 -34.62,10.08 -28.59,7.47 -22.55,4.87 -16.22,2.00 -9.88,-0.85 -5.57,-2.43 -1.26,-4.01 -0.76,-4.11 -0.27,-4.20 0.23,-4.17 0.74,-4.14 1.22,-3.99 1.71,-3.85 2.15,-3.58 2.58,-3.32 2.94,-2.97 3.30,-2.61 3.57,-2.17 3.83,-1.74 3.99,-1.25 4.14,-0.77 4.17,-0.26 4.20,0.23 4.11,0.73 4.02,1.23 3.82,1.70 3.61,2.16 3.30,2.56 2.99,2.96 2.59,3.28 2.19,3.59 1.73,3.80 1.26,4.01 1.26,4.01 L 1.26,4.01 Z"></path></g><g stroke-linecap="round"><g transform="translate(124.40000915527344 434.80003356933594) rotate(0 255.60000610351562 -34)"><path d="M0.58 -0.77 C85.78 -12.27, 426.98 -56.82, 512.15 -68.15 M-0.57 1.45 C84.46 -9.94, 426.43 -55.14, 511.71 -66.69" stroke="#1e1e1e" stroke-width="2" fill="none"></path></g></g><mask></mask><g transform="translate(135.59999084472656 497.40000915527344) rotate(0 190.40000915527344 -5.600006103515625)" stroke="none"><path fill="#1e1e1e" d="M 0,-3.98 Q 0,-3.98 5.06,-3.80 10.12,-3.62 15.56,-3.25 21.00,-2.88 26.23,-2.69 31.46,-2.49 35.07,-2.52 38.68,-2.55 41.13,-2.72 43.59,-2.90 46.23,-3.04 48.88,-3.17 51.62,-3.28 54.35,-3.38 57.58,-3.40 60.82,-3.42 66.10,-3.21 71.38,-2.99 75.70,-2.84 80.02,-2.68 83.69,-2.70 87.36,-2.71 90.99,-2.74 94.62,-2.76 98.37,-3.43 102.12,-4.09 106.48,-4.65 110.83,-5.21 114.01,-5.50 117.18,-5.78 121.35,-5.92 125.53,-6.05 129.82,-6.23 134.12,-6.41 139.04,-6.42 143.97,-6.43 150.88,-6.39 157.80,-6.34 163.72,-6.29 169.64,-6.23 174.46,-6.18 179.27,-6.13 184.01,-6.32 188.75,-6.51 192.90,-6.61 197.05,-6.71 201.11,-6.77 205.18,-6.83 209.67,-6.81 214.16,-6.79 217.91,-6.89 221.65,-6.98 224.40,-7.18 227.14,-7.39 230.84,-7.41 234.53,-7.44 238.40,-7.42 242.27,-7.40 246.83,-7.53 251.38,-7.65 256.09,-7.90 260.79,-8.14 264.69,-8.32 268.59,-8.50 271.01,-8.98 273.42,-9.46 276.47,-9.73 279.51,-9.99 282.49,-10.35 285.48,-10.71 288.97,-10.85 292.46,-11.00 299.06,-11.55 305.65,-12.10 309.73,-12.34 313.80,-12.59 315.98,-12.92 318.16,-13.24 322.00,-13.96 325.83,-14.68 328.78,-14.78 331.72,-14.89 334.33,-14.98 336.93,-15.07 340.28,-15.29 343.63,-15.50 346.02,-15.98 348.42,-16.46 351.48,-16.76 354.53,-17.05 357.04,-17.16 359.54,-17.26 361.89,-17.55 364.23,-17.85 366.78,-18.11 369.32,-18.37 371.62,-18.45 373.92,-18.53 377.17,-18.62 380.42,-18.70 381.49,-18.52 382.56,-18.35 383.52,-17.84 384.47,-17.33 385.22,-16.55 385.97,-15.76 386.42,-14.77 386.88,-13.79 386.99,-12.71 387.11,-11.63 386.88,-10.57 386.65,-9.51 386.09,-8.58 385.53,-7.65 384.70,-6.95 383.87,-6.25 382.87,-5.85 381.86,-5.45 380.78,-5.39 379.69,-5.33 378.65,-5.62 377.60,-5.91 376.70,-6.52 375.81,-7.13 375.15,-7.99 374.49,-8.85 374.15,-9.88 373.80,-10.91 373.80,-11.99 373.80,-13.08 374.15,-14.11 374.49,-15.14 375.15,-16.00 375.81,-16.86 376.70,-17.47 377.60,-18.08 378.65,-18.37 379.69,-18.66 380.78,-18.60 381.86,-18.54 382.87,-18.14 383.87,-17.74 384.70,-17.04 385.53,-16.34 386.09,-15.41 386.65,-14.48 386.88,-13.42 387.11,-12.36 386.99,-11.28 386.88,-10.20 386.42,-9.22 385.97,-8.23 385.22,-7.44 384.47,-6.66 383.52,-6.15 382.56,-5.64 381.49,-5.47 380.42,-5.29 380.42,-5.29 380.42,-5.29 378.69,-5.30 376.96,-5.31 374.69,-5.40 372.42,-5.48 369.51,-5.47 366.59,-5.46 363.07,-5.30 359.54,-5.13 357.06,-5.23 354.57,-5.33 352.05,-5.48 349.54,-5.64 346.60,-5.46 343.67,-5.27 340.34,-5.46 337.01,-5.65 334.45,-5.70 331.89,-5.75 327.50,-5.79 323.11,-5.83 320.87,-5.69 318.64,-5.55 316.49,-5.61 314.34,-5.67 310.39,-5.28 306.45,-4.90 299.59,-3.97 292.74,-3.04 289.47,-2.94 286.20,-2.85 283.01,-2.64 279.83,-2.44 277.02,-2.45 274.21,-2.47 271.51,-2.37 268.82,-2.28 265.02,-2.18 261.21,-2.08 256.46,-1.67 251.70,-1.26 246.99,-0.92 242.27,-0.59 238.40,-0.57 234.53,-0.55 230.84,-0.57 227.15,-0.59 224.41,-0.79 221.67,-0.99 217.92,-1.07 214.18,-1.14 209.71,-1.09 205.24,-1.03 201.21,-1.01 197.19,-0.98 193.11,-0.88 189.03,-0.78 184.16,-0.50 179.29,-0.22 174.48,-0.14 169.67,-0.07 163.77,0.04 157.87,0.15 151.04,0.34 144.20,0.52 139.51,0.84 134.81,1.15 130.55,1.75 126.28,2.35 122.21,2.96 118.15,3.56 114.91,3.94 111.68,4.31 108.05,4.42 104.43,4.53 101.96,4.39 99.50,4.24 97.06,4.30 94.63,4.36 91.00,4.34 87.36,4.31 83.69,4.30 80.01,4.28 75.70,4.43 71.38,4.59 66.10,4.80 60.81,5.01 57.58,4.99 54.34,4.97 51.60,4.86 48.86,4.75 46.20,4.60 43.53,4.45 41.07,4.24 38.60,4.02 34.97,3.91 31.34,3.81 26.03,3.81 20.71,3.80 15.41,3.71 10.11,3.62 5.05,3.80 0,3.98 -0.47,3.92 -0.95,3.86 -1.40,3.69 -1.85,3.52 -2.24,3.25 -2.64,2.98 -2.96,2.62 -3.27,2.26 -3.50,1.83 -3.72,1.41 -3.84,0.94 -3.95,0.48 -3.95,-0.00 -3.95,-0.48 -3.84,-0.94 -3.72,-1.41 -3.50,-1.83 -3.27,-2.26 -2.96,-2.62 -2.64,-2.98 -2.24,-3.25 -1.85,-3.52 -1.40,-3.69 -0.95,-3.86 -0.47,-3.92 0.00,-3.98 0.00,-3.98 L 0,-3.98 Z"></path></g><g transform="translate(10 668.6000213623047) rotate(0 157.99999237060547 -6.4000244140625)" stroke="none"><path fill="#1e1e1e" d="M 0,-3.12 Q 0,-3.12 6.21,-3.05 12.42,-2.98 23.17,-2.47 33.92,-1.96 42.84,-1.50 51.75,-1.04 60.79,-0.83 69.83,-0.63 80.92,-1.45 92.01,-2.27 100.86,-3.30 109.71,-4.33 117.37,-5.45 125.03,-6.57 131.99,-7.50 138.96,-8.44 145.08,-9.52 151.21,-10.60 157.60,-11.30 163.99,-12.00 169.68,-12.53 175.37,-13.05 181.48,-13.50 187.60,-13.96 193.17,-14.38 198.75,-14.80 203.93,-14.98 209.12,-15.16 212.23,-15.44 215.34,-15.72 217.59,-15.98 219.84,-16.24 222.64,-16.40 225.45,-16.56 229.68,-16.86 233.92,-17.16 241.63,-17.48 249.34,-17.80 255.85,-17.90 262.36,-18.00 266.96,-18.02 271.57,-18.03 274.90,-18.21 278.24,-18.38 280.58,-18.60 282.92,-18.82 285.76,-18.95 288.60,-19.09 293.49,-18.92 298.37,-18.75 302.06,-18.76 305.75,-18.77 308.00,-18.95 310.26,-19.13 312.51,-19.39 314.76,-19.66 315.30,-19.59 315.83,-19.53 316.33,-19.34 316.84,-19.15 317.28,-18.84 317.72,-18.54 318.08,-18.13 318.44,-17.73 318.69,-17.25 318.94,-16.78 319.07,-16.26 319.19,-15.73 319.19,-15.20 319.19,-14.66 319.07,-14.13 318.94,-13.61 318.69,-13.14 318.44,-12.66 318.08,-12.26 317.72,-11.85 317.28,-11.55 316.84,-11.24 316.33,-11.05 315.83,-10.86 315.30,-10.80 314.76,-10.73 312.61,-10.43 310.46,-10.13 309.74,-10.15 309.03,-10.18 308.35,-10.42 307.68,-10.67 307.12,-11.13 306.56,-11.58 306.17,-12.18 305.79,-12.79 305.61,-13.49 305.44,-14.19 305.50,-14.91 305.56,-15.62 305.85,-16.28 306.13,-16.94 306.61,-17.48 307.10,-18.01 307.72,-18.36 308.35,-18.72 309.06,-18.85 309.76,-18.98 310.48,-18.89 311.19,-18.79 311.83,-18.47 312.48,-18.14 312.98,-17.63 313.49,-17.12 313.81,-16.48 314.13,-15.83 314.22,-15.12 314.32,-14.41 314.18,-13.70 314.04,-13.00 313.69,-12.37 313.33,-11.75 312.80,-11.27 312.26,-10.79 311.60,-10.51 310.94,-10.22 310.22,-10.17 309.50,-10.11 308.80,-10.28 308.11,-10.46 307.50,-10.85 306.90,-11.24 306.45,-11.80 306.00,-12.36 305.75,-13.04 305.51,-13.71 305.49,-14.43 305.47,-15.15 305.68,-15.84 305.90,-16.52 306.32,-17.11 306.74,-17.69 307.32,-18.11 307.91,-18.53 308.60,-18.74 309.28,-18.95 309.28,-18.95 309.28,-18.95 312.02,-19.30 314.76,-19.66 315.30,-19.59 315.83,-19.53 316.33,-19.34 316.84,-19.15 317.28,-18.84 317.72,-18.54 318.08,-18.13 318.44,-17.73 318.69,-17.25 318.94,-16.78 319.07,-16.26 319.19,-15.73 319.19,-15.20 319.19,-14.66 319.07,-14.14 318.94,-13.61 318.69,-13.14 318.44,-12.66 318.08,-12.26 317.72,-11.85 317.28,-11.55 316.84,-11.24 316.34,-11.05 315.83,-10.86 315.30,-10.80 314.76,-10.73 312.51,-11.00 310.26,-11.26 308.00,-11.44 305.75,-11.62 302.06,-11.63 298.38,-11.63 293.50,-11.46 288.62,-11.28 285.79,-11.41 282.97,-11.53 280.64,-11.72 278.31,-11.91 274.99,-12.02 271.67,-12.13 267.10,-11.99 262.53,-11.85 256.12,-11.59 249.71,-11.32 242.18,-10.79 234.65,-10.25 230.07,-9.62 225.49,-8.99 222.71,-9.12 219.94,-9.26 217.71,-9.45 215.49,-9.64 212.39,-9.77 209.30,-9.90 204.23,-9.72 199.15,-9.54 193.57,-9.12 187.99,-8.70 181.92,-8.24 175.86,-7.79 170.21,-7.26 164.57,-6.74 158.35,-6.05 152.13,-5.37 145.90,-4.26 139.68,-3.16 132.74,-2.21 125.81,-1.27 118.08,-0.11 110.34,1.03 101.38,2.09 92.42,3.16 81.07,4.03 69.72,4.89 60.60,4.74 51.49,4.58 42.58,4.19 33.67,3.80 23.04,3.39 12.41,2.98 6.20,3.05 0,3.12 -0.37,3.07 -0.74,3.03 -1.09,2.90 -1.45,2.76 -1.76,2.55 -2.07,2.33 -2.32,2.05 -2.57,1.77 -2.74,1.44 -2.92,1.10 -3.01,0.74 -3.10,0.37 -3.10,-0.00 -3.10,-0.37 -3.01,-0.74 -2.92,-1.10 -2.74,-1.44 -2.57,-1.77 -2.32,-2.05 -2.07,-2.33 -1.76,-2.55 -1.45,-2.76 -1.09,-2.90 -0.74,-3.03 -0.37,-3.07 0.00,-3.12 0.00,-3.12 L 0,-3.12 Z"></path></g></svg>