<svg version="1.1" xmlns="http://www.w3.org/2000/svg" viewBox="0 0 630.4000244140625 416.03367100884407" width="630.4000244140625" height="416.03367100884407" class="excalidraw-svg"><!-- svg-source:excalidraw --><metadata></metadata><defs><style class="style-fonts">
      </style></defs><rect x="0" y="0" width="630.4000244140625" height="416.03367100884407" fill="#ffffff"></rect><g transform="translate(42 240.43366490532844) rotate(0 3.2000045776367188 -2.4000091552734375)" stroke="none"><path fill="#1e1e1e" d="M -5.04,-1.12 Q -5.04,-1.12 -4.63,-3.20 -4.23,-5.29 -2.85,-8.17 -1.46,-11.05 0.95,-12.25 3.38,-13.45 7.16,-11.81 10.94,-10.18 12.03,-7.20 13.12,-4.23 13.18,-2.04 13.24,0.14 12.04,2.70 10.83,5.27 6.37,6.86 1.92,8.45 -0.96,6.09 -3.85,3.74 -4.27,0.44 -4.68,-2.84 -3.73,-5.10 -2.79,-7.35 -0.52,-9.42 1.74,-11.48 5.33,-10.80 8.92,-10.11 10.40,-8.53 11.88,-6.96 12.19,-3.90 12.50,-0.85 11.47,2.23 10.45,5.33 8.26,7.30 6.06,9.27 3.07,9.05 0.09,8.83 -1.91,7.90 -3.92,6.98 -5.88,3.01 -7.83,-0.96 -7.83,-2.12 -7.84,-3.28 -7.47,-4.38 -7.10,-5.48 -6.40,-6.41 -5.70,-7.33 -4.74,-7.99 -3.78,-8.64 -2.66,-8.95 -1.54,-9.27 -0.38,-9.21 0.76,-9.15 1.84,-8.72 2.92,-8.29 3.81,-7.54 4.70,-6.79 5.30,-5.80 5.90,-4.81 6.15,-3.67 6.40,-2.54 6.28,-1.38 6.16,-0.23 5.67,0.81 5.19,1.87 4.39,2.71 3.59,3.56 2.57,4.10 1.55,4.65 0.40,4.84 -0.74,5.03 -1.88,4.85 -3.03,4.66 -4.05,4.12 -5.08,3.58 -5.88,2.74 -6.68,1.90 -7.17,0.84 -7.66,-0.20 -7.79,-1.35 -7.92,-2.51 -7.67,-3.64 -7.42,-4.78 -6.83,-5.77 -6.23,-6.77 -5.35,-7.52 -4.46,-8.28 -3.39,-8.71 -2.31,-9.14 -1.15,-9.20 0.00,-9.27 1.12,-8.96 2.24,-8.65 3.20,-8.00 4.16,-7.35 4.87,-6.43 5.57,-5.51 5.94,-4.41 6.32,-3.31 6.32,-3.31 6.32,-3.31 6.78,-2.63 7.25,-1.94 4.16,-1.60 1.07,-1.26 4.19,-1.51 7.31,-1.76 4.22,-2.52 1.13,-3.27 3.60,-3.13 6.07,-2.98 5.55,-0.93 5.04,1.12 4.83,1.70 4.62,2.29 4.28,2.81 3.94,3.33 3.48,3.75 3.02,4.18 2.48,4.48 1.94,4.78 1.34,4.94 0.73,5.10 0.11,5.12 -0.50,5.13 -1.11,5.00 -1.71,4.86 -2.27,4.59 -2.83,4.31 -3.30,3.91 -3.78,3.51 -4.15,3.00 -4.51,2.50 -4.74,1.92 -4.98,1.35 -5.07,0.73 -5.16,0.11 -5.10,-0.50 -5.04,-1.12 -5.04,-1.12 L -5.04,-1.12 Z"></path></g><g stroke-linecap="round"><g transform="translate(50.80000305175781 235.63364659478157) rotate(0 64.4000015258789 -59.19999694824219)"><path d="M-0.71 -0.34 C7.22 -13.31, 25.62 -58.53, 47.21 -78.13 C68.79 -97.74, 115.31 -111.07, 128.8 -117.95 M1.11 -1.57 C9 -14.82, 25.53 -59.95, 46.68 -79.7 C67.84 -99.45, 114.47 -113.53, 128.03 -120.06" stroke="#1e1e1e" stroke-width="2" fill="none"></path></g><g transform="translate(50.80000305175781 235.63364659478157) rotate(0 64.4000015258789 -59.19999694824219)"><path d="M109.43 -103.36 C113.86 -106.35, 121.16 -112.15, 128.03 -120.06 M109.43 -103.36 C115.46 -109.38, 121.91 -115.12, 128.03 -120.06" stroke="#1e1e1e" stroke-width="2" fill="none"></path></g><g transform="translate(50.80000305175781 235.63364659478157) rotate(0 64.4000015258789 -59.19999694824219)"><path d="M103.05 -119.23 C109.13 -117.95, 118.13 -119.52, 128.03 -120.06 M103.05 -119.23 C111.14 -119.84, 119.75 -120.23, 128.03 -120.06" stroke="#1e1e1e" stroke-width="2" fill="none"></path></g></g><mask></mask><g stroke-linecap="round"><g transform="translate(49.20000457763672 239.63364659478157) rotate(0 78.39999771118164 37.600006103515625)"><path d="M-0.84 0.27 C9.11 11.45, 34.08 55.16, 60.24 67.84 C86.4 80.52, 140.18 75.26, 156.12 76.36 M0.92 -0.64 C10.61 10.61, 33.32 56.33, 59 68.87 C84.68 81.42, 138.89 73.59, 155 74.63" stroke="#1e1e1e" stroke-width="2" fill="none"></path></g><g transform="translate(49.20000457763672 239.63364659478157) rotate(0 78.39999771118164 37.600006103515625)"><path d="M131.77 83.86 C140.2 79.9, 146.19 76.51, 155 74.63 M131.77 83.86 C141.26 80.41, 150.86 75.78, 155 74.63" stroke="#1e1e1e" stroke-width="2" fill="none"></path></g><g transform="translate(49.20000457763672 239.63364659478157) rotate(0 78.39999771118164 37.600006103515625)"><path d="M131.27 66.77 C139.98 68.72, 146.14 71.25, 155 74.63 M131.27 66.77 C140.84 70.11, 150.63 72.26, 155 74.63" stroke="#1e1e1e" stroke-width="2" fill="none"></path></g></g><mask></mask><g transform="translate(188.40000915527344 117.23365269829719) rotate(0 1.1999969482421875 -4.8000030517578125)" stroke="none"><path fill="#1e1e1e" d="M -5.12,-0.56 Q -5.12,-0.56 -4.95,-2.65 -4.78,-4.73 -4.34,-6.96 -3.90,-9.18 -3.93,-9.08 -3.96,-8.98 -3.75,-9.62 -3.54,-10.26 -3.19,-10.83 -2.83,-11.40 -2.35,-11.87 -1.86,-12.34 -1.28,-12.68 -0.70,-13.02 -0.05,-13.21 0.58,-13.40 1.25,-13.43 1.93,-13.47 2.59,-13.33 3.25,-13.20 3.86,-12.92 4.47,-12.63 4.99,-12.21 5.52,-11.79 5.92,-11.25 6.33,-10.71 6.60,-10.10 6.87,-9.48 6.98,-8.81 7.09,-8.15 7.04,-7.48 6.99,-6.81 6.97,-3.88 6.95,-0.96 5.88,2.27 4.82,5.50 1.55,6.26 -1.72,7.02 -4.35,4.26 -6.99,1.49 -6.61,-1.34 -6.24,-4.19 -4.25,-6.46 -2.26,-8.74 2.73,-8.30 7.73,-7.86 9.16,-5.47 10.59,-3.08 9.04,0.64 7.50,4.36 4.77,5.09 2.05,5.82 -0.20,5.03 -2.45,4.23 -4.57,0.46 -6.69,-3.30 -7.28,-5.52 -7.86,-7.73 -7.99,-8.31 -8.12,-8.89 -8.29,-9.73 -8.46,-10.56 -8.42,-11.41 -8.39,-12.26 -8.15,-13.08 -7.91,-13.90 -7.49,-14.64 -7.06,-15.37 -6.47,-15.99 -5.88,-16.60 -5.16,-17.05 -4.44,-17.51 -3.63,-17.78 -2.82,-18.05 -1.98,-18.11 -1.13,-18.18 -0.29,-18.04 0.54,-17.91 1.33,-17.57 2.11,-17.24 2.79,-16.73 3.47,-16.21 4.01,-15.55 4.54,-14.89 4.91,-14.12 5.27,-13.35 5.31,-13.38 5.35,-13.41 6.06,-12.51 6.76,-11.61 7.15,-10.53 7.53,-9.45 7.54,-8.31 7.56,-7.16 7.21,-6.07 6.86,-4.98 6.18,-4.06 5.51,-3.14 4.57,-2.49 3.63,-1.83 2.53,-1.51 1.44,-1.19 0.29,-1.23 -0.84,-1.28 -1.91,-1.69 -2.98,-2.09 -3.86,-2.82 -4.74,-3.55 -5.35,-4.52 -5.95,-5.49 -6.21,-6.60 -6.47,-7.72 -6.37,-8.86 -6.26,-9.99 -5.79,-11.04 -5.33,-12.08 -4.56,-12.93 -3.78,-13.77 -2.78,-14.32 -1.78,-14.87 -0.65,-15.07 0.47,-15.27 1.60,-15.10 2.73,-14.93 3.75,-14.41 4.76,-13.89 5.56,-13.07 6.36,-12.26 6.86,-11.22 7.35,-10.19 7.49,-9.06 7.63,-7.92 7.40,-6.80 7.17,-5.68 6.60,-4.69 6.02,-3.71 5.16,-2.95 4.30,-2.20 3.25,-1.76 2.19,-1.32 1.05,-1.24 -0.08,-1.16 -1.19,-1.45 -2.30,-1.74 -3.25,-2.37 -4.21,-3.00 -4.21,-3.00 -4.21,-3.00 -6.16,-5.95 -8.12,-8.89 -8.29,-9.73 -8.46,-10.56 -8.42,-11.41 -8.39,-12.26 -8.15,-13.08 -7.91,-13.90 -7.49,-14.63 -7.06,-15.37 -6.47,-15.99 -5.88,-16.60 -5.16,-17.05 -4.44,-17.51 -3.63,-17.78 -2.83,-18.05 -1.98,-18.11 -1.13,-18.18 -0.29,-18.04 0.54,-17.91 1.33,-17.57 2.11,-17.24 2.79,-16.73 3.47,-16.21 4.01,-15.55 4.54,-14.89 4.91,-14.12 5.27,-13.36 5.38,-12.76 5.49,-12.16 5.34,-9.48 5.19,-6.79 2.37,-6.64 -0.45,-6.48 -0.54,-3.39 -0.63,-0.29 2.46,-0.16 5.57,-0.03 3.34,-1.62 1.11,-3.22 -1.57,-3.75 -4.25,-4.28 -4.11,-6.63 -3.96,-8.98 -3.75,-9.62 -3.54,-10.26 -3.19,-10.83 -2.83,-11.40 -2.35,-11.87 -1.86,-12.34 -1.28,-12.68 -0.70,-13.02 -0.05,-13.21 0.58,-13.40 1.25,-13.43 1.93,-13.47 2.59,-13.33 3.25,-13.20 3.86,-12.92 4.47,-12.63 4.99,-12.21 5.52,-11.79 5.92,-11.25 6.33,-10.71 6.60,-10.10 6.87,-9.48 6.98,-8.81 7.09,-8.15 7.04,-7.48 6.99,-6.81 6.35,-5.17 5.70,-3.54 5.41,-1.48 5.12,0.56 4.98,1.17 4.83,1.77 4.55,2.33 4.27,2.88 3.86,3.35 3.45,3.82 2.94,4.18 2.44,4.54 1.86,4.76 1.28,4.99 0.66,5.07 0.05,5.15 -0.56,5.08 -1.18,5.01 -1.76,4.80 -2.34,4.58 -2.86,4.24 -3.37,3.89 -3.79,3.43 -4.21,2.97 -4.50,2.42 -4.80,1.87 -4.95,1.27 -5.11,0.67 -5.11,0.05 -5.12,-0.56 -5.12,-0.56 L -5.12,-0.56 Z"></path></g><g transform="translate(213.20001220703125 314.8336588018128) rotate(0 3.5999908447265625 -0.0000152587890625)" stroke="none"><path fill="#1e1e1e" d="M -2.50,-4.39 Q -2.50,-4.39 -0.93,-5.38 0.63,-6.38 4.76,-6.59 8.89,-6.80 10.68,-4.47 12.47,-2.14 12.16,0.76 11.86,3.68 10.45,5.44 9.04,7.21 6.01,7.00 2.98,6.79 0.95,4.61 -1.07,2.43 -1.27,0.12 -1.47,-2.17 -1.48,-2.22 -1.49,-2.27 -1.40,-3.03 -1.31,-3.78 -1.05,-4.49 -0.79,-5.20 -0.36,-5.83 0.06,-6.46 0.62,-6.96 1.19,-7.47 1.86,-7.83 2.52,-8.19 3.26,-8.37 3.99,-8.56 4.75,-8.56 5.51,-8.57 6.25,-8.39 6.99,-8.22 7.66,-7.87 8.34,-7.52 8.91,-7.02 9.48,-6.52 9.91,-5.90 10.35,-5.28 10.62,-4.57 10.90,-3.87 10.99,-3.11 11.09,-2.36 10.51,1.14 9.93,4.65 5.10,6.45 0.26,8.25 -0.77,6.49 -1.80,4.73 -2.28,4.09 -2.77,3.45 -3.08,2.71 -3.39,1.97 -3.52,1.18 -3.65,0.38 -3.59,-0.41 -3.52,-1.21 -3.27,-1.97 -3.01,-2.73 -2.58,-3.41 -2.15,-4.09 -1.57,-4.65 -0.99,-5.20 -0.30,-5.60 0.39,-6.01 1.16,-6.23 1.93,-6.45 2.73,-6.48 3.54,-6.52 4.32,-6.35 5.11,-6.19 5.84,-5.85 6.56,-5.50 7.18,-5.00 7.81,-4.49 4.65,-5.43 1.50,-6.37 2.57,-6.44 3.65,-6.51 4.69,-6.23 5.73,-5.95 6.63,-5.35 7.53,-4.76 8.19,-3.91 8.85,-3.05 9.21,-2.04 9.56,-1.02 9.57,0.05 9.58,1.13 9.25,2.15 8.92,3.18 8.27,4.04 7.63,4.91 6.74,5.52 5.86,6.14 4.82,6.44 3.78,6.73 2.71,6.69 1.63,6.64 0.62,6.25 -0.37,5.86 -1.20,5.17 -2.03,4.48 -2.59,3.56 -3.16,2.65 -3.40,1.59 -3.64,0.54 -3.54,-0.52 -3.43,-1.59 -2.99,-2.57 -2.55,-3.56 -1.81,-4.35 -1.08,-5.14 -0.13,-5.65 0.81,-6.17 1.87,-6.35 2.93,-6.54 4.00,-6.37 5.06,-6.21 6.02,-5.71 6.98,-5.22 7.73,-4.44 8.48,-3.67 8.94,-2.69 9.40,-1.72 9.53,-0.65 9.65,0.41 9.43,1.47 9.21,2.52 8.67,3.45 8.12,4.38 7.30,5.09 6.49,5.79 2.34,5.26 -1.80,4.73 -2.28,4.09 -2.77,3.45 -3.08,2.71 -3.39,1.97 -3.52,1.18 -3.65,0.38 -3.59,-0.41 -3.52,-1.21 -3.27,-1.97 -3.01,-2.73 -2.58,-3.41 -2.15,-4.09 -1.57,-4.65 -0.99,-5.20 -0.30,-5.60 0.39,-6.01 1.16,-6.23 1.93,-6.45 2.73,-6.48 3.54,-6.52 4.32,-6.35 5.11,-6.19 5.84,-5.85 6.56,-5.50 7.18,-5.00 7.81,-4.49 5.94,-3.37 4.07,-2.26 1.29,-2.27 -1.49,-2.27 -1.40,-3.03 -1.31,-3.78 -1.05,-4.49 -0.79,-5.20 -0.36,-5.83 0.06,-6.46 0.62,-6.96 1.19,-7.47 1.85,-7.83 2.52,-8.19 3.26,-8.37 3.99,-8.56 4.75,-8.56 5.51,-8.57 6.25,-8.39 6.99,-8.22 7.66,-7.87 8.34,-7.52 8.91,-7.02 9.48,-6.52 9.91,-5.90 10.35,-5.28 10.62,-4.57 10.90,-3.87 10.99,-3.11 11.09,-2.36 9.36,-2.28 7.63,-2.20 4.61,-0.59 1.59,1.01 3.70,1.85 5.80,2.70 4.15,3.54 2.50,4.39 1.94,4.62 1.38,4.86 0.78,4.95 0.18,5.05 -0.42,5.00 -1.03,4.95 -1.61,4.75 -2.18,4.55 -2.70,4.23 -3.21,3.90 -3.63,3.46 -4.05,3.02 -4.35,2.49 -4.66,1.96 -4.82,1.37 -4.99,0.78 -5.01,0.17 -5.03,-0.42 -4.91,-1.02 -4.79,-1.62 -4.52,-2.17 -4.26,-2.72 -3.87,-3.19 -3.48,-3.66 -2.99,-4.02 -2.50,-4.39 -2.50,-4.39 L -2.50,-4.39 Z"></path></g><g transform="translate(384.3999938964844 191.63364659478157) rotate(0 3.600006103515625 0.8000030517578125)" stroke="none"><path fill="#1e1e1e" d="M -4.47,-2.23 Q -4.47,-2.23 -2.17,-4.18 0.11,-6.12 2.92,-5.78 5.73,-5.44 7.12,-3.13 8.52,-0.82 7.63,2.53 6.75,5.89 3.44,6.28 0.14,6.68 -2.45,4.94 -5.04,3.20 -5.55,1.00 -6.05,-1.19 -5.51,-4.02 -4.96,-6.84 -2.50,-8.40 -0.05,-9.95 3.90,-9.07 7.86,-8.19 9.62,-6.29 11.38,-4.39 12.47,-2.03 13.56,0.31 13.61,3.30 13.65,6.28 12.42,5.59 11.19,4.89 11.10,5.71 11.01,6.53 10.73,7.30 10.45,8.07 9.99,8.75 9.53,9.44 8.92,9.99 8.31,10.54 7.58,10.93 6.86,11.32 6.06,11.52 5.27,11.73 4.45,11.74 3.62,11.75 2.82,11.56 2.02,11.37 1.29,11.00 0.56,10.62 -0.05,10.09 -0.67,9.55 -1.15,8.88 -1.62,8.20 -1.92,7.44 -2.22,6.67 -2.33,5.86 -2.44,5.04 -1.37,7.49 -0.30,9.93 -0.97,9.05 -1.64,8.17 -1.99,7.13 -2.35,6.08 -2.35,4.98 -2.35,3.87 -2.00,2.83 -1.65,1.78 -0.98,0.90 -0.32,0.02 0.59,-0.59 1.50,-1.21 2.56,-1.51 3.62,-1.80 4.73,-1.74 5.83,-1.69 6.85,-1.28 7.88,-0.87 8.72,-0.16 9.56,0.55 10.13,1.49 10.70,2.44 10.94,3.51 11.18,4.59 11.06,5.69 10.95,6.78 10.48,7.79 10.02,8.79 9.26,9.59 8.51,10.39 7.53,10.91 6.56,11.43 5.47,11.61 4.38,11.79 3.29,11.61 2.20,11.44 1.23,10.92 0.25,10.40 -0.50,9.60 -1.26,8.80 -1.72,7.80 -2.19,6.80 -2.31,5.70 -2.43,4.61 -2.19,3.53 -1.96,2.45 -1.39,1.50 -0.82,0.56 0.01,-0.15 0.85,-0.86 1.87,-1.27 2.90,-1.68 4.00,-1.74 5.10,-1.80 6.16,-1.51 7.23,-1.22 9.21,1.83 11.19,4.89 11.10,5.71 11.01,6.53 10.73,7.30 10.45,8.07 9.99,8.75 9.53,9.43 8.92,9.99 8.31,10.54 7.58,10.93 6.86,11.32 6.06,11.52 5.27,11.73 4.45,11.74 3.62,11.75 2.82,11.56 2.02,11.37 1.29,11.00 0.56,10.62 -0.05,10.09 -0.67,9.55 -1.15,8.88 -1.62,8.21 -1.92,7.44 -2.22,6.67 -2.33,5.86 -2.44,5.04 -1.36,3.41 -0.28,1.78 1.86,-0.21 4.01,-2.21 1.34,-2.04 -1.31,-1.87 0.20,0.28 1.72,2.44 3.09,2.34 4.47,2.23 4.14,2.74 3.81,3.24 3.36,3.65 2.92,4.06 2.39,4.35 1.86,4.64 1.28,4.80 0.70,4.95 0.09,4.96 -0.50,4.98 -1.09,4.84 -1.68,4.71 -2.22,4.44 -2.76,4.17 -3.22,3.78 -3.68,3.39 -4.03,2.90 -4.38,2.41 -4.61,1.85 -4.83,1.29 -4.92,0.69 -5.00,0.09 -4.94,-0.50 -4.88,-1.10 -4.68,-1.67 -4.47,-2.23 -4.47,-2.23 L -4.47,-2.23 Z"></path></g><g stroke-linecap="round"><g transform="translate(391.6000061035156 193.2336526982972) rotate(0 60.80000305175781 -57.19999694824219)"><path d="M0.02 0.52 C6.09 -13.96, 15.5 -67, 35.75 -86.06 C55.99 -105.12, 107.18 -108.94, 121.49 -113.84 M-1.43 -0.25 C4.53 -15.19, 14.31 -68.73, 34.66 -88 C55.01 -107.28, 106.13 -111.41, 120.66 -115.88" stroke="#1e1e1e" stroke-width="2" fill="none"></path></g><g transform="translate(391.6000061035156 193.2336526982972) rotate(0 60.80000305175781 -57.19999694824219)"><path d="M99.38 -102.77 C105.27 -106.35, 110.09 -109.27, 120.66 -115.88 M99.38 -102.77 C106.41 -106.73, 114.93 -112.3, 120.66 -115.88" stroke="#1e1e1e" stroke-width="2" fill="none"></path></g><g transform="translate(391.6000061035156 193.2336526982972) rotate(0 60.80000305175781 -57.19999694824219)"><path d="M95.93 -119.52 C102.77 -119.07, 108.41 -117.96, 120.66 -115.88 M95.93 -119.52 C104.16 -117.64, 113.87 -117.39, 120.66 -115.88" stroke="#1e1e1e" stroke-width="2" fill="none"></path></g></g><mask></mask><g stroke-linecap="round"><g transform="translate(388.3999938964844 197.2336526982972) rotate(0 69.60002136230469 -2.8000030517578125)"><path d="M0 -1.02 C23.03 -1.86, 115.52 -5.11, 138.71 -6.03 M-1.46 1.07 C21.32 0.47, 114.21 -3.59, 137.5 -4.72" stroke="#1e1e1e" stroke-width="2" fill="none"></path></g><g transform="translate(388.3999938964844 197.2336526982972) rotate(0 69.60002136230469 -2.8000030517578125)"><path d="M114.42 4.89 C120.72 0.77, 129.6 -1.87, 137.5 -4.72 M114.42 4.89 C119.37 3.15, 124.69 0.69, 137.5 -4.72" stroke="#1e1e1e" stroke-width="2" fill="none"></path></g><g transform="translate(388.3999938964844 197.2336526982972) rotate(0 69.60002136230469 -2.8000030517578125)"><path d="M113.64 -12.2 C120.07 -10.46, 129.22 -7.24, 137.5 -4.72 M113.64 -12.2 C118.65 -10.19, 124.14 -8.91, 137.5 -4.72" stroke="#1e1e1e" stroke-width="2" fill="none"></path></g></g><mask></mask><g stroke-linecap="round"><g transform="translate(386.8000183105469 195.63364659478157) rotate(0 67.59999084472656 64.80000305175781)"><path d="M0.09 -0.3 C7.1 14.13, 18.56 64.67, 41.16 86.14 C63.76 107.61, 120.07 121.24, 135.67 128.5 M-1.33 -1.51 C5.71 12.61, 18.07 62.51, 40.82 84.3 C63.57 106.09, 119.49 121.48, 135.15 129.24" stroke="#1e1e1e" stroke-width="2" fill="none"></path></g><g transform="translate(386.8000183105469 195.63364659478157) rotate(0 67.59999084472656 64.80000305175781)"><path d="M110.16 128.62 C115.2 130.68, 122.16 129.66, 135.15 129.24 M110.16 128.62 C114.59 128.83, 121.05 128.66, 135.15 129.24" stroke="#1e1e1e" stroke-width="2" fill="none"></path></g><g transform="translate(386.8000183105469 195.63364659478157) rotate(0 67.59999084472656 64.80000305175781)"><path d="M116.4 112.7 C120 118.3, 125.57 120.82, 135.15 129.24 M116.4 112.7 C119.47 116.24, 124.63 119.38, 135.15 129.24" stroke="#1e1e1e" stroke-width="2" fill="none"></path></g></g><mask></mask><g transform="translate(527.6000366210938 79.63364659478157) rotate(0 -0.4000244140625 -0.8000030517578125)" stroke="none"><path fill="#1e1e1e" d="M -4.62,1.16 Q -4.62,1.16 -4.84,0.44 -5.06,-0.27 -5.04,-1.02 -5.03,-1.78 -4.77,-2.48 -4.51,-3.19 -4.04,-3.78 -3.57,-4.37 -2.94,-4.77 -2.31,-5.18 -1.58,-5.37 -0.85,-5.55 -0.10,-5.49 0.64,-5.43 1.34,-5.14 2.03,-4.84 2.59,-4.34 3.15,-3.84 3.52,-3.19 3.90,-2.53 4.04,-1.79 4.18,-1.06 4.08,-0.31 3.99,0.43 3.65,1.10 3.32,1.78 2.79,2.31 2.26,2.84 1.59,3.18 0.91,3.52 0.17,3.62 -0.57,3.73 -1.31,3.59 -2.05,3.45 -2.70,3.08 -3.36,2.71 -3.86,2.15 -4.37,1.59 -4.67,0.90 -4.97,0.21 -5.03,-0.53 -5.09,-1.28 -4.91,-2.01 -4.73,-2.74 -4.33,-3.38 -3.93,-4.01 -3.34,-4.48 -2.76,-4.96 -2.05,-5.22 -1.35,-5.48 -0.59,-5.50 0.15,-5.53 0.87,-5.31 1.59,-5.09 2.20,-4.65 2.81,-4.21 3.26,-3.60 3.70,-2.99 3.70,-2.99 3.70,-3.00 4.00,-2.51 4.31,-2.02 4.49,-1.48 4.67,-0.93 4.71,-0.36 4.75,0.20 4.66,0.77 4.57,1.34 4.34,1.86 4.11,2.39 3.77,2.85 3.42,3.31 2.97,3.67 2.53,4.03 2.01,4.27 1.49,4.52 0.92,4.63 0.36,4.74 -0.20,4.72 -0.78,4.69 -1.33,4.53 -1.88,4.37 -2.37,4.08 -2.87,3.79 -3.28,3.39 -3.70,2.99 -4.16,2.08 L -4.62,1.16 Z"></path></g><g transform="translate(543.6000366210938 195.63364659478157) rotate(0 0.00005000000000165983 0.00005000000000165983)" stroke="none"><path fill="#1e1e1e" d="M 3.14,-3.14 Q 3.14,-3.14 3.55,-2.55 3.97,-1.97 4.18,-1.28 4.40,-0.59 4.38,0.11 4.36,0.83 4.11,1.51 3.86,2.18 3.41,2.74 2.96,3.30 2.36,3.69 1.75,4.07 1.05,4.25 0.36,4.42 -0.35,4.36 -1.07,4.30 -1.73,4.02 -2.39,3.74 -2.92,3.26 -3.46,2.78 -3.81,2.15 -4.16,1.53 -4.30,0.82 -4.43,0.11 -4.34,-0.59 -4.24,-1.30 -3.92,-1.94 -3.60,-2.59 -3.09,-3.09 -2.59,-3.60 -1.94,-3.92 -1.30,-4.24 -0.59,-4.34 0.12,-4.43 0.82,-4.30 1.53,-4.16 2.15,-3.81 2.78,-3.46 3.26,-2.92 3.74,-2.39 4.02,-1.73 4.31,-1.07 4.36,-0.35 4.42,0.36 4.25,1.05 4.07,1.75 3.69,2.36 3.30,2.96 2.74,3.41 2.18,3.86 1.51,4.11 0.83,4.36 0.11,4.38 -0.60,4.40 -1.28,4.18 -1.97,3.97 -2.55,3.55 -3.14,3.13 -3.14,3.14 -3.14,3.14 -3.47,2.71 -3.80,2.29 -4.02,1.80 -4.24,1.32 -4.33,0.79 -4.43,0.26 -4.40,-0.26 -4.36,-0.80 -4.20,-1.31 -4.04,-1.82 -3.77,-2.28 -3.49,-2.73 -3.11,-3.11 -2.73,-3.49 -2.28,-3.77 -1.82,-4.05 -1.31,-4.20 -0.80,-4.36 -0.26,-4.40 0.26,-4.43 0.79,-4.33 1.32,-4.24 1.80,-4.02 2.29,-3.80 2.71,-3.47 3.14,-3.14 3.14,-3.14 L 3.14,-3.14 Z"></path></g><g transform="translate(546 328.4336343877503) rotate(0 -0.399993896484375 0)" stroke="none"><path fill="#1e1e1e" d="M -0.45,4.54 Q -0.45,4.54 -1.18,4.42 -1.91,4.30 -2.56,3.96 -3.21,3.61 -3.71,3.08 -4.22,2.55 -4.53,1.88 -4.84,1.21 -4.92,0.48 -4.99,-0.24 -4.84,-0.96 -4.68,-1.68 -4.30,-2.31 -3.92,-2.94 -3.36,-3.41 -2.80,-3.89 -2.12,-4.16 -1.43,-4.44 -0.70,-4.47 0.03,-4.51 0.74,-4.32 1.44,-4.12 2.05,-3.71 2.66,-3.30 3.11,-2.71 3.55,-2.12 3.79,-1.43 4.02,-0.73 4.02,0.00 4.02,0.73 3.79,1.43 3.55,2.13 3.11,2.71 2.66,3.30 2.05,3.71 1.44,4.12 0.73,4.32 0.03,4.51 -0.70,4.47 -1.43,4.43 -2.12,4.16 -2.80,3.89 -3.36,3.41 -3.92,2.94 -4.30,2.31 -4.68,1.68 -4.84,0.96 -4.99,0.24 -4.92,-0.48 -4.84,-1.21 -4.53,-1.88 -4.22,-2.55 -3.71,-3.08 -3.21,-3.62 -2.56,-3.96 -1.91,-4.30 -1.18,-4.42 -0.45,-4.54 -0.45,-4.54 -0.45,-4.54 0.09,-4.53 0.64,-4.52 1.17,-4.38 1.70,-4.23 2.18,-3.97 2.67,-3.70 3.07,-3.33 3.48,-2.96 3.78,-2.50 4.08,-2.04 4.27,-1.52 4.45,-1.00 4.51,-0.45 4.56,0.09 4.49,0.63 4.41,1.18 4.20,1.69 4.00,2.20 3.68,2.65 3.35,3.09 2.93,3.45 2.51,3.81 2.02,4.05 1.53,4.30 0.99,4.42 0.45,4.54 -0.00,4.54 L -0.45,4.54 Z"></path></g><g transform="translate(546.7999877929688 196.43366490532844) rotate(0 -1.5999755859375 -2.8000030517578125)" stroke="none"><path fill="#1e1e1e" d="M -3.40,3.40 Q -3.40,3.40 -4.40,2.54 -5.40,1.68 -6.78,-1.41 -8.16,-4.51 -8.16,-5.34 -8.15,-6.16 -7.89,-6.93 -7.62,-7.71 -7.12,-8.36 -6.63,-9.01 -5.95,-9.47 -5.26,-9.93 -4.47,-10.15 -3.68,-10.36 -2.86,-10.32 -2.04,-10.27 -1.28,-9.96 -0.52,-9.66 0.09,-9.12 0.72,-8.59 1.14,-7.88 1.56,-7.18 1.73,-6.38 1.90,-5.58 1.81,-4.76 1.72,-3.95 1.37,-3.20 1.03,-2.46 0.46,-1.86 -0.10,-1.27 -0.82,-0.89 -1.55,-0.51 -2.36,-0.38 -3.17,-0.25 -3.98,-0.38 -4.79,-0.52 -5.51,-0.90 -6.23,-1.29 -6.80,-1.89 -7.36,-2.49 -7.70,-3.23 -8.04,-3.98 -8.13,-4.80 -8.21,-5.61 -8.03,-6.41 -7.86,-7.21 -7.43,-7.91 -7.00,-8.62 -6.38,-9.14 -5.75,-9.67 -4.99,-9.97 -4.22,-10.28 -3.40,-10.32 -2.58,-10.36 -1.79,-10.14 -1.00,-9.91 -0.33,-9.45 0.34,-8.99 0.83,-8.33 1.33,-7.68 1.59,-6.90 1.85,-6.12 1.85,-6.12 1.85,-6.12 1.79,-5.74 1.72,-5.36 2.56,-4.38 3.40,-3.40 3.75,-2.94 4.11,-2.48 4.35,-1.95 4.59,-1.43 4.69,-0.86 4.79,-0.29 4.76,0.28 4.72,0.86 4.55,1.42 4.38,1.97 4.08,2.46 3.78,2.96 3.37,3.37 2.96,3.78 2.46,4.08 1.97,4.38 1.41,4.55 0.86,4.73 0.28,4.76 -0.29,4.79 -0.86,4.69 -1.43,4.59 -1.95,4.35 -2.48,4.11 -2.94,3.75 -3.40,3.39 -3.40,3.40 L -3.40,3.40 Z"></path></g><g transform="translate(550 329.2336832158753) rotate(0 -1.199981689453125 -1.20001220703125)" stroke="none"><path fill="#1e1e1e" d="M -3.21,3.21 Q -3.21,3.21 -3.98,2.60 -4.75,1.99 -5.20,1.36 -5.64,0.73 -5.87,0.00 -6.10,-0.73 -6.08,-1.50 -6.06,-2.27 -5.79,-3.00 -5.52,-3.72 -5.04,-4.32 -4.56,-4.92 -3.91,-5.34 -3.26,-5.75 -2.51,-5.94 -1.76,-6.13 -0.99,-6.06 -0.22,-6.00 0.47,-5.70 1.18,-5.39 1.76,-4.88 2.33,-4.36 2.71,-3.69 3.09,-3.02 3.23,-2.26 3.38,-1.50 3.28,-0.74 3.17,0.01 2.83,0.71 2.49,1.40 1.94,1.94 1.39,2.49 0.70,2.83 0.01,3.17 -0.74,3.28 -1.50,3.38 -2.26,3.23 -3.02,3.09 -3.69,2.71 -4.36,2.33 -4.88,1.76 -5.39,1.18 -5.70,0.47 -6.00,-0.23 -6.06,-0.99 -6.13,-1.76 -5.94,-2.51 -5.75,-3.26 -5.34,-3.91 -4.92,-4.56 -4.32,-5.04 -3.72,-5.52 -3.00,-5.79 -2.27,-6.06 -1.50,-6.08 -0.73,-6.10 0.00,-5.87 0.73,-5.64 1.36,-5.19 1.99,-4.74 1.99,-4.74 1.99,-4.75 2.60,-3.98 3.21,-3.21 3.55,-2.78 3.89,-2.35 4.12,-1.85 4.34,-1.35 4.44,-0.81 4.54,-0.27 4.51,0.27 4.47,0.82 4.31,1.34 4.15,1.86 3.86,2.33 3.58,2.80 3.19,3.19 2.80,3.58 2.33,3.86 1.86,4.15 1.34,4.31 0.82,4.47 0.27,4.51 -0.27,4.54 -0.81,4.44 -1.35,4.34 -1.85,4.12 -2.35,3.89 -2.78,3.55 -3.21,3.21 -3.21,3.21 L -3.21,3.21 Z"></path></g><g transform="translate(529.2000122070312 74.83365880181282) rotate(0 0.399993896484375 0)" stroke="none"><path fill="#1e1e1e" d="M 0.45,-4.54 Q 0.45,-4.54 1.18,-4.42 1.91,-4.30 2.56,-3.96 3.21,-3.61 3.71,-3.08 4.22,-2.55 4.53,-1.88 4.84,-1.21 4.92,-0.48 4.99,0.24 4.84,0.96 4.68,1.68 4.30,2.31 3.92,2.94 3.36,3.41 2.80,3.89 2.12,4.16 1.43,4.44 0.70,4.47 -0.03,4.51 -0.74,4.32 -1.44,4.12 -2.05,3.71 -2.66,3.30 -3.11,2.71 -3.55,2.12 -3.79,1.43 -4.02,0.73 -4.02,-0.00 -4.02,-0.73 -3.79,-1.43 -3.55,-2.13 -3.11,-2.71 -2.66,-3.30 -2.05,-3.71 -1.44,-4.12 -0.73,-4.32 -0.03,-4.51 0.70,-4.47 1.43,-4.43 2.12,-4.16 2.80,-3.89 3.36,-3.41 3.92,-2.94 4.30,-2.31 4.68,-1.68 4.84,-0.96 4.99,-0.24 4.92,0.48 4.84,1.21 4.53,1.88 4.22,2.55 3.71,3.08 3.21,3.62 2.56,3.96 1.91,4.30 1.18,4.42 0.45,4.54 0.45,4.54 0.45,4.54 -0.09,4.53 -0.64,4.52 -1.17,4.38 -1.70,4.23 -2.18,3.97 -2.67,3.70 -3.07,3.33 -3.48,2.96 -3.78,2.50 -4.08,2.04 -4.27,1.52 -4.45,1.00 -4.51,0.45 -4.56,-0.09 -4.49,-0.63 -4.41,-1.18 -4.20,-1.69 -4.00,-2.20 -3.68,-2.65 -3.35,-3.09 -2.93,-3.45 -2.51,-3.81 -2.02,-4.05 -1.53,-4.30 -0.99,-4.42 -0.45,-4.54 0.00,-4.54 L 0.45,-4.54 Z"></path></g><g stroke-linecap="round"><g transform="translate(383.6000061035156 190.03364049126594) rotate(0 -162.4000015258789 22)"><path d="M-1.02 0.42 C-55.25 7.58, -271.02 36.82, -324.88 44 M0.64 -0.41 C-53.8 7.47, -271.66 38.05, -325.86 45.54" stroke="#e03131" stroke-width="2" fill="none"></path></g><g transform="translate(383.6000061035156 190.03364049126594) rotate(0 -162.4000015258789 22)"><path d="M-303.78 33.83 C-310.56 37.54, -318.82 42.8, -325.86 45.54 M-303.78 33.83 C-308.66 35.85, -314.5 39.89, -325.86 45.54" stroke="#e03131" stroke-width="2" fill="none"></path></g><g transform="translate(383.6000061035156 190.03364049126594) rotate(0 -162.4000015258789 22)"><path d="M-301.41 50.77 C-309.15 48.64, -318.23 48.09, -325.86 45.54 M-301.41 50.77 C-307.04 48.4, -313.48 48.07, -325.86 45.54" stroke="#e03131" stroke-width="2" fill="none"></path></g></g><mask></mask><g stroke-linecap="round"><g transform="translate(523.6000366210938 71.63364659478157) rotate(0 -156.80001831054688 18)"><path d="M0.06 0.76 C-52.4 6.8, -261.39 30.97, -313.76 36.96 M-1.36 0.12 C-54.09 5.77, -262.48 29.57, -314.79 35.34" stroke="#e03131" stroke-width="2" fill="none"></path></g><g transform="translate(523.6000366210938 71.63364659478157) rotate(0 -156.80001831054688 18)"><path d="M-292.4 24.22 C-299.72 28.27, -308.05 31.92, -314.79 35.34 M-292.4 24.22 C-301.45 28.67, -309.08 32.95, -314.79 35.34" stroke="#e03131" stroke-width="2" fill="none"></path></g><g transform="translate(523.6000366210938 71.63364659478157) rotate(0 -156.80001831054688 18)"><path d="M-290.49 41.21 C-298.65 38.69, -307.73 35.77, -314.79 35.34 M-290.49 41.21 C-300.12 39.55, -308.44 37.71, -314.79 35.34" stroke="#e03131" stroke-width="2" fill="none"></path></g></g><mask></mask><g stroke-linecap="round"><g transform="translate(544.4000244140625 330.03367100884407) rotate(0 -164.40000915527344 -98.00001525878906)"><path d="M-0.66 -1.11 C-55.65 -34.09, -274.43 -164.34, -328.93 -196.74 M1.2 0.93 C-54.05 -31.4, -275.12 -162.51, -329.94 -195.59" stroke="#e03131" stroke-width="2" fill="none"></path></g><g transform="translate(544.4000244140625 330.03367100884407) rotate(0 -164.40000915527344 -98.00001525878906)"><path d="M-305.39 -190.89 C-316.72 -193.05, -325.56 -192.67, -329.94 -195.59 M-305.39 -190.89 C-313.75 -193.38, -322.52 -193.66, -329.94 -195.59" stroke="#e03131" stroke-width="2" fill="none"></path></g><g transform="translate(544.4000244140625 330.03367100884407) rotate(0 -164.40000915527344 -98.00001525878906)"><path d="M-314.16 -176.21 C-322.26 -183.96, -327.72 -189.23, -329.94 -195.59 M-314.16 -176.21 C-319.49 -183.67, -325.26 -188.97, -329.94 -195.59" stroke="#e03131" stroke-width="2" fill="none"></path></g></g><mask></mask><g stroke-linecap="round"><g transform="translate(546.7999877929688 197.2336526982972) rotate(0 -163.59999084472656 58.80000305175781)"><path d="M0.08 -0.73 C-54.54 19.21, -272.7 98.84, -327.26 118.48 M-1.34 1.5 C-56.16 21.21, -273.78 97.38, -328.25 116.82" stroke="#e03131" stroke-width="2" fill="none"></path></g><g transform="translate(546.7999877929688 197.2336526982972) rotate(0 -163.59999084472656 58.80000305175781)"><path d="M-308.94 100.93 C-316.85 106.23, -320.72 111.52, -328.25 116.82 M-308.94 100.93 C-314.65 104.77, -319.36 109.94, -328.25 116.82" stroke="#e03131" stroke-width="2" fill="none"></path></g><g transform="translate(546.7999877929688 197.2336526982972) rotate(0 -163.59999084472656 58.80000305175781)"><path d="M-303.25 117.06 C-312.94 116.89, -318.74 116.71, -328.25 116.82 M-303.25 117.06 C-310.47 116.75, -316.66 117.74, -328.25 116.82" stroke="#e03131" stroke-width="2" fill="none"></path></g></g><mask></mask><g transform="translate(322 289.2336832158753) rotate(0 11.200004577636719 18.79998779296875)" stroke="none"><path fill="#e03131" d="M 5.26,0 Q 5.26,0 5.27,2.52 5.29,5.05 5.33,7.28 5.37,9.51 5.40,11.83 5.43,14.16 5.47,16.30 5.51,18.43 5.63,21.50 5.75,24.57 6.18,26.89 6.61,29.22 7.47,31.36 8.32,33.51 8.29,34.27 8.26,35.03 8.04,35.76 7.82,36.49 7.44,37.15 7.06,37.81 6.53,38.36 6.00,38.90 5.35,39.31 4.70,39.71 3.98,39.95 3.26,40.18 2.50,40.24 1.74,40.30 0.99,40.17 0.24,40.05 -0.45,39.74 -1.15,39.44 -1.76,38.98 -2.37,38.52 -2.84,37.93 -3.32,37.34 -3.65,36.65 -3.97,35.96 -4.12,35.21 -4.27,34.46 -3.49,32.41 -2.72,30.35 -3.14,26.95 -3.56,23.55 -2.80,21.48 -2.05,19.41 -0.57,16.78 0.91,14.14 3.35,12.07 5.80,9.99 9.47,9.11 13.15,8.23 16.30,9.46 19.44,10.68 22.06,14.43 24.68,18.18 25.42,20.34 26.16,22.51 26.82,24.75 27.48,26.99 27.96,29.21 28.44,31.44 28.97,33.99 29.49,36.53 29.44,37.69 29.39,38.85 28.97,39.93 28.55,41.02 27.80,41.91 27.06,42.80 26.07,43.40 25.08,44.01 23.95,44.27 22.82,44.53 21.66,44.41 20.51,44.30 19.45,43.82 18.39,43.34 17.54,42.55 16.69,41.76 16.14,40.74 15.59,39.72 15.39,38.57 15.20,37.43 15.37,36.28 15.55,35.14 16.09,34.11 16.62,33.08 17.46,32.27 18.29,31.47 19.34,30.97 20.39,30.47 21.55,30.34 22.70,30.20 23.83,30.44 24.97,30.68 25.97,31.27 26.97,31.86 27.73,32.74 28.48,33.62 28.92,34.70 29.36,35.77 29.43,36.93 29.51,38.09 29.20,39.21 28.90,40.33 28.26,41.29 27.62,42.26 26.70,42.97 25.78,43.68 24.68,44.06 23.59,44.44 22.43,44.45 21.27,44.46 20.16,44.09 19.06,43.73 18.13,43.04 17.20,42.34 16.54,41.39 15.88,40.43 15.56,39.32 15.24,38.20 15.24,38.20 15.24,38.20 14.81,35.74 14.37,33.27 14.01,31.15 13.66,29.03 12.91,26.78 12.17,24.53 11.55,22.08 10.93,19.63 13.09,19.65 15.25,19.66 13.07,21.17 10.89,22.67 9.87,25.15 8.86,27.64 8.59,30.57 8.32,33.51 8.29,34.27 8.26,35.03 8.04,35.76 7.82,36.49 7.44,37.15 7.06,37.81 6.53,38.36 6.00,38.90 5.35,39.31 4.70,39.71 3.98,39.95 3.26,40.18 2.50,40.24 1.74,40.30 0.99,40.17 0.24,40.05 -0.45,39.75 -1.15,39.44 -1.76,38.98 -2.37,38.52 -2.84,37.93 -3.32,37.34 -3.65,36.65 -3.97,35.96 -4.12,35.21 -4.27,34.46 -4.32,34.58 -4.38,34.70 -4.87,32.51 -5.36,30.32 -5.55,27.44 -5.75,24.57 -5.63,21.50 -5.51,18.43 -5.47,16.30 -5.43,14.16 -5.40,11.83 -5.37,9.51 -5.33,7.28 -5.29,5.05 -5.27,2.52 -5.26,0 -5.18,-0.62 -5.10,-1.25 -4.88,-1.85 -4.65,-2.44 -4.29,-2.96 -3.93,-3.48 -3.46,-3.91 -2.98,-4.33 -2.42,-4.62 -1.86,-4.92 -1.24,-5.07 -0.63,-5.22 0.00,-5.22 0.63,-5.22 1.25,-5.07 1.86,-4.92 2.42,-4.62 2.98,-4.33 3.46,-3.90 3.93,-3.48 4.29,-2.96 4.65,-2.44 4.88,-1.85 5.10,-1.25 5.18,-0.62 5.26,0.00 5.26,0.00 L 5.26,0 Z"></path></g><g transform="translate(596.4000244140625 335.63364659478157) rotate(0 4 21.600006103515625)" stroke="none"><path fill="#1e1e1e" d="M 4.31,-0.99 Q 4.31,-0.99 5.46,5.03 6.61,11.07 7.27,16.30 7.94,21.53 8.65,25.47 9.36,29.41 9.87,32.38 10.38,35.34 11.19,38.70 11.99,42.05 11.98,42.54 11.97,43.03 11.85,43.51 11.72,43.99 11.48,44.42 11.24,44.85 10.91,45.21 10.58,45.57 10.17,45.84 9.76,46.12 9.29,46.28 8.83,46.45 8.34,46.50 7.85,46.55 7.36,46.48 6.87,46.41 6.42,46.22 5.96,46.04 5.56,45.75 5.16,45.46 4.84,45.09 4.52,44.71 4.30,44.27 4.08,43.83 3.98,43.35 3.87,42.87 4.96,40.85 6.05,38.83 6.68,38.63 7.31,38.42 7.97,38.43 8.63,38.44 9.25,38.65 9.88,38.87 10.40,39.28 10.92,39.68 11.29,40.23 11.65,40.78 11.82,41.42 12.00,42.06 11.95,42.72 11.91,43.38 11.66,43.99 11.41,44.60 10.98,45.10 10.54,45.60 9.97,45.94 9.41,46.27 8.76,46.41 8.11,46.54 7.46,46.46 6.80,46.39 6.20,46.10 5.61,45.82 5.13,45.36 4.66,44.90 4.35,44.31 4.05,43.73 3.95,43.07 3.85,42.42 3.96,41.77 4.07,41.12 4.39,40.54 4.70,39.96 5.19,39.51 5.67,39.06 6.27,38.79 6.88,38.52 7.53,38.45 8.19,38.39 8.84,38.53 9.48,38.68 10.04,39.03 10.61,39.38 11.03,39.88 11.45,40.39 11.69,41.01 11.93,41.62 11.96,42.28 11.99,42.94 11.80,43.58 11.62,44.21 11.24,44.76 10.87,45.30 11.43,43.67 11.99,42.05 11.98,42.54 11.97,43.03 11.85,43.51 11.72,43.99 11.48,44.42 11.25,44.85 10.91,45.21 10.58,45.57 10.17,45.84 9.76,46.12 9.29,46.28 8.83,46.45 8.34,46.50 7.85,46.55 7.36,46.48 6.87,46.41 6.42,46.22 5.96,46.04 5.56,45.75 5.16,45.46 4.84,45.09 4.52,44.71 4.30,44.27 4.08,43.83 3.98,43.35 3.87,42.87 3.43,39.55 2.99,36.23 2.82,33.50 2.64,30.77 1.74,26.72 0.84,22.67 -0.12,17.76 -1.09,12.84 -2.70,6.92 -4.31,0.99 -4.37,0.46 -4.42,-0.06 -4.35,-0.59 -4.28,-1.12 -4.08,-1.61 -3.89,-2.11 -3.58,-2.55 -3.27,-2.98 -2.86,-3.33 -2.46,-3.68 -1.98,-3.92 -1.50,-4.16 -0.98,-4.28 -0.46,-4.40 0.06,-4.39 0.59,-4.38 1.11,-4.25 1.63,-4.11 2.10,-3.86 2.56,-3.60 2.96,-3.24 3.35,-2.88 3.65,-2.44 3.95,-1.99 4.13,-1.49 4.31,-0.99 4.31,-0.99 L 4.31,-0.99 Z"></path></g><g transform="translate(598.7999877929688 338.8336588018128) rotate(0 10.800018310546875 7.600006103515625)" stroke="none"><path fill="#1e1e1e" d="M -3.10,-4.34 Q -3.10,-4.34 -1.52,-5.54 0.05,-6.73 2.72,-7.99 5.39,-9.24 8.90,-9.31 12.41,-9.37 16.19,-7.83 19.98,-6.30 22.23,-4.59 24.48,-2.88 25.88,-0.58 27.28,1.72 26.99,6.04 26.71,10.37 25.09,13.28 23.46,16.18 21.97,17.77 20.47,19.36 17.17,21.57 13.88,23.77 9.18,24.43 4.49,25.08 3.47,24.69 2.44,24.30 1.60,23.61 0.75,22.91 0.17,21.98 -0.39,21.05 -0.65,19.98 -0.90,18.91 -0.79,17.82 -0.69,16.73 -0.25,15.73 0.19,14.73 0.93,13.92 1.67,13.11 2.64,12.59 3.60,12.06 4.68,11.87 5.75,11.67 6.84,11.84 7.92,12.00 8.90,12.50 9.87,13.00 10.64,13.78 11.40,14.57 11.88,15.55 12.35,16.54 12.49,17.63 12.62,18.72 12.40,19.79 12.18,20.86 11.63,21.81 11.08,22.76 10.25,23.48 9.43,24.20 8.42,24.62 7.40,25.04 6.31,25.12 5.22,25.19 4.16,24.91 3.10,24.64 2.18,24.03 1.26,23.43 0.59,22.57 -0.08,21.71 -0.44,20.67 -0.81,19.64 -0.82,18.54 -0.84,17.45 -0.50,16.40 -0.17,15.36 0.47,14.48 1.12,13.60 2.02,12.97 2.92,12.34 3.97,12.03 5.02,11.72 6.12,11.77 7.21,11.81 7.21,11.81 7.21,11.81 7.79,11.72 8.36,11.64 10.33,10.38 12.29,9.13 13.81,7.18 15.33,5.24 13.03,3.82 10.74,2.40 8.56,2.27 6.38,2.13 4.74,3.24 3.10,4.34 2.53,4.64 1.97,4.95 1.34,5.12 0.72,5.28 0.08,5.29 -0.55,5.30 -1.18,5.16 -1.81,5.01 -2.38,4.72 -2.95,4.43 -3.44,4.02 -3.93,3.60 -4.30,3.07 -4.68,2.55 -4.92,1.95 -5.15,1.35 -5.24,0.72 -5.33,0.08 -5.26,-0.55 -5.19,-1.19 -4.98,-1.79 -4.76,-2.40 -4.40,-2.93 -4.04,-3.47 -3.57,-3.90 -3.10,-4.34 -3.10,-4.34 L -3.10,-4.34 Z"></path></g><g transform="translate(25.20000457763672 334.8336588018128) rotate(0 5.1999969482421875 17.20001220703125)" stroke="none"><path fill="#1e1e1e" d="M 1.50,4.88 Q 1.50,4.88 -1.48,5.74 -4.47,6.60 -6.50,8.58 -8.52,10.57 -8.95,13.53 -9.38,16.49 -8.05,19.57 -6.73,22.65 -4.75,25.69 -2.77,28.74 -0.00,30.03 2.77,31.32 5.84,31.66 8.91,32.00 11.12,30.31 13.33,28.62 15.35,26.09 17.36,23.56 18.24,21.57 19.11,19.58 18.45,16.83 17.78,14.08 16.74,11.78 15.69,9.47 14.29,7.51 12.88,5.56 10.10,4.42 7.32,3.29 6.50,3.04 5.69,2.78 4.64,2.45 3.59,2.11 2.70,1.46 1.81,0.80 1.18,-0.09 0.54,-0.99 0.23,-2.05 -0.07,-3.11 -0.03,-4.21 0.00,-5.31 0.40,-6.34 0.79,-7.38 1.49,-8.23 2.19,-9.08 3.13,-9.66 4.06,-10.25 5.13,-10.50 6.21,-10.75 7.31,-10.65 8.41,-10.55 9.41,-10.10 10.42,-9.65 11.23,-8.91 12.05,-8.16 12.58,-7.20 13.11,-6.23 13.31,-5.14 13.50,-4.06 13.34,-2.97 13.18,-1.88 12.68,-0.89 12.18,0.08 11.39,0.85 10.60,1.62 9.60,2.10 8.61,2.58 7.52,2.71 6.42,2.85 5.34,2.63 4.26,2.41 3.31,1.86 2.35,1.30 1.62,0.47 0.90,-0.35 0.47,-1.37 0.05,-2.38 -0.02,-3.48 -0.09,-4.58 0.17,-5.65 0.45,-6.72 1.06,-7.64 1.66,-8.56 2.53,-9.25 3.40,-9.93 4.44,-10.29 5.48,-10.66 6.58,-10.68 7.68,-10.70 7.68,-10.70 7.68,-10.70 10.68,-9.59 13.67,-8.49 15.81,-7.87 17.94,-7.26 20.53,-4.88 23.12,-2.50 25.01,0.30 26.90,3.11 28.52,6.89 30.14,10.67 30.78,13.14 31.42,15.60 31.53,18.07 31.64,20.54 31.13,22.78 30.62,25.01 29.25,27.66 27.88,30.30 26.61,32.16 25.33,34.03 23.48,36.09 21.62,38.15 19.49,39.99 17.35,41.83 14.94,42.97 12.52,44.12 8.92,44.22 5.33,44.33 2.11,43.57 -1.10,42.81 -3.76,41.66 -6.42,40.50 -9.12,37.96 -11.82,35.42 -13.15,33.48 -14.49,31.54 -15.65,29.28 -16.81,27.02 -17.86,24.43 -18.92,21.84 -19.51,18.57 -20.10,15.29 -19.63,12.47 -19.16,9.64 -18.00,6.95 -16.83,4.25 -14.94,2.22 -13.05,0.19 -10.26,-1.36 -7.48,-2.92 -4.49,-3.90 -1.50,-4.88 -0.89,-4.99 -0.29,-5.10 0.32,-5.06 0.93,-5.02 1.52,-4.83 2.11,-4.65 2.64,-4.33 3.16,-4.01 3.60,-3.57 4.03,-3.13 4.35,-2.60 4.66,-2.08 4.84,-1.49 5.03,-0.90 5.06,-0.28 5.10,0.32 4.98,0.93 4.87,1.53 4.61,2.09 4.36,2.65 3.98,3.14 3.60,3.62 3.11,4.00 2.62,4.38 2.06,4.63 1.50,4.88 1.50,4.88 L 1.50,4.88 Z"></path></g><g transform="translate(32.400001525878906 363.63364659478157) rotate(0 10.799999237060547 6.399993896484375)" stroke="none"><path fill="#1e1e1e" d="M -2.95,-4.42 Q -2.95,-4.42 -1.53,-5.44 -0.12,-6.45 2.79,-6.67 5.70,-6.89 7.96,-5.60 10.22,-4.32 11.55,-1.86 12.88,0.59 14.49,3.75 16.11,6.92 17.66,8.59 19.21,10.27 18.89,9.50 18.57,8.72 19.57,8.46 20.58,8.21 21.61,8.29 22.65,8.36 23.60,8.77 24.56,9.17 25.33,9.86 26.11,10.55 26.63,11.45 27.14,12.35 27.34,13.37 27.54,14.38 27.41,15.41 27.28,16.44 26.82,17.37 26.37,18.30 25.64,19.04 24.91,19.78 23.98,20.25 23.05,20.71 22.03,20.86 21.00,21.01 19.98,20.82 18.96,20.63 18.06,20.12 17.15,19.62 16.45,18.85 15.76,18.08 15.34,17.13 14.92,16.18 14.83,15.15 14.74,14.11 14.99,13.10 15.23,12.10 15.79,11.22 16.34,10.34 17.14,9.69 17.95,9.03 18.92,8.67 19.89,8.31 20.93,8.27 21.97,8.24 22.96,8.54 23.95,8.84 24.80,9.44 25.64,10.04 26.25,10.87 26.86,11.71 27.17,12.70 27.48,13.69 27.46,14.73 27.44,15.77 27.09,16.74 26.74,17.72 26.09,18.53 25.45,19.34 24.57,19.91 23.70,20.47 23.70,20.47 23.71,20.47 20.50,21.35 17.30,22.22 15.13,21.61 12.97,21.00 10.67,18.45 8.38,15.91 6.95,14.09 5.51,12.27 3.92,8.86 2.34,5.45 3.99,4.11 5.64,2.77 4.29,3.60 2.95,4.42 2.38,4.71 1.80,5.00 1.18,5.15 0.55,5.29 -0.08,5.28 -0.72,5.27 -1.34,5.11 -1.96,4.94 -2.53,4.63 -3.09,4.33 -3.56,3.89 -4.04,3.46 -4.39,2.93 -4.75,2.39 -4.97,1.79 -5.18,1.19 -5.25,0.55 -5.32,-0.08 -5.23,-0.72 -5.14,-1.35 -4.91,-1.95 -4.67,-2.55 -4.30,-3.07 -3.92,-3.59 -3.43,-4.01 -2.95,-4.43 -2.95,-4.42 L -2.95,-4.42 Z"></path></g><g stroke-linecap="round"><g transform="translate(187.60000610351562 112.43366490532844) rotate(0 170.8000030517578 -50.40000915527344)"><path d="M-0.86 0.74 C22.35 -15.78, 81.89 -93.16, 138.93 -100.07 C195.97 -106.98, 307.41 -50.45, 341.38 -40.7 M0.89 0.09 C24.49 -16.7, 84.48 -94.7, 141.09 -101.81 C197.69 -108.92, 307.36 -52.8, 340.5 -42.57" stroke="#2f9e44" stroke-width="2" fill="none"></path></g><g transform="translate(187.60000610351562 112.43366490532844) rotate(0 170.8000030517578 -50.40000915527344)"><path d="M315.51 -43.29 C323.57 -44.69, 330.37 -43.09, 340.5 -42.57 M315.51 -43.29 C325.41 -42.17, 333.63 -42.54, 340.5 -42.57" stroke="#2f9e44" stroke-width="2" fill="none"></path></g><g transform="translate(187.60000610351562 112.43366490532844) rotate(0 170.8000030517578 -50.40000915527344)"><path d="M321.82 -59.19 C328.04 -56.29, 333.11 -50.34, 340.5 -42.57 M321.82 -59.19 C329.5 -52.1, 335.36 -46.52, 340.5 -42.57" stroke="#2f9e44" stroke-width="2" fill="none"></path></g></g><mask></mask><g stroke-linecap="round"><g transform="translate(48.400001525878906 238.03364049126594) rotate(0 169.20000839233398 -35.59999084472656)"><path d="M-0.62 -0.27 C30.11 -12.17, 126.57 -62.57, 183.19 -70.64 C239.82 -78.72, 313.22 -52.45, 339.16 -48.72 M1.26 -1.45 C31.99 -13.78, 126.41 -64.83, 182.66 -72.48 C238.92 -80.13, 312.69 -51.02, 338.79 -47.36" stroke="#2f9e44" stroke-width="2" fill="none"></path></g><g transform="translate(48.400001525878906 238.03364049126594) rotate(0 169.20000839233398 -35.59999084472656)"><path d="M313.93 -44.65 C318.59 -43.76, 325.08 -44.38, 338.79 -47.36 M313.93 -44.65 C320.6 -45.51, 330.09 -45.55, 338.79 -47.36" stroke="#2f9e44" stroke-width="2" fill="none"></path></g><g transform="translate(48.400001525878906 238.03364049126594) rotate(0 169.20000839233398 -35.59999084472656)"><path d="M318.01 -61.26 C321.93 -56.96, 327.58 -54.16, 338.79 -47.36 M318.01 -61.26 C323.48 -57.01, 331.72 -51.95, 338.79 -47.36" stroke="#2f9e44" stroke-width="2" fill="none"></path></g></g><mask></mask><g stroke-linecap="round"><g transform="translate(214 309.2336526982972) rotate(0 152.8000030517578 -57.19999694824219)"><path d="M1.01 -0.96 C22.74 -16.16, 78.8 -71.69, 129.63 -90.53 C180.45 -109.38, 276.53 -110.17, 305.96 -114.03 M0.08 1.15 C21.73 -13.98, 77.81 -69.93, 128.69 -89.48 C179.58 -109.04, 275.7 -111.77, 305.39 -116.19" stroke="#2f9e44" stroke-width="2" fill="none"></path></g><g transform="translate(214 309.2336526982972) rotate(0 152.8000030517578 -57.19999694824219)"><path d="M282.82 -105.42 C286.44 -108.08, 291.76 -110.04, 305.39 -116.19 M282.82 -105.42 C289.24 -108.14, 298.27 -111.76, 305.39 -116.19" stroke="#2f9e44" stroke-width="2" fill="none"></path></g><g transform="translate(214 309.2336526982972) rotate(0 152.8000030517578 -57.19999694824219)"><path d="M281.18 -122.44 C285.27 -121.14, 290.98 -119.12, 305.39 -116.19 M281.18 -122.44 C288.23 -119.54, 297.8 -117.54, 305.39 -116.19" stroke="#2f9e44" stroke-width="2" fill="none"></path></g></g><mask></mask><g stroke-linecap="round"><g transform="translate(46 234.83365880181282) rotate(0 169.60000610351562 -7.600006103515625)"><path d="M1.16 0.04 C32.24 3.28, 130.63 24.89, 186.83 18.91 C243.04 12.94, 312.95 -26.77, 338.39 -35.81 M0.32 -0.99 C31.71 2.42, 132.18 25.51, 188.93 19.88 C245.69 14.24, 315.71 -25.78, 340.86 -34.81" stroke="#1971c2" stroke-width="2" fill="none"></path></g><g transform="translate(46 234.83365880181282) rotate(0 169.60000610351562 -7.600006103515625)"><path d="M322.86 -17.46 C328.97 -25.33, 333.06 -30.49, 340.86 -34.81 M322.86 -17.46 C326.36 -20.95, 332.4 -26.3, 340.86 -34.81" stroke="#1971c2" stroke-width="2" fill="none"></path></g><g transform="translate(46 234.83365880181282) rotate(0 169.60000610351562 -7.600006103515625)"><path d="M315.92 -33.09 C324.26 -35.85, 330.65 -35.82, 340.86 -34.81 M315.92 -33.09 C321.18 -32.67, 328.96 -34.13, 340.86 -34.81" stroke="#1971c2" stroke-width="2" fill="none"></path></g></g><mask></mask><g stroke-linecap="round"><g transform="translate(186.8000030517578 122.83365880181282) rotate(0 174.80001068115234 106.79998779296875)"><path d="M-0.13 -0.2 C14.41 23.1, 29.28 104.16, 87.48 139.68 C145.68 175.2, 305.51 200.72, 349.08 212.94 M-1.65 -1.34 C12.8 21.59, 28.82 101.94, 87.1 137.81 C145.38 173.69, 304.43 201.25, 348.04 213.91" stroke="#1971c2" stroke-width="2" fill="none"></path></g><g transform="translate(186.8000030517578 122.83365880181282) rotate(0 174.80001068115234 106.79998779296875)"><path d="M323.21 216.84 C330.81 217.73, 339.87 214.12, 348.04 213.91 M323.21 216.84 C328.89 217.12, 335.77 215.12, 348.04 213.91" stroke="#1971c2" stroke-width="2" fill="none"></path></g><g transform="translate(186.8000030517578 122.83365880181282) rotate(0 174.80001068115234 106.79998779296875)"><path d="M327.14 200.2 C333.48 206.4, 341.28 208.11, 348.04 213.91 M327.14 200.2 C331.76 204.54, 337.67 206.62, 348.04 213.91" stroke="#1971c2" stroke-width="2" fill="none"></path></g></g><mask></mask><g stroke-linecap="round"><g transform="translate(220.39999389648438 322.03367100884407) rotate(0 165.1999969482422 -52.80000305175781)"><path d="M0.26 -0.25 C30.81 -2.78, 129.09 1.33, 183.99 -16.35 C238.9 -34.02, 305.16 -91.36, 329.7 -106.29 M-1.06 -1.42 C29.26 -4.22, 128.1 -0.91, 183.04 -18.23 C237.98 -35.55, 303.75 -90.87, 328.57 -105.33" stroke="#1971c2" stroke-width="2" fill="none"></path></g><g transform="translate(220.39999389648438 322.03367100884407) rotate(0 165.1999969482422 -52.80000305175781)"><path d="M314.02 -85 C319.04 -92.35, 325.44 -100.81, 328.57 -105.33 M314.02 -85 C316.7 -90.59, 320.22 -95.52, 328.57 -105.33" stroke="#1971c2" stroke-width="2" fill="none"></path></g><g transform="translate(220.39999389648438 322.03367100884407) rotate(0 165.1999969482422 -52.80000305175781)"><path d="M304.36 -99.11 C312.71 -101.41, 322.59 -104.8, 328.57 -105.33 M304.36 -99.11 C309.49 -101.25, 315.34 -102.75, 328.57 -105.33" stroke="#1971c2" stroke-width="2" fill="none"></path></g></g><mask></mask><g transform="translate(550 195.63364659478157) rotate(0 -0.79998779296875 1.600006103515625)" stroke="none"><path fill="#1e1e1e" d="M -4.52,2.26 Q -4.52,2.26 -5.31,0.87 -6.10,-0.52 -6.30,-2.18 -6.50,-3.84 -6.49,-4.50 -6.48,-5.15 -6.32,-5.79 -6.15,-6.42 -5.84,-7.00 -5.53,-7.57 -5.09,-8.06 -4.64,-8.54 -4.10,-8.91 -3.56,-9.27 -2.94,-9.50 -2.33,-9.72 -1.67,-9.79 -1.02,-9.86 -0.37,-9.77 0.27,-9.69 0.88,-9.45 1.49,-9.21 2.02,-8.83 2.55,-8.45 2.98,-7.95 3.41,-7.45 3.71,-6.87 4.00,-6.29 4.15,-5.65 4.30,-5.01 5.39,-2.86 6.48,-0.71 6.28,1.88 6.09,4.48 4.65,6.87 3.20,9.25 -0.75,9.99 -4.72,10.73 -7.31,8.95 -9.91,7.17 -10.87,4.04 -11.84,0.91 -12.01,-1.24 -12.19,-3.40 -11.07,-7.18 -9.96,-10.97 -7.45,-12.36 -4.94,-13.75 -2.72,-13.77 -0.51,-13.80 2.02,-11.96 4.55,-10.11 6.57,-7.39 8.60,-4.67 9.34,-1.41 10.07,1.83 9.78,5.04 9.48,8.26 8.05,10.66 6.61,13.07 4.25,14.87 1.89,16.67 -1.09,16.99 -4.08,17.30 -6.52,16.29 -8.95,15.27 -10.86,12.84 -12.77,10.40 -13.81,7.37 -14.85,4.33 -15.32,1.46 -15.79,-1.41 -15.43,-5.23 -15.07,-9.05 -12.71,-11.60 -10.35,-14.15 -8.19,-14.70 -6.04,-15.25 -3.10,-14.58 -0.15,-13.92 2.37,-11.39 4.91,-8.86 6.39,-6.31 7.87,-3.77 8.01,-1.11 8.15,1.53 7.84,4.75 7.52,7.97 6.34,10.15 5.16,12.34 2.71,13.65 0.25,14.96 -3.97,14.16 -8.20,13.37 -10.74,10.96 -13.27,8.55 -14.26,5.30 -15.26,2.05 -15.34,-0.14 -15.42,-2.35 -14.57,-5.50 -13.72,-8.65 -11.89,-10.55 -10.06,-12.44 -7.42,-13.65 -4.78,-14.85 -2.27,-14.77 0.22,-14.68 3.27,-13.00 6.32,-11.33 8.81,-9.47 11.30,-7.61 12.58,-5.55 13.86,-3.49 14.23,-1.28 14.59,0.93 14.23,4.57 13.86,8.21 12.80,10.06 11.74,11.90 8.98,14.38 6.23,16.85 3.28,17.73 0.34,18.61 -0.86,18.56 -2.07,18.51 -3.21,18.07 -4.34,17.63 -5.27,16.86 -6.20,16.08 -6.84,15.05 -7.48,14.02 -7.75,12.84 -8.03,11.65 -7.91,10.45 -7.79,9.24 -7.29,8.13 -6.80,7.03 -5.97,6.14 -5.15,5.25 -4.08,4.67 -3.02,4.09 -1.82,3.88 -0.63,3.67 0.56,3.85 1.76,4.03 2.84,4.59 3.92,5.15 4.76,6.02 5.61,6.89 6.13,7.98 6.65,9.08 6.79,10.28 6.94,11.49 6.69,12.68 6.44,13.86 5.83,14.91 5.21,15.96 4.30,16.75 3.38,17.55 2.26,18.01 1.14,18.47 -0.06,18.55 -1.27,18.63 -2.44,18.32 -3.62,18.00 -4.63,17.33 -5.64,16.66 -6.38,15.71 -7.13,14.75 -7.53,13.60 -7.93,12.46 -7.94,11.25 -7.96,10.03 -7.58,8.88 -7.21,7.73 -6.48,6.75 -5.76,5.78 -4.76,5.09 -3.77,4.39 -2.60,4.06 -1.44,3.72 -1.44,3.72 -1.44,3.72 0.00,3.52 1.45,3.32 -1.12,1.55 -3.69,-0.20 -1.39,-0.95 0.91,-1.70 -1.20,-0.38 -3.32,0.93 -1.92,-0.83 -0.52,-2.60 0.23,-0.47 0.99,1.64 -1.68,1.86 -4.35,2.07 -5.89,0.47 -7.42,-1.13 -4.36,-1.23 -1.30,-1.33 -2.62,0.85 -3.94,3.05 -4.67,1.01 -5.40,-1.02 -2.16,-2.35 1.07,-3.67 1.14,-1.43 1.22,0.81 -1.04,0.99 -3.31,1.17 -4.90,-1.33 -6.50,-3.84 -6.49,-4.50 -6.48,-5.15 -6.32,-5.79 -6.15,-6.42 -5.84,-7.00 -5.53,-7.57 -5.09,-8.06 -4.65,-8.54 -4.10,-8.91 -3.56,-9.27 -2.94,-9.50 -2.33,-9.72 -1.67,-9.79 -1.02,-9.86 -0.37,-9.77 0.27,-9.69 0.88,-9.45 1.49,-9.21 2.02,-8.83 2.55,-8.45 2.98,-7.95 3.41,-7.45 3.71,-6.87 4.00,-6.29 4.15,-5.65 4.30,-5.01 3.82,-5.00 3.34,-4.99 3.93,-3.63 4.52,-2.26 4.73,-1.68 4.94,-1.11 5.00,-0.50 5.06,0.09 4.97,0.70 4.89,1.30 4.66,1.87 4.43,2.44 4.08,2.93 3.72,3.43 3.25,3.82 2.79,4.22 2.24,4.49 1.70,4.77 1.10,4.90 0.51,5.03 -0.09,5.02 -0.70,5.01 -1.29,4.85 -1.88,4.69 -2.42,4.40 -2.95,4.11 -3.40,3.69 -3.85,3.28 -4.19,2.77 -4.53,2.26 -4.53,2.26 L -4.52,2.26 Z"></path></g><g transform="translate(532.4000244140625 86.03364049126594) rotate(0 1.600006103515625 2.0000152587890625)" stroke="none"><path fill="#1e1e1e" d="M -4.33,-2.89 Q -4.33,-2.89 -3.47,-4.32 -2.61,-5.76 0.70,-7.56 4.02,-9.35 6.16,-8.52 8.31,-7.68 9.17,-3.74 10.03,0.19 8.99,2.49 7.95,4.79 6.79,6.89 5.63,8.99 3.21,10.60 0.78,12.22 -3.28,10.95 -7.35,9.68 -8.74,6.43 -10.12,3.19 -10.01,1.05 -9.90,-1.09 -7.95,-4.29 -6.00,-7.48 -3.56,-8.86 -1.13,-10.24 2.92,-8.97 6.97,-7.71 8.44,-5.55 9.90,-3.39 10.01,-0.68 10.13,2.02 10.14,4.34 10.15,6.66 8.95,9.79 7.74,12.92 4.44,14.58 1.14,16.24 -1.67,15.18 -4.49,14.12 -5.93,12.11 -7.37,10.11 -7.94,7.17 -8.51,4.23 -8.60,1.97 -8.69,-0.27 -7.20,-3.80 -5.72,-7.32 -3.80,-9.44 -1.88,-11.55 1.05,-12.84 3.98,-14.13 6.23,-13.63 8.47,-13.14 11.09,-10.27 13.71,-7.39 14.11,-4.44 14.51,-1.48 14.53,1.68 14.54,4.85 13.42,8.30 12.30,11.75 10.49,13.56 8.69,15.37 5.77,16.67 2.86,17.97 0.53,17.80 -1.79,17.62 -4.24,15.95 -6.70,14.27 -7.94,12.21 -9.17,10.15 -9.84,6.89 -10.50,3.63 -10.53,0.99 -10.55,-1.63 -9.68,-4.84 -8.81,-8.05 -7.20,-10.03 -5.60,-12.02 -2.92,-13.22 -0.25,-14.42 4.01,-13.34 8.27,-12.27 10.14,-10.22 12.00,-8.16 12.27,-5.69 12.54,-3.22 12.82,-2.36 13.11,-1.51 13.17,-0.61 13.24,0.27 13.10,1.16 12.95,2.05 12.59,2.87 12.24,3.70 11.70,4.41 11.15,5.13 10.46,5.70 9.76,6.26 8.95,6.64 8.13,7.03 7.25,7.20 6.37,7.38 5.47,7.34 4.57,7.30 3.71,7.05 2.85,6.80 2.07,6.34 1.30,5.89 0.65,5.27 0.01,4.64 -0.46,3.88 -0.94,3.12 2.07,5.24 5.09,7.37 3.92,7.06 2.76,6.76 1.75,6.09 0.74,5.43 0.00,4.48 -0.73,3.53 -1.13,2.39 -1.53,1.25 -1.55,0.05 -1.57,-1.15 -1.20,-2.30 -0.83,-3.44 -0.11,-4.41 0.60,-5.38 1.59,-6.07 2.57,-6.76 3.73,-7.10 4.89,-7.44 6.09,-7.39 7.30,-7.34 8.43,-6.91 9.55,-6.48 10.48,-5.71 11.41,-4.94 12.05,-3.92 12.68,-2.89 12.96,-1.72 13.23,-0.55 13.12,0.64 13.01,1.85 12.51,2.95 12.02,4.05 11.20,4.93 10.39,5.82 9.33,6.40 8.27,6.98 7.08,7.19 5.90,7.40 4.70,7.22 3.51,7.04 2.44,6.49 1.36,5.94 0.52,5.08 -0.31,4.21 -0.83,3.13 -1.35,2.04 -1.50,0.84 -1.64,-0.35 -1.40,-1.53 -1.16,-2.71 -0.55,-3.75 0.05,-4.79 0.96,-5.58 1.87,-6.38 2.98,-6.84 4.10,-7.30 8.32,-5.26 12.54,-3.22 12.82,-2.36 13.11,-1.51 13.17,-0.61 13.24,0.27 13.10,1.16 12.95,2.05 12.59,2.87 12.24,3.70 11.70,4.41 11.16,5.13 10.46,5.70 9.76,6.26 8.95,6.64 8.13,7.03 7.25,7.20 6.37,7.38 5.47,7.34 4.58,7.30 3.71,7.05 2.85,6.80 2.07,6.34 1.30,5.89 0.65,5.27 0.01,4.64 -0.46,3.88 -0.94,3.12 -0.74,1.42 -0.54,-0.26 1.84,-0.01 4.23,0.23 4.47,2.49 4.71,4.76 2.28,4.77 -0.15,4.77 0.53,2.20 1.22,-0.36 3.39,-0.32 5.56,-0.28 4.81,1.87 4.05,4.04 0.14,4.32 -3.76,4.60 -3.63,1.98 -3.49,-0.63 -0.67,0.28 2.14,1.21 -0.79,1.20 -3.72,1.20 -1.53,0.26 0.66,-0.68 3.47,-0.21 6.29,0.24 5.31,1.56 4.33,2.89 3.92,3.36 3.51,3.84 3.00,4.21 2.49,4.57 1.91,4.80 1.32,5.03 0.70,5.12 0.08,5.21 -0.54,5.14 -1.16,5.08 -1.75,4.86 -2.34,4.65 -2.87,4.30 -3.39,3.95 -3.81,3.49 -4.24,3.02 -4.54,2.47 -4.84,1.92 -5.00,1.31 -5.16,0.71 -5.17,0.08 -5.18,-0.54 -5.04,-1.15 -4.90,-1.76 -4.61,-2.33 -4.33,-2.89 -4.33,-2.89 L -4.33,-2.89 Z"></path></g><g transform="translate(554 328.4336343877503) rotate(0 -3.600006103515625 -2.3999786376953125)" stroke="none"><path fill="#1e1e1e" d="M -5.16,0.51 Q -5.16,0.51 -5.43,-1.83 -5.70,-4.18 -5.34,-6.53 -4.98,-8.88 -3.10,-11.42 -1.21,-13.96 2.94,-12.97 7.11,-11.99 8.58,-8.95 10.06,-5.90 10.46,-3.39 10.87,-0.87 9.90,2.20 8.93,5.27 7.45,6.92 5.96,8.56 3.68,9.09 1.40,9.62 -1.55,9.68 -4.52,9.73 -7.86,9.49 -11.20,9.25 -14.48,7.63 -17.77,6.01 -19.76,3.29 -21.75,0.58 -21.81,-3.90 -21.87,-8.38 -20.39,-10.74 -18.92,-13.11 -16.66,-15.02 -14.41,-16.93 -10.64,-17.20 -6.87,-17.47 -3.18,-15.90 0.50,-14.33 2.91,-11.96 5.32,-9.59 7.10,-5.89 8.89,-2.20 9.43,0.75 9.98,3.70 8.86,7.09 7.74,10.48 4.95,12.23 2.15,13.97 -2.20,12.97 -6.55,11.96 -9.53,9.85 -12.50,7.74 -13.63,5.87 -14.76,4.00 -15.27,0.37 -15.78,-3.26 -14.96,-7.01 -14.13,-10.76 -12.68,-12.39 -11.23,-14.01 -9.33,-14.99 -7.43,-15.96 -3.54,-16.04 0.33,-16.13 2.44,-15.37 4.55,-14.61 6.59,-13.26 8.63,-11.91 11.23,-9.00 13.83,-6.09 14.74,-3.35 15.66,-0.61 15.77,1.51 15.89,3.65 14.75,6.72 13.61,9.79 11.41,11.64 9.21,13.49 6.10,13.98 2.98,14.46 0.26,14.15 -2.46,13.84 -5.62,12.27 -8.77,10.69 -10.68,8.35 -12.59,6.00 -13.67,2.89 -14.75,-0.22 -14.51,-4.27 -14.27,-8.32 -11.94,-10.84 -9.60,-13.35 -7.62,-14.17 -5.64,-14.99 -3.47,-15.15 -1.31,-15.32 2.06,-14.48 5.43,-13.64 7.48,-12.04 9.52,-10.44 11.19,-8.02 12.85,-5.61 13.47,-3.47 14.09,-1.34 14.29,0.94 14.48,3.23 13.14,6.83 11.79,10.42 8.14,11.64 4.49,12.85 1.97,12.14 -0.53,11.44 -2.53,10.27 -4.53,9.11 -6.87,6.40 -9.21,3.69 -10.26,1.41 -11.30,-0.86 -11.74,-3.17 -12.18,-5.48 -11.57,-9.36 -10.96,-13.23 -10.53,-14.29 -10.10,-15.35 -9.35,-16.21 -8.60,-17.08 -7.62,-17.66 -6.64,-18.24 -5.52,-18.48 -4.40,-18.72 -3.27,-18.59 -2.13,-18.45 -1.10,-17.97 -0.06,-17.48 0.75,-16.69 1.57,-15.90 2.10,-14.88 2.63,-13.87 2.81,-12.74 2.98,-11.61 2.79,-10.48 2.60,-9.36 2.05,-8.35 1.51,-7.35 0.67,-6.57 -0.15,-5.79 -1.19,-5.32 -2.23,-4.84 -3.37,-4.73 -4.51,-4.61 -5.62,-4.87 -6.73,-5.12 -7.71,-5.72 -8.68,-6.31 -9.42,-7.19 -10.15,-8.07 -10.56,-9.13 -10.98,-10.20 -11.03,-11.34 -11.09,-12.48 -10.77,-13.58 -10.46,-14.68 -9.81,-15.62 -9.16,-16.56 -8.25,-17.24 -7.33,-17.93 -6.25,-18.28 -5.16,-18.64 -4.02,-18.63 -2.88,-18.62 -1.80,-18.25 -0.72,-17.88 0.18,-17.18 1.08,-16.48 1.72,-15.53 2.35,-14.58 2.65,-13.48 2.95,-12.37 2.88,-11.23 2.81,-10.09 2.81,-10.09 2.81,-10.09 2.31,-8.09 1.82,-6.09 2.83,-3.84 3.85,-1.58 1.99,0.02 0.12,1.63 -0.23,-0.53 -0.60,-2.69 0.63,-0.91 1.87,0.86 0.12,-1.53 -1.62,-3.93 -1.04,-1.87 -0.46,0.18 -2.61,0.46 -4.75,0.74 -6.10,-1.31 -7.45,-3.38 -4.45,-2.37 -1.46,-1.37 -1.67,-4.12 -1.89,-6.88 1.44,-5.94 4.78,-5.01 4.97,-2.76 5.16,-0.51 5.15,0.10 5.14,0.73 4.98,1.33 4.81,1.94 4.51,2.49 4.21,3.04 3.78,3.50 3.36,3.96 2.83,4.30 2.31,4.65 1.72,4.85 1.13,5.06 0.51,5.13 -0.11,5.19 -0.73,5.10 -1.35,5.01 -1.93,4.78 -2.51,4.54 -3.01,4.18 -3.52,3.81 -3.93,3.33 -4.33,2.85 -4.61,2.29 -4.89,1.73 -5.03,1.12 -5.16,0.51 -5.16,0.51 L -5.16,0.51 Z"></path></g><g transform="translate(124.40000915527344 350.8336588018128) rotate(0 12.399993896484375 16)" stroke="none"><path fill="#1971c2" d="M 5.20,-0.43 Q 5.20,-0.43 5.42,2.32 5.64,5.08 5.76,7.75 5.88,10.42 5.97,12.71 6.06,14.99 6.24,18.05 6.41,21.11 6.59,23.93 6.76,26.74 5.44,25.01 4.11,23.27 7.07,23.88 10.03,24.48 12.60,24.94 15.18,25.40 18.12,25.39 21.05,25.39 22.79,25.39 24.53,25.38 25.59,25.56 26.64,25.73 27.58,26.24 28.53,26.74 29.26,27.52 30.00,28.30 30.44,29.27 30.89,30.24 31.00,31.30 31.12,32.37 30.88,33.41 30.65,34.45 30.10,35.37 29.54,36.28 28.73,36.98 27.91,37.67 26.92,38.06 25.92,38.45 24.85,38.51 23.79,38.56 22.76,38.28 21.73,37.99 20.84,37.39 19.96,36.78 19.31,35.93 18.67,35.08 18.33,34.06 17.99,33.05 17.99,31.98 18.00,30.91 18.34,29.90 18.68,28.88 19.33,28.03 19.98,27.19 20.87,26.59 21.75,25.99 22.79,25.71 23.82,25.42 24.88,25.48 25.95,25.54 26.95,25.94 27.94,26.34 28.75,27.03 29.56,27.73 30.11,28.64 30.66,29.56 30.89,30.61 31.12,31.65 31.00,32.72 30.88,33.78 30.43,34.75 29.98,35.72 29.24,36.49 28.50,37.27 27.56,37.76 26.61,38.26 25.56,38.43 24.50,38.60 24.50,38.60 24.50,38.60 21.69,38.54 18.87,38.48 16.14,38.30 13.40,38.12 10.41,37.49 7.41,36.86 4.57,36.18 1.72,35.50 -0.82,33.90 -3.37,32.30 -4.27,29.52 -5.16,26.75 -5.00,23.96 -4.83,21.18 -4.71,18.18 -4.59,15.19 -4.58,13.01 -4.57,10.82 -4.65,8.38 -4.72,5.95 -4.96,3.19 -5.20,0.43 -5.18,-0.19 -5.16,-0.82 -4.98,-1.43 -4.81,-2.03 -4.49,-2.58 -4.18,-3.12 -3.75,-3.58 -3.31,-4.03 -2.78,-4.37 -2.25,-4.71 -1.65,-4.91 -1.05,-5.11 -0.43,-5.16 0.19,-5.22 0.81,-5.12 1.44,-5.02 2.02,-4.77 2.60,-4.53 3.10,-4.15 3.61,-3.77 4.01,-3.29 4.40,-2.80 4.68,-2.23 4.95,-1.66 5.08,-1.05 5.20,-0.43 5.20,-0.43 L 5.20,-0.43 Z"></path></g><g transform="translate(166 377.2336832158753) rotate(0 2 8.79998779296875)" stroke="none"><path fill="#1971c2" d="M 4.94,-0.98 Q 4.94,-0.98 5.45,1.30 5.96,3.58 6.93,6.72 7.89,9.86 8.58,12.60 9.27,15.35 9.38,16.26 9.49,17.18 9.30,18.08 9.12,18.98 8.65,19.78 8.19,20.57 7.49,21.18 6.80,21.78 5.94,22.13 5.09,22.48 4.17,22.54 3.25,22.60 2.36,22.37 1.47,22.13 0.71,21.62 -0.05,21.12 -0.62,20.39 -1.18,19.66 -1.49,18.79 -1.79,17.92 -1.80,17.00 -1.81,16.08 -1.53,15.21 -1.25,14.33 -0.70,13.59 -0.15,12.85 0.60,12.32 1.35,11.80 2.24,11.54 3.12,11.28 4.04,11.32 4.96,11.36 5.82,11.69 6.68,12.02 7.39,12.61 8.10,13.20 8.58,13.98 9.07,14.77 9.28,15.67 9.48,16.56 9.40,17.48 9.31,18.40 8.93,19.24 8.55,20.08 7.93,20.75 7.30,21.43 6.49,21.87 5.68,22.31 4.78,22.47 3.87,22.63 2.96,22.49 2.05,22.35 1.23,21.93 0.41,21.51 -0.22,20.85 -0.86,20.19 -1.26,19.35 -1.65,18.52 -1.65,18.52 -1.65,18.52 -2.18,15.52 -2.70,12.52 -3.41,9.06 -4.12,5.61 -4.53,3.29 -4.94,0.98 -4.99,0.38 -5.04,-0.22 -4.94,-0.82 -4.84,-1.42 -4.60,-1.98 -4.35,-2.54 -3.99,-3.02 -3.62,-3.50 -3.15,-3.89 -2.67,-4.27 -2.12,-4.53 -1.57,-4.79 -0.98,-4.91 -0.38,-5.03 0.22,-5.00 0.82,-4.97 1.41,-4.80 1.99,-4.63 2.52,-4.32 3.04,-4.02 3.48,-3.59 3.92,-3.17 4.24,-2.65 4.56,-2.14 4.75,-1.56 4.94,-0.98 4.94,-0.98 L 4.94,-0.98 Z"></path></g><g transform="translate(239.60000610351562 353.2336832158753) rotate(0 10 17.5999755859375)" stroke="none"><path fill="#2f9e44" d="M 4.75,0 Q 4.75,0 4.57,3.90 4.38,7.81 4.23,11.78 4.07,15.74 4.16,18.57 4.25,21.41 4.51,24.57 4.77,27.72 7.16,27.64 9.54,27.55 11.86,27.90 14.17,28.26 17.07,28.63 19.98,29.01 20.96,29.21 21.94,29.41 22.80,29.92 23.66,30.43 24.32,31.18 24.97,31.94 25.35,32.86 25.73,33.79 25.80,34.79 25.86,35.78 25.61,36.75 25.35,37.72 24.80,38.55 24.24,39.39 23.45,40.00 22.67,40.61 21.72,40.94 20.78,41.27 19.78,41.28 18.78,41.29 17.82,40.99 16.87,40.68 16.07,40.08 15.27,39.48 14.70,38.66 14.13,37.84 13.85,36.88 13.57,35.92 13.61,34.92 13.66,33.92 14.02,32.99 14.38,32.05 15.02,31.28 15.66,30.51 16.51,29.99 17.36,29.46 18.33,29.24 19.31,29.01 20.30,29.11 21.30,29.21 22.21,29.62 23.12,30.03 23.86,30.71 24.59,31.39 25.07,32.27 25.55,33.15 25.72,34.13 25.89,35.12 25.74,36.11 25.59,37.09 25.13,37.98 24.67,38.87 23.95,39.57 23.23,40.26 22.33,40.69 21.43,41.12 20.43,41.24 19.44,41.36 19.44,41.36 19.44,41.36 16.41,40.86 13.38,40.35 10.62,39.64 7.87,38.93 5.11,38.56 2.36,38.18 -0.50,36.19 -3.37,34.19 -4.07,30.96 -4.77,27.72 -4.51,24.57 -4.25,21.41 -4.16,18.57 -4.07,15.74 -4.23,11.78 -4.38,7.81 -4.57,3.90 -4.75,0 -4.69,-0.56 -4.62,-1.13 -4.41,-1.67 -4.21,-2.21 -3.88,-2.68 -3.56,-3.15 -3.13,-3.53 -2.70,-3.91 -2.19,-4.18 -1.68,-4.45 -1.13,-4.58 -0.57,-4.72 0.00,-4.72 0.57,-4.72 1.13,-4.58 1.68,-4.45 2.19,-4.18 2.70,-3.91 3.13,-3.53 3.56,-3.15 3.88,-2.68 4.21,-2.21 4.41,-1.67 4.62,-1.13 4.69,-0.56 4.75,0.00 4.75,0.00 L 4.75,0 Z"></path></g><g transform="translate(273.20001220703125 388.4336343877503) rotate(0 8 6.800018310546875)" stroke="none"><path fill="#2f9e44" d="M -3.36,-4.03 Q -3.36,-4.03 -2.02,-5.24 -0.69,-6.45 1.95,-7.82 4.59,-9.18 7.57,-8.95 10.55,-8.72 12.24,-7.26 13.94,-5.81 15.73,-3.47 17.51,-1.13 18.49,1.04 19.47,3.22 19.25,6.43 19.02,9.64 16.79,12.17 14.56,14.69 12.05,16.90 9.54,19.11 6.16,19.17 2.78,19.24 3.93,19.56 5.08,19.88 4.26,19.88 3.43,19.88 2.63,19.68 1.84,19.48 1.11,19.10 0.38,18.72 -0.23,18.17 -0.84,17.63 -1.31,16.95 -1.78,16.27 -2.07,15.50 -2.36,14.73 -2.46,13.92 -2.56,13.10 -2.46,12.28 -2.36,11.47 -2.07,10.70 -1.77,9.93 -1.31,9.25 -0.84,8.57 -0.22,8.03 0.39,7.48 1.11,7.10 1.84,6.72 2.64,6.52 3.44,6.33 6.63,6.50 9.83,6.67 12.33,7.89 14.84,9.12 15.93,9.89 17.02,10.66 18.09,11.04 19.15,11.43 20.04,12.14 20.93,12.84 21.54,13.80 22.16,14.75 22.43,15.85 22.71,16.95 22.63,18.08 22.54,19.21 22.09,20.25 21.65,21.29 20.90,22.14 20.14,22.99 19.16,23.55 18.18,24.11 17.06,24.33 15.95,24.55 14.83,24.40 13.70,24.25 12.69,23.75 11.67,23.25 10.86,22.46 10.06,21.66 9.55,20.64 9.04,19.63 8.88,18.51 8.73,17.39 8.94,16.27 9.14,15.16 9.70,14.17 10.25,13.18 11.09,12.42 11.93,11.66 12.97,11.21 14.01,10.75 15.14,10.66 16.27,10.56 17.37,10.83 18.47,11.10 19.43,11.70 20.39,12.31 21.10,13.19 21.82,14.07 22.21,15.13 22.61,16.20 22.64,17.33 22.68,18.46 22.35,19.55 22.02,20.63 21.36,21.56 20.71,22.48 19.79,23.15 18.87,23.81 17.79,24.15 16.71,24.48 15.57,24.46 14.44,24.43 14.44,24.43 14.44,24.43 9.76,22.16 5.08,19.88 4.26,19.88 3.43,19.88 2.63,19.68 1.84,19.49 1.11,19.10 0.38,18.72 -0.23,18.17 -0.84,17.63 -1.31,16.95 -1.78,16.27 -2.07,15.50 -2.36,14.73 -2.46,13.92 -2.56,13.10 -2.46,12.28 -2.36,11.47 -2.07,10.70 -1.77,9.93 -1.31,9.25 -0.84,8.57 -0.22,8.03 0.38,7.48 1.11,7.10 1.84,6.72 2.64,6.52 3.44,6.33 3.11,7.06 2.77,7.80 5.12,7.08 7.46,6.36 6.83,4.11 6.21,1.85 4.78,2.94 3.36,4.03 2.83,4.38 2.30,4.72 1.70,4.93 1.10,5.14 0.47,5.19 -0.15,5.25 -0.78,5.16 -1.41,5.06 -1.99,4.82 -2.58,4.57 -3.09,4.20 -3.60,3.82 -4.01,3.34 -4.41,2.85 -4.69,2.28 -4.97,1.71 -5.10,1.09 -5.23,0.47 -5.21,-0.15 -5.19,-0.79 -5.02,-1.40 -4.85,-2.01 -4.54,-2.56 -4.23,-3.11 -3.80,-3.57 -3.36,-4.03 -3.36,-4.03 L -3.36,-4.03 Z"></path></g></svg>