<svg version="1.1" xmlns="http://www.w3.org/2000/svg" viewBox="0 0 1081.599998474121 385.59999084472656" width="1081.599998474121" height="385.59999084472656" class="excalidraw-svg"><!-- svg-source:excalidraw --><metadata></metadata><defs><style class="style-fonts">
      </style></defs><rect x="0" y="0" width="1081.599998474121" height="385.59999084472656" fill="#ffffff"></rect><g transform="translate(197.20000457763672 47.59999084472656) rotate(0 14.800003051757812 57.19999694824219)" stroke="none"><path fill="#1e1e1e" d="M 2.25,-2.19 Q 2.25,-2.19 10.94,6.82 19.63,15.84 32.61,32.69 45.60,49.55 53.40,60.86 61.20,72.18 65.48,79.39 69.75,86.60 70.47,92.46 71.20,98.31 68.49,102.37 65.79,106.43 60.61,109.33 55.43,112.23 44.92,113.68 34.41,115.12 24.39,114.76 14.38,114.40 4.98,112.84 -4.41,111.28 -12.76,108.00 -21.12,104.72 -28.18,98.03 -35.24,91.34 -38.54,85.05 -41.84,78.77 -43.02,73.34 -44.19,67.91 -43.03,62.48 -41.87,57.04 -40.80,53.78 -39.74,50.52 -38.52,48.31 -37.30,46.09 -34.73,44.26 -32.16,42.42 -29.42,41.57 -26.67,40.71 -23.74,40.16 -20.82,39.61 -16.86,39.49 -12.91,39.36 -9.95,39.42 -7.00,39.47 -3.64,40.15 -0.28,40.83 0.86,44.66 2.01,48.50 -1.88,50.03 -5.78,51.57 -7.73,50.39 -9.69,49.22 -10.69,46.90 -11.69,44.58 -10.30,39.49 -8.92,34.39 -7.27,30.96 -5.63,27.53 -3.83,25.13 -2.02,22.72 -0.34,20.29 1.32,17.86 4.26,16.36 7.19,14.87 8.06,14.82 8.92,14.77 9.76,15.00 10.59,15.22 11.31,15.71 12.03,16.19 12.56,16.88 13.08,17.56 13.36,18.38 13.64,19.20 13.65,20.07 13.65,20.93 13.38,21.76 13.10,22.58 12.58,23.27 12.06,23.96 11.35,24.45 10.63,24.94 9.80,25.17 8.97,25.41 8.10,25.37 7.24,25.32 6.43,25.01 5.63,24.69 4.96,24.13 4.30,23.57 3.85,22.83 3.40,22.09 3.21,21.25 3.02,20.40 3.11,19.54 3.20,18.68 3.56,17.89 3.92,17.11 4.52,16.48 5.11,15.84 5.87,15.44 6.63,15.03 7.49,14.88 8.34,14.74 9.20,14.88 10.05,15.01 10.82,15.41 11.59,15.82 12.18,16.44 12.78,17.07 13.15,17.85 13.52,18.64 13.61,19.50 13.71,20.36 13.53,21.21 13.35,22.05 12.90,22.80 12.46,23.54 11.80,24.10 11.14,24.67 10.34,24.99 9.54,25.31 9.54,25.31 9.54,25.31 8.78,25.68 8.03,26.04 5.53,28.77 3.03,31.50 1.83,34.46 0.63,37.42 -2.36,40.01 -5.35,42.59 -6.41,45.33 -7.47,48.07 -9.98,47.83 -12.49,47.59 -15.98,47.84 -19.48,48.10 -23.98,48.61 -28.48,49.11 -31.32,50.94 -34.15,52.76 -35.44,55.51 -36.74,58.26 -37.89,62.65 -39.04,67.03 -38.08,71.72 -37.12,76.40 -34.31,82.00 -31.51,87.61 -25.27,93.74 -19.04,99.87 -11.28,102.96 -3.51,106.04 5.53,107.55 14.58,109.05 24.15,109.42 33.73,109.78 43.35,108.59 52.97,107.40 57.26,105.19 61.55,102.98 63.81,100.43 66.08,97.87 65.50,93.57 64.93,89.27 60.75,82.33 56.56,75.40 48.78,64.25 41.01,53.09 28.17,36.56 15.32,20.03 6.53,11.11 -2.25,2.19 -2.48,1.89 -2.71,1.59 -2.86,1.24 -3.01,0.89 -3.07,0.52 -3.13,0.14 -3.11,-0.22 -3.08,-0.60 -2.96,-0.96 -2.84,-1.32 -2.64,-1.64 -2.44,-1.97 -2.17,-2.23 -1.90,-2.49 -1.57,-2.69 -1.25,-2.88 -0.88,-2.99 -0.52,-3.09 -0.14,-3.11 0.23,-3.13 0.60,-3.06 0.97,-2.98 1.31,-2.82 1.66,-2.66 1.95,-2.43 2.25,-2.19 2.25,-2.19 L 2.25,-2.19 Z"></path></g><g transform="translate(417.99999237060547 65.19999694824219) rotate(0 3.600006103515625 42.80000305175781)" stroke="none"><path fill="#1e1e1e" d="M 2.26,-2.58 Q 2.26,-2.58 11.38,5.54 20.51,13.68 33.66,27.36 46.81,41.05 54.66,49.63 62.52,58.21 66.36,63.09 70.20,67.97 71.84,72.06 73.47,76.16 71.16,78.66 68.85,81.17 62.84,82.99 56.83,84.81 48.32,85.91 39.82,87.00 27.16,87.20 14.50,87.40 2.63,86.54 -9.24,85.67 -19.88,83.90 -30.52,82.12 -39.30,79.48 -48.08,76.84 -53.68,73.70 -59.29,70.55 -62.23,65.44 -65.17,60.33 -64.23,53.32 -63.30,46.31 -58.96,40.14 -54.63,33.98 -49.29,28.66 -43.95,23.34 -39.36,19.47 -34.77,15.60 -31.95,13.34 -29.12,11.09 -25.24,8.69 -21.35,6.28 -20.78,6.24 -20.21,6.19 -19.66,6.33 -19.10,6.47 -18.62,6.78 -18.14,7.09 -17.78,7.54 -17.42,7.99 -17.23,8.52 -17.03,9.06 -17.02,9.64 -17.00,10.21 -17.17,10.76 -17.34,11.30 -17.68,11.77 -18.01,12.23 -18.48,12.56 -18.94,12.90 -19.49,13.06 -20.04,13.23 -20.61,13.21 -21.18,13.20 -21.72,13.00 -22.26,12.80 -22.70,12.44 -23.15,12.08 -23.46,11.60 -23.76,11.11 -23.90,10.56 -24.04,10.00 -23.99,9.43 -23.94,8.86 -23.71,8.33 -23.49,7.81 -23.10,7.38 -22.72,6.96 -22.22,6.67 -21.72,6.39 -21.16,6.29 -20.59,6.18 -20.03,6.26 -19.46,6.34 -18.95,6.60 -18.43,6.85 -18.03,7.26 -17.63,7.66 -17.37,8.18 -17.12,8.69 -17.04,9.26 -16.97,9.83 -17.08,10.39 -17.19,10.95 -17.47,11.45 -17.75,11.95 -18.18,12.33 -18.61,12.71 -19.14,12.93 -19.66,13.16 -19.66,13.16 -19.66,13.16 -22.66,14.50 -25.65,15.84 -28.50,17.74 -31.35,19.64 -35.78,23.38 -40.21,27.11 -45.27,32.12 -50.33,37.12 -54.22,42.27 -58.11,47.41 -59.22,52.94 -60.32,58.46 -58.32,62.29 -56.32,66.11 -51.39,68.84 -46.47,71.56 -38.03,74.06 -29.60,76.57 -19.22,78.25 -8.84,79.92 2.77,80.68 14.38,81.44 26.68,81.14 38.97,80.83 46.97,79.66 54.97,78.49 59.66,77.14 64.35,75.79 65.04,73.66 65.74,71.52 61.97,66.86 58.20,62.20 50.31,53.75 42.42,45.30 29.35,31.91 16.28,18.51 7.01,10.55 -2.26,2.58 -2.53,2.27 -2.81,1.96 -3.00,1.60 -3.20,1.23 -3.30,0.83 -3.40,0.43 -3.40,0.02 -3.41,-0.39 -3.31,-0.79 -3.21,-1.19 -3.02,-1.56 -2.83,-1.93 -2.56,-2.24 -2.29,-2.55 -1.95,-2.79 -1.61,-3.02 -1.22,-3.17 -0.84,-3.32 -0.43,-3.38 -0.02,-3.43 0.39,-3.38 0.80,-3.33 1.18,-3.19 1.57,-3.04 1.91,-2.81 2.26,-2.58 2.26,-2.58 L 2.26,-2.58 Z"></path></g><g transform="translate(563.5999984741211 145.99998474121094) rotate(0 0.00005000000000165983 0.00005000000000165983)" stroke="none"><path fill="#1e1e1e" d="M 3.14,-3.14 Q 3.14,-3.14 3.55,-2.55 3.97,-1.97 4.18,-1.28 4.40,-0.59 4.38,0.11 4.36,0.83 4.11,1.51 3.86,2.18 3.41,2.74 2.96,3.30 2.36,3.69 1.75,4.07 1.05,4.25 0.36,4.42 -0.35,4.36 -1.07,4.30 -1.73,4.02 -2.39,3.74 -2.92,3.26 -3.46,2.78 -3.81,2.15 -4.16,1.53 -4.30,0.82 -4.43,0.11 -4.34,-0.59 -4.24,-1.30 -3.92,-1.94 -3.60,-2.59 -3.09,-3.09 -2.59,-3.60 -1.94,-3.92 -1.30,-4.24 -0.59,-4.34 0.12,-4.43 0.82,-4.30 1.53,-4.16 2.15,-3.81 2.78,-3.46 3.26,-2.92 3.74,-2.39 4.02,-1.73 4.31,-1.07 4.36,-0.35 4.42,0.36 4.25,1.05 4.07,1.75 3.69,2.36 3.30,2.96 2.74,3.41 2.18,3.86 1.51,4.11 0.83,4.36 0.11,4.38 -0.60,4.40 -1.28,4.18 -1.97,3.97 -2.55,3.55 -3.14,3.13 -3.14,3.14 -3.14,3.14 -3.47,2.71 -3.80,2.29 -4.02,1.80 -4.24,1.32 -4.33,0.79 -4.43,0.26 -4.40,-0.26 -4.36,-0.80 -4.20,-1.31 -4.04,-1.82 -3.77,-2.28 -3.49,-2.73 -3.11,-3.11 -2.73,-3.49 -2.28,-3.77 -1.82,-4.05 -1.31,-4.20 -0.80,-4.36 -0.26,-4.40 0.26,-4.43 0.79,-4.33 1.32,-4.24 1.80,-4.02 2.29,-3.80 2.71,-3.47 3.14,-3.14 3.14,-3.14 L 3.14,-3.14 Z"></path></g><g transform="translate(563.5999984741211 145.99998474121094) rotate(0 0.00005000000000165983 0.00005000000000165983)" stroke="none"><path fill="#1e1e1e" d="M 3.14,-3.14 Q 3.14,-3.14 3.55,-2.55 3.97,-1.97 4.18,-1.28 4.40,-0.59 4.38,0.11 4.36,0.83 4.11,1.51 3.86,2.18 3.41,2.74 2.96,3.30 2.36,3.69 1.75,4.07 1.05,4.25 0.36,4.42 -0.35,4.36 -1.07,4.30 -1.73,4.02 -2.39,3.74 -2.92,3.26 -3.46,2.78 -3.81,2.15 -4.16,1.53 -4.30,0.82 -4.43,0.11 -4.34,-0.59 -4.24,-1.30 -3.92,-1.94 -3.60,-2.59 -3.09,-3.09 -2.59,-3.60 -1.94,-3.92 -1.30,-4.24 -0.59,-4.34 0.12,-4.43 0.82,-4.30 1.53,-4.16 2.15,-3.81 2.78,-3.46 3.26,-2.92 3.74,-2.39 4.02,-1.73 4.31,-1.07 4.36,-0.35 4.42,0.36 4.25,1.05 4.07,1.75 3.69,2.36 3.30,2.96 2.74,3.41 2.18,3.86 1.51,4.11 0.83,4.36 0.11,4.38 -0.60,4.40 -1.28,4.18 -1.97,3.97 -2.55,3.55 -3.14,3.13 -3.14,3.14 -3.14,3.14 -3.47,2.71 -3.80,2.29 -4.02,1.80 -4.24,1.32 -4.33,0.79 -4.43,0.26 -4.40,-0.26 -4.36,-0.80 -4.20,-1.31 -4.04,-1.82 -3.77,-2.28 -3.49,-2.73 -3.11,-3.11 -2.73,-3.49 -2.28,-3.77 -1.82,-4.05 -1.31,-4.20 -0.80,-4.36 -0.26,-4.40 0.26,-4.43 0.79,-4.33 1.32,-4.24 1.80,-4.02 2.29,-3.80 2.71,-3.47 3.14,-3.14 3.14,-3.14 L 3.14,-3.14 Z"></path></g><g transform="translate(217.20000457763672 284.40000915527344) rotate(0 14.799995422363281 15.199996948242188)" stroke="none"><path fill="#1e1e1e" d="M 0.79,-3.65 Q 0.79,-3.65 9.26,-1.67 17.74,0.31 24.44,2.38 31.13,4.45 36.71,6.27 42.28,8.10 47.40,9.82 52.53,11.54 57.63,13.97 62.73,16.40 66.71,19.67 70.70,22.94 73.26,26.30 75.82,29.65 77.12,31.80 78.43,33.95 78.54,37.68 78.66,41.41 76.37,44.07 74.08,46.72 69.78,49.62 65.49,52.52 53.10,57.90 40.72,63.27 31.58,66.62 22.44,69.97 13.51,71.64 4.58,73.32 -1.51,73.99 -7.61,74.66 -12.78,74.93 -17.95,75.20 -23.88,74.12 -29.81,73.05 -33.74,71.94 -37.66,70.83 -40.38,70.05 -43.09,69.27 -44.98,68.07 -46.87,66.87 -48.83,64.35 -50.79,61.83 -50.65,58.46 -50.52,55.10 -49.65,51.87 -48.78,48.64 -48.25,45.76 -47.71,42.89 -46.97,39.67 -46.24,36.45 -45.19,33.28 -44.14,30.11 -43.42,27.13 -42.69,24.15 -40.73,21.70 -38.77,19.25 -30.57,13.16 -22.36,7.07 -13.22,-0.56 -4.08,-8.20 5.22,-15.59 14.53,-22.98 23.46,-28.90 32.39,-34.83 36.58,-37.71 40.77,-40.58 42.74,-42.08 44.70,-43.57 46.36,-44.51 48.02,-45.45 48.61,-45.63 49.19,-45.82 49.81,-45.80 50.42,-45.79 51.00,-45.58 51.57,-45.37 52.05,-44.98 52.53,-44.60 52.87,-44.08 53.20,-43.57 53.35,-42.97 53.50,-42.38 53.45,-41.76 53.40,-41.15 53.16,-40.59 52.92,-40.02 52.51,-39.56 52.10,-39.10 51.57,-38.80 51.04,-38.50 50.43,-38.38 49.83,-38.26 49.22,-38.34 48.61,-38.42 48.06,-38.70 47.51,-38.97 47.08,-39.40 46.64,-39.83 46.37,-40.38 46.09,-40.93 46.01,-41.54 45.92,-42.15 46.04,-42.75 46.15,-43.35 46.45,-43.89 46.75,-44.43 47.21,-44.84 47.66,-45.25 48.23,-45.49 48.79,-45.74 49.40,-45.79 50.01,-45.84 50.61,-45.69 51.21,-45.55 51.72,-45.22 52.24,-44.89 52.63,-44.41 53.02,-43.93 53.23,-43.36 53.44,-42.78 53.46,-42.17 53.48,-41.55 53.30,-40.97 53.12,-40.38 52.76,-39.88 52.41,-39.38 51.91,-39.02 51.41,-38.66 51.41,-38.66 51.41,-38.66 50.00,-38.06 48.58,-37.46 46.54,-36.42 44.51,-35.37 40.38,-32.28 36.24,-29.18 27.74,-23.21 19.24,-17.24 10.28,-9.62 1.32,-2.01 -7.64,6.15 -16.60,14.33 -25.15,21.30 -33.70,28.27 -34.64,30.63 -35.58,32.99 -36.51,35.71 -37.44,38.43 -38.12,41.51 -38.79,44.58 -39.42,47.85 -40.05,51.12 -40.83,53.69 -41.61,56.25 -41.13,59.67 -40.65,63.10 -38.33,64.19 -36.00,65.28 -32.41,66.42 -28.81,67.56 -23.53,68.53 -18.25,69.50 -13.28,69.16 -8.30,68.82 -2.44,68.06 3.41,67.30 11.79,65.62 20.17,63.93 29.05,60.45 37.92,56.97 49.53,51.70 61.13,46.42 64.56,43.75 68.00,41.07 70.39,39.43 72.78,37.79 71.93,35.42 71.07,33.06 69.10,30.14 67.12,27.22 63.69,24.38 60.26,21.55 55.49,19.34 50.71,17.14 45.58,15.54 40.45,13.94 34.89,12.29 29.32,10.63 22.81,8.84 16.29,7.04 7.75,5.35 -0.79,3.65 -1.21,3.51 -1.64,3.36 -2.02,3.11 -2.40,2.87 -2.71,2.54 -3.01,2.21 -3.24,1.82 -3.46,1.42 -3.58,0.99 -3.70,0.55 -3.71,0.10 -3.72,-0.34 -3.63,-0.78 -3.53,-1.22 -3.33,-1.63 -3.14,-2.03 -2.85,-2.38 -2.56,-2.73 -2.19,-2.99 -1.83,-3.26 -1.41,-3.43 -0.99,-3.60 -0.55,-3.67 -0.10,-3.74 0.34,-3.70 0.79,-3.65 0.79,-3.65 L 0.79,-3.65 Z"></path></g><g transform="translate(413.99999237060547 298.8000030517578) rotate(0 17.600006103515625 32.79998779296875)" stroke="none"><path fill="#1e1e1e" d="M 1.49,-3.37 Q 1.49,-3.37 7.64,-0.48 13.80,2.41 22.21,5.22 30.63,8.04 36.83,10.23 43.02,12.41 46.64,13.74 50.26,15.07 52.53,15.68 54.80,16.28 56.85,17.54 58.89,18.79 60.71,22.99 62.53,27.18 63.23,31.75 63.93,36.32 64.38,41.47 64.84,46.62 64.99,51.15 65.15,55.68 65.46,58.04 65.78,60.40 64.90,63.55 64.02,66.70 60.51,68.72 57.00,70.73 51.02,71.25 45.04,71.77 40.37,71.85 35.71,71.93 31.24,71.45 26.78,70.97 22.15,70.26 17.53,69.56 13.45,68.81 9.38,68.06 4.50,67.24 -0.37,66.42 -4.79,65.59 -9.21,64.76 -12.48,63.84 -15.76,62.93 -20.42,60.29 -25.07,57.65 -26.89,55.12 -28.72,52.59 -29.65,50.32 -30.58,48.04 -31.18,44.69 -31.78,41.34 -30.96,38.99 -30.15,36.63 -28.27,33.67 -26.40,30.71 -19.61,26.05 -12.83,21.39 -7.35,17.19 -1.88,12.99 1.87,9.91 5.63,6.83 8.06,4.51 10.49,2.20 12.10,0.19 13.71,-1.80 13.76,-2.62 13.82,-3.45 14.05,-4.15 14.28,-4.85 14.73,-5.44 15.17,-6.03 15.78,-6.44 16.39,-6.86 17.09,-7.06 17.80,-7.26 18.54,-7.23 19.28,-7.19 19.96,-6.92 20.65,-6.65 21.22,-6.18 21.78,-5.70 22.16,-5.07 22.55,-4.44 22.71,-3.72 22.87,-3.00 22.80,-2.27 22.72,-1.54 22.42,-0.87 22.11,-0.20 21.61,0.33 21.10,0.87 20.45,1.22 19.80,1.57 19.07,1.69 18.35,1.82 17.62,1.70 16.89,1.58 16.24,1.24 15.58,0.90 15.07,0.37 14.56,-0.16 14.25,-0.82 13.94,-1.49 13.85,-2.22 13.77,-2.96 13.92,-3.68 14.08,-4.40 14.45,-5.03 14.83,-5.67 15.39,-6.15 15.95,-6.63 16.63,-6.91 17.32,-7.18 18.06,-7.23 18.79,-7.27 19.50,-7.08 20.22,-6.88 20.83,-6.47 21.44,-6.06 21.89,-5.48 22.34,-4.89 22.58,-4.19 22.82,-3.49 22.82,-2.76 22.83,-2.02 22.83,-2.02 22.83,-2.02 22.00,0.53 21.18,3.08 18.47,5.47 15.77,7.85 13.23,10.17 10.70,12.49 7.11,15.99 3.52,19.49 -1.78,24.28 -7.10,29.07 -13.72,34.42 -20.33,39.77 -21.22,42.59 -22.10,45.41 -20.97,48.67 -19.85,51.93 -16.78,54.41 -13.71,56.89 -10.95,58.02 -8.20,59.15 -3.83,59.89 0.52,60.63 5.49,61.35 10.46,62.06 14.40,62.75 18.35,63.44 22.84,63.96 27.33,64.48 31.35,64.73 35.36,64.97 39.81,64.58 44.26,64.20 48.90,63.61 53.55,63.03 56.13,61.85 58.71,60.66 58.82,58.34 58.94,56.01 58.62,51.68 58.30,47.35 57.63,42.47 56.97,37.60 56.12,33.74 55.27,29.87 53.78,26.40 52.28,22.93 50.16,21.92 48.03,20.92 44.55,19.54 41.06,18.16 34.87,16.14 28.67,14.12 19.85,11.37 11.03,8.63 4.77,6.00 -1.49,3.37 -1.87,3.14 -2.26,2.91 -2.57,2.60 -2.89,2.28 -3.12,1.90 -3.35,1.52 -3.49,1.10 -3.62,0.68 -3.65,0.23 -3.68,-0.20 -3.60,-0.64 -3.52,-1.08 -3.34,-1.48 -3.16,-1.89 -2.89,-2.24 -2.62,-2.59 -2.27,-2.87 -1.92,-3.14 -1.51,-3.33 -1.11,-3.51 -0.67,-3.59 -0.23,-3.68 0.20,-3.65 0.64,-3.63 1.07,-3.50 1.49,-3.37 1.49,-3.37 L 1.49,-3.37 Z"></path></g><g transform="translate(60.400001525878906 114.80000305175781) rotate(0 17.199996948242188 5.9999847412109375)" stroke="none"><path fill="#1e1e1e" d="M 4.94,-1.14 Q 4.94,-1.14 5.59,1.85 6.24,4.85 7.29,7.60 8.33,10.34 11.79,14.43 15.24,18.51 17.79,21.09 20.35,23.67 21.20,21.59 22.04,19.51 23.00,16.76 23.96,14.01 25.01,11.75 26.05,9.49 26.80,6.16 27.55,2.83 27.77,-0.67 27.99,-4.17 28.01,-7.42 28.03,-10.67 27.99,-13.56 27.96,-16.45 28.13,-17.48 28.30,-18.51 28.79,-19.43 29.28,-20.34 30.04,-21.06 30.79,-21.77 31.74,-22.21 32.68,-22.64 33.72,-22.75 34.76,-22.87 35.77,-22.64 36.79,-22.41 37.68,-21.88 38.57,-21.34 39.24,-20.54 39.92,-19.75 40.30,-18.78 40.68,-17.81 40.74,-16.77 40.79,-15.73 40.51,-14.73 40.23,-13.72 39.64,-12.86 39.06,-12.00 38.23,-11.38 37.40,-10.75 36.41,-10.42 35.42,-10.09 34.38,-10.09 33.34,-10.09 32.35,-10.42 31.37,-10.76 30.54,-11.39 29.71,-12.02 29.13,-12.89 28.55,-13.75 28.27,-14.75 27.99,-15.76 28.05,-16.80 28.11,-17.84 28.50,-18.80 28.89,-19.77 29.56,-20.56 30.24,-21.35 31.13,-21.89 32.03,-22.42 33.04,-22.65 34.06,-22.87 35.10,-22.75 36.13,-22.64 37.07,-22.20 38.02,-21.76 38.77,-21.04 39.53,-20.32 40.01,-19.40 40.50,-18.48 40.66,-17.45 40.83,-16.42 40.83,-16.43 40.83,-16.43 40.78,-13.49 40.72,-10.55 40.64,-7.13 40.56,-3.71 40.50,-1.32 40.43,1.07 39.74,5.25 39.05,9.43 38.34,12.29 37.63,15.14 36.53,17.25 35.43,19.37 34.22,21.85 33.01,24.33 31.26,26.49 29.50,28.66 27.74,30.41 25.97,32.17 23.50,33.13 21.02,34.09 18.14,33.50 15.27,32.91 13.02,30.74 10.77,28.56 9.04,26.73 7.30,24.91 5.22,22.50 3.13,20.10 0.99,17.63 -1.14,15.15 -2.31,11.13 -3.48,7.10 -4.21,4.12 -4.94,1.14 -5.01,0.53 -5.07,-0.07 -4.99,-0.68 -4.91,-1.28 -4.68,-1.85 -4.45,-2.42 -4.10,-2.92 -3.74,-3.42 -3.28,-3.82 -2.82,-4.22 -2.27,-4.49 -1.72,-4.77 -1.13,-4.91 -0.53,-5.04 0.07,-5.03 0.68,-5.02 1.27,-4.87 1.87,-4.71 2.40,-4.42 2.94,-4.13 3.39,-3.72 3.84,-3.30 4.18,-2.80 4.52,-2.29 4.73,-1.71 4.94,-1.14 4.94,-1.14 L 4.94,-1.14 Z"></path></g><g transform="translate(16.39999771118164 98.80000305175781) rotate(0 0.8000011444091797 34.399993896484375)" stroke="none"><path fill="#1e1e1e" d="M 4.12,0 Q 4.12,0 3.92,9.65 3.72,19.31 4.03,28.86 4.34,38.40 4.43,45.98 4.52,53.56 4.61,57.47 4.70,61.37 4.84,64.73 4.98,68.10 4.90,68.64 4.82,69.18 4.57,69.67 4.32,70.16 3.92,70.55 3.53,70.93 3.04,71.17 2.54,71.40 2.00,71.47 1.45,71.54 0.91,71.43 0.37,71.32 -0.09,71.04 -0.56,70.77 -0.93,70.35 -1.29,69.94 -1.50,69.43 -1.71,68.92 -1.75,68.38 -1.78,67.83 -1.64,67.30 -1.51,66.77 -1.20,66.31 -0.90,65.85 -0.47,65.51 -0.04,65.17 0.47,64.99 0.99,64.81 1.54,64.80 2.09,64.79 2.61,64.96 3.13,65.13 3.57,65.45 4.02,65.78 4.33,66.23 4.65,66.68 4.80,67.20 4.95,67.73 4.93,68.28 4.91,68.83 4.72,69.34 4.52,69.86 4.17,70.28 3.82,70.70 3.35,70.99 2.89,71.28 2.35,71.41 1.82,71.53 1.27,71.48 0.72,71.43 0.22,71.21 -0.27,70.98 -0.67,70.61 -1.08,70.24 -1.34,69.76 -1.61,69.28 -1.70,68.74 -1.80,68.20 -1.80,68.20 -1.80,68.20 -1.77,64.85 -1.74,61.51 -1.82,57.62 -1.90,53.73 -2.20,46.23 -2.50,38.73 -3.11,29.02 -3.72,19.32 -3.92,9.66 -4.12,0 -4.06,-0.49 -4.00,-0.98 -3.83,-1.45 -3.65,-1.91 -3.37,-2.32 -3.09,-2.73 -2.71,-3.06 -2.34,-3.39 -1.90,-3.62 -1.46,-3.86 -0.98,-3.97 -0.49,-4.09 0.00,-4.09 0.49,-4.09 0.98,-3.97 1.46,-3.86 1.90,-3.62 2.34,-3.39 2.71,-3.06 3.09,-2.73 3.37,-2.32 3.65,-1.91 3.83,-1.45 4.00,-0.98 4.06,-0.49 4.12,0.00 4.12,0.00 L 4.12,0 Z"></path></g><g transform="translate(26 114.80000305175781) rotate(0 1.5999984741210938 19.999984741210938)" stroke="none"><path fill="#1e1e1e" d="M -4.60,-2.50 Q -4.60,-2.50 -3.15,-5.07 -1.70,-7.64 0.15,-9.51 2.01,-11.38 5.18,-12.25 8.34,-13.12 11.63,-11.73 14.92,-10.34 16.73,-8.45 18.53,-6.56 19.86,-4.34 21.19,-2.13 21.91,0.19 22.64,2.52 23.52,6.72 24.39,10.91 24.48,14.90 24.57,18.89 22.94,21.98 21.31,25.07 19.06,27.59 16.82,30.10 13.96,33.21 11.11,36.31 9.01,39.03 6.91,41.75 4.92,45.25 2.94,48.75 -0.04,51.24 -3.03,53.73 -5.52,53.79 -8.02,53.84 -10.32,53.27 -12.62,52.69 -16.00,50.74 -19.37,48.79 -19.97,48.07 -20.57,47.34 -20.91,46.45 -21.25,45.57 -21.28,44.63 -21.32,43.68 -21.05,42.78 -20.79,41.87 -20.25,41.10 -19.70,40.33 -18.94,39.77 -18.18,39.21 -17.28,38.92 -16.38,38.63 -15.44,38.65 -14.50,38.66 -13.61,38.97 -12.72,39.29 -11.97,39.87 -11.23,40.46 -10.71,41.25 -10.19,42.03 -9.96,42.95 -9.72,43.86 -9.78,44.80 -9.85,45.75 -10.21,46.62 -10.57,47.49 -11.20,48.20 -11.82,48.91 -12.63,49.38 -13.45,49.86 -14.38,50.05 -15.30,50.24 -16.24,50.12 -17.18,50.00 -18.03,49.59 -18.88,49.18 -19.55,48.52 -20.23,47.86 -20.66,47.02 -21.09,46.18 -21.23,45.25 -21.36,44.31 -21.20,43.38 -21.03,42.46 -20.57,41.63 -20.12,40.80 -19.42,40.16 -18.73,39.52 -17.87,39.14 -17.00,38.76 -16.06,38.67 -15.12,38.58 -14.20,38.80 -13.28,39.02 -12.48,39.52 -11.68,40.01 -11.68,40.01 -11.68,40.01 -9.32,42.08 -6.96,44.14 -5.25,42.56 -3.53,40.97 -2.20,38.58 -0.87,36.20 1.12,33.21 3.11,30.22 5.54,26.38 7.98,22.54 10.49,19.17 13.00,15.81 12.52,12.36 12.04,8.91 11.58,6.12 11.12,3.34 9.17,0.43 7.22,-2.47 5.91,0.01 4.60,2.50 4.23,3.02 3.86,3.53 3.38,3.94 2.90,4.36 2.34,4.64 1.77,4.92 1.16,5.07 0.54,5.21 -0.08,5.20 -0.71,5.19 -1.32,5.03 -1.93,4.86 -2.49,4.56 -3.04,4.26 -3.51,3.83 -3.97,3.41 -4.32,2.88 -4.67,2.36 -4.89,1.76 -5.10,1.17 -5.17,0.54 -5.23,-0.08 -5.15,-0.71 -5.06,-1.33 -4.83,-1.92 -4.60,-2.50 -4.60,-2.50 L -4.60,-2.50 Z"></path></g><g transform="translate(46 61.19999694824219) rotate(0 6.400001525878906 0.40000152587890625)" stroke="none"><path fill="#1e1e1e" d="M 0,-5.07 Q 0,-5.07 1.85,-5.15 3.70,-5.24 6.10,-5.05 8.50,-4.85 10.52,-4.89 12.55,-4.93 13.47,-4.77 14.38,-4.62 15.20,-4.19 16.02,-3.75 16.65,-3.08 17.29,-2.40 17.68,-1.56 18.07,-0.72 18.17,0.19 18.26,1.11 18.06,2.02 17.86,2.92 17.38,3.72 16.90,4.51 16.20,5.11 15.49,5.71 14.63,6.05 13.77,6.39 12.84,6.44 11.91,6.49 11.02,6.24 10.13,5.99 9.36,5.47 8.60,4.95 8.04,4.21 7.48,3.47 7.18,2.59 6.89,1.71 6.89,0.79 6.89,-0.13 7.19,-1.01 7.48,-1.89 8.05,-2.62 8.61,-3.36 9.38,-3.88 10.15,-4.40 11.04,-4.65 11.93,-4.89 12.86,-4.84 13.78,-4.79 14.64,-4.44 15.50,-4.10 16.21,-3.50 16.92,-2.90 17.39,-2.10 17.87,-1.31 18.07,-0.40 18.26,0.49 18.16,1.42 18.06,2.34 17.67,3.18 17.28,4.02 16.64,4.69 16.00,5.36 15.18,5.80 14.36,6.23 13.45,6.38 12.53,6.52 12.53,6.52 12.53,6.52 10.62,6.49 8.71,6.46 6.18,5.85 3.65,5.24 1.82,5.15 0,5.07 -0.60,5.00 -1.21,4.92 -1.78,4.71 -2.35,4.49 -2.86,4.14 -3.36,3.80 -3.77,3.34 -4.17,2.88 -4.46,2.34 -4.74,1.80 -4.89,1.20 -5.04,0.61 -5.04,-0.00 -5.04,-0.61 -4.89,-1.20 -4.74,-1.80 -4.46,-2.34 -4.17,-2.88 -3.77,-3.34 -3.36,-3.80 -2.86,-4.14 -2.35,-4.49 -1.78,-4.71 -1.21,-4.92 -0.60,-5.00 0.00,-5.07 0.00,-5.07 L 0,-5.07 Z"></path></g><g transform="translate(74.80000305175781 61.19999694824219) rotate(0 -1.2000007629394531 11.199996948242188)" stroke="none"><path fill="#1e1e1e" d="M 4.62,0.72 Q 4.62,0.72 3.66,5.05 2.71,9.38 2.48,12.27 2.26,15.16 2.10,17.32 1.94,19.47 2.28,20.13 2.62,20.79 2.73,21.53 2.84,22.26 2.71,22.99 2.59,23.72 2.23,24.37 1.88,25.02 1.33,25.53 0.79,26.03 0.11,26.34 -0.56,26.64 -1.29,26.71 -2.03,26.78 -2.75,26.62 -3.48,26.45 -4.11,26.06 -4.74,25.67 -5.21,25.10 -5.69,24.53 -5.96,23.84 -6.22,23.15 -6.25,22.40 -6.29,21.66 -6.08,20.95 -5.87,20.24 -5.45,19.63 -5.03,19.02 -4.43,18.58 -3.84,18.13 -3.13,17.91 -2.43,17.68 -1.68,17.68 -0.94,17.69 -0.24,17.94 0.45,18.18 1.03,18.64 1.62,19.09 2.03,19.71 2.44,20.33 2.63,21.05 2.82,21.76 2.77,22.50 2.72,23.24 2.44,23.93 2.16,24.62 1.67,25.18 1.19,25.74 0.55,26.11 -0.08,26.49 -0.81,26.64 -1.54,26.79 -2.27,26.70 -3.01,26.61 -3.68,26.29 -4.35,25.97 -4.88,25.46 -5.41,24.94 -5.41,24.94 -5.41,24.94 -5.80,19.64 -6.20,14.34 -5.83,11.21 -5.47,8.09 -5.04,3.68 -4.62,-0.72 -4.46,-1.27 -4.31,-1.81 -4.03,-2.30 -3.75,-2.79 -3.36,-3.20 -2.97,-3.61 -2.50,-3.91 -2.02,-4.21 -1.49,-4.39 -0.95,-4.58 -0.39,-4.62 0.16,-4.67 0.72,-4.58 1.28,-4.50 1.80,-4.28 2.32,-4.06 2.77,-3.72 3.22,-3.38 3.58,-2.95 3.94,-2.51 4.18,-2.00 4.43,-1.50 4.54,-0.94 4.66,-0.39 4.64,0.16 4.62,0.73 4.62,0.73 L 4.62,0.72 Z"></path></g><g transform="translate(14 115.59999084472656) rotate(0 0.7999992370605469 39.600006103515625)" stroke="none"><path fill="#1e1e1e" d="M 3.86,-0.14 Q 3.86,-0.14 3.92,6.07 3.99,12.28 3.96,17.49 3.94,22.69 3.89,28.82 3.84,34.95 3.79,41.00 3.75,47.05 3.71,52.84 3.66,58.63 3.63,63.39 3.60,68.16 4.05,70.73 4.49,73.31 4.72,75.91 4.96,78.51 4.89,79.05 4.83,79.60 4.60,80.10 4.37,80.59 3.99,80.99 3.61,81.39 3.13,81.64 2.64,81.90 2.10,81.99 1.56,82.07 1.02,81.98 0.48,81.89 -0.00,81.63 -0.48,81.37 -0.86,80.98 -1.23,80.58 -1.46,80.08 -1.69,79.58 -1.75,79.03 -1.81,78.49 -1.69,77.95 -1.57,77.42 -1.28,76.95 -1.00,76.48 -0.58,76.12 -0.16,75.77 0.34,75.57 0.85,75.37 1.40,75.34 1.95,75.31 2.47,75.46 3.00,75.61 3.46,75.92 3.91,76.23 4.24,76.66 4.57,77.10 4.74,77.62 4.92,78.14 4.92,78.69 4.91,79.24 4.74,79.76 4.56,80.28 4.23,80.72 3.89,81.15 3.44,81.46 2.98,81.76 2.45,81.91 1.92,82.05 1.38,82.02 0.83,81.99 0.32,81.79 -0.18,81.58 -0.60,81.22 -1.01,80.87 -1.29,80.40 -1.58,79.93 -1.69,79.39 -1.81,78.85 -1.81,78.85 -1.81,78.85 -1.89,76.36 -1.98,73.86 -1.99,71.01 -2.01,68.16 -2.05,63.40 -2.09,58.64 -2.14,52.85 -2.20,47.07 -2.28,41.03 -2.36,34.99 -2.50,28.90 -2.63,22.82 -2.85,17.68 -3.07,12.55 -3.46,6.34 -3.86,0.14 -3.82,-0.32 -3.78,-0.78 -3.63,-1.22 -3.48,-1.66 -3.23,-2.06 -2.98,-2.45 -2.64,-2.77 -2.31,-3.09 -1.90,-3.32 -1.50,-3.56 -1.05,-3.68 -0.60,-3.81 -0.14,-3.83 0.32,-3.85 0.77,-3.75 1.23,-3.66 1.65,-3.46 2.07,-3.25 2.43,-2.96 2.79,-2.66 3.07,-2.29 3.35,-1.92 3.53,-1.49 3.71,-1.06 3.78,-0.60 3.86,-0.14 3.86,-0.14 L 3.86,-0.14 Z"></path></g><g transform="translate(25.199996948242188 278.8000030517578) rotate(0 5.200000762939453 48.399993896484375)" stroke="none"><path fill="#1e1e1e" d="M 4.25,-0.82 Q 4.25,-0.82 5.64,7.49 7.03,15.81 8.45,22.76 9.88,29.70 10.68,34.10 11.47,38.50 12.07,40.57 12.67,42.65 13.55,45.38 14.44,48.12 14.43,50.28 14.42,52.44 13.54,56.14 12.66,59.84 12.10,63.04 11.54,66.23 11.39,68.84 11.24,71.46 11.32,74.59 11.40,77.72 11.62,80.44 11.83,83.17 11.95,85.32 12.08,87.47 11.86,90.24 11.64,93.02 11.61,94.78 11.57,96.55 11.39,97.50 11.21,98.44 10.73,99.28 10.26,100.13 9.54,100.77 8.82,101.41 7.93,101.80 7.05,102.18 6.08,102.26 5.12,102.33 4.18,102.10 3.25,101.87 2.43,101.35 1.62,100.83 1.02,100.07 0.41,99.32 0.08,98.42 -0.24,97.51 -0.27,96.54 -0.30,95.58 -0.01,94.66 0.26,93.73 0.82,92.95 1.39,92.17 2.17,91.60 2.96,91.04 3.88,90.76 4.80,90.47 5.77,90.50 6.73,90.53 7.64,90.86 8.54,91.19 9.30,91.80 10.05,92.40 10.57,93.22 11.09,94.03 11.32,94.97 11.55,95.90 11.47,96.87 11.40,97.83 11.01,98.71 10.63,99.60 9.99,100.32 9.34,101.04 8.50,101.51 7.66,101.99 6.71,102.17 5.77,102.35 4.81,102.22 3.85,102.09 2.99,101.66 2.12,101.23 1.44,100.55 0.76,99.87 0.33,99.00 -0.09,98.14 -0.22,97.18 -0.35,96.22 -0.35,96.22 -0.35,96.22 -0.25,94.16 -0.15,92.09 0.28,89.76 0.71,87.44 0.93,84.16 1.14,80.89 1.48,77.98 1.81,75.06 2.03,72.88 2.25,70.70 2.56,67.74 2.88,64.78 3.43,61.36 3.97,57.94 4.92,52.70 5.87,47.46 5.44,43.66 5.02,39.85 3.99,35.57 2.97,31.29 1.18,24.29 -0.59,17.30 -2.42,9.06 -4.25,0.82 -4.29,0.30 -4.33,-0.21 -4.24,-0.73 -4.15,-1.24 -3.94,-1.72 -3.73,-2.20 -3.41,-2.61 -3.09,-3.03 -2.69,-3.36 -2.28,-3.68 -1.80,-3.90 -1.33,-4.12 -0.82,-4.22 -0.30,-4.32 0.21,-4.29 0.73,-4.27 1.23,-4.12 1.73,-3.97 2.18,-3.70 2.63,-3.44 3.01,-3.07 3.38,-2.71 3.66,-2.26 3.93,-1.82 4.09,-1.32 4.25,-0.82 4.25,-0.82 L 4.25,-0.82 Z"></path></g><g transform="translate(21.200000762939453 288.40000915527344) rotate(0 9.999998092651367 14)" stroke="none"><path fill="#1e1e1e" d="M 0,-5.23 Q 0,-5.23 2.30,-5.27 4.60,-5.31 8.83,-4.82 13.07,-4.32 15.05,-3.50 17.03,-2.69 19.41,-0.93 21.79,0.81 23.38,4.93 24.98,9.05 25.21,11.79 25.44,14.52 25.71,18.06 25.98,21.59 26.12,24.66 26.25,27.72 26.09,28.72 25.93,29.72 25.46,30.62 24.98,31.51 24.25,32.21 23.52,32.91 22.60,33.33 21.68,33.76 20.67,33.87 19.67,33.98 18.68,33.77 17.69,33.55 16.82,33.03 15.95,32.51 15.29,31.74 14.64,30.97 14.26,30.03 13.88,29.09 13.83,28.08 13.77,27.07 14.04,26.09 14.31,25.12 14.88,24.28 15.44,23.44 16.25,22.82 17.05,22.21 18.01,21.89 18.97,21.56 19.98,21.56 21.00,21.56 21.96,21.88 22.92,22.20 23.72,22.81 24.53,23.42 25.10,24.26 25.67,25.10 25.94,26.07 26.22,27.05 26.16,28.06 26.11,29.07 25.74,30.01 25.36,30.95 24.71,31.72 24.05,32.50 23.19,33.02 22.32,33.54 21.33,33.76 20.34,33.98 19.34,33.88 18.33,33.77 17.41,33.34 16.49,32.92 15.75,32.22 15.02,31.53 14.54,30.64 14.07,29.74 13.90,28.74 13.74,27.74 13.74,27.74 13.74,27.75 13.79,24.90 13.84,22.05 13.74,18.95 13.64,15.85 13.26,13.17 12.88,10.48 12.02,8.52 11.15,6.55 7.87,5.93 4.59,5.31 2.29,5.27 0,5.23 -0.62,5.15 -1.25,5.08 -1.84,4.85 -2.43,4.63 -2.95,4.27 -3.46,3.91 -3.88,3.44 -4.30,2.97 -4.59,2.41 -4.89,1.85 -5.04,1.24 -5.19,0.63 -5.19,-0.00 -5.19,-0.63 -5.04,-1.24 -4.89,-1.85 -4.59,-2.41 -4.30,-2.97 -3.88,-3.44 -3.46,-3.91 -2.95,-4.27 -2.43,-4.63 -1.84,-4.85 -1.25,-5.08 -0.62,-5.15 0.00,-5.23 0.00,-5.23 L 0,-5.23 Z"></path></g><g transform="translate(92.4000015258789 285.99998474121094) rotate(0 0.00004999999998744897 0.00004999999999988347)" stroke="none"><path fill="#1e1e1e" d="M 3.14,-3.14 Q 3.14,-3.14 3.55,-2.55 3.97,-1.97 4.18,-1.28 4.40,-0.59 4.38,0.11 4.36,0.83 4.11,1.51 3.86,2.18 3.41,2.74 2.96,3.30 2.36,3.69 1.75,4.07 1.05,4.25 0.36,4.42 -0.35,4.36 -1.07,4.30 -1.73,4.02 -2.39,3.74 -2.92,3.26 -3.46,2.78 -3.81,2.15 -4.16,1.53 -4.30,0.82 -4.43,0.11 -4.34,-0.59 -4.24,-1.30 -3.92,-1.94 -3.60,-2.59 -3.09,-3.09 -2.59,-3.60 -1.94,-3.92 -1.30,-4.24 -0.59,-4.34 0.12,-4.43 0.82,-4.30 1.53,-4.16 2.15,-3.81 2.78,-3.46 3.26,-2.92 3.74,-2.39 4.02,-1.73 4.31,-1.07 4.36,-0.35 4.42,0.36 4.25,1.05 4.07,1.75 3.69,2.36 3.30,2.96 2.74,3.41 2.18,3.86 1.51,4.11 0.83,4.36 0.11,4.38 -0.60,4.40 -1.28,4.18 -1.97,3.97 -2.55,3.55 -3.14,3.13 -3.14,3.14 -3.14,3.14 -3.47,2.71 -3.80,2.29 -4.02,1.80 -4.24,1.32 -4.33,0.79 -4.43,0.26 -4.40,-0.26 -4.36,-0.80 -4.20,-1.31 -4.04,-1.82 -3.77,-2.28 -3.49,-2.73 -3.11,-3.11 -2.73,-3.49 -2.28,-3.77 -1.82,-4.05 -1.31,-4.20 -0.80,-4.36 -0.26,-4.40 0.26,-4.43 0.79,-4.33 1.32,-4.24 1.80,-4.02 2.29,-3.80 2.71,-3.47 3.14,-3.14 3.14,-3.14 L 3.14,-3.14 Z"></path></g><g transform="translate(92.4000015258789 285.99998474121094) rotate(0 19.199996948242188 30.000015258789062)" stroke="none"><path fill="#1e1e1e" d="M 3.04,-2.70 Q 3.04,-2.70 4.95,-0.69 6.87,1.31 8.96,4.85 11.05,8.38 12.77,13.61 14.50,18.83 16.28,25.15 18.07,31.46 19.50,39.58 20.93,47.70 21.72,52.47 22.51,57.24 23.29,59.84 24.06,62.45 25.06,64.78 26.05,67.12 26.48,67.62 26.91,68.12 26.95,68.63 26.98,69.14 26.90,69.65 26.81,70.15 26.61,70.62 26.40,71.10 26.09,71.50 25.78,71.91 25.38,72.23 24.98,72.56 24.51,72.77 24.05,72.99 23.54,73.09 23.04,73.19 22.52,73.16 22.01,73.14 21.52,72.99 21.03,72.85 20.58,72.59 20.14,72.33 19.77,71.97 19.40,71.61 19.13,71.17 18.86,70.74 18.70,70.25 18.54,69.76 18.59,67.06 18.63,64.35 18.71,60.50 18.79,56.64 19.89,52.04 21.00,47.45 22.49,41.61 23.97,35.77 25.84,29.56 27.71,23.35 29.24,18.45 30.76,13.55 31.45,11.24 32.14,8.92 32.14,6.18 32.15,3.43 31.62,1.28 31.10,-0.85 31.15,-4.18 31.20,-7.52 32.19,-9.46 33.18,-11.40 33.63,-12.16 34.09,-12.93 34.76,-13.52 35.44,-14.10 36.26,-14.44 37.09,-14.77 37.98,-14.83 38.87,-14.88 39.73,-14.65 40.59,-14.42 41.34,-13.93 42.08,-13.43 42.62,-12.73 43.17,-12.02 43.46,-11.18 43.75,-10.33 43.76,-9.44 43.77,-8.55 43.49,-7.70 43.21,-6.85 42.68,-6.14 42.14,-5.42 41.41,-4.92 40.67,-4.41 39.82,-4.16 38.96,-3.92 38.07,-3.96 37.18,-4.00 36.34,-4.32 35.51,-4.65 34.83,-5.22 34.14,-5.79 33.68,-6.55 33.21,-7.31 33.01,-8.18 32.81,-9.05 32.90,-9.94 32.99,-10.83 33.36,-11.64 33.73,-12.46 34.34,-13.11 34.95,-13.76 35.73,-14.19 36.52,-14.61 37.39,-14.76 38.27,-14.91 39.16,-14.77 40.04,-14.64 40.83,-14.23 41.62,-13.81 42.24,-13.17 42.86,-12.53 43.24,-11.72 43.62,-10.91 43.72,-10.03 43.83,-9.14 43.64,-8.27 43.46,-7.40 43.46,-7.40 43.46,-7.40 42.31,-4.47 41.16,-1.54 41.26,1.07 41.36,3.68 40.73,6.46 40.09,9.25 38.58,12.30 37.07,15.36 35.79,20.29 34.50,25.21 33.00,31.30 31.50,37.39 30.47,43.17 29.45,48.95 28.97,53.28 28.49,57.62 28.19,59.80 27.89,61.99 27.40,65.05 26.91,68.12 26.95,68.63 26.98,69.14 26.90,69.65 26.81,70.15 26.61,70.62 26.40,71.10 26.09,71.50 25.78,71.91 25.38,72.23 24.98,72.56 24.51,72.77 24.05,72.99 23.54,73.09 23.04,73.19 22.52,73.16 22.01,73.14 21.52,72.99 21.03,72.85 20.58,72.59 20.14,72.33 19.77,71.97 19.40,71.61 19.13,71.17 18.86,70.74 18.70,70.25 18.54,69.76 18.34,69.37 18.13,68.98 17.75,66.46 17.36,63.94 16.94,61.13 16.52,58.33 15.58,53.61 14.64,48.89 13.09,41.17 11.54,33.45 9.54,27.41 7.54,21.36 5.79,16.98 4.03,12.61 2.26,9.78 0.48,6.96 -1.27,4.83 -3.04,2.70 -3.32,2.30 -3.60,1.89 -3.77,1.44 -3.95,0.98 -4.01,0.49 -4.07,0.00 -4.01,-0.48 -3.95,-0.96 -3.78,-1.42 -3.60,-1.88 -3.33,-2.29 -3.05,-2.69 -2.68,-3.02 -2.31,-3.34 -1.88,-3.57 -1.45,-3.80 -0.97,-3.92 -0.49,-4.04 -0.00,-4.04 0.48,-4.04 0.96,-3.92 1.43,-3.81 1.87,-3.58 2.30,-3.35 2.67,-3.03 3.04,-2.70 3.04,-2.70 L 3.04,-2.70 Z"></path></g><g transform="translate(127.5999984741211 236.40000915527344) rotate(0 12.800003051757812 -1.20001220703125)" stroke="none"><path fill="#1e1e1e" d="M -0.36,-5.04 Q -0.36,-5.04 2.86,-5.20 6.08,-5.36 8.19,-5.74 10.29,-6.11 12.81,-6.92 15.32,-7.74 17.72,-7.98 20.11,-8.23 21.28,-7.87 22.45,-7.52 23.36,-7.86 24.27,-8.21 25.24,-8.24 26.22,-8.27 27.15,-8.00 28.08,-7.72 28.87,-7.16 29.67,-6.59 30.24,-5.81 30.81,-5.02 31.11,-4.10 31.40,-3.17 31.38,-2.20 31.36,-1.22 31.03,-0.31 30.71,0.60 30.10,1.36 29.50,2.12 28.68,2.65 27.87,3.18 26.93,3.42 25.98,3.66 25.01,3.59 24.04,3.52 23.15,3.14 22.25,2.77 21.52,2.12 20.79,1.48 20.31,0.64 19.82,-0.20 19.63,-1.15 19.44,-2.10 19.57,-3.07 19.69,-4.03 20.12,-4.91 20.54,-5.78 21.23,-6.47 21.91,-7.17 22.78,-7.61 23.64,-8.04 24.61,-8.18 25.57,-8.32 26.52,-8.15 27.48,-7.97 28.33,-7.50 29.18,-7.02 29.84,-6.31 30.49,-5.59 30.88,-4.70 31.27,-3.81 31.36,-2.84 31.44,-1.87 31.22,-0.92 30.99,0.01 30.47,0.84 29.95,1.66 29.20,2.27 28.45,2.89 28.45,2.89 28.45,2.89 24.72,3.19 20.99,3.50 18.50,3.29 16.01,3.09 13.87,3.48 11.74,3.88 9.26,4.16 6.79,4.44 3.57,4.74 0.36,5.04 -0.24,5.01 -0.85,4.98 -1.44,4.81 -2.02,4.63 -2.55,4.32 -3.07,4.01 -3.51,3.58 -3.94,3.16 -4.26,2.64 -4.59,2.12 -4.77,1.54 -4.96,0.96 -5.00,0.35 -5.05,-0.25 -4.94,-0.85 -4.84,-1.45 -4.60,-2.01 -4.35,-2.57 -3.98,-3.05 -3.61,-3.53 -3.13,-3.91 -2.66,-4.30 -2.11,-4.55 -1.55,-4.81 -0.95,-4.92 -0.35,-5.04 -0.36,-5.04 L -0.36,-5.04 Z"></path></g><g transform="translate(30 247.59999084472656) rotate(0 6.799999237060547 1.600006103515625)" stroke="none"><path fill="#1e1e1e" d="M 0.63,-5.05 Q 0.63,-5.05 2.49,-4.90 4.34,-4.75 6.60,-4.39 8.86,-4.02 11.26,-3.32 13.65,-2.63 14.57,-2.42 15.49,-2.22 16.30,-1.74 17.11,-1.25 17.72,-0.54 18.33,0.17 18.68,1.05 19.03,1.92 19.08,2.86 19.14,3.80 18.88,4.71 18.63,5.62 18.11,6.40 17.58,7.18 16.83,7.75 16.08,8.33 15.19,8.63 14.29,8.93 13.35,8.93 12.41,8.93 11.51,8.63 10.62,8.33 9.87,7.76 9.12,7.19 8.59,6.41 8.06,5.63 7.81,4.73 7.55,3.82 7.60,2.88 7.65,1.94 8.00,1.06 8.35,0.18 8.96,-0.52 9.57,-1.24 10.37,-1.73 11.18,-2.22 12.10,-2.42 13.02,-2.62 13.96,-2.52 14.90,-2.42 15.75,-2.03 16.61,-1.63 17.29,-0.99 17.98,-0.34 18.42,0.48 18.86,1.32 19.02,2.25 19.17,3.18 19.02,4.11 18.87,5.04 18.43,5.87 17.98,6.70 17.30,7.35 16.62,8.00 15.76,8.40 14.91,8.79 13.97,8.90 13.03,9.00 13.03,9.00 13.04,9.00 10.13,8.02 7.22,7.04 5.11,6.36 3.01,5.67 1.18,5.36 -0.63,5.05 -1.22,4.90 -1.82,4.75 -2.36,4.47 -2.90,4.18 -3.36,3.77 -3.82,3.36 -4.17,2.85 -4.52,2.35 -4.73,1.77 -4.95,1.20 -5.02,0.59 -5.09,-0.01 -5.01,-0.62 -4.94,-1.23 -4.72,-1.81 -4.50,-2.38 -4.15,-2.88 -3.80,-3.39 -3.34,-3.79 -2.87,-4.20 -2.33,-4.48 -1.78,-4.77 -1.19,-4.91 -0.59,-5.06 0.01,-5.05 0.63,-5.05 0.63,-5.05 L 0.63,-5.05 Z"></path></g><g transform="translate(52.400001525878906 244.40000915527344) rotate(0 -2.799999237060547 22.79998779296875)" stroke="none"><path fill="#1e1e1e" d="M 4.47,1.78 Q 4.47,1.78 2.95,5.18 1.44,8.57 0.72,11.21 0.01,13.84 -0.20,16.12 -0.41,18.39 -0.50,20.92 -0.59,23.45 -0.62,26.13 -0.65,28.81 -0.34,31.95 -0.02,35.08 0.45,38.17 0.93,41.26 0.84,41.81 0.74,42.35 1.12,43.09 1.50,43.82 1.63,44.64 1.75,45.45 1.61,46.27 1.46,47.08 1.07,47.80 0.67,48.53 0.07,49.09 -0.53,49.65 -1.28,49.99 -2.03,50.33 -2.86,50.41 -3.68,50.49 -4.48,50.30 -5.29,50.11 -5.99,49.68 -6.69,49.25 -7.22,48.61 -7.75,47.98 -8.04,47.21 -8.34,46.44 -8.38,45.61 -8.41,44.79 -8.18,43.99 -7.95,43.20 -7.48,42.52 -7.01,41.84 -6.35,41.35 -5.68,40.86 -4.90,40.60 -4.11,40.35 -3.29,40.36 -2.46,40.37 -1.68,40.64 -0.90,40.91 -0.25,41.42 0.39,41.93 0.85,42.62 1.30,43.31 1.52,44.10 1.73,44.90 1.67,45.73 1.62,46.55 1.30,47.31 0.99,48.08 0.45,48.70 -0.08,49.32 -0.80,49.74 -1.51,50.16 -2.32,50.33 -3.13,50.49 -3.95,50.40 -4.77,50.30 -5.51,49.94 -6.26,49.59 -6.85,49.01 -7.44,48.44 -7.44,48.44 -7.44,48.44 -8.30,45.23 -9.16,42.01 -9.20,39.12 -9.25,36.23 -9.80,32.42 -10.35,28.61 -10.26,25.77 -10.16,22.93 -9.96,20.03 -9.75,17.14 -9.27,14.24 -8.79,11.33 -7.88,8.27 -6.96,5.22 -5.71,1.71 -4.47,-1.78 -4.19,-2.29 -3.91,-2.80 -3.52,-3.23 -3.12,-3.66 -2.64,-3.98 -2.16,-4.30 -1.61,-4.50 -1.06,-4.69 -0.49,-4.75 0.08,-4.81 0.66,-4.73 1.23,-4.65 1.77,-4.44 2.31,-4.22 2.78,-3.88 3.25,-3.54 3.63,-3.10 4.01,-2.66 4.27,-2.14 4.53,-1.62 4.66,-1.06 4.79,-0.49 4.78,0.08 4.77,0.66 4.62,1.22 4.47,1.78 4.47,1.78 L 4.47,1.78 Z"></path></g><g transform="translate(911.5999984741211 23.599990844726562) rotate(0 49.600006103515625 44.00000762939453)" stroke="none"><path fill="#1e1e1e" d="M 3.15,2.25 Q 3.15,2.25 -0.43,6.98 -4.02,11.71 -7.83,17.52 -11.64,23.34 -14.19,27.81 -16.74,32.28 -17.86,34.95 -18.98,37.61 -18.32,41.56 -17.66,45.52 -15.40,50.28 -13.15,55.04 -9.31,61.17 -5.47,67.30 -2.72,71.58 0.03,75.85 3.20,78.55 6.37,81.25 11.26,84.00 16.14,86.75 22.54,88.09 28.94,89.44 36.11,90.53 43.27,91.63 49.84,92.81 56.41,93.98 61.83,95.43 67.25,96.88 70.15,97.26 73.06,97.64 76.44,96.78 79.82,95.91 82.65,94.34 85.48,92.77 89.78,90.18 94.07,87.59 97.12,84.85 100.18,82.10 102.27,79.04 104.37,75.97 106.65,70.92 108.94,65.86 110.64,61.19 112.34,56.52 114.22,49.98 116.10,43.44 117.62,38.53 119.14,33.62 119.73,29.68 120.33,25.75 119.71,23.28 119.09,20.81 114.15,17.33 109.22,13.86 104.60,12.36 99.98,10.86 95.12,9.22 90.26,7.57 84.32,5.71 78.39,3.85 73.24,1.87 68.09,-0.11 63.54,-1.37 58.99,-2.64 54.05,-3.88 49.10,-5.12 45.42,-5.78 41.73,-6.44 38.64,-7.06 35.55,-7.69 32.62,-8.34 29.69,-8.99 26.92,-9.09 24.16,-9.20 20.81,-7.56 17.46,-5.92 13.51,-3.49 9.56,-1.05 5.37,1.19 1.18,3.44 -2.08,5.51 -5.34,7.58 -7.29,8.77 -9.23,9.96 -11.32,11.05 -13.40,12.14 -14.00,12.27 -14.59,12.40 -15.20,12.33 -15.81,12.26 -16.36,12.00 -16.91,11.74 -17.35,11.32 -17.79,10.90 -18.08,10.36 -18.36,9.81 -18.45,9.21 -18.55,8.61 -18.45,8.01 -18.35,7.40 -18.06,6.87 -17.77,6.33 -17.32,5.91 -16.88,5.50 -16.32,5.24 -15.76,4.99 -15.16,4.93 -14.55,4.86 -13.95,5.00 -13.36,5.13 -12.84,5.45 -12.32,5.77 -11.92,6.24 -11.53,6.70 -11.31,7.27 -11.09,7.84 -11.06,8.45 -11.03,9.06 -11.19,9.65 -11.36,10.24 -11.71,10.74 -12.05,11.24 -12.54,11.61 -13.03,11.98 -13.61,12.17 -14.19,12.36 -14.80,12.35 -15.41,12.35 -15.99,12.15 -16.56,11.95 -17.05,11.58 -17.53,11.21 -17.87,10.70 -18.21,10.19 -18.37,9.61 -18.53,9.02 -18.49,8.41 -18.46,7.80 -18.23,7.23 -18.00,6.67 -17.60,6.20 -17.20,5.74 -16.68,5.43 -16.15,5.12 -16.15,5.12 -16.15,5.12 -12.49,3.62 -8.82,2.12 -5.43,-0.05 -2.04,-2.23 1.83,-4.56 5.71,-6.90 9.93,-9.86 14.15,-12.81 19.20,-15.19 24.25,-17.57 27.92,-16.72 31.58,-15.86 34.40,-14.93 37.21,-13.99 40.04,-13.06 42.88,-12.12 46.65,-11.27 50.41,-10.42 55.43,-9.20 60.45,-7.98 65.27,-6.69 70.09,-5.39 75.08,-3.54 80.07,-1.68 86.09,0.09 92.11,1.86 96.97,3.36 101.84,4.86 107.12,6.44 112.39,8.01 117.68,11.05 122.96,14.09 124.16,16.94 125.35,19.79 125.57,23.15 125.80,26.51 125.13,30.87 124.47,35.23 123.02,40.11 121.57,44.98 119.71,51.72 117.86,58.46 116.18,63.38 114.50,68.31 112.08,73.93 109.65,79.55 107.17,83.20 104.69,86.85 101.30,90.17 97.91,93.48 93.53,96.50 89.16,99.52 85.67,101.40 82.18,103.28 77.00,103.53 71.82,103.78 68.83,102.96 65.85,102.15 60.65,100.78 55.46,99.42 48.95,98.30 42.45,97.18 35.10,96.12 27.74,95.07 20.54,93.52 13.34,91.97 7.87,88.99 2.40,86.01 -1.46,82.79 -5.34,79.58 -8.34,75.37 -11.35,71.15 -15.65,64.88 -19.95,58.60 -22.78,53.65 -25.60,48.70 -26.78,45.10 -27.96,41.50 -26.56,38.03 -25.17,34.55 -23.68,31.92 -22.20,29.30 -19.70,24.56 -17.21,19.82 -13.49,13.71 -9.77,7.60 -6.46,2.67 -3.15,-2.25 -2.83,-2.59 -2.52,-2.93 -2.13,-3.19 -1.74,-3.45 -1.30,-3.61 -0.86,-3.77 -0.40,-3.82 0.06,-3.87 0.52,-3.80 0.98,-3.74 1.42,-3.57 1.85,-3.39 2.23,-3.12 2.61,-2.85 2.91,-2.50 3.22,-2.14 3.43,-1.73 3.64,-1.31 3.74,-0.85 3.85,-0.40 3.84,0.06 3.83,0.52 3.71,0.98 3.59,1.43 3.37,1.84 3.15,2.25 3.15,2.25 L 3.15,2.25 Z"></path></g><g transform="translate(930.8000106811523 231.59999084472656) rotate(0 62 36.40000915527344)" stroke="none"><path fill="#1e1e1e" d="M 2.52,2.05 Q 2.52,2.05 -0.53,5.67 -3.58,9.30 -5.67,12.38 -7.76,15.47 -9.51,19.92 -11.26,24.37 -12.01,28.86 -12.77,33.35 -12.44,37.33 -12.11,41.32 -10.69,44.85 -9.26,48.38 -7.29,51.40 -5.31,54.41 -2.75,57.49 -0.19,60.58 4.76,65.81 9.73,71.04 15.82,75.44 21.90,79.84 28.04,82.82 34.19,85.79 41.07,87.96 47.95,90.13 53.02,90.81 58.09,91.48 62.77,90.87 67.45,90.27 73.46,88.23 79.48,86.19 84.82,83.95 90.15,81.72 94.72,79.62 99.28,77.52 103.68,75.06 108.07,72.60 111.79,70.40 115.51,68.21 120.42,64.37 125.32,60.53 128.57,57.75 131.82,54.97 133.17,53.21 134.53,51.46 135.55,46.70 136.57,41.94 136.40,38.13 136.23,34.32 135.53,30.48 134.83,26.64 133.08,22.96 131.33,19.28 129.22,16.44 127.11,13.60 124.10,10.60 121.09,7.61 115.10,3.39 109.11,-0.82 103.82,-4.01 98.53,-7.21 94.45,-9.50 90.37,-11.78 86.32,-13.14 82.27,-14.49 78.93,-15.68 75.60,-16.87 72.57,-17.45 69.55,-18.04 64.95,-18.65 60.34,-19.27 56.77,-19.44 53.19,-19.60 50.74,-19.51 48.30,-19.41 45.31,-18.41 42.31,-17.41 40.18,-16.27 38.04,-15.12 35.72,-13.62 33.39,-12.12 31.47,-9.94 29.55,-7.77 28.21,-5.97 26.86,-4.18 25.70,-2.39 24.54,-0.60 21.36,1.90 18.18,4.41 15.12,6.42 12.07,8.44 9.13,10.00 6.19,11.56 2.88,13.29 -0.42,15.01 -2.61,15.93 -4.80,16.84 -10.40,15.01 -16.00,13.18 -16.41,12.30 -16.83,11.43 -16.94,10.47 -17.06,9.50 -16.86,8.56 -16.66,7.61 -16.17,6.77 -15.68,5.94 -14.95,5.30 -14.22,4.67 -13.32,4.30 -12.42,3.93 -11.46,3.87 -10.49,3.81 -9.56,4.06 -8.62,4.31 -7.81,4.84 -7.01,5.38 -6.41,6.14 -5.82,6.91 -5.50,7.82 -5.18,8.74 -5.17,9.70 -5.16,10.67 -5.46,11.59 -5.76,12.51 -6.34,13.29 -6.91,14.07 -7.71,14.62 -8.51,15.17 -9.44,15.44 -10.37,15.71 -11.34,15.67 -12.30,15.63 -13.21,15.28 -14.11,14.93 -14.85,14.31 -15.60,13.69 -16.11,12.86 -16.62,12.04 -16.83,11.09 -17.05,10.15 -16.96,9.19 -16.86,8.22 -16.46,7.34 -16.07,6.46 -15.41,5.75 -14.75,5.04 -13.90,4.57 -13.05,4.11 -12.09,3.95 -11.14,3.78 -10.18,3.93 -9.22,4.07 -8.36,4.52 -7.50,4.96 -6.83,5.66 -6.16,6.36 -6.16,6.35 -6.16,6.35 -5.11,5.46 -4.07,4.57 -1.60,3.54 0.86,2.52 3.78,0.63 6.69,-1.26 9.22,-2.56 11.74,-3.86 13.65,-5.32 15.56,-6.77 17.21,-8.67 18.85,-10.57 20.30,-12.28 21.74,-13.98 25.15,-16.90 28.55,-19.82 31.34,-21.53 34.12,-23.24 36.44,-24.24 38.76,-25.24 43.68,-25.96 48.60,-26.68 51.10,-26.38 53.61,-26.08 57.34,-25.77 61.07,-25.46 66.09,-24.95 71.11,-24.44 74.48,-23.46 77.86,-22.48 80.93,-21.07 84.00,-19.67 88.52,-18.15 93.04,-16.64 97.23,-14.35 101.42,-12.06 106.92,-8.82 112.43,-5.57 118.85,-1.13 125.27,3.30 128.74,6.62 132.21,9.93 134.51,13.27 136.82,16.61 138.97,20.98 141.11,25.35 142.01,29.63 142.90,33.90 143.24,38.36 143.58,42.82 142.88,47.26 142.18,51.70 140.61,53.77 139.04,55.84 137.14,57.40 135.24,58.96 131.90,61.82 128.56,64.68 123.38,68.71 118.20,72.74 114.42,74.97 110.65,77.21 106.07,79.76 101.49,82.32 96.84,84.46 92.20,86.59 86.68,88.91 81.17,91.22 74.64,93.38 68.12,95.54 62.77,96.16 57.42,96.78 51.88,96.03 46.34,95.27 39.08,92.98 31.82,90.69 25.26,87.50 18.69,84.31 12.20,79.62 5.70,74.93 0.55,69.59 -4.59,64.26 -7.44,60.88 -10.28,57.50 -12.37,53.97 -14.46,50.43 -16.09,46.14 -17.73,41.84 -18.11,37.15 -18.49,32.45 -17.68,27.34 -16.86,22.23 -14.91,17.09 -12.95,11.94 -10.66,8.67 -8.37,5.41 -5.44,1.68 -2.52,-2.05 -2.24,-2.32 -1.95,-2.59 -1.62,-2.79 -1.28,-2.98 -0.90,-3.09 -0.52,-3.20 -0.13,-3.22 0.25,-3.24 0.63,-3.16 1.02,-3.08 1.37,-2.91 1.73,-2.75 2.03,-2.50 2.33,-2.25 2.57,-1.94 2.81,-1.63 2.96,-1.27 3.12,-0.91 3.18,-0.52 3.24,-0.13 3.21,0.25 3.18,0.64 3.06,1.01 2.94,1.38 2.73,1.71 2.52,2.05 2.52,2.05 L 2.52,2.05 Z"></path></g><g transform="translate(698.0000228881836 92.40000915527344) rotate(0 58.79998779296875 21.999984741210938)" stroke="none"><path fill="#1e1e1e" d="M 0.58,-3.53 Q 0.58,-3.53 6.08,-2.48 11.58,-1.44 18.99,-0.03 26.39,1.37 35.08,3.15 43.76,4.93 55.09,5.91 66.43,6.90 74.03,7.34 81.64,7.78 86.24,7.98 90.85,8.17 93.75,7.81 96.64,7.44 97.02,7.50 97.40,7.56 97.76,7.71 98.11,7.86 98.42,8.09 98.73,8.32 98.97,8.62 99.22,8.91 99.38,9.26 99.55,9.61 99.63,9.98 99.71,10.36 99.69,10.74 99.68,11.13 99.57,11.50 99.46,11.87 99.27,12.20 99.08,12.54 98.82,12.81 98.55,13.09 98.23,13.30 97.90,13.51 97.54,13.63 97.17,13.75 96.79,13.78 96.41,13.81 94.44,11.50 92.47,9.18 89.03,6.78 85.59,4.37 82.49,1.98 79.39,-0.40 77.06,-1.96 74.74,-3.51 72.66,-4.78 70.58,-6.05 70.43,-6.18 70.28,-6.32 69.86,-6.61 69.44,-6.90 69.10,-7.28 68.76,-7.67 68.52,-8.12 68.28,-8.57 68.16,-9.07 68.04,-9.57 68.04,-10.08 68.04,-10.59 68.16,-11.09 68.28,-11.59 68.52,-12.04 68.76,-12.49 69.10,-12.88 69.44,-13.26 69.86,-13.55 70.28,-13.84 70.76,-14.02 71.24,-14.21 71.75,-14.27 72.26,-14.33 72.77,-14.27 73.28,-14.21 73.76,-14.02 74.23,-13.84 78.62,-11.70 83.01,-9.57 89.40,-3.80 95.78,1.96 100.71,7.23 105.63,12.49 108.91,16.93 112.20,21.37 114.50,23.98 116.80,26.58 118.11,28.93 119.43,31.28 118.29,33.97 117.16,36.66 114.85,37.35 112.54,38.04 109.34,39.59 106.15,41.14 103.25,42.95 100.35,44.77 97.97,46.05 95.60,47.33 93.91,48.80 92.22,50.26 90.49,52.48 88.76,54.71 88.57,55.33 88.39,55.96 87.95,56.72 87.51,57.48 86.86,58.06 86.20,58.63 85.39,58.97 84.59,59.31 83.72,59.38 82.84,59.44 81.99,59.22 81.15,59.01 80.41,58.53 79.68,58.05 79.14,57.37 78.59,56.68 78.30,55.86 78.00,55.03 77.99,54.16 77.97,53.28 78.23,52.45 78.50,51.61 79.01,50.91 79.53,50.20 80.24,49.69 80.96,49.19 81.80,48.94 82.64,48.69 83.51,48.72 84.38,48.75 85.20,49.06 86.02,49.37 86.70,49.92 87.38,50.47 87.84,51.21 88.31,51.96 88.51,52.81 88.72,53.66 88.64,54.53 88.56,55.40 88.21,56.20 87.86,57.00 87.27,57.65 86.68,58.30 85.91,58.72 85.15,59.15 84.29,59.30 83.43,59.46 82.56,59.34 81.69,59.21 80.91,58.82 80.13,58.42 79.52,57.80 78.90,57.17 78.52,56.39 78.14,55.60 78.03,54.73 77.92,53.86 78.09,53.01 78.26,52.15 78.26,52.15 78.26,52.15 79.62,49.75 80.97,47.36 83.58,44.83 86.19,42.31 88.91,40.73 91.63,39.14 93.62,38.32 95.60,37.50 98.63,35.44 101.65,33.39 106.62,32.19 111.60,30.99 109.30,28.18 107.00,25.37 103.80,21.39 100.59,17.41 95.66,12.59 90.74,7.78 84.76,2.83 78.78,-2.11 74.53,-4.21 70.28,-6.32 69.86,-6.61 69.44,-6.90 69.10,-7.28 68.76,-7.67 68.52,-8.12 68.28,-8.57 68.16,-9.07 68.04,-9.57 68.04,-10.08 68.04,-10.59 68.16,-11.09 68.28,-11.59 68.52,-12.04 68.76,-12.49 69.10,-12.88 69.44,-13.26 69.86,-13.55 70.28,-13.84 70.76,-14.02 71.24,-14.21 71.75,-14.27 72.26,-14.33 72.77,-14.27 73.28,-14.21 73.75,-14.02 74.23,-13.84 74.44,-13.55 74.64,-13.25 76.82,-11.15 79.01,-9.04 81.12,-7.18 83.23,-5.32 86.24,-2.94 89.24,-0.55 92.94,3.44 96.64,7.44 97.02,7.50 97.40,7.56 97.76,7.71 98.11,7.86 98.42,8.09 98.73,8.32 98.97,8.62 99.22,8.91 99.38,9.26 99.55,9.61 99.63,9.98 99.71,10.36 99.69,10.74 99.68,11.13 99.57,11.50 99.46,11.87 99.27,12.20 99.08,12.54 98.82,12.81 98.55,13.09 98.23,13.30 97.90,13.50 97.54,13.63 97.17,13.75 96.79,13.78 96.41,13.82 93.53,13.76 90.65,13.71 85.99,13.56 81.34,13.41 73.64,13.04 65.95,12.67 54.28,11.74 42.61,10.81 33.95,9.18 25.30,7.54 17.89,6.33 10.49,5.12 4.95,4.32 -0.58,3.53 -1.00,3.41 -1.41,3.29 -1.79,3.07 -2.16,2.85 -2.47,2.55 -2.78,2.25 -3.01,1.88 -3.24,1.52 -3.37,1.11 -3.51,0.70 -3.54,0.27 -3.58,-0.15 -3.50,-0.58 -3.43,-1.01 -3.26,-1.40 -3.09,-1.80 -2.83,-2.14 -2.57,-2.49 -2.23,-2.76 -1.90,-3.03 -1.51,-3.22 -1.12,-3.40 -0.69,-3.48 -0.27,-3.57 0.15,-3.55 0.58,-3.53 0.58,-3.53 L 0.58,-3.53 Z"></path></g><g transform="translate(698.0000228881836 285.99998474121094) rotate(0 54.399993896484375 0.800018310546875)" stroke="none"><path fill="#1e1e1e" d="M 0.66,-3.98 Q 0.66,-3.98 6.15,-2.87 11.64,-1.77 18.10,-0.55 24.56,0.66 29.34,1.44 34.11,2.23 37.45,2.42 40.79,2.60 43.03,2.10 45.26,1.60 48.62,0.63 51.99,-0.33 55.96,-1.75 59.94,-3.17 62.32,-4.25 64.70,-5.34 66.70,-6.50 68.70,-7.67 71.00,-8.12 73.30,-8.58 78.78,-9.41 84.25,-10.25 88.83,-11.10 93.41,-11.95 96.84,-12.46 100.26,-12.97 101.90,-10.94 103.53,-8.90 99.03,-9.75 94.52,-10.60 91.81,-12.07 89.11,-13.55 86.34,-15.07 83.56,-16.60 79.45,-18.56 75.34,-20.52 72.30,-21.74 69.27,-22.97 66.78,-24.20 64.30,-25.43 62.30,-25.82 60.31,-26.21 59.77,-26.49 59.24,-26.76 58.79,-27.15 58.34,-27.54 57.99,-28.03 57.65,-28.52 57.43,-29.08 57.21,-29.63 57.13,-30.23 57.05,-30.82 57.12,-31.41 57.18,-32.01 57.39,-32.57 57.60,-33.13 57.93,-33.63 58.26,-34.12 58.71,-34.52 59.15,-34.93 59.68,-35.21 60.20,-35.49 60.78,-35.64 61.36,-35.79 61.96,-35.80 62.56,-35.80 63.14,-35.67 63.72,-35.53 67.22,-34.65 70.71,-33.77 72.73,-32.83 74.76,-31.89 77.21,-30.04 79.66,-28.19 82.11,-26.02 84.56,-23.85 86.59,-21.53 88.63,-19.21 91.63,-17.48 94.64,-15.75 96.81,-14.93 98.98,-14.11 99.73,-13.88 100.48,-13.65 101.18,-13.44 101.89,-13.23 102.53,-12.86 103.16,-12.49 103.69,-11.97 104.22,-11.46 104.60,-10.83 104.99,-10.20 105.22,-9.50 105.45,-8.80 105.50,-8.07 105.55,-7.33 105.43,-6.61 105.31,-5.88 105.01,-5.20 104.72,-4.53 104.27,-3.94 103.82,-3.36 103.25,-2.90 102.67,-2.43 102.01,-2.12 101.34,-1.81 100.61,-1.67 99.89,-1.53 99.15,-1.57 98.42,-1.60 100.91,-2.24 103.40,-2.88 100.41,1.05 97.42,4.99 94.88,9.57 92.33,14.14 90.77,18.11 89.20,22.09 88.16,25.13 87.11,28.18 85.37,30.79 83.63,33.40 83.41,33.90 83.19,34.40 82.86,34.83 82.53,35.26 82.10,35.60 81.68,35.94 81.18,36.17 80.69,36.39 80.15,36.50 79.62,36.60 79.08,36.57 78.53,36.55 78.01,36.39 77.49,36.23 77.02,35.95 76.55,35.68 76.16,35.30 75.78,34.92 75.49,34.45 75.20,33.99 75.04,33.47 74.87,32.95 74.83,32.41 74.79,31.87 74.89,31.33 74.98,30.80 75.14,32.50 75.31,34.20 75.08,33.51 74.85,32.82 74.85,32.09 74.85,31.36 75.08,30.66 75.32,29.97 75.76,29.39 76.21,28.81 76.81,28.40 77.42,28.00 78.12,27.80 78.83,27.61 79.56,27.65 80.28,27.69 80.96,27.96 81.64,28.24 82.20,28.71 82.75,29.18 83.13,29.81 83.50,30.44 83.66,31.15 83.81,31.86 83.73,32.59 83.65,33.32 83.34,33.98 83.03,34.64 82.53,35.17 82.03,35.70 81.38,36.04 80.73,36.38 80.01,36.50 79.29,36.61 78.57,36.49 77.85,36.37 77.21,36.03 76.56,35.68 76.06,35.15 75.56,34.62 75.25,33.96 74.95,33.29 74.87,32.57 74.80,31.84 74.95,31.13 75.11,30.42 75.49,29.79 75.87,29.17 76.43,28.69 76.99,28.22 77.67,27.95 78.34,27.69 79.07,27.65 79.80,27.61 80.51,27.81 81.21,28.01 81.81,28.42 82.42,28.83 83.02,31.11 83.63,33.40 83.41,33.90 83.19,34.40 82.86,34.83 82.53,35.26 82.10,35.60 81.68,35.94 81.18,36.17 80.69,36.39 80.15,36.50 79.62,36.60 79.08,36.57 78.53,36.55 78.01,36.39 77.49,36.23 77.02,35.96 76.55,35.68 76.16,35.30 75.78,34.92 75.49,34.45 75.20,33.99 75.04,33.47 74.87,32.95 74.83,32.41 74.79,31.87 74.89,31.33 74.98,30.80 77.10,28.09 79.22,25.37 80.30,22.45 81.38,19.52 82.65,14.85 83.92,10.17 85.89,5.22 87.85,0.27 91.06,-5.34 94.28,-10.96 97.38,-12.31 100.48,-13.65 101.18,-13.44 101.89,-13.23 102.52,-12.86 103.16,-12.49 103.69,-11.97 104.21,-11.46 104.60,-10.83 104.99,-10.21 105.22,-9.50 105.45,-8.80 105.50,-8.07 105.55,-7.33 105.43,-6.61 105.31,-5.88 105.01,-5.20 104.72,-4.53 104.27,-3.94 103.82,-3.36 103.25,-2.90 102.67,-2.44 102.01,-2.12 101.34,-1.81 100.61,-1.67 99.89,-1.53 99.16,-1.57 98.42,-1.60 97.89,-2.00 97.35,-2.40 94.94,-3.17 92.53,-3.94 90.53,-4.95 88.52,-5.96 86.81,-7.23 85.09,-8.51 82.87,-10.42 80.64,-12.34 79.22,-14.06 77.80,-15.77 75.35,-17.68 72.90,-19.59 69.57,-21.78 66.24,-23.97 63.27,-25.09 60.31,-26.21 59.77,-26.49 59.24,-26.76 58.79,-27.15 58.34,-27.54 57.99,-28.03 57.65,-28.52 57.43,-29.07 57.21,-29.63 57.13,-30.22 57.05,-30.82 57.12,-31.41 57.18,-32.01 57.39,-32.57 57.60,-33.13 57.93,-33.63 58.26,-34.12 58.71,-34.52 59.15,-34.92 59.68,-35.21 60.20,-35.49 60.78,-35.64 61.36,-35.79 61.96,-35.80 62.56,-35.80 63.14,-35.67 63.72,-35.53 66.18,-34.46 68.63,-33.39 70.57,-32.21 72.50,-31.02 75.54,-29.81 78.58,-28.60 83.35,-26.99 88.12,-25.39 91.08,-23.93 94.05,-22.48 96.20,-21.27 98.34,-20.06 100.70,-19.09 103.05,-18.12 105.51,-17.09 107.98,-16.06 109.50,-12.59 111.02,-9.12 108.41,-7.31 105.81,-5.50 103.59,-5.20 101.37,-4.90 98.32,-4.53 95.28,-4.16 91.13,-2.92 86.98,-1.68 81.35,0.04 75.72,1.77 73.58,1.11 71.43,0.45 69.38,1.04 67.33,1.63 64.87,2.37 62.40,3.10 58.22,4.89 54.04,6.67 50.13,7.82 46.22,8.98 43.24,9.15 40.25,9.32 36.73,8.92 33.21,8.52 28.33,7.93 23.45,7.33 16.94,6.39 10.43,5.45 4.88,4.71 -0.66,3.98 -1.13,3.84 -1.59,3.71 -2.01,3.46 -2.44,3.22 -2.79,2.88 -3.14,2.54 -3.39,2.12 -3.65,1.71 -3.80,1.25 -3.96,0.79 -3.99,0.30 -4.03,-0.17 -3.95,-0.65 -3.87,-1.13 -3.68,-1.58 -3.49,-2.03 -3.19,-2.42 -2.90,-2.81 -2.52,-3.11 -2.14,-3.42 -1.70,-3.63 -1.26,-3.83 -0.78,-3.93 -0.30,-4.02 0.17,-4.00 0.66,-3.98 0.66,-3.98 L 0.66,-3.98 Z"></path></g></svg>