<svg version="1.1" xmlns="http://www.w3.org/2000/svg" viewBox="0 0 1481.1665944352835 1088.783584815344" width="1481.1665944352835" height="1088.783584815344" filter="invert(93%) hue-rotate(180deg)" class="excalidraw-svg"><!-- svg-source:excalidraw --><metadata></metadata><defs><style class="style-fonts">
      </style></defs><rect x="0" y="0" width="1481.1665944352835" height="1088.783584815344" fill="#ffffff"></rect><g transform="translate(172.41103996475374 48.21994458664216) rotate(0.9094015075210009 28.463558970251455 39.98668192477325)" stroke="none"><path fill="#1e1e1e" d="M 3.99,-0.26 Q 3.99,-0.26 4.20,5.72 4.42,11.71 5.05,21.13 5.68,30.55 6.70,40.04 7.72,49.52 8.72,57.46 9.72,65.40 10.14,70.46 10.55,75.52 10.92,78.59 11.30,81.66 11.59,84.89 11.87,88.13 11.92,87.84 11.96,87.55 11.92,88.03 11.88,88.52 11.72,88.99 11.57,89.45 11.30,89.86 11.04,90.27 10.68,90.61 10.33,90.95 9.91,91.19 9.48,91.44 9.01,91.57 8.54,91.70 8.05,91.72 7.56,91.74 7.08,91.64 6.60,91.54 6.16,91.33 5.72,91.12 5.34,90.80 4.96,90.49 4.67,90.10 4.38,89.71 4.19,89.26 4.00,88.81 3.92,88.32 3.85,87.84 2.20,84.49 0.56,81.14 -0.33,78.08 -1.22,75.02 -1.93,70.65 -2.64,66.27 -3.44,61.68 -4.24,57.09 -4.84,53.22 -5.44,49.35 -5.99,46.11 -6.53,42.87 -6.73,39.04 -6.93,35.20 -7.05,31.75 -7.17,28.30 -7.35,25.69 -7.52,23.08 -7.46,18.36 -7.40,13.65 -7.23,10.91 -7.06,8.18 -6.35,5.26 -5.63,2.35 -4.13,-1.00 -2.63,-4.36 -0.21,-6.68 2.19,-9.01 5.39,-10.51 8.59,-12.01 11.43,-12.85 14.28,-13.69 17.71,-14.21 21.15,-14.73 24.44,-13.92 27.74,-13.11 29.47,-11.36 31.19,-9.60 32.06,-6.57 32.93,-3.53 32.44,0.68 31.94,4.90 31.58,7.47 31.22,10.04 30.07,13.11 28.93,16.17 26.68,19.19 24.43,22.20 22.43,23.97 20.42,25.74 14.17,29.70 7.91,33.65 5.73,35.19 3.55,36.73 2.84,34.54 2.13,32.36 13.92,39.32 25.72,46.29 32.50,50.97 39.27,55.65 43.59,59.14 47.90,62.64 50.96,65.28 54.02,67.92 56.60,70.13 59.17,72.34 61.25,73.86 63.33,75.38 63.76,75.85 64.18,76.33 64.43,76.91 64.68,77.49 64.73,78.13 64.78,78.76 64.62,79.37 64.47,79.99 64.12,80.52 63.78,81.06 63.28,81.45 62.79,81.85 62.19,82.07 61.60,82.28 60.96,82.30 60.33,82.32 59.72,82.13 59.11,81.94 58.60,81.57 58.09,81.20 57.72,80.68 57.35,80.16 57.16,79.55 56.98,78.95 57.00,78.31 57.02,77.68 57.24,77.08 57.46,76.49 57.86,75.99 58.26,75.50 58.79,75.16 59.33,74.82 59.94,74.67 60.56,74.52 61.19,74.57 61.83,74.63 62.41,74.88 62.99,75.13 63.46,75.56 63.93,75.98 64.24,76.53 64.55,77.09 64.67,77.71 64.79,78.34 64.70,78.96 64.61,79.59 64.33,80.16 64.05,80.73 63.60,81.18 63.15,81.62 62.58,81.90 62.01,82.18 61.38,82.27 60.75,82.35 60.13,82.23 59.50,82.11 58.95,81.79 58.40,81.48 58.40,81.48 58.40,81.48 56.33,79.65 54.27,77.81 51.88,75.57 49.49,73.33 46.49,70.89 43.49,68.46 39.19,65.43 34.89,62.41 27.97,58.23 21.06,54.05 6.98,44.78 -7.09,35.51 -4.57,32.09 -2.04,28.68 0.55,26.86 3.15,25.04 6.46,22.97 9.76,20.90 12.67,18.19 15.57,15.47 17.63,11.95 19.69,8.43 19.97,6.20 20.25,3.96 21.07,0.69 21.90,-2.56 19.68,-2.43 17.46,-2.29 13.75,-1.42 10.04,-0.55 8.08,0.33 6.12,1.22 4.85,3.09 3.57,4.96 2.89,7.00 2.21,9.04 1.91,11.47 1.62,13.90 1.15,18.44 0.68,22.97 0.58,25.54 0.48,28.11 0.52,31.46 0.57,34.80 0.77,38.29 0.97,41.79 1.35,44.97 1.73,48.16 2.38,51.83 3.03,55.49 4.22,59.98 5.41,64.47 6.57,68.49 7.74,72.50 8.44,75.11 9.14,77.72 10.07,80.34 11.00,82.95 11.48,85.25 11.96,87.55 11.92,88.03 11.88,88.52 11.72,88.99 11.57,89.45 11.30,89.86 11.04,90.27 10.68,90.61 10.33,90.95 9.91,91.19 9.48,91.44 9.01,91.57 8.54,91.70 8.05,91.72 7.56,91.74 7.08,91.64 6.60,91.54 6.16,91.33 5.72,91.12 5.34,90.80 4.96,90.49 4.67,90.10 4.38,89.71 4.19,89.26 4.00,88.81 3.92,88.32 3.85,87.84 4.26,87.18 4.68,86.52 4.73,84.30 4.77,82.08 4.76,79.07 4.75,76.05 4.25,71.13 3.74,66.21 2.59,58.23 1.44,50.26 0.21,40.68 -1.01,31.10 -1.92,21.65 -2.82,12.19 -3.41,6.23 -3.99,0.26 -3.96,-0.21 -3.94,-0.69 -3.79,-1.15 -3.65,-1.61 -3.41,-2.03 -3.16,-2.44 -2.82,-2.79 -2.48,-3.13 -2.07,-3.38 -1.66,-3.63 -1.20,-3.78 -0.74,-3.93 -0.26,-3.96 0.21,-3.99 0.69,-3.91 1.16,-3.82 1.60,-3.63 2.04,-3.43 2.43,-3.14 2.81,-2.84 3.11,-2.46 3.41,-2.09 3.61,-1.65 3.81,-1.21 3.90,-0.74 3.99,-0.26 3.99,-0.26 L 3.99,-0.26 Z"></path></g><g transform="translate(238.3323008566253 90.49455749749188) rotate(0.9094015075210009 5.900967850372183 -0.000007626852806197348)" stroke="none"><path fill="#1e1e1e" d="M -1.03,-5.07 Q -1.03,-5.07 2.38,-5.63 5.80,-6.20 8.20,-6.76 10.61,-7.33 12.86,-8.23 15.11,-9.14 13.03,-11.81 10.94,-14.49 7.96,-15.94 4.99,-17.39 2.81,-17.55 0.63,-17.70 -2.29,-17.55 -5.23,-17.39 -3.99,-14.00 -2.76,-10.61 -2.42,-7.67 -2.07,-4.73 -1.68,-2.28 -1.30,0.17 -0.50,2.18 0.29,4.19 2.39,7.21 4.48,10.23 6.70,12.04 8.91,13.85 11.30,15.74 13.68,17.62 15.87,17.37 18.06,17.11 19.67,17.11 21.28,17.11 22.38,17.29 23.47,17.47 24.46,18.00 25.44,18.52 26.20,19.33 26.97,20.14 27.43,21.15 27.90,22.16 28.01,23.27 28.13,24.37 27.89,25.46 27.65,26.54 27.07,27.50 26.50,28.45 25.65,29.17 24.80,29.89 23.77,30.30 22.73,30.71 21.62,30.76 20.51,30.82 19.44,30.52 18.37,30.22 17.45,29.60 16.53,28.97 15.86,28.08 15.18,27.20 14.83,26.14 14.48,25.09 14.48,23.97 14.48,22.86 14.84,21.81 15.20,20.75 15.87,19.87 16.55,18.98 17.47,18.36 18.39,17.74 19.46,17.44 20.54,17.15 21.65,17.21 22.76,17.27 23.79,17.69 24.82,18.10 25.67,18.82 26.52,19.55 27.09,20.50 27.66,21.45 27.90,22.54 28.13,23.63 28.01,24.73 27.89,25.84 27.42,26.85 26.95,27.86 26.18,28.66 25.42,29.47 24.43,29.99 23.45,30.51 22.35,30.69 21.25,30.86 21.25,30.86 21.25,30.86 18.07,30.77 14.89,30.68 12.37,30.33 9.85,29.98 7.87,29.16 5.89,28.34 3.79,26.49 1.69,24.63 -0.38,23.19 -2.46,21.74 -4.06,20.13 -5.65,18.53 -8.26,15.01 -10.87,11.48 -12.03,8.62 -13.19,5.76 -13.77,2.74 -14.36,-0.28 -14.67,-3.11 -14.97,-5.94 -15.31,-10.09 -15.66,-14.24 -15.49,-18.68 -15.33,-23.13 -12.66,-25.91 -9.99,-28.69 -6.44,-29.34 -2.89,-29.99 1.09,-29.70 5.07,-29.41 7.45,-28.85 9.82,-28.28 11.84,-27.32 13.86,-26.36 16.67,-24.63 19.48,-22.90 21.06,-21.22 22.64,-19.55 24.49,-16.84 26.33,-14.13 26.35,-9.87 26.38,-5.60 24.56,-3.61 22.74,-1.62 20.93,-0.41 19.13,0.79 15.92,1.63 12.71,2.48 10.24,2.96 7.76,3.44 4.39,4.25 1.03,5.07 0.40,5.12 -0.21,5.17 -0.82,5.07 -1.44,4.97 -2.01,4.72 -2.59,4.48 -3.09,4.10 -3.59,3.73 -3.98,3.24 -4.37,2.76 -4.64,2.19 -4.91,1.63 -5.03,1.02 -5.16,0.41 -5.13,-0.21 -5.11,-0.83 -4.93,-1.43 -4.76,-2.03 -4.44,-2.57 -4.13,-3.11 -3.70,-3.56 -3.27,-4.01 -2.74,-4.34 -2.21,-4.67 -1.62,-4.87 -1.03,-5.07 -1.03,-5.07 L -1.03,-5.07 Z"></path></g><g transform="translate(302.7841826929756 14.705449493900744) rotate(0.9094015075210009 3.8182483898850137 39.586813656423516)" stroke="none"><path fill="#1e1e1e" d="M 4.08,1.33 Q 4.08,1.33 2.77,4.97 1.46,8.61 -0.63,14.26 -2.72,19.92 -4.20,27.13 -5.69,34.35 -6.25,37.95 -6.82,41.56 -7.24,45.11 -7.65,48.67 -7.81,52.15 -7.96,55.63 -7.39,58.22 -6.82,60.80 -5.03,63.67 -3.24,66.53 -0.36,68.81 2.51,71.09 5.33,72.41 8.14,73.73 11.27,73.45 14.40,73.17 16.63,73.17 18.86,73.16 19.81,73.32 20.77,73.48 21.63,73.94 22.48,74.41 23.15,75.12 23.81,75.83 24.21,76.71 24.62,77.60 24.72,78.56 24.81,79.53 24.60,80.48 24.38,81.43 23.88,82.25 23.37,83.08 22.63,83.71 21.88,84.33 20.98,84.69 20.07,85.04 19.10,85.09 18.13,85.13 17.19,84.87 16.26,84.60 15.46,84.05 14.66,83.50 14.07,82.72 13.49,81.94 13.19,81.02 12.88,80.10 12.89,79.13 12.89,78.15 13.21,77.23 13.53,76.31 14.12,75.54 14.71,74.78 15.52,74.23 16.33,73.69 17.27,73.44 18.21,73.19 19.18,73.25 20.15,73.31 21.05,73.67 21.95,74.04 22.69,74.67 23.42,75.31 23.92,76.14 24.41,76.98 24.62,77.93 24.82,78.88 24.71,79.85 24.60,80.81 24.18,81.69 23.77,82.57 23.09,83.27 22.42,83.97 21.56,84.42 20.70,84.87 19.74,85.02 18.78,85.17 18.78,85.17 18.78,85.17 16.41,85.12 14.04,85.06 10.75,84.82 7.46,84.58 4.47,83.55 1.48,82.52 -1.38,80.71 -4.25,78.90 -6.37,77.04 -8.48,75.18 -10.53,72.24 -12.58,69.29 -13.83,66.09 -15.07,62.89 -15.07,59.07 -15.06,55.25 -14.83,51.52 -14.60,47.80 -14.11,44.12 -13.62,40.44 -12.98,36.77 -12.35,33.09 -11.02,25.34 -9.69,17.60 -7.97,11.85 -6.25,6.10 -5.16,2.38 -4.08,-1.33 -3.86,-1.80 -3.64,-2.26 -3.32,-2.67 -3.00,-3.07 -2.58,-3.39 -2.17,-3.70 -1.70,-3.91 -1.22,-4.11 -0.71,-4.20 -0.20,-4.29 0.31,-4.25 0.82,-4.21 1.32,-4.05 1.81,-3.89 2.25,-3.62 2.69,-3.34 3.05,-2.97 3.41,-2.60 3.67,-2.16 3.94,-1.71 4.08,-1.21 4.23,-0.72 4.26,-0.20 4.28,0.31 4.18,0.82 4.08,1.33 4.08,1.33 L 4.08,1.33 Z"></path></g><g transform="translate(349.2177077072727 31.18983524535878) rotate(0.9094015075210009 -11.80196218362238 28.39054790374692)" stroke="none"><path fill="#1e1e1e" d="M 0,4.61 Q 0,4.61 -4.39,4.35 -8.78,4.09 -12.31,4.26 -15.85,4.43 -18.35,5.15 -20.85,5.88 -19.80,8.75 -18.75,11.62 -18.72,14.26 -18.69,16.89 -18.59,20.17 -18.48,23.45 -18.08,26.55 -17.67,29.65 -16.57,33.43 -15.47,37.22 -14.40,39.09 -13.33,40.96 -11.79,42.84 -10.25,44.73 -8.54,48.11 -6.82,51.49 -6.05,53.54 -5.28,55.58 -5.28,56.54 -5.29,57.51 -5.60,58.41 -5.91,59.32 -6.49,60.09 -7.08,60.85 -7.88,61.38 -8.68,61.92 -9.60,62.17 -10.53,62.42 -11.49,62.37 -12.45,62.31 -13.34,61.95 -14.23,61.59 -14.96,60.96 -15.69,60.34 -16.18,59.51 -16.67,58.69 -16.88,57.75 -17.08,56.81 -16.97,55.85 -16.86,54.90 -16.45,54.03 -16.04,53.16 -15.38,52.46 -14.72,51.77 -13.86,51.32 -13.01,50.87 -12.06,50.72 -11.11,50.57 -10.17,50.73 -9.22,50.89 -8.37,51.35 -7.52,51.80 -6.87,52.51 -6.21,53.21 -5.81,54.08 -5.41,54.96 -5.31,55.91 -5.21,56.87 -5.43,57.80 -5.64,58.74 -6.14,59.56 -6.64,60.38 -7.37,61.00 -8.11,61.62 -9.00,61.97 -9.90,62.32 -10.86,62.37 -11.82,62.42 -12.74,62.16 -13.67,61.89 -14.46,61.35 -15.25,60.81 -15.83,60.04 -16.41,59.27 -16.71,58.36 -17.01,57.44 -17.01,57.45 -17.01,57.45 -17.47,56.45 -17.93,55.45 -18.84,53.27 -19.74,51.09 -21.26,48.53 -22.77,45.97 -23.93,42.94 -25.08,39.92 -25.62,37.66 -26.15,35.41 -26.47,33.20 -26.79,30.98 -27.35,27.49 -27.90,24.00 -28.20,20.43 -28.49,16.86 -28.44,14.21 -28.39,11.56 -28.49,7.89 -28.60,4.22 -27.72,1.64 -26.83,-0.93 -24.50,-2.01 -22.17,-3.09 -19.26,-3.30 -16.36,-3.51 -12.57,-3.80 -8.78,-4.09 -4.39,-4.35 0,-4.61 0.55,-4.54 1.10,-4.47 1.62,-4.28 2.14,-4.08 2.60,-3.76 3.05,-3.45 3.42,-3.03 3.79,-2.61 4.05,-2.12 4.31,-1.63 4.44,-1.09 4.57,-0.55 4.57,0.00 4.57,0.55 4.44,1.09 4.31,1.63 4.05,2.12 3.79,2.62 3.42,3.03 3.05,3.45 2.60,3.76 2.14,4.08 1.62,4.28 1.10,4.47 0.55,4.54 -0.00,4.61 -0.00,4.61 L 0,4.61 Z"></path></g><g transform="translate(314.4812524603889 68.7054941470447) rotate(0.9094015075210009 18.397178681782975 -7.5974665912343085)" stroke="none"><path fill="#1e1e1e" d="M -1.82,-4.44 Q -1.82,-4.44 3.86,-6.48 9.56,-8.51 13.92,-9.79 18.27,-11.07 20.51,-11.87 22.74,-12.67 25.49,-14.07 28.25,-15.48 31.57,-17.62 34.89,-19.76 35.68,-19.89 36.46,-20.03 37.25,-19.90 38.04,-19.78 38.75,-19.41 39.46,-19.04 40.01,-18.47 40.57,-17.89 40.91,-17.17 41.25,-16.45 41.34,-15.65 41.43,-14.86 41.27,-14.08 41.10,-13.29 40.69,-12.61 40.29,-11.92 39.68,-11.40 39.07,-10.88 38.33,-10.58 37.59,-10.27 36.80,-10.23 36.00,-10.18 35.23,-10.38 34.46,-10.59 33.79,-11.04 33.13,-11.48 32.64,-12.11 32.15,-12.75 31.89,-13.50 31.63,-14.26 31.63,-15.05 31.62,-15.85 31.87,-16.61 32.12,-17.37 32.60,-18.01 33.08,-18.65 33.74,-19.10 34.39,-19.56 35.16,-19.78 35.93,-20.00 36.73,-19.96 37.53,-19.92 38.27,-19.63 39.01,-19.34 39.63,-18.83 40.24,-18.31 40.66,-17.63 41.07,-16.95 41.25,-16.17 41.43,-15.39 41.35,-14.60 41.27,-13.80 40.94,-13.07 40.61,-12.35 40.06,-11.76 39.51,-11.18 38.81,-10.80 38.11,-10.42 38.11,-10.42 38.11,-10.42 36.15,-9.10 34.18,-7.77 31.72,-6.88 29.25,-5.99 27.11,-5.35 24.98,-4.71 22.87,-4.29 20.76,-3.86 16.77,-2.27 12.78,-0.67 7.30,1.88 1.82,4.44 1.27,4.59 0.71,4.75 0.13,4.76 -0.44,4.78 -1.01,4.66 -1.57,4.53 -2.09,4.28 -2.61,4.03 -3.06,3.65 -3.50,3.28 -3.85,2.81 -4.19,2.35 -4.41,1.81 -4.63,1.27 -4.71,0.70 -4.80,0.13 -4.75,-0.44 -4.69,-1.02 -4.50,-1.56 -4.31,-2.11 -4.00,-2.60 -3.68,-3.08 -3.26,-3.48 -2.83,-3.87 -2.33,-4.16 -1.82,-4.44 -1.82,-4.44 L -1.82,-4.44 Z"></path></g><g transform="translate(362.58094416998426 10.21548314014143) rotate(0.9094015075210009 13.884655161231507 38.7870694928711)" stroke="none"><path fill="#1e1e1e" d="M 2.90,-3.78 Q 2.90,-3.78 5.80,-1.36 8.71,1.06 11.21,3.65 13.72,6.24 16.44,10.08 19.16,13.93 20.71,15.90 22.26,17.86 23.63,19.91 25.00,21.96 26.41,24.73 27.82,27.50 29.41,31.60 30.99,35.70 31.30,40.17 31.60,44.63 31.88,47.37 32.17,50.10 32.14,52.68 32.12,55.25 31.77,59.24 31.42,63.22 30.68,65.49 29.94,67.76 29.48,70.22 29.02,72.68 28.64,75.12 28.26,77.57 28.06,78.52 27.85,79.48 27.35,80.32 26.85,81.16 26.11,81.80 25.37,82.43 24.46,82.80 23.55,83.17 22.58,83.22 21.60,83.28 20.66,83.02 19.71,82.77 18.90,82.22 18.09,81.68 17.49,80.90 16.90,80.13 16.58,79.20 16.26,78.27 16.26,77.30 16.25,76.32 16.56,75.39 16.87,74.46 17.46,73.68 18.05,72.90 18.85,72.35 19.66,71.79 20.60,71.53 21.54,71.26 22.52,71.31 23.50,71.36 24.41,71.72 25.32,72.07 26.07,72.70 26.81,73.33 27.32,74.17 27.83,75.00 28.05,75.96 28.26,76.91 28.16,77.88 28.06,78.86 27.65,79.75 27.24,80.64 26.58,81.35 25.91,82.06 25.04,82.53 24.18,82.99 23.22,83.15 22.25,83.31 21.29,83.16 20.32,83.01 19.46,82.55 18.59,82.10 17.91,81.39 17.24,80.68 16.82,79.80 16.41,78.91 16.30,77.94 16.19,76.97 16.19,76.97 16.19,76.97 17.13,72.62 18.07,68.27 19.15,65.26 20.22,62.25 21.13,60.21 22.04,58.17 22.39,54.51 22.73,50.85 22.59,48.31 22.45,45.76 21.75,42.14 21.05,38.51 19.77,34.59 18.49,30.67 17.90,28.61 17.31,26.55 16.32,24.63 15.32,22.72 14.13,20.76 12.93,18.80 10.13,15.59 7.33,12.38 5.29,10.25 3.26,8.13 0.17,5.95 -2.90,3.78 -3.31,3.38 -3.72,2.97 -4.02,2.48 -4.33,2.00 -4.50,1.45 -4.68,0.90 -4.72,0.33 -4.76,-0.24 -4.66,-0.80 -4.56,-1.37 -4.33,-1.90 -4.10,-2.42 -3.75,-2.88 -3.40,-3.34 -2.95,-3.70 -2.50,-4.05 -1.98,-4.30 -1.46,-4.54 -0.89,-4.65 -0.33,-4.75 0.24,-4.73 0.81,-4.70 1.36,-4.53 1.91,-4.36 2.41,-4.07 2.90,-3.78 2.90,-3.78 L 2.90,-3.78 Z"></path></g><g transform="translate(423.6511270136836 20.218956820298104) rotate(0.9094015075210009 28.810670052706598 30.789749886992723)" stroke="none"><path fill="#1e1e1e" d="M 1.10,-4.04 Q 1.10,-4.04 5.24,-2.69 9.38,-1.33 14.53,0.98 19.67,3.30 25.38,5.16 31.09,7.02 36.86,9.28 42.63,11.54 45.71,12.55 48.78,13.56 51.18,14.06 53.59,14.56 56.20,15.32 58.81,16.07 59.07,19.21 59.33,22.36 56.47,24.46 53.60,26.56 48.75,28.61 43.89,30.65 40.33,32.39 36.78,34.13 35.02,35.49 33.25,36.86 28.89,40.52 24.52,44.18 22.15,46.83 19.78,49.48 17.22,51.99 14.67,54.50 12.76,56.65 10.84,58.80 8.47,61.52 6.10,64.25 5.53,64.62 4.96,65.00 4.30,65.17 3.64,65.35 2.96,65.30 2.28,65.26 1.65,65.00 1.02,64.74 0.50,64.29 -0.01,63.84 -0.35,63.25 -0.70,62.66 -0.84,61.99 -0.97,61.32 -0.89,60.65 -0.81,59.97 -0.52,59.35 -0.22,58.73 0.24,58.24 0.72,57.75 1.33,57.44 1.93,57.13 2.61,57.03 3.29,56.92 3.96,57.04 4.63,57.16 5.23,57.49 5.83,57.81 6.30,58.32 6.76,58.82 7.04,59.44 7.32,60.06 7.38,60.74 7.45,61.43 7.29,62.09 7.14,62.76 6.78,63.34 6.42,63.92 5.90,64.35 5.37,64.79 4.73,65.04 4.09,65.28 3.41,65.31 2.73,65.34 2.07,65.15 1.42,64.96 0.86,64.57 0.29,64.18 -0.10,63.63 -0.51,63.08 -0.72,62.43 -0.93,61.78 -0.92,61.10 -0.91,60.41 -0.69,59.77 -0.46,59.12 -0.04,58.58 0.37,58.04 0.37,58.05 0.37,58.05 2.63,55.61 4.90,53.18 7.07,51.02 9.23,48.86 11.58,46.64 13.93,44.41 16.53,41.34 19.13,38.26 23.63,33.86 28.13,29.46 30.32,28.09 32.51,26.72 36.39,24.18 40.27,21.64 44.99,19.68 49.70,17.72 51.94,17.25 54.18,16.78 52.85,19.24 51.53,21.70 48.97,20.77 46.41,19.83 43.44,18.56 40.46,17.29 34.83,15.25 29.19,13.21 23.09,11.45 16.98,9.68 12.18,7.81 7.38,5.93 3.13,4.98 -1.10,4.04 -1.57,3.84 -2.04,3.65 -2.45,3.36 -2.85,3.06 -3.18,2.67 -3.50,2.28 -3.73,1.83 -3.95,1.38 -4.06,0.88 -4.17,0.39 -4.15,-0.10 -4.14,-0.61 -4.01,-1.10 -3.87,-1.58 -3.63,-2.02 -3.38,-2.46 -3.04,-2.83 -2.69,-3.20 -2.27,-3.48 -1.84,-3.76 -1.37,-3.92 -0.89,-4.09 -0.39,-4.14 0.10,-4.18 0.60,-4.11 1.10,-4.04 1.10,-4.04 L 1.10,-4.04 Z"></path></g><g transform="translate(484.9416066830834 59.55623949922648) rotate(0.9094015075210009 -23.256786801911517 22.792399773702925)" stroke="none"><path fill="#1e1e1e" d="M 3.15,3.34 Q 3.15,3.34 0.96,5.42 -1.22,7.50 -4.11,9.78 -6.99,12.07 -10.43,16.01 -13.86,19.96 -15.97,22.56 -18.07,25.15 -20.65,28.05 -23.22,30.96 -24.66,32.65 -26.10,34.35 -27.97,36.10 -29.83,37.84 -31.73,40.25 -33.63,42.65 -35.33,44.42 -37.03,46.20 -41.41,48.70 -45.78,51.21 -46.70,51.14 -47.61,51.08 -48.46,50.72 -49.30,50.36 -49.99,49.76 -50.68,49.15 -51.14,48.35 -51.60,47.56 -51.78,46.66 -51.96,45.76 -51.84,44.85 -51.72,43.94 -51.32,43.11 -50.92,42.29 -50.28,41.63 -49.63,40.98 -48.82,40.57 -48.00,40.15 -47.09,40.02 -46.18,39.89 -45.28,40.05 -44.37,40.22 -43.57,40.67 -42.77,41.11 -42.15,41.79 -41.53,42.47 -41.16,43.31 -40.79,44.15 -40.71,45.06 -40.63,45.98 -40.85,46.87 -41.06,47.76 -41.55,48.54 -42.04,49.31 -42.75,49.89 -43.46,50.48 -44.32,50.80 -45.17,51.12 -46.09,51.15 -47.01,51.19 -47.89,50.92 -48.77,50.66 -49.52,50.13 -50.27,49.60 -50.81,48.86 -51.35,48.12 -51.63,47.25 -51.90,46.37 -51.88,45.45 -51.87,44.54 -51.56,43.67 -51.25,42.81 -50.68,42.09 -50.11,41.37 -49.34,40.87 -48.57,40.37 -47.68,40.14 -46.79,39.91 -46.79,39.91 -46.79,39.91 -45.12,38.70 -43.44,37.49 -40.94,35.95 -38.43,34.41 -37.01,32.78 -35.60,31.15 -32.35,28.55 -29.10,25.95 -26.69,23.00 -24.28,20.04 -22.16,17.51 -20.05,14.98 -16.37,10.11 -12.70,5.24 -10.13,3.00 -7.56,0.77 -5.35,-1.28 -3.15,-3.34 -2.70,-3.67 -2.26,-4.00 -1.75,-4.21 -1.23,-4.43 -0.68,-4.51 -0.14,-4.59 0.41,-4.54 0.96,-4.49 1.48,-4.31 2.01,-4.13 2.47,-3.83 2.94,-3.53 3.32,-3.13 3.70,-2.72 3.97,-2.24 4.24,-1.76 4.39,-1.22 4.54,-0.69 4.56,-0.14 4.58,0.41 4.46,0.95 4.34,1.49 4.10,1.99 3.86,2.49 3.50,2.92 3.15,3.34 3.15,3.34 L 3.15,3.34 Z"></path></g><g transform="translate(533.2137578126955 19.48534684261614) rotate(0.9094015075210009 12.843295430987936 32.38919245298041)" stroke="none"><path fill="#1e1e1e" d="M 4.03,1.48 Q 4.03,1.48 1.63,7.38 -0.76,13.28 -2.85,18.52 -4.93,23.76 -7.29,29.24 -9.64,34.72 -10.81,38.68 -11.97,42.64 -12.53,45.94 -13.09,49.24 -13.18,51.70 -13.27,54.16 -12.05,56.71 -10.84,59.26 -8.27,60.75 -5.69,62.23 -2.37,61.64 0.95,61.05 3.63,60.65 6.31,60.24 9.11,59.68 11.91,59.11 16.19,58.06 20.47,57.00 24.04,55.39 27.60,53.78 31.01,51.88 34.42,49.97 35.62,48.20 36.81,46.43 36.38,43.51 35.95,40.60 35.23,37.27 34.52,33.93 33.61,31.18 32.70,28.42 31.71,26.21 30.73,24.01 29.69,21.62 28.64,19.23 27.51,17.33 26.38,15.43 25.34,13.49 24.30,11.55 22.51,9.56 20.73,7.56 18.64,5.76 16.55,3.95 14.14,3.54 11.73,3.13 9.39,3.26 7.05,3.38 3.98,3.46 0.91,3.54 -0.16,3.36 -1.24,3.19 -2.20,2.68 -3.16,2.17 -3.91,1.37 -4.66,0.58 -5.12,-0.40 -5.58,-1.39 -5.70,-2.47 -5.82,-3.56 -5.58,-4.63 -5.35,-5.69 -4.79,-6.63 -4.22,-7.56 -3.39,-8.27 -2.56,-8.97 -1.55,-9.38 -0.53,-9.78 0.55,-9.84 1.64,-9.90 2.69,-9.61 3.74,-9.31 4.64,-8.70 5.55,-8.09 6.21,-7.22 6.87,-6.35 7.21,-5.32 7.56,-4.28 7.56,-3.19 7.56,-2.10 7.21,-1.07 6.87,-0.03 6.21,0.82 5.54,1.69 4.64,2.31 3.74,2.92 2.69,3.21 1.64,3.50 0.55,3.44 -0.53,3.38 -1.55,2.98 -2.56,2.57 -3.39,1.87 -4.22,1.16 -4.79,0.23 -5.35,-0.70 -5.58,-1.76 -5.82,-2.83 -5.70,-3.92 -5.58,-5.00 -5.12,-5.99 -4.66,-6.98 -3.91,-7.77 -3.16,-8.56 -2.20,-9.07 -1.23,-9.59 -0.16,-9.76 0.91,-9.94 0.91,-9.94 0.91,-9.94 3.16,-9.90 5.42,-9.86 7.86,-9.73 10.30,-9.61 12.57,-9.44 14.83,-9.27 17.23,-8.68 19.64,-8.09 21.84,-6.53 24.05,-4.97 26.54,-2.53 29.03,-0.09 30.63,1.76 32.23,3.62 33.91,6.89 35.59,10.16 36.94,12.59 38.29,15.02 39.33,17.41 40.36,19.81 41.45,22.35 42.55,24.90 43.70,27.93 44.85,30.97 46.19,34.75 47.52,38.54 48.20,42.32 48.87,46.10 48.03,49.44 47.19,52.78 44.65,55.75 42.11,58.72 39.23,60.17 36.34,61.63 34.13,62.73 31.92,63.83 29.90,64.65 27.87,65.47 25.16,66.47 22.46,67.46 18.27,68.29 14.08,69.12 10.99,69.83 7.90,70.54 5.17,70.97 2.44,71.40 -1.06,71.95 -4.57,72.50 -8.90,71.25 -13.23,70.01 -15.35,68.24 -17.48,66.47 -18.81,63.68 -20.13,60.88 -20.35,57.11 -20.57,53.34 -20.08,50.63 -19.58,47.92 -18.77,44.46 -17.96,41.00 -16.85,36.63 -15.73,32.26 -13.65,26.80 -11.56,21.34 -9.78,15.98 -8.01,10.62 -6.02,4.57 -4.03,-1.48 -3.80,-1.94 -3.56,-2.40 -3.22,-2.79 -2.88,-3.18 -2.46,-3.48 -2.03,-3.78 -1.55,-3.97 -1.07,-4.16 -0.55,-4.23 -0.04,-4.30 0.47,-4.24 0.98,-4.18 1.47,-4.00 1.95,-3.82 2.38,-3.53 2.81,-3.24 3.16,-2.86 3.51,-2.48 3.76,-2.02 4.00,-1.56 4.13,-1.06 4.26,-0.56 4.27,-0.04 4.27,0.47 4.15,0.97 4.03,1.48 4.03,1.48 L 4.03,1.48 Z"></path></g><g transform="translate(799.2081396261897 42.614349480036935) rotate(0 10.11857963473949 40.474310819094455)" stroke="none"><path fill="#1e1e1e" d="M 3.78,-0.56 Q 3.78,-0.56 4.32,4.11 4.85,8.78 6.64,16.69 8.42,24.60 10.77,33.57 13.12,42.55 15.49,51.26 17.87,59.98 19.32,65.32 20.78,70.67 21.90,74.57 23.01,78.48 23.05,79.01 23.08,79.54 22.95,80.05 22.81,80.56 22.52,81.00 22.23,81.44 21.82,81.77 21.40,82.10 20.90,82.27 20.40,82.45 19.87,82.45 19.34,82.46 18.84,82.30 18.34,82.13 17.91,81.82 17.49,81.51 17.19,81.07 16.88,80.64 16.74,80.13 16.59,79.62 16.61,79.09 16.63,78.57 16.82,78.07 17.01,77.58 17.35,77.17 17.68,76.76 18.13,76.49 18.58,76.21 19.10,76.09 19.61,75.97 20.14,76.02 20.67,76.07 21.15,76.28 21.63,76.50 22.02,76.86 22.41,77.22 22.66,77.68 22.91,78.15 23.01,78.67 23.10,79.19 23.02,79.71 22.94,80.23 22.70,80.70 22.46,81.17 22.08,81.54 21.70,81.91 21.22,82.14 20.75,82.37 20.22,82.43 19.70,82.49 19.18,82.39 18.66,82.28 18.20,82.01 17.75,81.74 17.40,81.35 17.05,80.95 16.85,80.46 16.65,79.97 16.65,79.97 16.65,79.97 15.95,76.10 15.25,72.22 13.70,66.90 12.16,61.58 9.66,52.87 7.15,44.17 4.61,35.15 2.07,26.12 0.00,17.97 -2.06,9.82 -2.92,5.19 -3.78,0.56 -3.79,0.10 -3.80,-0.35 -3.70,-0.80 -3.61,-1.25 -3.40,-1.66 -3.20,-2.08 -2.91,-2.43 -2.61,-2.78 -2.24,-3.06 -1.87,-3.33 -1.44,-3.50 -1.01,-3.68 -0.56,-3.75 -0.10,-3.82 0.35,-3.77 0.81,-3.73 1.24,-3.58 1.68,-3.43 2.06,-3.18 2.45,-2.93 2.76,-2.59 3.08,-2.25 3.31,-1.85 3.53,-1.45 3.65,-1.01 3.78,-0.56 3.78,-0.56 L 3.78,-0.56 Z"></path></g><g transform="translate(737.6871877987552 145.41910930515408) rotate(0 118.99450268042756 4.047431853895802)" stroke="none"><path fill="#1e1e1e" d="M 0.23,-3.48 Q 0.23,-3.48 7.20,-2.90 14.18,-2.32 35.00,-1.57 55.83,-0.82 78.44,-0.01 101.05,0.79 127.39,1.38 153.74,1.98 170.31,2.48 186.87,2.98 197.39,3.20 207.90,3.42 215.43,3.76 222.96,4.09 226.93,4.40 230.89,4.71 234.21,4.86 237.53,5.02 238.01,5.13 238.49,5.24 238.91,5.49 239.32,5.75 239.64,6.13 239.95,6.51 240.13,6.97 240.31,7.42 240.33,7.92 240.35,8.41 240.22,8.88 240.08,9.35 239.80,9.76 239.52,10.16 239.12,10.45 238.73,10.75 238.26,10.90 237.80,11.05 237.30,11.05 236.81,11.04 236.35,10.88 235.88,10.72 235.50,10.42 235.11,10.12 234.84,9.71 234.56,9.30 234.44,8.82 234.31,8.35 234.34,7.86 234.37,7.37 234.56,6.91 234.75,6.46 235.07,6.08 235.39,5.71 235.82,5.46 236.24,5.21 236.72,5.11 237.20,5.01 237.69,5.07 238.18,5.13 238.62,5.34 239.07,5.55 239.42,5.89 239.77,6.23 240.00,6.67 240.22,7.11 240.30,7.59 240.37,8.08 240.29,8.56 240.20,9.05 239.97,9.48 239.73,9.91 239.37,10.25 239.01,10.58 238.57,10.78 238.12,10.98 237.63,11.03 237.14,11.08 237.14,11.08 237.14,11.08 233.75,10.73 230.35,10.39 226.54,9.96 222.73,9.53 215.27,9.23 207.80,8.93 197.26,8.76 186.72,8.58 170.17,8.15 153.62,7.72 127.24,7.21 100.85,6.71 78.24,6.02 55.64,5.34 34.69,4.76 13.74,4.18 6.75,3.83 -0.23,3.48 -0.64,3.41 -1.06,3.33 -1.44,3.15 -1.82,2.98 -2.15,2.71 -2.48,2.45 -2.74,2.12 -3.00,1.79 -3.17,1.40 -3.34,1.01 -3.41,0.60 -3.49,0.18 -3.46,-0.23 -3.43,-0.65 -3.30,-1.05 -3.17,-1.45 -2.95,-1.81 -2.73,-2.17 -2.43,-2.46 -2.13,-2.76 -1.77,-2.98 -1.41,-3.19 -1.01,-3.32 -0.60,-3.44 -0.18,-3.46 0.23,-3.48 0.23,-3.48 L 0.23,-3.48 Z"></path></g><g transform="translate(791.113275918398 184.2744489266629) rotate(0 -19.42768525048166 38.0458656025115)" stroke="none"><path fill="#1e1e1e" d="M -1.02,3.58 Q -1.02,3.58 -4.29,2.69 -7.56,1.80 -10.78,0.99 -14.00,0.17 -16.23,1.23 -18.46,2.29 -20.65,6.28 -22.85,10.27 -25.36,16.20 -27.87,22.13 -29.93,27.66 -31.99,33.20 -33.09,38.61 -34.19,44.02 -34.56,47.50 -34.92,50.99 -35.15,54.93 -35.38,58.88 -35.12,62.09 -34.86,65.30 -34.27,68.38 -33.67,71.46 -32.87,75.06 -32.07,78.65 -32.06,79.28 -32.05,79.91 -32.24,80.51 -32.43,81.11 -32.81,81.62 -33.18,82.12 -33.70,82.48 -34.21,82.85 -34.82,83.02 -35.42,83.20 -36.05,83.17 -36.68,83.15 -37.27,82.92 -37.86,82.70 -38.35,82.30 -38.83,81.90 -39.17,81.36 -39.50,80.83 -39.64,80.21 -39.79,79.60 -39.73,78.97 -39.67,78.35 -39.41,77.77 -39.15,77.19 -38.73,76.73 -38.30,76.27 -37.75,75.96 -37.20,75.66 -36.58,75.55 -35.96,75.44 -35.33,75.53 -34.71,75.63 -34.15,75.91 -33.59,76.20 -33.15,76.65 -32.71,77.10 -32.43,77.67 -32.16,78.24 -32.08,78.86 -32.01,79.49 -32.13,80.11 -32.26,80.72 -32.58,81.27 -32.90,81.81 -33.37,82.23 -33.84,82.64 -34.43,82.88 -35.01,83.13 -35.64,83.17 -36.27,83.21 -36.88,83.05 -37.49,82.89 -38.01,82.55 -38.54,82.20 -38.93,81.70 -39.32,81.21 -39.53,80.61 -39.73,80.02 -39.73,80.02 -39.73,80.02 -40.24,76.31 -40.74,72.60 -41.20,69.10 -41.66,65.61 -41.71,62.09 -41.75,58.58 -41.59,54.37 -41.44,50.16 -40.89,46.51 -40.35,42.85 -39.31,36.94 -38.28,31.03 -36.41,25.26 -34.54,19.50 -32.18,13.07 -29.82,6.64 -27.13,1.26 -24.44,-4.10 -21.34,-6.09 -18.23,-8.08 -15.12,-7.71 -12.01,-7.34 -8.74,-6.43 -5.46,-5.53 -2.22,-4.56 1.02,-3.58 1.44,-3.41 1.85,-3.23 2.21,-2.97 2.57,-2.70 2.86,-2.35 3.14,-2.00 3.34,-1.60 3.53,-1.19 3.62,-0.75 3.71,-0.31 3.70,0.13 3.68,0.58 3.56,1.01 3.43,1.45 3.21,1.84 2.99,2.23 2.68,2.55 2.37,2.88 1.99,3.12 1.61,3.36 1.18,3.51 0.75,3.65 0.31,3.69 -0.13,3.73 -0.58,3.65 -1.02,3.58 -1.02,3.58 L -1.02,3.58 Z"></path></g><g transform="translate(741.734619652651 216.65390375782937) rotate(0 30.355708024764112 3.237957834898424)" stroke="none"><path fill="#1e1e1e" d="M 0.38,-4.23 Q 0.38,-4.23 15.72,-2.62 31.06,-1.01 38.31,-0.02 45.56,0.96 49.52,1.37 53.47,1.77 57.29,2.13 61.11,2.49 61.69,2.76 62.27,3.03 62.73,3.47 63.19,3.91 63.49,4.47 63.78,5.04 63.88,5.67 63.99,6.30 63.88,6.93 63.78,7.55 63.48,8.12 63.17,8.68 62.71,9.12 62.25,9.55 61.67,9.82 61.09,10.09 60.45,10.15 59.82,10.22 59.20,10.08 58.57,9.94 58.03,9.61 57.48,9.28 57.07,8.79 56.66,8.31 56.43,7.71 56.19,7.12 56.16,6.48 56.13,5.85 56.30,5.23 56.47,4.62 56.83,4.09 57.19,3.56 57.70,3.18 58.21,2.80 58.81,2.59 59.42,2.39 60.06,2.39 60.69,2.40 61.30,2.60 61.90,2.81 62.41,3.20 62.91,3.58 63.27,4.11 63.63,4.64 63.80,5.26 63.96,5.87 63.93,6.51 63.89,7.14 63.65,7.74 63.42,8.33 63.00,8.81 62.59,9.30 62.04,9.62 61.49,9.95 60.87,10.09 60.24,10.22 59.61,10.15 58.98,10.08 58.98,10.08 58.98,10.08 55.93,9.29 52.88,8.51 48.82,8.21 44.77,7.92 37.57,7.25 30.37,6.59 14.99,5.41 -0.38,4.23 -0.88,4.12 -1.38,4.01 -1.84,3.79 -2.30,3.56 -2.70,3.24 -3.09,2.91 -3.39,2.49 -3.70,2.08 -3.89,1.61 -4.09,1.14 -4.17,0.63 -4.24,0.12 -4.20,-0.38 -4.15,-0.89 -3.98,-1.37 -3.82,-1.86 -3.54,-2.29 -3.26,-2.72 -2.89,-3.07 -2.51,-3.42 -2.07,-3.67 -1.62,-3.92 -1.13,-4.06 -0.63,-4.20 -0.12,-4.21 0.38,-4.23 0.38,-4.23 L 0.38,-4.23 Z"></path></g><g transform="translate(834.8254905333456 225.55827236407282) rotate(0 21.856169066382677 2.4284529364465754)" stroke="none"><path fill="#1e1e1e" d="M 0.42,-4.01 Q 0.42,-4.01 4.82,-3.36 9.22,-2.71 14.38,-1.90 19.55,-1.09 24.25,-0.48 28.94,0.12 32.83,0.57 36.73,1.01 39.71,1.13 42.70,1.25 43.24,1.39 43.79,1.53 44.27,1.84 44.74,2.15 45.09,2.59 45.44,3.04 45.63,3.57 45.82,4.10 45.83,4.67 45.84,5.24 45.67,5.78 45.50,6.32 45.17,6.77 44.83,7.23 44.37,7.56 43.91,7.88 43.36,8.04 42.82,8.20 42.25,8.18 41.69,8.16 41.16,7.96 40.63,7.76 40.19,7.40 39.75,7.04 39.45,6.56 39.15,6.08 39.02,5.53 38.89,4.98 38.94,4.42 38.99,3.85 39.22,3.34 39.45,2.82 39.83,2.40 40.21,1.98 40.71,1.71 41.20,1.43 41.76,1.33 42.32,1.23 42.88,1.31 43.44,1.40 43.94,1.65 44.45,1.91 44.84,2.31 45.24,2.72 45.49,3.23 45.73,3.74 45.81,4.30 45.88,4.86 45.76,5.41 45.65,5.97 45.37,6.46 45.09,6.95 44.66,7.32 44.24,7.70 43.71,7.92 43.19,8.14 42.63,8.18 42.06,8.22 42.06,8.22 42.06,8.22 39.02,7.79 35.99,7.36 32.12,6.90 28.26,6.44 23.47,6.03 18.68,5.61 13.57,5.09 8.46,4.57 4.01,4.29 -0.42,4.01 -0.89,3.91 -1.37,3.80 -1.80,3.58 -2.24,3.36 -2.61,3.04 -2.98,2.72 -3.26,2.33 -3.54,1.93 -3.72,1.48 -3.90,1.02 -3.97,0.54 -4.04,0.06 -3.98,-0.42 -3.93,-0.90 -3.77,-1.36 -3.60,-1.82 -3.33,-2.22 -3.06,-2.63 -2.70,-2.96 -2.34,-3.28 -1.92,-3.52 -1.49,-3.75 -1.02,-3.87 -0.55,-4.00 -0.06,-4.01 0.42,-4.01 0.42,-4.01 L 0.42,-4.01 Z"></path></g><g transform="translate(970.0098132677198 202.08315525969533) rotate(0 -25.09412690128113 33.59368129938974)" stroke="none"><path fill="#1e1e1e" d="M 1.30,3.91 Q 1.30,3.91 -4.33,5.58 -9.98,7.25 -15.36,10.10 -20.75,12.94 -26.84,18.60 -32.92,24.25 -36.69,28.89 -40.45,33.54 -42.44,37.62 -44.42,41.71 -45.05,44.20 -45.69,46.68 -45.81,49.82 -45.92,52.96 -43.20,53.23 -40.47,53.49 -37.60,54.33 -34.72,55.16 -34.32,51.54 -33.92,47.91 -33.21,45.82 -32.50,43.73 -31.01,40.93 -29.53,38.13 -28.57,35.96 -27.61,33.79 -27.03,29.79 -26.44,25.78 -25.70,21.18 -24.97,16.59 -24.77,14.84 -24.57,13.10 -24.39,12.41 -24.22,11.71 -23.88,11.08 -23.54,10.45 -23.06,9.92 -22.57,9.38 -21.98,8.98 -21.39,8.58 -20.71,8.33 -20.04,8.09 -19.33,8.01 -18.61,7.93 -17.90,8.02 -17.19,8.12 -16.52,8.38 -15.86,8.64 -15.27,9.05 -14.68,9.46 -14.21,10.01 -13.74,10.55 -13.42,11.19 -13.09,11.83 -12.93,12.52 -12.76,13.22 -12.77,13.94 -12.78,14.66 -12.07,18.40 -11.36,22.14 -10.35,28.51 -9.33,34.87 -8.57,39.73 -7.81,44.58 -6.98,47.91 -6.16,51.25 -4.09,54.83 -2.03,58.42 -0.65,60.22 0.72,62.02 1.67,62.87 2.62,63.72 3.01,64.29 3.40,64.87 3.58,65.53 3.77,66.20 3.73,66.90 3.69,67.59 3.43,68.23 3.18,68.88 2.73,69.40 2.28,69.93 1.68,70.29 1.09,70.65 0.41,70.80 -0.26,70.94 -0.95,70.87 -1.63,70.79 -2.26,70.50 -2.89,70.21 -3.40,69.73 -3.90,69.26 -4.22,68.64 -4.55,68.03 -4.66,67.35 -4.77,66.66 -4.66,65.98 -4.55,65.29 -4.22,64.68 -3.90,64.07 -3.39,63.59 -2.89,63.11 -2.26,62.82 -1.63,62.53 -0.94,62.46 -0.25,62.38 0.42,62.53 1.09,62.68 1.69,63.04 2.28,63.40 2.73,63.93 3.18,64.46 3.44,65.10 3.69,65.75 3.73,66.44 3.77,67.13 3.58,67.80 3.39,68.47 3.00,69.04 2.61,69.61 2.06,70.03 1.51,70.45 0.85,70.67 0.19,70.89 -0.49,70.89 -1.18,70.89 -1.84,70.67 -2.50,70.45 -3.05,70.03 -3.60,69.61 -3.60,69.61 -3.60,69.61 -4.87,68.11 -6.15,66.61 -7.35,64.53 -8.54,62.45 -11.45,58.00 -14.35,53.55 -15.36,50.01 -16.37,46.48 -17.74,41.76 -19.10,37.04 -20.90,30.72 -22.70,24.40 -23.40,21.37 -24.11,18.34 -24.34,15.72 -24.57,13.10 -24.39,12.41 -24.22,11.71 -23.88,11.08 -23.54,10.45 -23.06,9.92 -22.57,9.38 -21.98,8.98 -21.39,8.58 -20.71,8.33 -20.04,8.09 -19.33,8.01 -18.61,7.93 -17.90,8.02 -17.19,8.12 -16.52,8.38 -15.86,8.64 -15.27,9.05 -14.68,9.46 -14.21,10.01 -13.74,10.55 -13.42,11.19 -13.09,11.82 -12.93,12.52 -12.76,13.22 -12.77,13.94 -12.78,14.66 -13.00,15.64 -13.22,16.62 -14.02,19.78 -14.81,22.94 -15.03,25.10 -15.25,27.25 -15.57,30.68 -15.89,34.10 -16.67,36.90 -17.45,39.69 -18.49,41.55 -19.53,43.41 -20.57,45.40 -21.61,47.39 -23.19,51.50 -24.77,55.61 -26.68,59.28 -28.59,62.95 -30.49,63.99 -32.40,65.03 -36.51,64.51 -40.63,63.99 -44.24,61.99 -47.86,59.99 -50.19,58.38 -52.53,56.77 -52.92,53.12 -53.32,49.46 -52.67,46.97 -52.03,44.48 -50.87,41.83 -49.72,39.18 -47.49,34.47 -45.26,29.77 -41.30,24.68 -37.34,19.58 -30.72,13.28 -24.11,6.97 -18.23,3.58 -12.35,0.19 -6.83,-1.86 -1.30,-3.91 -0.81,-4.01 -0.33,-4.11 0.16,-4.09 0.66,-4.07 1.14,-3.93 1.61,-3.79 2.04,-3.54 2.48,-3.29 2.83,-2.95 3.19,-2.60 3.46,-2.18 3.72,-1.76 3.88,-1.29 4.04,-0.82 4.08,-0.32 4.12,0.16 4.04,0.65 3.96,1.14 3.76,1.60 3.57,2.06 3.27,2.46 2.97,2.85 2.58,3.17 2.20,3.48 1.75,3.70 1.30,3.91 1.30,3.91 L 1.30,3.91 Z"></path></g><g transform="translate(443.84361050235617 240.1290208622068) rotate(0 -5.261642882391868 53.021366549871374)" stroke="none"><path fill="#1e1e1e" d="M 4.02,0.29 Q 4.02,0.29 3.13,9.82 2.25,19.35 0.41,32.79 -1.42,46.23 -4.12,60.59 -6.82,74.95 -8.22,81.96 -9.63,88.96 -10.23,93.91 -10.83,98.86 -10.89,101.92 -10.96,104.97 -10.76,107.37 -10.57,109.77 -10.42,110.84 -10.28,111.92 -10.36,112.42 -10.43,112.93 -10.63,113.41 -10.83,113.89 -11.13,114.30 -11.44,114.72 -11.84,115.05 -12.23,115.38 -12.70,115.60 -13.16,115.83 -13.66,115.94 -14.17,116.05 -14.68,116.03 -15.20,116.01 -15.69,115.88 -16.19,115.74 -16.64,115.48 -17.09,115.23 -17.46,114.88 -17.84,114.52 -18.12,114.09 -18.40,113.66 -18.57,113.17 -18.74,112.68 -18.78,112.17 -18.83,111.66 -18.22,109.32 -17.61,106.99 -16.91,104.70 -16.20,102.42 -16.42,97.60 -16.64,92.78 -17.32,86.26 -18.00,79.75 -18.23,68.17 -18.46,56.58 -18.25,48.19 -18.05,39.79 -17.68,34.33 -17.32,28.87 -17.39,26.10 -17.46,23.34 -16.78,20.13 -16.11,16.92 -15.76,13.63 -15.40,10.34 -15.02,8.16 -14.63,5.97 -11.85,2.49 -9.06,-0.98 -2.61,-4.21 3.83,-7.44 11.48,-9.43 19.12,-11.41 24.00,-12.14 28.89,-12.86 32.24,-12.90 35.60,-12.94 38.52,-11.93 41.43,-10.93 43.20,-9.34 44.96,-7.75 45.50,-4.32 46.04,-0.88 45.27,2.15 44.49,5.19 41.87,8.86 39.25,12.53 33.70,17.71 28.16,22.89 24.32,25.74 20.48,28.58 15.09,32.29 9.70,36.00 4.19,40.06 -1.31,44.12 -7.70,48.43 -14.09,52.74 -21.96,57.60 -29.84,62.46 -34.18,64.77 -38.52,67.08 -42.40,68.45 -46.27,69.82 -48.33,70.61 -50.39,71.41 -50.81,71.47 -51.23,71.54 -51.66,71.51 -52.08,71.47 -52.48,71.34 -52.89,71.20 -53.25,70.97 -53.61,70.74 -53.90,70.44 -54.19,70.13 -54.41,69.76 -54.62,69.39 -54.74,68.98 -54.85,68.57 -54.87,68.15 -54.89,67.72 -54.80,67.30 -54.71,66.89 -54.53,66.50 -54.35,66.12 -54.08,65.79 -53.81,65.46 -53.47,65.20 -53.12,64.95 -52.73,64.78 -52.34,64.62 -47.37,64.36 -42.40,64.10 -35.13,66.22 -27.87,68.34 -23.41,70.25 -18.95,72.16 -14.33,74.14 -9.72,76.12 -6.56,77.86 -3.40,79.60 -1.19,80.61 1.01,81.62 3.95,82.96 6.89,84.30 10.44,86.76 13.99,89.22 16.97,91.68 19.96,94.14 22.60,96.25 25.24,98.37 27.29,100.25 29.34,102.13 31.33,103.99 33.32,105.86 35.03,107.65 36.74,109.43 38.27,111.07 39.79,112.71 40.26,113.29 40.73,113.86 40.99,114.55 41.25,115.24 41.28,115.98 41.31,116.72 41.10,117.43 40.89,118.14 40.46,118.75 40.04,119.35 39.44,119.79 38.84,120.23 38.14,120.46 37.43,120.68 36.69,120.67 35.95,120.66 35.25,120.41 34.56,120.16 33.98,119.70 33.39,119.24 32.99,118.63 32.58,118.01 32.40,117.29 32.21,116.57 32.26,115.83 32.31,115.10 32.60,114.41 32.89,113.73 33.37,113.17 33.86,112.62 34.50,112.25 35.14,111.87 35.87,111.73 36.59,111.58 37.33,111.67 38.06,111.76 38.73,112.09 39.40,112.41 39.93,112.93 40.45,113.44 40.79,114.10 41.13,114.76 41.23,115.50 41.34,116.23 41.21,116.96 41.08,117.69 40.72,118.33 40.36,118.98 39.82,119.48 39.27,119.98 38.59,120.28 37.92,120.58 37.18,120.65 36.44,120.72 35.72,120.55 35.00,120.38 34.37,119.98 33.75,119.59 33.75,119.59 33.75,119.59 31.87,117.42 29.99,115.25 28.66,113.52 27.34,111.78 25.47,109.75 23.60,107.72 22.05,105.89 20.49,104.07 17.93,101.87 15.37,99.66 12.70,97.42 10.02,95.18 6.82,93.15 3.61,91.13 0.53,89.58 -2.55,88.04 -4.67,86.64 -6.78,85.24 -9.42,83.49 -12.05,81.75 -16.70,79.92 -21.34,78.09 -25.53,76.51 -29.71,74.92 -36.21,73.21 -42.71,71.50 -46.55,71.45 -50.39,71.41 -50.81,71.47 -51.23,71.54 -51.65,71.51 -52.08,71.47 -52.48,71.34 -52.89,71.20 -53.25,70.97 -53.61,70.74 -53.90,70.44 -54.19,70.13 -54.41,69.76 -54.62,69.39 -54.74,68.98 -54.85,68.57 -54.87,68.15 -54.89,67.72 -54.80,67.30 -54.71,66.89 -54.53,66.50 -54.35,66.12 -54.08,65.79 -53.81,65.46 -53.47,65.21 -53.12,64.95 -52.73,64.78 -52.34,64.62 -50.23,64.41 -48.12,64.21 -44.66,63.15 -41.21,62.10 -37.06,59.81 -32.92,57.52 -25.21,52.65 -17.50,47.78 -11.31,43.43 -5.13,39.09 0.32,34.82 5.78,30.56 10.87,26.73 15.96,22.91 19.26,20.06 22.56,17.22 27.24,12.30 31.92,7.39 33.65,4.83 35.37,2.27 35.24,-1.44 35.12,-5.15 32.66,-5.38 30.20,-5.61 25.78,-4.59 21.37,-3.58 14.78,-1.48 8.20,0.62 1.93,4.57 -4.33,8.52 -5.53,10.41 -6.72,12.29 -7.74,15.58 -8.75,18.88 -9.57,21.27 -10.38,23.66 -10.67,26.42 -10.96,29.17 -11.12,34.51 -11.27,39.84 -11.20,48.08 -11.13,56.33 -10.56,67.46 -9.99,78.60 -8.82,85.03 -7.64,91.45 -6.93,95.87 -6.23,100.28 -6.77,102.88 -7.32,105.48 -8.80,108.70 -10.28,111.91 -10.36,112.42 -10.43,112.93 -10.63,113.41 -10.83,113.89 -11.13,114.30 -11.44,114.72 -11.84,115.05 -12.23,115.38 -12.70,115.60 -13.16,115.83 -13.66,115.94 -14.17,116.05 -14.68,116.03 -15.20,116.01 -15.69,115.88 -16.19,115.74 -16.64,115.48 -17.09,115.23 -17.46,114.88 -17.84,114.52 -18.12,114.09 -18.40,113.66 -18.57,113.17 -18.74,112.68 -18.78,112.17 -18.83,111.66 -18.63,110.52 -18.43,109.39 -17.95,106.92 -17.47,104.46 -17.05,101.34 -16.63,98.22 -16.10,93.03 -15.57,87.83 -14.32,80.83 -13.07,73.82 -10.60,59.60 -8.13,45.38 -6.58,32.10 -5.04,18.81 -4.53,9.26 -4.02,-0.29 -3.92,-0.77 -3.83,-1.24 -3.63,-1.68 -3.42,-2.13 -3.12,-2.50 -2.81,-2.88 -2.42,-3.18 -2.04,-3.47 -1.59,-3.67 -1.15,-3.86 -0.67,-3.94 -0.19,-4.02 0.29,-3.99 0.77,-3.95 1.23,-3.80 1.70,-3.65 2.11,-3.39 2.52,-3.14 2.86,-2.79 3.20,-2.44 3.45,-2.02 3.69,-1.60 3.83,-1.14 3.97,-0.67 3.99,-0.19 4.02,0.29 4.02,0.29 L 4.02,0.29 Z"></path></g><g transform="translate(492.41279274910585 329.9819956669119) rotate(0 -3.2379578348984523 -0.8094740189974061)" stroke="none"><path fill="#1e1e1e" d="M 0,-4.71 Q 0,-4.71 3.47,-4.62 6.94,-4.53 9.00,-5.21 11.07,-5.88 12.97,-7.24 14.87,-8.60 12.82,-14.68 10.77,-20.75 9.87,-23.29 8.98,-25.82 5.70,-26.33 2.42,-26.84 -4.47,-24.70 -11.37,-22.56 -14.91,-21.37 -18.46,-20.18 -20.11,-18.65 -21.76,-17.12 -21.52,-13.39 -21.28,-9.65 -20.25,-7.67 -19.23,-5.69 -16.74,-0.70 -14.25,4.27 -11.14,10.23 -8.03,16.19 -6.37,19.44 -4.70,22.70 -3.21,25.65 -1.73,28.60 -1.56,29.24 -1.39,29.87 -1.43,30.53 -1.47,31.19 -1.72,31.79 -1.97,32.40 -2.40,32.90 -2.83,33.40 -3.40,33.73 -3.97,34.06 -4.61,34.20 -5.25,34.34 -5.91,34.26 -6.56,34.18 -7.15,33.90 -7.75,33.62 -8.22,33.16 -8.69,32.70 -8.99,32.12 -9.30,31.54 -9.40,30.89 -9.50,30.24 -9.38,29.59 -9.27,28.94 -8.96,28.36 -8.65,27.79 -8.16,27.34 -7.68,26.89 -7.08,26.62 -6.48,26.35 -5.83,26.28 -5.17,26.22 -4.53,26.37 -3.89,26.51 -3.33,26.86 -2.77,27.20 -2.35,27.71 -1.93,28.21 -1.69,28.83 -1.46,29.44 -1.43,30.10 -1.40,30.75 -1.58,31.39 -1.76,32.02 -2.14,32.56 -2.51,33.10 -3.04,33.49 -3.57,33.88 -4.19,34.09 -4.82,34.29 -5.47,34.29 -6.13,34.28 -6.75,34.06 -7.37,33.85 -7.89,33.44 -8.41,33.04 -8.77,32.49 -9.14,31.95 -9.14,31.95 -9.14,31.95 -10.29,29.05 -11.45,26.15 -13.05,23.03 -14.64,19.91 -18.12,14.15 -21.60,8.40 -24.74,3.35 -27.89,-1.68 -29.18,-4.70 -30.46,-7.72 -30.94,-11.14 -31.42,-14.55 -29.07,-19.04 -26.71,-23.54 -23.92,-25.42 -21.13,-27.31 -17.51,-28.68 -13.88,-30.05 -6.11,-32.85 1.66,-35.64 7.05,-35.80 12.43,-35.95 14.99,-32.22 17.54,-28.49 18.16,-26.16 18.77,-23.83 20.97,-18.72 23.17,-13.60 23.21,-9.05 23.25,-4.51 20.94,-1.82 18.62,0.85 16.05,1.97 13.47,3.09 10.24,3.81 7.02,4.53 3.51,4.62 0,4.71 -0.56,4.64 -1.12,4.57 -1.65,4.37 -2.19,4.17 -2.65,3.85 -3.12,3.52 -3.50,3.10 -3.87,2.67 -4.14,2.17 -4.40,1.67 -4.54,1.11 -4.67,0.56 -4.67,-0.00 -4.67,-0.56 -4.54,-1.12 -4.40,-1.67 -4.14,-2.17 -3.87,-2.67 -3.50,-3.10 -3.12,-3.52 -2.65,-3.85 -2.19,-4.17 -1.65,-4.37 -1.12,-4.57 -0.56,-4.64 0.00,-4.71 0.00,-4.71 L 0,-4.71 Z"></path></g><g transform="translate(661.5954565937323 206.940092012043) rotate(0 -42.90277147540465 85.8055583905365)" stroke="none"><path fill="#1e1e1e" d="M 2.07,2.37 Q 2.07,2.37 -5.19,8.60 -12.45,14.83 -21.70,21.50 -30.95,28.16 -43.10,39.23 -55.26,50.29 -61.34,56.59 -67.43,62.88 -71.47,70.41 -75.51,77.93 -77.67,86.09 -79.84,94.24 -80.54,101.34 -81.24,108.44 -80.86,115.77 -80.47,123.10 -80.28,127.24 -80.10,131.39 -79.25,134.76 -78.41,138.13 -77.45,140.37 -76.50,142.61 -74.69,145.06 -72.88,147.52 -67.53,152.24 -62.18,156.96 -58.89,159.81 -55.61,162.66 -52.68,164.35 -49.76,166.05 -48.35,166.68 -46.95,167.31 -46.50,167.70 -46.06,168.09 -45.76,168.60 -45.46,169.11 -45.34,169.69 -45.22,170.26 -45.29,170.85 -45.36,171.44 -45.62,171.97 -45.87,172.50 -46.28,172.93 -46.69,173.35 -47.22,173.62 -47.74,173.89 -48.33,173.98 -48.91,174.07 -49.49,173.96 -50.07,173.86 -50.59,173.58 -51.11,173.30 -51.51,172.86 -51.91,172.43 -52.15,171.89 -52.40,171.35 -52.45,170.76 -52.51,170.18 -52.37,169.60 -52.24,169.03 -51.93,168.52 -51.62,168.02 -51.16,167.64 -50.71,167.27 -50.16,167.06 -49.61,166.84 -49.02,166.82 -48.43,166.79 -47.86,166.96 -47.29,167.12 -46.81,167.46 -46.32,167.80 -45.97,168.27 -45.62,168.75 -45.44,169.31 -45.26,169.87 -45.27,170.46 -45.27,171.05 -45.47,171.61 -45.66,172.17 -46.03,172.63 -46.39,173.10 -46.88,173.42 -47.38,173.75 -47.95,173.90 -48.52,174.05 -49.11,174.01 -49.70,173.97 -50.24,173.75 -50.79,173.52 -50.79,173.52 -50.79,173.52 -51.98,172.55 -53.17,171.57 -56.36,169.49 -59.56,167.40 -63.00,164.64 -66.44,161.88 -72.53,156.67 -78.63,151.47 -80.75,148.10 -82.87,144.73 -83.50,142.04 -84.13,139.34 -84.82,135.48 -85.51,131.61 -85.66,127.49 -85.80,123.37 -86.19,115.64 -86.58,107.91 -85.82,100.38 -85.06,92.85 -82.69,84.11 -80.33,75.36 -75.89,67.22 -71.46,59.08 -65.26,52.60 -59.07,46.12 -46.72,34.79 -34.37,23.47 -25.38,16.88 -16.40,10.29 -9.23,3.95 -2.07,-2.37 -1.75,-2.59 -1.44,-2.80 -1.08,-2.93 -0.72,-3.06 -0.35,-3.11 0.02,-3.15 0.40,-3.10 0.78,-3.05 1.13,-2.91 1.48,-2.77 1.80,-2.56 2.11,-2.34 2.36,-2.05 2.61,-1.76 2.78,-1.43 2.95,-1.09 3.04,-0.72 3.13,-0.35 3.13,0.02 3.12,0.40 3.03,0.77 2.93,1.14 2.75,1.47 2.57,1.81 2.32,2.09 2.07,2.37 2.07,2.37 L 2.07,2.37 Z"></path></g><g transform="translate(638.9298135083521 323.5061108765695) rotate(0 2.833220825399792 21.046664167930857)" stroke="none"><path fill="#1e1e1e" d="M 4.38,1.39 Q 4.38,1.39 2.50,6.43 0.63,11.48 -1.72,16.14 -4.08,20.80 -5.99,24.84 -7.91,28.89 -7.21,26.62 -6.52,24.35 -6.36,22.18 -6.21,20.02 -6.23,17.43 -6.26,14.85 -6.14,14.21 -6.02,13.57 -5.76,12.98 -5.49,12.38 -5.09,11.87 -4.68,11.36 -4.17,10.96 -3.66,10.56 -3.07,10.29 -2.47,10.02 -1.83,9.91 -1.19,9.79 -0.54,9.83 0.10,9.87 0.72,10.06 1.34,10.26 1.89,10.59 2.45,10.93 2.91,11.39 3.37,11.85 3.71,12.41 4.04,12.97 4.24,13.59 4.43,14.21 4.47,14.86 4.51,15.51 7.08,18.35 9.66,21.19 12.00,25.04 14.34,28.90 16.12,31.10 17.91,33.31 20.07,35.72 22.22,38.13 22.69,38.74 23.17,39.36 23.42,40.09 23.68,40.83 23.68,41.61 23.69,42.38 23.44,43.12 23.20,43.86 22.74,44.48 22.27,45.10 21.63,45.54 20.99,45.98 20.24,46.20 19.50,46.41 18.72,46.37 17.94,46.34 17.22,46.05 16.49,45.77 15.90,45.27 15.30,44.77 14.90,44.11 14.49,43.45 14.32,42.69 14.15,41.93 14.23,41.16 14.31,40.39 14.63,39.68 14.95,38.97 15.48,38.40 16.01,37.84 16.69,37.47 17.38,37.10 18.14,36.97 18.91,36.84 19.68,36.96 20.44,37.08 21.13,37.44 21.82,37.80 22.36,38.36 22.90,38.92 23.23,39.62 23.56,40.32 23.65,41.09 23.74,41.87 23.58,42.63 23.42,43.39 23.02,44.05 22.62,44.72 22.04,45.23 21.45,45.74 20.73,46.03 20.01,46.32 19.23,46.37 18.46,46.42 17.71,46.21 16.96,46.01 16.31,45.58 15.66,45.15 15.66,45.15 15.66,45.15 13.13,42.16 10.60,39.17 8.68,36.75 6.76,34.32 3.66,30.58 0.56,26.83 -1.91,23.04 -4.39,19.25 -5.32,17.05 -6.26,14.85 -6.14,14.21 -6.02,13.57 -5.76,12.98 -5.49,12.38 -5.09,11.87 -4.69,11.36 -4.17,10.96 -3.66,10.56 -3.07,10.29 -2.47,10.02 -1.83,9.91 -1.19,9.79 -0.54,9.83 0.10,9.87 0.72,10.06 1.34,10.26 1.89,10.59 2.45,10.93 2.91,11.39 3.37,11.85 3.71,12.41 4.04,12.97 4.24,13.59 4.43,14.21 4.47,14.86 4.51,15.51 4.18,18.28 3.86,21.05 3.52,23.67 3.19,26.30 2.47,29.69 1.75,33.08 0.17,35.79 -1.41,38.50 -3.64,39.39 -5.86,40.28 -9.47,38.50 -13.08,36.72 -13.80,34.66 -14.52,32.60 -14.37,29.58 -14.23,26.56 -12.51,22.12 -10.78,17.69 -8.96,13.34 -7.14,8.99 -5.76,3.80 -4.38,-1.39 -4.15,-1.90 -3.92,-2.40 -3.58,-2.83 -3.23,-3.27 -2.79,-3.61 -2.35,-3.95 -1.85,-4.17 -1.34,-4.40 -0.79,-4.49 -0.25,-4.59 0.30,-4.55 0.85,-4.52 1.38,-4.35 1.91,-4.18 2.38,-3.89 2.86,-3.60 3.25,-3.21 3.64,-2.81 3.92,-2.34 4.20,-1.86 4.37,-1.33 4.53,-0.80 4.56,-0.24 4.59,0.30 4.48,0.85 4.38,1.39 4.38,1.39 L 4.38,1.39 Z"></path></g><g transform="translate(681.8326158632112 228.7961993195168) rotate(0 35.61738178661045 97.54311694272522)" stroke="none"><path fill="#1e1e1e" d="M 2.52,-1.83 Q 2.52,-1.83 9.91,8.44 17.31,18.72 22.35,26.91 27.40,35.10 34.43,48.17 41.47,61.23 47.47,72.83 53.47,84.43 59.09,99.27 64.72,114.11 67.33,121.57 69.93,129.03 70.40,137.44 70.87,145.85 69.83,151.03 68.79,156.22 64.44,162.45 60.08,168.68 55.23,174.46 50.38,180.25 45.42,184.67 40.45,189.10 37.46,191.53 34.47,193.96 30.19,196.18 25.91,198.41 25.36,198.40 24.81,198.39 24.29,198.21 23.77,198.03 23.33,197.69 22.89,197.35 22.59,196.89 22.28,196.43 22.14,195.90 22.00,195.37 22.04,194.82 22.07,194.26 22.28,193.75 22.49,193.24 22.85,192.83 23.22,192.41 23.69,192.13 24.17,191.85 24.71,191.74 25.25,191.63 25.80,191.69 26.35,191.76 26.84,192.00 27.34,192.23 27.74,192.62 28.13,193.00 28.39,193.49 28.64,193.98 28.72,194.53 28.81,195.07 28.71,195.62 28.62,196.16 28.35,196.64 28.09,197.13 27.68,197.50 27.28,197.88 26.78,198.10 26.27,198.33 25.72,198.38 25.17,198.44 24.64,198.31 24.10,198.19 23.63,197.90 23.16,197.61 22.81,197.18 22.45,196.76 22.26,196.25 22.06,195.73 22.03,195.18 22.01,194.63 22.16,194.10 22.32,193.57 22.63,193.11 22.95,192.66 23.39,192.33 23.83,192.00 24.36,191.83 24.88,191.66 24.88,191.66 24.88,191.66 27.94,190.55 31.00,189.44 33.97,187.29 36.95,185.15 41.64,181.00 46.33,176.84 51.05,171.21 55.77,165.58 59.71,160.27 63.65,154.96 64.58,150.52 65.52,146.08 65.18,138.42 64.83,130.76 62.22,123.41 59.62,116.05 54.09,101.51 48.56,86.98 42.54,75.45 36.51,63.92 29.50,51.03 22.49,38.15 17.48,30.19 12.47,22.23 4.97,12.03 -2.52,1.83 -2.70,1.50 -2.89,1.17 -2.99,0.81 -3.09,0.45 -3.10,0.07 -3.10,-0.30 -3.02,-0.66 -2.94,-1.03 -2.78,-1.37 -2.61,-1.71 -2.37,-1.99 -2.12,-2.28 -1.82,-2.50 -1.51,-2.72 -1.17,-2.87 -0.82,-3.01 -0.44,-3.06 -0.07,-3.12 0.29,-3.08 0.67,-3.05 1.02,-2.92 1.38,-2.80 1.69,-2.59 2.01,-2.38 2.27,-2.11 2.52,-1.83 2.52,-1.83 L 2.52,-1.83 Z"></path></g><g transform="translate(835.6350263112519 349.40968091739353) rotate(0 0.8095357779063193 23.475101664650225)" stroke="none"><path fill="#1e1e1e" d="M 1.21,3.48 Q 1.21,3.48 -4.18,5.21 -9.58,6.93 -14.89,8.78 -20.20,10.62 -23.94,11.75 -27.69,12.87 -30.38,14.64 -33.07,16.41 -33.54,16.51 -34.00,16.60 -34.48,16.59 -34.96,16.57 -35.43,16.44 -35.89,16.31 -36.30,16.07 -36.72,15.83 -37.07,15.50 -37.42,15.17 -37.67,14.77 -37.93,14.36 -38.09,13.91 -38.24,13.45 -38.28,12.98 -38.32,12.50 -38.25,12.02 -38.17,11.55 -37.99,11.11 -37.80,10.67 -37.52,10.28 -37.23,9.90 -36.86,9.59 -36.49,9.28 -36.06,9.08 -35.63,8.87 -31.35,11.20 -27.08,13.53 -23.51,16.01 -19.94,18.49 -15.47,20.96 -11.01,23.43 -3.05,27.56 4.91,31.69 13.28,35.05 21.66,38.41 26.38,40.09 31.09,41.77 33.21,42.25 35.32,42.73 35.80,42.99 36.28,43.25 36.65,43.65 37.02,44.04 37.24,44.54 37.46,45.03 37.52,45.57 37.57,46.11 37.45,46.64 37.33,47.17 37.05,47.63 36.76,48.10 36.34,48.45 35.93,48.79 35.42,48.99 34.92,49.19 34.37,49.21 33.83,49.24 33.31,49.09 32.79,48.94 32.34,48.63 31.89,48.32 31.57,47.88 31.24,47.45 31.08,46.93 30.91,46.42 30.91,45.87 30.92,45.33 31.09,44.82 31.27,44.31 31.60,43.88 31.94,43.45 32.39,43.15 32.84,42.85 33.36,42.70 33.89,42.56 34.43,42.60 34.97,42.63 35.47,42.84 35.98,43.04 36.39,43.40 36.80,43.75 37.07,44.22 37.35,44.69 37.46,45.22 37.57,45.75 37.51,46.29 37.45,46.83 37.22,47.32 36.98,47.81 36.61,48.20 36.23,48.59 35.75,48.84 35.27,49.09 34.73,49.18 34.19,49.26 33.66,49.17 33.12,49.07 33.12,49.07 33.12,49.07 31.17,48.14 29.21,47.21 24.35,45.58 19.48,43.94 10.80,40.59 2.11,37.23 -5.97,33.24 -14.06,29.24 -18.90,26.83 -23.74,24.42 -28.40,20.41 -33.07,16.41 -33.53,16.51 -34.00,16.60 -34.48,16.59 -34.96,16.57 -35.43,16.44 -35.89,16.31 -36.30,16.07 -36.72,15.83 -37.07,15.50 -37.42,15.17 -37.67,14.77 -37.93,14.36 -38.09,13.91 -38.24,13.45 -38.28,12.98 -38.32,12.50 -38.25,12.02 -38.17,11.55 -37.99,11.11 -37.80,10.67 -37.52,10.28 -37.23,9.90 -36.86,9.59 -36.49,9.28 -36.06,9.08 -35.63,8.87 -34.77,8.29 -33.91,7.71 -31.71,7.17 -29.51,6.64 -25.96,5.64 -22.41,4.63 -17.11,2.57 -11.82,0.50 -6.51,-1.48 -1.21,-3.48 -0.77,-3.57 -0.34,-3.67 0.10,-3.66 0.54,-3.64 0.97,-3.53 1.40,-3.41 1.79,-3.19 2.17,-2.97 2.50,-2.67 2.82,-2.36 3.07,-1.99 3.31,-1.62 3.45,-1.20 3.60,-0.78 3.64,-0.34 3.68,0.10 3.62,0.54 3.55,0.98 3.38,1.39 3.21,1.80 2.95,2.16 2.69,2.52 2.35,2.80 2.01,3.09 1.61,3.28 1.21,3.48 1.21,3.48 L 1.21,3.48 Z"></path></g><g transform="translate(975.6761931596103 319.4586790226737) rotate(0 30.355738904218526 30.355738904218526)" stroke="none"><path fill="#1e1e1e" d="M 3.35,1.73 Q 3.35,1.73 -0.27,8.41 -3.90,15.09 -7.14,20.52 -10.39,25.96 -12.91,30.72 -15.44,35.48 -16.29,38.52 -17.15,41.56 -15.88,45.45 -14.61,49.35 -13.16,51.38 -11.70,53.41 -8.76,56.23 -5.81,59.06 -2.47,61.78 0.86,64.50 3.33,65.60 5.79,66.70 11.06,67.73 16.33,68.75 19.96,68.96 23.60,69.16 26.07,68.52 28.54,67.89 32.20,64.39 35.86,60.89 39.14,57.89 42.41,54.90 48.12,47.74 53.82,40.59 60.05,32.83 66.28,25.07 69.66,21.07 73.04,17.06 75.00,14.03 76.96,10.99 76.94,8.73 76.92,6.47 75.24,4.72 73.55,2.98 71.04,1.35 68.52,-0.26 64.86,-2.03 61.19,-3.80 57.85,-5.24 54.51,-6.68 50.85,-7.37 47.19,-8.06 44.28,-7.63 41.38,-7.19 35.93,-6.61 30.48,-6.02 27.05,-5.46 23.62,-4.90 19.46,-4.54 15.31,-4.19 13.05,-3.62 10.78,-3.06 8.54,-2.23 6.30,-1.40 4.94,-0.12 3.57,1.14 2.88,1.56 2.18,1.99 1.39,2.17 0.59,2.35 -0.21,2.27 -1.02,2.18 -1.77,1.85 -2.51,1.51 -3.10,0.95 -3.70,0.39 -4.09,-0.32 -4.47,-1.03 -4.61,-1.84 -4.75,-2.64 -4.62,-3.45 -4.49,-4.25 -4.11,-4.98 -3.74,-5.70 -3.15,-6.26 -2.56,-6.83 -1.82,-7.17 -1.08,-7.52 -0.27,-7.62 0.53,-7.71 1.32,-7.54 2.12,-7.37 2.82,-6.95 3.52,-6.54 4.06,-5.92 4.59,-5.30 4.90,-4.54 5.20,-3.79 5.25,-2.97 5.30,-2.16 5.09,-1.37 4.87,-0.58 4.42,0.08 3.97,0.76 3.32,1.26 2.67,1.76 1.90,2.02 1.13,2.29 0.32,2.29 -0.49,2.30 -1.26,2.04 -2.04,1.79 -2.69,1.30 -3.34,0.81 -3.81,0.13 -4.27,-0.53 -4.49,-1.31 -4.71,-2.10 -4.67,-2.91 -4.63,-3.73 -4.34,-4.49 -4.04,-5.25 -3.52,-5.87 -2.99,-6.50 -2.99,-6.49 -2.99,-6.49 0.67,-8.47 4.34,-10.45 6.82,-10.82 9.29,-11.18 11.84,-11.50 14.39,-11.81 18.30,-12.43 22.21,-13.05 25.68,-13.68 29.16,-14.31 34.50,-15.44 39.83,-16.57 44.55,-16.47 49.28,-16.37 51.34,-15.68 53.40,-15.00 55.39,-14.14 57.38,-13.29 60.73,-11.82 64.08,-10.35 68.50,-8.55 72.92,-6.76 76.30,-4.38 79.67,-2.00 81.98,1.29 84.28,4.59 84.36,7.12 84.43,9.66 83.18,12.00 81.92,14.35 79.66,17.51 77.39,20.68 74.12,24.68 70.84,28.69 64.70,36.50 58.56,44.31 52.67,51.89 46.78,59.46 43.60,62.64 40.41,65.82 35.44,70.28 30.47,74.75 26.87,75.32 23.27,75.90 19.19,75.68 15.11,75.45 8.80,74.37 2.49,73.29 -0.38,71.62 -3.26,69.96 -7.02,67.28 -10.78,64.59 -14.68,61.26 -18.58,57.92 -20.10,55.32 -21.61,52.73 -22.98,49.15 -24.34,45.58 -23.88,42.56 -23.43,39.54 -22.17,36.12 -20.91,32.69 -18.46,27.71 -16.01,22.74 -13.04,17.32 -10.06,11.90 -6.70,5.08 -3.35,-1.73 -3.09,-2.11 -2.84,-2.48 -2.50,-2.79 -2.16,-3.09 -1.76,-3.31 -1.36,-3.52 -0.91,-3.63 -0.47,-3.74 -0.02,-3.75 0.43,-3.75 0.87,-3.64 1.31,-3.54 1.72,-3.33 2.12,-3.12 2.47,-2.82 2.81,-2.52 3.07,-2.14 3.33,-1.77 3.49,-1.35 3.66,-0.92 3.72,-0.47 3.77,-0.02 3.72,0.43 3.67,0.88 3.51,1.30 3.35,1.73 3.35,1.73 L 3.35,1.73 Z"></path></g><g transform="translate(520.7448157263765 454.44052517420783) rotate(0 0.8094740189973777 27.522533518546027)" stroke="none"><path fill="#1e1e1e" d="M 3.99,-0.11 Q 3.99,-0.11 4.27,15.71 4.55,31.54 4.62,38.27 4.68,45.00 4.61,45.54 4.54,46.08 4.29,46.56 4.05,47.05 3.67,47.44 3.29,47.82 2.80,48.06 2.31,48.31 1.78,48.38 1.24,48.46 0.70,48.35 0.17,48.25 -0.29,47.99 -0.77,47.72 -1.13,47.32 -1.49,46.91 -1.71,46.41 -1.93,45.92 -1.97,45.37 -2.02,44.83 -1.89,44.30 -1.76,43.78 -1.47,43.32 -1.17,42.86 -0.75,42.52 -0.33,42.18 0.17,41.99 0.68,41.80 1.22,41.78 1.77,41.77 2.29,41.93 2.81,42.08 3.25,42.40 3.69,42.72 4.01,43.16 4.33,43.60 4.49,44.12 4.65,44.64 4.64,45.18 4.62,45.72 4.44,46.23 4.25,46.74 3.91,47.17 3.57,47.59 3.11,47.89 2.66,48.18 2.13,48.31 1.60,48.45 1.06,48.40 0.52,48.36 0.02,48.15 -0.47,47.93 -0.88,47.57 -1.28,47.21 -1.55,46.73 -1.82,46.26 -1.92,45.73 -2.03,45.20 -2.03,45.20 -2.03,45.20 -2.36,38.47 -2.69,31.75 -3.34,15.93 -3.99,0.11 -3.95,-0.36 -3.90,-0.84 -3.74,-1.29 -3.59,-1.75 -3.32,-2.15 -3.06,-2.56 -2.71,-2.89 -2.36,-3.22 -1.94,-3.45 -1.52,-3.69 -1.06,-3.82 -0.59,-3.95 -0.11,-3.96 0.36,-3.97 0.83,-3.87 1.30,-3.77 1.73,-3.56 2.17,-3.35 2.54,-3.04 2.91,-2.73 3.19,-2.34 3.48,-1.96 3.66,-1.51 3.85,-1.06 3.92,-0.59 3.99,-0.11 3.99,-0.11 L 3.99,-0.11 Z"></path></g><g transform="translate(443.84361050235617 537.0081411695732) rotate(0 90.25774269365823 8.904368606243423)" stroke="none"><path fill="#1e1e1e" d="M 0.43,-4.03 Q 0.43,-4.03 47.66,1.27 94.88,6.58 116.79,8.89 138.70,11.21 149.85,12.23 161.00,13.26 166.20,13.73 171.40,14.20 173.86,14.15 176.31,14.10 178.11,14.10 179.91,14.10 180.49,14.23 181.07,14.36 181.58,14.67 182.08,14.97 182.47,15.42 182.85,15.88 183.07,16.43 183.29,16.98 183.32,17.57 183.35,18.16 183.19,18.73 183.03,19.30 182.70,19.79 182.36,20.28 181.89,20.64 181.42,21.00 180.86,21.18 180.30,21.37 179.70,21.37 179.11,21.37 178.55,21.18 177.99,20.99 177.52,20.63 177.05,20.27 176.72,19.78 176.38,19.29 176.23,18.72 176.07,18.15 176.10,17.56 176.14,16.97 176.36,16.42 176.58,15.87 176.96,15.42 177.34,14.96 177.85,14.66 178.36,14.36 178.94,14.23 179.52,14.10 180.11,14.17 180.70,14.23 181.23,14.48 181.77,14.73 182.20,15.14 182.63,15.55 182.90,16.07 183.18,16.60 183.28,17.18 183.37,17.77 183.27,18.35 183.18,18.93 182.90,19.46 182.62,19.98 182.19,20.39 181.76,20.79 181.22,21.04 180.68,21.29 180.09,21.35 179.51,21.41 179.51,21.41 179.51,21.41 177.67,21.22 175.84,21.02 173.39,20.63 170.95,20.25 165.71,19.93 160.47,19.61 149.25,18.79 138.03,17.97 116.06,15.93 94.09,13.89 46.82,8.96 -0.43,4.03 -0.91,3.92 -1.39,3.81 -1.82,3.59 -2.26,3.37 -2.63,3.05 -3.00,2.73 -3.28,2.33 -3.57,1.93 -3.75,1.47 -3.93,1.02 -3.99,0.53 -4.06,0.05 -4.00,-0.43 -3.95,-0.92 -3.78,-1.38 -3.62,-1.84 -3.34,-2.24 -3.07,-2.65 -2.71,-2.98 -2.34,-3.31 -1.91,-3.54 -1.48,-3.77 -1.01,-3.90 -0.54,-4.02 -0.05,-4.03 0.43,-4.03 0.43,-4.03 L 0.43,-4.03 Z"></path></g><g transform="translate(501.3171304758948 571.8160798166407) rotate(0 -22.665612205925612 26.308307050322753)" stroke="none"><path fill="#1e1e1e" d="M 0,4.50 Q 0,4.50 -3.25,4.48 -6.51,4.47 -9.99,4.41 -13.47,4.35 -17.87,4.35 -22.28,4.36 -24.71,4.79 -27.15,5.23 -28.57,6.93 -29.99,8.63 -32.07,12.79 -34.15,16.96 -35.18,19.90 -36.21,22.84 -36.84,25.74 -37.47,28.64 -38.23,31.70 -39.00,34.76 -39.49,37.53 -39.99,40.29 -40.07,43.68 -40.15,47.07 -40.10,49.71 -40.05,52.34 -40.20,53.18 -40.35,54.02 -40.76,54.77 -41.17,55.52 -41.79,56.09 -42.42,56.67 -43.20,57.02 -43.98,57.37 -44.83,57.45 -45.68,57.53 -46.51,57.33 -47.34,57.14 -48.07,56.69 -48.79,56.24 -49.34,55.58 -49.88,54.92 -50.18,54.12 -50.49,53.33 -50.52,52.47 -50.56,51.62 -50.32,50.80 -50.08,49.98 -49.59,49.28 -49.10,48.58 -48.41,48.08 -47.73,47.57 -46.91,47.31 -46.10,47.05 -45.25,47.06 -44.39,47.07 -43.59,47.36 -42.78,47.64 -42.11,48.17 -41.44,48.69 -40.97,49.41 -40.50,50.12 -40.29,50.94 -40.07,51.77 -40.13,52.62 -40.19,53.47 -40.51,54.26 -40.84,55.05 -41.40,55.69 -41.96,56.33 -42.70,56.76 -43.44,57.19 -44.27,57.37 -45.11,57.54 -45.96,57.43 -46.80,57.33 -47.57,56.96 -48.34,56.59 -48.95,55.99 -49.57,55.40 -49.95,54.64 -50.34,53.88 -50.47,53.03 -50.60,52.19 -50.60,52.19 -50.60,52.19 -50.40,49.35 -50.20,46.50 -49.61,42.53 -49.02,38.57 -48.42,35.55 -47.81,32.53 -47.06,29.64 -46.32,26.75 -45.59,23.32 -44.86,19.89 -43.79,16.69 -42.72,13.48 -39.96,8.07 -37.19,2.66 -34.94,0.51 -32.69,-1.64 -30.47,-2.31 -28.25,-2.98 -25.47,-3.20 -22.68,-3.42 -18.08,-3.89 -13.47,-4.35 -9.99,-4.41 -6.51,-4.47 -3.25,-4.48 0,-4.50 0.53,-4.44 1.07,-4.37 1.58,-4.18 2.09,-3.99 2.54,-3.68 2.98,-3.37 3.35,-2.96 3.71,-2.56 3.96,-2.07 4.21,-1.59 4.34,-1.07 4.47,-0.54 4.47,0.00 4.47,0.54 4.34,1.07 4.21,1.59 3.96,2.08 3.71,2.56 3.35,2.96 2.98,3.37 2.54,3.68 2.09,3.99 1.58,4.18 1.07,4.37 0.53,4.44 -0.00,4.50 -0.00,4.50 L 0,4.50 Z"></path></g><g transform="translate(440.6056526674577 607.4334924827056) rotate(0 17.403969323533744 1.6189480379947554)" stroke="none"><path fill="#1e1e1e" d="M 0.48,-4.32 Q 0.48,-4.32 8.83,-3.16 17.18,-2.01 21.84,-1.45 26.50,-0.89 28.74,-0.90 30.97,-0.91 32.64,-0.89 34.30,-0.88 34.95,-0.73 35.59,-0.58 36.16,-0.24 36.72,0.09 37.14,0.60 37.57,1.11 37.81,1.72 38.05,2.33 38.08,2.99 38.11,3.65 37.93,4.29 37.75,4.92 37.38,5.47 37.00,6.01 36.48,6.41 35.95,6.81 35.32,7.01 34.69,7.22 34.03,7.22 33.37,7.21 32.75,7.00 32.12,6.78 31.60,6.38 31.08,5.98 30.71,5.43 30.34,4.88 30.17,4.24 30.00,3.60 30.04,2.94 30.08,2.29 30.33,1.67 30.57,1.06 31.00,0.56 31.44,0.06 32.00,-0.27 32.57,-0.60 33.22,-0.74 33.86,-0.88 34.52,-0.80 35.18,-0.73 35.77,-0.45 36.37,-0.17 36.85,0.28 37.32,0.74 37.63,1.32 37.93,1.91 38.04,2.56 38.14,3.21 38.03,3.86 37.92,4.52 37.61,5.10 37.29,5.68 36.81,6.13 36.33,6.58 35.73,6.85 35.13,7.13 34.47,7.19 33.81,7.26 33.81,7.26 33.81,7.26 32.10,7.08 30.39,6.89 28.15,6.54 25.90,6.19 21.11,5.96 16.32,5.73 7.92,5.03 -0.48,4.32 -0.99,4.20 -1.50,4.08 -1.96,3.84 -2.43,3.60 -2.83,3.26 -3.22,2.91 -3.53,2.49 -3.83,2.06 -4.02,1.57 -4.21,1.08 -4.28,0.56 -4.35,0.04 -4.29,-0.47 -4.23,-0.99 -4.05,-1.49 -3.87,-1.98 -3.58,-2.41 -3.28,-2.85 -2.89,-3.20 -2.50,-3.55 -2.04,-3.80 -1.58,-4.05 -1.07,-4.18 -0.56,-4.31 -0.04,-4.32 0.48,-4.32 0.48,-4.32 L 0.48,-4.32 Z"></path></g><g transform="translate(501.3171304758948 617.1473042284917) rotate(0 16.189727415583206 2.428452936446604)" stroke="none"><path fill="#1e1e1e" d="M 0.77,-4.64 Q 0.77,-4.64 6.31,-3.44 11.85,-2.24 15.60,-1.52 19.36,-0.79 21.97,-0.40 24.59,-0.02 26.85,0.00 29.11,0.03 30.64,0.06 32.17,0.08 32.93,0.22 33.69,0.36 34.36,0.73 35.04,1.10 35.56,1.67 36.08,2.24 36.40,2.94 36.71,3.64 36.78,4.41 36.85,5.18 36.67,5.93 36.50,6.68 36.09,7.34 35.68,7.99 35.08,8.48 34.49,8.97 33.77,9.24 33.05,9.52 32.28,9.55 31.51,9.58 30.77,9.36 30.03,9.14 29.40,8.70 28.76,8.26 28.31,7.63 27.85,7.01 27.62,6.28 27.38,5.54 27.39,4.77 27.41,4.00 27.66,3.28 27.92,2.55 28.40,1.94 28.87,1.34 29.52,0.91 30.16,0.49 30.91,0.30 31.66,0.10 32.43,0.16 33.20,0.21 33.91,0.51 34.62,0.80 35.20,1.31 35.78,1.82 36.17,2.49 36.55,3.15 36.71,3.91 36.86,4.67 36.76,5.43 36.67,6.20 36.33,6.89 36.00,7.58 35.46,8.14 34.92,8.69 34.23,9.04 33.55,9.39 32.78,9.50 32.02,9.61 32.02,9.61 32.02,9.61 30.09,9.51 28.16,9.41 25.56,8.83 22.96,8.25 20.50,7.64 18.05,7.03 14.27,6.50 10.48,5.96 4.85,5.30 -0.77,4.64 -1.31,4.48 -1.86,4.32 -2.35,4.03 -2.84,3.74 -3.24,3.35 -3.65,2.96 -3.95,2.47 -4.25,1.99 -4.43,1.46 -4.61,0.92 -4.65,0.35 -4.69,-0.20 -4.60,-0.76 -4.51,-1.32 -4.28,-1.84 -4.06,-2.36 -3.72,-2.82 -3.37,-3.27 -2.93,-3.62 -2.49,-3.98 -1.98,-4.22 -1.47,-4.46 -0.91,-4.57 -0.35,-4.69 0.20,-4.66 0.77,-4.64 0.77,-4.64 L 0.77,-4.64 Z"></path></g><g transform="translate(581.4562935348135 599.3386287749138) rotate(0 -15.380222517131386 27.522518078818848)" stroke="none"><path fill="#1e1e1e" d="M 1.20,4.32 Q 1.20,4.32 -2.98,5.22 -7.17,6.11 -11.42,9.60 -15.66,13.09 -18.59,15.95 -21.51,18.80 -23.89,21.34 -26.28,23.87 -27.73,26.18 -29.18,28.49 -30.67,31.28 -32.15,34.07 -31.28,36.04 -30.40,38.01 -28.26,38.67 -26.11,39.32 -23.20,37.31 -20.29,35.30 -18.21,34.36 -16.13,33.43 -14.82,31.04 -13.50,28.65 -12.98,26.49 -12.45,24.32 -11.65,21.67 -10.85,19.03 -10.31,16.59 -9.76,14.16 -9.27,11.68 -8.79,9.19 -8.65,7.87 -8.51,6.55 -8.30,5.87 -8.09,5.19 -7.72,4.59 -7.36,3.98 -6.86,3.47 -6.36,2.97 -5.75,2.60 -5.14,2.23 -4.47,2.02 -3.79,1.81 -3.08,1.76 -2.37,1.72 -1.67,1.84 -0.97,1.97 -0.32,2.26 0.31,2.55 0.87,2.99 1.43,3.42 1.87,3.98 2.31,4.54 2.61,5.19 2.90,5.83 3.03,6.53 3.16,7.23 3.12,7.94 3.08,8.65 3.69,11.03 4.30,13.42 4.79,17.00 5.28,20.58 6.13,25.05 6.99,29.51 7.46,32.17 7.93,34.82 8.67,37.60 9.41,40.37 10.32,43.32 11.24,46.28 12.16,49.82 13.08,53.35 13.12,54.33 13.17,55.30 12.91,56.24 12.64,57.17 12.09,57.98 11.54,58.78 10.76,59.37 9.98,59.95 9.05,60.26 8.13,60.56 7.16,60.56 6.18,60.55 5.26,60.23 4.34,59.92 3.57,59.32 2.79,58.73 2.25,57.92 1.71,57.11 1.46,56.17 1.20,55.23 1.26,54.26 1.32,53.29 1.68,52.38 2.05,51.48 2.68,50.74 3.32,50.00 4.16,49.51 4.99,49.01 5.95,48.81 6.90,48.60 7.87,48.71 8.83,48.82 9.72,49.24 10.60,49.65 11.30,50.33 12.00,51.00 12.46,51.86 12.91,52.73 13.06,53.69 13.21,54.65 13.05,55.61 12.88,56.57 12.42,57.43 11.96,58.29 11.25,58.95 10.54,59.62 9.65,60.02 8.77,60.43 7.80,60.53 6.83,60.63 5.88,60.41 4.93,60.20 4.10,59.69 3.26,59.18 2.64,58.43 2.01,57.69 1.66,56.78 1.30,55.87 1.30,55.87 1.30,55.88 0.62,52.68 -0.05,49.48 -0.96,45.98 -1.87,42.48 -2.37,39.66 -2.88,36.84 -3.37,34.31 -3.86,31.78 -4.75,27.25 -5.64,22.71 -6.49,19.44 -7.34,16.17 -7.89,13.57 -8.44,10.97 -8.48,8.76 -8.51,6.55 -8.30,5.87 -8.09,5.20 -7.72,4.59 -7.36,3.98 -6.86,3.47 -6.36,2.97 -5.75,2.60 -5.14,2.23 -4.47,2.02 -3.79,1.81 -3.08,1.76 -2.37,1.72 -1.67,1.84 -0.97,1.97 -0.32,2.26 0.31,2.55 0.87,2.99 1.43,3.42 1.87,3.98 2.31,4.54 2.61,5.18 2.90,5.83 3.03,6.53 3.16,7.23 3.12,7.94 3.08,8.65 2.83,9.95 2.58,11.25 2.15,13.84 1.72,16.43 1.20,19.36 0.69,22.29 0.09,24.60 -0.50,26.91 -1.09,29.84 -1.67,32.77 -3.03,35.99 -4.39,39.22 -6.21,40.96 -8.02,42.69 -10.92,44.13 -13.83,45.56 -15.79,46.78 -17.76,48.00 -20.04,49.05 -22.32,50.11 -25.00,50.54 -27.67,50.98 -30.26,50.22 -32.85,49.45 -35.75,47.68 -38.66,45.90 -40.68,42.75 -42.70,39.61 -42.52,37.09 -42.35,34.57 -41.03,32.07 -39.72,29.56 -37.51,26.86 -35.31,24.16 -33.30,21.57 -31.29,18.98 -28.82,16.56 -26.35,14.14 -23.33,10.82 -20.31,7.50 -14.94,3.02 -9.57,-1.45 -5.39,-2.89 -1.20,-4.32 -0.66,-4.40 -0.13,-4.48 0.40,-4.43 0.94,-4.38 1.45,-4.21 1.96,-4.03 2.42,-3.74 2.87,-3.44 3.24,-3.05 3.61,-2.65 3.88,-2.18 4.15,-1.71 4.29,-1.19 4.44,-0.67 4.45,-0.13 4.47,0.41 4.35,0.93 4.24,1.46 4.00,1.95 3.76,2.44 3.42,2.85 3.07,3.27 2.63,3.59 2.20,3.91 1.70,4.12 1.20,4.32 1.20,4.32 L 1.20,4.32 Z"></path></g><g transform="translate(715.8310187323725 513.5330549446502) rotate(0 27.117781069320074 26.308307050322725)" stroke="none"><path fill="#1e1e1e" d="M -0.56,-3.79 Q -0.56,-3.79 4.10,-4.33 8.78,-4.87 16.21,-5.52 23.63,-6.17 30.09,-6.41 36.56,-6.66 40.23,-6.86 43.90,-7.07 47.16,-6.52 50.41,-5.96 52.82,-1.85 55.22,2.25 53.27,4.75 51.32,7.25 44.99,10.85 38.65,14.45 34.87,16.12 31.08,17.79 24.29,20.28 17.49,22.77 14.89,24.11 12.29,25.45 12.27,30.37 12.25,35.29 12.31,39.59 12.36,43.89 12.56,46.85 12.75,49.80 12.85,51.41 12.94,53.03 13.43,53.54 13.91,54.05 14.21,54.69 14.50,55.33 14.58,56.03 14.66,56.73 14.51,57.42 14.35,58.11 13.99,58.71 13.63,59.32 13.09,59.77 12.55,60.23 11.90,60.49 11.25,60.75 10.54,60.79 9.84,60.83 9.16,60.64 8.48,60.45 7.90,60.06 7.31,59.66 6.89,59.10 6.46,58.54 6.24,57.87 6.01,57.21 6.01,56.50 6.01,55.80 6.24,55.13 6.46,54.46 6.89,53.90 7.31,53.34 7.90,52.94 8.48,52.55 9.16,52.36 9.84,52.17 10.54,52.21 11.24,52.25 11.90,52.51 12.55,52.77 13.09,53.22 13.63,53.68 13.99,54.28 14.35,54.89 14.51,55.57 14.66,56.26 14.58,56.96 14.50,57.66 14.21,58.30 13.91,58.94 13.43,59.45 12.94,59.97 12.32,60.30 11.70,60.63 11.00,60.74 10.31,60.85 9.61,60.74 8.92,60.63 8.30,60.30 7.67,59.97 7.67,59.97 7.67,59.97 6.23,55.00 4.79,50.04 4.81,47.15 4.83,44.27 4.48,40.31 4.12,36.35 3.64,31.83 3.15,27.30 4.14,25.11 5.13,22.92 7.07,21.06 9.01,19.20 12.06,17.90 15.11,16.59 21.61,13.96 28.11,11.32 31.52,9.69 34.93,8.05 41.67,4.44 48.42,0.83 46.25,0.11 44.08,-0.61 40.48,-0.54 36.87,-0.47 30.59,-0.07 24.30,0.33 17.06,1.20 9.83,2.07 5.19,2.93 0.56,3.79 0.10,3.80 -0.35,3.82 -0.80,3.72 -1.25,3.62 -1.67,3.42 -2.09,3.21 -2.44,2.92 -2.80,2.62 -3.07,2.25 -3.34,1.87 -3.52,1.45 -3.69,1.02 -3.76,0.56 -3.83,0.10 -3.79,-0.35 -3.75,-0.81 -3.59,-1.25 -3.44,-1.68 -3.19,-2.07 -2.94,-2.46 -2.60,-2.78 -2.26,-3.09 -1.86,-3.32 -1.46,-3.54 -1.01,-3.67 -0.56,-3.79 -0.56,-3.79 L -0.56,-3.79 Z"></path></g><g transform="translate(726.3543662560652 570.1971008991915) rotate(0 0.00005000000000165983 0.00005000000000165983)" stroke="none"><path fill="#1e1e1e" d="M 3.14,-3.14 Q 3.14,-3.14 3.55,-2.55 3.97,-1.97 4.18,-1.28 4.40,-0.59 4.38,0.11 4.36,0.83 4.11,1.51 3.86,2.18 3.41,2.74 2.96,3.30 2.36,3.69 1.75,4.07 1.05,4.25 0.36,4.42 -0.35,4.36 -1.07,4.30 -1.73,4.02 -2.39,3.74 -2.92,3.26 -3.46,2.78 -3.81,2.15 -4.16,1.53 -4.30,0.82 -4.43,0.11 -4.34,-0.59 -4.24,-1.30 -3.92,-1.94 -3.60,-2.59 -3.09,-3.09 -2.59,-3.60 -1.94,-3.92 -1.30,-4.24 -0.59,-4.34 0.12,-4.43 0.82,-4.30 1.53,-4.16 2.15,-3.81 2.78,-3.46 3.26,-2.92 3.74,-2.39 4.02,-1.73 4.31,-1.07 4.36,-0.35 4.42,0.36 4.25,1.05 4.07,1.75 3.69,2.36 3.30,2.96 2.74,3.41 2.18,3.86 1.51,4.11 0.83,4.36 0.11,4.38 -0.60,4.40 -1.28,4.18 -1.97,3.97 -2.55,3.55 -3.14,3.13 -3.14,3.14 -3.14,3.14 -3.47,2.71 -3.80,2.29 -4.02,1.80 -4.24,1.32 -4.33,0.79 -4.43,0.26 -4.40,-0.26 -4.36,-0.80 -4.20,-1.31 -4.04,-1.82 -3.77,-2.28 -3.49,-2.73 -3.11,-3.11 -2.73,-3.49 -2.28,-3.77 -1.82,-4.05 -1.31,-4.20 -0.80,-4.36 -0.26,-4.40 0.26,-4.43 0.79,-4.33 1.32,-4.24 1.80,-4.02 2.29,-3.80 2.71,-3.47 3.14,-3.14 3.14,-3.14 L 3.14,-3.14 Z"></path></g><g transform="translate(734.4492299638567 595.2911660415637) rotate(0 0.00005000000000165983 0.00005000000000165983)" stroke="none"><path fill="#1e1e1e" d="M 3.14,-3.14 Q 3.14,-3.14 3.55,-2.55 3.97,-1.97 4.18,-1.28 4.40,-0.59 4.38,0.11 4.36,0.83 4.11,1.51 3.86,2.18 3.41,2.74 2.96,3.30 2.36,3.69 1.75,4.07 1.05,4.25 0.36,4.42 -0.35,4.36 -1.07,4.30 -1.73,4.02 -2.39,3.74 -2.92,3.26 -3.46,2.78 -3.81,2.15 -4.16,1.53 -4.30,0.82 -4.43,0.11 -4.34,-0.59 -4.24,-1.30 -3.92,-1.94 -3.60,-2.59 -3.09,-3.09 -2.59,-3.60 -1.94,-3.92 -1.30,-4.24 -0.59,-4.34 0.12,-4.43 0.82,-4.30 1.53,-4.16 2.15,-3.81 2.78,-3.46 3.26,-2.92 3.74,-2.39 4.02,-1.73 4.31,-1.07 4.36,-0.35 4.42,0.36 4.25,1.05 4.07,1.75 3.69,2.36 3.30,2.96 2.74,3.41 2.18,3.86 1.51,4.11 0.83,4.36 0.11,4.38 -0.60,4.40 -1.28,4.18 -1.97,3.97 -2.55,3.55 -3.14,3.13 -3.14,3.14 -3.14,3.14 -3.47,2.71 -3.80,2.29 -4.02,1.80 -4.24,1.32 -4.33,0.79 -4.43,0.26 -4.40,-0.26 -4.36,-0.80 -4.20,-1.31 -4.04,-1.82 -3.77,-2.28 -3.49,-2.73 -3.11,-3.11 -2.73,-3.49 -2.28,-3.77 -1.82,-4.05 -1.31,-4.20 -0.80,-4.36 -0.26,-4.40 0.26,-4.43 0.79,-4.33 1.32,-4.24 1.80,-4.02 2.29,-3.80 2.71,-3.47 3.14,-3.14 3.14,-3.14 L 3.14,-3.14 Z"></path></g><g transform="translate(798.1962816627155 510.0927131652752) rotate(0 24.689359012327998 45.331255291305666)" stroke="none"><path fill="#1e1e1e" d="M -0.41,-4.31 Q -0.41,-4.31 4.49,-4.55 9.40,-4.79 14.54,-5.05 19.68,-5.32 25.36,-5.61 31.05,-5.91 34.45,-6.18 37.85,-6.45 41.31,-5.63 44.77,-4.81 47.25,-3.14 49.73,-1.46 51.10,2.13 52.48,5.74 51.92,9.45 51.36,13.15 49.75,16.30 48.13,19.45 45.91,22.25 43.68,25.05 40.38,27.85 37.08,30.66 34.13,32.55 31.18,34.43 26.81,35.82 22.44,37.21 18.85,37.91 15.26,38.61 12.37,38.79 9.48,38.96 7.83,39.41 6.17,39.85 5.62,39.78 5.08,39.72 4.56,39.53 4.04,39.33 3.58,39.02 3.13,38.71 2.76,38.30 2.39,37.89 2.13,37.40 1.87,36.91 1.74,36.38 1.60,35.84 1.60,35.29 1.60,34.74 1.73,34.20 1.85,33.66 2.11,33.17 2.36,32.68 2.73,32.27 3.09,31.85 3.54,31.53 4.00,31.22 4.51,31.02 5.03,30.82 5.58,30.75 6.12,30.68 8.37,31.92 10.61,33.16 12.41,36.25 14.21,39.34 15.71,47.88 17.20,56.42 18.33,62.29 19.47,68.16 19.92,73.21 20.38,78.25 20.78,81.04 21.19,83.83 20.56,87.31 19.93,90.79 20.57,90.15 21.22,89.50 21.00,89.97 20.79,90.44 20.46,90.85 20.14,91.26 19.73,91.58 19.32,91.89 18.85,92.10 18.37,92.31 17.86,92.41 17.35,92.50 16.83,92.46 16.32,92.43 15.82,92.27 15.33,92.12 14.88,91.85 14.44,91.57 14.08,91.21 13.71,90.84 13.45,90.39 13.18,89.95 13.03,89.45 12.87,88.95 12.85,88.44 12.82,87.92 12.91,87.41 13.01,86.90 13.79,84.68 14.58,82.46 16.77,81.32 18.95,80.18 21.65,80.11 24.34,80.05 26.47,81.22 28.59,82.39 30.20,84.70 31.80,87.01 31.87,90.05 31.93,93.08 30.84,95.04 29.75,97.00 27.09,98.31 24.43,99.62 20.81,99.34 17.19,99.06 14.81,97.08 12.44,95.10 11.94,92.71 11.44,90.32 13.51,86.40 15.58,82.48 20.34,81.78 25.10,81.08 26.99,83.08 28.88,85.08 29.16,87.26 29.43,89.44 28.36,91.65 27.29,93.86 25.31,95.73 23.33,97.60 20.34,99.13 17.35,100.66 15.23,100.44 13.12,100.21 9.77,97.94 6.41,95.67 5.92,94.63 5.44,93.59 5.30,92.45 5.17,91.31 5.41,90.19 5.65,89.06 6.24,88.08 6.82,87.09 7.70,86.34 8.57,85.59 9.63,85.16 10.69,84.73 11.84,84.66 12.99,84.59 14.09,84.89 15.20,85.19 16.16,85.83 17.11,86.47 17.81,87.38 18.51,88.29 18.88,89.37 19.26,90.46 19.26,91.61 19.27,92.75 18.91,93.84 18.55,94.93 17.86,95.85 17.17,96.77 16.23,97.42 15.28,98.07 14.18,98.38 13.07,98.70 11.93,98.64 10.78,98.59 9.71,98.17 8.64,97.75 7.76,97.01 6.88,96.28 6.28,95.29 5.69,94.31 5.43,93.20 5.18,92.08 5.30,90.93 5.41,89.79 5.89,88.75 6.36,87.70 7.15,86.86 7.93,86.02 8.94,85.48 9.96,84.94 11.09,84.74 12.22,84.55 13.35,84.73 14.49,84.91 15.51,85.44 16.52,85.97 17.32,86.80 18.11,87.63 18.11,87.63 18.11,87.63 17.16,86.75 16.20,85.86 17.99,88.51 19.78,91.16 21.94,91.96 24.09,92.76 22.66,91.13 21.22,89.50 21.00,89.97 20.79,90.44 20.46,90.85 20.14,91.26 19.73,91.57 19.32,91.89 18.85,92.10 18.37,92.31 17.86,92.41 17.35,92.50 16.84,92.46 16.32,92.43 15.82,92.27 15.33,92.12 14.88,91.85 14.44,91.58 14.08,91.21 13.71,90.84 13.45,90.39 13.18,89.95 13.03,89.45 12.87,88.95 12.85,88.44 12.82,87.92 12.91,87.41 13.01,86.90 13.35,85.70 13.70,84.49 13.62,81.78 13.53,79.06 12.85,74.45 12.16,69.83 10.60,63.92 9.04,58.01 7.61,48.93 6.17,39.85 5.62,39.78 5.08,39.72 4.56,39.53 4.04,39.33 3.58,39.02 3.13,38.71 2.76,38.30 2.39,37.89 2.13,37.40 1.87,36.91 1.74,36.38 1.60,35.84 1.60,35.29 1.60,34.74 1.73,34.20 1.85,33.66 2.11,33.17 2.36,32.68 2.73,32.27 3.09,31.85 3.54,31.53 4.00,31.22 4.51,31.02 5.03,30.82 5.58,30.75 6.12,30.68 7.77,30.64 9.42,30.59 11.66,30.73 13.90,30.88 16.90,30.40 19.89,29.93 23.36,28.56 26.83,27.18 29.17,25.85 31.52,24.52 34.11,21.96 36.71,19.40 38.49,17.22 40.28,15.04 42.23,11.26 44.18,7.48 43.30,4.88 42.42,2.28 40.25,1.39 38.08,0.50 34.81,0.58 31.54,0.66 25.90,1.20 20.27,1.74 15.21,2.33 10.14,2.93 5.27,3.62 0.41,4.31 -0.11,4.29 -0.63,4.28 -1.13,4.14 -1.64,4.01 -2.09,3.75 -2.55,3.50 -2.93,3.14 -3.31,2.78 -3.60,2.35 -3.88,1.91 -4.06,1.42 -4.23,0.92 -4.28,0.40 -4.33,-0.11 -4.25,-0.62 -4.17,-1.14 -3.98,-1.62 -3.78,-2.11 -3.47,-2.53 -3.16,-2.95 -2.76,-3.29 -2.36,-3.62 -1.89,-3.85 -1.43,-4.08 -0.92,-4.20 -0.41,-4.31 -0.41,-4.31 L -0.41,-4.31 Z"></path></g><g transform="translate(467.11634366225684 1050.2225125953432) rotate(0 43.7122763738565 -57.87827242276455)" stroke="none"><path fill="#1e1e1e" d="M -2.98,-2.09 Q -2.98,-2.09 1.55,-8.30 6.08,-14.50 11.85,-21.18 17.62,-27.86 23.53,-35.03 29.44,-42.20 33.82,-47.77 38.20,-53.35 41.67,-58.23 45.15,-63.11 48.74,-68.22 52.33,-73.33 54.20,-76.28 56.07,-79.23 58.30,-82.37 60.53,-85.51 62.55,-88.72 64.56,-91.94 66.30,-94.17 68.04,-96.41 70.74,-98.45 73.45,-100.50 74.74,-102.96 76.04,-105.42 77.27,-107.29 78.51,-109.16 79.83,-111.79 81.15,-114.43 81.30,-115.31 81.44,-116.20 81.72,-117.13 81.99,-118.06 82.55,-118.85 83.10,-119.64 83.89,-120.22 84.67,-120.79 85.59,-121.08 86.51,-121.38 87.48,-121.36 88.45,-121.34 89.36,-121.02 90.27,-120.70 91.04,-120.10 91.80,-119.50 92.33,-118.69 92.86,-117.88 93.10,-116.94 93.34,-116.00 93.28,-115.04 93.21,-114.07 92.83,-113.18 92.46,-112.28 91.82,-111.55 91.18,-110.83 90.34,-110.34 89.50,-109.86 88.56,-109.66 87.61,-109.47 86.65,-109.59 85.68,-109.71 84.81,-110.13 83.94,-110.56 83.25,-111.23 82.56,-111.91 82.12,-112.77 81.68,-113.64 81.54,-114.60 81.40,-115.55 81.57,-116.51 81.74,-117.46 82.21,-118.31 82.68,-119.16 83.39,-119.81 84.11,-120.46 84.99,-120.86 85.88,-121.25 86.84,-121.34 87.81,-121.43 88.75,-121.20 89.69,-120.98 90.51,-120.46 91.33,-119.95 91.95,-119.20 92.56,-118.45 92.91,-117.55 93.25,-116.64 93.29,-115.67 93.32,-114.71 93.32,-114.71 93.32,-114.71 91.63,-110.41 89.94,-106.12 87.88,-102.85 85.83,-99.58 84.50,-97.44 83.17,-95.30 80.19,-93.61 77.20,-91.92 74.63,-90.20 72.06,-88.49 70.23,-86.86 68.39,-85.23 67.00,-83.53 65.60,-81.83 63.34,-78.80 61.09,-75.77 58.99,-72.96 56.89,-70.15 53.34,-65.00 49.79,-59.85 46.30,-54.81 42.81,-49.78 38.47,-44.09 34.13,-38.39 28.30,-31.08 22.46,-23.77 17.03,-17.20 11.59,-10.62 7.29,-4.26 2.98,2.09 2.68,2.42 2.39,2.75 2.02,2.99 1.66,3.24 1.25,3.39 0.84,3.54 0.40,3.59 -0.03,3.64 -0.46,3.58 -0.90,3.53 -1.31,3.37 -1.72,3.21 -2.08,2.95 -2.44,2.70 -2.73,2.37 -3.01,2.04 -3.22,1.65 -3.42,1.26 -3.52,0.83 -3.62,0.40 -3.61,-0.03 -3.61,-0.47 -3.50,-0.89 -3.39,-1.32 -3.18,-1.71 -2.98,-2.09 -2.98,-2.09 L -2.98,-2.09 Z"></path></g><g stroke-linecap="round"><g transform="translate(10.876513318233151 902.2075501167928) rotate(0 142.0648827753064 -54.64034546732063)"><path d="M0.38 0.31 C47.83 -3.77, 269.62 -5.11, 283.7 -23.51 C297.77 -41.91, 118.01 -95.63, 84.86 -110.08 M-0.88 -0.57 C46.46 -4.54, 267.83 -3.89, 282.52 -21.99 C297.21 -40.09, 120.26 -94.58, 87.26 -109.19" stroke="#1e1e1e" stroke-width="2" fill="none"></path></g><g transform="translate(10.876513318233151 902.2075501167928) rotate(0 142.0648827753064 -54.64034546732063)"><path d="M112.26 -109.11 C107.29 -109.77, 101.25 -110.64, 87.26 -109.19 M112.26 -109.11 C106.19 -109.92, 101.13 -110.29, 87.26 -109.19" stroke="#1e1e1e" stroke-width="2" fill="none"></path></g><g transform="translate(10.876513318233151 902.2075501167928) rotate(0 142.0648827753064 -54.64034546732063)"><path d="M106.36 -93.06 C102.56 -97.26, 97.8 -101.64, 87.26 -109.19 M106.36 -93.06 C101.8 -97.56, 98.12 -101.68, 87.26 -109.19" stroke="#1e1e1e" stroke-width="2" fill="none"></path></g></g><mask></mask><g transform="translate(1189.5597179112456 728.7370289884705) rotate(0 6.518675855332333 40.25399525355442)" stroke="none"><path fill="#1e1e1e" d="M 3.57,-0.91 Q 3.57,-0.91 4.56,3.49 5.54,7.91 6.70,15.24 7.85,22.57 9.79,33.11 11.73,43.65 12.92,51.96 14.10,60.27 14.60,66.05 15.09,71.83 15.55,74.23 16.00,76.62 15.96,77.16 15.93,77.69 15.72,78.19 15.51,78.68 15.16,79.08 14.81,79.49 14.34,79.76 13.88,80.03 13.35,80.13 12.83,80.24 12.30,80.17 11.76,80.11 11.28,79.87 10.80,79.64 10.42,79.26 10.03,78.89 9.79,78.41 9.55,77.93 9.47,77.40 9.39,76.87 9.49,76.34 9.58,75.82 9.84,75.35 10.10,74.88 10.49,74.52 10.89,74.15 11.38,73.94 11.87,73.72 12.40,73.67 12.94,73.62 13.46,73.75 13.98,73.87 14.44,74.15 14.89,74.44 15.23,74.85 15.57,75.27 15.76,75.77 15.95,76.27 15.97,76.80 15.99,77.34 15.84,77.85 15.69,78.37 15.38,78.81 15.07,79.25 14.64,79.56 14.21,79.88 13.70,80.04 13.18,80.21 12.65,80.20 12.11,80.19 11.61,80.01 11.10,79.83 10.68,79.50 10.26,79.17 9.97,78.72 9.67,78.27 9.54,77.75 9.40,77.23 9.40,77.23 9.40,77.23 9.41,74.79 9.42,72.35 8.87,66.74 8.31,61.14 7.03,52.97 5.76,44.80 3.65,34.22 1.55,23.65 0.25,16.62 -1.05,9.60 -2.31,5.26 -3.57,0.91 -3.63,0.47 -3.69,0.03 -3.64,-0.40 -3.59,-0.84 -3.44,-1.26 -3.28,-1.68 -3.03,-2.05 -2.78,-2.42 -2.45,-2.72 -2.12,-3.01 -1.73,-3.22 -1.34,-3.44 -0.91,-3.55 -0.48,-3.66 -0.03,-3.66 0.40,-3.67 0.84,-3.56 1.27,-3.46 1.67,-3.26 2.06,-3.05 2.40,-2.76 2.74,-2.47 2.99,-2.11 3.25,-1.74 3.41,-1.33 3.57,-0.91 3.57,-0.91 L 3.57,-0.91 Z"></path></g><g transform="translate(1096.5706122541617 855.1371452823953) rotate(0 131.67723238429363 -1.08795002393137)" stroke="none"><path fill="#1e1e1e" d="M 0,-3.40 Q 0,-3.40 6.74,-3.29 13.49,-3.19 26.85,-3.11 40.21,-3.03 62.01,-2.98 83.81,-2.92 100.97,-2.57 118.13,-2.21 139.28,-1.74 160.44,-1.26 170.17,-1.05 179.91,-0.84 187.41,-0.74 194.91,-0.65 199.97,-0.60 205.03,-0.56 207.56,-0.79 210.09,-1.02 212.90,-1.38 215.71,-1.75 218.91,-1.80 222.11,-1.85 228.85,-2.59 235.59,-3.32 242.68,-4.20 249.78,-5.09 253.18,-5.60 256.58,-6.12 258.89,-6.90 261.21,-7.69 261.82,-7.76 262.43,-7.82 263.03,-7.69 263.62,-7.55 264.15,-7.23 264.67,-6.92 265.07,-6.45 265.46,-5.98 265.69,-5.41 265.91,-4.84 265.95,-4.22 265.98,-3.61 265.81,-3.02 265.65,-2.43 265.30,-1.92 264.95,-1.42 264.46,-1.05 263.97,-0.68 263.39,-0.48 262.81,-0.29 262.20,-0.29 261.58,-0.29 261.00,-0.49 260.42,-0.69 259.94,-1.06 259.45,-1.44 259.11,-1.94 258.76,-2.45 258.60,-3.04 258.44,-3.64 258.47,-4.25 258.51,-4.86 258.74,-5.43 258.97,-6.00 259.37,-6.47 259.76,-6.93 260.29,-7.25 260.82,-7.56 261.42,-7.69 262.02,-7.82 262.63,-7.75 263.24,-7.68 263.79,-7.42 264.35,-7.17 264.79,-6.74 265.24,-6.32 265.52,-5.78 265.81,-5.23 265.90,-4.63 266.00,-4.02 265.90,-3.42 265.80,-2.81 265.51,-2.27 265.22,-1.73 264.77,-1.31 264.33,-0.89 263.77,-0.63 263.21,-0.38 263.21,-0.38 263.21,-0.38 260.35,0.25 257.49,0.88 254.12,1.23 250.74,1.59 243.65,2.75 236.56,3.92 229.34,5.06 222.11,6.20 218.90,6.15 215.69,6.10 212.87,5.71 210.05,5.32 207.52,5.07 205.00,4.81 199.92,4.78 194.85,4.76 187.33,4.70 179.80,4.63 170.06,4.46 160.32,4.30 139.17,3.88 118.02,3.46 100.92,3.19 83.81,2.92 62.01,2.98 40.21,3.03 26.85,3.11 13.49,3.19 6.74,3.29 0,3.40 -0.40,3.35 -0.81,3.30 -1.19,3.15 -1.58,3.01 -1.91,2.77 -2.25,2.54 -2.52,2.23 -2.79,1.93 -2.98,1.56 -3.18,1.20 -3.27,0.80 -3.37,0.40 -3.37,-0.00 -3.37,-0.41 -3.27,-0.80 -3.17,-1.20 -2.98,-1.56 -2.79,-1.93 -2.52,-2.23 -2.25,-2.54 -1.91,-2.77 -1.58,-3.01 -1.19,-3.15 -0.81,-3.30 -0.40,-3.35 0.00,-3.40 0.00,-3.40 L 0,-3.40 Z"></path></g><g transform="translate(1179.1297967558742 890.8409600266195) rotate(0 -9.778013782998528 36.44619092071548)" stroke="none"><path fill="#1e1e1e" d="M 1.50,3.60 Q 1.50,3.60 -0.61,4.62 -2.72,5.63 -4.99,8.16 -7.26,10.70 -9.02,15.80 -10.77,20.90 -12.04,25.96 -13.31,31.02 -13.87,37.09 -14.43,43.15 -14.70,48.27 -14.98,53.39 -15.40,57.28 -15.81,61.17 -15.79,63.36 -15.76,65.56 -15.62,68.94 -15.48,72.32 -15.60,72.96 -15.73,73.60 -16.06,74.17 -16.38,74.74 -16.87,75.18 -17.36,75.61 -17.97,75.87 -18.57,76.13 -19.22,76.18 -19.88,76.23 -20.51,76.06 -21.15,75.90 -21.70,75.55 -22.25,75.19 -22.66,74.68 -23.07,74.16 -23.29,73.55 -23.51,72.93 -23.53,72.28 -23.54,71.62 -23.35,70.99 -23.15,70.37 -22.76,69.84 -22.38,69.31 -21.84,68.93 -21.31,68.55 -20.68,68.36 -20.05,68.17 -19.40,68.19 -18.74,68.21 -18.13,68.44 -17.52,68.67 -17.01,69.08 -16.50,69.50 -16.15,70.05 -15.80,70.61 -15.64,71.24 -15.49,71.88 -15.54,72.53 -15.60,73.19 -15.86,73.79 -16.13,74.39 -16.57,74.87 -17.01,75.36 -17.58,75.68 -18.15,76.00 -18.80,76.12 -19.44,76.24 -20.09,76.15 -20.74,76.06 -21.32,75.76 -21.91,75.47 -22.37,75.00 -22.83,74.53 -23.12,73.95 -23.41,73.36 -23.49,72.71 -23.58,72.06 -23.58,72.06 -23.58,72.06 -23.17,68.50 -22.76,64.93 -22.33,62.67 -21.91,60.42 -21.39,56.78 -20.87,53.14 -20.71,47.90 -20.55,42.65 -20.09,36.12 -19.62,29.58 -18.48,24.13 -17.34,18.68 -15.19,12.29 -13.04,5.90 -9.65,2.01 -6.26,-1.87 -3.88,-2.74 -1.50,-3.60 -1.05,-3.73 -0.59,-3.86 -0.12,-3.87 0.34,-3.89 0.80,-3.79 1.26,-3.69 1.69,-3.49 2.11,-3.28 2.47,-2.98 2.84,-2.68 3.12,-2.30 3.40,-1.92 3.58,-1.49 3.76,-1.05 3.83,-0.59 3.90,-0.12 3.86,0.34 3.82,0.81 3.67,1.25 3.51,1.70 3.26,2.09 3.01,2.49 2.66,2.81 2.32,3.14 1.91,3.37 1.50,3.60 1.50,3.60 L 1.50,3.60 Z"></path></g><g transform="translate(1146.5364174792123 949.5900538097051) rotate(0 18.904219660723726 1.0879292730106158)" stroke="none"><path fill="#1e1e1e" d="M 0.17,-4.28 Q 0.17,-4.28 7.66,-3.75 15.15,-3.21 20.28,-2.60 25.42,-1.98 28.64,-1.88 31.87,-1.78 34.37,-1.79 36.87,-1.79 37.49,-1.66 38.11,-1.53 38.66,-1.20 39.21,-0.88 39.62,-0.40 40.04,0.07 40.28,0.66 40.52,1.24 40.56,1.88 40.60,2.51 40.43,3.12 40.27,3.74 39.92,4.27 39.57,4.79 39.06,5.18 38.56,5.57 37.96,5.78 37.36,5.99 36.73,5.99 36.09,6.00 35.49,5.80 34.88,5.60 34.38,5.22 33.87,4.84 33.51,4.32 33.15,3.80 32.97,3.19 32.80,2.58 32.83,1.94 32.85,1.31 33.08,0.72 33.31,0.13 33.72,-0.35 34.13,-0.84 34.67,-1.17 35.21,-1.50 35.83,-1.64 36.45,-1.79 37.08,-1.72 37.71,-1.66 38.29,-1.40 38.87,-1.14 39.33,-0.70 39.80,-0.27 40.10,0.28 40.40,0.84 40.51,1.46 40.62,2.09 40.52,2.71 40.42,3.34 40.13,3.91 39.84,4.47 39.38,4.91 38.92,5.35 38.35,5.62 37.77,5.89 37.14,5.97 36.51,6.04 36.51,6.04 36.51,6.04 33.98,5.81 31.45,5.57 28.12,5.30 24.80,5.02 19.81,4.74 14.83,4.47 7.32,4.37 -0.17,4.28 -0.68,4.20 -1.19,4.11 -1.67,3.91 -2.14,3.71 -2.56,3.39 -2.97,3.08 -3.30,2.68 -3.62,2.28 -3.84,1.81 -4.06,1.35 -4.17,0.84 -4.27,0.33 -4.25,-0.17 -4.23,-0.69 -4.08,-1.19 -3.94,-1.68 -3.68,-2.13 -3.42,-2.58 -3.06,-2.95 -2.70,-3.32 -2.26,-3.60 -1.83,-3.87 -1.34,-4.04 -0.85,-4.20 -0.33,-4.24 0.17,-4.28 0.17,-4.28 L 0.17,-4.28 Z"></path></g><g transform="translate(1213.0269907772822 947.4141537618424) rotate(0 15.644782265957758 1.0879500239313415)" stroke="none"><path fill="#1e1e1e" d="M 0.48,-4.38 Q 0.48,-4.38 6.08,-3.52 11.68,-2.66 15.12,-2.40 18.56,-2.13 21.85,-2.05 25.14,-1.96 27.70,-2.00 30.26,-2.05 30.93,-1.92 31.60,-1.79 32.19,-1.46 32.78,-1.12 33.23,-0.62 33.69,-0.11 33.96,0.50 34.22,1.13 34.28,1.80 34.34,2.48 34.17,3.14 34.01,3.80 33.64,4.37 33.28,4.94 32.75,5.37 32.22,5.80 31.58,6.03 30.94,6.26 30.26,6.28 29.58,6.30 28.94,6.10 28.29,5.90 27.73,5.51 27.18,5.11 26.79,4.56 26.39,4.01 26.19,3.36 25.99,2.71 26.01,2.03 26.03,1.35 26.26,0.71 26.49,0.08 26.92,-0.44 27.34,-0.97 27.92,-1.34 28.49,-1.71 29.15,-1.87 29.81,-2.03 30.49,-1.98 31.16,-1.92 31.79,-1.66 32.41,-1.39 32.92,-0.93 33.42,-0.48 33.76,0.10 34.09,0.69 34.22,1.36 34.35,2.03 34.26,2.70 34.16,3.37 33.86,3.98 33.56,4.59 33.08,5.07 32.60,5.55 31.99,5.85 31.38,6.15 30.71,6.25 30.04,6.34 30.04,6.34 30.04,6.34 27.45,6.16 24.87,5.98 21.42,5.84 17.97,5.70 14.39,5.43 10.80,5.16 5.16,4.77 -0.48,4.38 -1.00,4.26 -1.52,4.14 -1.99,3.90 -2.47,3.65 -2.87,3.30 -3.27,2.96 -3.58,2.52 -3.88,2.09 -4.08,1.59 -4.27,1.09 -4.34,0.57 -4.41,0.04 -4.35,-0.48 -4.29,-1.01 -4.11,-1.51 -3.92,-2.01 -3.63,-2.45 -3.33,-2.89 -2.93,-3.25 -2.54,-3.60 -2.07,-3.85 -1.60,-4.11 -1.09,-4.24 -0.57,-4.37 -0.04,-4.38 0.48,-4.38 0.48,-4.38 L 0.48,-4.38 Z"></path></g><g transform="translate(1319.933235017893 940.8864536182542) rotate(0 -14.341066988311127 21.214952838438762)" stroke="none"><path fill="#1e1e1e" d="M 1.90,3.09 Q 1.90,3.09 -5.29,7.35 -12.48,11.61 -18.04,15.80 -23.61,19.98 -29.74,25.17 -35.87,30.35 -39.17,33.72 -42.47,37.09 -44.48,38.87 -46.49,40.65 -43.35,40.63 -40.20,40.61 -35.34,41.50 -30.48,42.39 -27.21,42.40 -23.94,42.41 -20.89,40.27 -17.85,38.13 -13.60,31.29 -9.35,24.44 -5.95,16.86 -2.54,9.27 -1.11,3.69 0.30,-1.87 0.30,-4.46 0.30,-7.05 0.21,-8.56 0.12,-10.08 0.21,-10.51 0.30,-10.94 0.49,-11.33 0.68,-11.73 0.96,-12.07 1.25,-12.40 1.60,-12.67 1.95,-12.93 2.36,-13.10 2.77,-13.26 3.20,-13.33 3.64,-13.40 4.07,-13.36 4.51,-13.32 4.93,-13.18 5.34,-13.03 5.71,-12.79 6.08,-12.56 6.38,-12.24 6.69,-11.92 6.90,-11.53 7.12,-11.15 7.24,-10.73 7.36,-10.30 7.37,-9.86 7.38,-9.42 7.96,-6.18 8.55,-2.95 9.54,1.76 10.54,6.47 11.69,12.59 12.85,18.72 14.40,23.66 15.95,28.59 17.38,33.61 18.81,38.64 19.92,41.96 21.03,45.29 22.24,47.63 23.45,49.97 23.73,50.22 24.01,50.48 24.60,50.72 25.19,50.97 25.67,51.39 26.14,51.81 26.46,52.36 26.78,52.91 26.91,53.54 27.03,54.16 26.95,54.79 26.87,55.42 26.60,56.00 26.32,56.57 25.87,57.03 25.43,57.48 24.86,57.77 24.29,58.06 23.66,58.15 23.03,58.24 22.41,58.13 21.78,58.01 21.22,57.71 20.66,57.40 20.23,56.93 19.80,56.46 19.55,55.88 19.29,55.29 19.23,54.66 19.17,54.02 19.32,53.41 19.47,52.79 19.81,52.25 20.15,51.71 20.64,51.30 21.13,50.90 21.73,50.67 22.32,50.45 22.96,50.42 23.59,50.40 24.20,50.58 24.81,50.76 25.34,51.13 25.86,51.50 26.23,52.01 26.61,52.52 26.80,53.13 26.99,53.74 26.98,54.37 26.97,55.01 26.76,55.61 26.54,56.21 26.15,56.71 25.76,57.21 25.22,57.56 24.69,57.91 24.07,58.07 23.46,58.23 22.82,58.18 22.19,58.13 22.19,58.13 22.19,58.13 19.41,55.83 16.63,53.52 15.89,50.27 15.15,47.02 14.28,43.61 13.41,40.21 11.94,35.28 10.48,30.35 8.75,25.12 7.02,19.89 5.76,13.87 4.49,7.86 3.31,3.13 2.13,-1.58 1.12,-5.83 0.12,-10.08 0.21,-10.51 0.30,-10.94 0.49,-11.33 0.68,-11.73 0.96,-12.07 1.25,-12.40 1.60,-12.67 1.95,-12.93 2.36,-13.09 2.77,-13.26 3.20,-13.33 3.64,-13.40 4.07,-13.36 4.51,-13.32 4.93,-13.18 5.34,-13.03 5.71,-12.79 6.08,-12.56 6.38,-12.24 6.69,-11.92 6.90,-11.53 7.12,-11.15 7.24,-10.73 7.36,-10.30 7.37,-9.86 7.38,-9.42 7.08,-7.95 6.77,-6.47 6.27,-3.48 5.77,-0.50 4.25,5.55 2.74,11.60 -0.77,19.61 -4.29,27.63 -9.27,35.41 -14.26,43.19 -18.82,46.02 -23.39,48.85 -27.45,48.78 -31.50,48.71 -36.83,47.94 -42.16,47.17 -46.47,45.75 -50.77,44.34 -51.06,40.52 -51.35,36.70 -49.01,34.88 -46.66,33.06 -43.23,29.42 -39.81,25.79 -33.64,20.38 -27.47,14.98 -21.74,10.44 -16.00,5.89 -8.95,1.40 -1.90,-3.09 -1.50,-3.27 -1.10,-3.45 -0.67,-3.53 -0.24,-3.62 0.19,-3.59 0.62,-3.57 1.04,-3.44 1.46,-3.32 1.84,-3.09 2.21,-2.87 2.52,-2.56 2.84,-2.25 3.06,-1.88 3.29,-1.51 3.43,-1.09 3.56,-0.68 3.59,-0.24 3.62,0.19 3.54,0.62 3.47,1.05 3.29,1.45 3.12,1.85 2.85,2.20 2.58,2.54 2.24,2.81 1.90,3.09 1.90,3.09 L 1.90,3.09 Z"></path></g><g stroke-linecap="round" transform="translate(1033.1114973832696 675.1556822558683) rotate(0 219.02754852600697 201.81395127973792)"><path d="M290.84 11.02 C309.08 13.43, 326.44 25.3, 342.07 35.22 C357.71 45.15, 372.42 57.39, 384.65 70.58 C396.88 83.76, 407.07 98.92, 415.45 114.35 C423.83 129.77, 431.24 146.31, 434.92 163.13 C438.59 179.94, 438.82 197.73, 437.51 215.24 C436.19 232.75, 433.12 251.55, 427.03 268.21 C420.94 284.86, 411.86 300.81, 400.97 315.19 C390.08 329.57, 376.08 343.03, 361.68 354.48 C347.29 365.93, 331.33 376.27, 314.59 383.9 C297.86 391.53, 279.79 396.96, 261.28 400.24 C242.77 403.52, 222.35 404.85, 203.54 403.58 C184.73 402.31, 166.3 398.4, 148.41 392.62 C130.52 386.83, 112.01 378.66, 96.19 368.87 C80.37 359.08, 65.98 347.13, 53.48 333.86 C40.98 320.59, 29.49 304.91, 21.18 289.24 C12.87 273.56, 7.05 256.75, 3.63 239.81 C0.22 222.86, -0.86 204.75, 0.7 187.56 C2.26 170.37, 6.75 153.02, 12.99 136.67 C19.23 120.32, 27.62 104, 38.14 89.44 C48.66 74.88, 61.86 60.74, 76.1 49.31 C90.34 37.87, 106.69 28.59, 123.58 20.83 C140.48 13.07, 158.85 6.21, 177.49 2.73 C196.13 -0.75, 215.45 -1.73, 235.44 -0.03 C255.42 1.67, 286.46 9.63, 297.38 12.94 C308.3 16.26, 302.21 16.57, 300.95 19.88 M263.88 3.95 C282.33 3.7, 301.4 12.47, 318.29 20.07 C335.17 27.67, 351.24 38.01, 365.19 49.55 C379.13 61.09, 391.7 74.73, 401.95 89.31 C412.2 103.88, 420.55 120.2, 426.7 137 C432.85 153.81, 437.46 172.35, 438.83 190.14 C440.2 207.92, 438.87 226.67, 434.93 243.71 C430.99 260.75, 423.97 276.8, 415.18 292.36 C406.38 307.91, 394.5 324.24, 382.14 337.04 C369.79 349.85, 356.49 359.97, 341.03 369.19 C325.56 378.4, 307.51 386.66, 289.35 392.31 C271.19 397.96, 251.27 401.66, 232.07 403.11 C212.87 404.55, 192.73 404.66, 174.17 400.98 C155.61 397.29, 137.68 389.1, 120.74 380.99 C103.8 372.87, 86.81 363.63, 72.52 352.29 C58.23 340.95, 45.25 327.46, 35 312.95 C24.75 298.44, 16.69 281.66, 11.01 265.23 C5.32 248.8, 2.02 231.45, 0.87 214.35 C-0.27 197.26, 0.48 179.83, 4.14 162.67 C7.8 145.5, 14.48 127.36, 22.85 111.35 C31.21 95.33, 41.86 79.76, 54.36 66.58 C66.85 53.39, 81.85 41.64, 97.79 32.23 C113.73 22.81, 131.95 15.19, 150.01 10.09 C168.06 4.99, 187.52 2.42, 206.11 1.61 C224.69 0.8, 252.43 4.17, 261.52 5.25 C270.62 6.32, 261.12 5.18, 260.68 8.05" stroke="#1e1e1e" stroke-width="2" fill="none"></path></g></svg>