<?xml version="1.0" encoding="UTF-8"?>
<svg xmlns="http://www.w3.org/2000/svg" xmlns:xlink="http://www.w3.org/1999/xlink" width="92.057pt" height="49.687pt" viewBox="0 0 92.057 49.687" version="1.1">
<defs>
<g>
<symbol overflow="visible" id="glyph0-0">
<path style="stroke:none;" d=""/>
</symbol>
<symbol overflow="visible" id="glyph0-1">
<path style="stroke:none;" d="M 3.734375 -6.046875 C 3.8125 -6.40625 3.84375 -6.5 4.640625 -6.5 C 4.875 -6.5 4.953125 -6.5 4.953125 -6.6875 C 4.953125 -6.8125 4.84375 -6.8125 4.8125 -6.8125 C 4.515625 -6.8125 3.78125 -6.78125 3.484375 -6.78125 C 3.1875 -6.78125 2.46875 -6.8125 2.15625 -6.8125 C 2.09375 -6.8125 1.96875 -6.8125 1.96875 -6.609375 C 1.96875 -6.5 2.046875 -6.5 2.25 -6.5 C 2.65625 -6.5 2.9375 -6.5 2.9375 -6.3125 C 2.9375 -6.265625 2.9375 -6.234375 2.90625 -6.15625 L 1.5625 -0.78125 C 1.46875 -0.40625 1.453125 -0.3125 0.65625 -0.3125 C 0.421875 -0.3125 0.34375 -0.3125 0.34375 -0.109375 C 0.34375 0 0.453125 0 0.484375 0 C 0.78125 0 1.5 -0.03125 1.796875 -0.03125 C 2.09375 -0.03125 2.828125 0 3.125 0 C 3.203125 0 3.328125 0 3.328125 -0.1875 C 3.328125 -0.3125 3.25 -0.3125 3.03125 -0.3125 C 2.84375 -0.3125 2.796875 -0.3125 2.609375 -0.328125 C 2.390625 -0.34375 2.359375 -0.390625 2.359375 -0.5 C 2.359375 -0.578125 2.375 -0.65625 2.390625 -0.734375 Z M 3.734375 -6.046875 "/>
</symbol>
<symbol overflow="visible" id="glyph0-2">
<path style="stroke:none;" d="M 6.4375 -6.921875 C 6.4375 -6.953125 6.40625 -7.03125 6.3125 -7.03125 C 6.265625 -7.03125 6.265625 -7.015625 6.140625 -6.875 L 5.65625 -6.3125 C 5.40625 -6.78125 4.890625 -7.03125 4.234375 -7.03125 C 2.96875 -7.03125 1.78125 -5.875 1.78125 -4.671875 C 1.78125 -3.875 2.296875 -3.40625 2.8125 -3.265625 L 3.875 -2.984375 C 4.25 -2.890625 4.796875 -2.734375 4.796875 -1.921875 C 4.796875 -1.03125 3.984375 -0.09375 3 -0.09375 C 2.359375 -0.09375 1.25 -0.3125 1.25 -1.546875 C 1.25 -1.78125 1.3125 -2.03125 1.3125 -2.078125 C 1.328125 -2.125 1.328125 -2.140625 1.328125 -2.15625 C 1.328125 -2.25 1.265625 -2.265625 1.21875 -2.265625 C 1.171875 -2.265625 1.140625 -2.25 1.109375 -2.21875 C 1.078125 -2.1875 0.515625 0.09375 0.515625 0.125 C 0.515625 0.171875 0.5625 0.21875 0.625 0.21875 C 0.671875 0.21875 0.6875 0.203125 0.8125 0.0625 L 1.296875 -0.5 C 1.71875 0.078125 2.40625 0.21875 2.984375 0.21875 C 4.34375 0.21875 5.515625 -1.109375 5.515625 -2.34375 C 5.515625 -3.03125 5.171875 -3.375 5.03125 -3.515625 C 4.796875 -3.734375 4.640625 -3.78125 3.765625 -4 C 3.53125 -4.0625 3.1875 -4.171875 3.09375 -4.1875 C 2.828125 -4.28125 2.484375 -4.5625 2.484375 -5.09375 C 2.484375 -5.90625 3.28125 -6.75 4.234375 -6.75 C 5.046875 -6.75 5.65625 -6.3125 5.65625 -5.203125 C 5.65625 -4.890625 5.625 -4.703125 5.625 -4.640625 C 5.625 -4.640625 5.625 -4.546875 5.734375 -4.546875 C 5.84375 -4.546875 5.859375 -4.578125 5.890625 -4.75 Z M 6.4375 -6.921875 "/>
</symbol>
<symbol overflow="visible" id="glyph0-3">
<path style="stroke:none;" d="M 4.828125 -4.09375 L 4 -6.078125 C 3.96875 -6.15625 3.953125 -6.203125 3.953125 -6.203125 C 3.953125 -6.265625 4.109375 -6.453125 4.53125 -6.5 C 4.640625 -6.515625 4.734375 -6.515625 4.734375 -6.6875 C 4.734375 -6.8125 4.609375 -6.8125 4.578125 -6.8125 C 4.171875 -6.8125 3.75 -6.78125 3.328125 -6.78125 C 3.078125 -6.78125 2.46875 -6.8125 2.21875 -6.8125 C 2.15625 -6.8125 2.03125 -6.8125 2.03125 -6.609375 C 2.03125 -6.5 2.140625 -6.5 2.265625 -6.5 C 2.859375 -6.5 2.921875 -6.40625 3.015625 -6.1875 L 4.1875 -3.40625 L 2.078125 -1.140625 L 1.953125 -1.03125 C 1.46875 -0.5 1 -0.34375 0.484375 -0.3125 C 0.359375 -0.296875 0.265625 -0.296875 0.265625 -0.109375 C 0.265625 -0.09375 0.265625 0 0.40625 0 C 0.703125 0 1.03125 -0.03125 1.328125 -0.03125 C 1.703125 -0.03125 2.09375 0 2.453125 0 C 2.515625 0 2.625 0 2.625 -0.203125 C 2.625 -0.296875 2.53125 -0.3125 2.515625 -0.3125 C 2.421875 -0.3125 2.109375 -0.34375 2.109375 -0.625 C 2.109375 -0.78125 2.265625 -0.9375 2.375 -1.0625 L 3.40625 -2.140625 L 4.296875 -3.125 L 5.296875 -0.734375 C 5.34375 -0.625 5.359375 -0.625 5.359375 -0.59375 C 5.359375 -0.515625 5.15625 -0.34375 4.78125 -0.3125 C 4.671875 -0.296875 4.578125 -0.296875 4.578125 -0.125 C 4.578125 0 4.6875 0 4.71875 0 C 5 0 5.703125 -0.03125 5.984375 -0.03125 C 6.234375 -0.03125 6.84375 0 7.09375 0 C 7.15625 0 7.28125 0 7.28125 -0.1875 C 7.28125 -0.3125 7.171875 -0.3125 7.09375 -0.3125 C 6.4375 -0.3125 6.40625 -0.34375 6.234375 -0.75 C 5.859375 -1.671875 5.1875 -3.234375 4.953125 -3.828125 C 5.625 -4.53125 6.671875 -5.71875 7 -5.984375 C 7.28125 -6.234375 7.671875 -6.46875 8.265625 -6.5 C 8.390625 -6.515625 8.484375 -6.515625 8.484375 -6.703125 C 8.484375 -6.703125 8.484375 -6.8125 8.359375 -6.8125 C 8.0625 -6.8125 7.71875 -6.78125 7.421875 -6.78125 C 7.046875 -6.78125 6.671875 -6.8125 6.3125 -6.8125 C 6.25 -6.8125 6.125 -6.8125 6.125 -6.609375 C 6.125 -6.546875 6.171875 -6.515625 6.234375 -6.5 C 6.328125 -6.484375 6.640625 -6.46875 6.640625 -6.1875 C 6.640625 -6.046875 6.53125 -5.921875 6.453125 -5.828125 Z M 4.828125 -4.09375 "/>
</symbol>
<symbol overflow="visible" id="glyph1-0">
<path style="stroke:none;" d=""/>
</symbol>
<symbol overflow="visible" id="glyph1-1">
<path style="stroke:none;" d="M 3.875 -2.765625 L 1.890625 -4.75 C 1.765625 -4.875 1.75 -4.890625 1.671875 -4.890625 C 1.5625 -4.890625 1.46875 -4.8125 1.46875 -4.6875 C 1.46875 -4.625 1.484375 -4.609375 1.59375 -4.5 L 3.59375 -2.5 L 1.59375 -0.484375 C 1.484375 -0.375 1.46875 -0.359375 1.46875 -0.296875 C 1.46875 -0.171875 1.5625 -0.09375 1.671875 -0.09375 C 1.75 -0.09375 1.765625 -0.109375 1.890625 -0.234375 L 3.875 -2.21875 L 5.9375 -0.15625 C 5.953125 -0.140625 6.015625 -0.09375 6.078125 -0.09375 C 6.203125 -0.09375 6.28125 -0.171875 6.28125 -0.296875 C 6.28125 -0.3125 6.28125 -0.34375 6.25 -0.40625 C 6.234375 -0.421875 4.65625 -1.984375 4.15625 -2.5 L 5.984375 -4.3125 C 6.03125 -4.375 6.1875 -4.5 6.234375 -4.5625 C 6.234375 -4.578125 6.28125 -4.625 6.28125 -4.6875 C 6.28125 -4.8125 6.203125 -4.890625 6.078125 -4.890625 C 6 -4.890625 5.96875 -4.859375 5.859375 -4.75 Z M 3.875 -2.765625 "/>
</symbol>
<symbol overflow="visible" id="glyph2-0">
<path style="stroke:none;" d=""/>
</symbol>
<symbol overflow="visible" id="glyph2-1">
<path style="stroke:none;" d="M 2.328125 -4.4375 C 2.328125 -4.625 2.328125 -4.625 2.125 -4.625 C 1.671875 -4.1875 1.046875 -4.1875 0.765625 -4.1875 L 0.765625 -3.9375 C 0.921875 -3.9375 1.390625 -3.9375 1.765625 -4.125 L 1.765625 -0.578125 C 1.765625 -0.34375 1.765625 -0.25 1.078125 -0.25 L 0.8125 -0.25 L 0.8125 0 C 0.9375 0 1.796875 -0.03125 2.046875 -0.03125 C 2.265625 -0.03125 3.140625 0 3.296875 0 L 3.296875 -0.25 L 3.03125 -0.25 C 2.328125 -0.25 2.328125 -0.34375 2.328125 -0.578125 Z M 2.328125 -4.4375 "/>
</symbol>
<symbol overflow="visible" id="glyph3-0">
<path style="stroke:none;" d=""/>
</symbol>
<symbol overflow="visible" id="glyph3-1">
<path style="stroke:none;" d="M 3.546875 -2.875 C 3.546875 -2.90625 3.5625 -2.9375 3.5625 -2.96875 C 3.5625 -3.015625 3.53125 -3.078125 3.46875 -3.078125 C 3.40625 -3.078125 3.109375 -2.84375 2.96875 -2.609375 C 2.90625 -2.75 2.671875 -3.078125 2.21875 -3.078125 C 1.328125 -3.078125 0.421875 -2.09375 0.421875 -1.09375 C 0.421875 -0.40625 0.875 0.0625 1.484375 0.0625 C 1.875 0.0625 2.203125 -0.1875 2.359375 -0.3125 C 2.34375 -0.296875 2.125 0.578125 2.109375 0.703125 C 2 1.09375 2 1.09375 1.5625 1.09375 C 1.484375 1.09375 1.390625 1.09375 1.390625 1.25 C 1.390625 1.296875 1.421875 1.359375 1.484375 1.359375 C 1.71875 1.359375 1.984375 1.328125 2.21875 1.328125 C 2.453125 1.328125 2.75 1.359375 2.96875 1.359375 C 3.03125 1.359375 3.09375 1.328125 3.09375 1.203125 C 3.09375 1.09375 3 1.09375 2.921875 1.09375 C 2.765625 1.09375 2.578125 1.09375 2.578125 1.015625 C 2.578125 1 2.578125 0.984375 2.609375 0.859375 Z M 2.5 -0.875 C 2.453125 -0.765625 2.453125 -0.75 2.375 -0.640625 C 2.09375 -0.3125 1.765625 -0.125 1.5 -0.125 C 1.234375 -0.125 0.984375 -0.3125 0.984375 -0.796875 C 0.984375 -1.171875 1.1875 -1.9375 1.359375 -2.21875 C 1.671875 -2.78125 2.03125 -2.875 2.21875 -2.875 C 2.703125 -2.875 2.84375 -2.34375 2.84375 -2.265625 C 2.84375 -2.234375 2.828125 -2.1875 2.828125 -2.171875 Z M 2.5 -0.875 "/>
</symbol>
<symbol overflow="visible" id="glyph3-2">
<path style="stroke:none;" d="M 2.875 -4.203125 C 2.9375 -4.453125 2.953125 -4.515625 3.484375 -4.515625 C 3.65625 -4.515625 3.734375 -4.515625 3.734375 -4.65625 C 3.734375 -4.71875 3.6875 -4.765625 3.625 -4.765625 C 3.484375 -4.765625 3.296875 -4.734375 3.15625 -4.734375 C 3 -4.734375 2.84375 -4.734375 2.6875 -4.734375 C 2.6875 -4.734375 2.203125 -4.734375 2.203125 -4.734375 C 2.046875 -4.734375 1.875 -4.765625 1.71875 -4.765625 C 1.671875 -4.765625 1.578125 -4.765625 1.578125 -4.609375 C 1.578125 -4.515625 1.65625 -4.515625 1.8125 -4.515625 C 1.8125 -4.515625 1.953125 -4.515625 2.0625 -4.5 C 2.203125 -4.484375 2.265625 -4.46875 2.265625 -4.390625 C 2.265625 -4.359375 2.25 -4.3125 2.234375 -4.25 L 1.296875 -0.546875 C 1.25 -0.328125 1.21875 -0.25 0.703125 -0.25 C 0.515625 -0.25 0.453125 -0.25 0.453125 -0.09375 C 0.453125 -0.09375 0.453125 0 0.5625 0 C 0.765625 0 1.296875 -0.03125 1.5 -0.03125 L 1.984375 -0.015625 C 2.125 -0.015625 2.3125 0 2.453125 0 C 2.5 0 2.609375 0 2.609375 -0.15625 C 2.609375 -0.25 2.515625 -0.25 2.390625 -0.25 C 2.375 -0.25 2.21875 -0.25 2.078125 -0.265625 C 1.921875 -0.28125 1.921875 -0.3125 1.921875 -0.375 C 1.921875 -0.375 1.921875 -0.421875 1.953125 -0.515625 Z M 2.875 -4.203125 "/>
</symbol>
<symbol overflow="visible" id="glyph3-3">
<path style="stroke:none;" d="M 3.984375 -4.625 C 3.984375 -4.640625 4 -4.734375 4 -4.734375 C 4 -4.78125 3.984375 -4.84375 3.890625 -4.84375 C 3.75 -4.84375 3.171875 -4.78125 3 -4.765625 C 2.953125 -4.765625 2.84375 -4.75 2.84375 -4.609375 C 2.84375 -4.515625 2.953125 -4.515625 3.03125 -4.515625 C 3.359375 -4.515625 3.359375 -4.453125 3.359375 -4.40625 C 3.359375 -4.359375 3.359375 -4.3125 3.34375 -4.25 L 2.9375 -2.65625 C 2.796875 -2.890625 2.5625 -3.078125 2.21875 -3.078125 C 1.328125 -3.078125 0.421875 -2.09375 0.421875 -1.09375 C 0.421875 -0.40625 0.875 0.0625 1.484375 0.0625 C 1.859375 0.0625 2.1875 -0.140625 2.46875 -0.421875 C 2.59375 0 3 0.0625 3.1875 0.0625 C 3.4375 0.0625 3.609375 -0.078125 3.734375 -0.296875 C 3.890625 -0.578125 3.984375 -0.96875 3.984375 -1 C 3.984375 -1.09375 3.890625 -1.09375 3.875 -1.09375 C 3.765625 -1.09375 3.765625 -1.0625 3.71875 -0.875 C 3.625 -0.53125 3.5 -0.125 3.203125 -0.125 C 3.03125 -0.125 2.96875 -0.28125 2.96875 -0.46875 C 2.96875 -0.59375 2.984375 -0.65625 3.015625 -0.75 Z M 2.5 -0.875 C 2.453125 -0.671875 2.296875 -0.53125 2.140625 -0.40625 C 2.078125 -0.34375 1.796875 -0.125 1.5 -0.125 C 1.234375 -0.125 0.984375 -0.3125 0.984375 -0.796875 C 0.984375 -1.171875 1.1875 -1.9375 1.359375 -2.21875 C 1.671875 -2.78125 2.03125 -2.875 2.21875 -2.875 C 2.703125 -2.875 2.84375 -2.34375 2.84375 -2.265625 C 2.84375 -2.25 2.828125 -2.1875 2.828125 -2.171875 Z M 2.5 -0.875 "/>
</symbol>
<symbol overflow="visible" id="glyph3-4">
<path style="stroke:none;" d="M 2.390625 -2.25 L 3.125 -2.25 C 3.65625 -2.25 3.75 -2.15625 3.75 -1.9375 C 3.75 -1.828125 3.75 -1.8125 3.703125 -1.609375 C 3.6875 -1.578125 3.671875 -1.546875 3.671875 -1.53125 C 3.671875 -1.46875 3.734375 -1.421875 3.796875 -1.421875 C 3.890625 -1.421875 3.890625 -1.46875 3.9375 -1.59375 L 4.3125 -3.0625 C 4.3125 -3.09375 4.328125 -3.1875 4.328125 -3.203125 C 4.328125 -3.28125 4.28125 -3.3125 4.21875 -3.3125 C 4.125 -3.3125 4.109375 -3.265625 4.078125 -3.140625 C 3.9375 -2.59375 3.734375 -2.5 3.140625 -2.5 L 2.453125 -2.5 L 2.890625 -4.25 C 2.9375 -4.453125 2.953125 -4.484375 3.234375 -4.484375 L 4.3125 -4.484375 C 5.234375 -4.484375 5.40625 -4.265625 5.40625 -3.671875 C 5.40625 -3.453125 5.375 -3.296875 5.375 -3.25 C 5.375 -3.1875 5.40625 -3.125 5.5 -3.125 C 5.609375 -3.125 5.609375 -3.1875 5.625 -3.3125 L 5.75 -4.515625 C 5.765625 -4.734375 5.71875 -4.734375 5.546875 -4.734375 L 1.828125 -4.734375 C 1.6875 -4.734375 1.609375 -4.734375 1.609375 -4.578125 C 1.609375 -4.484375 1.6875 -4.484375 1.828125 -4.484375 C 1.828125 -4.484375 1.96875 -4.484375 2.09375 -4.46875 C 2.234375 -4.453125 2.25 -4.4375 2.25 -4.375 C 2.25 -4.328125 2.234375 -4.25 2.21875 -4.21875 L 1.3125 -0.578125 C 1.234375 -0.296875 1.234375 -0.25 0.6875 -0.25 C 0.578125 -0.25 0.484375 -0.25 0.484375 -0.109375 C 0.484375 -0.03125 0.53125 0 0.59375 0 C 0.796875 0 1.3125 -0.03125 1.515625 -0.03125 L 2.046875 -0.015625 C 2.234375 -0.015625 2.421875 0 2.59375 0 C 2.640625 0 2.75 0 2.75 -0.15625 C 2.75 -0.25 2.671875 -0.25 2.515625 -0.25 C 2.5 -0.25 2.328125 -0.25 2.140625 -0.265625 C 2 -0.28125 1.9375 -0.28125 1.9375 -0.390625 C 1.9375 -0.40625 1.9375 -0.4375 1.953125 -0.515625 Z M 2.390625 -2.25 "/>
</symbol>
<symbol overflow="visible" id="glyph4-0">
<path style="stroke:none;" d=""/>
</symbol>
<symbol overflow="visible" id="glyph4-1">
<path style="stroke:none;" d="M 4.875 -3.265625 C 4.953125 -3.34375 4.96875 -3.390625 4.96875 -3.4375 C 4.96875 -3.546875 4.890625 -3.609375 4.8125 -3.609375 C 4.734375 -3.609375 4.71875 -3.59375 4.640625 -3.5 L 3.109375 -1.984375 L 1.578125 -3.515625 C 1.5 -3.578125 1.484375 -3.609375 1.421875 -3.609375 C 1.3125 -3.609375 1.234375 -3.53125 1.234375 -3.4375 C 1.234375 -3.375 1.265625 -3.359375 1.34375 -3.265625 L 2.859375 -1.75 L 1.34375 -0.234375 C 1.25 -0.125 1.234375 -0.09375 1.234375 -0.0625 C 1.234375 0.046875 1.3125 0.125 1.421875 0.125 C 1.484375 0.125 1.5 0.09375 1.578125 0.015625 L 3.109375 -1.5 L 4.703125 0.078125 C 4.734375 0.109375 4.765625 0.125 4.8125 0.125 C 4.890625 0.125 4.96875 0.0625 4.96875 -0.0625 C 4.96875 -0.109375 4.96875 -0.125 4.9375 -0.140625 C 4.921875 -0.171875 3.578125 -1.53125 3.359375 -1.734375 Z M 4.875 -3.265625 "/>
</symbol>
</g>
</defs>
<g id="surface1">
<g style="fill:rgb(0%,0%,0%);fill-opacity:1;">
  <use xlink:href="#glyph0-1" x="4.289" y="13.178"/>
</g>
<g style="fill:rgb(0%,0%,0%);fill-opacity:1;">
  <use xlink:href="#glyph1-1" x="11.667302" y="13.178"/>
</g>
<g style="fill:rgb(0%,0%,0%);fill-opacity:1;">
  <use xlink:href="#glyph0-1" x="21.627909" y="13.178"/>
</g>
<g style="fill:rgb(0%,0%,0%);fill-opacity:1;">
  <use xlink:href="#glyph0-2" x="59.278" y="13.178"/>
</g>
<g style="fill:rgb(0%,0%,0%);fill-opacity:1;">
  <use xlink:href="#glyph2-1" x="65.961" y="9.563"/>
</g>
<g style="fill:rgb(0%,0%,0%);fill-opacity:1;">
  <use xlink:href="#glyph1-1" x="72.644" y="13.178"/>
</g>
<g style="fill:rgb(0%,0%,0%);fill-opacity:1;">
  <use xlink:href="#glyph0-1" x="82.604607" y="13.178"/>
</g>
<g style="fill:rgb(0%,0%,0%);fill-opacity:1;">
  <use xlink:href="#glyph0-3" x="11.021" y="46.041"/>
</g>
<path style="fill:none;stroke-width:0.39848;stroke-linecap:butt;stroke-linejoin:miter;stroke:rgb(0%,0%,0%);stroke-opacity:1;stroke-miterlimit:10;" d="M -14.751656 14.8675 L 8.361625 14.8675 " transform="matrix(1,0,0,-1,46.029,25.555)"/>
<path style="fill:none;stroke-width:0.39848;stroke-linecap:round;stroke-linejoin:round;stroke:rgb(0%,0%,0%);stroke-opacity:1;stroke-miterlimit:10;" d="M -2.070539 2.390625 C -1.691633 0.957031 -0.851789 0.277344 -0.00022625 -0.000000000000005329 C -0.851789 -0.277344 -1.691633 -0.957031 -2.070539 -2.390625 " transform="matrix(1,0,0,-1,54.59007,10.6875)"/>
<g style="fill:rgb(0%,0%,0%);fill-opacity:1;">
  <use xlink:href="#glyph3-1" x="33.859" y="6.987"/>
</g>
<g style="fill:rgb(0%,0%,0%);fill-opacity:1;">
  <use xlink:href="#glyph4-1" x="37.761538" y="6.987"/>
</g>
<g style="fill:rgb(0%,0%,0%);fill-opacity:1;">
  <use xlink:href="#glyph3-2" x="43.988445" y="6.987"/>
</g>
<g style="fill:rgb(0%,0%,0%);fill-opacity:1;">
  <use xlink:href="#glyph3-3" x="48.063236" y="6.987"/>
</g>
<path style="fill:none;stroke-width:0.39848;stroke-linecap:butt;stroke-linejoin:miter;stroke:rgb(0%,0%,0%);stroke-opacity:1;stroke-miterlimit:10;" d="M -30.489938 7.699531 L -30.489938 -9.433281 " transform="matrix(1,0,0,-1,46.029,25.555)"/>
<path style="fill:none;stroke-width:0.39848;stroke-linecap:round;stroke-linejoin:round;stroke:rgb(0%,0%,0%);stroke-opacity:1;stroke-miterlimit:10;" d="M -2.071862 2.390817 C -1.692956 0.957224 -0.849206 0.277536 -0.00155 0.0001925 C -0.849206 -0.277151 -1.692956 -0.956839 -2.071862 -2.390433 " transform="matrix(0,1,1,0,15.53887,35.18905)"/>
<g style="fill:rgb(0%,0%,0%);fill-opacity:1;">
  <use xlink:href="#glyph3-4" x="17.883" y="29.003"/>
</g>
<path style="fill:none;stroke-width:0.39848;stroke-linecap:butt;stroke-linejoin:miter;stroke:rgb(0%,0%,0%);stroke-opacity:1;stroke-miterlimit:10;" d="M 14.849906 7.699531 L -21.138375 -12.695 " transform="matrix(1,0,0,-1,46.029,25.555)"/>
<path style="fill:none;stroke-width:0.39848;stroke-linecap:round;stroke-linejoin:round;stroke:rgb(0%,0%,0%);stroke-opacity:1;stroke-miterlimit:10;" d="M -2.071344 2.390178 C -1.694627 0.955341 -0.851565 0.279971 -0.000209822 -0.000471635 C -0.849106 -0.278208 -1.692702 -0.958575 -2.073327 -2.390762 " transform="matrix(-0.86995,0.49304,0.49304,0.86995,24.7188,38.34817)"/>
<path style="fill:none;stroke-width:0.398;stroke-linecap:butt;stroke-linejoin:miter;stroke:rgb(0%,0%,0%);stroke-opacity:1;stroke-miterlimit:10;" d="M -0.0013125 0.00115625 L 6.123687 0.00115625 " transform="matrix(1,0,0,-1,45.056,31.091)"/>
<g style="fill:rgb(0%,0%,0%);fill-opacity:1;">
  <use xlink:href="#glyph3-4" x="45.056" y="37.252"/>
</g>
</g>
</svg>
