<svg version="1.1" xmlns="http://www.w3.org/2000/svg" viewBox="0 0 606.9364990867674 472.2965145428035" width="606.9364990867674" height="472.2965145428035" class="excalidraw-svg"><!-- svg-source:excalidraw --><metadata></metadata><defs><style class="style-fonts">
      </style></defs><rect x="0" y="0" width="606.9364990867674" height="472.2965145428035" fill="#ffffff"></rect><g stroke-linecap="round" transform="translate(10 21.199996948242188) rotate(0 76.00001525878906 110.39999389648438)"><path d="M32 0 C64.94 -1.37, 93.96 1.7, 120 0 M32 0 C63.64 0.66, 96.06 -0.34, 120 0 M120 0 C141.71 0.63, 152.12 12.66, 152 32 M120 0 C140.28 -0.94, 150.03 11.78, 152 32 M152 32 C150.89 90.65, 150.67 147.33, 152 188.8 M152 32 C153.01 86.08, 152.55 141.96, 152 188.8 M152 188.8 C152.73 210.51, 140.91 220.17, 120 220.8 M152 188.8 C153.75 210.49, 140.15 221.1, 120 220.8 M120 220.8 C98.11 220.93, 80.5 221.31, 32 220.8 M120 220.8 C100.15 219.98, 82.94 220.91, 32 220.8 M32 220.8 C10.63 220.97, 1.05 210.69, 0 188.8 M32 220.8 C12.68 219.6, 2 208.81, 0 188.8 M0 188.8 C1.28 152.78, -2.25 115.88, 0 32 M0 188.8 C1.02 132.85, 1.21 76.21, 0 32 M0 32 C-1.37 9.17, 11.81 -1.79, 32 0 M0 32 C-1.1 12.15, 9.68 -0.24, 32 0" stroke="#1e1e1e" stroke-width="2" fill="none"></path></g><g stroke-linecap="round"><g transform="translate(223.59994506835938 121.20002746582031) rotate(0 85.20001220703125 -1.20001220703125)"><path d="M0.03 1.13 C28.5 0.44, 142.61 -2.77, 170.91 -3.41 M-1.41 0.68 C26.93 0.05, 141.86 -2.03, 170.23 -2.4" stroke="#1e1e1e" stroke-width="2" fill="none"></path></g><g transform="translate(223.59994506835938 121.20002746582031) rotate(0 85.20001220703125 -1.20001220703125)"><path d="M146.87 6.53 C155.91 4.61, 159.55 0.09, 170.23 -2.4 M146.87 6.53 C154.29 4.18, 160.17 0.75, 170.23 -2.4" stroke="#1e1e1e" stroke-width="2" fill="none"></path></g><g transform="translate(223.59994506835938 121.20002746582031) rotate(0 85.20001220703125 -1.20001220703125)"><path d="M146.6 -10.57 C155.82 -7.21, 159.55 -6.45, 170.23 -2.4 M146.6 -10.57 C154.04 -8.18, 160 -6.86, 170.23 -2.4" stroke="#1e1e1e" stroke-width="2" fill="none"></path></g></g><mask></mask><g stroke-linecap="round" transform="translate(445.1999816894531 10) rotate(0 73.60000610351562 25.199996948242188)"><path d="M40.14 3.29 C49.69 1.17, 63.41 -0.57, 75.53 -0.44 C87.66 -0.32, 102.33 1.72, 112.89 4.04 C123.44 6.36, 133.29 9.7, 138.85 13.47 C144.4 17.24, 146.8 22.46, 146.21 26.67 C145.62 30.88, 141.64 35.28, 135.31 38.71 C128.99 42.13, 118.87 45.21, 108.24 47.23 C97.62 49.25, 83.96 50.84, 71.56 50.8 C59.17 50.77, 44.35 49.13, 33.89 46.99 C23.43 44.85, 14.48 41.85, 8.78 37.98 C3.08 34.12, -0.79 28.29, -0.31 23.78 C0.17 19.27, 3.6 14.63, 11.65 10.93 C19.7 7.23, 40.07 3.35, 47.98 1.58 C55.89 -0.18, 58.69 0.02, 59.12 0.35 M107.77 1.62 C118.92 2.78, 130.63 6.73, 136.99 10.37 C143.36 14.01, 145.72 19.07, 145.94 23.47 C146.16 27.86, 143.97 33.03, 138.34 36.75 C132.71 40.48, 122.52 43.73, 112.17 45.82 C101.81 47.91, 88.51 48.8, 76.21 49.3 C63.91 49.8, 49.2 50.42, 38.36 48.83 C27.52 47.25, 17.67 43.7, 11.17 39.77 C4.66 35.83, -0.28 29.38, -0.66 25.24 C-1.05 21.1, 3.19 18.72, 8.85 14.92 C14.52 11.12, 22.84 4.95, 33.32 2.44 C43.8 -0.06, 59.21 -0.27, 71.72 -0.14 C84.24 0, 102.51 2.5, 108.41 3.27 C114.32 4.05, 107.76 4.3, 107.15 4.52" stroke="#1e1e1e" stroke-width="2" fill="none"></path></g><g stroke-linecap="round" transform="translate(451.6000061035156 179.59999084472656) rotate(0 72.00003051757812 30.399993896484375)"><path d="M105.38 2.62 C116.19 4.22, 127.32 8.88, 133.61 13.22 C139.91 17.56, 142.83 23.47, 143.14 28.66 C143.45 33.86, 141.01 39.9, 135.49 44.39 C129.97 48.88, 120.15 53.01, 110.02 55.62 C99.89 58.23, 86.74 59.62, 74.72 60.05 C62.7 60.48, 48.52 60.32, 37.9 58.21 C27.28 56.11, 17.41 51.94, 11.03 47.41 C4.64 42.87, 0 36.03, -0.42 31.01 C-0.84 25.98, 2.96 21.8, 8.5 17.26 C14.04 12.71, 22.63 6.64, 32.84 3.75 C43.05 0.87, 56.97 -0.22, 69.76 -0.08 C82.56 0.07, 102.55 3.5, 109.6 4.62 C116.65 5.74, 112.69 6.31, 112.04 6.65 M81.64 1.27 C92.88 1.39, 105.53 4.29, 115.04 7.22 C124.54 10.14, 134.12 14.34, 138.65 18.83 C143.18 23.33, 144.05 29.13, 142.2 34.18 C140.35 39.24, 134.69 45.23, 127.53 49.14 C120.38 53.05, 110.01 55.69, 99.28 57.65 C88.56 59.61, 74.85 61.32, 63.19 60.92 C51.53 60.52, 38.9 58.68, 29.32 55.27 C19.74 51.85, 10.39 45.1, 5.73 40.43 C1.07 35.76, -0.14 31.99, 1.38 27.25 C2.89 22.51, 7.5 16.31, 14.81 11.98 C22.12 7.65, 34.22 3.05, 45.21 1.27 C56.2 -0.51, 74.86 1.22, 80.75 1.3 C86.64 1.38, 80.74 1.2, 80.53 1.77" stroke="#1e1e1e" stroke-width="2" fill="none"></path></g><g stroke-linecap="round"><g transform="translate(449.1999816894531 42.79998779296875) rotate(0 0.800018310546875 83.5999984741211)"><path d="M0.67 -0.01 C0.79 27.85, 1.42 138.61, 1.53 166.3 M-0.44 -1.07 C-0.55 27, 0.41 139.37, 0.55 167.36" stroke="#1e1e1e" stroke-width="2" fill="none"></path></g></g><mask></mask><g stroke-linecap="round"><g transform="translate(590.8000183105469 38.79998779296875) rotate(0 2.79998779296875 88.4000015258789)"><path d="M0.56 -0.77 C1.56 28.61, 5.21 146.52, 6.14 176.04 M-0.6 1.44 C0.28 30.97, 4.43 147.84, 5.47 177.18" stroke="#1e1e1e" stroke-width="2" fill="none"></path></g></g><mask></mask><g transform="translate(258.0000305175781 454.00001525878906) rotate(0 0.00005000000000165983 0.00005000000000165983)" stroke="none"><path fill="#1e1e1e" d="M 3.14,-3.14 Q 3.14,-3.14 3.55,-2.55 3.97,-1.97 4.18,-1.28 4.40,-0.59 4.38,0.11 4.36,0.83 4.11,1.51 3.86,2.18 3.41,2.74 2.96,3.30 2.36,3.69 1.75,4.07 1.05,4.25 0.36,4.42 -0.35,4.36 -1.07,4.30 -1.73,4.02 -2.39,3.74 -2.92,3.26 -3.46,2.78 -3.81,2.15 -4.16,1.53 -4.30,0.82 -4.43,0.11 -4.34,-0.59 -4.24,-1.30 -3.92,-1.94 -3.60,-2.59 -3.09,-3.09 -2.59,-3.60 -1.94,-3.92 -1.30,-4.24 -0.59,-4.34 0.12,-4.43 0.82,-4.30 1.53,-4.16 2.15,-3.81 2.78,-3.46 3.26,-2.92 3.74,-2.39 4.02,-1.73 4.31,-1.07 4.36,-0.35 4.42,0.36 4.25,1.05 4.07,1.75 3.69,2.36 3.30,2.96 2.74,3.41 2.18,3.86 1.51,4.11 0.83,4.36 0.11,4.38 -0.60,4.40 -1.28,4.18 -1.97,3.97 -2.55,3.55 -3.14,3.13 -3.14,3.14 -3.14,3.14 -3.47,2.71 -3.80,2.29 -4.02,1.80 -4.24,1.32 -4.33,0.79 -4.43,0.26 -4.40,-0.26 -4.36,-0.80 -4.20,-1.31 -4.04,-1.82 -3.77,-2.28 -3.49,-2.73 -3.11,-3.11 -2.73,-3.49 -2.28,-3.77 -1.82,-4.05 -1.31,-4.20 -0.80,-4.36 -0.26,-4.40 0.26,-4.43 0.79,-4.33 1.32,-4.24 1.80,-4.02 2.29,-3.80 2.71,-3.47 3.14,-3.14 3.14,-3.14 L 3.14,-3.14 Z"></path></g><g transform="translate(258.0000305175781 454.00001525878906) rotate(0 0.00005000000000165983 0.00005000000000165983)" stroke="none"><path fill="#1e1e1e" d="M 3.14,-3.14 Q 3.14,-3.14 3.55,-2.55 3.97,-1.97 4.18,-1.28 4.40,-0.59 4.38,0.11 4.36,0.83 4.11,1.51 3.86,2.18 3.41,2.74 2.96,3.30 2.36,3.69 1.75,4.07 1.05,4.25 0.36,4.42 -0.35,4.36 -1.07,4.30 -1.73,4.02 -2.39,3.74 -2.92,3.26 -3.46,2.78 -3.81,2.15 -4.16,1.53 -4.30,0.82 -4.43,0.11 -4.34,-0.59 -4.24,-1.30 -3.92,-1.94 -3.60,-2.59 -3.09,-3.09 -2.59,-3.60 -1.94,-3.92 -1.30,-4.24 -0.59,-4.34 0.12,-4.43 0.82,-4.30 1.53,-4.16 2.15,-3.81 2.78,-3.46 3.26,-2.92 3.74,-2.39 4.02,-1.73 4.31,-1.07 4.36,-0.35 4.42,0.36 4.25,1.05 4.07,1.75 3.69,2.36 3.30,2.96 2.74,3.41 2.18,3.86 1.51,4.11 0.83,4.36 0.11,4.38 -0.60,4.40 -1.28,4.18 -1.97,3.97 -2.55,3.55 -3.14,3.13 -3.14,3.14 -3.14,3.14 -3.47,2.71 -3.80,2.29 -4.02,1.80 -4.24,1.32 -4.33,0.79 -4.43,0.26 -4.40,-0.26 -4.36,-0.80 -4.20,-1.31 -4.04,-1.82 -3.77,-2.28 -3.49,-2.73 -3.11,-3.11 -2.73,-3.49 -2.28,-3.77 -1.82,-4.05 -1.31,-4.20 -0.80,-4.36 -0.26,-4.40 0.26,-4.43 0.79,-4.33 1.32,-4.24 1.80,-4.02 2.29,-3.80 2.71,-3.47 3.14,-3.14 3.14,-3.14 L 3.14,-3.14 Z"></path></g><g stroke-linecap="round" transform="translate(258.8000183105469 333.99998474121094) rotate(16.672567360560127 16.399993896484375 61.19999694824219)"><path d="M10.77 3.99 C13.36 0.01, 16.63 -0.5, 19.61 2.17 C22.58 4.85, 26.63 11.94, 28.61 20.04 C30.6 28.15, 31.15 40.01, 31.53 50.82 C31.91 61.63, 31.81 74.97, 30.88 84.89 C29.96 94.82, 28.39 104.19, 25.96 110.35 C23.52 116.51, 19.17 121.11, 16.27 121.87 C13.37 122.63, 11.03 120.52, 8.56 114.9 C6.09 109.28, 2.85 98.27, 1.45 88.18 C0.04 78.09, -0.18 65.23, 0.11 54.35 C0.41 43.47, 1.19 31.6, 3.22 22.88 C5.25 14.16, 10.41 5.72, 12.28 2.04 C14.16 -1.65, 14.21 -0.25, 14.46 0.76 M16.43 0.29 C19.08 -1.05, 22.14 2.96, 24.51 8.47 C26.88 13.98, 29.12 23.36, 30.65 33.35 C32.19 43.33, 33.92 57.42, 33.74 68.41 C33.55 79.39, 31.48 90.93, 29.53 99.24 C27.59 107.56, 24.75 114.6, 22.06 118.29 C19.36 121.98, 16.22 123.92, 13.36 121.39 C10.5 118.87, 7.33 111.48, 4.9 103.14 C2.48 94.79, -0.73 82.09, -1.17 71.33 C-1.61 60.57, 0.72 48.88, 2.27 38.58 C3.81 28.28, 5.94 15.84, 8.1 9.54 C10.25 3.24, 13.84 2.33, 15.2 0.78 C16.55 -0.77, 16.23 -0.8, 16.23 0.23" stroke="#1e1e1e" stroke-width="2" fill="none"></path></g><g stroke-linecap="round" transform="translate(276.79998779296875 344.79998779296875) rotate(41.44827658658764 16.399993896484375 61.19999694824219)"><path d="M24.42 6.45 C26.99 10.4, 29.29 20.86, 30.66 30.32 C32.02 39.79, 32.88 52.44, 32.61 63.25 C32.33 74.06, 30.75 86.08, 29.03 95.2 C27.32 104.32, 24.9 113.5, 22.32 117.97 C19.75 122.43, 16.41 123.96, 13.59 121.99 C10.78 120.01, 7.63 113.86, 5.43 106.12 C3.23 98.38, 1.03 86.26, 0.39 75.54 C-0.24 64.81, 0.72 52.15, 1.62 41.77 C2.51 31.38, 3.61 19.97, 5.77 13.23 C7.92 6.49, 11.19 1.9, 14.53 1.34 C17.88 0.77, 24.04 7.9, 25.85 9.85 C27.65 11.8, 25.79 12.42, 25.38 13.03 M20 0.05 C22.66 0.92, 25.47 8.72, 27.47 16.44 C29.46 24.17, 31.14 35.41, 31.97 46.41 C32.81 57.4, 33.13 72.16, 32.48 82.39 C31.83 92.63, 30.62 101.43, 28.09 107.8 C25.55 114.18, 20.5 119.52, 17.3 120.62 C14.09 121.72, 11.37 119.39, 8.87 114.41 C6.36 109.44, 3.56 100.2, 2.26 90.78 C0.97 81.36, 1.01 68.48, 1.09 57.88 C1.18 47.28, 1.35 36.28, 2.78 27.18 C4.21 18.08, 6.86 7.68, 9.68 3.27 C12.5 -1.15, 18.3 0.82, 19.72 0.68 C21.13 0.54, 18.42 1.43, 18.18 2.45" stroke="#1e1e1e" stroke-width="2" fill="none"></path></g><g transform="translate(260.2136012985736 454.20917863937746) rotate(45.41221762728367 0.00005000000000165983 0.00005000000000165983)" stroke="none"><path fill="#1e1e1e" d="M 3.14,-3.14 Q 3.14,-3.14 3.55,-2.55 3.97,-1.97 4.18,-1.28 4.40,-0.59 4.38,0.11 4.36,0.83 4.11,1.51 3.86,2.18 3.41,2.74 2.96,3.30 2.36,3.69 1.75,4.07 1.05,4.25 0.36,4.42 -0.35,4.36 -1.07,4.30 -1.73,4.02 -2.39,3.74 -2.92,3.26 -3.46,2.78 -3.81,2.15 -4.16,1.53 -4.30,0.82 -4.43,0.11 -4.34,-0.59 -4.24,-1.30 -3.92,-1.94 -3.60,-2.59 -3.09,-3.09 -2.59,-3.60 -1.94,-3.92 -1.30,-4.24 -0.59,-4.34 0.12,-4.43 0.82,-4.30 1.53,-4.16 2.15,-3.81 2.78,-3.46 3.26,-2.92 3.74,-2.39 4.02,-1.73 4.31,-1.07 4.36,-0.35 4.42,0.36 4.25,1.05 4.07,1.75 3.69,2.36 3.30,2.96 2.74,3.41 2.18,3.86 1.51,4.11 0.83,4.36 0.11,4.38 -0.60,4.40 -1.28,4.18 -1.97,3.97 -2.55,3.55 -3.14,3.13 -3.14,3.14 -3.14,3.14 -3.47,2.71 -3.80,2.29 -4.02,1.80 -4.24,1.32 -4.33,0.79 -4.43,0.26 -4.40,-0.26 -4.36,-0.80 -4.20,-1.31 -4.04,-1.82 -3.77,-2.28 -3.49,-2.73 -3.11,-3.11 -2.73,-3.49 -2.28,-3.77 -1.82,-4.05 -1.31,-4.20 -0.80,-4.36 -0.26,-4.40 0.26,-4.43 0.79,-4.33 1.32,-4.24 1.80,-4.02 2.29,-3.80 2.71,-3.47 3.14,-3.14 3.14,-3.14 L 3.14,-3.14 Z"></path></g><g transform="translate(260.2136012985736 454.20917863937746) rotate(45.41221762728367 0.00005000000000165983 0.00005000000000165983)" stroke="none"><path fill="#1e1e1e" d="M 3.14,-3.14 Q 3.14,-3.14 3.55,-2.55 3.97,-1.97 4.18,-1.28 4.40,-0.59 4.38,0.11 4.36,0.83 4.11,1.51 3.86,2.18 3.41,2.74 2.96,3.30 2.36,3.69 1.75,4.07 1.05,4.25 0.36,4.42 -0.35,4.36 -1.07,4.30 -1.73,4.02 -2.39,3.74 -2.92,3.26 -3.46,2.78 -3.81,2.15 -4.16,1.53 -4.30,0.82 -4.43,0.11 -4.34,-0.59 -4.24,-1.30 -3.92,-1.94 -3.60,-2.59 -3.09,-3.09 -2.59,-3.60 -1.94,-3.92 -1.30,-4.24 -0.59,-4.34 0.12,-4.43 0.82,-4.30 1.53,-4.16 2.15,-3.81 2.78,-3.46 3.26,-2.92 3.74,-2.39 4.02,-1.73 4.31,-1.07 4.36,-0.35 4.42,0.36 4.25,1.05 4.07,1.75 3.69,2.36 3.30,2.96 2.74,3.41 2.18,3.86 1.51,4.11 0.83,4.36 0.11,4.38 -0.60,4.40 -1.28,4.18 -1.97,3.97 -2.55,3.55 -3.14,3.13 -3.14,3.14 -3.14,3.14 -3.47,2.71 -3.80,2.29 -4.02,1.80 -4.24,1.32 -4.33,0.79 -4.43,0.26 -4.40,-0.26 -4.36,-0.80 -4.20,-1.31 -4.04,-1.82 -3.77,-2.28 -3.49,-2.73 -3.11,-3.11 -2.73,-3.49 -2.28,-3.77 -1.82,-4.05 -1.31,-4.20 -0.80,-4.36 -0.26,-4.40 0.26,-4.43 0.79,-4.33 1.32,-4.24 1.80,-4.02 2.29,-3.80 2.71,-3.47 3.14,-3.14 3.14,-3.14 L 3.14,-3.14 Z"></path></g><g stroke-linecap="round" transform="translate(297.7640241267597 363.9808764474032) rotate(62.08478498784378 16.399993896484375 61.19999694824218)"><path d="M18.87 -0.2 C21.54 -0.06, 24.49 6.04, 26.73 13.2 C28.97 20.35, 31.43 32.23, 32.29 42.72 C33.16 53.21, 32.72 65.63, 31.94 76.13 C31.17 86.64, 29.89 98.19, 27.63 105.75 C25.37 113.31, 21.45 119.55, 18.39 121.5 C15.32 123.44, 11.66 121.53, 9.24 117.43 C6.82 113.33, 5.55 105.85, 3.85 96.89 C2.15 87.93, -0.56 74.92, -0.97 63.68 C-1.38 52.44, -0.19 39.07, 1.41 29.45 C3.02 19.83, 5.31 10.38, 8.64 5.96 C11.97 1.54, 18.91 3, 21.41 2.93 C23.9 2.85, 23.73 4.82, 23.62 5.53 M10.66 2.59 C12.99 -1.54, 16.72 -0.33, 19.83 2.51 C22.94 5.34, 27.4 11.76, 29.33 19.62 C31.26 27.49, 31.06 39.17, 31.4 49.69 C31.75 60.2, 32.21 72.46, 31.41 82.73 C30.6 93, 28.93 104.91, 26.59 111.31 C24.25 117.71, 20.29 120.69, 17.36 121.13 C14.43 121.57, 11.7 119.16, 9.02 113.93 C6.34 108.71, 3.01 99.7, 1.28 89.76 C-0.46 79.83, -1.68 65.18, -1.38 54.31 C-1.07 43.44, 1.13 33.02, 3.09 24.55 C5.05 16.07, 8.82 6.6, 10.39 3.46 C11.95 0.31, 12.27 4.57, 12.48 5.69" stroke="#1e1e1e" stroke-width="2" fill="none"></path></g><g stroke-linecap="round" transform="translate(302.70852408246077 384.3816334792922) rotate(86.8604942138713 16.399993896484375 61.19999694824219)"><path d="M20.01 1.14 C22.74 2.82, 26.38 11.17, 28.39 19.03 C30.41 26.9, 31.53 37.73, 32.09 48.33 C32.66 58.94, 32.93 72.31, 31.79 82.67 C30.64 93.02, 27.76 103.91, 25.22 110.45 C22.69 117, 19.23 121.09, 16.59 121.94 C13.95 122.78, 11.99 120.75, 9.39 115.52 C6.78 110.28, 2.69 100.44, 0.98 90.51 C-0.72 80.59, -1.15 67.1, -0.83 55.97 C-0.51 44.84, 0.84 32.29, 2.91 23.75 C4.99 15.21, 8.08 7.82, 11.62 4.7 C15.15 1.58, 21.64 3.77, 24.14 5.04 C26.64 6.32, 27 11.24, 26.62 12.36 M17.26 0.95 C20.32 1.16, 25.16 6.58, 27.4 13.14 C29.64 19.7, 29.92 30.28, 30.72 40.34 C31.51 50.39, 32.54 62.69, 32.18 73.48 C31.83 84.27, 30.63 97.35, 28.58 105.1 C26.54 112.84, 22.81 117.76, 19.94 119.93 C17.07 122.1, 14.25 121.77, 11.37 118.12 C8.48 114.47, 4.77 107.03, 2.64 98.01 C0.51 88.99, -1.26 74.9, -1.42 64 C-1.59 53.1, 0.07 42.05, 1.65 32.6 C3.22 23.16, 5.1 12.52, 8 7.32 C10.9 2.12, 17.42 2.23, 19.04 1.42 C20.66 0.62, 17.75 1.46, 17.73 2.5" stroke="#1e1e1e" stroke-width="2" fill="none"></path></g><g stroke-linecap="round"><g transform="translate(107.60000610351562 282.8000030517578) rotate(0 60.79998779296875 47.600006103515625)"><path d="M0.33 0.12 C20.58 15.81, 102.39 78.52, 122.58 94.55 M-0.96 -0.87 C19.13 14.93, 101.88 79.84, 122.14 95.75" stroke="#1e1e1e" stroke-width="2" fill="none"></path></g><g transform="translate(107.60000610351562 282.8000030517578) rotate(0 60.79998779296875 47.600006103515625)"><path d="M98.38 87.97 C107.76 92.53, 115.64 93.65, 122.14 95.75 M98.38 87.97 C107.62 90.47, 118.03 93.09, 122.14 95.75" stroke="#1e1e1e" stroke-width="2" fill="none"></path></g><g transform="translate(107.60000610351562 282.8000030517578) rotate(0 60.79998779296875 47.600006103515625)"><path d="M108.94 74.52 C114.29 84.29, 118.11 90.6, 122.14 95.75 M108.94 74.52 C114.1 82.35, 120.35 90.27, 122.14 95.75" stroke="#1e1e1e" stroke-width="2" fill="none"></path></g></g><mask></mask><g stroke-linecap="round"><g transform="translate(483.6000061035156 266.8000030517578) rotate(0 -42 57.600006103515625)"><path d="M0.88 0.13 C-13.14 19.67, -69.13 97.05, -83.15 116.38 M-0.12 -0.85 C-14.3 18.47, -69.73 95.7, -83.65 114.88" stroke="#1e1e1e" stroke-width="2" fill="none"></path></g><g transform="translate(483.6000061035156 266.8000030517578) rotate(0 -42 57.600006103515625)"><path d="M-76.84 90.83 C-79.39 101.45, -80.22 110.43, -83.65 114.88 M-76.84 90.83 C-79.76 99.37, -80.99 108.45, -83.65 114.88" stroke="#1e1e1e" stroke-width="2" fill="none"></path></g><g transform="translate(483.6000061035156 266.8000030517578) rotate(0 -42 57.600006103515625)"><path d="M-62.97 100.83 C-70.73 107.75, -76.83 112.93, -83.65 114.88 M-62.97 100.83 C-71.1 105.7, -77.54 111.02, -83.65 114.88" stroke="#1e1e1e" stroke-width="2" fill="none"></path></g></g><mask></mask></svg>