<svg version="1.1" xmlns="http://www.w3.org/2000/svg" viewBox="0 0 742.4000854492188 353.6000061035156" width="742.4000854492188" height="353.6000061035156" filter="invert(93%) hue-rotate(180deg)" class="excalidraw-svg"><!-- svg-source:excalidraw --><metadata></metadata><defs><style class="style-fonts">
      </style></defs><rect x="0" y="0" width="742.4000854492188" height="353.6000061035156" fill="#ffffff"></rect><g transform="translate(174 70) rotate(0 197.20004272460938 106.80000305175781)" stroke="none"><path fill="#1e1e1e" d="M -1.89,-2.48 Q -1.89,-2.48 8.73,-10.48 19.35,-18.48 39.67,-30.01 60.00,-41.55 75.67,-47.63 91.33,-53.72 104.25,-55.86 117.17,-58.00 128.44,-53.96 139.72,-49.92 147.20,-42.88 154.69,-35.84 159.11,-26.13 163.52,-16.42 166.06,-1.57 168.60,13.27 169.42,26.48 170.24,39.70 170.13,54.55 170.01,69.40 169.96,79.58 169.91,89.76 170.11,95.83 170.30,101.91 172.32,106.09 174.33,110.28 177.67,112.99 181.01,115.71 185.07,117.05 189.13,118.38 194.38,117.17 199.62,115.96 205.25,113.26 210.89,110.56 217.52,105.17 224.15,99.77 234.05,88.59 243.96,77.41 251.80,65.38 259.63,53.36 264.99,41.68 270.35,30.01 274.48,19.52 278.61,9.04 280.33,3.06 282.06,-2.91 282.40,-5.34 282.73,-7.78 278.86,-10.33 274.99,-12.88 268.12,-14.76 261.26,-16.63 254.02,-18.68 246.77,-20.73 242.21,-21.59 237.64,-22.44 231.73,-18.80 225.82,-15.16 220.10,-6.78 214.37,1.60 206.75,12.41 199.13,23.23 187.91,43.33 176.69,63.43 167.74,79.39 158.79,95.34 150.16,111.07 141.52,126.81 130.46,145.27 119.40,163.74 110.33,178.48 101.26,193.22 91.59,206.46 81.93,219.71 69.91,232.11 57.89,244.51 48.09,252.15 38.29,259.78 29.84,264.25 21.40,268.72 13.25,270.90 5.10,273.08 -1.09,273.52 -7.29,273.96 -15.23,270.32 -23.17,266.69 -29.93,258.87 -36.68,251.06 -40.52,239.16 -44.37,227.26 -43.43,204.01 -42.48,180.76 -34.17,157.59 -25.85,134.41 -20.48,121.66 -15.11,108.91 -6.48,97.05 2.14,85.18 10.11,77.96 18.07,70.75 27.64,67.52 37.21,64.29 50.62,67.13 64.03,69.98 73.34,73.56 82.65,77.14 101.18,87.22 119.70,97.30 151.47,116.29 183.24,135.29 207.80,150.97 232.36,166.64 252.39,178.33 272.43,190.01 293.94,199.52 315.46,209.03 332.76,213.96 350.07,218.89 366.44,220.28 382.81,221.66 405.63,217.23 428.45,212.80 441.75,207.75 455.06,202.70 470.44,192.38 485.82,182.06 496.46,172.67 507.11,163.27 511.44,159.26 515.77,155.24 519.08,150.93 522.40,146.61 529.94,131.36 537.49,116.10 542.52,101.18 547.56,86.26 549.91,72.69 552.26,59.12 550.97,44.63 549.67,30.14 546.87,19.46 544.06,8.78 539.98,0.99 535.91,-6.79 526.58,-15.16 517.26,-23.53 504.57,-29.08 491.87,-34.64 474.32,-36.08 456.77,-37.51 428.12,-31.06 399.48,-24.61 375.83,-15.47 352.18,-6.33 332.07,4.40 311.97,15.14 288.97,30.02 265.96,44.91 245.61,59.28 225.26,73.65 205.57,88.04 185.88,102.43 161.11,118.48 136.35,134.53 116.85,146.64 97.36,158.75 79.36,168.53 61.36,178.31 38.90,187.79 16.44,197.28 -2.35,203.39 -21.15,209.51 -38.22,212.82 -55.29,216.14 -71.84,217.32 -88.39,218.50 -100.03,216.90 -111.66,215.31 -121.84,209.78 -132.01,204.25 -142.09,182.88 -152.17,161.51 -155.44,138.25 -158.71,114.98 -155.46,90.64 -152.21,66.31 -148.04,49.30 -143.87,32.30 -138.38,18.07 -132.89,3.84 -129.11,-2.99 -125.34,-9.83 -120.74,-14.59 -116.13,-19.34 -107.78,-21.99 -99.42,-24.65 -90.08,-23.62 -80.74,-22.58 -69.82,-18.85 -58.89,-15.11 -36.54,-4.99 -14.19,5.11 13.32,14.87 40.84,24.63 70.21,32.91 99.57,41.19 129.53,48.62 159.49,56.05 172.23,59.21 184.98,62.37 185.37,62.54 185.76,62.71 186.08,62.99 186.40,63.27 186.61,63.64 186.81,64.01 186.90,64.43 186.98,64.85 186.92,65.27 186.86,65.69 186.67,66.07 186.48,66.45 186.18,66.75 185.88,67.05 185.50,67.24 185.12,67.43 184.70,67.49 184.28,67.55 183.86,67.47 183.45,67.39 183.08,67.18 182.71,66.97 182.42,66.65 182.14,66.34 181.97,65.95 181.80,65.56 181.77,65.13 181.73,64.71 181.83,64.30 181.94,63.88 182.17,63.53 182.39,63.17 182.72,62.90 183.06,62.63 183.45,62.49 183.85,62.34 184.28,62.33 184.70,62.32 185.11,62.44 185.52,62.57 185.86,62.82 186.21,63.06 186.45,63.41 186.70,63.75 186.83,64.16 186.95,64.57 186.94,64.99 186.93,65.41 186.78,65.81 186.64,66.21 186.37,66.54 186.10,66.88 185.75,67.10 185.39,67.33 184.98,67.44 184.56,67.54 184.14,67.50 183.72,67.47 183.72,67.47 183.72,67.47 170.97,64.31 158.22,61.15 128.18,53.70 98.15,46.25 68.62,37.91 39.08,29.58 11.36,19.74 -16.35,9.90 -38.48,-0.12 -60.61,-10.15 -71.00,-13.76 -81.40,-17.37 -89.74,-18.49 -98.09,-19.60 -105.37,-17.55 -112.65,-15.51 -116.71,-11.38 -120.77,-7.24 -124.38,-0.75 -127.99,5.74 -133.38,19.65 -138.77,33.56 -142.89,50.29 -147.00,67.02 -150.26,90.66 -153.51,114.31 -150.44,136.85 -147.38,159.38 -138.22,179.75 -129.05,200.12 -119.94,205.13 -110.82,210.14 -99.78,211.70 -88.74,213.26 -72.51,212.12 -56.29,210.98 -39.53,207.74 -22.77,204.51 -4.18,198.47 14.40,192.44 36.63,183.06 58.85,173.69 76.72,163.99 94.59,154.29 114.04,142.20 133.49,130.12 158.13,114.16 182.78,98.19 202.51,83.77 222.23,69.36 242.67,54.93 263.11,40.50 286.30,25.50 309.49,10.50 329.89,-0.36 350.28,-11.23 374.31,-20.48 398.33,-29.73 427.73,-36.24 457.14,-42.74 475.52,-41.10 493.91,-39.47 507.31,-33.47 520.72,-27.46 530.61,-18.38 540.50,-9.30 544.82,-0.93 549.14,7.43 552.02,18.55 554.90,29.67 556.17,44.83 557.44,59.98 554.99,73.96 552.54,87.93 547.37,103.18 542.19,118.43 534.38,134.12 526.56,149.81 522.96,154.45 519.35,159.09 514.97,163.15 510.59,167.21 499.66,176.82 488.74,186.43 472.84,197.02 456.94,207.60 443.20,212.78 429.45,217.95 405.93,222.42 382.42,226.90 365.53,225.42 348.64,223.95 330.99,218.89 313.34,213.84 291.56,204.19 269.79,194.55 249.66,182.81 229.53,171.07 205.04,155.44 180.55,139.80 148.87,120.86 117.19,101.91 98.97,91.97 80.76,82.04 71.82,78.57 62.88,75.11 50.66,72.20 38.45,69.30 29.94,72.02 21.43,74.74 13.90,81.52 6.37,88.30 -1.95,99.64 -10.28,110.98 -15.59,123.59 -20.91,136.20 -29.08,158.63 -37.25,181.06 -38.29,203.43 -39.34,225.79 -35.96,236.80 -32.59,247.80 -26.67,254.93 -20.75,262.05 -14.04,265.42 -7.32,268.78 -1.77,268.38 3.77,267.98 11.37,266.01 18.97,264.03 27.01,259.82 35.05,255.60 44.57,248.21 54.09,240.82 65.86,228.69 77.64,216.57 87.17,203.49 96.71,190.42 105.75,175.70 114.79,160.98 125.78,142.59 136.77,124.20 145.38,108.43 154.00,92.66 162.91,76.69 171.82,60.72 183.14,40.34 194.46,19.96 201.99,9.13 209.51,-1.70 215.62,-10.69 221.73,-19.69 227.24,-24.22 232.76,-28.75 235.69,-28.28 238.62,-27.80 243.44,-26.93 248.26,-26.06 255.52,-24.06 262.79,-22.06 270.57,-19.80 278.36,-17.55 282.98,-13.63 287.60,-9.71 287.35,-5.59 287.11,-1.46 285.30,4.74 283.50,10.96 279.31,21.58 275.12,32.20 269.58,44.22 264.04,56.23 255.96,68.56 247.89,80.89 237.68,92.37 227.46,103.86 220.31,109.58 213.16,115.30 206.92,118.20 200.69,121.10 194.24,122.24 187.80,123.38 182.75,121.58 177.71,119.78 173.69,116.21 169.67,112.64 167.37,107.45 165.07,102.25 164.85,95.99 164.63,89.73 164.67,79.54 164.72,69.36 164.83,54.69 164.95,40.03 164.14,27.09 163.34,14.15 160.98,-0.06 158.62,-14.28 154.74,-23.17 150.87,-32.06 144.27,-38.48 137.67,-44.91 127.69,-48.74 117.71,-52.58 105.53,-50.52 93.36,-48.46 78.10,-42.49 62.85,-36.52 42.91,-25.12 22.96,-13.71 12.42,-5.61 1.89,2.48 1.56,2.67 1.24,2.86 0.88,2.97 0.51,3.08 0.14,3.09 -0.23,3.11 -0.60,3.04 -0.97,2.96 -1.31,2.80 -1.65,2.65 -1.94,2.41 -2.24,2.17 -2.46,1.87 -2.69,1.57 -2.84,1.23 -2.99,0.88 -3.05,0.51 -3.12,0.14 -3.09,-0.23 -3.06,-0.60 -2.94,-0.96 -2.83,-1.32 -2.63,-1.64 -2.43,-1.96 -2.16,-2.22 -1.89,-2.48 -1.89,-2.48 L -1.89,-2.48 Z"></path></g></svg>