<svg version="1.1" xmlns="http://www.w3.org/2000/svg" viewBox="0 0 411.2000427246094 336" width="411.2000427246094" height="336" class="excalidraw-svg"><!-- svg-source:excalidraw --><metadata></metadata><defs><style class="style-fonts">
      </style></defs><rect x="0" y="0" width="411.2000427246094" height="336" fill="#ffffff"></rect><g transform="translate(77.20001220703125 120.39999389648438) rotate(0 14.400009155273438 70.00001525878906)" stroke="none"><path fill="#1e1e1e" d="M 1.35,-3.75 Q 1.35,-3.75 9.57,-0.59 17.79,2.57 24.45,6.12 31.12,9.68 37.33,14.81 43.54,19.95 47.23,23.26 50.91,26.57 54.63,30.61 58.34,34.65 60.64,36.57 62.93,38.50 65.25,41.07 67.57,43.65 69.39,46.19 71.21,48.74 73.53,52.23 75.84,55.72 76.90,58.03 77.95,60.33 78.91,63.66 79.86,66.99 80.98,70.51 82.09,74.03 82.96,78.60 83.83,83.17 84.35,86.55 84.87,89.93 85.17,92.80 85.48,95.67 85.86,98.51 86.24,101.36 86.48,104.68 86.71,107.99 86.53,110.22 86.34,112.45 85.35,114.82 84.35,117.19 82.38,120.39 80.41,123.60 78.15,125.66 75.88,127.73 74.42,129.30 72.96,130.87 69.53,132.91 66.10,134.94 64.25,136.39 62.40,137.83 60.41,139.17 58.41,140.51 56.25,141.63 54.09,142.76 49.97,144.76 45.85,146.77 41.05,148.29 36.24,149.80 33.39,149.98 30.53,150.16 27.73,150.20 24.92,150.24 21.22,150.38 17.51,150.52 14.99,150.01 12.46,149.51 10.42,148.78 8.37,148.06 5.86,147.04 3.34,146.02 1.08,145.13 -1.17,144.24 -3.42,143.42 -5.67,142.60 -8.49,141.46 -11.32,140.32 -13.71,139.40 -16.09,138.48 -19.76,137.15 -23.44,135.82 -26.34,134.25 -29.23,132.67 -31.01,130.99 -32.78,129.31 -34.96,126.68 -37.13,124.06 -38.86,121.58 -40.59,119.10 -42.57,116.45 -44.55,113.80 -46.43,111.09 -48.31,108.39 -50.11,106.06 -51.91,103.73 -53.37,101.62 -54.82,99.52 -56.40,96.78 -57.97,94.04 -58.47,91.50 -58.97,88.96 -59.19,86.84 -59.41,84.72 -58.86,81.89 -58.31,79.06 -57.55,76.79 -56.78,74.52 -56.21,71.65 -55.64,68.77 -55.16,66.53 -54.68,64.29 -53.30,60.87 -51.92,57.46 -50.68,54.52 -49.44,51.59 -48.78,49.48 -48.12,47.36 -47.48,44.76 -46.84,42.16 -45.78,38.82 -44.71,35.48 -43.46,32.18 -42.21,28.88 -41.12,26.59 -40.04,24.30 -38.93,22.41 -37.83,20.52 -36.24,18.17 -34.66,15.81 -33.19,14.21 -31.71,12.60 -29.83,11.08 -27.94,9.56 -26.04,8.31 -24.14,7.06 -20.45,5.01 -16.75,2.97 -13.36,1.86 -9.97,0.75 -7.50,-0.95 -5.04,-2.66 -2.42,-3.81 0.20,-4.97 -0.68,-2.85 -1.57,-0.72 -2.15,0.10 -2.73,0.93 -3.51,0.17 -4.29,-0.58 -4.78,-1.55 -5.28,-2.52 -5.44,-3.59 -5.60,-4.67 -5.41,-5.74 -5.22,-6.81 -4.69,-7.77 -4.17,-8.72 -3.37,-9.46 -2.57,-10.19 -1.57,-10.64 -0.58,-11.08 0.50,-11.18 1.58,-11.28 2.64,-11.03 3.70,-10.78 4.62,-10.21 5.55,-9.63 6.24,-8.79 6.93,-7.95 7.32,-6.94 7.71,-5.92 7.75,-4.83 7.79,-3.74 7.49,-2.70 7.18,-1.65 6.56,-0.76 5.93,0.12 5.06,0.76 4.18,1.41 3.14,1.74 2.11,2.07 1.02,2.06 -0.06,2.04 -1.09,1.68 -2.11,1.32 -2.97,0.64 -3.83,-0.02 -4.42,-0.93 -5.02,-1.84 -5.30,-2.89 -5.57,-3.94 -5.50,-5.03 -5.42,-6.11 -5.00,-7.12 -4.59,-8.12 -3.87,-8.94 -3.15,-9.76 -2.21,-10.31 -1.27,-10.86 -0.20,-11.07 0.85,-11.29 1.93,-11.16 3.01,-11.02 3.99,-10.55 4.97,-10.08 4.97,-10.08 4.97,-10.08 7.56,-7.11 10.14,-4.13 10.53,-2.00 10.92,0.11 10.33,2.16 9.74,4.20 6.48,5.79 3.22,7.37 1.27,8.33 -0.68,9.28 -3.03,10.81 -5.38,12.33 -9.82,14.56 -14.26,16.79 -16.37,18.06 -18.48,19.33 -20.27,20.68 -22.07,22.04 -23.85,23.72 -25.64,25.41 -26.96,27.57 -28.29,29.72 -29.64,33.13 -30.99,36.53 -32.38,40.53 -33.78,44.52 -34.58,47.68 -35.37,50.83 -36.46,54.74 -37.56,58.65 -38.85,61.26 -40.14,63.87 -41.20,66.34 -42.26,68.81 -42.90,71.41 -43.54,74.02 -43.93,76.28 -44.32,78.55 -45.19,81.37 -46.05,84.19 -46.02,86.40 -45.99,88.61 -44.96,90.49 -43.93,92.37 -42.15,95.08 -40.37,97.80 -37.99,101.08 -35.61,104.36 -34.27,106.86 -32.94,109.36 -31.27,111.23 -29.60,113.10 -28.32,115.11 -27.04,117.12 -25.63,119.04 -24.22,120.95 -22.41,122.65 -20.60,124.34 -18.42,125.56 -16.24,126.77 -14.19,127.48 -12.14,128.18 -9.82,129.07 -7.50,129.95 -4.67,130.90 -1.83,131.84 0.57,132.69 2.99,133.53 5.20,134.38 7.42,135.23 10.02,136.15 12.62,137.06 15.07,138.05 17.51,139.04 21.07,139.09 24.64,139.14 27.22,139.04 29.81,138.94 33.61,138.63 37.40,138.32 39.44,137.41 41.47,136.50 45.32,134.66 49.17,132.82 52.49,131.07 55.80,129.33 58.15,127.51 60.50,125.68 62.63,124.36 64.76,123.05 67.90,120.13 71.03,117.21 72.90,114.63 74.76,112.05 75.61,110.04 76.46,108.02 76.66,104.82 76.85,101.63 77.01,98.92 77.17,96.22 77.11,93.60 77.05,90.98 76.71,87.95 76.38,84.92 75.22,80.91 74.07,76.90 72.60,73.20 71.12,69.50 70.31,66.68 69.50,63.86 68.58,61.42 67.65,58.98 66.27,55.90 64.90,52.82 63.56,50.47 62.21,48.12 60.33,45.68 58.44,43.23 56.27,40.92 54.09,38.62 50.52,34.86 46.95,31.11 43.25,27.98 39.55,24.85 33.79,20.24 28.03,15.63 21.67,12.51 15.32,9.38 6.98,6.57 -1.35,3.75 -1.78,3.53 -2.21,3.31 -2.57,3.00 -2.94,2.69 -3.22,2.30 -3.50,1.91 -3.68,1.46 -3.85,1.01 -3.92,0.53 -3.98,0.06 -3.93,-0.41 -3.88,-0.89 -3.72,-1.34 -3.56,-1.79 -3.29,-2.19 -3.02,-2.59 -2.67,-2.92 -2.31,-3.24 -1.89,-3.47 -1.47,-3.70 -1.00,-3.82 -0.54,-3.95 -0.06,-3.95 0.41,-3.96 0.88,-3.85 1.35,-3.75 1.35,-3.75 L 1.35,-3.75 Z"></path></g><g transform="translate(78 115.60000610351562) rotate(0 120.40000915527344 -14.800003051757812)" stroke="none"><path fill="#1e1e1e" d="M -1.40,-2.99 Q -1.40,-2.99 2.54,-4.74 6.49,-6.50 10.40,-8.56 14.31,-10.62 19.47,-13.34 24.64,-16.06 29.97,-18.19 35.29,-20.31 40.25,-22.32 45.22,-24.34 51.13,-26.15 57.04,-27.96 61.68,-28.96 66.32,-29.97 69.88,-30.75 73.44,-31.54 77.72,-31.62 82.00,-31.70 85.67,-31.58 89.33,-31.47 92.66,-31.04 95.98,-30.60 99.74,-30.13 103.50,-29.66 106.22,-29.63 108.93,-29.59 111.62,-29.42 114.30,-29.24 116.67,-28.72 119.04,-28.21 122.07,-27.52 125.09,-26.83 127.75,-26.25 130.41,-25.66 132.95,-25.21 135.48,-24.76 138.53,-24.28 141.57,-23.81 146.10,-22.88 150.64,-21.95 154.27,-21.59 157.90,-21.24 161.33,-20.66 164.76,-20.09 167.68,-19.43 170.60,-18.77 172.78,-18.34 174.96,-17.90 178.31,-16.91 181.65,-15.92 186.42,-14.96 191.19,-14.00 194.56,-13.51 197.93,-13.02 200.79,-13.07 203.64,-13.12 206.58,-13.18 209.52,-13.25 211.89,-12.99 214.25,-12.74 218.81,-12.39 223.37,-12.03 225.60,-11.97 227.83,-11.91 230.44,-12.61 233.05,-13.31 235.69,-14.46 238.33,-15.62 239.36,-15.82 240.39,-16.01 241.44,-15.87 242.48,-15.73 243.42,-15.26 244.37,-14.79 245.11,-14.05 245.85,-13.30 246.32,-12.36 246.79,-11.42 246.93,-10.37 247.07,-9.33 246.87,-8.30 246.67,-7.26 246.15,-6.35 245.63,-5.43 244.85,-4.73 244.07,-4.03 243.10,-3.61 242.13,-3.20 241.08,-3.11 240.03,-3.03 239.01,-3.28 237.99,-3.54 237.10,-4.10 236.22,-4.67 235.56,-5.49 234.90,-6.31 234.54,-7.30 234.18,-8.29 234.15,-9.34 234.12,-10.39 234.43,-11.40 234.74,-12.41 235.35,-13.26 235.97,-14.12 236.83,-14.73 237.68,-15.34 238.69,-15.65 239.69,-15.96 240.75,-15.93 241.80,-15.90 242.79,-15.54 243.77,-15.17 244.59,-14.51 245.41,-13.85 245.98,-12.96 246.55,-12.08 246.80,-11.05 247.05,-10.03 246.96,-8.98 246.88,-7.93 246.46,-6.97 246.04,-6.00 245.34,-5.22 244.64,-4.44 243.72,-3.92 242.80,-3.40 242.80,-3.40 242.81,-3.40 241.27,-2.73 239.74,-2.05 236.40,-0.93 233.05,0.18 230.12,0.38 227.19,0.57 224.67,0.34 222.15,0.10 219.92,-0.07 217.70,-0.25 213.51,-0.71 209.32,-1.16 206.37,-1.26 203.42,-1.35 200.56,-1.59 197.70,-1.83 195.46,-2.46 193.22,-3.09 191.12,-3.46 189.01,-3.82 186.15,-4.39 183.28,-4.95 181.18,-5.43 179.08,-5.92 175.89,-7.15 172.70,-8.38 170.59,-9.44 168.47,-10.50 165.89,-11.26 163.31,-12.01 160.31,-12.59 157.31,-13.17 153.38,-13.36 149.44,-13.56 144.84,-13.92 140.24,-14.29 136.93,-14.71 133.62,-15.12 130.95,-15.68 128.29,-16.24 123.92,-17.48 119.54,-18.73 116.43,-20.00 113.31,-21.28 110.86,-21.73 108.41,-22.18 105.55,-22.54 102.69,-22.90 98.74,-23.36 94.79,-23.81 91.87,-24.48 88.95,-25.14 85.51,-25.45 82.07,-25.76 78.28,-25.74 74.50,-25.73 70.99,-25.21 67.48,-24.70 63.06,-23.72 58.64,-22.75 52.98,-20.99 47.32,-19.22 42.36,-17.16 37.41,-15.09 32.39,-13.03 27.37,-10.97 22.27,-8.17 17.17,-5.38 13.16,-3.11 9.14,-0.85 5.27,1.06 1.40,2.99 1.02,3.11 0.65,3.24 0.25,3.27 -0.14,3.30 -0.53,3.23 -0.92,3.17 -1.29,3.01 -1.66,2.85 -1.97,2.61 -2.29,2.37 -2.54,2.06 -2.79,1.75 -2.96,1.39 -3.13,1.03 -3.21,0.64 -3.29,0.25 -3.27,-0.14 -3.26,-0.54 -3.14,-0.92 -3.03,-1.30 -2.83,-1.65 -2.63,-1.99 -2.35,-2.28 -2.08,-2.56 -1.74,-2.77 -1.40,-2.99 -1.40,-2.99 L -1.40,-2.99 Z"></path></g><g transform="translate(181.20004272460938 64.39999389648438) rotate(0 14.79998779296875 26.800003051757812)" stroke="none"><path fill="#1e1e1e" d="M 2.26,-4.52 Q 2.26,-4.52 5.41,-2.78 8.57,-1.04 11.44,0.65 14.30,2.36 16.26,3.45 18.21,4.54 20.66,5.51 23.11,6.47 25.20,8.14 27.29,9.82 28.79,11.45 30.29,13.09 31.99,15.41 33.69,17.74 34.64,20.10 35.59,22.46 34.76,26.24 33.94,30.03 31.48,32.08 29.02,34.13 26.70,35.67 24.38,37.22 22.39,39.14 20.41,41.06 18.94,43.41 17.46,45.76 16.12,48.98 14.78,52.20 14.08,53.85 13.39,55.51 12.82,56.38 12.26,57.26 11.44,57.90 10.62,58.55 9.64,58.91 8.66,59.26 7.62,59.28 6.58,59.30 5.58,58.99 4.59,58.67 3.74,58.06 2.90,57.45 2.30,56.60 1.70,55.74 1.40,54.75 1.10,53.75 1.14,52.71 1.17,51.66 1.54,50.69 1.90,49.71 2.56,48.90 3.22,48.10 4.10,47.54 4.99,46.99 6.00,46.74 7.01,46.50 8.05,46.59 9.09,46.68 10.04,47.10 11.00,47.52 11.77,48.22 12.54,48.92 13.05,49.83 13.55,50.74 13.74,51.77 13.93,52.79 13.78,53.82 13.64,54.86 13.17,55.79 12.70,56.72 11.95,57.45 11.21,58.18 10.27,58.64 9.34,59.09 8.30,59.23 7.27,59.36 6.25,59.16 5.23,58.95 4.32,58.43 3.42,57.91 2.73,57.13 2.04,56.35 1.63,55.39 1.23,54.43 1.15,53.39 1.07,52.35 1.33,51.34 1.59,50.33 1.59,50.33 1.59,50.34 2.23,48.94 2.88,47.54 4.24,44.35 5.59,41.17 6.83,38.34 8.06,35.51 10.82,32.78 13.57,30.06 15.36,28.56 17.15,27.06 20.46,26.85 23.77,26.63 22.49,23.57 21.22,20.50 19.84,18.22 18.46,15.94 15.77,14.41 13.09,12.87 11.33,11.68 9.56,10.49 6.93,8.98 4.30,7.48 1.02,6.00 -2.26,4.52 -2.77,4.19 -3.28,3.85 -3.69,3.40 -4.10,2.95 -4.40,2.42 -4.69,1.88 -4.85,1.29 -5.01,0.70 -5.02,0.09 -5.03,-0.51 -4.90,-1.10 -4.76,-1.70 -4.49,-2.24 -4.22,-2.79 -3.82,-3.25 -3.42,-3.72 -2.93,-4.07 -2.43,-4.43 -1.87,-4.66 -1.30,-4.88 -0.70,-4.97 -0.09,-5.05 0.50,-4.99 1.11,-4.93 1.68,-4.73 2.26,-4.52 2.26,-4.52 L 2.26,-4.52 Z"></path></g><g transform="translate(210.80001831054688 10) rotate(0 -26 12)" stroke="none"><path fill="#1e1e1e" d="M 2.93,3.42 Q 2.93,3.42 -0.44,5.99 -3.82,8.57 -8.53,12.36 -13.24,16.15 -18.23,19.24 -23.21,22.32 -26.89,23.81 -30.57,25.30 -33.40,26.10 -36.24,26.89 -39.08,26.84 -41.93,26.80 -44.45,25.99 -46.97,25.18 -49.09,23.69 -51.20,22.20 -53.27,19.96 -55.33,17.73 -56.15,14.98 -56.96,12.23 -55.09,9.23 -53.23,6.23 -51.03,5.61 -48.84,4.99 -45.98,4.93 -43.12,4.86 -40.14,5.11 -37.16,5.35 -33.90,6.02 -30.64,6.68 -28.20,7.14 -25.75,7.59 -23.16,8.04 -20.56,8.49 -17.79,9.07 -15.02,9.65 -12.52,10.07 -10.01,10.49 -7.38,11.52 -4.75,12.54 -2.59,13.87 -0.42,15.20 0.53,15.63 1.49,16.05 2.26,16.76 3.03,17.46 3.54,18.38 4.05,19.30 4.24,20.33 4.42,21.36 4.27,22.40 4.12,23.44 3.65,24.37 3.17,25.31 2.42,26.04 1.67,26.78 0.73,27.24 -0.20,27.69 -1.24,27.82 -2.28,27.96 -3.31,27.75 -4.34,27.54 -5.25,27.02 -6.16,26.49 -6.85,25.70 -7.54,24.92 -7.95,23.95 -8.35,22.98 -8.43,21.94 -8.50,20.89 -8.24,19.87 -7.98,18.86 -7.40,17.98 -6.83,17.10 -6.01,16.45 -5.18,15.80 -4.19,15.45 -3.21,15.10 -2.16,15.08 -1.11,15.06 -0.11,15.38 0.88,15.70 1.73,16.32 2.57,16.94 3.17,17.80 3.78,18.65 4.08,19.66 4.37,20.67 4.34,21.71 4.30,22.76 3.93,23.74 3.55,24.72 2.89,25.53 2.22,26.35 1.34,26.90 0.45,27.46 -0.56,27.70 -1.58,27.94 -2.63,27.85 -3.67,27.75 -3.67,27.75 -3.67,27.75 -6.04,26.74 -8.42,25.72 -11.34,23.94 -14.26,22.16 -17.85,21.04 -21.44,19.93 -24.61,19.08 -27.79,18.23 -30.18,17.76 -32.58,17.29 -35.29,16.87 -38.00,16.44 -40.42,16.28 -42.84,16.12 -44.53,14.79 -46.23,13.46 -44.85,15.30 -43.47,17.13 -40.59,18.30 -37.70,19.47 -35.36,19.16 -33.03,18.85 -29.94,17.75 -26.85,16.65 -22.42,13.63 -17.98,10.61 -13.52,6.54 -9.05,2.46 -5.99,-0.47 -2.93,-3.42 -2.48,-3.72 -2.02,-4.02 -1.51,-4.20 -1.00,-4.39 -0.46,-4.45 0.07,-4.50 0.61,-4.43 1.15,-4.35 1.65,-4.15 2.15,-3.95 2.60,-3.64 3.04,-3.32 3.39,-2.91 3.75,-2.49 3.99,-2.01 4.24,-1.52 4.36,-0.99 4.48,-0.46 4.47,0.07 4.46,0.61 4.32,1.14 4.18,1.66 3.92,2.14 3.66,2.62 3.29,3.02 2.93,3.42 2.93,3.42 L 2.93,3.42 Z"></path></g><g transform="translate(10 63.600006103515625) rotate(0 12.800003051757812 14.79998779296875)" stroke="none"><path fill="#1e1e1e" d="M 2.73,-3.95 Q 2.73,-3.95 5.65,-1.78 8.57,0.39 11.64,2.80 14.70,5.20 17.66,7.67 20.61,10.14 23.66,12.33 26.71,14.52 28.35,17.07 29.98,19.62 30.32,21.88 30.66,24.14 29.87,26.29 29.07,28.43 27.43,29.81 25.78,31.20 23.76,32.54 21.75,33.89 19.28,34.71 16.82,35.52 13.96,35.72 11.09,35.92 8.06,35.64 5.03,35.35 3.98,35.17 2.94,34.99 2.00,34.49 1.07,33.99 0.35,33.21 -0.37,32.44 -0.81,31.47 -1.24,30.50 -1.35,29.45 -1.46,28.39 -1.22,27.36 -0.99,26.33 -0.43,25.42 0.11,24.52 0.92,23.84 1.74,23.16 2.72,22.77 3.71,22.39 4.77,22.34 5.83,22.29 6.85,22.58 7.87,22.87 8.74,23.47 9.61,24.07 10.25,24.92 10.89,25.77 11.22,26.78 11.55,27.78 11.54,28.84 11.53,29.90 11.19,30.91 10.84,31.91 10.19,32.75 9.55,33.59 8.66,34.18 7.78,34.76 6.76,35.04 5.73,35.32 4.68,35.25 3.62,35.19 2.64,34.79 1.65,34.39 0.85,33.69 0.05,33.00 -0.48,32.09 -1.02,31.18 -1.24,30.14 -1.46,29.10 -1.34,28.05 -1.22,27.00 -0.77,26.04 -0.31,25.08 0.41,24.31 1.15,23.55 2.09,23.06 3.03,22.57 4.07,22.41 5.12,22.24 5.12,22.24 5.12,22.24 7.98,22.42 10.84,22.60 12.99,23.35 15.15,24.09 17.72,23.80 20.28,23.52 19.60,21.42 18.91,19.33 17.21,17.93 15.51,16.53 12.60,14.32 9.69,12.10 6.54,9.99 3.38,7.88 0.32,5.92 -2.73,3.95 -3.17,3.56 -3.60,3.18 -3.93,2.70 -4.26,2.22 -4.46,1.68 -4.67,1.14 -4.73,0.56 -4.80,-0.00 -4.73,-0.58 -4.66,-1.15 -4.46,-1.69 -4.25,-2.24 -3.92,-2.71 -3.59,-3.19 -3.16,-3.57 -2.72,-3.96 -2.21,-4.23 -1.69,-4.49 -1.13,-4.63 -0.57,-4.77 0.00,-4.77 0.58,-4.77 1.14,-4.63 1.71,-4.49 2.22,-4.22 2.73,-3.95 2.73,-3.95 L 2.73,-3.95 Z"></path></g><g transform="translate(49.20001220703125 56.399993896484375) rotate(0 -5.600006103515625 16)" stroke="none"><path fill="#1e1e1e" d="M 4.46,2.79 Q 4.46,2.79 3.36,4.65 2.25,6.52 0.55,9.68 -1.13,12.83 -2.90,15.34 -4.67,17.85 -5.99,20.08 -7.31,22.31 -4.74,22.83 -2.17,23.35 1.65,24.59 5.48,25.83 6.35,26.53 7.22,27.23 7.82,28.16 8.42,29.10 8.70,30.18 8.97,31.26 8.88,32.37 8.79,33.48 8.35,34.50 7.91,35.53 7.17,36.36 6.43,37.19 5.46,37.74 4.49,38.29 3.40,38.50 2.31,38.71 1.20,38.57 0.10,38.42 -0.89,37.92 -1.89,37.43 -2.68,36.65 -3.46,35.86 -3.96,34.86 -4.46,33.87 -4.61,32.76 -4.76,31.66 -4.56,30.57 -4.35,29.47 -3.80,28.50 -3.26,27.53 -2.43,26.79 -1.60,26.04 -0.58,25.60 0.43,25.16 1.54,25.06 2.65,24.97 3.73,25.24 4.81,25.50 5.75,26.10 6.69,26.70 7.39,27.57 8.09,28.43 8.48,29.48 8.86,30.52 8.90,31.64 8.93,32.75 8.60,33.81 8.28,34.88 7.63,35.79 6.98,36.69 6.08,37.34 5.18,37.99 4.11,38.32 3.05,38.65 1.94,38.62 0.82,38.60 -0.21,38.21 -1.26,37.83 -1.26,37.83 -1.26,37.83 -4.33,36.94 -7.40,36.05 -9.78,35.16 -12.16,34.26 -14.59,32.93 -17.02,31.59 -18.22,29.50 -19.42,27.41 -19.68,24.92 -19.93,22.43 -19.03,19.54 -18.13,16.64 -16.41,14.43 -14.68,12.22 -12.69,9.60 -10.71,6.98 -8.78,3.90 -6.85,0.83 -5.66,-0.97 -4.46,-2.79 -4.06,-3.28 -3.66,-3.78 -3.16,-4.16 -2.65,-4.54 -2.07,-4.80 -1.49,-5.05 -0.86,-5.15 -0.23,-5.26 0.39,-5.21 1.02,-5.16 1.63,-4.97 2.23,-4.77 2.77,-4.43 3.31,-4.09 3.75,-3.64 4.19,-3.18 4.51,-2.63 4.83,-2.09 5.01,-1.48 5.19,-0.87 5.22,-0.23 5.25,0.39 5.13,1.01 5.00,1.64 4.73,2.21 4.46,2.79 4.46,2.79 L 4.46,2.79 Z"></path></g><g transform="translate(73.20001220703125 80.39999389648438) rotate(0 4.800018310546875 5.1999969482421875)" stroke="none"><path fill="#1e1e1e" d="M 4.53,2.26 Q 4.53,2.26 3.92,3.68 3.31,5.10 5.19,6.22 7.07,7.34 6.12,5.26 5.16,3.18 5.13,0.68 5.09,-1.81 7.17,0.95 9.25,3.71 8.17,3.44 7.08,3.17 6.14,2.56 5.19,1.96 4.50,1.08 3.80,0.21 3.41,-0.83 3.03,-1.89 3.00,-3.01 2.97,-4.12 3.30,-5.19 3.63,-6.26 4.29,-7.17 4.94,-8.08 5.85,-8.73 6.77,-9.38 7.84,-9.71 8.91,-10.03 10.03,-10.00 11.15,-9.97 12.20,-9.58 13.25,-9.19 14.12,-8.49 14.99,-7.79 15.59,-6.84 16.19,-5.90 16.46,-4.81 16.73,-3.72 16.63,-2.61 16.54,-1.49 16.09,-0.46 15.65,0.55 14.90,1.39 14.15,2.22 13.17,2.77 12.20,3.32 11.10,3.52 10.00,3.73 8.89,3.58 7.78,3.43 6.78,2.93 5.78,2.43 4.99,1.63 4.20,0.84 3.70,-0.16 3.21,-1.16 3.06,-2.27 2.91,-3.38 3.12,-4.48 3.34,-5.58 3.89,-6.55 4.44,-7.52 5.28,-8.27 6.11,-9.02 7.14,-9.46 8.17,-9.90 9.29,-9.98 10.40,-10.07 10.40,-10.07 10.40,-10.07 14.62,-5.09 18.84,-0.11 18.65,2.30 18.47,4.71 18.07,7.64 17.68,10.57 16.84,13.40 16.00,16.23 13.97,17.68 11.94,19.12 8.85,19.52 5.77,19.91 3.61,19.24 1.44,18.57 -1.12,17.28 -3.69,15.99 -5.48,13.42 -7.27,10.84 -7.43,7.61 -7.60,4.38 -6.84,2.40 -6.07,0.41 -5.30,-0.92 -4.53,-2.26 -4.19,-2.77 -3.85,-3.28 -3.40,-3.69 -2.95,-4.11 -2.42,-4.40 -1.88,-4.70 -1.29,-4.85 -0.70,-5.01 -0.09,-5.02 0.51,-5.04 1.10,-4.90 1.70,-4.77 2.24,-4.49 2.79,-4.22 3.26,-3.82 3.72,-3.43 4.08,-2.93 4.43,-2.44 4.66,-1.87 4.89,-1.30 4.98,-0.70 5.06,-0.09 5.00,0.50 4.94,1.11 4.73,1.69 4.53,2.26 4.53,2.26 L 4.53,2.26 Z"></path></g><g transform="translate(308.3999938964844 97.19998168945312) rotate(0 22 19.600006103515625)" stroke="none"><path fill="#1e1e1e" d="M 0,-5.17 Q 0,-5.17 3.44,-5.05 6.89,-4.92 9.51,-4.96 12.13,-4.99 16.10,-4.90 20.08,-4.81 23.55,-4.27 27.01,-3.74 29.28,-3.03 31.55,-2.33 34.88,-0.94 38.22,0.43 40.22,1.89 42.23,3.34 44.75,5.91 47.28,8.48 48.55,11.17 49.83,13.86 50.12,16.84 50.41,19.82 50.18,23.70 49.95,27.58 49.51,30.51 49.07,33.43 46.25,36.69 43.43,39.95 41.07,41.29 38.71,42.62 35.93,44.16 33.15,45.70 32.06,45.79 30.96,45.89 29.90,45.64 28.83,45.38 27.90,44.80 26.97,44.21 26.28,43.36 25.58,42.51 25.20,41.48 24.81,40.46 24.77,39.36 24.73,38.26 25.05,37.21 25.36,36.16 26.00,35.26 26.63,34.37 27.52,33.72 28.40,33.07 29.45,32.74 30.50,32.41 31.59,32.43 32.69,32.45 33.72,32.82 34.76,33.19 35.62,33.88 36.48,34.56 37.08,35.48 37.67,36.40 37.95,37.46 38.22,38.52 38.14,39.62 38.06,40.71 37.63,41.72 37.21,42.74 36.48,43.56 35.75,44.38 34.80,44.93 33.85,45.48 32.77,45.69 31.70,45.91 30.61,45.77 29.52,45.63 28.53,45.15 27.55,44.67 26.76,43.90 25.98,43.13 25.49,42.15 24.99,41.17 24.84,40.08 24.68,38.99 24.88,37.91 25.08,36.83 25.61,35.88 26.14,34.92 26.95,34.18 27.77,33.44 28.77,33.00 29.78,32.55 29.77,32.56 29.77,32.56 30.72,31.82 31.66,31.08 34.25,30.18 36.83,29.27 37.17,26.49 37.50,23.72 37.61,20.36 37.72,17.00 35.99,14.80 34.26,12.61 32.66,11.04 31.06,9.46 27.74,8.26 24.41,7.06 21.46,6.39 18.52,5.73 15.32,5.36 12.13,4.99 9.51,4.96 6.89,4.92 3.44,5.05 0,5.17 -0.61,5.10 -1.23,5.02 -1.82,4.80 -2.40,4.58 -2.92,4.23 -3.43,3.87 -3.84,3.40 -4.26,2.94 -4.55,2.38 -4.84,1.83 -4.99,1.23 -5.14,0.62 -5.14,-0.00 -5.14,-0.62 -4.99,-1.23 -4.84,-1.83 -4.55,-2.38 -4.26,-2.94 -3.84,-3.40 -3.43,-3.87 -2.91,-4.23 -2.40,-4.58 -1.82,-4.80 -1.23,-5.02 -0.61,-5.10 0.00,-5.17 0.00,-5.17 L 0,-5.17 Z"></path></g><g transform="translate(365.2000427246094 86.79998779296875) rotate(0 1.199981689453125 20)" stroke="none"><path fill="#1e1e1e" d="M 4.44,2.54 Q 4.44,2.54 2.45,5.67 0.46,8.80 -0.40,10.76 -1.28,12.72 -2.12,16.03 -2.96,19.33 -3.40,21.61 -3.84,23.90 -4.13,26.28 -4.42,28.67 -4.72,30.88 -5.01,33.10 -3.18,31.95 -1.35,30.80 1.89,31.87 5.13,32.95 7.39,33.08 9.65,33.20 11.50,33.22 13.34,33.23 14.42,33.41 15.50,33.60 16.46,34.11 17.43,34.63 18.18,35.43 18.92,36.23 19.38,37.23 19.83,38.22 19.94,39.31 20.05,40.40 19.81,41.47 19.57,42.54 19.00,43.47 18.43,44.40 17.59,45.11 16.75,45.81 15.74,46.21 14.72,46.61 13.62,46.66 12.53,46.71 11.48,46.42 10.42,46.12 9.52,45.50 8.62,44.88 7.96,44.00 7.31,43.13 6.96,42.09 6.62,41.05 6.63,39.95 6.63,38.86 6.99,37.82 7.34,36.79 8.01,35.92 8.68,35.05 9.59,34.44 10.50,33.84 11.56,33.55 12.61,33.26 13.70,33.33 14.80,33.40 15.81,33.81 16.83,34.22 17.66,34.93 18.49,35.65 19.04,36.59 19.60,37.53 19.83,38.60 20.06,39.67 19.93,40.76 19.81,41.84 19.34,42.83 18.88,43.82 18.12,44.61 17.36,45.40 16.39,45.91 15.42,46.42 14.34,46.59 13.26,46.76 13.26,46.76 13.26,46.76 11.12,46.72 8.98,46.68 6.67,46.47 4.36,46.26 1.08,45.41 -2.19,44.57 -4.98,43.72 -7.77,42.87 -11.68,40.67 -15.59,38.47 -16.49,35.26 -17.39,32.04 -16.85,29.80 -16.31,27.56 -15.71,25.18 -15.11,22.81 -14.12,19.70 -13.12,16.60 -12.47,14.49 -11.82,12.38 -10.97,10.38 -10.12,8.38 -8.97,6.22 -7.82,4.07 -6.13,0.76 -4.44,-2.54 -4.07,-3.03 -3.71,-3.53 -3.23,-3.92 -2.75,-4.31 -2.20,-4.58 -1.64,-4.85 -1.03,-4.97 -0.43,-5.10 0.18,-5.08 0.79,-5.06 1.39,-4.89 1.98,-4.72 2.52,-4.41 3.05,-4.10 3.50,-3.68 3.95,-3.25 4.28,-2.73 4.61,-2.21 4.81,-1.63 5.01,-1.04 5.06,-0.43 5.12,0.18 5.02,0.79 4.92,1.40 4.68,1.97 4.44,2.54 4.44,2.54 L 4.44,2.54 Z"></path></g><g transform="translate(398.0000305175781 122) rotate(0 1.600006103515625 11.199996948242188)" stroke="none"><path fill="#1e1e1e" d="M 4.90,-0.28 Q 4.90,-0.28 4.92,3.63 4.95,7.55 5.62,10.28 6.29,13.01 6.64,15.36 6.98,17.71 6.59,17.70 6.20,17.69 6.85,18.31 7.50,18.94 7.92,19.73 8.34,20.53 8.48,21.43 8.63,22.32 8.48,23.21 8.33,24.10 7.90,24.89 7.47,25.69 6.81,26.31 6.16,26.92 5.34,27.30 4.51,27.68 3.62,27.77 2.72,27.86 1.84,27.66 0.96,27.47 0.19,27.00 -0.57,26.53 -1.16,25.84 -1.74,25.15 -2.07,24.31 -2.40,23.47 -2.44,22.57 -2.49,21.66 -2.24,20.80 -2.00,19.93 -1.49,19.18 -0.98,18.44 -0.26,17.89 0.45,17.35 1.31,17.07 2.17,16.78 3.07,16.79 3.97,16.79 4.83,17.08 5.68,17.38 6.40,17.92 7.11,18.47 7.62,19.22 8.12,19.97 8.36,20.84 8.60,21.71 8.54,22.62 8.49,23.52 8.15,24.35 7.81,25.19 7.23,25.88 6.64,26.56 5.86,27.02 5.09,27.49 4.20,27.68 3.32,27.87 2.43,27.76 1.53,27.66 0.71,27.28 -0.10,26.90 -0.10,26.90 -0.10,26.90 -1.90,21.98 -3.71,17.06 -3.63,14.73 -3.55,12.41 -3.79,10.25 -4.03,8.08 -4.46,4.18 -4.90,0.28 -4.86,-0.30 -4.83,-0.89 -4.65,-1.45 -4.47,-2.02 -4.16,-2.52 -3.86,-3.03 -3.44,-3.45 -3.02,-3.87 -2.51,-4.17 -2.00,-4.48 -1.44,-4.65 -0.87,-4.83 -0.28,-4.86 0.30,-4.90 0.88,-4.79 1.46,-4.68 2.00,-4.44 2.54,-4.19 3.01,-3.83 3.47,-3.46 3.84,-3.00 4.20,-2.53 4.45,-1.99 4.69,-1.45 4.79,-0.87 4.90,-0.28 4.90,-0.28 L 4.90,-0.28 Z"></path></g><g transform="translate(98.80001831054688 244.39999389648438) rotate(0 13.20001220703125 22.000015258789062)" stroke="none"><path fill="#1e1e1e" d="M 3.03,-3.50 Q 3.03,-3.50 7.91,1.06 12.80,5.62 15.80,8.56 18.79,11.49 20.76,13.37 22.74,15.24 24.73,16.60 26.73,17.96 27.34,17.93 27.95,17.89 28.44,18.22 28.92,18.55 29.32,18.99 29.71,19.43 29.98,19.94 30.26,20.46 30.40,21.03 30.55,21.60 30.55,22.19 30.55,22.78 30.42,23.35 30.28,23.92 30.01,24.44 29.74,24.96 29.35,25.41 28.96,25.85 28.48,26.18 28.00,26.52 27.45,26.73 26.90,26.94 26.32,27.02 25.74,27.09 25.15,27.02 24.57,26.96 24.02,26.75 23.47,26.55 25.77,26.19 28.07,25.83 25.54,26.63 23.01,27.44 21.25,28.89 19.48,30.33 18.06,32.03 16.64,33.73 15.23,35.66 13.83,37.60 12.29,40.71 10.75,43.82 9.41,45.83 8.07,47.85 7.32,48.36 6.57,48.87 5.70,49.11 4.82,49.35 3.92,49.30 3.01,49.25 2.17,48.92 1.33,48.58 0.64,48.00 -0.04,47.41 -0.51,46.63 -0.98,45.86 -1.17,44.97 -1.36,44.08 -1.27,43.18 -1.17,42.28 -0.79,41.46 -0.41,40.64 0.21,39.98 0.83,39.32 1.63,38.90 2.43,38.47 3.33,38.33 4.22,38.18 5.12,38.33 6.01,38.47 6.81,38.90 7.61,39.32 8.23,39.98 8.86,40.64 9.24,41.46 9.62,42.28 9.72,43.19 9.81,44.09 9.62,44.97 9.42,45.86 8.96,46.63 8.49,47.41 7.80,48.00 7.11,48.58 6.26,48.92 5.42,49.25 4.52,49.30 3.61,49.35 2.74,49.11 1.87,48.87 1.12,48.36 0.37,47.85 -0.17,47.13 -0.72,46.40 -1.01,45.55 -1.30,44.69 -1.30,43.78 -1.30,42.87 -1.01,42.02 -0.72,41.16 -0.17,40.43 0.37,39.71 0.37,39.71 0.37,39.71 1.43,37.84 2.50,35.96 3.83,33.63 5.16,31.29 6.87,28.96 8.57,26.63 12.21,23.23 15.84,19.84 19.53,19.32 23.21,18.81 25.58,18.35 27.95,17.89 28.44,18.22 28.92,18.55 29.32,18.99 29.71,19.43 29.98,19.94 30.26,20.46 30.40,21.03 30.55,21.60 30.55,22.19 30.55,22.78 30.42,23.35 30.28,23.92 30.01,24.44 29.74,24.96 29.35,25.41 28.96,25.85 28.48,26.18 28.00,26.52 27.45,26.73 26.90,26.94 26.32,27.02 25.74,27.09 25.16,27.02 24.57,26.96 24.02,26.75 23.47,26.55 22.07,25.70 20.66,24.86 18.75,22.84 16.84,20.82 15.28,18.95 13.72,17.09 10.58,14.47 7.43,11.85 2.20,7.67 -3.03,3.50 -3.40,3.09 -3.78,2.68 -4.04,2.19 -4.31,1.69 -4.45,1.15 -4.59,0.61 -4.60,0.05 -4.60,-0.50 -4.48,-1.04 -4.35,-1.58 -4.10,-2.08 -3.84,-2.58 -3.48,-3.00 -3.11,-3.43 -2.66,-3.75 -2.20,-4.07 -1.68,-4.28 -1.16,-4.48 -0.61,-4.56 -0.05,-4.63 0.49,-4.57 1.05,-4.51 1.57,-4.32 2.10,-4.13 2.56,-3.82 3.03,-3.50 3.03,-3.50 L 3.03,-3.50 Z"></path></g><g transform="translate(180.39999389648438 262.79998779296875) rotate(0 -4.79998779296875 31.600006103515625)" stroke="none"><path fill="#1e1e1e" d="M 2.84,4.26 Q 2.84,4.26 0.92,5.50 -0.98,6.75 -1.85,10.32 -2.72,13.89 -3.23,16.49 -3.73,19.10 -3.89,22.84 -4.05,26.59 -4.06,28.83 -4.07,31.07 -3.79,34.36 -3.51,37.65 -3.25,40.40 -2.98,43.15 -2.38,45.90 -1.78,48.65 -1.66,51.48 -1.53,54.30 -1.36,58.47 -1.20,62.64 -1.34,63.60 -1.48,64.56 -1.93,65.43 -2.37,66.29 -3.06,66.97 -3.76,67.65 -4.63,68.07 -5.51,68.49 -6.47,68.61 -7.44,68.73 -8.39,68.53 -9.34,68.34 -10.18,67.85 -11.02,67.36 -11.66,66.63 -12.30,65.90 -12.68,65.00 -13.05,64.10 -13.11,63.13 -13.18,62.16 -12.94,61.22 -12.69,60.28 -12.16,59.47 -11.62,58.66 -10.86,58.06 -10.09,57.46 -9.18,57.14 -8.26,56.81 -7.29,56.80 -6.32,56.79 -5.39,57.08 -4.47,57.38 -3.68,57.96 -2.90,58.53 -2.34,59.33 -1.79,60.13 -1.51,61.06 -1.24,61.99 -1.28,62.96 -1.32,63.93 -1.66,64.84 -2.01,65.75 -2.63,66.50 -3.25,67.25 -4.07,67.76 -4.90,68.27 -5.84,68.50 -6.79,68.72 -7.76,68.63 -8.73,68.54 -9.61,68.14 -10.50,67.75 -11.22,67.09 -11.93,66.43 -12.40,65.58 -12.87,64.73 -13.04,63.77 -13.21,62.81 -13.21,62.81 -13.21,62.81 -13.24,58.89 -13.28,54.96 -13.70,50.89 -14.11,46.82 -14.41,44.39 -14.70,41.97 -14.90,38.59 -15.11,35.21 -15.05,33.04 -15.00,30.88 -14.93,28.50 -14.86,26.12 -14.38,21.67 -13.90,17.22 -13.35,14.10 -12.79,10.97 -11.94,8.21 -11.08,5.45 -9.18,2.11 -7.29,-1.23 -5.06,-2.74 -2.84,-4.26 -2.28,-4.53 -1.73,-4.81 -1.13,-4.95 -0.53,-5.09 0.08,-5.08 0.69,-5.07 1.29,-4.91 1.89,-4.75 2.43,-4.46 2.97,-4.16 3.43,-3.75 3.88,-3.33 4.23,-2.82 4.57,-2.30 4.78,-1.72 4.99,-1.14 5.05,-0.53 5.12,0.08 5.03,0.69 4.95,1.30 4.72,1.87 4.49,2.45 4.13,2.95 3.77,3.45 3.30,3.86 2.84,4.26 2.84,4.26 L 2.84,4.26 Z"></path></g><g transform="translate(150.00003051757812 310.79998779296875) rotate(0 21.600006103515625 -0.79998779296875)" stroke="none"><path fill="#1e1e1e" d="M -0.42,-5.06 Q -0.42,-5.06 2.33,-5.29 5.09,-5.52 7.27,-5.88 9.44,-6.24 14.77,-6.46 20.10,-6.68 23.26,-6.44 26.42,-6.20 29.43,-6.25 32.45,-6.30 34.94,-6.48 37.43,-6.66 40.18,-6.75 42.93,-6.85 43.90,-6.69 44.86,-6.53 45.73,-6.07 46.59,-5.61 47.27,-4.90 47.94,-4.19 48.35,-3.30 48.76,-2.41 48.87,-1.44 48.98,-0.47 48.76,0.48 48.55,1.44 48.05,2.28 47.54,3.11 46.80,3.75 46.05,4.38 45.14,4.75 44.23,5.11 43.25,5.16 42.27,5.21 41.33,4.95 40.39,4.69 39.58,4.14 38.77,3.59 38.17,2.81 37.58,2.03 37.27,1.10 36.96,0.17 36.96,-0.80 36.96,-1.78 37.27,-2.70 37.58,-3.63 38.17,-4.41 38.77,-5.19 39.58,-5.74 40.39,-6.29 41.33,-6.55 42.28,-6.81 43.26,-6.76 44.23,-6.71 45.14,-6.34 46.05,-5.98 46.80,-5.35 47.55,-4.71 48.05,-3.87 48.56,-3.03 48.77,-2.08 48.98,-1.12 48.87,-0.15 48.76,0.82 48.35,1.71 47.94,2.59 47.27,3.30 46.59,4.02 45.73,4.47 44.86,4.93 43.89,5.09 42.93,5.25 42.93,5.25 42.93,5.25 40.17,5.15 37.40,5.05 34.78,4.82 32.16,4.59 28.93,4.29 25.70,3.99 23.00,3.83 20.29,3.66 15.59,3.83 10.88,4.01 8.41,4.30 5.94,4.60 3.18,4.83 0.42,5.06 -0.19,5.03 -0.80,5.01 -1.39,4.84 -1.97,4.67 -2.51,4.37 -3.04,4.06 -3.48,3.64 -3.92,3.22 -4.25,2.70 -4.58,2.18 -4.77,1.60 -4.97,1.02 -5.02,0.41 -5.07,-0.19 -4.97,-0.79 -4.88,-1.40 -4.64,-1.96 -4.40,-2.52 -4.03,-3.01 -3.67,-3.51 -3.19,-3.89 -2.72,-4.28 -2.17,-4.55 -1.62,-4.81 -1.02,-4.93 -0.42,-5.06 -0.42,-5.06 L -0.42,-5.06 Z"></path></g></svg>