<svg version="1.1" xmlns="http://www.w3.org/2000/svg" viewBox="0 0 550.933346218533 350.844482421875" width="550.933346218533" height="350.844482421875" class="excalidraw-svg"><!-- svg-source:excalidraw --><metadata></metadata><defs><style class="style-fonts">
      </style></defs><rect x="0" y="0" width="550.933346218533" height="350.844482421875" fill="#ffffff"></rect><g stroke-linecap="round" transform="translate(80.31111145019537 10) rotate(0 227.55554283989795 165.4222412109375)"><path d="M32 0 C173.54 0.02, 312.89 0.27, 423.11 0 M32 0 C186.38 0.19, 341.41 -0.18, 423.11 0 M423.11 0 C445.02 1.7, 456.87 9.6, 455.11 32 M423.11 0 C444.52 -0.62, 453.4 10.54, 455.11 32 M455.11 32 C453.83 117.72, 452.98 202, 455.11 298.84 M455.11 32 C452.87 99.02, 453.5 166.86, 455.11 298.84 M455.11 298.84 C453.9 319.53, 442.47 328.98, 423.11 330.84 M455.11 298.84 C454.86 318.36, 446.42 332.8, 423.11 330.84 M423.11 330.84 C302.68 329.62, 183.54 330.54, 32 330.84 M423.11 330.84 C271.78 329.5, 119.74 328.89, 32 330.84 M32 330.84 C11.2 331.63, 1.86 319.25, 0 298.84 M32 330.84 C12.64 331.93, -0.11 320.61, 0 298.84 M0 298.84 C-0.27 231.63, -2.59 162.86, 0 32 M0 298.84 C0.84 242.07, 0.62 184.66, 0 32 M0 32 C-1.33 11.83, 8.91 1.63, 32 0 M0 32 C-1.35 11.62, 10.41 -1.39, 32 0" stroke="#1e1e1e" stroke-width="2" fill="none"></path></g><g transform="translate(46.977778116862 66.62227715386288) rotate(0 0.40000152587890625 0)" stroke="none"><path fill="#1e1e1e" d="M 0.46,-2.31 Q 0.46,-2.31 0.82,-2.25 1.19,-2.19 1.53,-2.01 1.86,-1.84 2.11,-1.57 2.37,-1.30 2.53,-0.95 2.69,-0.61 2.73,-0.24 2.77,0.12 2.69,0.49 2.61,0.85 2.41,1.17 2.22,1.49 1.93,1.74 1.65,1.98 1.30,2.12 0.95,2.26 0.58,2.28 0.20,2.30 -0.15,2.20 -0.51,2.10 -0.82,1.89 -1.13,1.68 -1.36,1.38 -1.58,1.08 -1.70,0.72 -1.82,0.37 -1.82,-0.00 -1.82,-0.37 -1.70,-0.73 -1.58,-1.08 -1.35,-1.38 -1.13,-1.68 -0.82,-1.89 -0.51,-2.10 -0.15,-2.20 0.20,-2.30 0.58,-2.28 0.95,-2.26 1.30,-2.12 1.65,-1.98 1.94,-1.74 2.22,-1.49 2.41,-1.17 2.61,-0.85 2.69,-0.49 2.77,-0.12 2.73,0.24 2.69,0.62 2.53,0.96 2.37,1.30 2.11,1.57 1.86,1.84 1.53,2.02 1.19,2.19 0.82,2.25 0.45,2.31 0.45,2.31 0.46,2.31 0.17,2.33 -0.10,2.35 -0.38,2.31 -0.66,2.26 -0.93,2.15 -1.19,2.03 -1.41,1.86 -1.64,1.69 -1.82,1.47 -2.00,1.25 -2.12,0.99 -2.24,0.73 -2.29,0.45 -2.35,0.17 -2.34,-0.10 -2.32,-0.39 -2.24,-0.66 -2.16,-0.93 -2.02,-1.18 -1.88,-1.42 -1.68,-1.63 -1.48,-1.83 -1.24,-1.98 -1.00,-2.13 -0.73,-2.22 -0.45,-2.31 0.00,-2.31 L 0.46,-2.31 Z"></path></g><g transform="translate(56.57778422037762 42.62227715386288) rotate(0 2 19.600006103515625)" stroke="none"><path fill="#1e1e1e" d="M 1.86,-0.53 Q 1.86,-0.53 2.70,2.71 3.54,5.95 4.11,8.76 4.68,11.57 4.92,14.46 5.15,17.34 5.24,20.41 5.32,23.47 5.34,26.38 5.37,29.29 5.37,31.91 5.37,34.53 3.64,37.20 1.90,39.87 1.66,39.84 1.43,39.81 1.21,39.70 1.00,39.59 0.83,39.42 0.66,39.25 0.55,39.04 0.44,38.82 0.41,38.59 0.38,38.35 0.42,38.11 0.47,37.88 0.59,37.67 0.70,37.46 0.88,37.30 1.06,37.14 1.28,37.04 1.50,36.95 1.74,36.93 1.98,36.91 2.21,36.97 2.45,37.02 2.65,37.15 2.85,37.28 3.00,37.47 3.15,37.66 3.24,37.88 3.32,38.11 3.33,38.35 3.33,38.59 3.26,38.82 3.19,39.05 3.05,39.24 2.91,39.44 2.72,39.58 2.52,39.72 2.29,39.79 2.06,39.86 1.82,39.85 1.58,39.85 1.36,39.76 1.13,39.68 0.94,39.53 0.76,39.38 0.63,39.18 0.50,38.98 0.44,38.74 0.38,38.51 0.40,38.27 0.42,38.03 0.52,37.81 0.61,37.59 0.77,37.41 0.93,37.23 1.14,37.11 1.35,36.99 1.58,36.95 1.82,36.90 1.82,36.90 1.82,36.90 2.19,35.73 2.56,34.55 2.52,31.94 2.48,29.34 2.41,26.46 2.34,23.58 2.20,20.61 2.06,17.64 1.76,14.96 1.47,12.29 0.80,9.61 0.13,6.92 -0.86,3.72 -1.86,0.53 -1.89,0.30 -1.93,0.07 -1.91,-0.16 -1.89,-0.39 -1.82,-0.61 -1.74,-0.83 -1.62,-1.03 -1.49,-1.23 -1.32,-1.39 -1.15,-1.55 -0.95,-1.66 -0.75,-1.78 -0.52,-1.84 -0.30,-1.91 -0.07,-1.92 0.16,-1.93 0.39,-1.88 0.62,-1.83 0.83,-1.73 1.04,-1.63 1.22,-1.48 1.40,-1.33 1.54,-1.14 1.68,-0.96 1.77,-0.74 1.86,-0.53 1.86,-0.53 L 1.86,-0.53 Z"></path></g><g transform="translate(35.866670396592895 97.28895738389761) rotate(0 10.800003051757812 11.600006103515625)" stroke="none"><path fill="#1e1e1e" d="M -0.20,-2.25 Q -0.20,-2.25 2.33,-2.36 4.87,-2.46 7.85,-2.47 10.82,-2.48 13.23,-2.45 15.64,-2.42 17.26,-2.27 18.87,-2.12 19.94,-1.99 21.00,-1.86 21.92,-1.08 22.84,-0.31 23.23,1.00 23.63,2.31 23.52,3.74 23.40,5.17 23.10,6.62 22.80,8.07 22.69,9.44 22.57,10.80 21.99,12.45 21.41,14.10 21.26,15.24 21.11,16.38 21.17,17.51 21.23,18.63 21.30,21.19 21.36,23.74 21.28,24.22 21.20,24.69 20.98,25.11 20.76,25.54 20.41,25.87 20.06,26.20 19.62,26.40 19.19,26.60 18.71,26.65 18.23,26.70 17.77,26.60 17.30,26.50 16.89,26.25 16.48,26.00 16.16,25.64 15.85,25.27 15.68,24.83 15.50,24.38 15.47,23.90 15.45,23.42 15.58,22.96 15.70,22.50 15.97,22.10 16.24,21.70 16.62,21.41 17.01,21.12 17.46,20.97 17.92,20.82 18.40,20.82 18.88,20.82 19.33,20.97 19.78,21.12 20.17,21.41 20.55,21.71 20.82,22.10 21.09,22.50 21.21,22.96 21.34,23.42 21.32,23.90 21.29,24.38 21.11,24.83 20.94,25.27 20.62,25.64 20.31,26.00 19.90,26.25 19.49,26.50 19.02,26.60 18.55,26.70 18.08,26.65 17.60,26.60 17.17,26.40 16.73,26.20 16.38,25.87 16.03,25.54 15.81,25.11 15.58,24.69 15.51,24.22 15.43,23.74 15.43,23.74 15.43,23.74 15.44,21.97 15.46,20.19 15.56,18.92 15.66,17.65 15.80,16.59 15.95,15.53 16.42,13.95 16.90,12.36 17.35,11.35 17.79,10.34 17.94,8.70 18.08,7.05 18.37,5.75 18.67,4.45 18.51,2.97 18.35,1.49 17.02,1.22 15.69,0.95 13.32,1.06 10.95,1.17 8.09,1.35 5.24,1.54 2.72,1.90 0.20,2.25 -0.06,2.24 -0.34,2.24 -0.60,2.16 -0.86,2.09 -1.10,1.95 -1.34,1.82 -1.54,1.63 -1.74,1.45 -1.88,1.22 -2.03,0.99 -2.12,0.73 -2.21,0.47 -2.24,0.20 -2.26,-0.06 -2.22,-0.33 -2.18,-0.60 -2.07,-0.86 -1.97,-1.11 -1.81,-1.33 -1.65,-1.55 -1.44,-1.72 -1.23,-1.90 -0.98,-2.02 -0.73,-2.14 -0.47,-2.19 -0.20,-2.25 -0.20,-2.25 L -0.20,-2.25 Z"></path></g><g transform="translate(17.199996948242188 160.22229682074655) rotate(0 0 10.400009155273438)" stroke="none"><path fill="#1e1e1e" d="M 0.60,2.41 Q 0.60,2.41 0.15,2.24 -0.29,2.07 1.05,3.38 2.41,4.69 3.45,6.13 4.48,7.58 5.40,8.91 6.32,10.24 6.99,11.28 7.67,12.33 8.59,13.66 9.51,14.99 9.48,17.01 9.45,19.02 8.51,20.55 7.58,22.09 5.99,22.90 4.40,23.70 2.43,23.53 0.46,23.35 -1.19,22.33 -2.86,21.32 -4.09,20.47 -5.31,19.62 -7.68,17.01 -10.04,14.40 -10.06,13.92 -10.07,13.44 -9.93,12.99 -9.79,12.53 -9.51,12.15 -9.23,11.76 -8.84,11.48 -8.46,11.20 -8.00,11.06 -7.54,10.92 -7.07,10.94 -6.59,10.95 -6.14,11.11 -5.70,11.28 -5.32,11.58 -4.95,11.88 -4.70,12.28 -4.44,12.68 -4.32,13.14 -4.21,13.61 -4.25,14.08 -4.29,14.56 -4.48,14.99 -4.66,15.43 -4.98,15.79 -5.30,16.14 -5.72,16.38 -6.13,16.61 -6.60,16.70 -7.07,16.79 -7.54,16.73 -8.01,16.66 -8.44,16.45 -8.87,16.24 -9.21,15.90 -9.54,15.56 -9.75,15.13 -9.97,14.71 -10.03,14.23 -10.09,13.76 -10.00,13.29 -9.91,12.82 -9.68,12.41 -9.44,11.99 -9.09,11.68 -8.73,11.36 -8.30,11.17 -7.86,10.98 -7.38,10.94 -6.91,10.91 -6.44,11.02 -5.98,11.14 -5.58,11.39 -5.18,11.65 -4.88,12.02 -4.58,12.39 -4.42,12.84 -4.25,13.29 -4.25,13.29 -4.25,13.29 -4.48,13.53 -4.72,13.78 -3.47,14.25 -2.22,14.71 -0.07,16.00 2.07,17.28 3.18,17.25 4.28,17.22 3.79,16.17 3.30,15.12 2.74,14.17 2.18,13.22 1.27,12.02 0.37,10.82 -0.70,9.57 -1.79,8.31 -2.83,7.09 -3.87,5.88 -4.41,4.44 -4.96,3.00 -4.84,1.92 -4.72,0.84 -4.05,-0.15 -3.38,-1.15 -1.99,-1.78 -0.60,-2.41 -0.30,-2.45 -0.00,-2.49 0.29,-2.45 0.58,-2.42 0.86,-2.31 1.15,-2.21 1.39,-2.04 1.64,-1.87 1.84,-1.64 2.04,-1.42 2.18,-1.15 2.32,-0.89 2.40,-0.60 2.47,-0.30 2.47,-0.00 2.47,0.29 2.40,0.58 2.33,0.87 2.19,1.14 2.05,1.40 1.85,1.63 1.65,1.86 1.41,2.03 1.16,2.20 0.88,2.31 0.60,2.41 0.60,2.41 L 0.60,2.41 Z"></path></g><g transform="translate(15.599990844726562 153.82230292426217) rotate(0 6.400001525878906 0)" stroke="none"><path fill="#1e1e1e" d="M 0,-2.57 Q 0,-2.57 1.38,-2.57 2.76,-2.57 4.03,-2.58 5.31,-2.59 6.87,-2.67 8.43,-2.75 10.46,-2.77 12.50,-2.79 12.95,-2.72 13.39,-2.64 13.79,-2.43 14.19,-2.22 14.50,-1.89 14.81,-1.56 15.00,-1.15 15.19,-0.74 15.24,-0.29 15.29,0.15 15.19,0.59 15.10,1.03 14.86,1.42 14.63,1.80 14.28,2.10 13.94,2.39 13.52,2.56 13.10,2.72 12.65,2.75 12.20,2.77 11.76,2.65 11.32,2.53 10.95,2.28 10.58,2.02 10.30,1.66 10.03,1.30 9.88,0.88 9.74,0.45 9.74,-0.00 9.74,-0.45 9.89,-0.88 10.03,-1.30 10.30,-1.66 10.58,-2.02 10.95,-2.28 11.33,-2.53 11.76,-2.65 12.20,-2.77 12.65,-2.75 13.10,-2.72 13.52,-2.56 13.94,-2.39 14.28,-2.10 14.63,-1.80 14.86,-1.42 15.10,-1.03 15.19,-0.59 15.29,-0.15 15.24,0.29 15.19,0.74 15.00,1.15 14.81,1.56 14.50,1.89 14.19,2.22 13.79,2.43 13.39,2.64 12.94,2.72 12.50,2.79 12.50,2.79 12.50,2.79 10.46,2.77 8.43,2.75 6.87,2.67 5.31,2.59 4.03,2.58 2.76,2.57 1.38,2.57 0,2.57 -0.30,2.54 -0.61,2.50 -0.90,2.39 -1.19,2.28 -1.45,2.10 -1.70,1.92 -1.91,1.69 -2.12,1.46 -2.26,1.18 -2.41,0.91 -2.48,0.61 -2.55,0.31 -2.55,-0.00 -2.55,-0.31 -2.48,-0.61 -2.41,-0.91 -2.26,-1.18 -2.12,-1.46 -1.91,-1.69 -1.70,-1.93 -1.45,-2.10 -1.19,-2.28 -0.90,-2.39 -0.61,-2.50 -0.30,-2.54 0.00,-2.57 0.00,-2.57 L 0,-2.57 Z"></path></g><g transform="translate(37.19999694824219 181.02231513129342) rotate(0 1.5999984741210938 0)" stroke="none"><path fill="#1e1e1e" d="M 0,-2.33 Q 0,-2.33 1.31,-2.37 2.62,-2.42 3.00,-2.35 3.39,-2.29 3.74,-2.11 4.08,-1.92 4.35,-1.64 4.62,-1.35 4.79,-1.00 4.95,-0.64 4.99,-0.25 5.03,0.13 4.95,0.51 4.87,0.89 4.66,1.23 4.46,1.56 4.16,1.82 3.86,2.07 3.50,2.21 3.14,2.36 2.75,2.38 2.36,2.40 1.98,2.30 1.60,2.19 1.28,1.97 0.95,1.75 0.71,1.44 0.48,1.13 0.35,0.76 0.23,0.39 0.23,-0.00 0.23,-0.39 0.35,-0.76 0.48,-1.13 0.72,-1.44 0.95,-1.75 1.28,-1.97 1.60,-2.19 1.98,-2.30 2.36,-2.40 2.75,-2.38 3.14,-2.36 3.50,-2.21 3.87,-2.07 4.16,-1.82 4.46,-1.56 4.66,-1.23 4.87,-0.89 4.95,-0.51 5.03,-0.13 4.99,0.25 4.95,0.64 4.78,1.00 4.62,1.35 4.35,1.64 4.08,1.92 3.74,2.11 3.39,2.29 3.00,2.35 2.62,2.42 2.62,2.42 2.62,2.42 1.31,2.37 0,2.33 -0.27,2.29 -0.55,2.26 -0.82,2.16 -1.08,2.06 -1.31,1.90 -1.54,1.74 -1.73,1.53 -1.91,1.32 -2.04,1.07 -2.17,0.82 -2.24,0.55 -2.31,0.28 -2.31,-0.00 -2.31,-0.28 -2.24,-0.55 -2.17,-0.82 -2.04,-1.07 -1.91,-1.32 -1.73,-1.53 -1.54,-1.74 -1.31,-1.90 -1.08,-2.06 -0.82,-2.16 -0.55,-2.26 -0.27,-2.29 0.00,-2.33 0.00,-2.33 L 0,-2.33 Z"></path></g><g transform="translate(54.80000305175781 152.22229682074655) rotate(0 -2.0000076293945312 16.400009155273438)" stroke="none"><path fill="#1e1e1e" d="M 1.02,2.38 Q 1.02,2.38 -0.61,3.00 -2.25,3.63 -3.34,4.15 -4.43,4.67 -4.38,5.74 -4.34,6.80 -3.16,7.24 -1.97,7.68 -0.75,6.94 0.45,6.20 0.24,5.56 0.03,4.93 0.15,4.57 0.27,4.21 0.47,3.89 0.67,3.57 0.94,3.30 1.21,3.04 1.54,2.84 1.86,2.65 2.23,2.55 2.59,2.44 2.97,2.42 3.35,2.40 3.72,2.48 4.09,2.55 4.43,2.71 4.78,2.87 5.07,3.11 5.37,3.34 5.60,3.65 5.83,3.95 5.98,4.29 6.13,4.64 6.19,5.02 6.26,5.39 6.23,5.77 6.20,6.15 5.85,5.10 5.50,4.04 5.91,5.48 6.32,6.92 6.30,8.16 6.28,9.39 5.89,11.46 5.49,13.52 5.22,15.60 4.95,17.67 4.77,19.94 4.58,22.22 4.46,24.34 4.33,26.46 4.38,29.35 4.42,32.23 4.37,32.56 4.32,32.88 4.16,33.17 4.01,33.46 3.77,33.68 3.53,33.91 3.23,34.04 2.93,34.18 2.61,34.21 2.28,34.25 1.96,34.18 1.64,34.11 1.36,33.94 1.08,33.77 0.87,33.51 0.66,33.26 0.54,32.96 0.42,32.65 0.40,32.33 0.38,32.00 0.47,31.68 0.56,31.37 0.74,31.10 0.93,30.82 1.19,30.63 1.45,30.43 1.76,30.33 2.08,30.22 2.40,30.22 2.73,30.22 3.04,30.33 3.35,30.44 3.61,30.64 3.87,30.84 4.06,31.11 4.24,31.38 4.33,31.70 4.41,32.01 4.39,32.34 4.38,32.67 4.25,32.97 4.13,33.28 3.92,33.53 3.70,33.77 3.42,33.94 3.14,34.11 2.82,34.18 2.50,34.25 2.17,34.21 1.85,34.18 1.55,34.04 1.25,33.90 1.02,33.67 0.78,33.45 0.63,33.15 0.47,32.86 0.42,32.54 0.37,32.22 0.37,32.22 0.37,32.22 0.44,29.32 0.51,26.43 0.42,24.29 0.33,22.14 0.23,19.80 0.13,17.46 0.05,15.16 -0.02,12.86 0.03,11.13 0.10,9.40 0.46,8.25 0.82,7.10 0.43,6.01 0.03,4.93 0.15,4.57 0.27,4.21 0.47,3.89 0.67,3.57 0.94,3.30 1.21,3.04 1.54,2.85 1.86,2.65 2.23,2.55 2.59,2.44 2.97,2.42 3.35,2.40 3.72,2.47 4.09,2.55 4.43,2.71 4.78,2.87 5.07,3.11 5.37,3.34 5.60,3.65 5.83,3.95 5.98,4.29 6.13,4.64 6.19,5.02 6.26,5.39 6.23,5.77 6.20,6.15 6.13,6.64 6.05,7.14 5.68,8.31 5.31,9.48 4.59,10.31 3.87,11.14 2.97,11.70 2.06,12.26 0.59,12.93 -0.88,13.61 -2.41,13.76 -3.93,13.91 -5.14,13.51 -6.35,13.10 -7.16,12.38 -7.97,11.66 -8.71,10.40 -9.46,9.14 -9.70,7.89 -9.94,6.63 -9.85,5.53 -9.75,4.42 -9.02,2.95 -8.28,1.47 -7.43,0.82 -6.58,0.17 -5.38,-0.34 -4.18,-0.87 -2.60,-1.62 -1.02,-2.38 -0.72,-2.46 -0.42,-2.55 -0.10,-2.56 0.20,-2.58 0.50,-2.51 0.81,-2.45 1.09,-2.32 1.37,-2.19 1.62,-1.99 1.86,-1.79 2.05,-1.54 2.23,-1.29 2.36,-1.01 2.48,-0.72 2.53,-0.41 2.58,-0.10 2.56,0.20 2.53,0.51 2.43,0.80 2.34,1.10 2.17,1.36 2.00,1.63 1.78,1.85 1.55,2.06 1.28,2.22 1.01,2.38 1.01,2.38 L 1.02,2.38 Z"></path></g><g transform="translate(42.800016615125855 223.68897501627603) rotate(0 5.5999908447265625 8.79998779296875)" stroke="none"><path fill="#1e1e1e" d="M -1.21,-1.70 Q -1.21,-1.70 0.43,-2.79 2.08,-3.89 3.55,-4.71 5.03,-5.53 6.74,-6.19 8.45,-6.84 9.55,-6.64 10.65,-6.43 11.80,-5.36 12.96,-4.29 13.64,-2.14 14.32,0.00 14.44,2.58 14.56,5.15 14.32,7.48 14.07,9.80 12.94,12.15 11.80,14.50 10.60,16.04 9.40,17.58 8.09,18.60 6.77,19.62 5.34,20.15 3.91,20.69 1.97,21.06 0.02,21.44 -2.37,20.97 -4.77,20.50 -5.81,19.74 -6.84,18.98 -7.83,17.44 -8.81,15.91 -8.85,14.61 -8.90,13.32 -7.94,11.80 -6.99,10.27 -5.04,9.44 -3.09,8.60 -1.80,8.30 -0.52,8.00 1.16,8.15 2.84,8.29 4.39,9.29 5.94,10.29 7.16,11.74 8.39,13.20 9.63,14.70 10.88,16.20 12.10,17.54 13.32,18.87 14.40,18.71 15.47,18.55 15.79,18.29 16.11,18.03 16.50,17.88 16.88,17.74 17.29,17.72 17.71,17.71 18.10,17.82 18.50,17.94 18.83,18.18 19.17,18.42 19.41,18.75 19.66,19.08 19.78,19.48 19.91,19.87 19.90,20.28 19.89,20.70 19.75,21.08 19.61,21.47 19.36,21.80 19.10,22.12 18.75,22.34 18.41,22.57 18.01,22.67 17.61,22.77 17.20,22.74 16.79,22.71 16.41,22.55 16.03,22.39 15.72,22.12 15.41,21.85 15.20,21.49 15.00,21.13 14.92,20.73 14.83,20.32 14.89,19.92 14.94,19.51 15.12,19.14 15.30,18.76 15.59,18.47 15.88,18.18 16.25,17.99 16.62,17.80 17.02,17.75 17.43,17.69 17.84,17.76 18.24,17.84 18.60,18.04 18.96,18.24 19.24,18.54 19.52,18.85 19.69,19.22 19.85,19.60 19.89,20.01 19.93,20.42 19.83,20.82 19.73,21.22 19.51,21.57 19.29,21.92 19.29,21.92 19.29,21.92 16.92,23.17 14.54,24.41 13.22,23.97 11.90,23.54 10.99,22.80 10.09,22.06 8.75,20.79 7.42,19.52 5.90,18.13 4.38,16.74 3.07,15.22 1.77,13.71 0.31,13.75 -1.13,13.79 -2.33,14.36 -3.53,14.94 -2.66,15.84 -1.79,16.74 -0.17,16.77 1.45,16.80 3.05,16.61 4.65,16.41 5.65,15.84 6.66,15.26 7.67,14.13 8.68,12.99 9.50,11.23 10.33,9.46 10.35,7.50 10.38,5.53 10.07,3.44 9.76,1.35 9.40,-0.50 9.04,-2.36 7.97,-2.15 6.90,-1.93 5.63,-1.32 4.35,-0.70 2.78,0.49 1.21,1.70 0.99,1.82 0.77,1.94 0.52,2.00 0.28,2.07 0.03,2.07 -0.21,2.07 -0.46,2.02 -0.70,1.96 -0.93,1.85 -1.15,1.73 -1.35,1.57 -1.54,1.41 -1.68,1.20 -1.83,1.00 -1.92,0.76 -2.02,0.53 -2.05,0.28 -2.08,0.03 -2.06,-0.21 -2.03,-0.46 -1.95,-0.70 -1.86,-0.94 -1.72,-1.15 -1.58,-1.36 -1.40,-1.53 -1.21,-1.70 -1.21,-1.70 L -1.21,-1.70 Z"></path></g><g transform="translate(33.91112094455298 278.7111646864149) rotate(0 12.799995422363281 13.199996948242188)" stroke="none"><path fill="#1e1e1e" d="M 0,-2.36 Q 0,-2.36 2.52,-2.23 5.05,-2.09 8.20,-1.98 11.35,-1.88 13.14,-1.88 14.94,-1.88 16.18,-1.95 17.41,-2.03 18.53,-1.79 19.64,-1.56 20.86,0.33 22.09,2.22 21.63,3.60 21.18,4.98 20.46,5.95 19.73,6.92 18.78,8.11 17.82,9.30 17.20,10.30 16.58,11.31 16.37,11.53 16.15,11.75 15.88,11.92 15.62,12.08 15.32,12.17 15.02,12.27 14.71,12.29 14.40,12.31 14.10,12.26 13.79,12.21 13.50,12.08 13.22,11.95 12.97,11.76 12.73,11.57 12.53,11.33 12.34,11.09 12.21,10.80 12.08,10.52 12.02,10.22 11.96,9.91 11.98,9.60 11.99,9.29 12.08,8.99 12.17,8.69 12.33,8.43 12.49,8.16 14.67,7.86 16.84,7.55 18.16,7.63 19.48,7.72 20.79,7.75 22.11,7.78 23.31,8.07 24.52,8.37 25.38,8.99 26.25,9.61 26.92,10.83 27.60,12.05 27.87,13.45 28.15,14.85 27.97,16.58 27.79,18.31 27.45,19.75 27.11,21.19 26.37,22.57 25.64,23.95 24.69,24.93 23.75,25.91 22.83,26.57 21.91,27.23 20.21,28.11 18.50,28.99 16.95,28.88 15.40,28.77 13.76,28.38 12.11,27.99 10.11,26.65 8.12,25.30 6.68,24.02 5.25,22.75 4.27,21.68 3.30,20.61 2.18,19.02 1.06,17.43 0.94,17.03 0.82,16.64 0.83,16.23 0.85,15.82 0.99,15.43 1.14,15.04 1.40,14.72 1.65,14.40 2.00,14.18 2.35,13.96 2.75,13.86 3.15,13.77 3.56,13.80 3.98,13.84 4.35,14.00 4.73,14.17 5.04,14.44 5.34,14.72 5.54,15.08 5.75,15.44 5.82,15.85 5.90,16.25 5.84,16.66 5.78,17.07 5.60,17.44 5.41,17.80 5.12,18.10 4.83,18.39 4.46,18.57 4.08,18.75 3.68,18.80 3.27,18.86 2.86,18.78 2.46,18.70 2.10,18.49 1.74,18.29 1.47,17.98 1.19,17.67 1.03,17.29 0.87,16.91 0.84,16.50 0.81,16.09 0.91,15.69 1.01,15.29 1.24,14.94 1.46,14.60 1.78,14.34 2.10,14.08 2.49,13.94 2.88,13.80 3.29,13.79 3.70,13.78 4.10,13.91 4.49,14.03 4.83,14.27 5.16,14.51 5.40,14.85 5.64,15.19 5.64,15.19 5.64,15.19 7.01,17.09 8.38,19.00 9.67,19.99 10.97,20.98 12.14,21.72 13.32,22.47 15.39,22.94 17.47,23.41 18.70,22.58 19.93,21.75 20.85,20.80 21.76,19.85 22.17,17.75 22.57,15.65 22.25,14.28 21.93,12.91 20.57,12.87 19.21,12.84 17.90,12.07 16.58,11.31 16.37,11.53 16.15,11.75 15.88,11.92 15.62,12.08 15.32,12.17 15.02,12.27 14.71,12.29 14.40,12.31 14.10,12.26 13.79,12.21 13.50,12.08 13.22,11.95 12.97,11.76 12.73,11.57 12.53,11.33 12.34,11.09 12.21,10.81 12.08,10.52 12.02,10.22 11.96,9.91 11.98,9.60 11.99,9.29 12.08,8.99 12.17,8.69 12.33,8.43 12.49,8.16 13.15,7.18 13.80,6.21 14.76,4.91 15.72,3.61 16.54,2.82 17.36,2.03 16.15,1.95 14.94,1.88 13.14,1.88 11.35,1.88 8.20,1.98 5.05,2.09 2.52,2.23 0,2.36 -0.28,2.33 -0.56,2.29 -0.83,2.19 -1.10,2.09 -1.33,1.93 -1.57,1.77 -1.76,1.55 -1.94,1.34 -2.08,1.09 -2.21,0.83 -2.28,0.56 -2.35,0.28 -2.35,-0.00 -2.35,-0.28 -2.28,-0.56 -2.21,-0.84 -2.08,-1.09 -1.94,-1.34 -1.75,-1.55 -1.57,-1.77 -1.33,-1.93 -1.10,-2.09 -0.83,-2.19 -0.56,-2.29 -0.28,-2.33 0.00,-2.36 0.00,-2.36 L 0,-2.36 Z"></path></g><g transform="translate(84.48890177408856 115.5111524793837) rotate(0 30.399993896484375 15.20001220703125)" stroke="none"><path fill="#1e1e1e" d="M 0,-2.09 Q 0,-2.09 2.76,-1.99 5.52,-1.88 7.61,-1.81 9.70,-1.74 12.43,-1.69 15.16,-1.63 17.47,-1.58 19.78,-1.54 21.45,-1.60 23.13,-1.66 24.67,-1.50 26.22,-1.34 27.46,-1.32 28.70,-1.30 30.08,-0.77 31.46,-0.24 32.82,0.41 34.18,1.06 35.83,2.44 37.48,3.82 39.02,5.36 40.56,6.91 41.66,7.66 42.77,8.41 43.55,9.44 44.32,10.48 45.40,11.20 46.48,11.93 47.43,12.72 48.39,13.52 50.17,14.46 51.96,15.39 53.27,16.55 54.59,17.70 55.72,18.67 56.85,19.63 57.98,20.72 59.10,21.81 60.16,22.84 61.21,23.86 61.83,25.42 62.44,26.99 63.14,27.96 63.84,28.94 63.95,29.47 64.07,30.00 64.01,30.54 63.95,31.08 63.72,31.58 63.48,32.07 63.11,32.46 62.73,32.86 62.25,33.11 61.77,33.36 61.23,33.45 60.69,33.54 60.15,33.45 59.62,33.36 59.14,33.10 58.66,32.84 58.29,32.44 57.91,32.05 57.69,31.55 57.46,31.06 57.40,30.51 57.35,29.97 57.47,29.44 57.58,28.91 57.87,28.45 58.15,27.98 58.57,27.63 58.98,27.28 59.49,27.08 60.00,26.88 60.54,26.85 61.09,26.83 61.61,26.97 62.13,27.12 62.58,27.43 63.03,27.74 63.36,28.17 63.69,28.61 63.86,29.12 64.03,29.64 64.03,30.18 64.03,30.73 63.85,31.24 63.67,31.76 63.34,32.19 63.01,32.62 62.56,32.93 62.11,33.23 61.58,33.37 61.06,33.52 60.51,33.49 59.97,33.45 59.46,33.25 58.96,33.05 58.54,32.69 58.13,32.34 57.85,31.87 57.57,31.40 57.57,31.40 57.57,31.40 56.89,29.26 56.21,27.12 55.17,26.06 54.14,25.00 53.17,24.23 52.21,23.45 51.40,22.70 50.59,21.95 49.52,20.89 48.44,19.82 47.43,19.15 46.42,18.47 45.21,17.42 43.99,16.36 43.15,15.41 42.31,14.47 41.31,12.98 40.31,11.50 39.17,10.57 38.04,9.65 36.47,8.33 34.90,7.01 33.56,5.97 32.22,4.94 30.26,3.77 28.29,2.61 26.96,2.43 25.63,2.26 24.37,1.96 23.12,1.66 21.45,1.60 19.78,1.54 17.47,1.58 15.16,1.63 12.43,1.69 9.70,1.74 7.61,1.81 5.52,1.88 2.76,1.99 0,2.09 -0.25,2.06 -0.50,2.03 -0.73,1.94 -0.97,1.85 -1.18,1.71 -1.38,1.56 -1.55,1.37 -1.72,1.18 -1.84,0.96 -1.95,0.74 -2.01,0.49 -2.07,0.25 -2.07,-0.00 -2.07,-0.25 -2.01,-0.49 -1.95,-0.74 -1.84,-0.96 -1.72,-1.18 -1.55,-1.37 -1.38,-1.56 -1.18,-1.71 -0.97,-1.85 -0.73,-1.94 -0.50,-2.03 -0.25,-2.06 0.00,-2.09 0.00,-2.09 L 0,-2.09 Z"></path></g><g transform="translate(94.88889567057294 166.71116468641495) rotate(0 20 -11.600006103515625)" stroke="none"><path fill="#1e1e1e" d="M 0,-2.65 Q 0,-2.65 0.92,-2.68 1.84,-2.72 2.95,-2.79 4.06,-2.86 5.15,-2.91 6.24,-2.97 7.61,-3.04 8.98,-3.11 10.00,-3.88 11.03,-4.64 12.61,-5.47 14.19,-6.31 15.52,-6.83 16.85,-7.36 18.23,-7.91 19.60,-8.46 20.90,-9.43 22.20,-10.40 23.27,-10.66 24.35,-10.92 25.08,-11.99 25.81,-13.05 26.73,-13.68 27.66,-14.31 28.65,-15.18 29.64,-16.05 31.13,-17.24 32.63,-18.43 32.97,-19.56 33.32,-20.70 33.99,-21.72 34.66,-22.75 35.90,-24.01 37.14,-25.27 37.60,-25.60 38.06,-25.93 38.60,-26.10 39.13,-26.26 39.70,-26.25 40.26,-26.24 40.79,-26.04 41.32,-25.85 41.76,-25.50 42.20,-25.14 42.51,-24.67 42.81,-24.19 42.95,-23.65 43.09,-23.10 43.04,-22.54 43.00,-21.97 42.77,-21.46 42.55,-20.94 42.18,-20.52 41.80,-20.10 41.31,-19.82 40.82,-19.54 40.26,-19.43 39.71,-19.32 39.15,-19.40 38.59,-19.47 38.09,-19.72 37.58,-19.97 37.18,-20.37 36.78,-20.77 36.53,-21.28 36.28,-21.78 36.20,-22.34 36.13,-22.90 36.23,-23.45 36.34,-24.01 36.61,-24.50 36.89,-24.99 37.31,-25.37 37.73,-25.74 38.25,-25.97 38.76,-26.19 39.33,-26.24 39.89,-26.29 40.44,-26.15 40.98,-26.01 41.46,-25.71 41.94,-25.41 42.29,-24.97 42.64,-24.53 42.84,-24.00 43.03,-23.47 43.05,-22.91 43.07,-22.34 42.90,-21.80 42.74,-21.26 42.41,-20.81 42.08,-20.35 42.08,-20.35 42.08,-20.35 40.95,-19.55 39.81,-18.75 39.53,-17.66 39.25,-16.57 38.54,-15.52 37.82,-14.48 36.84,-13.55 35.87,-12.62 34.93,-11.61 33.99,-10.61 32.89,-9.63 31.79,-8.65 30.81,-8.03 29.82,-7.41 29.01,-6.64 28.21,-5.87 27.20,-5.23 26.19,-4.59 24.86,-4.09 23.53,-3.60 22.55,-2.94 21.57,-2.28 20.52,-1.81 19.48,-1.34 18.30,-0.93 17.13,-0.52 15.71,0.20 14.30,0.94 13.24,1.62 12.18,2.30 10.58,2.70 8.98,3.11 7.61,3.04 6.24,2.97 5.15,2.91 4.06,2.86 2.95,2.79 1.84,2.72 0.92,2.68 0,2.65 -0.31,2.61 -0.63,2.57 -0.93,2.46 -1.23,2.34 -1.49,2.16 -1.75,1.98 -1.97,1.74 -2.18,1.50 -2.33,1.22 -2.48,0.94 -2.55,0.63 -2.63,0.31 -2.63,-0.00 -2.63,-0.32 -2.55,-0.63 -2.48,-0.94 -2.33,-1.22 -2.18,-1.50 -1.97,-1.74 -1.75,-1.98 -1.49,-2.16 -1.23,-2.34 -0.93,-2.46 -0.63,-2.57 -0.31,-2.61 0.00,-2.65 0.00,-2.65 L 0,-2.65 Z"></path></g><g transform="translate(152.48890177408856 129.11115858289932) rotate(0 22 -8)" stroke="none"><path fill="#1e1e1e" d="M -2.55,-0.51 Q -2.55,-0.51 -2.34,-1.66 -2.12,-2.81 -1.96,-4.16 -1.80,-5.51 -1.25,-6.44 -0.69,-7.36 0.27,-8.00 1.23,-8.63 3.06,-9.98 4.90,-11.33 6.02,-11.98 7.13,-12.62 8.14,-13.19 9.15,-13.75 11.07,-14.85 12.98,-15.96 14.36,-16.32 15.73,-16.68 16.93,-17.03 18.13,-17.38 19.67,-17.72 21.21,-18.05 22.58,-18.15 23.95,-18.25 25.26,-18.32 26.58,-18.39 27.72,-18.42 28.86,-18.45 30.35,-18.48 31.85,-18.52 33.35,-18.53 34.86,-18.53 36.31,-18.56 37.76,-18.60 39.22,-18.60 40.68,-18.60 42.03,-19.00 43.39,-19.41 43.95,-19.37 44.51,-19.34 45.02,-19.13 45.54,-18.92 45.97,-18.55 46.39,-18.19 46.67,-17.71 46.96,-17.23 47.08,-16.68 47.19,-16.13 47.13,-15.58 47.06,-15.02 46.83,-14.52 46.59,-14.01 46.20,-13.61 45.81,-13.20 45.32,-12.94 44.82,-12.68 44.27,-12.60 43.72,-12.51 43.16,-12.61 42.61,-12.70 42.12,-12.97 41.63,-13.23 41.25,-13.64 40.86,-14.05 40.63,-14.56 40.40,-15.07 40.34,-15.62 40.29,-16.18 40.41,-16.73 40.54,-17.27 40.83,-17.75 41.12,-18.23 41.55,-18.58 41.98,-18.94 42.50,-19.15 43.02,-19.35 43.58,-19.38 44.14,-19.40 44.67,-19.25 45.21,-19.10 45.67,-18.78 46.13,-18.46 46.47,-18.01 46.80,-17.57 46.98,-17.04 47.15,-16.50 47.15,-15.94 47.15,-15.39 46.96,-14.86 46.78,-14.33 46.44,-13.89 46.10,-13.44 45.63,-13.13 45.17,-12.82 44.63,-12.68 44.09,-12.53 44.09,-12.53 44.09,-12.53 42.56,-12.16 41.04,-11.79 39.40,-11.79 37.76,-11.79 36.31,-11.83 34.86,-11.86 33.35,-11.86 31.85,-11.87 30.36,-11.91 28.86,-11.94 27.73,-11.97 26.60,-12.00 25.34,-12.05 24.09,-12.10 23.02,-12.12 21.95,-12.13 20.89,-12.01 19.82,-11.89 18.56,-11.48 17.29,-11.07 15.69,-10.66 14.08,-10.26 12.13,-8.95 10.18,-7.64 8.94,-6.85 7.71,-6.05 6.60,-5.63 5.49,-5.21 4.38,-4.65 3.28,-4.09 3.16,-2.94 3.04,-1.78 2.80,-0.63 2.55,0.51 2.45,0.80 2.35,1.10 2.18,1.37 2.02,1.63 1.79,1.85 1.57,2.07 1.30,2.23 1.02,2.38 0.72,2.47 0.42,2.56 0.11,2.58 -0.19,2.59 -0.50,2.53 -0.81,2.47 -1.09,2.33 -1.38,2.20 -1.62,2.00 -1.86,1.80 -2.05,1.55 -2.24,1.30 -2.37,1.02 -2.49,0.73 -2.54,0.42 -2.59,0.11 -2.57,-0.19 -2.55,-0.51 -2.55,-0.51 L -2.55,-0.51 Z"></path></g><g transform="translate(153.2888895670573 125.9111768934462) rotate(0 -2.399993896484375 4)" stroke="none"><path fill="#1e1e1e" d="M 2.18,1.45 Q 2.18,1.45 1.76,2.16 1.33,2.86 0.47,4.48 -0.38,6.09 -1.46,7.18 -2.53,8.27 -2.69,8.74 -2.85,9.21 -3.16,9.60 -3.46,9.99 -3.87,10.27 -4.28,10.54 -4.76,10.67 -5.24,10.80 -5.73,10.78 -6.23,10.75 -6.69,10.56 -7.15,10.37 -7.52,10.05 -7.90,9.73 -8.15,9.30 -8.41,8.88 -8.51,8.39 -8.62,7.91 -8.56,7.41 -8.50,6.92 -8.29,6.47 -8.08,6.02 -7.74,5.66 -7.40,5.31 -6.96,5.08 -6.52,4.85 -6.03,4.77 -5.54,4.69 -5.05,4.77 -4.56,4.86 -4.12,5.09 -3.69,5.33 -3.35,5.69 -3.01,6.05 -2.80,6.50 -2.60,6.95 -2.55,7.45 -2.50,7.94 -2.60,8.42 -2.71,8.91 -2.97,9.33 -3.23,9.75 -3.61,10.07 -3.99,10.39 -4.45,10.57 -4.91,10.75 -5.41,10.78 -5.90,10.80 -6.38,10.67 -6.86,10.53 -7.27,10.25 -7.67,9.97 -7.97,9.57 -8.27,9.18 -8.43,8.71 -8.58,8.24 -8.58,7.74 -8.58,7.24 -8.58,7.24 -8.58,7.24 -7.39,5.36 -6.20,3.48 -5.08,2.90 -3.96,2.32 -3.57,1.10 -3.17,-0.10 -2.68,-0.78 -2.18,-1.45 -1.97,-1.69 -1.77,-1.93 -1.51,-2.12 -1.25,-2.30 -0.96,-2.42 -0.66,-2.53 -0.35,-2.58 -0.04,-2.62 0.27,-2.59 0.58,-2.55 0.88,-2.45 1.18,-2.34 1.44,-2.16 1.70,-1.99 1.92,-1.75 2.13,-1.52 2.28,-1.24 2.43,-0.97 2.52,-0.66 2.60,-0.35 2.60,-0.04 2.61,0.27 2.54,0.58 2.46,0.89 2.32,1.17 2.18,1.45 2.18,1.45 L 2.18,1.45 Z"></path></g><g transform="translate(78.08889261881512 61.11115858289932) rotate(0 56.79999542236328 -2)" stroke="none"><path fill="#1e1e1e" d="M 0.50,-2.54 Q 0.50,-2.54 1.66,-2.33 2.81,-2.12 4.43,-2.07 6.05,-2.02 7.29,-2.00 8.54,-1.98 10.01,-1.71 11.48,-1.45 12.55,-1.37 13.63,-1.29 15.39,-1.29 17.16,-1.28 19.10,-1.30 21.04,-1.32 22.89,-1.65 24.73,-1.99 25.90,-2.04 27.07,-2.09 28.42,-2.46 29.77,-2.83 31.47,-2.95 33.18,-3.07 34.63,-3.50 36.07,-3.93 37.48,-4.18 38.88,-4.43 40.77,-4.55 42.66,-4.67 43.76,-4.72 44.86,-4.77 46.12,-4.82 47.39,-4.87 48.52,-4.90 49.66,-4.92 50.92,-4.96 52.19,-4.99 53.40,-5.02 54.60,-5.05 56.03,-5.06 57.46,-5.08 58.96,-5.07 60.46,-5.07 62.14,-5.04 63.82,-5.02 65.81,-5.33 67.81,-5.64 69.58,-6.01 71.36,-6.38 72.75,-6.49 74.14,-6.60 75.36,-6.62 76.58,-6.64 78.34,-6.62 80.10,-6.60 81.45,-6.59 82.80,-6.58 84.89,-7.25 86.98,-7.92 88.31,-8.32 89.64,-8.72 91.16,-8.84 92.67,-8.96 94.50,-8.96 96.32,-8.95 98.19,-8.93 100.06,-8.91 101.80,-8.91 103.55,-8.90 104.85,-8.91 106.15,-8.93 107.36,-8.95 108.58,-8.96 110.93,-8.98 113.28,-9.00 113.82,-8.91 114.36,-8.82 114.85,-8.56 115.34,-8.30 115.71,-7.90 116.09,-7.50 116.32,-7.00 116.56,-6.51 116.61,-5.96 116.67,-5.41 116.56,-4.87 116.44,-4.34 116.15,-3.86 115.87,-3.39 115.45,-3.04 115.03,-2.68 114.52,-2.48 114.01,-2.27 113.46,-2.24 112.91,-2.21 112.38,-2.36 111.85,-2.51 111.39,-2.82 110.94,-3.12 110.60,-3.56 110.27,-4.00 110.09,-4.52 109.92,-5.04 109.92,-5.60 109.92,-6.15 110.09,-6.67 110.27,-7.19 110.60,-7.63 110.94,-8.07 111.39,-8.37 111.85,-8.68 112.38,-8.83 112.91,-8.98 113.46,-8.95 114.01,-8.92 114.52,-8.71 115.03,-8.51 115.45,-8.15 115.87,-7.80 116.15,-7.33 116.44,-6.85 116.56,-6.32 116.67,-5.78 116.61,-5.23 116.56,-4.68 116.32,-4.18 116.09,-3.68 115.71,-3.28 115.34,-2.89 114.85,-2.63 114.36,-2.37 113.82,-2.28 113.28,-2.19 113.28,-2.19 113.28,-2.19 110.93,-2.21 108.58,-2.23 107.36,-2.24 106.15,-2.26 104.85,-2.28 103.55,-2.29 101.81,-2.28 100.06,-2.28 98.21,-2.25 96.36,-2.22 94.65,-2.19 92.95,-2.17 91.62,-2.08 90.29,-2.00 89.19,-1.63 88.09,-1.26 86.71,-0.88 85.32,-0.50 83.37,-0.14 81.42,0.21 79.76,0.23 78.10,0.25 76.70,0.25 75.30,0.26 73.85,0.28 72.39,0.30 71.26,0.66 70.13,1.02 68.70,1.11 67.28,1.20 65.55,1.51 63.82,1.82 62.14,1.84 60.46,1.87 58.96,1.87 57.46,1.88 56.03,1.86 54.60,1.85 53.40,1.82 52.19,1.79 50.93,1.76 49.66,1.72 48.12,1.68 46.59,1.65 45.29,1.60 43.99,1.56 42.64,1.56 41.29,1.56 39.88,1.64 38.47,1.71 37.40,2.12 36.34,2.53 34.84,2.83 33.34,3.12 31.58,3.18 29.81,3.24 28.57,3.53 27.33,3.81 25.57,3.90 23.81,3.99 21.51,4.23 19.20,4.46 18.12,4.44 17.04,4.43 15.11,4.31 13.17,4.19 10.81,3.86 8.45,3.52 6.18,3.43 3.92,3.34 2.85,3.19 1.78,3.04 0.63,2.79 -0.50,2.54 -0.80,2.44 -1.10,2.34 -1.36,2.18 -1.63,2.01 -1.84,1.78 -2.06,1.56 -2.22,1.29 -2.38,1.02 -2.46,0.72 -2.55,0.42 -2.57,0.11 -2.58,-0.19 -2.52,-0.50 -2.46,-0.81 -2.32,-1.09 -2.19,-1.37 -1.99,-1.61 -1.80,-1.86 -1.55,-2.05 -1.30,-2.23 -1.01,-2.36 -0.73,-2.48 -0.42,-2.53 -0.11,-2.58 0.19,-2.56 0.50,-2.54 0.50,-2.54 L 0.50,-2.54 Z"></path></g><g stroke-linecap="round" transform="translate(190.88889567057294 36.31117078993057) rotate(0 38.40000915527344 53.600006103515625)"><path d="M19.2 0 C29.94 -0.73, 39.72 0.05, 57.6 0 M19.2 0 C28.8 0.96, 38.25 1.07, 57.6 0 M57.6 0 C68.87 1.68, 76.24 7.32, 76.8 19.2 M57.6 0 C69.71 -2.18, 75.56 4.49, 76.8 19.2 M76.8 19.2 C78.43 40.97, 76.56 60.05, 76.8 88 M76.8 19.2 C76.27 45.28, 76.94 71.02, 76.8 88 M76.8 88 C75.55 100.66, 72.25 105.42, 57.6 107.2 M76.8 88 C77.85 99.8, 70 106.26, 57.6 107.2 M57.6 107.2 C48.11 106.4, 37.16 107.19, 19.2 107.2 M57.6 107.2 C49.38 106.89, 40.71 106.6, 19.2 107.2 M19.2 107.2 C4.47 106.1, 1.1 100.68, 0 88 M19.2 107.2 C4.72 105.03, -1.53 99.89, 0 88 M0 88 C-1.08 61.31, 2.25 33.88, 0 19.2 M0 88 C-0.05 65.91, -0.6 41.94, 0 19.2 M0 19.2 C1.62 7.8, 5.87 -0.71, 19.2 0 M0 19.2 C1.68 4.54, 6.2 1.04, 19.2 0" stroke="#1e1e1e" stroke-width="1" fill="none"></path></g><g transform="translate(269.82223510742193 85.28895399305563) rotate(0 50.66667344835071 -4.0000067816840215)" stroke="none"><path fill="#1e1e1e" d="M 0,-1.72 Q 0,-1.72 2.29,-1.66 4.59,-1.61 6.85,-1.56 9.11,-1.52 11.60,-1.49 14.09,-1.47 17.19,-1.44 20.30,-1.42 23.35,-1.66 26.40,-1.90 28.96,-2.25 31.52,-2.59 33.61,-2.99 35.71,-3.39 37.32,-3.88 38.93,-4.37 40.76,-4.63 42.60,-4.89 44.84,-5.17 47.08,-5.46 49.39,-5.58 51.70,-5.70 54.21,-5.74 56.73,-5.78 59.26,-6.04 61.79,-6.30 64.21,-6.41 66.63,-6.52 68.94,-6.57 71.25,-6.61 73.43,-6.88 75.62,-7.14 77.90,-7.26 80.18,-7.38 82.88,-7.68 85.58,-7.98 88.52,-8.36 91.46,-8.74 94.03,-8.91 96.61,-9.07 98.51,-9.27 100.41,-9.47 100.66,-9.45 100.90,-9.42 101.13,-9.32 101.35,-9.21 101.53,-9.04 101.71,-8.87 101.82,-8.65 101.94,-8.44 101.98,-8.19 102.02,-7.95 101.98,-7.70 101.94,-7.46 101.82,-7.24 101.70,-7.03 101.52,-6.86 101.34,-6.69 101.12,-6.58 100.90,-6.48 100.65,-6.46 100.41,-6.43 100.17,-6.48 99.92,-6.54 99.71,-6.66 99.50,-6.79 99.34,-6.98 99.18,-7.17 99.09,-7.40 99.00,-7.63 98.99,-7.87 98.98,-8.12 99.04,-8.36 99.11,-8.59 99.25,-8.80 99.39,-9.00 99.58,-9.15 99.78,-9.30 100.01,-9.38 100.25,-9.46 100.49,-9.46 100.74,-9.46 100.97,-9.38 101.21,-9.30 101.40,-9.15 101.60,-9.00 101.74,-8.79 101.88,-8.59 101.94,-8.35 102.01,-8.11 101.99,-7.87 101.98,-7.62 101.89,-7.39 101.80,-7.16 101.64,-6.97 101.48,-6.79 101.26,-6.66 101.05,-6.53 100.81,-6.48 100.57,-6.43 100.57,-6.43 100.57,-6.43 98.68,-6.43 96.78,-6.43 94.29,-6.27 91.80,-6.11 88.84,-5.72 85.87,-5.33 83.10,-5.02 80.32,-4.71 78.13,-4.59 75.94,-4.47 73.63,-4.18 71.31,-3.90 69.04,-3.84 66.77,-3.78 64.43,-3.65 62.09,-3.52 59.45,-3.22 56.80,-2.92 54.34,-2.84 51.88,-2.76 49.71,-2.60 47.53,-2.43 45.23,-2.05 42.94,-1.67 41.31,-1.57 39.68,-1.46 37.95,-1.09 36.22,-0.72 34.06,-0.30 31.90,0.12 29.26,0.50 26.63,0.88 23.46,1.15 20.30,1.42 17.19,1.44 14.09,1.47 11.60,1.49 9.11,1.52 6.85,1.56 4.59,1.61 2.29,1.66 0,1.72 -0.20,1.69 -0.41,1.67 -0.60,1.59 -0.79,1.52 -0.97,1.40 -1.14,1.28 -1.27,1.13 -1.41,0.97 -1.51,0.79 -1.60,0.61 -1.65,0.40 -1.70,0.20 -1.70,-0.00 -1.70,-0.20 -1.65,-0.40 -1.60,-0.61 -1.51,-0.79 -1.41,-0.97 -1.27,-1.13 -1.14,-1.28 -0.97,-1.40 -0.79,-1.52 -0.60,-1.59 -0.41,-1.67 -0.20,-1.69 0.00,-1.72 0.00,-1.72 L 0,-1.72 Z"></path></g><g transform="translate(284.93335300021704 54.177842881944485) rotate(0 4.888882107204864 11.111111111111114)" stroke="none"><path fill="#1e1e1e" d="M 1.93,-1.10 Q 1.93,-1.10 2.87,0.73 3.80,2.57 4.70,4.41 5.60,6.25 6.47,8.38 7.34,10.50 7.82,12.27 8.29,14.03 8.94,14.99 9.60,15.95 10.34,18.30 11.08,20.65 11.25,20.92 11.43,21.20 11.51,21.51 11.59,21.83 11.57,22.16 11.54,22.48 11.41,22.78 11.29,23.08 11.07,23.33 10.85,23.57 10.57,23.73 10.28,23.90 9.96,23.96 9.64,24.02 9.32,23.98 9.00,23.94 8.70,23.79 8.41,23.65 8.18,23.42 7.95,23.19 7.80,22.90 7.65,22.60 7.61,22.28 7.56,21.96 7.62,21.64 7.68,21.32 7.84,21.03 8.00,20.75 8.24,20.53 8.49,20.31 8.78,20.18 9.08,20.05 9.41,20.02 9.73,19.99 10.05,20.07 10.37,20.15 10.64,20.32 10.92,20.50 11.13,20.75 11.33,21.00 11.45,21.31 11.56,21.61 11.57,21.94 11.58,22.27 11.49,22.58 11.39,22.89 11.20,23.16 11.01,23.42 10.75,23.62 10.48,23.81 10.17,23.91 9.86,24.00 9.53,23.99 9.21,23.99 8.90,23.88 8.59,23.76 8.34,23.56 8.08,23.36 8.08,23.36 8.08,23.36 7.13,20.59 6.17,17.81 5.47,16.36 4.77,14.91 4.47,13.41 4.17,11.91 3.21,9.97 2.26,8.02 1.27,6.30 0.28,4.58 -0.82,2.84 -1.93,1.10 -2.04,0.85 -2.14,0.61 -2.19,0.34 -2.23,0.07 -2.20,-0.18 -2.18,-0.45 -2.09,-0.71 -2.01,-0.96 -1.86,-1.19 -1.72,-1.42 -1.52,-1.60 -1.33,-1.79 -1.09,-1.92 -0.86,-2.05 -0.60,-2.13 -0.34,-2.20 -0.07,-2.21 0.18,-2.22 0.45,-2.17 0.71,-2.11 0.95,-1.99 1.20,-1.88 1.41,-1.71 1.61,-1.53 1.77,-1.32 1.93,-1.10 1.93,-1.10 L 1.93,-1.10 Z"></path></g><g transform="translate(305.3777906629775 49.733398437500085) rotate(0 3.111114501953125 11.555548773871521)" stroke="none"><path fill="#1e1e1e" d="M 2.27,-0.65 Q 2.27,-0.65 2.72,1.15 3.16,2.96 3.59,4.78 4.02,6.59 4.48,8.08 4.94,9.57 5.38,11.27 5.82,12.98 6.07,14.59 6.31,16.20 6.45,17.39 6.60,18.58 7.32,20.05 8.05,21.53 8.18,21.89 8.31,22.25 8.32,22.63 8.32,23.01 8.21,23.38 8.09,23.74 7.87,24.05 7.64,24.36 7.33,24.58 7.02,24.81 6.65,24.92 6.29,25.03 5.90,25.02 5.52,25.00 5.16,24.87 4.80,24.73 4.51,24.49 4.21,24.25 4.00,23.93 3.80,23.60 3.71,23.23 3.62,22.86 3.65,22.48 3.68,22.10 3.84,21.74 3.99,21.39 4.25,21.11 4.51,20.83 4.84,20.64 5.17,20.45 5.55,20.38 5.93,20.31 6.31,20.37 6.69,20.42 7.03,20.59 7.37,20.76 7.64,21.04 7.91,21.31 8.08,21.65 8.25,22.00 8.30,22.38 8.35,22.76 8.27,23.13 8.20,23.51 8.01,23.84 7.82,24.17 7.53,24.43 7.24,24.68 6.89,24.83 6.54,24.98 6.16,25.01 5.77,25.04 5.40,24.94 5.03,24.85 4.71,24.64 4.39,24.43 4.15,24.13 3.91,23.83 3.91,23.83 3.91,23.83 2.98,21.38 2.04,18.93 2.02,17.84 2.00,16.76 1.87,15.42 1.73,14.07 1.27,12.44 0.81,10.80 0.36,9.24 -0.09,7.68 -0.60,5.94 -1.12,4.19 -1.70,2.42 -2.27,0.65 -2.32,0.36 -2.36,0.08 -2.34,-0.19 -2.32,-0.48 -2.22,-0.75 -2.13,-1.02 -1.98,-1.26 -1.83,-1.50 -1.62,-1.70 -1.41,-1.90 -1.16,-2.04 -0.92,-2.18 -0.64,-2.26 -0.37,-2.34 -0.08,-2.35 0.19,-2.36 0.47,-2.30 0.75,-2.24 1.01,-2.12 1.27,-1.99 1.49,-1.81 1.71,-1.63 1.88,-1.40 2.05,-1.17 2.16,-0.91 2.27,-0.65 2.27,-0.65 L 2.27,-0.65 Z"></path></g><g transform="translate(148.93332587348095 144.84448242187509) rotate(0 29.777781168619782 16.44444783528644)" stroke="none"><path fill="#1e1e1e" d="M 2.09,-1.57 Q 2.09,-1.57 2.87,-0.55 3.64,0.47 4.35,1.88 5.06,3.30 5.76,4.92 6.45,6.54 7.17,8.16 7.90,9.78 8.01,11.08 8.12,12.39 8.54,14.18 8.96,15.98 9.55,16.96 10.15,17.95 11.12,19.04 12.08,20.13 12.75,21.08 13.42,22.02 14.38,22.70 15.33,23.37 16.01,24.33 16.70,25.29 17.74,25.95 18.79,26.61 19.86,26.32 20.93,26.02 22.08,26.46 23.23,26.90 24.29,27.22 25.35,27.55 27.38,28.06 29.40,28.57 30.69,28.89 31.97,29.21 33.57,29.34 35.17,29.47 37.44,29.58 39.70,29.68 41.32,29.78 42.93,29.88 44.13,29.90 45.33,29.91 46.87,29.98 48.40,30.04 50.07,30.11 51.74,30.19 53.22,30.22 54.70,30.24 56.89,30.21 59.09,30.18 59.52,30.26 59.95,30.33 60.33,30.53 60.72,30.73 61.02,31.05 61.32,31.37 61.50,31.77 61.69,32.16 61.73,32.60 61.78,33.03 61.69,33.46 61.59,33.88 61.37,34.26 61.14,34.63 60.81,34.91 60.48,35.20 60.07,35.36 59.67,35.52 59.23,35.54 58.79,35.57 58.37,35.45 57.95,35.33 57.59,35.09 57.23,34.84 56.96,34.50 56.70,34.15 56.56,33.73 56.42,33.32 56.42,32.88 56.42,32.45 56.56,32.03 56.70,31.62 56.97,31.27 57.23,30.92 57.59,30.68 57.95,30.43 58.37,30.32 58.79,30.20 59.23,30.22 59.67,30.25 60.07,30.41 60.48,30.57 60.81,30.85 61.14,31.14 61.37,31.51 61.59,31.89 61.69,32.31 61.78,32.74 61.73,33.17 61.69,33.61 61.50,34.00 61.32,34.40 61.02,34.72 60.72,35.03 60.33,35.24 59.95,35.44 59.52,35.51 59.08,35.58 59.09,35.58 59.09,35.58 56.89,35.55 54.70,35.52 53.22,35.55 51.74,35.58 50.07,35.65 48.39,35.73 46.86,35.79 45.33,35.85 44.12,35.86 42.92,35.87 41.29,35.96 39.66,36.05 37.23,36.10 34.80,36.14 33.71,36.09 32.63,36.04 30.62,35.64 28.61,35.24 27.55,34.85 26.49,34.47 25.31,34.37 24.12,34.28 21.91,33.46 19.69,32.65 18.59,32.56 17.49,32.46 15.92,31.61 14.35,30.76 13.11,30.02 11.87,29.27 10.93,28.18 10.00,27.09 9.14,26.37 8.29,25.64 7.58,24.73 6.87,23.81 5.91,22.67 4.94,21.53 4.44,20.26 3.94,18.99 3.46,17.18 2.98,15.37 2.61,13.21 2.24,11.04 1.80,9.90 1.36,8.75 0.84,7.17 0.32,5.59 -0.12,4.60 -0.58,3.61 -1.33,2.59 -2.09,1.57 -2.25,1.29 -2.41,1.02 -2.50,0.72 -2.58,0.41 -2.60,0.10 -2.61,-0.21 -2.55,-0.52 -2.48,-0.83 -2.35,-1.11 -2.21,-1.40 -2.01,-1.64 -1.81,-1.89 -1.56,-2.08 -1.30,-2.27 -1.01,-2.39 -0.72,-2.52 -0.41,-2.57 -0.10,-2.62 0.21,-2.59 0.52,-2.56 0.82,-2.46 1.12,-2.36 1.39,-2.19 1.66,-2.03 1.87,-1.80 2.09,-1.57 2.09,-1.57 L 2.09,-1.57 Z"></path></g><g stroke-linecap="round" transform="translate(208.48888821072052 164.40004475911465) rotate(0 34.66666327582465 36.888885498046875)"><path d="M17.33 0 C31.44 1.2, 43.9 -1.43, 52 0 M17.33 0 C28.36 0.93, 40.01 0.42, 52 0 M52 0 C62.45 -0.86, 68.64 6.48, 69.33 17.33 M52 0 C64.77 -0.32, 69.8 5.25, 69.33 17.33 M69.33 17.33 C68.47 31.25, 70.04 48.74, 69.33 56.44 M69.33 17.33 C68.24 30.44, 68.1 43.36, 69.33 56.44 M69.33 56.44 C67.8 69.13, 63.57 73.07, 52 73.78 M69.33 56.44 C67.05 67.27, 62.9 75.62, 52 73.78 M52 73.78 C40.1 73.49, 25.05 71.88, 17.33 73.78 M52 73.78 C41.96 73.93, 31.19 73.94, 17.33 73.78 M17.33 73.78 C5.37 74.01, 1.54 69.71, 0 56.44 M17.33 73.78 C7.77 75.42, 1.39 68.14, 0 56.44 M0 56.44 C-1.28 46.02, -0.21 31.81, 0 17.33 M0 56.44 C-0.78 44.2, 0.45 32.73, 0 17.33 M0 17.33 C-1.11 5.67, 6.43 0.09, 17.33 0 M0 17.33 C1.02 5.71, 6 -2.05, 17.33 0" stroke="#1e1e1e" stroke-width="1" fill="none"></path></g><g transform="translate(91.15554809570318 231.06671142578128) rotate(0 62.66667683919269 1.7777845594618213)" stroke="none"><path fill="#1e1e1e" d="M 0,-1.64 Q 0,-1.64 1.53,-1.71 3.06,-1.78 4.74,-1.81 6.41,-1.85 8.65,-1.77 10.90,-1.70 13.22,-1.39 15.54,-1.07 18.29,-0.67 21.04,-0.26 24.69,-0.09 28.34,0.08 33.22,0.17 38.10,0.25 44.27,0.30 50.43,0.34 55.61,0.36 60.79,0.38 65.54,0.40 70.30,0.41 73.65,0.68 77.00,0.94 79.40,1.05 81.80,1.17 83.59,1.15 85.38,1.13 87.15,1.10 88.93,1.06 90.82,1.30 92.71,1.54 94.18,1.57 95.65,1.61 96.78,1.56 97.92,1.52 100.08,1.41 102.25,1.30 103.95,1.19 105.65,1.08 107.30,0.99 108.96,0.90 110.08,0.88 111.19,0.86 112.97,0.45 114.74,0.04 116.01,-0.01 117.28,-0.07 119.23,-0.13 121.18,-0.19 122.89,-1.07 124.61,-1.94 125.08,-1.94 125.55,-1.94 126.00,-1.79 126.45,-1.64 126.82,-1.35 127.19,-1.06 127.46,-0.67 127.72,-0.28 127.84,0.17 127.97,0.62 127.94,1.09 127.91,1.57 127.74,2.00 127.56,2.44 127.25,2.80 126.95,3.16 126.54,3.40 126.14,3.64 125.67,3.74 125.21,3.84 124.74,3.78 124.28,3.73 123.85,3.53 123.42,3.33 123.08,3.01 122.74,2.68 122.52,2.26 122.30,1.84 122.23,1.38 122.15,0.91 122.23,0.45 122.31,-0.01 122.53,-0.42 122.75,-0.84 123.10,-1.16 123.44,-1.49 123.87,-1.68 124.30,-1.88 124.77,-1.93 125.24,-1.98 125.70,-1.87 126.16,-1.77 126.56,-1.52 126.97,-1.28 127.27,-0.92 127.57,-0.56 127.75,-0.12 127.92,0.31 127.94,0.78 127.97,1.25 127.84,1.71 127.71,2.16 127.44,2.55 127.18,2.94 126.80,3.22 126.42,3.51 125.97,3.66 125.53,3.81 125.53,3.81 125.53,3.81 123.45,4.68 121.37,5.55 119.43,5.54 117.50,5.54 115.69,5.62 113.88,5.70 112.56,5.97 111.24,6.24 110.10,6.22 108.96,6.20 107.30,6.11 105.64,6.02 103.93,5.89 102.22,5.77 99.99,5.61 97.76,5.44 96.57,5.30 95.39,5.16 93.81,4.97 92.23,4.78 90.56,4.49 88.89,4.20 87.10,4.13 85.30,4.06 83.49,3.95 81.68,3.83 79.24,3.73 76.79,3.62 73.54,3.37 70.30,3.12 65.54,3.12 60.78,3.13 55.60,3.13 50.42,3.12 44.24,3.11 38.06,3.10 33.14,3.05 28.21,3.01 24.43,2.88 20.64,2.74 17.91,2.42 15.18,2.10 13.04,1.90 10.90,1.70 8.65,1.77 6.41,1.85 4.74,1.81 3.06,1.78 1.53,1.71 0,1.64 -0.19,1.62 -0.39,1.59 -0.57,1.52 -0.76,1.45 -0.92,1.34 -1.09,1.23 -1.22,1.08 -1.35,0.93 -1.44,0.75 -1.53,0.58 -1.58,0.39 -1.63,0.19 -1.63,-0.00 -1.63,-0.19 -1.58,-0.39 -1.53,-0.58 -1.44,-0.75 -1.35,-0.93 -1.22,-1.08 -1.09,-1.23 -0.92,-1.34 -0.76,-1.45 -0.57,-1.52 -0.39,-1.59 -0.19,-1.62 0.00,-1.64 0.00,-1.64 L 0,-1.64 Z"></path></g><g transform="translate(273.37777031792535 200.84450954861117) rotate(0 36.444447835286496 0.4444376627604072)" stroke="none"><path fill="#1e1e1e" d="M 0,-1.73 Q 0,-1.73 2.04,-1.69 4.08,-1.66 6.23,-1.61 8.38,-1.56 10.82,-1.53 13.27,-1.49 15.59,-1.47 17.90,-1.44 20.17,-1.42 22.43,-1.41 24.67,-1.39 26.91,-1.38 28.63,-1.45 30.34,-1.52 32.10,-1.57 33.85,-1.62 35.87,-1.61 37.89,-1.59 39.52,-1.65 41.15,-1.71 42.35,-1.80 43.55,-1.90 46.03,-2.02 48.51,-2.14 49.89,-2.17 51.28,-2.21 52.38,-2.27 53.48,-2.32 54.77,-2.43 56.05,-2.54 57.89,-2.61 59.72,-2.68 61.21,-2.65 62.69,-2.63 63.84,-2.65 64.99,-2.66 66.32,-2.39 67.64,-2.12 70.13,-2.04 72.61,-1.95 73.06,-1.87 73.51,-1.79 73.92,-1.56 74.32,-1.34 74.63,-1.00 74.94,-0.66 75.12,-0.25 75.31,0.16 75.35,0.62 75.39,1.08 75.29,1.53 75.18,1.97 74.94,2.36 74.70,2.75 74.34,3.04 73.99,3.33 73.56,3.50 73.13,3.66 72.67,3.68 72.21,3.69 71.77,3.56 71.33,3.43 70.95,3.17 70.58,2.91 70.31,2.54 70.04,2.17 69.90,1.73 69.76,1.29 69.76,0.83 69.77,0.37 69.93,-0.05 70.08,-0.48 70.36,-0.84 70.65,-1.20 71.03,-1.45 71.42,-1.71 71.86,-1.82 72.30,-1.94 72.76,-1.90 73.22,-1.87 73.64,-1.70 74.07,-1.52 74.41,-1.22 74.76,-0.91 74.99,-0.51 75.22,-0.12 75.31,0.32 75.40,0.77 75.34,1.23 75.29,1.68 75.09,2.10 74.89,2.51 74.56,2.84 74.24,3.17 73.83,3.37 73.43,3.58 72.97,3.65 72.52,3.72 72.52,3.72 72.52,3.72 70.20,3.60 67.88,3.49 66.42,3.08 64.95,2.66 63.82,2.65 62.69,2.63 61.21,2.65 59.72,2.68 57.89,2.61 56.05,2.54 54.77,2.43 53.48,2.32 52.38,2.27 51.28,2.21 49.89,2.17 48.51,2.14 46.03,2.02 43.55,1.90 42.35,1.80 41.15,1.71 39.52,1.65 37.89,1.59 35.87,1.61 33.85,1.62 32.10,1.57 30.34,1.52 28.63,1.45 26.91,1.38 24.67,1.39 22.43,1.41 20.17,1.42 17.90,1.44 15.59,1.47 13.27,1.49 10.82,1.53 8.38,1.56 6.23,1.61 4.08,1.66 2.04,1.69 0,1.73 -0.20,1.70 -0.41,1.68 -0.61,1.60 -0.80,1.53 -0.97,1.41 -1.14,1.29 -1.28,1.14 -1.42,0.98 -1.52,0.79 -1.62,0.61 -1.67,0.41 -1.72,0.20 -1.72,-0.00 -1.72,-0.20 -1.67,-0.41 -1.62,-0.61 -1.52,-0.79 -1.42,-0.98 -1.28,-1.14 -1.14,-1.29 -0.97,-1.41 -0.80,-1.53 -0.61,-1.60 -0.41,-1.68 -0.20,-1.70 0.00,-1.73 0.00,-1.73 L 0,-1.73 Z"></path></g><g stroke-linecap="round" transform="translate(370.2667066786025 61.28894721137161) rotate(0 50.66663953993054 85.77777438693576)"><path d="M25.33 0 C41.25 -0.41, 55.89 -0.88, 76 0 M25.33 0 C44.33 -1.03, 63.49 -0.84, 76 0 M76 0 C94.28 1.98, 100.57 6.49, 101.33 25.33 M76 0 C93.6 -1.66, 103.15 7.37, 101.33 25.33 M101.33 25.33 C100.71 72.88, 102.13 123.47, 101.33 146.22 M101.33 25.33 C99.48 55.29, 101.36 84.25, 101.33 146.22 M101.33 146.22 C100.05 162.89, 93.66 173.27, 76 171.56 M101.33 146.22 C102.3 162.96, 91.53 172.13, 76 171.56 M76 171.56 C65.49 172.51, 51.76 172.21, 25.33 171.56 M76 171.56 C63.97 170.5, 52.53 171.44, 25.33 171.56 M25.33 171.56 C7.52 169.77, 0.65 162.03, 0 146.22 M25.33 171.56 C8.93 173.2, -0.5 163.45, 0 146.22 M0 146.22 C-0.86 101.24, -0.1 54.44, 0 25.33 M0 146.22 C0.1 111.7, -0.99 75.91, 0 25.33 M0 25.33 C1.84 9.8, 6.51 1.75, 25.33 0 M0 25.33 C0.21 6.77, 6.26 -2.13, 25.33 0" stroke="#1e1e1e" stroke-width="1" fill="none"></path></g><g transform="translate(469.82223510742193 103.95560709635421) rotate(0 32.88889567057288 4.444444444444457)" stroke="none"><path fill="#1e1e1e" d="M 0,-2.32 Q 0,-2.32 1.79,-2.27 3.58,-2.23 5.29,-1.96 7.00,-1.70 8.32,-1.62 9.64,-1.55 11.17,-1.25 12.70,-0.94 14.53,-0.49 16.36,-0.04 17.97,0.39 19.59,0.82 20.88,0.94 22.16,1.07 24.05,1.06 25.94,1.05 27.93,1.18 29.92,1.31 32.17,1.70 34.41,2.09 36.18,2.47 37.94,2.84 39.56,2.98 41.17,3.12 42.63,3.14 44.09,3.17 45.72,3.19 47.35,3.21 48.57,3.17 49.79,3.12 51.08,3.36 52.38,3.59 53.47,3.95 54.56,4.30 55.69,4.38 56.82,4.46 58.15,4.79 59.48,5.12 60.57,5.18 61.65,5.24 63.86,5.70 66.06,6.15 66.47,6.32 66.88,6.49 67.21,6.77 67.55,7.06 67.77,7.44 68.00,7.82 68.09,8.25 68.18,8.68 68.13,9.12 68.08,9.56 67.89,9.96 67.71,10.36 67.40,10.67 67.10,10.99 66.70,11.20 66.31,11.40 65.88,11.47 65.44,11.54 65.01,11.46 64.57,11.39 64.18,11.18 63.80,10.97 63.50,10.65 63.19,10.33 63.01,9.93 62.83,9.53 62.78,9.09 62.74,8.65 62.84,8.22 62.93,7.79 63.16,7.41 63.39,7.04 63.73,6.75 64.07,6.47 64.48,6.31 64.89,6.15 65.33,6.13 65.77,6.10 66.19,6.23 66.62,6.35 66.98,6.60 67.35,6.85 67.61,7.20 67.87,7.55 68.01,7.97 68.15,8.39 68.15,8.83 68.15,9.27 68.00,9.69 67.86,10.10 67.59,10.45 67.32,10.80 66.95,11.05 66.59,11.29 66.16,11.41 65.74,11.52 65.30,11.50 64.86,11.47 64.86,11.47 64.86,11.47 62.31,10.91 59.77,10.35 58.03,9.82 56.28,9.29 54.57,9.06 52.85,8.83 51.28,8.16 49.72,7.50 48.50,7.43 47.28,7.36 45.59,7.32 43.90,7.29 42.36,7.18 40.81,7.08 38.95,6.90 37.10,6.73 35.51,6.37 33.93,6.02 31.91,5.88 29.89,5.75 27.85,5.85 25.81,5.95 23.71,5.73 21.61,5.51 20.03,5.28 18.46,5.04 16.97,4.64 15.47,4.24 13.58,3.92 11.69,3.61 10.49,3.31 9.28,3.01 7.77,2.86 6.26,2.72 4.91,2.47 3.57,2.23 1.78,2.27 0,2.32 -0.27,2.29 -0.55,2.26 -0.81,2.16 -1.08,2.06 -1.31,1.90 -1.54,1.74 -1.73,1.53 -1.91,1.32 -2.04,1.07 -2.17,0.82 -2.24,0.55 -2.31,0.28 -2.31,-0.00 -2.31,-0.28 -2.24,-0.55 -2.17,-0.82 -2.04,-1.07 -1.91,-1.32 -1.73,-1.53 -1.54,-1.74 -1.31,-1.90 -1.08,-2.06 -0.81,-2.16 -0.55,-2.26 -0.27,-2.29 0.00,-2.32 0.00,-2.32 L 0,-2.32 Z"></path></g><g transform="translate(470.7111104329427 167.06670464409726) rotate(0 32.4444580078125 0.8888922797309249)" stroke="none"><path fill="#1e1e1e" d="M 0,-1.99 Q 0,-1.99 1.53,-2.03 3.06,-2.06 4.87,-2.20 6.68,-2.34 8.29,-2.08 9.90,-1.81 12.12,-1.59 14.34,-1.36 16.95,-0.95 19.56,-0.54 21.86,-0.34 24.16,-0.14 26.16,-0.05 28.16,0.02 29.52,-0.03 30.89,-0.09 32.23,-0.15 33.57,-0.21 34.91,-0.26 36.24,-0.32 37.32,-0.38 38.40,-0.45 40.04,-0.56 41.68,-0.68 43.57,-0.76 45.47,-0.84 47.38,-0.90 49.29,-0.97 50.73,-1.03 52.16,-1.10 53.52,-1.15 54.87,-1.20 56.31,-1.24 57.76,-1.28 59.21,-1.34 60.65,-1.40 62.63,-1.43 64.60,-1.46 65.12,-1.37 65.64,-1.29 66.10,-1.04 66.57,-0.80 66.93,-0.42 67.29,-0.04 67.51,0.43 67.73,0.91 67.78,1.43 67.84,1.95 67.73,2.46 67.62,2.97 67.35,3.42 67.07,3.87 66.68,4.21 66.28,4.55 65.79,4.74 65.30,4.94 64.78,4.97 64.25,5.00 63.75,4.85 63.24,4.71 62.81,4.42 62.37,4.13 62.06,3.71 61.74,3.29 61.57,2.79 61.41,2.30 61.41,1.77 61.41,1.25 61.57,0.75 61.74,0.25 62.06,-0.15 62.38,-0.57 62.81,-0.87 63.24,-1.16 63.75,-1.30 64.25,-1.44 64.78,-1.41 65.30,-1.38 65.79,-1.19 66.28,-0.99 66.68,-0.65 67.08,-0.32 67.35,0.12 67.62,0.57 67.73,1.09 67.84,1.60 67.78,2.12 67.73,2.64 67.51,3.12 67.29,3.59 66.93,3.97 66.57,4.35 66.10,4.60 65.64,4.84 65.12,4.93 64.60,5.01 64.60,5.01 64.60,5.01 62.63,4.99 60.65,4.96 59.21,4.90 57.76,4.84 56.31,4.80 54.87,4.76 53.52,4.71 52.16,4.65 50.73,4.59 49.29,4.52 47.38,4.46 45.47,4.39 43.57,4.32 41.67,4.24 40.03,4.12 38.39,4.00 37.31,3.93 36.23,3.86 34.89,3.80 33.54,3.74 32.18,3.66 30.82,3.58 29.45,3.47 28.07,3.36 26.02,3.34 23.97,3.31 21.54,3.26 19.12,3.20 16.64,3.01 14.15,2.81 11.60,2.83 9.05,2.84 7.86,2.59 6.66,2.34 4.86,2.20 3.06,2.06 1.53,2.03 0,1.99 -0.23,1.96 -0.47,1.93 -0.70,1.85 -0.92,1.76 -1.12,1.63 -1.32,1.49 -1.48,1.31 -1.64,1.13 -1.75,0.92 -1.86,0.70 -1.92,0.47 -1.98,0.24 -1.98,-0.00 -1.98,-0.24 -1.92,-0.47 -1.86,-0.70 -1.75,-0.92 -1.64,-1.13 -1.48,-1.31 -1.32,-1.49 -1.12,-1.63 -0.92,-1.76 -0.70,-1.85 -0.47,-1.93 -0.23,-1.96 0.00,-1.99 0.00,-1.99 L 0,-1.99 Z"></path></g><g transform="translate(348.0444844563802 203.51116943359378) rotate(0 12.444424099392393 0.8888922797309249)" stroke="none"><path fill="#1e1e1e" d="M 0,-2.57 Q 0,-2.57 1.79,-2.49 3.58,-2.42 5.30,-2.13 7.02,-1.85 8.46,-1.81 9.90,-1.77 11.09,-1.82 12.27,-1.88 13.78,-1.87 15.28,-1.86 16.28,-1.40 17.28,-0.94 18.42,-1.12 19.57,-1.30 22.06,-1.81 24.54,-2.32 25.06,-2.25 25.58,-2.17 26.04,-1.94 26.51,-1.70 26.87,-1.33 27.24,-0.96 27.46,-0.49 27.69,-0.02 27.76,0.49 27.82,1.00 27.72,1.52 27.62,2.03 27.36,2.48 27.10,2.93 26.71,3.27 26.32,3.62 25.83,3.82 25.35,4.02 24.83,4.06 24.31,4.10 23.81,3.97 23.31,3.84 22.87,3.55 22.43,3.27 22.11,2.86 21.79,2.45 21.61,1.96 21.44,1.47 21.43,0.95 21.42,0.43 21.57,-0.06 21.73,-0.56 22.04,-0.98 22.35,-1.40 22.77,-1.70 23.20,-2.00 23.70,-2.15 24.20,-2.30 24.72,-2.28 25.24,-2.26 25.73,-2.07 26.21,-1.89 26.62,-1.56 27.02,-1.23 27.30,-0.79 27.57,-0.35 27.70,0.15 27.82,0.66 27.77,1.18 27.72,1.69 27.51,2.17 27.30,2.65 26.95,3.03 26.60,3.42 26.14,3.67 25.69,3.92 25.18,4.02 24.66,4.11 24.66,4.11 24.66,4.11 23.40,4.08 22.13,4.04 21.00,4.44 19.87,4.84 18.66,4.79 17.45,4.73 15.97,4.18 14.48,3.63 13.35,3.63 12.21,3.63 10.87,3.52 9.53,3.41 7.88,3.14 6.23,2.87 4.90,2.64 3.57,2.42 1.78,2.49 0,2.57 -0.30,2.53 -0.61,2.49 -0.90,2.38 -1.19,2.27 -1.45,2.10 -1.70,1.92 -1.91,1.69 -2.11,1.46 -2.26,1.18 -2.40,0.91 -2.47,0.61 -2.55,0.30 -2.55,-0.00 -2.55,-0.31 -2.47,-0.61 -2.40,-0.91 -2.26,-1.18 -2.11,-1.46 -1.91,-1.69 -1.70,-1.92 -1.45,-2.10 -1.19,-2.27 -0.90,-2.38 -0.61,-2.49 -0.30,-2.53 0.00,-2.57 0.00,-2.57 L 0,-2.57 Z"></path></g><g stroke-linecap="round" transform="translate(400.4888746473525 247.95561387803824) rotate(0 26.22222900390625 37.77777777777777)"><path d="M13.11 0 C20.49 1.6, 26.8 -0.72, 39.33 0 M13.11 0 C20.42 0.58, 27.57 -0.83, 39.33 0 M39.33 0 C48.18 1.38, 51.03 4.39, 52.44 13.11 M39.33 0 C48.54 1.65, 54.6 2.69, 52.44 13.11 M52.44 13.11 C50.82 24.08, 52.38 34.53, 52.44 62.44 M52.44 13.11 C52.48 29.83, 52.64 46.92, 52.44 62.44 M52.44 62.44 C51.5 72.66, 48.78 76.16, 39.33 75.56 M52.44 62.44 C53.05 72.5, 47.76 74.05, 39.33 75.56 M39.33 75.56 C31.71 77.42, 21.46 75.42, 13.11 75.56 M39.33 75.56 C28.97 76.22, 19.57 75.03, 13.11 75.56 M13.11 75.56 C4.18 74.47, 0.15 72.82, 0 62.44 M13.11 75.56 C5.36 75.04, -0.54 69.43, 0 62.44 M0 62.44 C-1.52 48.81, 0.91 35.14, 0 13.11 M0 62.44 C0.79 44.67, -0.02 26.18, 0 13.11 M0 13.11 C-1.27 4.62, 6.03 -1.87, 13.11 0 M0 13.11 C-1.9 5.88, 4.62 -0.7, 13.11 0" stroke="#1e1e1e" stroke-width="1" fill="none"></path></g><g transform="translate(94.71111721462677 288.8444892035591) rotate(0 156.00001017252606 6.666666666666629)" stroke="none"><path fill="#1e1e1e" d="M 0,-1.58 Q 0,-1.58 1.78,-1.62 3.57,-1.66 5.95,-1.35 8.33,-1.04 11.29,-0.90 14.25,-0.76 18.12,-0.43 21.99,-0.11 25.98,0.55 29.97,1.21 34.16,1.75 38.36,2.29 42.74,3.04 47.12,3.78 50.96,4.10 54.79,4.41 57.76,4.81 60.72,5.20 63.76,5.63 66.80,6.05 69.88,6.49 72.96,6.93 75.50,7.11 78.04,7.29 81.16,7.37 84.27,7.45 87.64,7.48 91.01,7.52 94.49,7.53 97.97,7.55 101.23,7.55 104.50,7.56 107.98,7.82 111.46,8.08 114.43,8.19 117.40,8.30 120.50,8.60 123.60,8.91 126.65,9.03 129.70,9.16 133.05,9.21 136.39,9.27 139.60,9.29 142.81,9.31 145.70,9.32 148.60,9.33 151.37,9.34 154.13,9.34 157.35,9.34 160.57,9.35 163.73,9.35 166.88,9.35 169.25,9.35 171.61,9.35 173.64,9.32 175.67,9.30 177.81,9.31 179.95,9.31 181.97,9.54 183.99,9.77 186.03,9.88 188.08,9.99 190.23,10.05 192.37,10.11 194.17,10.32 195.97,10.53 197.88,10.63 199.80,10.74 201.40,10.72 202.99,10.70 204.82,10.95 206.64,11.20 208.55,11.33 210.46,11.47 212.56,11.57 214.66,11.67 216.58,11.68 218.50,11.69 220.08,11.63 221.66,11.58 223.61,11.60 225.56,11.61 228.17,11.67 230.79,11.72 233.18,11.76 235.57,11.80 237.36,11.76 239.14,11.71 240.66,11.64 242.19,11.57 243.86,11.53 245.53,11.49 247.26,11.48 248.99,11.46 250.49,11.41 252.00,11.36 253.40,11.31 254.81,11.26 256.17,11.21 257.53,11.16 258.62,11.10 259.70,11.04 261.46,10.58 263.23,10.12 264.48,10.03 265.73,9.95 267.02,9.92 268.31,9.88 270.59,9.83 272.86,9.77 274.84,9.71 276.82,9.66 278.37,9.60 279.93,9.54 281.31,9.49 282.68,9.44 284.02,9.40 285.36,9.35 286.95,9.33 288.54,9.30 290.54,9.31 292.54,9.32 294.47,9.32 296.39,9.32 297.58,9.28 298.76,9.25 300.16,9.20 301.55,9.15 302.70,9.13 303.85,9.12 305.36,9.08 306.86,9.05 309.29,9.02 311.72,9.00 312.27,9.09 312.81,9.18 313.31,9.44 313.80,9.70 314.18,10.10 314.56,10.51 314.80,11.01 315.03,11.52 315.09,12.07 315.15,12.63 315.03,13.17 314.91,13.71 314.63,14.19 314.34,14.67 313.91,15.03 313.49,15.39 312.97,15.59 312.46,15.80 311.90,15.83 311.34,15.86 310.81,15.71 310.27,15.56 309.81,15.25 309.35,14.94 309.01,14.49 308.67,14.05 308.50,13.52 308.32,13.00 308.32,12.44 308.32,11.88 308.50,11.35 308.68,10.83 309.01,10.38 309.35,9.94 309.81,9.63 310.27,9.32 310.81,9.17 311.34,9.02 311.90,9.05 312.46,9.08 312.97,9.28 313.49,9.49 313.91,9.85 314.34,10.21 314.63,10.69 314.91,11.17 315.03,11.71 315.15,12.25 315.09,12.81 315.03,13.36 314.80,13.87 314.56,14.37 314.18,14.78 313.80,15.18 313.31,15.44 312.81,15.70 312.26,15.79 311.71,15.88 311.72,15.88 311.72,15.88 309.29,15.85 306.86,15.83 305.36,15.80 303.85,15.76 302.70,15.74 301.55,15.72 300.16,15.68 298.76,15.63 297.58,15.59 296.39,15.56 294.47,15.56 292.54,15.55 290.54,15.56 288.54,15.57 286.95,15.55 285.36,15.52 284.02,15.48 282.68,15.44 281.31,15.39 279.93,15.34 278.38,15.28 276.82,15.22 274.85,15.17 272.88,15.12 270.64,15.09 268.40,15.06 267.17,15.06 265.94,15.06 264.10,15.10 262.27,15.14 261.00,15.38 259.73,15.61 258.63,15.55 257.53,15.49 256.17,15.45 254.81,15.40 253.40,15.35 252.00,15.30 250.49,15.25 248.99,15.20 247.26,15.18 245.53,15.16 243.86,15.13 242.19,15.09 240.66,15.02 239.14,14.94 237.35,14.90 235.57,14.85 233.18,14.89 230.79,14.93 228.17,14.98 225.55,15.03 223.60,15.04 221.64,15.05 220.05,14.98 218.46,14.90 216.52,14.87 214.59,14.84 212.43,14.84 210.27,14.84 208.17,14.74 206.08,14.64 204.48,14.34 202.89,14.04 201.26,13.91 199.62,13.79 197.55,13.67 195.48,13.54 193.89,13.20 192.31,12.86 190.12,12.82 187.93,12.79 185.78,12.68 183.62,12.58 181.78,12.29 179.94,12.01 177.80,12.01 175.67,12.02 173.64,12.00 171.61,11.97 169.25,11.97 166.88,11.97 163.73,11.97 160.57,11.97 157.35,11.97 154.13,11.97 151.36,11.96 148.59,11.96 145.69,11.95 142.79,11.94 139.57,11.92 136.34,11.89 132.97,11.84 129.60,11.78 126.47,11.65 123.34,11.52 120.32,11.22 117.30,10.92 114.28,10.81 111.27,10.70 107.88,10.45 104.49,10.19 101.22,10.19 97.95,10.18 94.47,10.17 90.98,10.15 87.59,10.12 84.20,10.09 81.03,10.01 77.86,9.93 75.22,9.74 72.59,9.56 69.51,9.12 66.44,8.69 63.40,8.28 60.37,7.86 57.47,7.48 54.58,7.10 50.62,6.79 46.67,6.48 42.34,5.75 38.02,5.03 33.77,4.52 29.51,4.00 25.64,3.38 21.76,2.77 17.95,2.50 14.14,2.22 11.07,2.14 7.99,2.06 5.78,1.86 3.57,1.66 1.78,1.62 0,1.58 -0.19,1.56 -0.38,1.54 -0.55,1.47 -0.73,1.40 -0.89,1.29 -1.05,1.18 -1.18,1.04 -1.30,0.90 -1.39,0.73 -1.48,0.56 -1.53,0.37 -1.57,0.19 -1.57,-0.00 -1.57,-0.19 -1.53,-0.37 -1.48,-0.56 -1.39,-0.73 -1.30,-0.90 -1.18,-1.04 -1.05,-1.18 -0.89,-1.29 -0.73,-1.40 -0.55,-1.47 -0.38,-1.54 -0.19,-1.56 0.00,-1.58 0.00,-1.58 L 0,-1.58 Z"></path></g><g transform="translate(455.6000264485677 270.1778361002605) rotate(0 42.666659884982664 1.3333468967013857)" stroke="none"><path fill="#1e1e1e" d="M 0,-1.75 Q 0,-1.75 3.06,-1.69 6.13,-1.63 9.03,-1.33 11.94,-1.03 14.89,-0.89 17.84,-0.75 20.38,-0.68 22.92,-0.61 25.27,-0.58 27.63,-0.54 29.90,-0.52 32.18,-0.50 34.43,-0.48 36.67,-0.47 38.40,-0.55 40.12,-0.62 41.62,-0.70 43.11,-0.79 44.52,-0.87 45.92,-0.95 47.69,-0.72 49.46,-0.48 50.60,-0.46 51.74,-0.43 53.60,-0.09 55.47,0.23 56.91,0.32 58.36,0.40 59.48,0.39 60.61,0.38 62.26,0.29 63.91,0.20 65.80,0.13 67.70,0.05 68.93,0.04 70.17,0.03 72.05,-0.02 73.93,-0.08 75.45,-0.14 76.97,-0.20 78.54,-0.59 80.11,-0.99 82.57,-1.12 85.02,-1.25 85.50,-1.17 85.99,-1.10 86.42,-0.87 86.86,-0.65 87.20,-0.29 87.54,0.05 87.75,0.50 87.96,0.94 88.02,1.43 88.07,1.92 87.97,2.40 87.87,2.88 87.62,3.30 87.37,3.72 87.00,4.04 86.62,4.36 86.17,4.55 85.72,4.73 85.23,4.76 84.74,4.79 84.26,4.67 83.79,4.54 83.38,4.27 82.97,3.99 82.67,3.61 82.37,3.22 82.21,2.75 82.05,2.29 82.04,1.80 82.04,1.31 82.19,0.84 82.35,0.37 82.64,-0.01 82.94,-0.40 83.34,-0.68 83.74,-0.96 84.22,-1.10 84.69,-1.23 85.18,-1.21 85.67,-1.18 86.13,-1.01 86.59,-0.83 86.96,-0.51 87.34,-0.20 87.60,0.21 87.85,0.63 87.96,1.11 88.07,1.59 88.02,2.08 87.97,2.57 87.77,3.01 87.57,3.46 87.23,3.82 86.90,4.18 86.46,4.41 86.03,4.64 85.55,4.73 85.06,4.81 85.06,4.81 85.06,4.81 83.51,4.82 81.95,4.84 80.75,4.89 79.55,4.95 78.30,5.24 77.04,5.53 75.48,5.47 73.93,5.41 72.05,5.35 70.16,5.29 68.93,5.28 67.69,5.27 65.76,5.18 63.84,5.09 62.12,4.94 60.40,4.78 59.20,4.66 58.01,4.54 56.40,4.37 54.80,4.20 53.08,3.93 51.37,3.66 50.11,3.47 48.86,3.28 47.39,3.00 45.92,2.73 44.51,2.65 43.11,2.57 41.61,2.48 40.12,2.39 38.39,2.32 36.67,2.24 34.42,2.25 32.17,2.25 29.89,2.25 27.60,2.26 25.23,2.26 22.87,2.25 20.30,2.23 17.74,2.21 14.70,2.13 11.66,2.05 8.90,1.84 6.13,1.63 3.06,1.69 0,1.75 -0.21,1.73 -0.42,1.70 -0.61,1.63 -0.81,1.55 -0.99,1.43 -1.16,1.31 -1.30,1.15 -1.44,0.99 -1.54,0.81 -1.64,0.62 -1.69,0.41 -1.74,0.21 -1.74,-0.00 -1.74,-0.21 -1.69,-0.41 -1.64,-0.62 -1.54,-0.81 -1.44,-0.99 -1.30,-1.15 -1.16,-1.31 -0.99,-1.43 -0.81,-1.55 -0.61,-1.63 -0.42,-1.70 -0.21,-1.73 0.00,-1.75 0.00,-1.75 L 0,-1.75 Z"></path></g><g transform="translate(452.0444573296441 307.51114230685766) rotate(0 43.11109754774304 0)" stroke="none"><path fill="#1e1e1e" d="M 0,-1.94 Q 0,-1.94 2.30,-1.86 4.60,-1.77 6.59,-1.74 8.59,-1.71 9.96,-1.79 11.32,-1.87 12.66,-1.94 14.01,-2.00 15.34,-2.06 16.68,-2.11 18.27,-2.13 19.87,-2.14 22.33,-2.03 24.80,-1.92 26.87,-1.85 28.94,-1.78 30.84,-1.77 32.74,-1.76 35.08,-1.70 37.42,-1.64 39.70,-1.59 41.97,-1.55 43.70,-1.60 45.43,-1.65 46.94,-1.72 48.44,-1.79 49.85,-1.86 51.25,-1.93 52.87,-1.96 54.49,-1.98 55.94,-2.03 57.40,-2.07 58.53,-2.14 59.66,-2.20 60.91,-2.25 62.15,-2.29 64.40,-2.38 66.65,-2.46 68.62,-2.55 70.60,-2.63 72.15,-2.70 73.71,-2.77 75.18,-2.87 76.65,-2.96 78.25,-3.02 79.85,-3.09 81.36,-3.15 82.86,-3.20 84.40,-3.22 85.94,-3.23 86.45,-3.14 86.97,-3.06 87.43,-2.81 87.89,-2.57 88.25,-2.19 88.61,-1.81 88.83,-1.33 89.05,-0.86 89.11,-0.34 89.16,0.17 89.05,0.68 88.94,1.19 88.67,1.64 88.40,2.09 88.00,2.43 87.60,2.76 87.12,2.96 86.63,3.15 86.11,3.18 85.59,3.21 85.08,3.07 84.58,2.93 84.15,2.63 83.71,2.34 83.40,1.92 83.08,1.51 82.92,1.01 82.75,0.52 82.75,-0.00 82.75,-0.52 82.92,-1.01 83.08,-1.51 83.40,-1.93 83.72,-2.34 84.15,-2.63 84.58,-2.93 85.08,-3.07 85.59,-3.21 86.11,-3.18 86.63,-3.15 87.12,-2.96 87.60,-2.76 88.00,-2.42 88.40,-2.09 88.67,-1.64 88.94,-1.19 89.05,-0.68 89.16,-0.17 89.11,0.34 89.05,0.86 88.83,1.33 88.61,1.81 88.25,2.19 87.89,2.57 87.43,2.81 86.97,3.06 86.45,3.14 85.94,3.23 85.94,3.23 85.94,3.23 84.40,3.22 82.86,3.20 81.36,3.15 79.85,3.09 78.25,3.02 76.65,2.96 75.18,2.87 73.71,2.77 72.15,2.70 70.60,2.63 68.62,2.55 66.65,2.46 64.40,2.38 62.15,2.29 60.91,2.25 59.66,2.20 58.53,2.14 57.40,2.07 55.94,2.03 54.49,1.98 52.87,1.96 51.25,1.93 49.85,1.86 48.44,1.79 46.94,1.72 45.43,1.65 43.70,1.60 41.97,1.55 39.70,1.59 37.42,1.64 35.08,1.70 32.74,1.76 30.84,1.77 28.94,1.78 26.87,1.85 24.80,1.92 22.33,2.03 19.87,2.14 18.27,2.13 16.68,2.11 15.34,2.06 14.01,2.00 12.66,1.94 11.32,1.87 9.96,1.79 8.59,1.71 6.59,1.74 4.60,1.77 2.30,1.86 0,1.94 -0.23,1.91 -0.46,1.89 -0.68,1.80 -0.90,1.72 -1.09,1.59 -1.29,1.45 -1.44,1.28 -1.60,1.10 -1.71,0.89 -1.82,0.69 -1.87,0.46 -1.93,0.23 -1.93,-0.00 -1.93,-0.23 -1.87,-0.46 -1.82,-0.69 -1.71,-0.89 -1.60,-1.10 -1.44,-1.28 -1.29,-1.45 -1.09,-1.59 -0.90,-1.72 -0.68,-1.80 -0.46,-1.89 -0.23,-1.91 0.00,-1.94 0.00,-1.94 L 0,-1.94 Z"></path></g><g transform="translate(299.1555616590712 156.4000651041667) rotate(0 -7.555558946397582 16.444430881076386)" stroke="none"><path fill="#1e1e1e" d="M 0,2.47 Q 0,2.47 -2.29,2.32 -4.59,2.17 -6.95,2.99 -9.32,3.82 -10.68,4.76 -12.04,5.70 -12.18,7.07 -12.32,8.45 -11.30,9.22 -10.29,10.00 -9.49,8.40 -8.69,6.80 -8.55,6.18 -8.41,5.55 -8.21,5.21 -8.01,4.88 -7.73,4.60 -7.46,4.32 -7.13,4.12 -6.79,3.91 -6.42,3.80 -6.05,3.68 -5.66,3.65 -5.27,3.62 -4.89,3.69 -4.50,3.76 -4.15,3.92 -3.79,4.08 -3.48,4.31 -3.17,4.55 -2.93,4.86 -2.68,5.16 -2.52,5.52 -2.36,5.87 -2.29,6.26 -2.21,6.64 -2.23,7.03 -2.26,7.42 -2.37,7.79 -2.48,8.17 -3.06,6.17 -3.63,4.18 -2.50,5.28 -1.38,6.38 -1.01,8.28 -0.64,10.18 -0.42,11.64 -0.20,13.09 -0.19,15.23 -0.18,17.38 0.05,18.82 0.29,20.25 0.46,21.54 0.63,22.84 0.72,23.92 0.82,25.01 0.85,26.24 0.88,27.46 1.39,29.87 1.89,32.28 1.85,32.73 1.82,33.19 1.63,33.61 1.45,34.03 1.15,34.37 0.84,34.71 0.44,34.93 0.04,35.15 -0.40,35.24 -0.85,35.32 -1.30,35.26 -1.75,35.20 -2.16,34.99 -2.57,34.79 -2.89,34.47 -3.21,34.14 -3.41,33.73 -3.62,33.32 -3.68,32.87 -3.74,32.42 -3.65,31.97 -3.56,31.52 -3.34,31.12 -3.11,30.72 -2.77,30.42 -2.43,30.12 -2.01,29.94 -1.59,29.76 -1.13,29.72 -0.68,29.69 -0.23,29.80 0.20,29.91 0.58,30.16 0.97,30.40 1.25,30.76 1.54,31.12 1.70,31.55 1.85,31.98 1.86,32.43 1.87,32.89 1.74,33.33 1.60,33.76 1.34,34.13 1.07,34.50 0.70,34.77 0.32,35.03 -0.10,35.17 -0.54,35.30 -1.00,35.29 -1.45,35.27 -1.88,35.11 -2.31,34.95 -2.67,34.67 -3.02,34.38 -3.27,33.99 -3.51,33.61 -3.62,33.16 -3.73,32.72 -3.73,32.72 -3.73,32.72 -3.82,31.35 -3.90,29.99 -4.21,28.82 -4.51,27.65 -4.54,25.54 -4.58,23.42 -4.68,22.34 -4.78,21.26 -5.17,19.51 -5.55,17.77 -5.82,16.04 -6.08,14.31 -6.09,12.06 -6.11,9.82 -7.26,7.69 -8.41,5.55 -8.21,5.21 -8.01,4.88 -7.73,4.60 -7.46,4.32 -7.13,4.12 -6.79,3.91 -6.42,3.80 -6.05,3.68 -5.66,3.65 -5.27,3.62 -4.89,3.69 -4.50,3.76 -4.15,3.92 -3.79,4.08 -3.48,4.31 -3.17,4.55 -2.93,4.86 -2.68,5.16 -2.52,5.52 -2.36,5.87 -2.29,6.26 -2.21,6.64 -2.23,7.03 -2.26,7.42 -2.37,7.79 -2.48,8.17 -2.57,8.59 -2.66,9.00 -3.23,9.92 -3.80,10.84 -4.88,11.99 -5.96,13.13 -7.02,13.98 -8.08,14.83 -9.52,15.10 -10.96,15.36 -12.65,15.02 -14.34,14.69 -15.72,13.21 -17.09,11.73 -17.25,9.73 -17.41,7.72 -17.14,6.27 -16.86,4.82 -16.18,3.59 -15.51,2.36 -13.25,1.01 -10.98,-0.32 -9.26,-1.01 -7.53,-1.70 -6.07,-1.94 -4.60,-2.17 -2.30,-2.32 0,-2.47 0.29,-2.43 0.59,-2.40 0.87,-2.29 1.15,-2.19 1.39,-2.02 1.64,-1.85 1.83,-1.62 2.03,-1.40 2.17,-1.14 2.31,-0.87 2.38,-0.58 2.45,-0.29 2.45,0.00 2.45,0.29 2.38,0.58 2.31,0.87 2.17,1.14 2.03,1.40 1.83,1.62 1.64,1.85 1.39,2.02 1.15,2.19 0.87,2.29 0.59,2.40 0.29,2.43 -0.00,2.47 -0.00,2.47 L 0,2.47 Z"></path></g><g transform="translate(459.1555955674914 242.62226019965286) rotate(0 1.33331298828125 10.22221883138019)" stroke="none"><path fill="#1e1e1e" d="M 2.35,-0.67 Q 2.35,-0.67 2.79,1.13 3.23,2.94 3.68,4.45 4.14,5.96 4.36,7.83 4.58,9.70 4.69,11.25 4.80,12.79 4.89,13.96 4.97,15.13 5.09,17.59 5.20,20.05 5.13,20.45 5.07,20.86 4.88,21.22 4.69,21.59 4.39,21.87 4.09,22.15 3.72,22.33 3.35,22.50 2.94,22.55 2.53,22.59 2.13,22.51 1.73,22.42 1.38,22.21 1.02,22.00 0.76,21.69 0.49,21.38 0.34,21.00 0.18,20.62 0.16,20.21 0.13,19.80 0.24,19.40 0.35,19.00 0.58,18.66 0.81,18.32 1.13,18.07 1.46,17.82 1.85,17.69 2.24,17.55 2.65,17.55 3.06,17.55 3.45,17.68 3.84,17.81 4.17,18.06 4.50,18.30 4.73,18.64 4.96,18.98 5.07,19.38 5.18,19.77 5.16,20.18 5.14,20.59 4.99,20.98 4.84,21.36 4.58,21.67 4.31,21.99 3.96,22.20 3.61,22.41 3.21,22.50 2.81,22.59 2.40,22.55 1.99,22.51 1.62,22.34 1.24,22.17 0.94,21.88 0.65,21.60 0.45,21.24 0.26,20.88 0.19,20.47 0.12,20.07 0.12,20.07 0.12,20.07 0.18,17.67 0.24,15.28 0.26,14.16 0.27,13.05 0.21,11.64 0.15,10.24 -0.03,8.76 -0.21,7.29 -0.69,5.75 -1.18,4.20 -1.77,2.44 -2.35,0.67 -2.40,0.38 -2.45,0.08 -2.42,-0.20 -2.40,-0.49 -2.30,-0.77 -2.21,-1.05 -2.05,-1.30 -1.89,-1.55 -1.68,-1.76 -1.46,-1.96 -1.20,-2.11 -0.95,-2.25 -0.66,-2.34 -0.38,-2.42 -0.08,-2.43 0.20,-2.44 0.49,-2.38 0.78,-2.32 1.05,-2.19 1.31,-2.06 1.54,-1.88 1.77,-1.69 1.95,-1.45 2.12,-1.21 2.24,-0.94 2.35,-0.67 2.35,-0.67 L 2.35,-0.67 Z"></path></g><g transform="translate(471.59998575846356 261.2889472113716) rotate(0 0.4444715711805429 0)" stroke="none"><path fill="#1e1e1e" d="M 0.51,-2.32 Q 0.51,-2.32 0.88,-2.26 1.25,-2.20 1.58,-2.02 1.91,-1.85 2.17,-1.57 2.43,-1.30 2.59,-0.96 2.75,-0.62 2.79,-0.24 2.83,0.12 2.75,0.49 2.67,0.86 2.47,1.18 2.28,1.50 1.99,1.74 1.70,1.99 1.36,2.13 1.01,2.27 0.63,2.29 0.25,2.31 -0.10,2.21 -0.46,2.11 -0.77,1.89 -1.08,1.68 -1.31,1.38 -1.54,1.08 -1.66,0.73 -1.78,0.37 -1.78,-0.00 -1.78,-0.37 -1.66,-0.73 -1.54,-1.08 -1.31,-1.38 -1.08,-1.68 -0.77,-1.89 -0.46,-2.11 -0.10,-2.21 0.26,-2.31 0.63,-2.29 1.01,-2.27 1.36,-2.13 1.71,-1.99 1.99,-1.74 2.28,-1.50 2.47,-1.18 2.67,-0.86 2.75,-0.49 2.83,-0.12 2.79,0.24 2.75,0.62 2.59,0.96 2.43,1.30 2.17,1.57 1.91,1.85 1.58,2.02 1.25,2.20 0.88,2.26 0.51,2.32 0.51,2.32 0.51,2.32 0.22,2.35 -0.06,2.37 -0.34,2.33 -0.62,2.29 -0.89,2.18 -1.15,2.07 -1.39,1.91 -1.62,1.74 -1.80,1.52 -1.99,1.30 -2.11,1.04 -2.24,0.78 -2.30,0.50 -2.36,0.22 -2.36,-0.05 -2.35,-0.34 -2.27,-0.62 -2.20,-0.90 -2.06,-1.15 -1.92,-1.40 -1.72,-1.61 -1.53,-1.82 -1.29,-1.97 -1.05,-2.13 -0.78,-2.23 -0.51,-2.32 0.00,-2.32 L 0.51,-2.32 Z"></path></g><g transform="translate(490.2667066786025 240.84450954861117) rotate(0 2.666659884982664 10.666656494140625)" stroke="none"><path fill="#1e1e1e" d="M 2.39,0.95 Q 2.39,0.95 1.88,2.23 1.37,3.50 1.16,5.63 0.94,7.76 0.90,9.10 0.86,10.44 1.25,12.35 1.64,14.27 1.77,15.80 1.90,17.34 3.47,17.76 5.05,18.18 5.32,16.40 5.60,14.61 4.34,13.80 3.09,12.99 1.86,12.67 0.64,12.36 -1.14,12.79 -2.92,13.22 -3.49,13.18 -4.05,13.14 -4.57,12.92 -5.09,12.70 -5.51,12.33 -5.94,11.96 -6.22,11.47 -6.50,10.98 -6.62,10.43 -6.73,9.88 -6.66,9.32 -6.59,8.76 -6.34,8.25 -6.10,7.74 -5.70,7.34 -5.31,6.93 -4.80,6.68 -4.30,6.42 -3.74,6.34 -3.18,6.26 -2.63,6.36 -2.07,6.46 -1.58,6.73 -1.09,7.00 -0.70,7.42 -0.32,7.84 -0.09,8.35 0.12,8.87 0.18,9.43 0.23,9.99 0.10,10.54 -0.02,11.09 -0.32,11.57 -0.62,12.05 -1.06,12.40 -1.49,12.76 -2.02,12.96 -2.55,13.16 -3.11,13.18 -3.68,13.21 -4.22,13.05 -4.76,12.89 -5.22,12.56 -5.68,12.24 -6.02,11.78 -6.35,11.33 -6.52,10.79 -6.69,10.25 -6.68,9.69 -6.67,9.12 -6.49,8.59 -6.30,8.06 -5.95,7.62 -5.60,7.17 -5.13,6.86 -4.65,6.55 -4.11,6.41 -3.56,6.27 -3.56,6.27 -3.56,6.27 -0.89,5.87 1.77,5.48 3.14,5.70 4.51,5.92 5.81,6.82 7.11,7.71 8.25,8.38 9.40,9.05 10.28,9.87 11.15,10.68 11.64,11.98 12.12,13.27 12.11,14.94 12.10,16.61 11.73,18.71 11.37,20.80 10.47,21.66 9.58,22.52 8.50,23.12 7.41,23.71 5.23,23.99 3.04,24.27 1.91,24.04 0.78,23.82 -0.11,23.25 -1.01,22.67 -2.02,21.27 -3.03,19.86 -3.37,17.96 -3.72,16.07 -3.76,14.61 -3.81,13.14 -4.05,11.74 -4.30,10.33 -4.26,8.88 -4.23,7.44 -4.13,5.78 -4.03,4.13 -3.72,2.87 -3.41,1.60 -2.90,0.32 -2.39,-0.95 -2.24,-1.23 -2.09,-1.50 -1.88,-1.73 -1.67,-1.96 -1.41,-2.13 -1.15,-2.30 -0.86,-2.41 -0.57,-2.51 -0.26,-2.54 0.04,-2.58 0.35,-2.53 0.66,-2.49 0.95,-2.37 1.24,-2.26 1.49,-2.08 1.74,-1.90 1.94,-1.66 2.15,-1.42 2.28,-1.14 2.42,-0.87 2.49,-0.56 2.56,-0.26 2.56,0.04 2.55,0.35 2.47,0.65 2.39,0.95 2.39,0.95 L 2.39,0.95 Z"></path></g><g transform="translate(468.0444844563802 285.2889200846355) rotate(0 2.666659884982664 8.000013563368071)" stroke="none"><path fill="#1e1e1e" d="M 2.36,-1.01 Q 2.36,-1.01 3.02,0.82 3.69,2.65 4.10,3.75 4.51,4.86 5.19,6.85 5.87,8.84 6.72,11.61 7.56,14.38 7.71,14.80 7.85,15.21 7.85,15.66 7.85,16.10 7.71,16.52 7.57,16.94 7.30,17.29 7.04,17.64 6.67,17.89 6.31,18.14 5.88,18.26 5.46,18.38 5.01,18.36 4.57,18.34 4.16,18.17 3.75,18.01 3.41,17.73 3.07,17.44 2.84,17.06 2.62,16.68 2.52,16.25 2.42,15.82 2.47,15.38 2.52,14.94 2.70,14.54 2.89,14.14 3.19,13.82 3.49,13.49 3.88,13.29 4.27,13.08 4.71,13.00 5.14,12.93 5.58,13.00 6.02,13.07 6.41,13.28 6.80,13.48 7.11,13.80 7.41,14.12 7.60,14.53 7.78,14.93 7.83,15.37 7.88,15.81 7.79,16.24 7.69,16.67 7.47,17.05 7.24,17.43 6.90,17.72 6.57,18.00 6.16,18.17 5.75,18.33 5.31,18.36 4.86,18.38 4.44,18.27 4.01,18.15 3.64,17.90 3.28,17.65 3.01,17.30 2.74,16.95 2.74,16.95 2.74,16.95 2.09,14.49 1.43,12.02 1.03,10.24 0.63,8.45 0.00,6.47 -0.62,4.50 -1.49,2.75 -2.36,1.01 -2.44,0.71 -2.53,0.41 -2.54,0.10 -2.56,-0.20 -2.50,-0.50 -2.43,-0.80 -2.30,-1.08 -2.17,-1.36 -1.97,-1.60 -1.78,-1.84 -1.53,-2.03 -1.28,-2.22 -1.00,-2.34 -0.72,-2.46 -0.41,-2.51 -0.10,-2.56 0.20,-2.54 0.50,-2.51 0.80,-2.42 1.09,-2.32 1.35,-2.15 1.62,-1.99 1.83,-1.77 2.05,-1.54 2.20,-1.27 2.36,-1.01 2.36,-1.01 L 2.36,-1.01 Z"></path></g><g transform="translate(485.822262234158 296.8445027669271) rotate(0 0.4444376627604356 0)" stroke="none"><path fill="#1e1e1e" d="M 0.51,-2.32 Q 0.51,-2.32 0.88,-2.26 1.25,-2.20 1.58,-2.02 1.91,-1.85 2.17,-1.57 2.43,-1.30 2.59,-0.96 2.75,-0.62 2.79,-0.24 2.83,0.12 2.75,0.49 2.67,0.86 2.47,1.18 2.28,1.50 1.99,1.74 1.70,1.99 1.36,2.13 1.01,2.27 0.63,2.29 0.25,2.31 -0.10,2.21 -0.46,2.11 -0.77,1.89 -1.08,1.68 -1.31,1.38 -1.54,1.08 -1.66,0.73 -1.78,0.37 -1.78,-0.00 -1.78,-0.37 -1.66,-0.73 -1.54,-1.08 -1.31,-1.38 -1.08,-1.68 -0.77,-1.89 -0.46,-2.11 -0.10,-2.21 0.26,-2.31 0.63,-2.29 1.01,-2.27 1.36,-2.13 1.71,-1.99 1.99,-1.74 2.28,-1.50 2.47,-1.18 2.67,-0.86 2.75,-0.49 2.83,-0.12 2.79,0.24 2.75,0.62 2.59,0.96 2.43,1.30 2.17,1.57 1.91,1.85 1.58,2.02 1.25,2.20 0.88,2.26 0.51,2.32 0.51,2.32 0.51,2.32 0.22,2.35 -0.06,2.37 -0.34,2.33 -0.62,2.29 -0.89,2.18 -1.15,2.07 -1.39,1.91 -1.62,1.74 -1.80,1.52 -1.99,1.30 -2.11,1.04 -2.24,0.78 -2.30,0.50 -2.36,0.22 -2.36,-0.05 -2.35,-0.34 -2.27,-0.62 -2.20,-0.90 -2.06,-1.15 -1.92,-1.40 -1.72,-1.61 -1.53,-1.82 -1.29,-1.97 -1.05,-2.13 -0.78,-2.23 -0.51,-2.32 0.00,-2.32 L 0.51,-2.32 Z"></path></g><g transform="translate(504.4889153374566 287.06673855251745) rotate(0 -2.6666937934027715 9.333326551649321)" stroke="none"><path fill="#1e1e1e" d="M 1.16,2.32 Q 1.16,2.32 0.17,2.84 -0.81,3.36 -1.88,4.98 -2.94,6.61 -3.15,8.33 -3.35,10.05 -3.36,11.67 -3.36,13.29 -2.78,14.46 -2.20,15.63 -3.29,15.04 -4.38,14.45 -4.75,14.06 -5.12,13.66 -5.34,13.17 -5.57,12.67 -5.62,12.14 -5.68,11.60 -5.56,11.07 -5.44,10.54 -5.15,10.08 -4.87,9.62 -4.46,9.27 -4.04,8.92 -3.54,8.73 -3.03,8.53 -2.49,8.50 -1.95,8.48 -1.43,8.63 -0.91,8.77 -0.46,9.08 -0.02,9.39 0.30,9.82 0.62,10.25 0.79,10.77 0.96,11.28 0.96,11.82 0.95,12.37 0.78,12.88 0.60,13.39 0.27,13.82 -0.05,14.25 -0.50,14.55 -0.95,14.85 -1.48,14.99 -2.00,15.13 -2.54,15.10 -3.08,15.06 -3.58,14.86 -4.08,14.66 -4.49,14.30 -4.90,13.95 -5.18,13.48 -5.45,13.02 -5.57,12.49 -5.68,11.96 -5.62,11.42 -5.55,10.88 -5.32,10.39 -5.09,9.90 -4.72,9.51 -4.34,9.12 -3.86,8.87 -3.38,8.62 -2.85,8.54 -2.31,8.46 -1.78,8.55 -1.25,8.64 -0.77,8.90 -0.29,9.15 -0.29,9.15 -0.29,9.15 1.05,10.07 2.40,10.99 3.02,11.99 3.64,13.00 3.87,14.08 4.10,15.16 3.88,16.50 3.67,17.85 2.92,19.12 2.18,20.40 0.11,21.03 -1.95,21.65 -3.48,21.20 -5.00,20.75 -5.86,20.09 -6.73,19.43 -7.56,18.30 -8.39,17.17 -8.73,16.02 -9.07,14.87 -8.98,13.28 -8.89,11.68 -8.81,10.60 -8.73,9.51 -8.56,8.10 -8.39,6.68 -7.97,5.39 -7.55,4.10 -6.70,2.64 -5.84,1.18 -4.56,-0.06 -3.27,-1.31 -2.21,-1.82 -1.16,-2.32 -0.86,-2.43 -0.57,-2.54 -0.26,-2.57 0.05,-2.60 0.36,-2.55 0.67,-2.51 0.96,-2.39 1.25,-2.28 1.51,-2.09 1.76,-1.91 1.96,-1.67 2.17,-1.43 2.31,-1.15 2.45,-0.87 2.52,-0.56 2.59,-0.26 2.58,0.05 2.57,0.36 2.49,0.66 2.41,0.97 2.26,1.24 2.11,1.52 1.90,1.75 1.68,1.98 1.42,2.15 1.16,2.32 1.16,2.32 L 1.16,2.32 Z"></path></g><g transform="translate(481.37781778971356 82.62226019965286) rotate(0 12.888861762152771 5.333353678385407)" stroke="none"><path fill="#1e1e1e" d="M -2.33,-0.93 Q -2.33,-0.93 -1.82,-2.21 -1.31,-3.50 -0.46,-4.81 0.38,-6.12 1.68,-7.31 2.98,-8.49 4.27,-9.14 5.56,-9.80 7.39,-10.22 9.23,-10.64 11.96,-9.70 14.69,-8.75 15.85,-7.32 17.02,-5.88 17.69,-4.81 18.37,-3.73 18.79,-2.47 19.22,-1.21 19.39,-0.11 19.56,0.98 19.98,3.32 20.40,5.66 20.46,6.83 20.53,8.00 20.50,9.99 20.47,11.98 19.71,13.25 18.95,14.52 17.53,15.67 16.10,16.83 14.59,17.44 13.09,18.05 11.86,18.19 10.63,18.32 8.66,18.11 6.69,17.89 5.67,17.19 4.64,16.49 4.70,14.46 4.77,12.43 6.25,11.25 7.74,10.06 9.50,10.00 11.26,9.93 12.59,10.26 13.93,10.59 15.47,11.05 17.01,11.51 18.23,12.39 19.45,13.27 20.48,14.06 21.50,14.85 23.53,15.11 25.57,15.37 26.09,15.47 26.61,15.57 27.07,15.83 27.54,16.09 27.89,16.48 28.25,16.88 28.46,17.36 28.67,17.85 28.72,18.38 28.76,18.91 28.64,19.43 28.51,19.94 28.22,20.39 27.94,20.84 27.53,21.17 27.11,21.51 26.61,21.69 26.12,21.88 25.59,21.89 25.05,21.91 24.55,21.76 24.04,21.60 23.60,21.29 23.17,20.98 22.86,20.55 22.55,20.12 22.39,19.62 22.23,19.11 22.25,18.58 22.26,18.05 22.44,17.55 22.62,17.05 22.96,16.63 23.29,16.22 23.73,15.93 24.18,15.64 24.70,15.51 25.21,15.38 25.74,15.42 26.27,15.47 26.76,15.67 27.25,15.88 27.64,16.24 28.04,16.59 28.30,17.05 28.57,17.51 28.67,18.03 28.77,18.56 28.70,19.08 28.63,19.61 28.40,20.09 28.16,20.56 27.79,20.94 27.41,21.32 26.94,21.55 26.46,21.79 25.93,21.86 25.41,21.94 25.41,21.94 25.41,21.94 22.61,21.53 19.81,21.12 18.82,20.64 17.83,20.16 16.61,19.38 15.39,18.60 14.50,18.01 13.60,17.42 12.44,17.09 11.27,16.76 10.48,16.03 9.68,15.30 10.00,13.56 10.32,11.82 11.66,11.59 13.01,11.35 13.94,10.76 14.86,10.17 14.82,8.17 14.77,6.18 14.68,5.10 14.58,4.02 14.24,2.85 13.89,1.67 13.77,0.37 13.64,-0.91 12.70,-2.52 11.75,-4.13 10.16,-4.63 8.57,-5.13 7.42,-4.90 6.28,-4.66 4.81,-3.13 3.35,-1.60 2.84,-0.33 2.33,0.93 2.19,1.20 2.04,1.46 1.83,1.68 1.63,1.91 1.38,2.08 1.12,2.24 0.84,2.35 0.55,2.45 0.25,2.48 -0.04,2.51 -0.34,2.47 -0.64,2.43 -0.92,2.31 -1.20,2.20 -1.45,2.02 -1.70,1.85 -1.89,1.62 -2.09,1.39 -2.23,1.12 -2.36,0.84 -2.43,0.55 -2.50,0.25 -2.49,-0.04 -2.49,-0.34 -2.41,-0.64 -2.33,-0.93 -2.33,-0.93 L -2.33,-0.93 Z"></path></g><g transform="translate(510.7111104329427 73.73337131076394) rotate(0 2.2222222222222285 12.4444580078125)" stroke="none"><path fill="#1e1e1e" d="M 1.99,-0.99 Q 1.99,-0.99 2.74,0.54 3.49,2.09 4.06,4.21 4.62,6.34 4.92,8.06 5.22,9.78 5.37,11.30 5.52,12.82 5.57,14.50 5.62,16.19 5.57,18.18 5.52,20.17 5.85,21.92 6.18,23.67 6.26,23.99 6.35,24.32 6.33,24.65 6.31,24.99 6.18,25.30 6.05,25.61 5.83,25.87 5.61,26.12 5.32,26.29 5.03,26.47 4.70,26.54 4.37,26.60 4.04,26.57 3.70,26.53 3.40,26.38 3.09,26.24 2.85,26.00 2.61,25.77 2.45,25.47 2.30,25.17 2.25,24.84 2.19,24.50 2.25,24.17 2.31,23.84 2.47,23.54 2.63,23.25 2.88,23.02 3.12,22.79 3.43,22.65 3.74,22.51 4.07,22.48 4.41,22.44 4.74,22.52 5.07,22.60 5.35,22.77 5.64,22.95 5.86,23.21 6.07,23.47 6.19,23.78 6.32,24.09 6.33,24.43 6.35,24.77 6.25,25.09 6.16,25.42 5.97,25.69 5.78,25.97 5.51,26.17 5.24,26.37 4.91,26.48 4.59,26.58 4.26,26.58 3.92,26.58 3.60,26.47 3.28,26.35 3.02,26.15 2.75,25.94 2.56,25.66 2.38,25.38 2.38,25.38 2.38,25.38 1.95,22.80 1.52,20.21 1.44,18.26 1.35,16.30 1.31,14.72 1.27,13.13 1.21,11.77 1.15,10.41 0.96,8.95 0.76,7.50 0.16,5.77 -0.42,4.04 -1.21,2.52 -1.99,0.99 -2.08,0.74 -2.18,0.49 -2.20,0.22 -2.23,-0.04 -2.19,-0.31 -2.15,-0.57 -2.05,-0.82 -1.95,-1.07 -1.80,-1.29 -1.64,-1.51 -1.43,-1.68 -1.23,-1.86 -0.99,-1.98 -0.75,-2.10 -0.48,-2.16 -0.22,-2.22 0.04,-2.21 0.31,-2.21 0.57,-2.14 0.83,-2.07 1.06,-1.94 1.30,-1.81 1.50,-1.63 1.70,-1.44 1.85,-1.22 1.99,-0.99 1.99,-0.99 L 1.99,-0.99 Z"></path></g><g transform="translate(480.4888746473525 146.62226698133688) rotate(0 6.22222900390625 -0.8888922797308965)" stroke="none"><path fill="#1e1e1e" d="M 0,-2.62 Q 0,-2.62 1.27,-2.63 2.55,-2.64 4.31,-2.70 6.07,-2.77 7.32,-3.02 8.57,-3.27 9.30,-3.34 10.03,-3.42 10.38,-3.73 10.73,-4.05 11.16,-4.23 11.59,-4.42 12.06,-4.46 12.53,-4.50 12.99,-4.39 13.45,-4.27 13.84,-4.02 14.24,-3.77 14.53,-3.40 14.83,-3.04 14.99,-2.59 15.16,-2.15 15.17,-1.68 15.18,-1.21 15.05,-0.76 14.91,-0.31 14.63,0.06 14.36,0.44 13.98,0.72 13.60,0.99 13.15,1.13 12.70,1.27 12.23,1.26 11.76,1.25 11.32,1.09 10.87,0.92 10.51,0.63 10.14,0.34 9.89,-0.05 9.63,-0.45 9.52,-0.90 9.40,-1.36 9.44,-1.83 9.48,-2.30 9.66,-2.73 9.85,-3.16 10.16,-3.51 10.48,-3.86 10.88,-4.10 11.29,-4.33 11.76,-4.42 12.22,-4.51 12.68,-4.44 13.15,-4.38 13.57,-4.17 13.99,-3.96 14.33,-3.63 14.66,-3.30 14.87,-2.88 15.08,-2.46 15.14,-1.99 15.21,-1.53 15.12,-1.06 15.03,-0.60 14.80,-0.19 14.57,0.21 14.57,0.21 14.57,0.21 12.40,1.23 10.22,2.25 8.14,2.51 6.07,2.77 4.31,2.70 2.55,2.64 1.27,2.63 0,2.62 -0.31,2.59 -0.62,2.55 -0.92,2.43 -1.22,2.32 -1.48,2.14 -1.74,1.96 -1.95,1.73 -2.16,1.49 -2.31,1.21 -2.45,0.93 -2.53,0.62 -2.60,0.31 -2.60,-0.00 -2.60,-0.31 -2.53,-0.62 -2.45,-0.93 -2.31,-1.21 -2.16,-1.49 -1.95,-1.73 -1.74,-1.96 -1.48,-2.14 -1.22,-2.32 -0.92,-2.44 -0.62,-2.55 -0.31,-2.59 0.00,-2.62 0.00,-2.62 L 0,-2.62 Z"></path></g><g transform="translate(500.933346218533 137.73337809244796) rotate(0 1.7777845594618498 8.888888888888886)" stroke="none"><path fill="#1e1e1e" d="M 2.56,0.51 Q 2.56,0.51 2.31,1.79 2.06,3.07 1.67,4.29 1.28,5.52 1.17,7.42 1.05,9.32 1.03,10.47 1.01,11.61 1.05,13.30 1.08,15.00 1.05,13.61 1.02,12.22 1.51,11.01 1.99,9.80 2.03,8.57 2.06,7.33 2.06,6.00 2.06,4.67 2.08,4.25 2.11,3.84 1.70,3.50 1.29,3.17 1.00,2.72 0.72,2.27 0.60,1.75 0.47,1.24 0.52,0.71 0.56,0.18 0.78,-0.29 0.99,-0.78 1.35,-1.17 1.70,-1.57 2.17,-1.82 2.63,-2.08 3.15,-2.18 3.67,-2.27 4.20,-2.20 4.72,-2.12 5.20,-1.89 5.67,-1.65 6.04,-1.27 6.41,-0.89 6.65,-0.42 6.88,0.05 6.95,0.58 7.02,1.10 6.91,1.62 6.81,2.14 6.55,2.60 6.28,3.06 5.88,3.41 5.49,3.77 5.00,3.97 4.51,4.18 3.98,4.22 3.45,4.26 2.94,4.13 2.43,3.99 1.98,3.71 1.54,3.42 1.21,3.00 0.88,2.59 0.70,2.09 0.52,1.59 0.51,1.06 0.50,0.53 0.65,0.02 0.81,-0.47 1.13,-0.90 1.44,-1.33 1.87,-1.64 2.30,-1.94 2.81,-2.10 3.32,-2.25 3.85,-2.23 4.38,-2.21 4.88,-2.03 5.37,-1.84 5.37,-1.84 5.37,-1.84 6.96,2.23 8.56,6.31 8.49,7.88 8.41,9.45 7.98,11.38 7.55,13.31 6.75,14.93 5.95,16.54 5.05,17.77 4.15,19.00 3.18,19.53 2.21,20.07 0.99,20.36 -0.22,20.65 -1.59,20.27 -2.95,19.90 -3.65,18.90 -4.34,17.90 -4.48,16.43 -4.62,14.95 -4.55,13.22 -4.48,11.49 -4.44,10.23 -4.41,8.97 -4.31,7.86 -4.21,6.75 -3.65,4.39 -3.08,2.03 -2.82,0.76 -2.56,-0.51 -2.46,-0.81 -2.36,-1.11 -2.20,-1.37 -2.03,-1.64 -1.80,-1.86 -1.57,-2.08 -1.30,-2.24 -1.03,-2.40 -0.73,-2.49 -0.42,-2.58 -0.11,-2.59 0.20,-2.60 0.50,-2.54 0.81,-2.48 1.10,-2.35 1.38,-2.21 1.63,-2.01 1.87,-1.81 2.06,-1.56 2.26,-1.31 2.38,-1.02 2.50,-0.73 2.56,-0.42 2.61,-0.11 2.58,0.19 2.56,0.51 2.56,0.51 L 2.56,0.51 Z"></path></g><g transform="translate(512.4889289008247 152.84449598524313) rotate(0 0.4444376627604356 0)" stroke="none"><path fill="#1e1e1e" d="M 0.51,-2.32 Q 0.51,-2.32 0.88,-2.26 1.25,-2.20 1.58,-2.02 1.91,-1.85 2.17,-1.57 2.43,-1.30 2.59,-0.96 2.75,-0.62 2.79,-0.24 2.83,0.12 2.75,0.49 2.67,0.86 2.47,1.18 2.28,1.50 1.99,1.74 1.70,1.99 1.36,2.13 1.01,2.27 0.63,2.29 0.25,2.31 -0.10,2.21 -0.46,2.11 -0.77,1.89 -1.08,1.68 -1.31,1.38 -1.54,1.08 -1.66,0.73 -1.78,0.37 -1.78,-0.00 -1.78,-0.37 -1.66,-0.73 -1.54,-1.08 -1.31,-1.38 -1.08,-1.68 -0.77,-1.89 -0.46,-2.11 -0.10,-2.21 0.26,-2.31 0.63,-2.29 1.01,-2.27 1.36,-2.13 1.71,-1.99 1.99,-1.74 2.28,-1.50 2.47,-1.18 2.67,-0.86 2.75,-0.49 2.83,-0.12 2.79,0.24 2.75,0.62 2.59,0.96 2.43,1.30 2.17,1.57 1.91,1.85 1.58,2.02 1.25,2.20 0.88,2.26 0.51,2.32 0.51,2.32 0.51,2.32 0.22,2.35 -0.06,2.37 -0.34,2.33 -0.62,2.29 -0.89,2.18 -1.15,2.07 -1.39,1.91 -1.62,1.74 -1.80,1.52 -1.99,1.30 -2.11,1.04 -2.24,0.78 -2.30,0.50 -2.36,0.22 -2.36,-0.05 -2.35,-0.34 -2.27,-0.62 -2.20,-0.90 -2.06,-1.15 -1.92,-1.40 -1.72,-1.61 -1.53,-1.82 -1.29,-1.97 -1.05,-2.13 -0.78,-2.23 -0.51,-2.32 0.00,-2.32 L 0.51,-2.32 Z"></path></g><g transform="translate(525.822262234158 138.62228732638894) rotate(0 -2.6666937934027715 10.222201877170136)" stroke="none"><path fill="#1e1e1e" d="M -0.65,2.60 Q -0.65,2.60 -1.61,2.36 -2.58,2.13 -2.85,3.35 -3.12,4.57 -1.78,5.86 -0.45,7.14 0.74,7.61 1.93,8.08 2.94,8.80 3.95,9.52 4.77,10.92 5.59,12.32 6.36,14.12 7.13,15.93 7.12,17.81 7.11,19.70 6.55,20.70 5.99,21.70 4.74,22.62 3.50,23.54 2.23,23.91 0.96,24.27 -1.03,24.41 -3.04,24.54 -4.59,24.57 -6.15,24.60 -7.81,24.62 -9.48,24.63 -10.01,24.54 -10.54,24.46 -11.01,24.21 -11.48,23.96 -11.85,23.57 -12.22,23.18 -12.44,22.70 -12.67,22.21 -12.72,21.68 -12.78,21.15 -12.67,20.63 -12.55,20.11 -12.28,19.65 -12.00,19.19 -11.60,18.85 -11.19,18.50 -10.69,18.30 -10.20,18.10 -9.66,18.07 -9.13,18.04 -8.62,18.19 -8.10,18.33 -7.66,18.63 -7.22,18.93 -6.89,19.35 -6.57,19.78 -6.40,20.28 -6.23,20.79 -6.23,21.33 -6.23,21.86 -6.40,22.37 -6.57,22.87 -6.89,23.30 -7.21,23.72 -7.65,24.02 -8.10,24.32 -8.61,24.47 -9.13,24.61 -9.66,24.58 -10.19,24.55 -10.69,24.36 -11.19,24.16 -11.59,23.81 -12.00,23.47 -12.28,23.01 -12.55,22.55 -12.67,22.03 -12.78,21.51 -12.72,20.98 -12.67,20.45 -12.44,19.96 -12.22,19.48 -11.85,19.09 -11.49,18.70 -11.01,18.45 -10.54,18.20 -10.01,18.11 -9.49,18.03 -9.49,18.03 -9.49,18.03 -7.23,18.04 -4.96,18.05 -3.32,18.01 -1.69,17.97 -0.33,17.43 1.02,16.89 0.39,15.32 -0.22,13.74 -1.47,13.33 -2.72,12.93 -4.79,11.99 -6.87,11.05 -7.73,10.01 -8.59,8.98 -8.83,6.87 -9.07,4.75 -8.51,2.81 -7.94,0.87 -7.27,-0.08 -6.59,-1.04 -5.42,-1.92 -4.25,-2.81 -2.88,-2.98 -1.50,-3.16 -0.42,-2.88 0.65,-2.60 0.95,-2.48 1.25,-2.36 1.51,-2.18 1.78,-2.00 1.99,-1.75 2.21,-1.51 2.36,-1.22 2.50,-0.94 2.58,-0.62 2.66,-0.31 2.66,0.00 2.65,0.33 2.58,0.64 2.50,0.95 2.35,1.24 2.20,1.53 1.98,1.77 1.77,2.01 1.50,2.19 1.23,2.37 0.93,2.49 0.63,2.60 0.31,2.64 -0.00,2.68 -0.32,2.64 -0.65,2.60 -0.65,2.60 L -0.65,2.60 Z"></path></g><g transform="translate(34.26667955186633 43.51116943359389) rotate(0 -9.777781168619782 13.33331637912326)" stroke="none"><path fill="#1e1e1e" d="M 0,2.61 Q 0,2.61 -1.53,2.58 -3.06,2.55 -4.50,2.55 -5.93,2.54 -7.14,2.27 -8.36,2.01 -9.82,1.97 -11.28,1.94 -12.74,1.98 -14.21,2.01 -14.78,2.99 -15.35,3.97 -14.45,4.67 -13.56,5.38 -11.26,5.65 -8.96,5.92 -7.28,5.94 -5.59,5.95 -4.46,6.30 -3.33,6.64 -1.74,7.69 -0.15,8.74 0.45,9.67 1.06,10.61 1.86,11.94 2.67,13.27 2.84,14.67 3.01,16.06 3.05,18.26 3.09,20.46 3.11,21.88 3.13,23.29 2.73,24.45 2.34,25.61 0.80,27.14 -0.73,28.67 -2.08,29.51 -3.42,30.34 -5.10,30.58 -6.79,30.83 -8.52,30.85 -10.26,30.87 -12.19,30.54 -14.11,30.21 -15.53,29.67 -16.95,29.13 -18.05,28.29 -19.15,27.45 -20.54,26.52 -21.92,25.60 -22.22,25.13 -22.51,24.66 -22.64,24.12 -22.77,23.58 -22.71,23.03 -22.66,22.47 -22.44,21.97 -22.21,21.46 -21.84,21.05 -21.46,20.64 -20.98,20.37 -20.49,20.11 -19.94,20.01 -19.40,19.91 -18.85,19.99 -18.30,20.07 -17.80,20.33 -17.31,20.58 -16.92,20.98 -16.53,21.37 -16.29,21.87 -16.05,22.37 -15.99,22.92 -15.92,23.48 -16.03,24.02 -16.14,24.56 -16.42,25.04 -16.70,25.52 -17.11,25.89 -17.53,26.25 -18.04,26.47 -18.56,26.68 -19.11,26.72 -19.66,26.76 -20.20,26.62 -20.74,26.48 -21.20,26.17 -21.67,25.87 -22.01,25.43 -22.35,24.99 -22.54,24.47 -22.72,23.95 -22.73,23.39 -22.74,22.84 -22.57,22.31 -22.40,21.78 -22.07,21.33 -21.74,20.89 -21.29,20.57 -20.83,20.25 -20.30,20.09 -19.77,19.94 -19.21,19.96 -18.66,19.98 -18.14,20.18 -17.62,20.38 -17.19,20.73 -16.76,21.08 -16.76,21.08 -16.76,21.08 -15.16,22.31 -13.56,23.55 -12.52,23.88 -11.48,24.21 -10.06,24.21 -8.63,24.20 -7.16,24.27 -5.69,24.35 -4.41,23.67 -3.14,23.00 -3.13,21.77 -3.13,20.54 -3.19,18.56 -3.25,16.59 -3.72,15.21 -4.19,13.83 -5.03,12.80 -5.87,11.76 -7.62,11.65 -9.38,11.55 -10.90,11.46 -12.42,11.37 -14.35,11.04 -16.27,10.70 -17.74,9.87 -19.20,9.04 -20.21,7.51 -21.22,5.98 -21.22,4.14 -21.23,2.30 -20.77,1.00 -20.31,-0.29 -19.64,-1.28 -18.96,-2.27 -17.08,-3.05 -15.20,-3.83 -14.02,-3.75 -12.84,-3.68 -10.94,-3.55 -9.03,-3.41 -7.45,-2.97 -5.87,-2.54 -4.46,-2.55 -3.06,-2.55 -1.53,-2.58 0,-2.61 0.31,-2.57 0.62,-2.53 0.92,-2.42 1.21,-2.31 1.47,-2.13 1.73,-1.95 1.94,-1.72 2.15,-1.48 2.29,-1.20 2.44,-0.92 2.52,-0.62 2.59,-0.31 2.59,0.00 2.59,0.31 2.52,0.62 2.44,0.92 2.29,1.20 2.15,1.48 1.94,1.72 1.73,1.95 1.47,2.13 1.21,2.31 0.92,2.42 0.62,2.54 0.31,2.57 -0.00,2.61 -0.00,2.61 L 0,2.61 Z"></path></g><g transform="translate(72.48889499240454 231.95562065972226) rotate(0 10.666673448350707 -0.44445461697048927)" stroke="none"><path fill="#1e1e1e" d="M 0,-2.65 Q 0,-2.65 1.02,-2.68 2.04,-2.70 3.28,-2.78 4.52,-2.85 6.45,-2.88 8.39,-2.91 9.55,-2.91 10.72,-2.91 12.04,-2.96 13.37,-3.01 14.59,-3.05 15.81,-3.09 18.36,-3.58 20.91,-4.07 21.42,-4.00 21.93,-3.94 22.40,-3.72 22.87,-3.50 23.24,-3.14 23.61,-2.78 23.85,-2.32 24.09,-1.86 24.17,-1.35 24.24,-0.84 24.15,-0.33 24.07,0.17 23.82,0.63 23.57,1.08 23.19,1.43 22.81,1.78 22.34,2.00 21.87,2.21 21.35,2.26 20.84,2.31 20.34,2.19 19.83,2.08 19.39,1.80 18.95,1.53 18.62,1.14 18.29,0.74 18.10,0.26 17.92,-0.22 17.89,-0.73 17.87,-1.25 18.02,-1.75 18.16,-2.24 18.45,-2.67 18.75,-3.09 19.16,-3.40 19.58,-3.71 20.07,-3.87 20.56,-4.03 21.08,-4.03 21.60,-4.02 22.09,-3.85 22.57,-3.68 22.98,-3.36 23.39,-3.05 23.68,-2.61 23.96,-2.18 24.10,-1.68 24.23,-1.18 24.20,-0.67 24.16,-0.15 23.96,0.32 23.77,0.80 23.43,1.19 23.09,1.58 22.64,1.84 22.20,2.10 21.69,2.21 21.19,2.31 21.19,2.31 21.19,2.31 20.28,2.31 19.36,2.31 17.59,2.70 15.81,3.09 14.59,3.05 13.37,3.01 12.04,2.96 10.72,2.91 9.55,2.91 8.39,2.91 6.45,2.88 4.52,2.85 3.28,2.78 2.04,2.70 1.02,2.68 0,2.65 -0.31,2.61 -0.63,2.57 -0.93,2.46 -1.23,2.34 -1.49,2.16 -1.75,1.98 -1.97,1.74 -2.18,1.50 -2.33,1.22 -2.48,0.94 -2.55,0.63 -2.63,0.31 -2.63,-0.00 -2.63,-0.32 -2.55,-0.63 -2.48,-0.94 -2.33,-1.22 -2.18,-1.50 -1.97,-1.74 -1.75,-1.98 -1.49,-2.16 -1.23,-2.34 -0.93,-2.46 -0.63,-2.57 -0.31,-2.61 0.00,-2.65 0.00,-2.65 L 0,-2.65 Z"></path></g><g transform="translate(73.37777031792538 291.5111829969618) rotate(0 10.222235785590286 -1.3333468967013573)" stroke="none"><path fill="#1e1e1e" d="M -0.51,-2.59 Q -0.51,-2.59 0.75,-2.85 2.03,-3.11 3.75,-3.68 5.47,-4.25 6.73,-4.44 7.99,-4.63 9.34,-4.70 10.69,-4.77 12.37,-4.84 14.06,-4.90 17.04,-5.40 20.02,-5.90 20.54,-5.84 21.06,-5.78 21.54,-5.55 22.01,-5.33 22.39,-4.96 22.77,-4.59 23.01,-4.13 23.26,-3.66 23.34,-3.14 23.42,-2.62 23.33,-2.10 23.23,-1.58 22.98,-1.11 22.73,-0.65 22.35,-0.29 21.96,0.05 21.48,0.27 21.00,0.49 20.47,0.54 19.95,0.59 19.44,0.47 18.92,0.35 18.47,0.08 18.03,-0.19 17.69,-0.59 17.35,-1.00 17.16,-1.49 16.97,-1.98 16.95,-2.51 16.93,-3.04 17.07,-3.54 17.22,-4.05 17.52,-4.48 17.82,-4.91 18.24,-5.23 18.66,-5.54 19.16,-5.71 19.67,-5.87 20.19,-5.86 20.72,-5.86 21.22,-5.68 21.71,-5.51 22.13,-5.19 22.55,-4.86 22.84,-4.43 23.13,-3.99 23.26,-3.48 23.40,-2.97 23.37,-2.44 23.33,-1.92 23.13,-1.43 22.93,-0.94 22.59,-0.54 22.24,-0.15 21.79,0.11 21.33,0.38 20.82,0.49 20.30,0.59 20.30,0.59 20.30,0.59 19.46,0.57 18.62,0.55 17.48,0.96 16.35,1.37 15.20,1.36 14.06,1.35 12.40,1.29 10.75,1.23 9.53,1.19 8.32,1.15 6.93,1.23 5.54,1.30 4.31,1.69 3.07,2.08 1.79,2.34 0.51,2.59 0.20,2.62 -0.11,2.64 -0.43,2.59 -0.74,2.54 -1.04,2.41 -1.33,2.28 -1.58,2.09 -1.84,1.90 -2.04,1.65 -2.24,1.40 -2.38,1.11 -2.51,0.82 -2.57,0.51 -2.64,0.20 -2.62,-0.11 -2.61,-0.43 -2.52,-0.74 -2.43,-1.04 -2.27,-1.32 -2.11,-1.60 -1.88,-1.83 -1.66,-2.05 -1.39,-2.22 -1.12,-2.39 -0.82,-2.49 -0.51,-2.59 -0.51,-2.59 L -0.51,-2.59 Z"></path></g><g transform="translate(74.26667955186636 114.62228054470492) rotate(0 4.88888210720485 0)" stroke="none"><path fill="#1e1e1e" d="M 0,-2.50 Q 0,-2.50 1.27,-2.52 2.55,-2.53 5.99,-2.59 9.44,-2.65 9.86,-2.58 10.28,-2.51 10.66,-2.31 11.04,-2.11 11.34,-1.80 11.63,-1.49 11.81,-1.10 12.00,-0.71 12.04,-0.28 12.09,0.14 12.00,0.56 11.90,0.98 11.68,1.35 11.46,1.72 11.13,1.99 10.80,2.27 10.41,2.43 10.01,2.59 9.58,2.61 9.15,2.64 8.73,2.52 8.32,2.41 7.96,2.17 7.61,1.92 7.35,1.58 7.09,1.24 6.95,0.83 6.81,0.42 6.81,-0.00 6.81,-0.43 6.95,-0.83 7.09,-1.24 7.35,-1.58 7.61,-1.92 7.96,-2.17 8.32,-2.41 8.73,-2.52 9.15,-2.64 9.58,-2.61 10.01,-2.59 10.41,-2.43 10.81,-2.27 11.13,-1.99 11.46,-1.71 11.68,-1.35 11.90,-0.98 12.00,-0.56 12.09,-0.14 12.04,0.28 12.00,0.71 11.81,1.10 11.63,1.49 11.34,1.80 11.04,2.11 10.66,2.31 10.28,2.51 9.86,2.58 9.43,2.65 9.43,2.65 9.44,2.65 5.99,2.59 2.55,2.53 1.27,2.52 0,2.50 -0.29,2.46 -0.59,2.43 -0.88,2.32 -1.16,2.21 -1.41,2.04 -1.66,1.87 -1.86,1.64 -2.06,1.42 -2.20,1.15 -2.34,0.88 -2.41,0.59 -2.48,0.30 -2.48,-0.00 -2.48,-0.30 -2.41,-0.59 -2.34,-0.88 -2.20,-1.15 -2.06,-1.42 -1.86,-1.64 -1.66,-1.87 -1.41,-2.04 -1.16,-2.21 -0.88,-2.32 -0.59,-2.43 -0.29,-2.46 0.00,-2.50 0.00,-2.50 L 0,-2.50 Z"></path></g><g transform="translate(75.1555548773872 170.6222737630209) rotate(0 11.555565728081604 -1.333329942491332)" stroke="none"><path fill="#1e1e1e" d="M 0,-2.54 Q 0,-2.54 2.04,-2.41 4.08,-2.27 5.46,-2.30 6.84,-2.32 8.81,-2.42 10.78,-2.51 12.01,-2.58 13.24,-2.66 14.26,-3.48 15.29,-4.29 16.55,-4.51 17.81,-4.73 19.66,-5.03 21.51,-5.33 22.00,-5.45 22.48,-5.58 22.98,-5.53 23.47,-5.49 23.93,-5.30 24.39,-5.10 24.76,-4.77 25.13,-4.43 25.38,-4.00 25.63,-3.56 25.72,-3.07 25.81,-2.58 25.75,-2.09 25.68,-1.59 25.46,-1.15 25.24,-0.70 24.88,-0.35 24.53,0.00 24.08,0.22 23.63,0.44 23.14,0.51 22.65,0.57 22.15,0.48 21.66,0.39 21.23,0.14 20.80,-0.10 20.46,-0.47 20.13,-0.84 19.93,-1.30 19.74,-1.76 19.69,-2.25 19.65,-2.75 19.77,-3.24 19.90,-3.72 20.16,-4.14 20.43,-4.56 20.82,-4.87 21.21,-5.19 21.68,-5.36 22.15,-5.53 22.65,-5.54 23.15,-5.56 23.62,-5.41 24.10,-5.26 24.51,-4.97 24.91,-4.68 25.20,-4.28 25.49,-3.87 25.64,-3.39 25.79,-2.91 25.77,-2.42 25.76,-1.92 25.59,-1.45 25.41,-0.98 25.10,-0.59 24.79,-0.20 24.37,0.06 23.95,0.33 23.95,0.33 23.95,0.32 21.07,0.79 18.19,1.26 16.92,1.60 15.65,1.94 14.58,2.30 13.52,2.66 12.15,2.58 10.78,2.51 8.81,2.42 6.84,2.32 5.46,2.30 4.08,2.27 2.04,2.41 0,2.54 -0.30,2.51 -0.60,2.47 -0.89,2.36 -1.18,2.25 -1.43,2.08 -1.68,1.90 -1.89,1.67 -2.09,1.44 -2.23,1.17 -2.38,0.90 -2.45,0.60 -2.52,0.30 -2.52,-0.00 -2.52,-0.30 -2.45,-0.60 -2.38,-0.90 -2.23,-1.17 -2.09,-1.44 -1.89,-1.67 -1.68,-1.90 -1.43,-2.08 -1.18,-2.25 -0.89,-2.36 -0.60,-2.47 -0.30,-2.51 0.00,-2.54 0.00,-2.54 L 0,-2.54 Z"></path></g></svg>